<svg version="1.2" xmlns="http://www.w3.org/2000/svg" viewBox="0 0 962 1265" width="962" height="1265">
	<title>Ai-Mentors-svg</title>
	<defs>
		<linearGradient id="g1" x1="473.3" y1="418.9" x2="473.3" y2="1251.4" gradientUnits="userSpaceOnUse">
			<stop offset="0" stop-color="#f1ce41"/>
			<stop offset="1" stop-color="#e73d25"/>
		</linearGradient>
		<linearGradient id="g2" x1="681.2" y1="714.1" x2="830.4" y2="714.1" gradientUnits="userSpaceOnUse">
			<stop offset="0" stop-color="#f1ce41"/>
			<stop offset="1" stop-color="#e73d25"/>
		</linearGradient>
		<linearGradient id="g3" x1="627.6" y1="651.2" x2="763.9" y2="651.2" gradientUnits="userSpaceOnUse">
			<stop offset="0" stop-color="#f1ce41"/>
			<stop offset="1" stop-color="#e73d25"/>
		</linearGradient>
		<linearGradient id="g4" x1="798.8" y1="795.6" x2="875.2" y2="795.6" gradientUnits="userSpaceOnUse">
			<stop offset="0" stop-color="#f1ce41"/>
			<stop offset="1" stop-color="#e73d25"/>
		</linearGradient>
		<linearGradient id="g5" x1="822.1" y1="835.2" x2="923.7" y2="835.2" gradientUnits="userSpaceOnUse">
			<stop offset="0" stop-color="#f1ce41"/>
			<stop offset="1" stop-color="#e73d25"/>
		</linearGradient>
		<linearGradient id="g6" x1="477.5" y1="139" x2="477.5" y2="256.3" gradientUnits="userSpaceOnUse">
			<stop offset="0" stop-color="#e73d25"/>
			<stop offset="1" stop-color="#f1ce41"/>
		</linearGradient>
		<linearGradient id="g7" x1="477.5" y1="124.9" x2="477.5" y2="175.7" gradientUnits="userSpaceOnUse">
			<stop offset="0" stop-color="#f1ce41"/>
			<stop offset="1" stop-color="#e73d25"/>
		</linearGradient>
		<linearGradient id="g8" x1="115.7" y1="718.2" x2="255.2" y2="718.2" gradientUnits="userSpaceOnUse">
			<stop offset="0" stop-color="#f1ce41"/>
			<stop offset="1" stop-color="#e73d25"/>
		</linearGradient>
		<linearGradient id="g9" x1="313.5" y1="650.2" x2="177" y2="650.2" gradientUnits="userSpaceOnUse">
			<stop offset="0" stop-color="#f1ce41"/>
			<stop offset="1" stop-color="#e73d25"/>
		</linearGradient>
		<linearGradient id="g10" x1="81.7" y1="801.4" x2="155.6" y2="801.4" gradientUnits="userSpaceOnUse">
			<stop offset="0" stop-color="#f1ce41"/>
			<stop offset="1" stop-color="#e73d25"/>
		</linearGradient>
		<linearGradient id="g11" x1="42.7" y1="839.3" x2="139.3" y2="839.3" gradientUnits="userSpaceOnUse">
			<stop offset="0" stop-color="#f1ce41"/>
			<stop offset="1" stop-color="#e73d25"/>
		</linearGradient>
		<linearGradient id="g12" x1="472.1" y1="238" x2="472.1" y2="635.7" gradientUnits="userSpaceOnUse">
			<stop offset="0" stop-color="#f1ce41"/>
			<stop offset="1" stop-color="#e73d25"/>
		</linearGradient>
	</defs>
	<style>
		.s0 { fill: url(#g1) } 
		.s1 { fill: url(#g2) } 
		.s2 { fill: url(#g3) } 
		.s3 { fill: url(#g4) } 
		.s4 { fill: url(#g5) } 
		.s5 { fill: url(#g6) } 
		.s6 { fill: url(#g7) } 
		.s7 { fill: #ffffff } 
		.s8 { fill: url(#g8) } 
		.s9 { fill: url(#g9) } 
		.s10 { fill: url(#g10) } 
		.s11 { fill: url(#g11) } 
		.s12 { fill: url(#g12) } 
		.s13 { fill: #e73d25 } 
	</style>
	<path id="Layer" class="s0" d="m706.1 835.2c0 229.9-145.6 416.2-234 416.2-88.4 0-231.7-186.3-231.7-416.2 0-229.9 102.5-416.3 231.7-416.3 129.2 0 234 186.5 234 416.3z"/>
	<path id="Layer" class="s1" d="m830.4 764.4l-24.5 24.5-124.8-124.8 24.5-24.5z"/>
	<path id="Layer" class="s2" d="m689.9 705.6l-47.6-42.9c-4.3-3.9-7.8-8.6-10.4-13.8-2.5-5.3-3.9-11-4.3-16.8-0.3-5.8 0.6-11.6 2.5-17.1 1.9-5.5 4.9-10.6 8.8-14.9 3.9-4.3 8.6-7.9 13.9-10.4 5.2-2.5 10.9-4 16.7-4.3 5.8-0.3 11.7 0.5 17.1 2.5 5.5 1.9 10.6 4.9 14.9 8.8l47.7 42.8c4.3 3.9 7.8 8.6 10.3 13.9 2.5 5.2 4 10.9 4.3 16.8 0.3 5.8-0.5 11.6-2.4 17.1-1.9 5.5-4.9 10.6-8.8 14.9-3.9 4.4-8.6 7.9-13.9 10.4-5.2 2.5-10.9 3.9-16.8 4.2-5.8 0.3-11.6-0.5-17.1-2.4-5.5-2-10.6-5-14.9-8.8z"/>
	<path id="Layer" class="s3" d="m851.7 832c-4.4 1.6-9 2.3-13.7 2-4.6-0.2-9.2-1.3-13.4-3.3-4.2-2-8-4.8-11.2-8.2l-5.4-6.1c-3.2-3.5-5.6-7.5-7.1-11.9-1.6-4.4-2.3-9.1-2.1-13.7 0.3-4.7 1.4-9.3 3.4-13.5 2-4.2 4.8-8 8.2-11.1 3.5-3.2 7.5-5.6 11.9-7.1 4.4-1.6 9.1-2.2 13.7-2 4.7 0.2 9.2 1.4 13.4 3.4 4.2 2 8 4.8 11.1 8.2l5.6 6c3.1 3.5 5.5 7.5 7.1 11.9 1.5 4.4 2.2 9.1 2 13.7-0.2 4.7-1.4 9.3-3.4 13.5-1.9 4.2-4.7 8-8.2 11.1-3.4 3.2-7.5 5.6-11.9 7.1z"/>
	<path id="Layer" class="s4" d="m873 886c-28.1 0-50.8-22.7-50.8-50.8 0-28 22.7-50.7 50.8-50.7 28 0 50.7 22.7 50.7 50.7 0 28.1-22.7 50.8-50.7 50.8z"/>
	<path id="Layer" class="s5" d="m463.9 256.3l14.1-117.3 13.1 117.3h-27.2z"/>
	<path id="Layer" class="s6" d="m503.5 150.3c0 10.3-6.2 19.6-15.7 23.6-9.5 4-20.5 1.8-27.8-5.5-7.3-7.3-9.5-18.2-5.6-27.8 4-9.5 13.3-15.7 23.6-15.7 3.3 0 6.6 0.6 9.7 1.9 3.1 1.3 5.9 3.1 8.3 5.5 2.3 2.4 4.2 5.2 5.5 8.2 1.3 3.1 2 6.4 2 9.8z"/>
	<path id="Layer" class="s7" d="m595.9 619.1c0 36.3-55.7 65.8-124.3 65.8-68.7 0-124.4-29.5-124.4-65.8q-0.1-0.1-0.1-0.3 0-0.1 0-0.3 0-0.2 0-0.3 0-0.2 0.1-0.3 15 4.8 30.3 8.4 15.4 3.5 31 5.8 15.6 2.2 31.3 3.1 15.8 1 31.6 0.5 15.7 0.5 31.5-0.4 15.7-0.8 31.4-2.9 15.6-2.1 31-5.4 15.5-3.3 30.6-7.9z"/>
	<path id="Layer" class="s8" d="m228.5 639.5l26.7 22.2-112.9 135.6-26.7-22.2z"/>
	<path id="Layer" class="s9" d="m236 713.3c-5.5 1.9-11.4 2.7-17.2 2.4-5.8-0.4-11.5-1.9-16.7-4.4-5.3-2.6-10-6.1-13.8-10.5-3.9-4.3-6.9-9.4-8.8-14.9-1.9-5.5-2.7-11.3-2.4-17.1 0.4-5.8 1.9-11.5 4.4-16.8 2.5-5.2 6.1-9.9 10.4-13.8l47.9-42.8c4.3-3.9 9.4-6.9 14.9-8.8 5.5-1.9 11.3-2.6 17.2-2.3 5.8 0.3 11.5 1.8 16.7 4.4 5.2 2.5 9.9 6.1 13.8 10.4 3.9 4.4 6.8 9.5 8.8 15 1.9 5.5 2.7 11.3 2.3 17.1-0.3 5.8-1.8 11.5-4.4 16.8-2.5 5.2-6.1 9.9-10.4 13.8l-47.8 42.8c-4.4 3.8-9.4 6.8-14.9 8.7z"/>
	<path id="Layer" class="s10" d="m86.6 823.9c-2.3-3.8-3.8-7.9-4.5-12.2-0.6-4.3-0.5-8.7 0.6-12.9 1-4.2 2.8-8.2 5.4-11.8l7.6-10.7c2.5-3.5 5.8-6.5 9.5-8.7 3.7-2.3 7.8-3.8 12.2-4.5 4.3-0.6 8.7-0.4 12.9 0.6 4.2 1 8.2 2.9 11.7 5.5 3.5 2.5 6.5 5.8 8.8 9.5 2.2 3.7 3.7 7.8 4.4 12.1 0.7 4.3 0.5 8.7-0.5 13-1 4.2-2.9 8.2-5.4 11.7l-7.6 10.7c-2.6 3.5-5.8 6.5-9.5 8.8-3.8 2.2-7.9 3.7-12.2 4.4-4.3 0.7-8.7 0.5-12.9-0.5-4.3-1.1-8.2-2.9-11.8-5.5-3.5-2.6-6.4-5.8-8.7-9.5z"/>
	<path id="Layer" class="s11" d="m139.4 839.3c0 19.6-11.8 37.2-29.9 44.7-18 7.5-38.9 3.3-52.7-10.5-13.8-13.9-18-34.7-10.4-52.8 7.5-18.1 25.2-29.9 44.8-29.8 6.3 0 12.6 1.3 18.4 3.7 5.9 2.4 11.2 6 15.7 10.5 4.5 4.5 8 9.8 10.5 15.7 2.4 5.9 3.6 12.1 3.6 18.5z"/>
	<path id="Layer" class="s12" d="m731.3 435.7c0 84.5-34.4 145.2-124.1 178-69.8 33.7-196.7 21.4-245.3 10.7-88-33.3-149-105.3-149-188.8 0-115.1 116.1-197.8 259.2-197.8 143.2 0 259.2 82.8 259.2 197.9z"/>
	<path id="Layer" class="s7" d="m574.2 542.9h-193.5c-8.3 0-16.5-1.6-24.2-4.8-7.6-3.2-14.6-7.8-20.4-13.7-5.9-5.8-10.5-12.8-13.7-20.4-3.2-7.7-4.8-15.9-4.8-24.2v-51.5c0-34.9 20.5-56 56.9-56 15.7 0 61 10.7 99.4 10.7q10.7-0.4 21.4-1.5 10.7-1 21.3-2.6 10.6-1.6 21.1-3.8 10.5-2.2 20.9-5c39.6-8.4 80.7 12.7 79 42.8 0 4.7 0 10.7 0 15.8v51.5c0 8.2-1.7 16.4-4.9 24.1-3.2 7.6-7.9 14.5-13.8 20.4-5.9 5.8-12.8 10.4-20.5 13.5-7.7 3.2-15.9 4.7-24.2 4.7z"/>
	<path id="Layer" class="s13" d="m408.5 484.5c-9 0-16.3-12.9-16.3-29 0-16 7.3-29 16.3-29 9 0 16.3 13 16.3 29 0 16.1-7.3 29-16.3 29z"/>
	<path id="Layer" class="s13" d="m526.9 484.5c-8.7 0-15.7-12.9-15.7-29 0-16 7-29 15.7-29 8.6 0 15.7 13 15.7 29 0 16.1-7.1 29-15.7 29z"/>
	<path id="Layer" class="s13" d="m473.2 520.8q-5.3 0.1-10.6-0.5-5.3-0.5-10.4-1.6-5.2-1.1-10.3-2.7-5-1.7-9.8-3.8-0.4-0.2-0.7-0.5-0.3-0.3-0.4-0.7-0.2-0.4-0.1-0.8 0-0.4 0.2-0.8 0.2-0.4 0.5-0.7 0.3-0.3 0.7-0.4 0.4-0.1 0.9-0.1 0.4 0 0.8 0.2c6 2.6 12.2 4.6 18.6 5.9 6.4 1.3 13 2 19.5 2 6.5 0 13.1-0.7 19.5-2 6.4-1.3 12.6-3.3 18.6-5.9q0.4-0.1 0.8-0.2 0.5 0 0.9 0.2 0.4 0.1 0.7 0.4 0.3 0.3 0.5 0.7 0.2 0.4 0.2 0.8 0 0.5-0.1 0.9-0.2 0.4-0.5 0.7-0.3 0.3-0.7 0.5-4.5 2.1-9.3 3.7-4.7 1.6-9.6 2.7-4.9 1.1-9.9 1.6-5 0.5-10 0.4z"/>
	<path id="Layer" fill-rule="evenodd" class="s7" d="m584.1 901.6h-212.2c-4.7 0-9.4-0.9-13.8-2.8-4.3-1.8-8.3-4.4-11.6-7.8-3.4-3.3-6-7.3-7.8-11.6-1.8-4.4-2.8-9-2.8-13.8v-67.4c0-5.5 1.1-11 3.2-16.1 2.2-5.1 5.2-9.7 9.1-13.6 3.9-3.9 8.6-7 13.6-9.1 5.1-2.1 10.6-3.2 16.1-3.2h203.4c4.9 0 9.7 1 14.2 2.8 4.5 1.9 8.5 4.6 12 8.1 3.4 3.4 6.1 7.5 8 12 1.9 4.5 2.8 9.3 2.9 14.1v73.7c-0.1 4.5-1 9-2.7 13.2-1.7 4.1-4.2 7.9-7.4 11.1-3.2 3.2-6.9 5.8-11.1 7.6-4.1 1.8-8.6 2.7-13.1 2.8zm-78-110.6q0-0.9-0.3-1.7-0.3-0.8-1-1.5-0.6-0.6-1.4-1-0.9-0.3-1.7-0.3h-131.3q-0.9 0-1.7 0.3-0.9 0.4-1.5 1-0.6 0.7-1 1.5-0.3 0.8-0.3 1.7 0 0.9 0.3 1.8 0.3 0.8 1 1.4 0.6 0.7 1.4 1.1 0.9 0.3 1.8 0.3h131.3q0.9 0 1.7-0.3 0.8-0.4 1.5-1.1 0.6-0.6 0.9-1.4 0.4-0.9 0.3-1.8zm89.8 0q0-0.9-0.4-1.7-0.3-0.9-1-1.5-0.6-0.7-1.5-1-0.8-0.3-1.7-0.3h-63.3q-0.9 0-1.7 0.3-0.9 0.4-1.5 1-0.6 0.7-1 1.5-0.3 0.8-0.3 1.7 0 0.9 0.3 1.8 0.3 0.8 1 1.4 0.6 0.7 1.4 1.1 0.9 0.3 1.8 0.3h63.3q0.9 0 1.7-0.3 0.9-0.4 1.5-1 0.7-0.7 1-1.5 0.4-0.9 0.4-1.8zm-151.3 29.9q0-0.9-0.4-1.7-0.3-0.9-0.9-1.5-0.7-0.6-1.5-1-0.8-0.3-1.7-0.3h-69.7q-0.9 0-1.7 0.3-0.9 0.4-1.5 1-0.6 0.6-1 1.5-0.3 0.8-0.3 1.7 0 0.9 0.3 1.7 0.4 0.8 1 1.5 0.6 0.6 1.5 0.9 0.8 0.4 1.7 0.4h69.7q0.9 0 1.7-0.4 0.8-0.3 1.5-0.9 0.6-0.7 0.9-1.5 0.4-0.8 0.4-1.7zm151.3 0q0-0.9-0.4-1.8-0.3-0.8-1-1.4-0.6-0.7-1.5-1-0.8-0.3-1.7-0.3h-123.8q-0.9 0-1.8 0.3-0.8 0.3-1.5 1-0.6 0.6-1 1.4-0.3 0.9-0.3 1.8 0 0.9 0.3 1.7 0.4 0.9 1 1.5 0.7 0.6 1.5 1 0.9 0.3 1.8 0.3h123.8q0.9 0 1.7-0.3 0.9-0.4 1.5-1 0.7-0.6 1-1.5 0.4-0.8 0.4-1.7zm-11.9 36.4q0-0.9-0.4-1.7-0.3-0.9-0.9-1.5-0.7-0.6-1.5-1-0.8-0.3-1.7-0.3h-205.5q-0.9 0-1.7 0.3-0.8 0.4-1.4 1-0.7 0.6-1 1.5-0.4 0.8-0.4 1.7 0 0.9 0.4 1.7 0.3 0.8 1 1.5 0.6 0.6 1.4 0.9 0.8 0.4 1.7 0.4h205.5q0.9 0 1.7-0.4 0.8-0.3 1.5-0.9 0.6-0.7 0.9-1.5 0.4-0.8 0.4-1.7z"/>
</svg>