<svg version="1.2" xmlns="http://www.w3.org/2000/svg" viewBox="0 0 600 600" width="600" height="600">
	<title>Ai-Mentors-svg</title>
	<defs>
		<linearGradient id="g1" x1="305.5" y1="59" x2="305.5" y2="176.3" gradientUnits="userSpaceOnUse">
			<stop offset="0" stop-color="#e73d25"/>
			<stop offset="1" stop-color="#f1ce41"/>
		</linearGradient>
		<linearGradient id="g2" x1="305.5" y1="44.9" x2="305.5" y2="95.7" gradientUnits="userSpaceOnUse">
			<stop offset="0" stop-color="#f1ce41"/>
			<stop offset="1" stop-color="#e73d25"/>
		</linearGradient>
		<linearGradient id="g3" x1="300.1" y1="158" x2="300.1" y2="555.7" gradientUnits="userSpaceOnUse">
			<stop offset="0" stop-color="#f1ce41"/>
			<stop offset="1" stop-color="#e73d25"/>
		</linearGradient>
	</defs>
	<style>
		.s0 { fill: url(#g1) } 
		.s1 { fill: url(#g2) } 
		.s2 { fill: url(#g3) } 
		.s3 { fill: #ffffff } 
		.s4 { fill: #e73d25 } 
	</style>
	<path id="Layer" class="s0" d="m291.9 176.3l14.1-117.3 13.1 117.3h-27.2z"/>
	<path id="Layer" class="s1" d="m331.5 70.3c0 10.3-6.2 19.6-15.7 23.6-9.5 4-20.5 1.8-27.8-5.5-7.3-7.3-9.5-18.2-5.6-27.8 4-9.5 13.3-15.7 23.6-15.7 3.3 0 6.6 0.6 9.7 1.9 3.1 1.3 5.9 3.1 8.3 5.5 2.3 2.4 4.2 5.2 5.5 8.2 1.3 3.1 2 6.4 2 9.8z"/>
	<path id="Layer" class="s2" d="m559.3 355.7c0 84.5-34.4 145.2-124.1 178-69.8 33.7-196.7 21.4-245.3 10.7-88-33.3-149-105.3-149-188.8 0-115.1 116.1-197.8 259.2-197.8 143.2 0 259.2 82.8 259.2 197.9z"/>
	<path id="Layer" class="s3" d="m402.2 462.9h-193.5c-8.3 0-16.5-1.6-24.2-4.8-7.6-3.2-14.6-7.8-20.4-13.7-5.9-5.8-10.5-12.8-13.7-20.4-3.2-7.7-4.8-15.9-4.8-24.2v-51.5c0-34.9 20.5-56 56.9-56 15.7 0 61 10.7 99.4 10.7q10.7-0.4 21.4-1.5 10.7-1 21.3-2.6 10.6-1.6 21.1-3.8 10.5-2.2 20.9-5c39.6-8.4 80.7 12.7 79 42.8 0 4.7 0 10.7 0 15.8v51.5c0 8.2-1.7 16.4-4.9 24.1-3.2 7.6-7.9 14.5-13.8 20.4-5.9 5.8-12.8 10.4-20.5 13.5-7.7 3.2-15.9 4.7-24.2 4.7z"/>
	<path id="Layer" class="s4" d="m236.5 404.5c-9 0-16.3-12.9-16.3-29 0-16 7.3-29 16.3-29 9 0 16.3 13 16.3 29 0 16.1-7.3 29-16.3 29z"/>
	<path id="Layer" class="s4" d="m354.9 404.5c-8.7 0-15.7-12.9-15.7-29 0-16 7-29 15.7-29 8.6 0 15.7 13 15.7 29 0 16.1-7.1 29-15.7 29z"/>
	<path id="Layer" class="s4" d="m301.2 440.8q-5.3 0.1-10.6-0.5-5.3-0.5-10.4-1.6-5.2-1.1-10.3-2.7-5-1.7-9.8-3.8-0.4-0.2-0.7-0.5-0.3-0.3-0.4-0.7-0.2-0.4-0.1-0.8 0-0.4 0.2-0.8 0.2-0.4 0.5-0.7 0.3-0.3 0.7-0.4 0.4-0.1 0.9-0.1 0.4 0 0.8 0.2c6 2.6 12.2 4.6 18.6 5.9 6.4 1.3 13 2 19.5 2 6.5 0 13.1-0.7 19.5-2 6.4-1.3 12.6-3.3 18.6-5.9q0.4-0.1 0.8-0.2 0.5 0 0.9 0.2 0.4 0.1 0.7 0.4 0.3 0.3 0.5 0.7 0.2 0.4 0.2 0.8 0 0.5-0.1 0.9-0.2 0.4-0.5 0.7-0.3 0.3-0.7 0.5-4.5 2.1-9.3 3.7-4.7 1.6-9.6 2.7-4.9 1.1-9.9 1.6-5 0.5-10 0.4z"/>
</svg>