<svg id="Layer_1" data-name="Layer 1" xmlns="http://www.w3.org/2000/svg" xmlns:xlink="http://www.w3.org/1999/xlink" viewBox="0 0 465.54 235.67"><defs><style>.cls-1{fill:none;clip-rule:evenodd;}.cls-2{fill:url(#linear-gradient);}.cls-3{fill:url(#linear-gradient-2);}.cls-4{fill:url(#linear-gradient-3);}.cls-5{fill:url(#linear-gradient-4);}.cls-6{fill:url(#linear-gradient-5);}.cls-7{fill:url(#linear-gradient-6);}.cls-8{opacity:0.3;}.cls-9{fill:url(#linear-gradient-7);}.cls-10{fill:url(#linear-gradient-8);}.cls-11{fill:url(#linear-gradient-9);}.cls-12{fill:url(#linear-gradient-10);}.cls-13{fill:url(#linear-gradient-11);}.cls-14{fill:url(#linear-gradient-12);}.cls-15{fill:url(#linear-gradient-13);}.cls-16{fill:url(#linear-gradient-14);}.cls-17{fill:url(#linear-gradient-15);}.cls-18{fill:url(#linear-gradient-16);}.cls-19{fill:url(#linear-gradient-17);}.cls-20{fill:url(#linear-gradient-18);}.cls-21{fill:url(#linear-gradient-19);}.cls-22{fill:url(#linear-gradient-20);}.cls-23{fill:url(#linear-gradient-21);}.cls-24{fill:url(#linear-gradient-22);}.cls-25{fill:url(#linear-gradient-23);}.cls-26{fill:url(#linear-gradient-24);}.cls-27{fill:url(#linear-gradient-25);}.cls-28{fill:url(#linear-gradient-26);}.cls-29{fill:url(#linear-gradient-27);}.cls-30{fill:url(#linear-gradient-28);}.cls-31{fill:url(#linear-gradient-29);}.cls-32{fill:url(#linear-gradient-30);}.cls-33{fill:url(#linear-gradient-31);}.cls-34{fill:url(#linear-gradient-32);}.cls-35{fill:url(#linear-gradient-33);}.cls-36{fill:url(#linear-gradient-34);}.cls-37{fill:url(#linear-gradient-35);}.cls-38{fill:url(#linear-gradient-36);}.cls-39{fill:url(#linear-gradient-37);}.cls-40{fill:url(#linear-gradient-38);}.cls-41{fill:url(#linear-gradient-39);}.cls-42{fill:url(#linear-gradient-40);}.cls-43{fill:url(#linear-gradient-41);}.cls-44{fill:url(#linear-gradient-42);}.cls-45{fill:url(#linear-gradient-43);}.cls-46{fill:url(#linear-gradient-44);}.cls-47{fill:url(#linear-gradient-45);}.cls-48{fill:url(#linear-gradient-46);}.cls-49{fill:url(#linear-gradient-47);}.cls-50{fill:url(#linear-gradient-48);}.cls-51{fill:url(#linear-gradient-49);}.cls-52{fill:url(#linear-gradient-50);}.cls-53{fill:url(#linear-gradient-51);}.cls-54{fill:url(#linear-gradient-52);}.cls-55{fill:url(#linear-gradient-53);}.cls-56{fill:url(#linear-gradient-54);}.cls-57{fill:url(#linear-gradient-55);}.cls-58{fill:url(#linear-gradient-56);}.cls-59{fill:url(#linear-gradient-57);}.cls-60,.cls-82{fill:#fff;}.cls-100,.cls-101,.cls-102,.cls-103,.cls-104,.cls-105,.cls-106,.cls-107,.cls-108,.cls-109,.cls-110,.cls-111,.cls-114,.cls-115,.cls-116,.cls-60,.cls-61,.cls-62,.cls-63,.cls-64,.cls-65,.cls-66,.cls-67,.cls-68,.cls-69,.cls-70,.cls-71,.cls-72,.cls-73,.cls-74,.cls-75,.cls-76,.cls-77,.cls-80,.cls-81,.cls-83,.cls-85,.cls-86,.cls-87,.cls-88,.cls-89,.cls-90,.cls-91,.cls-92,.cls-93,.cls-96,.cls-98,.cls-99{fill-rule:evenodd;}.cls-61{fill:#9eddff;}.cls-62{fill:url(#linear-gradient-58);}.cls-63{fill:url(#linear-gradient-59);}.cls-64{fill:url(#linear-gradient-60);}.cls-65{fill:#f6fbff;}.cls-66{fill:url(#linear-gradient-61);}.cls-67{fill:#072f91;}.cls-68{fill:#d8e7ff;}.cls-69{fill:url(#linear-gradient-62);}.cls-70{fill:url(#linear-gradient-63);}.cls-71{fill:#7f509f;}.cls-72{fill:#93d9ff;}.cls-73{fill:#003398;}.cls-74{fill:#f7cccf;}.cls-75{fill:#ed8082;}.cls-76{fill:#0e4fd9;}.cls-77{fill:#f95858;}.cls-78{clip-path:url(#clip-path);}.cls-79{fill:url(#linear-gradient-64);}.cls-80{fill:#e8546b;}.cls-81{fill:#e50013;}.cls-83{fill:#3c69d8;}.cls-84{fill:#3dabf9;}.cls-85{fill:#f7ab2b;}.cls-86{fill:#eca01f;}.cls-87{fill:#f6c2c3;}.cls-88{fill:#ea9191;}.cls-89{fill:#f4b1b1;}.cls-90{fill:#ffc86b;}.cls-91{fill:#ffbc4a;}.cls-92{fill:#e89292;}.cls-93{fill:#008ef4;}.cls-94{clip-path:url(#clip-path-2);}.cls-95{fill:url(#linear-gradient-65);}.cls-96{fill:#eef4f8;}.cls-97{fill:#000446;}.cls-98{fill:url(#linear-gradient-66);}.cls-99{fill:#e8e8e8;}.cls-100{fill:#cdcdcd;}.cls-101{fill:#ee9833;}.cls-102{fill:url(#linear-gradient-67);}.cls-103{fill:url(#linear-gradient-68);}.cls-104{fill:#99334c;}.cls-105{fill:url(#linear-gradient-69);}.cls-106{fill:url(#linear-gradient-70);}.cls-107{fill:#267fbb;}.cls-108{fill:url(#linear-gradient-71);}.cls-109{fill:#fca700;}.cls-110{fill:#231916;}.cls-111{fill:#ffc25c;}.cls-112{fill:#fff1d8;}.cls-113,.cls-115{fill:#9e9e9f;}.cls-114{fill:#c8c8c9;}.cls-116{fill:#edeeee;}</style><linearGradient id="linear-gradient" x1="-1119.93" y1="2705.25" x2="-1012.31" y2="2705.25" gradientTransform="matrix(0.17, 0.99, -0.99, 0.17, 3073.93, 664.84)" gradientUnits="userSpaceOnUse"><stop offset="0" stop-color="#b3e0fd"/><stop offset="0.5" stop-color="#d7ecfd"/><stop offset="1" stop-color="#f0f8ff"/></linearGradient><linearGradient id="linear-gradient-2" x1="-2616.35" y1="-531.43" x2="-2545.44" y2="-602.34" gradientTransform="matrix(0.85, -0.53, 0.53, 0.85, 2669.99, -748.86)" xlink:href="#linear-gradient"/><linearGradient id="linear-gradient-3" x1="-3130.2" y1="203.52" x2="-3188.6" y2="157.2" gradientTransform="translate(3241.97)" xlink:href="#linear-gradient"/><linearGradient id="linear-gradient-4" x1="-3157.52" y1="232.04" x2="-3198.14" y2="197.95" gradientTransform="translate(3241.97)" xlink:href="#linear-gradient"/><linearGradient id="linear-gradient-5" x1="2913.03" y1="232.78" x2="2871.61" y2="198.02" gradientTransform="matrix(-1, 0, 0, 1, 3054.57, 0)" xlink:href="#linear-gradient"/><linearGradient id="linear-gradient-6" x1="2414.7" y1="228.7" x2="2453.85" y2="115.17" gradientTransform="matrix(-1, 0, 0.17, 1, 2525.07, 0)" xlink:href="#linear-gradient"/><linearGradient id="linear-gradient-7" x1="-3136.91" y1="162.56" x2="-3111.16" y2="162.56" gradientTransform="translate(3241.97)" xlink:href="#linear-gradient"/><linearGradient id="linear-gradient-8" x1="-3111.57" y1="182.65" x2="-3054.04" y2="182.65" gradientTransform="translate(3241.97)" xlink:href="#linear-gradient"/><linearGradient id="linear-gradient-9" x1="-3190.9" y1="182.65" x2="-3111.16" y2="182.65" gradientTransform="translate(3241.97)" xlink:href="#linear-gradient"/><linearGradient id="linear-gradient-10" x1="-3131.64" y1="111.22" x2="-3124.4" y2="111.22" gradientTransform="translate(3241.97)" xlink:href="#linear-gradient"/><linearGradient id="linear-gradient-11" x1="-3147.3" y1="129.26" x2="-3128.01" y2="129.26" gradientTransform="translate(3241.97)" xlink:href="#linear-gradient"/><linearGradient id="linear-gradient-12" x1="-3126.85" y1="138.93" x2="-3116.28" y2="138.93" gradientTransform="translate(3241.97)" xlink:href="#linear-gradient"/><linearGradient id="linear-gradient-13" x1="-3137.75" y1="168.73" x2="-3121.5" y2="168.73" gradientTransform="translate(3241.97)" xlink:href="#linear-gradient"/><linearGradient id="linear-gradient-14" x1="-3168.8" y1="144.55" x2="-3167.89" y2="144.55" gradientTransform="translate(3241.97)" xlink:href="#linear-gradient"/><linearGradient id="linear-gradient-15" x1="-3153.73" y1="171.98" x2="-3153.13" y2="171.98" gradientTransform="translate(3241.97)" xlink:href="#linear-gradient"/><linearGradient id="linear-gradient-16" x1="-3174.53" y1="163.83" x2="-3162.16" y2="163.83" gradientTransform="translate(3241.97)" xlink:href="#linear-gradient"/><linearGradient id="linear-gradient-17" x1="-3139.87" y1="196.29" x2="-3137.3" y2="196.29" gradientTransform="translate(3241.97)" xlink:href="#linear-gradient"/><linearGradient id="linear-gradient-18" x1="-3155.65" y1="189.85" x2="-3145.31" y2="189.85" gradientTransform="translate(3241.97)" xlink:href="#linear-gradient"/><linearGradient id="linear-gradient-19" x1="-3089.26" y1="146.9" x2="-3082.3" y2="146.9" gradientTransform="translate(3241.97)" xlink:href="#linear-gradient"/><linearGradient id="linear-gradient-20" x1="-3094.46" y1="169.28" x2="-3086.51" y2="169.28" gradientTransform="translate(3241.97)" xlink:href="#linear-gradient"/><linearGradient id="linear-gradient-21" x1="-3093.79" y1="193.15" x2="-3081.79" y2="193.15" gradientTransform="translate(3241.97)" xlink:href="#linear-gradient"/><linearGradient id="linear-gradient-22" x1="-3160.48" y1="199.42" x2="-3151.54" y2="199.42" gradientTransform="translate(3241.97)" xlink:href="#linear-gradient"/><linearGradient id="linear-gradient-23" x1="-3183.53" y1="187.47" x2="-3174.12" y2="187.47" gradientTransform="translate(3241.97)" xlink:href="#linear-gradient"/><linearGradient id="linear-gradient-24" x1="-3150.88" y1="214" x2="-3143.48" y2="214" gradientTransform="translate(3241.97)" xlink:href="#linear-gradient"/><linearGradient id="linear-gradient-25" x1="-3069.81" y1="186.39" x2="-3067.48" y2="186.39" gradientTransform="translate(3241.97)" xlink:href="#linear-gradient"/><linearGradient id="linear-gradient-26" x1="-3080.8" y1="202.8" x2="-3080.2" y2="202.8" gradientTransform="translate(3241.97)" xlink:href="#linear-gradient"/><linearGradient id="linear-gradient-27" x1="-3075.72" y1="201.37" x2="-3065.97" y2="201.37" gradientTransform="translate(3241.97)" xlink:href="#linear-gradient"/><linearGradient id="linear-gradient-28" x1="-3118.38" y1="189.47" x2="-3110.46" y2="189.47" gradientTransform="translate(3241.97)" xlink:href="#linear-gradient"/><linearGradient id="linear-gradient-29" x1="-330.53" y1="201.41" x2="-394.37" y2="150.78" gradientTransform="matrix(-1, 0, 0, 1, 5.1, 0)" xlink:href="#linear-gradient"/><linearGradient id="linear-gradient-30" x1="-460.45" y1="204.75" x2="-265.2" y2="204.75" gradientTransform="matrix(-1, 0, 0, 1, 5.1, 0)" xlink:href="#linear-gradient"/><linearGradient id="linear-gradient-31" x1="-2809.77" y1="48.52" x2="-2887.74" y2="157.79" gradientTransform="translate(3241.97)" xlink:href="#linear-gradient"/><linearGradient id="linear-gradient-32" x1="-2928" y1="331.16" x2="-2871.42" y2="274.58" gradientTransform="matrix(0.99, 0.11, -0.11, 0.99, 3268.14, 138.56)" xlink:href="#linear-gradient"/><linearGradient id="linear-gradient-33" x1="-2990.84" y1="161.22" x2="-3033.88" y2="106.79" gradientTransform="translate(3241.97)" xlink:href="#linear-gradient"/><linearGradient id="linear-gradient-34" x1="2636.18" y1="239.33" x2="2695.12" y2="199.92" gradientTransform="matrix(-1, 0, 0, 1, 2910.65, 0)" xlink:href="#linear-gradient"/><linearGradient id="linear-gradient-35" x1="2539.02" y1="222.6" x2="2578.13" y2="208.37" gradientTransform="matrix(-1, 0, 0, 1, 2910.65, 0)" xlink:href="#linear-gradient"/><linearGradient id="linear-gradient-36" x1="-2949.2" y1="633.5" x2="-3000.2" y2="555.5" gradientTransform="matrix(0.98, 0.18, -0.18, 0.98, 3317.91, 74.64)" xlink:href="#linear-gradient"/><linearGradient id="linear-gradient-37" x1="-2850.23" y1="93.94" x2="-2936.19" y2="209.07" gradientTransform="translate(3241.97)" xlink:href="#linear-gradient"/><linearGradient id="linear-gradient-38" x1="-2946.31" y1="165.04" x2="-2856.49" y2="165.04" gradientTransform="translate(3241.97)" xlink:href="#linear-gradient"/><linearGradient id="linear-gradient-39" x1="-2909.35" y1="154.82" x2="-2908.81" y2="154.82" gradientTransform="translate(3241.97)" xlink:href="#linear-gradient"/><linearGradient id="linear-gradient-40" x1="-2914.17" y1="169.92" x2="-2883.54" y2="169.92" gradientTransform="translate(3241.97)" xlink:href="#linear-gradient"/><linearGradient id="linear-gradient-41" x1="-2926.83" y1="190.32" x2="-2912.9" y2="190.32" gradientTransform="translate(3241.97)" xlink:href="#linear-gradient"/><linearGradient id="linear-gradient-42" x1="-2897.83" y1="146.73" x2="-2895.66" y2="146.73" gradientTransform="translate(3241.97)" xlink:href="#linear-gradient"/><linearGradient id="linear-gradient-43" x1="-2888.54" y1="143.87" x2="-2878.91" y2="143.87" gradientTransform="translate(3241.97)" xlink:href="#linear-gradient"/><linearGradient id="linear-gradient-44" x1="-2868.59" y1="111.86" x2="-2867.14" y2="111.86" gradientTransform="translate(3241.97)" xlink:href="#linear-gradient"/><linearGradient id="linear-gradient-45" x1="-2874.08" y1="125.66" x2="-2861.48" y2="125.66" gradientTransform="translate(3241.97)" xlink:href="#linear-gradient"/><linearGradient id="linear-gradient-46" x1="2602.5" y1="238.49" x2="2569.61" y2="25.68" gradientTransform="matrix(-1, 0, 0, 1, 2910.65, 0)" xlink:href="#linear-gradient"/><linearGradient id="linear-gradient-47" x1="-2938.38" y1="129.38" x2="-2904.69" y2="129.38" gradientTransform="translate(3241.97)" xlink:href="#linear-gradient"/><linearGradient id="linear-gradient-48" x1="-2923.82" y1="106.14" x2="-2896.47" y2="106.14" gradientTransform="translate(3241.97)" xlink:href="#linear-gradient"/><linearGradient id="linear-gradient-49" x1="-2933.01" y1="92.81" x2="-2921.1" y2="92.81" gradientTransform="translate(3241.97)" xlink:href="#linear-gradient"/><linearGradient id="linear-gradient-50" x1="-2931.7" y1="161.59" x2="-2907.06" y2="161.59" gradientTransform="translate(3241.97)" xlink:href="#linear-gradient"/><linearGradient id="linear-gradient-51" x1="-2947.91" y1="170.76" x2="-2932.87" y2="170.76" gradientTransform="translate(3241.97)" xlink:href="#linear-gradient"/><linearGradient id="linear-gradient-52" x1="-2909.88" y1="41.84" x2="-2897.73" y2="41.84" gradientTransform="translate(3241.97)" xlink:href="#linear-gradient"/><linearGradient id="linear-gradient-53" x1="-2913.04" y1="34.05" x2="-2907.71" y2="34.05" gradientTransform="translate(3241.97)" xlink:href="#linear-gradient"/><linearGradient id="linear-gradient-54" x1="-2918.99" y1="85.27" x2="-2907.42" y2="85.27" gradientTransform="translate(3241.97)" xlink:href="#linear-gradient"/><linearGradient id="linear-gradient-55" x1="-2919.82" y1="60.23" x2="-2914.19" y2="60.23" gradientTransform="translate(3241.97)" xlink:href="#linear-gradient"/><linearGradient id="linear-gradient-56" x1="-2928.7" y1="143.52" x2="-2915.6" y2="143.52" gradientTransform="translate(3241.97)" xlink:href="#linear-gradient"/><linearGradient id="linear-gradient-57" x1="-2936.02" y1="202.64" x2="-2922.96" y2="202.64" gradientTransform="translate(3241.97)" xlink:href="#linear-gradient"/><linearGradient id="linear-gradient-58" x1="278.86" y1="211.83" x2="323.19" y2="211.83" gradientUnits="userSpaceOnUse"><stop offset="0" stop-color="#a757a1"/><stop offset="1" stop-color="#3850a2"/></linearGradient><linearGradient id="linear-gradient-59" x1="193.98" y1="130.15" x2="411.43" y2="130.15" xlink:href="#linear-gradient-58"/><linearGradient id="linear-gradient-60" x1="186.14" y1="130.15" x2="403.6" y2="130.15" gradientUnits="userSpaceOnUse"><stop offset="0" stop-color="#3850a2"/><stop offset="1" stop-color="#a757a1"/></linearGradient><linearGradient id="linear-gradient-61" x1="276.03" y1="211.83" x2="318.51" y2="211.83" xlink:href="#linear-gradient-60"/><linearGradient id="linear-gradient-62" x1="266.9" y1="230.52" x2="323.19" y2="230.52" xlink:href="#linear-gradient-58"/><linearGradient id="linear-gradient-63" x1="264.08" y1="230.52" x2="312.57" y2="230.52" xlink:href="#linear-gradient-60"/><clipPath id="clip-path"><path class="cls-1" d="M320.89,145.92l-.69,8.94a.33.33,0,0,1-.32.32H209.09a.32.32,0,0,1-.33-.32l.69-8.94Z"/></clipPath><linearGradient id="linear-gradient-64" x1="264.65" y1="154.94" x2="265.3" y2="138.42" gradientUnits="userSpaceOnUse"><stop offset="0" stop-color="#003cd3"/><stop offset="0.22" stop-color="#1153db"/><stop offset="0.67" stop-color="#3e8eef"/><stop offset="1" stop-color="#61bcff"/></linearGradient><clipPath id="clip-path-2"><path class="cls-1" d="M144.63,147.54H193c1.87,0,3.81,1.58,3.39,3.4l-7.23,32c-.41,1.83-1.53,3.4-3.39,3.4H137.39c-1.86,0-3.8-1.57-3.39-3.4l7.23-32c.42-1.82,1.53-3.4,3.4-3.4"/></clipPath><linearGradient id="linear-gradient-65" x1="158.22" y1="201.78" x2="175.18" y2="117.33" gradientUnits="userSpaceOnUse"><stop offset="0" stop-color="#2491ff"/><stop offset="0.28" stop-color="#69b4fe"/><stop offset="0.63" stop-color="#b8dbfe"/><stop offset="0.88" stop-color="#eaf3fd"/><stop offset="1" stop-color="#fdfdfd"/></linearGradient><linearGradient id="linear-gradient-66" x1="105.86" y1="222.59" x2="105.86" y2="235.5" gradientUnits="userSpaceOnUse"><stop offset="0" stop-color="#f1ce41"/><stop offset="1" stop-color="#e73d25"/></linearGradient><linearGradient id="linear-gradient-67" x1="151.63" y1="232.18" x2="160.3" y2="232.18" gradientUnits="userSpaceOnUse"><stop offset="0" stop-color="#e73d25"/><stop offset="1" stop-color="#f1ce41"/></linearGradient><linearGradient id="linear-gradient-68" x1="179.32" y1="222.59" x2="179.32" y2="201.97" gradientUnits="userSpaceOnUse"><stop offset="0" stop-color="#393091"/><stop offset="1" stop-color="#f05c2a"/></linearGradient><linearGradient id="linear-gradient-69" x1="128.79" y1="210.84" x2="128.79" y2="217.45" xlink:href="#linear-gradient-68"/><linearGradient id="linear-gradient-70" x1="166.01" y1="186.24" x2="166.01" y2="202.22" gradientUnits="userSpaceOnUse"><stop offset="0" stop-color="#00bbc5"/><stop offset="1" stop-color="#4f3292"/></linearGradient><linearGradient id="linear-gradient-71" x1="120.38" y1="193.11" x2="120.38" y2="199.16" xlink:href="#linear-gradient-66"/></defs><title>Courses-Lessons</title><path class="cls-2" d="M197.53,20.51a54.61,54.61,0,0,1,9.91,50.43C212,37,239.68,7.34,273.26.48c6,28.14-9.52,59.39-35.54,71.67,17.66-10,31.12-19,51.25-16-7.39,42.55-58.21,63.78-102.75,67.51C167.61,103.29,164.64,44.79,197.53,20.51Z"/><path class="cls-3" d="M140,120.49A48.82,48.82,0,0,1,173.17,139a97.57,97.57,0,0,1-23.1-75.33c13.68,19.44,32.39,9.54,38.26,32.27.84-9.49,5-14.87,11.4-20.16,33.49,43.4,19.54,99.72-6.76,122.57C181.3,169.36,140.28,165.57,140,120.49Z"/><path class="cls-4" d="M63,209c-3-2.09-6-4.55-7.29-8s-.38-7.93,2.9-9.53c2.57-1.26,5.64-.41,8.32.61a71.85,71.85,0,0,1,19.79,11.51c-7.77-4.57-15.6-9.19-22.26-15.26s-12.14-13.8-14-22.62a17.78,17.78,0,0,1,.11-9,9.31,9.31,0,0,1,6.08-6.28c4-1.06,8,1.26,11.22,3.77a69.87,69.87,0,0,1,21.23,27.29,46.62,46.62,0,0,1-9-21.18c-.75-4.89-.33-10.69,3.68-13.58s10.11-1.31,14.26,1.68c9.86,7.1,29.19,28.43,35.38,38.88,22.09,37.28-14.47,39-25.66,36.08-4.38-1.13-8.94-1-13.4-1.71A77.27,77.27,0,0,1,79,217.48,75.94,75.94,0,0,1,63,209Z"/><path class="cls-5" d="M100.51,200.45c-15.07-32-69.33-39.76-48.69,4.82-9.16-8.46-20.82-9.9-24-5.71s-.78,11,4.36,17.73c-21.35-6.75-21.79,6.34-15,12.11-10.49-4.88-9.65,3-17.2,6.06H130.19V197.15C117.93,181.61,94.17,177.7,100.51,200.45Z"/><path class="cls-6" d="M123.91,200.45c15.07-32,69.33-39.76,48.69,4.82,9.16-8.46,20.82-9.9,24-5.71s.77,11-4.36,17.73c21.35-6.75,21.79,6.34,15,12.11,10.48-4.88,14.54,3,22.1,6.06H94.23V197.15C106.49,181.61,130.24,177.7,123.91,200.45Z"/><path class="cls-7" d="M42.27,161.76C46,159,51.86,160,55.91,163.7l8.79,8.14c1.86,1.72,4.34,0,3.09-2.18-7.68-13.26-12.88-26.81-13.63-41.29-.21-4.06,1.75-7.69,5.39-9,7.34-2.71,13.73,5.45,17.71,12.23l.33.57c4.55,7.74,15.74,5.54,14.34-2.84a111.69,111.69,0,0,1-1.15-31C91.59,91,94,82.85,101.18,81.39a27.5,27.5,0,0,1,5.29,0c7.68,1.46,12.93,9.63,16.28,16.91a132.49,132.49,0,0,1,11,40.63c1.17,7.18,9.93,9.83,12.16.46q1.62-6.72,3.22-13.44a9,9,0,0,1,7.78-7.08c8.17-1,12.94,8.45,14.47,15.91,2.48,12.1,1.73,23.59-.88,34.88-.5,2.16,2.59,3.9,3.85,2.18q3-4.08,6-8.14c2.75-3.75,8.26-4.73,13-1.94,7.72,4.57,5,13.59,1.33,19.27-11.35,17.5-33.88,46.34-57.36,54.43H123.92C97.63,227.37,65.07,198.53,47.64,181,42,175.35,36.14,166.33,42.27,161.76Z"/><g class="cls-8"><path class="cls-9" d="M130.6,235.67a.2.2,0,0,1-.2-.17L105.06,89.69a.2.2,0,0,1,.17-.24.2.2,0,0,1,.23.17L130.8,235.43a.2.2,0,0,1-.17.24Z"/></g><g class="cls-8"><path class="cls-10" d="M130.6,235.67a.24.24,0,0,1-.14,0,.21.21,0,0,1,0-.26c20.29-35.69,30.4-70.21,30.9-105.52a.2.2,0,0,1,.2-.2h0a.2.2,0,0,1,.2.21c-.49,35.09-10.46,69.4-30.47,104.86,24.27-18.25,43.72-40.09,56.28-63.23a.2.2,0,0,1,.28-.09.21.21,0,0,1,.08.28c-12.73,23.45-32.5,45.56-57.18,64A.19.19,0,0,1,130.6,235.67Z"/></g><g class="cls-8"><path class="cls-11" d="M130.6,235.67a.23.23,0,0,1-.11,0C99.43,217.25,72,195.14,51.12,171.71a.21.21,0,0,1,0-.29.2.2,0,0,1,.29,0C72,194.54,99,216.35,129.51,234.57c-32.24-35.38-54.07-69.63-66.74-104.66a.2.2,0,0,1,.13-.26.21.21,0,0,1,.26.12C75.93,165.09,98,199.62,130.75,235.32a.21.21,0,0,1,0,.27A.21.21,0,0,1,130.6,235.67Z"/></g><g class="cls-8"><path class="cls-12" d="M110.53,120.21h-.07a.21.21,0,0,1-.12-.27l6.82-17.57a.21.21,0,0,1,.27-.12.21.21,0,0,1,.12.27l-6.82,17.57A.21.21,0,0,1,110.53,120.21Z"/></g><g class="cls-8"><path class="cls-13" d="M113.75,138.72a.2.2,0,0,1-.14-.06L94.73,120.15a.21.21,0,0,1,0-.29.22.22,0,0,1,.3,0l18.88,18.5a.22.22,0,0,1,0,.3A.22.22,0,0,1,113.75,138.72Z"/></g><g class="cls-8"><path class="cls-14" d="M115.32,147.76a.18.18,0,0,1-.1,0,.22.22,0,0,1-.08-.29L125.3,130.2a.2.2,0,0,1,.28-.07.21.21,0,0,1,.08.28L115.5,147.66A.2.2,0,0,1,115.32,147.76Z"/></g><g class="cls-8"><path class="cls-15" d="M120.26,176.2a.15.15,0,0,1-.13,0l-15.85-14.53a.21.21,0,0,1,.28-.3l15.84,14.52a.22.22,0,0,1,0,.3A.23.23,0,0,1,120.26,176.2Z"/></g><g class="cls-8"><path class="cls-16" d="M73.87,155.49a.22.22,0,0,1-.21-.2l-.49-21.46a.21.21,0,0,1,.2-.21h0a.2.2,0,0,1,.2.2l.5,21.46a.21.21,0,0,1-.21.21Z"/></g><g class="cls-8"><path class="cls-17" d="M88.63,181.61a.2.2,0,0,1-.2-.2l-.19-18.85a.21.21,0,0,1,.2-.21h0a.21.21,0,0,1,.21.21l.19,18.84A.23.23,0,0,1,88.63,181.61Z"/></g><g class="cls-8"><path class="cls-18" d="M79.6,166.4h-.08l-12-4.73a.19.19,0,0,1-.11-.26.2.2,0,0,1,.26-.12l12,4.73a.2.2,0,0,1,.12.26A.21.21,0,0,1,79.6,166.4Z"/></g><g class="cls-8"><path class="cls-19" d="M104.46,204.39a.21.21,0,0,1-.21-.18l-2.15-15.78a.22.22,0,0,1,.18-.24.21.21,0,0,1,.23.18l2.15,15.79a.2.2,0,0,1-.18.23Z"/></g><g class="cls-8"><path class="cls-20" d="M96.45,193.36a.15.15,0,0,1-.11,0l-9.93-6.61a.2.2,0,0,1-.06-.28.21.21,0,0,1,.29-.06L96.56,193a.21.21,0,0,1,.06.29A.2.2,0,0,1,96.45,193.36Z"/></g><g class="cls-8"><path class="cls-21" d="M159.46,155.49a.21.21,0,0,1-.19-.13l-6.55-16.77a.21.21,0,0,1,.12-.27.2.2,0,0,1,.26.12l6.55,16.77a.2.2,0,0,1-.11.26Z"/></g><g class="cls-8"><path class="cls-22" d="M155.25,176.2a.2.2,0,0,1-.18-.1l-7.53-13.44a.2.2,0,0,1,.08-.28.2.2,0,0,1,.28.08l7.53,13.44a.2.2,0,0,1-.08.28A.16.16,0,0,1,155.25,176.2Z"/></g><g class="cls-8"><path class="cls-23" d="M148.38,198a.21.21,0,0,1-.16-.08.21.21,0,0,1,0-.29l11.59-9.2a.2.2,0,1,1,.25.32l-11.58,9.2A.21.21,0,0,1,148.38,198Z"/></g><g class="cls-8"><path class="cls-24" d="M90.22,208.05a.21.21,0,0,1-.18-.11l-8.53-16.86a.2.2,0,0,1,.09-.27.21.21,0,0,1,.28.09l8.53,16.85a.21.21,0,0,1-.09.28A.18.18,0,0,1,90.22,208.05Z"/></g><g class="cls-8"><path class="cls-25" d="M67.64,188.61h0l-9-1.86a.2.2,0,0,1,.08-.4l9,1.86a.21.21,0,0,1,.16.24A.21.21,0,0,1,67.64,188.61Z"/></g><g class="cls-8"><path class="cls-26" d="M98.28,214.21h-7a.21.21,0,0,1,0-.42h7a.21.21,0,0,1,0,.42Z"/></g><g class="cls-8"><path class="cls-27" d="M172.37,195.11h0a.21.21,0,0,1-.18-.23l1.91-17a.2.2,0,0,1,.23-.18.2.2,0,0,1,.18.22l-1.91,17A.2.2,0,0,1,172.37,195.11Z"/></g><g class="cls-8"><path class="cls-28" d="M161.37,208.05h0a.2.2,0,0,1-.2-.21l.19-10.09a.21.21,0,0,1,.21-.21h0a.22.22,0,0,1,.2.21l-.19,10.1A.2.2,0,0,1,161.37,208.05Z"/></g><g class="cls-8"><path class="cls-29" d="M166.45,202.35a.2.2,0,0,1-.2-.18.2.2,0,0,1,.17-.23l9.34-1.55a.2.2,0,0,1,.23.17.2.2,0,0,1-.17.24l-9.33,1.54Z"/></g><g class="cls-8"><path class="cls-30" d="M123.79,196.5a.19.19,0,0,1-.1,0,.21.21,0,0,1-.08-.28l7.51-13.64a.21.21,0,0,1,.28-.08.21.21,0,0,1,.08.28L124,196.39A.21.21,0,0,1,123.79,196.5Z"/></g><path class="cls-31" d="M390,202.41c3-2.08,6-4.54,7.29-7.95s.38-7.92-2.9-9.52c-2.57-1.26-5.64-.41-8.32.61a71.35,71.35,0,0,0-19.79,11.51c7.77-4.57,15.6-9.19,22.26-15.27s12.14-13.8,14-22.61a17.78,17.78,0,0,0-.11-9,9.31,9.31,0,0,0-6.08-6.28c-3.95-1.06-8,1.26-11.22,3.76a69.91,69.91,0,0,0-21.23,27.3,46.67,46.67,0,0,0,9-21.18c.75-4.89.33-10.69-3.68-13.59s-10.11-1.3-14.26,1.69c-9.86,7.1-13.87,19.55-18.87,30.62a132.43,132.43,0,0,1-26,37.94c-1.6,1.64-3.36,4.06-2.1,6a4.85,4.85,0,0,0,3.24,1.66,73.85,73.85,0,0,0,34-1.23c4.38-1.13,8.94-1,13.4-1.72a76.58,76.58,0,0,0,15.44-4.22A75.51,75.51,0,0,0,390,202.41Z"/><path class="cls-32" d="M360.14,200.41c15.07-32,69.32-39.76,48.69,4.82,9.15-8.46,20.81-9.9,24-5.71s.77,11-4.36,17.73c21.35-6.75,21.78,6.35,15,12.11,10.48-4.88,14.54,3,22.09,6.06H270.29V197.11C350.85,177.66,366.47,177.66,360.14,200.41Z"/><path class="cls-33" d="M430.62,121.07a47.64,47.64,0,0,0-44.07,8.28c26.05-14.69,41.11-46.69,35.82-76.13-24.74,4.25-45.06,26.92-46.59,52a54.42,54.42,0,0,0-1.35-51.08c-25.8,29.25-41.09,75.08-23.83,129.09C376.38,154.74,421.22,161,430.62,121.07Z"/><path class="cls-34" d="M321.89,103.53A46.87,46.87,0,0,1,336,137.17a93.85,93.85,0,0,1,27.09-70.75c-1.28,19,11.61,36.6,2.61,57.3,6.08-11,17.39-15.77,27.84-18.73-.31,52.7-26.77,77.12-60.22,78.87-1.38-23-12.1-37.71-13.38-47.52A86.57,86.57,0,0,1,321.89,103.53Z"/><path class="cls-35" d="M225.72,176.38c-8.41-8-40.67-41.69-30.66-84.31,1.54-6.52,8.56-13.48,15.29-11.71C227.94,85,238.71,113,267.14,128.23c30.57,16.41,34.78,63.06,31.53,101.33H258.14C256.85,206.19,234.09,184.36,225.72,176.38Z"/><path class="cls-36" d="M212.44,183.25c-3.32-.61-7.55,0-8.51,3.09-1.11,3.61,3.11,6.77,6.64,8.53l21.13,10.51c3.11,1.55,3.09,1.77-.16.73a61.54,61.54,0,0,0-22.67-2.83c-3.61.24-8,1.76-8,5.39s4.48,5.58,8,6.5c10.26,2.66,22.69,2.51,18.22,3s-7.94,6.24-4.73,9.62A9.72,9.72,0,0,0,227,230c9.9,2.73,30,5.42,52.74,5.42C276.62,224.14,252.43,190.59,212.44,183.25Z"/><path class="cls-37" d="M381.55,187.76c3-.56,6.89,0,8.12,2.82,1.42,3.3-2.08,6.19-5.11,7.79L366.44,208c-2.66,1.41-2.62,1.62.23.67a53.42,53.42,0,0,1,20.39-2.59c3.33.22,7.55,1.61,7.92,4.92s-3.46,5.1-6.62,5.94c-9.08,2.43-20.43,2.15-16.31,2.72,19.34,2.64,23.7,8.14,22.87,15.82h-98C300.09,222,347.56,194.14,381.55,187.76Z"/><path class="cls-38" d="M308.1,197.2c-.89-7.68,3.64-35.3,7.51-41.84,30-50.76-19.7-72.87-13.31-127.84.87-7.51-6.12-16.28-13.42-16.06-6.44.2-9.79,7.87-9.39,14.46S282.6,39,282.3,45.57C281.88,54.66,275.88,62,270.6,69s-18.16,21-10.72,38.89c9.73,23.45,5.67,33.54.73,44.65-4.25,9.59,3.12,22,2.84,32.82-.15,5.91-5.52,12.46-3.7,18.2,4.44,14,11.23,28.85,26.52,31.41C306.42,238.38,309.78,211.65,308.1,197.2Z"/><path class="cls-39" d="M311.09,174.34c10.1-8.25,1.6-27.18,9.76-37.34,7.9-9.84,25.18-4.68,35.72-11.65,7.07-4.67,9.55-13.65,13.51-21.15s12.1-14.54,20.39-11.32c7.42,2.88,10.13,12.82,7.55,20s-8.83,12.17-14.87,16.74S370.78,139,367.85,146c-2.73,6.54-2.19,14.22-4.62,20.89-9.6,26.36-43.6,25.68-38.4,68.54H268.49C268.49,190.32,306.76,177.88,311.09,174.34Z"/><g class="cls-8"><path class="cls-40" d="M295.87,226.31h-.09a.21.21,0,0,1-.1-.28c13-29.55,34.7-55.11,55.71-79.83,12.28-14.44,23.87-28.07,33.71-42.33a.21.21,0,0,1,.29,0,.2.2,0,0,1,.05.28C375.58,118.37,364,132,351.71,146.46c-21,24.69-42.71,50.23-55.65,79.73A.21.21,0,0,1,295.87,226.31Z"/></g><g class="cls-8"><path class="cls-41" d="M332.82,168.94h0a.2.2,0,0,1-.21-.2l.13-27.83a.21.21,0,0,1,.21-.21h0a.2.2,0,0,1,.2.21L333,168.74A.2.2,0,0,1,332.82,168.94Z"/></g><g class="cls-8"><path class="cls-42" d="M328,175a.21.21,0,0,1-.06-.41l30.22-9.74a.2.2,0,0,1,.26.13.22.22,0,0,1-.14.26L328.07,175Z"/></g><g class="cls-8"><path class="cls-43" d="M315.34,192.11a.21.21,0,0,1-.2-.16.21.21,0,0,1,.16-.24l13.52-3.19a.21.21,0,0,1,.09.41l-13.52,3.18Z"/></g><g class="cls-8"><path class="cls-44" d="M344.34,155h0a.21.21,0,0,1-.18-.23l1.76-16.19a.19.19,0,0,1,.23-.18.21.21,0,0,1,.18.23l-1.76,16.19A.21.21,0,0,1,344.34,155Z"/></g><g class="cls-8"><path class="cls-45" d="M362.85,144.08h-9.22a.2.2,0,0,1-.2-.21.2.2,0,0,1,.2-.2h9.22a.21.21,0,1,1,0,.41Z"/></g><g class="cls-8"><path class="cls-46" d="M373.58,119.94h0a.2.2,0,0,1-.19-.22l1-15.76a.19.19,0,0,1,.22-.19.21.21,0,0,1,.19.22l-1,15.76A.21.21,0,0,1,373.58,119.94Z"/></g><g class="cls-8"><path class="cls-47" d="M368.09,126.79a.2.2,0,0,1-.2-.17.21.21,0,0,1,.17-.24l12.19-1.85a.21.21,0,0,1,.24.17.21.21,0,0,1-.18.24l-12.19,1.85Z"/></g><path class="cls-48" d="M284.22,157.49c15.37-25.38,6.45-53.54,8.3-66.34,1.52-10.46,13.15-15.39,19.06-23.9,4.61-6.63,5.55-15.2,6.54-23.38s2.32-16.74,7.49-22.94,15.46-8.77,22-3.25c5.53,4.66,6.19,13,4,19.54s-6.53,12-9.68,18-5.06,13.54-2,20c3.49,7.47,12.6,11.73,15,19.56,2.24,7.28-2.27,14.38-7,19.93s-6.06,11.51-5.87,19c.28,11.21,9.11,21.2,6.28,31.87S333.55,180.48,330,192.79c-2.43,8.42-2.43,23.67,17,42.63l-68.34,0C278.69,191.68,278.56,166.85,284.22,157.49Z"/><g class="cls-8"><path class="cls-49" d="M303.79,232h0a.22.22,0,0,1-.19-.23C310.46,156,321,90.88,336.87,27a.21.21,0,1,1,.4.1C321.44,91,310.87,156,304,231.79A.21.21,0,0,1,303.79,232Z"/></g><g class="cls-8"><path class="cls-50" d="M318.35,117.41a.2.2,0,0,1-.16-.07.21.21,0,0,1,0-.29l26.94-22.14a.21.21,0,0,1,.29,0,.22.22,0,0,1,0,.3l-26.94,22.14A.2.2,0,0,1,318.35,117.41Z"/></g><g class="cls-8"><path class="cls-51" d="M320.66,104.18a.21.21,0,0,1-.19-.11L309,81.74a.21.21,0,0,1,.37-.19l11.49,22.33a.21.21,0,0,1-.09.28A.15.15,0,0,1,320.66,104.18Z"/></g><g class="cls-8"><path class="cls-52" d="M310.48,170.53a.21.21,0,0,1-.17-.08.21.21,0,0,1,.05-.29l24.22-17.46a.2.2,0,1,1,.24.33L310.6,170.49A.19.19,0,0,1,310.48,170.53Z"/></g><g class="cls-8"><path class="cls-53" d="M308.89,183.34a.22.22,0,0,1-.18-.1l-14.63-24.76a.21.21,0,0,1,.36-.2L309.06,183a.2.2,0,0,1-.07.28A.19.19,0,0,1,308.89,183.34Z"/></g><g class="cls-8"><path class="cls-54" d="M332.29,47.24a.18.18,0,0,1-.15-.07.2.2,0,0,1,0-.29L343.9,36.49a.22.22,0,0,1,.29,0,.21.21,0,0,1,0,.29L332.43,47.19A.24.24,0,0,1,332.29,47.24Z"/></g><g class="cls-8"><path class="cls-55" d="M334.05,39.7a.2.2,0,0,1-.19-.12L329,28.69a.2.2,0,0,1,.1-.27.2.2,0,0,1,.27.1l4.92,10.89a.21.21,0,0,1-.11.27Z"/></g><g class="cls-8"><path class="cls-56" d="M323.18,90.56a.19.19,0,0,1-.15-.07.21.21,0,0,1,0-.29L334.2,80a.21.21,0,0,1,.28.31L323.32,90.51A.24.24,0,0,1,323.18,90.56Z"/></g><g class="cls-8"><path class="cls-57" d="M327.57,66.17a.22.22,0,0,1-.19-.12l-5.21-11.46a.2.2,0,0,1,.1-.27.2.2,0,0,1,.27.1l5.22,11.46a.21.21,0,0,1-.11.27Z"/></g><g class="cls-8"><path class="cls-58" d="M313.47,148.6a.18.18,0,0,1-.16-.08.21.21,0,0,1,0-.29L326,138.47a.21.21,0,0,1,.26.33l-12.69,9.76A.22.22,0,0,1,313.47,148.6Z"/></g><g class="cls-8"><path class="cls-59" d="M306.16,207.72a.21.21,0,0,1-.13-.37l12.64-9.75a.22.22,0,0,1,.29,0,.21.21,0,0,1,0,.29l-12.64,9.74A.18.18,0,0,1,306.16,207.72Z"/></g><path class="cls-60" d="M377,75.93h4.52a.55.55,0,0,1,.55.55.55.55,0,0,1-.55.55H377a.55.55,0,0,1-.55-.55.55.55,0,0,1,.55-.55"/><path class="cls-60" d="M376.75,78.23h4.51a.55.55,0,1,1,0,1.1h-4.51a.55.55,0,0,1,0-1.1"/><path class="cls-60" d="M376.47,80.53H381a.55.55,0,1,1,0,1.09h-4.51a.55.55,0,1,1,0-1.09"/><path class="cls-61" d="M362.74,92.37h19.15c.06,0,.11,0,.11.07l-.21,1.89H362.43l.21-1.89s0-.07.1-.07"/><path class="cls-61" d="M362.27,97.2h19.15c.06,0,.11,0,.11.07l-.21,1.89H362l.21-1.89s0-.07.1-.07"/><path class="cls-61" d="M361.8,102h10.43c.06,0,.11,0,.1.08l-.21,1.89H361.48l.21-1.89a.11.11,0,0,1,.11-.08"/><path class="cls-61" d="M361,116.86h19.15c.06,0,.11,0,.11.08l-.21,1.89H360.7l.21-1.89a.11.11,0,0,1,.11-.08"/><path class="cls-61" d="M359.3,141.36h19.14c.06,0,.12,0,.11.07l-.21,1.89H359l.21-1.89s.05-.07.11-.07"/><path class="cls-61" d="M360.55,121.7H379.7c.06,0,.11,0,.1.07l-.21,1.89H360.23l.21-1.89a.1.1,0,0,1,.11-.07"/><path class="cls-61" d="M360.08,126.53H370.5c.06,0,.11,0,.11.07l-.21,1.89H359.76l.21-1.89s0-.07.11-.07"/><polygon class="cls-62" points="278.86 197.88 316.94 197.88 323.19 225.55 323.19 225.78 285.16 225.78 278.86 197.88"/><path class="cls-63" d="M214.85,65.11l174.94-2.68h9.7c6.55,0,12.42,5.38,11.91,11.91L402.83,186c-.5,6.54-5.36,11.92-11.92,11.92h-185c-6.55,0-12.42-5.38-11.91-11.92l8.57-111.62c.5-6.53,5.71-9.13,12.27-9.23"/><path class="cls-64" d="M206.66,62.43h185c6.55,0,12.42,5.38,11.92,11.91L395,186c-.5,6.54-5.36,11.92-11.91,11.92h-185c-6.55,0-12.41-5.38-11.91-11.92l8.57-111.62c.5-6.53,5.36-11.91,11.92-11.91"/><path class="cls-65" d="M206.83,74H391.48a.52.52,0,0,1,.53.54l-8.57,111.27a.56.56,0,0,1-.54.53H198.26a.52.52,0,0,1-.54-.53L206.3,74.52a.55.55,0,0,1,.53-.54"/><path class="cls-61" d="M206.83,74H391.48a.52.52,0,0,1,.53.54l-.74,9.6H205.56l.74-9.6a.55.55,0,0,1,.53-.54"/><polygon class="cls-66" points="276.03 197.88 312.47 197.88 318.51 225.78 282.07 225.78 276.03 197.88"/><polygon class="cls-67" points="204.22 73.98 207.28 73.98 198.71 186.32 195.64 186.32 204.22 73.98"/><path class="cls-68" d="M291,188.71a3.49,3.49,0,1,1-3.49,3.49,3.48,3.48,0,0,1,3.49-3.49"/><path class="cls-69" d="M271.88,225.54h51.31v5a5,5,0,0,1-5,5H266.9v-5a5,5,0,0,1,5-5"/><path class="cls-70" d="M268.64,225.54h43.93c-2.11,0-4.29,1.76-4.29,4.94v1.13c0,2.74-1.08,3.89-3.59,3.89H264.08v-5a4.8,4.8,0,0,1,4.56-5"/><path class="cls-71" d="M309.63,226.83a4.82,4.82,0,0,0-1.26,2.62H264.19a5.18,5.18,0,0,1,1.4-2.63h44"/><path class="cls-72" d="M214.23,87.77H325a.31.31,0,0,1,.32.32l-5.14,66.77a.33.33,0,0,1-.32.32H209.09a.32.32,0,0,1-.33-.32l5.15-66.77a.33.33,0,0,1,.32-.32"/><path class="cls-61" d="M331.14,87.77h32a.11.11,0,0,1,.11.11l-1.68,21.81a.12.12,0,0,1-.11.11h-32a.11.11,0,0,1-.11-.11L331,87.88a.1.1,0,0,1,.1-.11"/><path class="cls-61" d="M329.32,112h32a.11.11,0,0,1,.1.11L359.77,134a.11.11,0,0,1-.11.11h-32a.1.1,0,0,1-.1-.11l1.68-21.81a.11.11,0,0,1,.1-.11"/><path class="cls-61" d="M327.51,136.31h32a.1.1,0,0,1,.1.11L358,158.23a.11.11,0,0,1-.1.11h-32a.11.11,0,0,1-.1-.11l1.68-21.81a.12.12,0,0,1,.11-.11"/><path class="cls-61" d="M325.69,160.58h32a.11.11,0,0,1,.11.11l-1.69,21.81a.1.1,0,0,1-.1.11H324a.11.11,0,0,1-.11-.11l1.68-21.81a.12.12,0,0,1,.11-.11"/><path class="cls-60" d="M237,76.78H364.36a2.1,2.1,0,0,1,0,4.2H237a2.1,2.1,0,1,1,0-4.2"/><path class="cls-73" d="M249.27,84.32c-4.79,9.47-10.6,18.26-23.15,19.58-10.18,1.07-39.59-16.61-40.54-25.77s5.31-10.35,5.31-10.35,29,16.72,31.69,15.94c2.07-.58,12.39-9.5,18.72-14.78,1.35-1.13,10,11.31,8,15.38"/><path class="cls-73" d="M253.46,64.86l23.64,1.06c5.72.25,13.83,3.49,17.11,7.7,4.37,5.61-2.93,42.79-2.34,73.16H236c-.93-29.17.52-59.28,5.27-77.84a18.46,18.46,0,0,1,12.16-4.08"/><path class="cls-73" d="M279.12,87.37c-2.12-5,.11-14.43,5.16-16.35,1.34-.51,4.25-1.66,6.61-.2,6.14,3.82,20.76,25.31,21.22,40.59.33,11-21.61,20.8-32.89,17.94-1.37-1.56-4.59-7.52-2-10.35,4.68-5,15.78-6.31,15.29-10.13-.87-6.88-11.7-17.43-13.43-21.5"/><path class="cls-60" d="M255.79,65c-2.09,11.67-.21,46.81,2.77,59.29.46-1,13.66-49.48,15.14-58.49-3.61-.49-13.31-.86-17.91-.8"/><path class="cls-74" d="M247.85,54.83c-.56,5.55,6,9.45,10.25,8.88l.1,2.11c-1.95,3.61,2.34,6.57,4.31,8.28.53-.4,6.89-2.95,7.61-8.63L269.66,56a3.88,3.88,0,0,0,.93-.47,3.32,3.32,0,0,0,.9-3.49c-.33-1.44-2.3-.36-2.3-.36h0c1.55-4.39,3.61-8.22-1-10.4s-13.73-1.56-13.73-1.56l-5.48-.3c1.59,2.28-.73,11.73-1.11,15.41"/><path class="cls-75" d="M266,59.11c-1.67,5.23-3.4,7.23-7.7,8l-.17-3.5A15.08,15.08,0,0,0,266,59.11"/><polygon class="cls-76" points="271.64 97.21 285.29 97.75 285.18 99.97 271.53 99.43 271.64 97.21"/><path class="cls-73" d="M254.07,43.57c4.18.09,8.75-1.11,11.22,1,1.73,1.48,1.82,3.48.8,7.57-.29,1.21-.8,2.14,1,1,.81-.55,2.15-1.34,2.71-1,1.24.71,1,2.66.21,3.4-.35.33-1,.84-1,.84,12.25-4,11.73-14.82,4.44-22-10.13-10-21.25-8.35-25.58-3.64C243,36,246.74,43.4,254.07,43.57"/><path class="cls-60" d="M191.24,69.51c1,3.51-2.41,11.65-4.81,9-.71-.78-1.44-1.53-2.32-2.57-2.61-3.08,1.85-10.65,3.57-9.28Z"/><path class="cls-74" d="M186.55,66.43c-.19-1.17-1-5.81-1.79-6.62-.4-.42-.51-.24-.7,0a2.17,2.17,0,0,0-.31,1.21,17,17,0,0,0,.2,2.1c-2.41-1.47-4.64-4.76-6.35-7-.7-.92-2.26-.22-1.62,1.39.17.44,3.09,4.37,3.1,4.84,0,2.26-7.1,5.62,5.92,11.77a9,9,0,0,0,3-5.2Z"/><path class="cls-60" d="M277.5,121.1c2.86.83,5.55,5,5.42,7.24-.47,0-2.32.7-4,.94-3.53.54-6.39-6.61-4.56-7.27Z"/><path class="cls-74" d="M274.83,123l-1.85.41-5.67-1.59c-.61-.35-4.72-1.75-3.74-.25.69,1,2.94,2.89,2.87,3-.91,1.33-8.94,2.66-9,2.78-1.27,1.67,4.7.81,5.58.76.23,0-4.28,1.48-4.14,1.64a1.77,1.77,0,0,0,1.6.66c1.18-.1,4-.92,4.21-.73s-4.18,1.63-4,1.8a1.54,1.54,0,0,0,1.26.32c1.22-.14,3.93-.92,4.21-.77a9.81,9.81,0,0,1-1.92.67c-2.32.78.29.92,1.23.8,4.54-.59,4.72-2.6,10.08-3.29,5.05-.42.29-6.42-.74-6.2"/><path class="cls-77" d="M345.79,92.3c9.14,0,9.19,12.39.23,12.39a6.5,6.5,0,0,1-6.77-6.2,6.29,6.29,0,0,1,6.54-6.19"/><polygon class="cls-60" points="344.21 96.01 349.05 98.43 344.21 100.85 344.21 96.01"/><path class="cls-77" d="M344,116.8c9.15,0,9.19,12.39.23,12.39a6.5,6.5,0,0,1-6.77-6.2A6.29,6.29,0,0,1,344,116.8"/><path class="cls-77" d="M342.29,141.3c9.14,0,9.19,12.39.23,12.39-3.73,0-6.77-2.77-6.77-6.19a6.29,6.29,0,0,1,6.54-6.2"/><path class="cls-77" d="M340.54,165.8c9.14,0,9.19,12.39.23,12.39A6.5,6.5,0,0,1,334,172a6.29,6.29,0,0,1,6.54-6.2"/><polygon class="cls-60" points="342.46 120.51 347.3 122.93 342.46 125.35 342.46 120.51"/><polygon class="cls-60" points="340.71 145.01 345.55 147.43 340.71 149.85 340.71 145.01"/><polygon class="cls-60" points="338.96 169.51 343.8 171.93 338.96 174.36 338.96 169.51"/><g class="cls-78"><rect class="cls-79" x="208.75" y="145.92" width="112.14" height="9.26"/></g><path class="cls-60" d="M221.19,150.23h74.39a.52.52,0,0,1,.52.52.53.53,0,0,1-.52.53H221.19a.52.52,0,0,1-.52-.53.52.52,0,0,1,.52-.52"/><path class="cls-80" d="M221.19,150.23h21.7v1.05h-21.7a.52.52,0,0,1-.52-.53.52.52,0,0,1,.52-.52"/><path class="cls-81" d="M243,148.1a2.74,2.74,0,1,1-2.73,2.74A2.74,2.74,0,0,1,243,148.1"/><path class="cls-60" d="M212.84,148.16h5a1.07,1.07,0,0,1,1.09,1.09l-.21,2.75a1.12,1.12,0,0,1-1.08,1.09h-5.05a1.08,1.08,0,0,1-1.09-1.09l.21-2.75a1.12,1.12,0,0,1,1.09-1.09"/><path class="cls-82" d="M310.73,149.24h-5.47V152h5.47Zm-5.72-.65h6a.4.4,0,0,1,.15,0,.34.34,0,0,1,.12.09h0a.38.38,0,0,1,.09.13.8.8,0,0,1,0,.15v3.29a.8.8,0,0,1,0,.15.38.38,0,0,1-.09.13h0a.5.5,0,0,1-.12.08l-.15,0h-6l-.15,0h0a.3.3,0,0,1-.13-.09h0a.41.41,0,0,1-.07-.11.4.4,0,0,1,0-.15V149a.4.4,0,0,1,0-.15.41.41,0,0,1,.07-.11h0a.3.3,0,0,1,.13-.09h0A.4.4,0,0,1,305,148.59Z"/><path class="cls-82" d="M315.06,152.68h-.69a1,1,0,0,1-.69-.29,1,1,0,0,1-.29-.7v-.53H314v.37a.58.58,0,0,0,.18.42h0a.56.56,0,0,0,.41.18h.58v.55Zm3.24-1.38v.39a1,1,0,0,1-.29.7,1,1,0,0,1-.69.29h-.92v-.55h.68a.6.6,0,0,0,.42-.18h0a.62.62,0,0,0,.17-.42v-.37h.63Zm-1.77-2.73h.79a1,1,0,0,1,.69.29,1,1,0,0,1,.29.69v.39h-.63v-.23a.63.63,0,0,0-.17-.42h0a.59.59,0,0,0-.42-.17h-.68v-.55Zm-2.16,0h.82v.55h-.58a.55.55,0,0,0-.41.17h0a.58.58,0,0,0-.18.42v.23h-.63v-.39a1,1,0,0,1,.29-.69A1,1,0,0,1,314.37,148.57Z"/><path class="cls-60" d="M301.24,153l0-.2a.18.18,0,0,1,.11-.2,2.26,2.26,0,0,0,.42-.26.18.18,0,0,1,.23,0l.17.13a.19.19,0,0,0,.27-.05l.23-.32a.19.19,0,0,0,0-.27l-.17-.12a.19.19,0,0,1-.07-.22,1.88,1.88,0,0,0,.12-.48.2.2,0,0,1,.16-.17l.2,0a.21.21,0,0,0,.17-.22l-.07-.39a.18.18,0,0,0-.22-.16l-.2,0a.2.2,0,0,1-.21-.11,2.22,2.22,0,0,0-.25-.42.18.18,0,0,1,0-.23l.12-.17a.18.18,0,0,0,0-.27l-.32-.23a.2.2,0,0,0-.27,0l-.12.17a.19.19,0,0,1-.22.07,2.11,2.11,0,0,0-.48-.12.19.19,0,0,1-.17-.16l0-.2a.21.21,0,0,0-.22-.17l-.39.07a.18.18,0,0,0-.16.22l0,.2a.2.2,0,0,1-.11.21,2.22,2.22,0,0,0-.42.25.18.18,0,0,1-.23,0l-.17-.12a.18.18,0,0,0-.27,0l-.23.32a.18.18,0,0,0,0,.27l.17.12a.17.17,0,0,1,.06.22,2.77,2.77,0,0,0-.11.48.19.19,0,0,1-.16.17l-.21,0a.21.21,0,0,0-.16.22l.06.39a.2.2,0,0,0,.23.16l.2,0a.2.2,0,0,1,.21.11,1.79,1.79,0,0,0,.25.42.18.18,0,0,1,0,.23l-.12.17a.18.18,0,0,0,0,.27l.32.23a.18.18,0,0,0,.27,0l.12-.17a.19.19,0,0,1,.22-.06,2.4,2.4,0,0,0,.48.11.2.2,0,0,1,.17.16l0,.21a.21.21,0,0,0,.22.16l.39-.06a.2.2,0,0,0,.16-.23m-.76-1.15a1.06,1.06,0,0,1-1-.73,1.07,1.07,0,1,1,1,.73Z"/><polygon class="cls-83" points="214.17 149.17 216.72 150.62 213.95 152 214.17 149.17"/><path class="cls-61" d="M219.72,160.13a6.6,6.6,0,1,1-6.6,6.59,6.59,6.59,0,0,1,6.6-6.59"/><path class="cls-61" d="M229.69,163.55h64.4c.07,0,.13,0,.12.1l-.24,2.6H229.33l.24-2.6a.12.12,0,0,1,.12-.1"/><path class="cls-61" d="M229.11,170.2h64.4a.11.11,0,0,1,.12.1l-.12,1.3H228.87l.12-1.3c0-.06,0-.1.12-.1"/><path class="cls-61" d="M228.82,174h64.39a.12.12,0,0,1,.13.1l-.12,1.3H228.58l.12-1.3c0-.06.05-.1.12-.1"/><path class="cls-61" d="M228.53,177.78h25.89c.07,0,.13.05.12.1l-.12,1.3H228.28l.12-1.3a.13.13,0,0,1,.13-.1"/><rect class="cls-84" x="300.39" y="162.49" width="1.42" height="3.75"/><path class="cls-84" d="M307.49,163a.65.65,0,0,0-.6-.41l-2.74-.11a3.6,3.6,0,0,0,.41-2,.29.29,0,0,0-.29-.28.28.28,0,0,0-.26.17,3.17,3.17,0,0,1-.72,1,6.7,6.7,0,0,0-.89,1.15v3.75h3.44a.73.73,0,0,0,.73-.76v-.3c0-.55,1.1-1,1.1-1.45a2.46,2.46,0,0,0-.18-.76"/><rect class="cls-84" x="311.48" y="162.3" width="1.42" height="3.75"/><path class="cls-84" d="M318.58,165.57a.63.63,0,0,1-.6.41l-2.73.11a3.52,3.52,0,0,1,.4,2,.28.28,0,0,1-.28.28.26.26,0,0,1-.26-.17,3.17,3.17,0,0,0-.72-1,6.17,6.17,0,0,1-.89-1.15V162.3h3.43a.74.74,0,0,1,.74.76c0,.09,0,.19,0,.3,0,.55,1.1,1,1.1,1.45a2.46,2.46,0,0,1-.18.76"/><path class="cls-61" d="M362,165.86h19.15c.05,0,.11,0,.1.07l-.21,1.89H361.7l.21-1.89s0-.07.11-.07"/><path class="cls-61" d="M363.27,146.19h19.15c.06,0,.11,0,.1.08l-.21,1.89H363l.21-1.89a.11.11,0,0,1,.11-.08"/><path class="cls-61" d="M361.54,170.69h19.15c.06,0,.11,0,.11.07l-.21,1.89H361.23l.21-1.89s.05-.07.1-.07"/><path class="cls-61" d="M362.8,151h10.42c.06,0,.11,0,.11.07l-.21,1.89H362.48l.21-1.89a.1.1,0,0,1,.11-.07"/><path class="cls-61" d="M361.07,175.52H371.5c.06,0,.11,0,.11.08l-.21,1.88H360.76l.21-1.88s0-.08.1-.08"/><path class="cls-85" d="M138.25,123.09c11,10.59,18.21,43.34,32.23,47.75a12.19,12.19,0,0,1,.63,6.23,7.69,7.69,0,0,1-2,4.05s-11.79,1.07-21.7-1c-5.57-1.17-6.4-8.51-8.51-9.36-5.87-2.36-9-26.1-9-26.1Z"/><path class="cls-86" d="M171.3,175.17c0,.63.22.11-.19,1.9a15,15,0,0,1-2,4.05s-11.79,1.07-21.7-1c-5.57-1.17-8.16-5.65-10.27-6.5-2.55-1-1.22-21.17-3.12-23.35l-.28-1.24,4.06-12.82s6,30.91,18.07,34.64,12.61,3.68,15.41,4.32"/><path class="cls-73" d="M131.26,83.25c-2.84,20.75,11.1,27.16-2.55,46.35,0,0-8.37-9.2-12-9.85s-4.06-11.92-4.06-12.49,3.19-23,3.19-23Z"/><path class="cls-85" d="M122.87,116.21H101.59c-10.69,0-20.44,7.4-22.21,17.68-3.53,19.68,3.43,50.62,3.61,52.43h55.68l.25-31.48-.67-31.75c-3.3-3.69-10.08-6.88-15.38-6.88"/><path class="cls-60" d="M107.89,116.21c3.46,9.65,8,3.18,12.41,0,.85,0,2.25-.06,3.65,0,12.55,36.95,5.82,41.08,1.94,62.71l-12.14,6.1c-2.71-1.65-6.43-3.13-9.13-4.78-.42-21.63,8.32-21.8-3-64.07Z"/><path class="cls-87" d="M128,93.14a16.21,16.21,0,0,0,.79,5.91c1.7,4.87-2,13.27-8.54,12.71l0,4.45h-.1c1.61,5.42-1.57,10.56-4,10.67-2.21.09-8-3.42-8.26-10.67l.64-7.26c-.32-.1-1-1.49-1.63-1.89a4,4,0,0,1-1.11-3.59,32.63,32.63,0,0,1,1.61-4.69c-1.83-4.5-3.41-4.19,1.31-6.7s14.23-2.31,14.23-2.31l4.93,1.47Z"/><path class="cls-88" d="M120.27,111.77l0,4.39a16.49,16.49,0,0,1-4.51-1.42,8.29,8.29,0,0,1-4.32-4.62,22.3,22.3,0,0,0,7.9,1.63Z"/><path class="cls-89" d="M151.8,161.57s6.74-.06,8.92.76a6.43,6.43,0,0,1,3,2l2.23.55s.42,1.67,0,1.67-12.24,1.12-12.24,1.12l-2.52-.33s.82-3.77.56-4.5-1.53-1.57-1.53-1.57Z"/><path class="cls-90" d="M98,129.34c-2.32-5.15-9.22-7.94-13.22-4h0c-3,3-3.61,3.4-3.68,7.36-.22,12.27,4.79,46.82,18.51,48.88,7.53,1.14,19.8,2.34,27.89,2.06,3.26-.11,5.89,0,7.17-.94,4.45-3.34-1.91-8.42-1.91-8.42s-24.32-8.74-27.17-9.6c-4.71-1.44-6-31.78-7.59-35.39"/><path class="cls-91" d="M82.17,128.56c-7.48,10.92,4.12,51.18,17.47,53.07,7.54,1.07,19.8,2.34,27.89,2.06,3.26-.11,5.89,0,7.17-.94,0,0-24-3.08-35.44-6.37-10.29-3-17.44-35.79-17.09-47.82"/><path class="cls-92" d="M139.75,170.91a10.54,10.54,0,0,0-1.69,4.46,7.94,7.94,0,0,0,.27,3.89c6.74.54,20.29,0,20.26,0-.45-.07.63-1-.82-1.79-1-.54-4.48-.71-5.69-1.51-5.36-3.57-9-2.87-12.33-5.08"/><path class="cls-93" d="M142.46,147.54l46.95,3.22c1.86.12,3.76,1.56,3.39,3.39L187,182.93c-.37,1.83-1.53,3.4-3.39,3.4H135.22c-1.86,0-3.8-1.57-3.39-3.4l7.23-32c.42-1.82,1.54-3.52,3.4-3.4"/><g class="cls-94"><rect class="cls-95" x="133.59" y="147.54" width="63.26" height="38.79"/></g><path class="cls-96" d="M166.24,163.76a3.39,3.39,0,1,1-3.67,2.32,3.1,3.1,0,0,1,3.67-2.32"/><path class="cls-93" d="M108.86,183.16h24.58l1.78,3.17H107.28v-1.59a1.58,1.58,0,0,1,1.58-1.58"/><path class="cls-73" d="M115.13,91.18s11.32,3,17.71-.9c4.18-2.9,4.65-8.78-1.48-13.12-7.9-5.58-23.06-3.94-28.88,5-2,3.11-4.06,8.51-6.47,14-5.6,12.8-20.6,4.8-24.88,26.27-.2,1,3.37-1.24,6.53-2.05a12.82,12.82,0,0,0,1.77,13.26c3.41-15.55,17.58-16.16,28.46-17.4,1.61-1.5,1.84-5.7,1.85-7.8,0,0-3.28-2.31-3.12-5s.92-2.61,1.23-2.54A20.46,20.46,0,0,1,109.9,102c.62-3.48.48-10.4,5.23-10.79"/><path class="cls-60" d="M109.26,105.49a1.25,1.25,0,1,0,1.24,1.25,1.24,1.24,0,0,0-1.24-1.25"/><path class="cls-97" d="M164,188H144.41a1.74,1.74,0,0,1-1.8-1.34h22.56c.25.64-.31,1.34-1.15,1.34"/><path class="cls-98" d="M63.34,222.59h85c5.08,0,9.23,2.91,9.23,6.46h0c0,3.55-4.15,6.45-9.23,6.45h-85c-5.08,0-9.23-2.9-9.23-6.45h0c0-3.55,4.15-6.46,9.23-6.46"/><path class="cls-99" d="M148.4,233.54h72.84c-2.09-2.32-2.91-5.6,0-9H148.4c-1.7,0-3.08,2-3.08,4.49s1.38,4.49,3.08,4.49"/><path class="cls-100" d="M219.35,229.22a6.9,6.9,0,0,1,1.89-4.66H148.4c-1.7,0-3.08,2-3.08,4.49v.17Z"/><path class="cls-101" d="M222.82,235.5H148.23c-2.44,0-5-2.94-5-6.49s2.57-6.42,5-6.42h74.59l0,1.93-74.4,0c-1.7,0-3.08,2-3.08,4.49s1.38,4.49,3.08,4.49l74.4,0Z"/><path class="cls-102" d="M151.63,229.16h5.78c2.22.8,1.58,4,2.89,6.05l-3.41-1.72-2.48,1.61c-1.92-1.89-.82-5.1-2.78-5.94"/><path class="cls-103" d="M222.82,202h-87a10.57,10.57,0,0,0-10.75,10.31h0a10.57,10.57,0,0,0,10.75,10.31h87a10.57,10.57,0,0,0,10.75-10.31h0A10.57,10.57,0,0,0,222.82,202"/><path class="cls-99" d="M139.79,219.45H63.68c3.34-3.69,4.65-8.93,0-14.33h76.11c2.7,0,4.91,3.23,4.91,7.16s-2.21,7.17-4.91,7.17"/><path class="cls-100" d="M66.6,211.07a11.64,11.64,0,0,0-2.92-5.95h76.11c2.41,0,4.44,2.59,4.84,5.95Z"/><path class="cls-104" d="M61.16,222.59h78.9c3.88,0,8-4.7,8-10.37s-4.11-10.25-8-10.25H61.16l0,3.09,78.6.06c2.7,0,4.91,3.23,4.91,7.16s-2.21,7.17-4.91,7.17l-78.6,0Z"/><polygon class="cls-105" points="125.92 210.84 132.69 210.84 131.66 217.45 128.44 215.92 124.89 217.45 125.92 210.84"/><path class="cls-106" d="M201.51,186.24h-71c-4.82,0-8.77,3.6-8.77,8h0c0,4.4,4,8,8.77,8h71c4.82,0,8.77-3.59,8.77-8h0c0-4.39-3.95-8-8.77-8"/><path class="cls-99" d="M133.76,199.79H71.65c2.73-2.86,3.8-6.93,0-11.11h62.11c2.2,0,4,2.5,4,5.55s-1.81,5.56-4,5.56"/><path class="cls-100" d="M74,193.11a8.94,8.94,0,0,0-2.36-4.43h62.11c1.92,0,3.55,1.91,3.92,4.43Z"/><path class="cls-107" d="M69.6,202.22H134c3.17,0,6.52-3.64,6.52-8s-3.35-7.94-6.52-7.94H69.6l0,2.4,64.13,0c2.2,0,4,2.5,4,5.55s-1.81,5.56-4,5.56l-64.13,0Z"/><path class="cls-108" d="M124.72,193.11h-5.78c-2.22.8-1.58,4-2.9,6l3.42-1.72,2.48,1.61c1.92-1.88.82-5.09,2.78-5.94"/><path class="cls-109" d="M129.52,53.38C134,58.91,138.36,65.84,140,71.24a2.74,2.74,0,0,0,1.59,1.58h13.84a2.74,2.74,0,0,0,1.59-1.58c1.67-5.4,6.09-12.33,10.51-17.86.77-.91,1.27-1.78,2-2.69A23,23,0,0,0,173.05,39a23.41,23.41,0,0,0-22.89-23.9c-.54,0-1.08,0-1.62,0s-1.07,0-1.62,0A23.41,23.41,0,0,0,124,39a23,23,0,0,0,3.52,11.65c.7.91,1.2,1.78,2,2.69"/><path class="cls-110" d="M148.45,82.4c3,0,5.41,1.27,5.41,2.83s-2.42,2.84-5.41,2.84S143,86.8,143,85.23s2.42-2.83,5.41-2.83"/><path class="cls-111" d="M148.54,21.8a17.36,17.36,0,1,1-17.36,17.36A17.36,17.36,0,0,1,148.54,21.8"/><path class="cls-112" d="M140.66,20.32a1.76,1.76,0,1,1,1,3.38A14.8,14.8,0,0,0,132,34.36a1.76,1.76,0,0,1-3.45-.71,18.17,18.17,0,0,1,4.37-8.33,17,17,0,0,1,7.77-5"/><path class="cls-109" d="M167.17,5.26h0a1.32,1.32,0,0,1,.48,1.8l-2.88,5a1.31,1.31,0,0,1-1.8.48h0a1.31,1.31,0,0,1-.48-1.8l2.88-5a1.32,1.32,0,0,1,1.8-.48m-39.25,0h0a1.32,1.32,0,0,1,1.8.48l2.88,5a1.33,1.33,0,0,1-.48,1.8h0a1.32,1.32,0,0,1-1.81-.48l-2.88-5A1.32,1.32,0,0,1,127.92,5.26ZM113.55,19.63h0a1.32,1.32,0,0,1,1.8-.49l5,2.88a1.33,1.33,0,0,1,.48,1.81h0a1.33,1.33,0,0,1-1.8.48l-5-2.88A1.32,1.32,0,0,1,113.55,19.63Zm68,0h0a1.33,1.33,0,0,1-.49,1.8l-5,2.88a1.33,1.33,0,0,1-1.8-.48h0a1.34,1.34,0,0,1,.49-1.81l5-2.88A1.33,1.33,0,0,1,181.54,19.63Zm5.26,19.62h0a1.33,1.33,0,0,1-1.32,1.32h-5.76a1.32,1.32,0,0,1-1.32-1.32h0a1.33,1.33,0,0,1,1.32-1.32h5.76A1.33,1.33,0,0,1,186.8,39.25Zm-70.11,0h0a1.33,1.33,0,0,1-1.32,1.32h-5.76a1.32,1.32,0,0,1-1.32-1.32h0a1.33,1.33,0,0,1,1.32-1.32h5.76A1.33,1.33,0,0,1,116.69,39.25ZM147.54,0h0a1.32,1.32,0,0,1,1.32,1.32V7.08a1.32,1.32,0,0,1-1.32,1.32h0a1.33,1.33,0,0,1-1.32-1.32V1.32A1.33,1.33,0,0,1,147.54,0Z"/><rect class="cls-113" x="141.99" y="72.82" width="12.95" height="1.59"/><path class="cls-82" d="M144,44.3h0a2.73,2.73,0,0,0-4.65,1.92v1.65a2.68,2.68,0,0,0,.81,1.92h0a2.75,2.75,0,0,0,1.93.79h2.72V46.22a2.67,2.67,0,0,0-.8-1.92m-1.92-1.76a3.71,3.71,0,0,1,2.6,1.08h0a3.67,3.67,0,0,1,1.08,2.59v5.33h-3.68a3.67,3.67,0,0,1-2.6-1.08h0a3.67,3.67,0,0,1-1.08-2.6V46.22a3.63,3.63,0,0,1,1.08-2.59h0A3.71,3.71,0,0,1,142.12,42.54Z"/><path class="cls-82" d="M151.74,43.62a3.66,3.66,0,0,1,5.19,0h0A3.63,3.63,0,0,1,158,46.22v1.65a3.69,3.69,0,0,1-3.68,3.68h-3.68V46.22a3.67,3.67,0,0,1,1.08-2.59Zm2.59-.12a2.73,2.73,0,0,0-2.72,2.72v4.37h2.72a2.73,2.73,0,0,0,2.73-2.72V46.22a2.71,2.71,0,0,0-.8-1.92h0A2.76,2.76,0,0,0,154.33,43.5Z"/><polygon class="cls-82" points="144.84 72.82 144.84 51.07 144.84 50.59 145.32 50.59 151.13 50.59 151.61 50.59 151.61 51.07 151.61 72.82 150.65 72.82 150.65 51.55 145.8 51.55 145.8 72.82 144.84 72.82"/><path class="cls-114" d="M141.4,74.41h14.14a1.91,1.91,0,1,1,0,3.82H141.4a1.91,1.91,0,1,1,0-3.82"/><rect class="cls-113" x="141.99" y="78.23" width="12.95" height="1.59"/><path class="cls-114" d="M141.4,79.82h14.14a1.91,1.91,0,0,1,0,3.82H141.4a1.91,1.91,0,1,1,0-3.82"/><path class="cls-115" d="M142,83.64h12.95v.8a.79.79,0,0,1-.79.79H142.79a.79.79,0,0,1-.8-.79Z"/><path class="cls-112" d="M165.92,38.71a16.13,16.13,0,0,1-.77,5.51,1.54,1.54,0,0,0,.92,2.1,1.8,1.8,0,0,0,2.32-1,17.75,17.75,0,0,0,.84-8.16,1.77,1.77,0,0,0-2.75-1c-1,.64-.59,1.61-.56,2.59"/><path class="cls-116" d="M144,75h1.22a1.19,1.19,0,0,1,1.19,1.19h0a1.19,1.19,0,0,1-1.19,1.19H144a1.2,1.2,0,0,1-1.19-1.19h0A1.2,1.2,0,0,1,144,75"/><path class="cls-116" d="M144,80.51h1.22a1.19,1.19,0,0,1,1.19,1.19h0a1.19,1.19,0,0,1-1.19,1.19H144a1.19,1.19,0,0,1-1.19-1.19h0A1.2,1.2,0,0,1,144,80.51"/></svg>