<svg id="Layer_1" data-name="Layer 1" xmlns="http://www.w3.org/2000/svg" xmlns:xlink="http://www.w3.org/1999/xlink" viewBox="0 0 466.92 235.89"><defs><style>.cls-1{fill:url(#linear-gradient);}.cls-2{fill:url(#linear-gradient-2);}.cls-3{fill:url(#linear-gradient-3);}.cls-4{fill:url(#linear-gradient-4);}.cls-5{fill:url(#linear-gradient-5);}.cls-6{fill:url(#linear-gradient-6);}.cls-7,.cls-75{opacity:0.3;}.cls-8{fill:url(#linear-gradient-7);}.cls-9{fill:url(#linear-gradient-8);}.cls-10{fill:url(#linear-gradient-9);}.cls-11{fill:url(#linear-gradient-10);}.cls-12{fill:url(#linear-gradient-11);}.cls-13{fill:url(#linear-gradient-12);}.cls-14{fill:url(#linear-gradient-13);}.cls-15{fill:url(#linear-gradient-14);}.cls-16{fill:url(#linear-gradient-15);}.cls-17{fill:url(#linear-gradient-16);}.cls-18{fill:url(#linear-gradient-17);}.cls-19{fill:url(#linear-gradient-18);}.cls-20{fill:url(#linear-gradient-19);}.cls-21{fill:url(#linear-gradient-20);}.cls-22{fill:url(#linear-gradient-21);}.cls-23{fill:url(#linear-gradient-22);}.cls-24{fill:url(#linear-gradient-23);}.cls-25{fill:url(#linear-gradient-24);}.cls-26{fill:url(#linear-gradient-25);}.cls-27{fill:url(#linear-gradient-26);}.cls-28{fill:url(#linear-gradient-27);}.cls-29{fill:url(#linear-gradient-28);}.cls-30{fill:url(#linear-gradient-29);}.cls-31{fill:url(#linear-gradient-30);}.cls-32{fill:url(#linear-gradient-31);}.cls-33{fill:url(#linear-gradient-32);}.cls-34{fill:url(#linear-gradient-33);}.cls-35{fill:url(#linear-gradient-34);}.cls-36{fill:url(#linear-gradient-35);}.cls-37{fill:url(#linear-gradient-36);}.cls-38{fill:url(#linear-gradient-37);}.cls-39{fill:url(#linear-gradient-38);}.cls-40{fill:url(#linear-gradient-39);}.cls-41{fill:url(#linear-gradient-40);}.cls-42{fill:url(#linear-gradient-41);}.cls-43{fill:url(#linear-gradient-42);}.cls-44{fill:url(#linear-gradient-43);}.cls-45{fill:url(#linear-gradient-44);}.cls-46{fill:url(#linear-gradient-45);}.cls-47{fill:url(#linear-gradient-46);}.cls-48{fill:url(#linear-gradient-47);}.cls-49{fill:url(#linear-gradient-48);}.cls-50{fill:url(#linear-gradient-49);}.cls-51{fill:url(#linear-gradient-50);}.cls-52{fill:url(#linear-gradient-51);}.cls-53{fill:url(#linear-gradient-52);}.cls-54{fill:url(#linear-gradient-53);}.cls-55{fill:url(#linear-gradient-54);}.cls-56{fill:url(#linear-gradient-55);}.cls-57{fill:url(#linear-gradient-56);}.cls-58{fill:url(#linear-gradient-57);}.cls-59{fill:#fda22d;}.cls-60{fill:#fcc13f;}.cls-61{fill:#fadbbf;}.cls-62{fill:#7261eb;}.cls-63{fill:#020221;}.cls-64{fill:#0b0b47;}.cls-65{fill:#3e3e9e;}.cls-66{fill:#373791;}.cls-67{fill:#f6c9a3;}.cls-68{fill:url(#radial-gradient);}.cls-69{fill:#231f20;}.cls-70{fill:#f2c8aa;}.cls-71{fill:#1c1c2b;}.cls-72{fill:url(#linear-gradient-58);}.cls-73{fill:#ffdc45;}.cls-74{fill:#fbac29;}.cls-75{fill:#fff;}.cls-76{fill:#541e0f;}.cls-77{fill:#e1dbff;}.cls-78{fill:#121833;}.cls-79{fill:#1d2244;}.cls-80{fill:#5e5eaa;}.cls-81{fill:#4c4992;}.cls-82{fill:#8c01da;}.cls-83{fill:#262523;}.cls-84{fill:#ffdb17;}.cls-85,.cls-86,.cls-88{fill:#f7b336;}.cls-85{opacity:0.4;}.cls-86{opacity:0.67;}.cls-87{fill:#ffee8a;opacity:0.6;}</style><linearGradient id="linear-gradient" x1="-857.72" y1="2483.64" x2="-749.78" y2="2483.64" gradientTransform="matrix(0.17, 0.99, -0.99, 0.17, 2812.52, 442.59)" gradientUnits="userSpaceOnUse"><stop offset="0" stop-color="#b3e0fd"/><stop offset="0.5" stop-color="#d7ecfd"/><stop offset="1" stop-color="#f0f8ff"/></linearGradient><linearGradient id="linear-gradient-2" x1="-2756.02" y1="-571.47" x2="-2684.89" y2="-642.59" gradientTransform="matrix(0.85, -0.53, 0.53, 0.85, 2810.26, -788.48)" xlink:href="#linear-gradient"/><linearGradient id="linear-gradient-3" x1="-3129.87" y1="203.64" x2="-3188.44" y2="157.19" gradientTransform="translate(3241.97)" xlink:href="#linear-gradient"/><linearGradient id="linear-gradient-4" x1="-3157.27" y1="232.25" x2="-3198.01" y2="198.06" gradientTransform="translate(3241.97)" xlink:href="#linear-gradient"/><linearGradient id="linear-gradient-5" x1="2913.99" y1="232.99" x2="2872.45" y2="198.13" gradientTransform="matrix(-1, 0, 0, 1, 3055.95, 0)" xlink:href="#linear-gradient"/><linearGradient id="linear-gradient-6" x1="2461.84" y1="228.9" x2="2501.1" y2="115.04" gradientTransform="matrix(-1, 0, 0.17, 1, 2572.61, 0)" xlink:href="#linear-gradient"/><linearGradient id="linear-gradient-7" x1="-3136.6" y1="162.56" x2="-3110.78" y2="162.56" gradientTransform="translate(3241.97)" xlink:href="#linear-gradient"/><linearGradient id="linear-gradient-8" x1="-3111.19" y1="182.72" x2="-3053.49" y2="182.72" gradientTransform="translate(3241.97)" xlink:href="#linear-gradient"/><linearGradient id="linear-gradient-9" x1="-3190.75" y1="182.72" x2="-3110.78" y2="182.72" gradientTransform="translate(3241.97)" xlink:href="#linear-gradient"/><linearGradient id="linear-gradient-10" x1="-3131.31" y1="111.07" x2="-3124.06" y2="111.07" gradientTransform="translate(3241.97)" xlink:href="#linear-gradient"/><linearGradient id="linear-gradient-11" x1="-3147.02" y1="129.16" x2="-3127.67" y2="129.16" gradientTransform="translate(3241.97)" xlink:href="#linear-gradient"/><linearGradient id="linear-gradient-12" x1="-3126.51" y1="138.87" x2="-3115.91" y2="138.87" gradientTransform="translate(3241.97)" xlink:href="#linear-gradient"/><linearGradient id="linear-gradient-13" x1="-3137.44" y1="168.76" x2="-3121.14" y2="168.76" gradientTransform="translate(3241.97)" xlink:href="#linear-gradient"/><linearGradient id="linear-gradient-14" x1="-3168.58" y1="144.51" x2="-3167.67" y2="144.51" gradientTransform="translate(3241.97)" xlink:href="#linear-gradient"/><linearGradient id="linear-gradient-15" x1="-3153.47" y1="172.01" x2="-3152.87" y2="172.01" gradientTransform="translate(3241.97)" xlink:href="#linear-gradient"/><linearGradient id="linear-gradient-16" x1="-3174.34" y1="163.84" x2="-3161.93" y2="163.84" gradientTransform="translate(3241.97)" xlink:href="#linear-gradient"/><linearGradient id="linear-gradient-17" x1="-3139.57" y1="196.4" x2="-3137" y2="196.4" gradientTransform="translate(3241.97)" xlink:href="#linear-gradient"/><linearGradient id="linear-gradient-18" x1="-3155.4" y1="189.93" x2="-3145.02" y2="189.93" gradientTransform="translate(3241.97)" xlink:href="#linear-gradient"/><linearGradient id="linear-gradient-19" x1="-3088.81" y1="146.85" x2="-3081.83" y2="146.85" gradientTransform="translate(3241.97)" xlink:href="#linear-gradient"/><linearGradient id="linear-gradient-20" x1="-3094.02" y1="169.3" x2="-3086.05" y2="169.3" gradientTransform="translate(3241.97)" xlink:href="#linear-gradient"/><linearGradient id="linear-gradient-21" x1="-3093.35" y1="193.24" x2="-3081.32" y2="193.24" gradientTransform="translate(3241.97)" xlink:href="#linear-gradient"/><linearGradient id="linear-gradient-22" x1="-3160.24" y1="199.53" x2="-3151.27" y2="199.53" gradientTransform="translate(3241.97)" xlink:href="#linear-gradient"/><linearGradient id="linear-gradient-23" x1="-3183.36" y1="187.55" x2="-3173.92" y2="187.55" gradientTransform="translate(3241.97)" xlink:href="#linear-gradient"/><linearGradient id="linear-gradient-24" x1="-3150.61" y1="214.16" x2="-3143.19" y2="214.16" gradientTransform="translate(3241.97)" xlink:href="#linear-gradient"/><linearGradient id="linear-gradient-25" x1="-3069.3" y1="186.46" x2="-3066.97" y2="186.46" gradientTransform="translate(3241.97)" xlink:href="#linear-gradient"/><linearGradient id="linear-gradient-26" x1="-3080.32" y1="202.92" x2="-3079.72" y2="202.92" gradientTransform="translate(3241.97)" xlink:href="#linear-gradient"/><linearGradient id="linear-gradient-27" x1="-3075.23" y1="201.49" x2="-3065.45" y2="201.49" gradientTransform="translate(3241.97)" xlink:href="#linear-gradient"/><linearGradient id="linear-gradient-28" x1="-3118.02" y1="189.56" x2="-3110.08" y2="189.56" gradientTransform="translate(3241.97)" xlink:href="#linear-gradient"/><linearGradient id="linear-gradient-29" x1="-330.14" y1="201.53" x2="-394.17" y2="150.75" gradientTransform="matrix(-1, 0, 0, 1, 6.47, 0)" xlink:href="#linear-gradient"/><linearGradient id="linear-gradient-30" x1="-460.45" y1="204.88" x2="-264.62" y2="204.88" gradientTransform="matrix(-1, 0, 0, 1, 6.47, 0)" xlink:href="#linear-gradient"/><linearGradient id="linear-gradient-31" x1="-2808.49" y1="48.18" x2="-2886.69" y2="157.78" gradientTransform="translate(3241.97)" xlink:href="#linear-gradient"/><linearGradient id="linear-gradient-32" x1="-2898.6" y1="329.6" x2="-2841.85" y2="272.85" gradientTransform="matrix(0.99, 0.11, -0.11, 0.99, 3239.7, 136.94)" xlink:href="#linear-gradient"/><linearGradient id="linear-gradient-33" x1="-2990.1" y1="161.22" x2="-3033.26" y2="106.63" gradientTransform="translate(3241.97)" xlink:href="#linear-gradient"/><linearGradient id="linear-gradient-34" x1="2636.75" y1="239.56" x2="2695.86" y2="200.03" gradientTransform="matrix(-1, 0, 0, 1, 2912.03, 0)" xlink:href="#linear-gradient"/><linearGradient id="linear-gradient-35" x1="2539.3" y1="222.78" x2="2578.52" y2="208.51" gradientTransform="matrix(-1, 0, 0, 1, 2912.03, 0)" xlink:href="#linear-gradient"/><linearGradient id="linear-gradient-36" x1="-2900.41" y1="629.12" x2="-2951.56" y2="550.89" gradientTransform="matrix(0.98, 0.18, -0.18, 0.98, 3270.02, 70.16)" xlink:href="#linear-gradient"/><linearGradient id="linear-gradient-37" x1="-2838.84" y1="93.74" x2="-2925.06" y2="209.22" gradientTransform="translate(3241.97)" xlink:href="#linear-gradient"/><linearGradient id="linear-gradient-38" x1="-2935.2" y1="165.05" x2="-2845.12" y2="165.05" gradientTransform="translate(3241.97)" xlink:href="#linear-gradient"/><linearGradient id="linear-gradient-39" x1="-2898.14" y1="154.8" x2="-2897.6" y2="154.8" gradientTransform="translate(3241.97)" xlink:href="#linear-gradient"/><linearGradient id="linear-gradient-40" x1="-2902.97" y1="169.94" x2="-2872.25" y2="169.94" gradientTransform="translate(3241.97)" xlink:href="#linear-gradient"/><linearGradient id="linear-gradient-41" x1="-2915.67" y1="190.4" x2="-2901.69" y2="190.4" gradientTransform="translate(3241.97)" xlink:href="#linear-gradient"/><linearGradient id="linear-gradient-42" x1="-2886.58" y1="146.69" x2="-2884.4" y2="146.69" gradientTransform="translate(3241.97)" xlink:href="#linear-gradient"/><linearGradient id="linear-gradient-43" x1="-2877.26" y1="143.82" x2="-2867.61" y2="143.82" gradientTransform="translate(3241.97)" xlink:href="#linear-gradient"/><linearGradient id="linear-gradient-44" x1="-2857.26" y1="111.71" x2="-2855.8" y2="111.71" gradientTransform="translate(3241.97)" xlink:href="#linear-gradient"/><linearGradient id="linear-gradient-45" x1="-2862.76" y1="125.56" x2="-2850.12" y2="125.56" gradientTransform="translate(3241.97)" xlink:href="#linear-gradient"/><linearGradient id="linear-gradient-46" x1="2602.97" y1="238.72" x2="2569.98" y2="25.28" gradientTransform="matrix(-1, 0, 0, 1, 2912.03, 0)" xlink:href="#linear-gradient"/><linearGradient id="linear-gradient-47" x1="-2937.48" y1="129.29" x2="-2903.69" y2="129.29" gradientTransform="translate(3241.97)" xlink:href="#linear-gradient"/><linearGradient id="linear-gradient-48" x1="-2922.88" y1="105.97" x2="-2895.45" y2="105.97" gradientTransform="translate(3241.97)" xlink:href="#linear-gradient"/><linearGradient id="linear-gradient-49" x1="-2932.1" y1="92.61" x2="-2920.16" y2="92.61" gradientTransform="translate(3241.97)" xlink:href="#linear-gradient"/><linearGradient id="linear-gradient-50" x1="-2930.78" y1="161.6" x2="-2906.07" y2="161.6" gradientTransform="translate(3241.97)" xlink:href="#linear-gradient"/><linearGradient id="linear-gradient-51" x1="-2947.04" y1="170.79" x2="-2931.96" y2="170.79" gradientTransform="translate(3241.97)" xlink:href="#linear-gradient"/><linearGradient id="linear-gradient-52" x1="-2908.9" y1="41.49" x2="-2896.71" y2="41.49" gradientTransform="translate(3241.97)" xlink:href="#linear-gradient"/><linearGradient id="linear-gradient-53" x1="-2912.07" y1="33.68" x2="-2906.72" y2="33.68" gradientTransform="translate(3241.97)" xlink:href="#linear-gradient"/><linearGradient id="linear-gradient-54" x1="-2918.04" y1="85.05" x2="-2906.43" y2="85.05" gradientTransform="translate(3241.97)" xlink:href="#linear-gradient"/><linearGradient id="linear-gradient-55" x1="-2918.86" y1="59.94" x2="-2913.22" y2="59.94" gradientTransform="translate(3241.97)" xlink:href="#linear-gradient"/><linearGradient id="linear-gradient-56" x1="-2927.78" y1="143.47" x2="-2914.63" y2="143.47" gradientTransform="translate(3241.97)" xlink:href="#linear-gradient"/><linearGradient id="linear-gradient-57" x1="-2935.11" y1="202.76" x2="-2922.02" y2="202.76" gradientTransform="translate(3241.97)" xlink:href="#linear-gradient"/><radialGradient id="radial-gradient" cx="-3654.5" cy="-1768.14" r="4.73" gradientTransform="matrix(1.03, -0.17, 0.21, 1.29, 4378.33, 1739.44)" gradientUnits="userSpaceOnUse"><stop offset="0.82" stop-color="#fadbbf"/><stop offset="0.95" stop-color="#fad1a5"/></radialGradient><linearGradient id="linear-gradient-58" x1="-3535.41" y1="114.53" x2="-3501.23" y2="114.53" gradientTransform="matrix(-1, 0, 0, 1, -3183.25, 0)" gradientUnits="userSpaceOnUse"><stop offset="0" stop-color="#441711"/><stop offset="1" stop-color="#12010a"/></linearGradient></defs><title>Goals-Rewards</title><path class="cls-1" d="M198.11,20.09a54.79,54.79,0,0,1,9.94,50.59c4.58-34.08,32.33-63.79,66-70.68,6,28.22-9.55,59.57-35.64,71.88,17.7-10,31.2-19,51.4-16.07-7.42,42.68-58.39,64-103.06,67.71C168.11,103.12,165.13,44.45,198.11,20.09Z"/><path class="cls-2" d="M140.45,120.37A49,49,0,0,1,173.68,139a97.88,97.88,0,0,1-23.16-75.56C164.23,82.89,183,73,188.89,95.76c.84-9.52,5-14.91,11.43-20.22,33.59,43.52,19.6,100-6.78,122.93C181.84,169.38,140.7,165.58,140.45,120.37Z"/><path class="cls-3" d="M63.22,209.16c-3-2.09-6-4.56-7.3-8s-.39-7.95,2.9-9.56c2.58-1.26,5.66-.41,8.35.62A71.57,71.57,0,0,1,87,203.79c-7.79-4.59-15.64-9.22-22.32-15.31s-12.18-13.84-14-22.69a17.64,17.64,0,0,1,.11-9,9.33,9.33,0,0,1,6.1-6.3c4-1.06,8,1.27,11.25,3.78A70,70,0,0,1,89.39,181.6a46.89,46.89,0,0,1-9-21.24c-.75-4.9-.32-10.72,3.69-13.63,4.17-3,10.14-1.3,14.31,1.7,9.89,7.11,29.28,28.5,35.49,39,22.15,37.38-14.52,39.09-25.75,36.19-4.38-1.14-9-1-13.43-1.72a77.76,77.76,0,0,1-15.49-4.24A76.68,76.68,0,0,1,63.22,209.16Z"/><path class="cls-4" d="M100.8,200.57C85.69,168.42,31.27,160.69,52,205.4c-9.18-8.49-20.88-9.93-24-5.73s-.78,11,4.37,17.79c-21.41-6.77-21.85,6.36-15,12.14-10.52-4.9-9.67,3-17.25,6.08H130.58V197.26C118.28,181.67,94.45,177.75,100.8,200.57Z"/><path class="cls-5" d="M124.28,200.57c15.11-32.15,69.53-39.88,48.83,4.83,9.18-8.49,20.88-9.93,24-5.73s.78,11-4.37,17.79c21.41-6.77,21.85,6.36,15,12.14,10.52-4.9,14.59,3,22.17,6.08H94.51V197.26C106.8,181.67,130.63,177.75,124.28,200.57Z"/><path class="cls-6" d="M42.4,161.76c3.75-2.8,9.62-1.82,13.68,1.94q4.39,4.1,8.81,8.17c1.86,1.73,4.35,0,3.1-2.18-7.71-13.31-12.92-26.89-13.67-41.42-.21-4.07,1.76-7.71,5.4-9.06,7.37-2.72,13.78,5.46,17.77,12.27l.33.56c4.56,7.77,15.79,5.56,14.38-2.84a111.64,111.64,0,0,1-1.15-31.09c.81-7.3,3.23-15.49,10.43-17a26.17,26.17,0,0,1,5.31,0c7.7,1.46,13,9.65,16.32,17a132.55,132.55,0,0,1,11.07,40.76c1.18,7.19,10,9.86,12.21.46q1.61-6.74,3.22-13.48a9.06,9.06,0,0,1,7.8-7.11c8.2-1,13,8.48,14.52,16,2.48,12.14,1.74,23.66-.89,35-.5,2.16,2.6,3.9,3.87,2.18l6-8.17c2.75-3.76,8.28-4.74,13-1.94,7.74,4.59,5,13.64,1.33,19.33-11.38,17.55-34,46.47-57.52,54.59H124.28c-26.37-8.12-59-37-76.5-54.59C42.11,175.4,36.25,166.35,42.4,161.76Z"/><g class="cls-7"><path class="cls-8" d="M131,235.89a.21.21,0,0,1-.2-.17L105.37,89.48a.21.21,0,1,1,.41-.07l25.41,146.24a.21.21,0,0,1-.17.24Z"/></g><g class="cls-7"><path class="cls-9" d="M131,235.89a.24.24,0,0,1-.13,0,.21.21,0,0,1,0-.26c20.36-35.8,30.5-70.42,31-105.83a.22.22,0,0,1,.21-.21h0a.22.22,0,0,1,.21.21c-.5,35.21-10.49,69.62-30.56,105.17,24.34-18.29,43.84-40.2,56.44-63.41a.21.21,0,0,1,.28-.09.2.2,0,0,1,.08.28c-12.76,23.52-32.59,45.7-57.34,64.15A.2.2,0,0,1,131,235.89Z"/></g><g class="cls-7"><path class="cls-10" d="M131,235.89a.19.19,0,0,1-.1,0c-31.16-18.44-58.68-40.62-79.61-64.12a.21.21,0,0,1,0-.29.2.2,0,0,1,.29,0c20.63,23.16,47.68,45,78.31,63.32C97.56,199.3,75.66,165,63,129.82a.2.2,0,0,1,.12-.26.21.21,0,0,1,.27.12c12.81,35.42,35,70,67.79,105.86a.21.21,0,0,1-.16.35Z"/></g><g class="cls-7"><path class="cls-11" d="M110.86,120.09l-.07,0a.2.2,0,0,1-.12-.26l6.84-17.63a.21.21,0,0,1,.27-.11.21.21,0,0,1,.12.26L111.05,120A.21.21,0,0,1,110.86,120.09Z"/></g><g class="cls-7"><path class="cls-12" d="M114.09,138.65a.22.22,0,0,1-.15-.06L95,120a.22.22,0,0,1,0-.29.22.22,0,0,1,.3,0l18.93,18.57a.21.21,0,0,1,0,.29A.22.22,0,0,1,114.09,138.65Z"/></g><g class="cls-7"><path class="cls-13" d="M115.66,147.72a.18.18,0,0,1-.1,0,.21.21,0,0,1-.07-.29l10.18-17.3A.22.22,0,0,1,126,130a.22.22,0,0,1,.07.29l-10.19,17.3A.2.2,0,0,1,115.66,147.72Z"/></g><g class="cls-7"><path class="cls-14" d="M120.62,176.25a.2.2,0,0,1-.14-.06l-15.89-14.56a.22.22,0,0,1,0-.3.21.21,0,0,1,.29,0l15.89,14.57a.21.21,0,0,1,0,.29A.18.18,0,0,1,120.62,176.25Z"/></g><g class="cls-7"><path class="cls-15" d="M74.09,155.47a.21.21,0,0,1-.21-.2l-.49-21.52a.21.21,0,0,1,.2-.21h0a.2.2,0,0,1,.21.2l.5,21.52a.21.21,0,0,1-.21.21Z"/></g><g class="cls-7"><path class="cls-16" d="M88.89,181.67a.2.2,0,0,1-.2-.2l-.19-18.91a.2.2,0,0,1,.2-.2h0a.2.2,0,0,1,.2.2l.19,18.9C89.1,181.58,89,181.65,88.89,181.67Z"/></g><g class="cls-7"><path class="cls-17" d="M79.83,166.42h-.07l-12-4.75a.19.19,0,0,1-.11-.26.2.2,0,0,1,.26-.12l12,4.74a.21.21,0,0,1,.12.27A.22.22,0,0,1,79.83,166.42Z"/></g><g class="cls-7"><path class="cls-18" d="M104.76,204.52a.2.2,0,0,1-.2-.18l-2.16-15.83a.22.22,0,0,1,.18-.24.21.21,0,0,1,.23.18L105,204.28a.21.21,0,0,1-.18.24Z"/></g><g class="cls-7"><path class="cls-19" d="M96.74,193.46a.28.28,0,0,1-.12,0l-10-6.63a.22.22,0,0,1-.06-.29.21.21,0,0,1,.29-.06l10,6.64a.2.2,0,0,1,.06.28A.22.22,0,0,1,96.74,193.46Z"/></g><g class="cls-7"><path class="cls-20" d="M159.93,155.47a.21.21,0,0,1-.19-.13l-6.57-16.82a.21.21,0,0,1,.12-.27.21.21,0,0,1,.27.12l6.57,16.82a.22.22,0,0,1-.12.27Z"/></g><g class="cls-7"><path class="cls-21" d="M155.71,176.25a.21.21,0,0,1-.18-.11L148,162.66a.21.21,0,0,1,.08-.28.21.21,0,0,1,.29.08l7.55,13.48a.2.2,0,0,1-.08.28A.17.17,0,0,1,155.71,176.25Z"/></g><g class="cls-7"><path class="cls-22" d="M148.82,198.07a.21.21,0,0,1-.16-.08.21.21,0,0,1,0-.29l11.62-9.23a.21.21,0,1,1,.26.32L149,198A.21.21,0,0,1,148.82,198.07Z"/></g><g class="cls-7"><path class="cls-23" d="M90.49,208.19a.2.2,0,0,1-.18-.11l-8.56-16.91a.2.2,0,0,1,.09-.27.2.2,0,0,1,.28.09l8.55,16.9a.2.2,0,0,1-.09.28A.15.15,0,0,1,90.49,208.19Z"/></g><g class="cls-7"><path class="cls-24" d="M67.84,188.69h0l-9-1.86a.22.22,0,0,1-.16-.25.21.21,0,0,1,.25-.16l9,1.87a.21.21,0,0,1,.16.24A.21.21,0,0,1,67.84,188.69Z"/></g><g class="cls-7"><path class="cls-25" d="M98.57,214.36h-7a.2.2,0,0,1-.2-.2.2.2,0,0,1,.2-.21h7a.21.21,0,1,1,0,.41Z"/></g><g class="cls-7"><path class="cls-26" d="M172.88,195.21h0a.21.21,0,0,1-.18-.23l1.92-17.08a.19.19,0,0,1,.23-.18.2.2,0,0,1,.18.22L173.08,195A.2.2,0,0,1,172.88,195.21Z"/></g><g class="cls-7"><path class="cls-27" d="M161.85,208.19h0a.21.21,0,0,1-.21-.21l.2-10.12a.2.2,0,0,1,.2-.21h0a.21.21,0,0,1,.2.21L162.06,208A.21.21,0,0,1,161.85,208.19Z"/></g><g class="cls-7"><path class="cls-28" d="M166.94,202.47a.2.2,0,0,1-.2-.17.21.21,0,0,1,.17-.24l9.37-1.55a.2.2,0,0,1,.23.17.2.2,0,0,1-.17.24L167,202.47Z"/></g><g class="cls-7"><path class="cls-29" d="M124.16,196.6a.16.16,0,0,1-.1,0,.2.2,0,0,1-.08-.28l7.52-13.68a.2.2,0,0,1,.28-.08.21.21,0,0,1,.09.28l-7.53,13.68A.22.22,0,0,1,124.16,196.6Z"/></g><path class="cls-30" d="M391.17,202.53c3-2.09,6-4.56,7.3-8s.39-7.95-2.9-9.55c-2.58-1.26-5.66-.41-8.35.61a71.6,71.6,0,0,0-19.84,11.55c7.79-4.59,15.64-9.22,22.32-15.31s12.18-13.84,14.05-22.69a17.64,17.64,0,0,0-.11-9,9.33,9.33,0,0,0-6.1-6.3c-4-1.07-8,1.26-11.25,3.77A70,70,0,0,0,365,175a46.88,46.88,0,0,0,9-21.25c.75-4.9.32-10.72-3.69-13.62-4.17-3-10.14-1.31-14.31,1.69-9.89,7.12-13.91,19.61-18.93,30.71a132.88,132.88,0,0,1-26,38.06c-1.61,1.64-3.38,4.07-2.11,6a4.88,4.88,0,0,0,3.25,1.67c11.4,2.4,22.84,1.66,34.07-1.24,4.38-1.13,9-1,13.43-1.72A77.73,77.73,0,0,0,375.2,211,76.25,76.25,0,0,0,391.17,202.53Z"/><path class="cls-31" d="M361.2,200.53c15.12-32.15,69.53-39.88,48.84,4.83,9.18-8.48,20.87-9.93,24-5.73s.77,11-4.38,17.79c21.42-6.77,21.85,6.36,15.05,12.14,10.51-4.89,14.58,3,22.16,6.08H271.09V197.22C351.89,177.71,367.55,177.71,361.2,200.53Z"/><path class="cls-32" d="M431.89,121a47.8,47.8,0,0,0-44.2,8.3c26.13-14.73,41.24-46.82,35.93-76.35-24.81,4.27-45.19,27-46.73,52.13a54.53,54.53,0,0,0-1.36-51.22c-25.87,29.33-41.2,75.3-23.9,129.47C377.49,154.72,422.46,161,431.89,121Z"/><path class="cls-33" d="M322.85,103.36A47.11,47.11,0,0,1,337,137.1a94.14,94.14,0,0,1,27.16-71c-1.28,19,11.65,36.71,2.62,57.47,6.1-11,17.44-15.81,27.92-18.79-.3,52.86-26.84,77.35-60.39,79.11-1.38-23.07-12.14-37.83-13.43-47.66A86.89,86.89,0,0,1,322.85,103.36Z"/><path class="cls-34" d="M226.39,176.42c-8.44-8-40.79-41.81-30.75-84.55,1.54-6.54,8.59-13.52,15.33-11.75,17.64,4.64,28.45,32.71,57,48,30.66,16.46,34.88,63.25,31.62,101.64H258.9C257.61,206.32,234.79,184.43,226.39,176.42Z"/><path class="cls-35" d="M213.06,183.32c-3.32-.61-7.57,0-8.53,3.1-1.11,3.62,3.12,6.79,6.67,8.55l21.19,10.54c3.11,1.55,3.09,1.78-.16.74a61.32,61.32,0,0,0-22.74-2.84c-3.62.24-8.07,1.76-8,5.4s4.49,5.59,8.08,6.52c10.29,2.67,22.75,2.52,18.27,3s-8,6.25-4.74,9.65a9.76,9.76,0,0,0,4.64,2.28c9.94,2.74,30,5.44,52.9,5.44C277.44,224.33,253.17,190.68,213.06,183.32Z"/><path class="cls-36" d="M382.68,187.84c3-.56,6.91,0,8.15,2.83,1.42,3.31-2.09,6.21-5.13,7.81l-18.18,9.64c-2.67,1.41-2.62,1.62.24.67a53.73,53.73,0,0,1,20.45-2.6c3.33.22,7.57,1.61,7.94,4.94s-3.47,5.11-6.64,6c-9.11,2.43-20.49,2.16-16.36,2.72,19.4,2.65,23.77,8.17,22.94,15.87H297.77C301,222.16,348.59,194.24,382.68,187.84Z"/><path class="cls-37" d="M309,197.3c-.89-7.69,3.66-35.4,7.53-42,30.12-50.92-19.76-73.09-13.35-128.23.88-7.53-6.13-16.32-13.46-16.1-6.45.2-9.81,7.89-9.41,14.5s3.12,13.14,2.81,19.71c-.42,9.11-6.44,16.46-11.73,23.53s-18.21,21-10.75,39c9.76,23.52,5.68,33.64.74,44.78-4.28,9.62,3.12,22.05,2.84,32.92-.15,5.93-5.54,12.5-3.71,18.25,4.45,14,11.26,28.94,26.6,31.51C307.33,238.61,310.7,211.8,309,197.3Z"/><path class="cls-38" d="M322.24,174.38c10.13-8.27,1.6-27.27,9.79-37.45,7.92-9.87,25.25-4.69,35.83-11.68,7.08-4.69,9.57-13.69,13.54-21.22s12.14-14.58,20.45-11.36c7.45,2.89,10.17,12.87,7.58,20.08s-8.86,12.21-14.91,16.79S382.1,138.93,379.16,146c-2.73,6.57-2.18,14.26-4.62,21-9.63,26.44-43.73,25.75-38.52,68.74H279.51C279.51,190.4,317.9,177.93,322.24,174.38Z"/><g class="cls-7"><path class="cls-39" d="M307,226.51l-.08,0a.22.22,0,0,1-.11-.27c13-29.64,34.81-55.28,55.88-80.08C375,131.67,386.6,118,396.47,103.69a.21.21,0,0,1,.29,0,.21.21,0,0,1,.05.29c-9.88,14.31-21.52,28-33.83,42.48-21.06,24.77-42.83,50.39-55.82,80A.21.21,0,0,1,307,226.51Z"/></g><g class="cls-7"><path class="cls-40" d="M344,169h0a.21.21,0,0,1-.2-.21l.13-27.91a.2.2,0,0,1,.2-.21h0a.21.21,0,0,1,.21.21l-.13,27.91A.21.21,0,0,1,344,169Z"/></g><g class="cls-7"><path class="cls-41" d="M339.2,175a.21.21,0,0,1-.19-.15.2.2,0,0,1,.13-.26l30.31-9.77a.2.2,0,0,1,.26.13.21.21,0,0,1-.14.26L339.27,175Z"/></g><g class="cls-7"><path class="cls-42" d="M326.51,192.2a.2.2,0,0,1-.05-.4L340,188.6a.21.21,0,1,1,.09.41l-13.55,3.19Z"/></g><g class="cls-7"><path class="cls-43" d="M355.59,155h0a.21.21,0,0,1-.18-.23l1.76-16.23c0-.12.1-.21.23-.18a.2.2,0,0,1,.18.22l-1.76,16.24A.21.21,0,0,1,355.59,155Z"/></g><g class="cls-7"><path class="cls-44" d="M374.15,144h-9.24a.21.21,0,0,1-.21-.21.22.22,0,0,1,.21-.21h9.24a.21.21,0,0,1,.21.21A.21.21,0,0,1,374.15,144Z"/></g><g class="cls-7"><path class="cls-45" d="M384.92,119.82h0a.21.21,0,0,1-.19-.22l1.05-15.81a.18.18,0,0,1,.22-.19.21.21,0,0,1,.19.22l-1.05,15.81A.19.19,0,0,1,384.92,119.82Z"/></g><g class="cls-7"><path class="cls-46" d="M379.41,126.69a.2.2,0,0,1-.2-.17.21.21,0,0,1,.17-.24l12.23-1.86a.19.19,0,0,1,.23.18.2.2,0,0,1-.17.23l-12.23,1.86Z"/></g><path class="cls-47" d="M285.06,157.48c15.42-25.45,6.47-53.7,8.33-66.54,1.52-10.49,13.18-15.43,19.12-24,4.62-6.65,5.56-15.24,6.55-23.44s2.33-16.8,7.51-23,15.5-8.8,22.08-3.26c5.54,4.67,6.21,13,4,19.6s-6.55,12-9.71,18.07S337.9,68.51,341,75c3.5,7.48,12.64,11.76,15,19.61,2.24,7.3-2.28,14.43-7,20s-6.07,11.54-5.89,19c.29,11.25,9.14,21.27,6.3,32S334.54,180.54,331,192.88c-2.44,8.44-2.44,23.74,17.08,42.76l-68.55,0C279.51,191.77,279.38,166.86,285.06,157.48Z"/><g class="cls-7"><path class="cls-48" d="M304.69,232.19h0a.2.2,0,0,1-.18-.22c6.89-76,17.49-141.29,33.38-205.41a.2.2,0,0,1,.25-.15.21.21,0,0,1,.15.25C322.39,90.75,311.79,156,304.9,232A.22.22,0,0,1,304.69,232.19Z"/></g><g class="cls-7"><path class="cls-49" d="M319.29,117.29a.21.21,0,0,1-.16-.08.21.21,0,0,1,0-.29l27-22.21a.21.21,0,0,1,.29,0,.2.2,0,0,1,0,.29l-27,22.21A.21.21,0,0,1,319.29,117.29Z"/></g><g class="cls-7"><path class="cls-50" d="M321.6,104a.22.22,0,0,1-.18-.12L309.89,81.51a.21.21,0,0,1,.09-.28.21.21,0,0,1,.28.09l11.53,22.39a.21.21,0,0,1-.09.28A.17.17,0,0,1,321.6,104Z"/></g><g class="cls-7"><path class="cls-51" d="M311.4,170.56a.2.2,0,0,1-.17-.09.2.2,0,0,1,0-.29l24.29-17.51a.22.22,0,0,1,.29.05.2.2,0,0,1-.05.29l-24.29,17.51A.19.19,0,0,1,311.4,170.56Z"/></g><g class="cls-7"><path class="cls-52" d="M309.8,183.41a.21.21,0,0,1-.18-.11L295,158.48a.21.21,0,1,1,.36-.21L310,183.09a.21.21,0,0,1-.07.29A.23.23,0,0,1,309.8,183.41Z"/></g><g class="cls-7"><path class="cls-53" d="M333.27,46.9a.19.19,0,0,1-.15-.07.2.2,0,0,1,0-.29l11.77-10.42a.21.21,0,0,1,.28.32L333.41,46.85A.24.24,0,0,1,333.27,46.9Z"/></g><g class="cls-7"><path class="cls-54" d="M335,39.34a.2.2,0,0,1-.19-.12L329.92,28.3A.2.2,0,0,1,330,28a.22.22,0,0,1,.28.1l4.92,10.92a.19.19,0,0,1-.1.27A.13.13,0,0,1,335,39.34Z"/></g><g class="cls-7"><path class="cls-55" d="M324.14,90.35a.18.18,0,0,1-.15-.07.2.2,0,0,1,0-.29L335.19,79.8a.21.21,0,0,1,.28.31L324.28,90.3A.24.24,0,0,1,324.14,90.35Z"/></g><g class="cls-7"><path class="cls-56" d="M328.54,65.89a.21.21,0,0,1-.19-.12l-5.23-11.49a.21.21,0,0,1,.1-.28.22.22,0,0,1,.28.11l5.23,11.49a.21.21,0,0,1-.11.27Z"/></g><g class="cls-7"><path class="cls-57" d="M314.4,148.57a.21.21,0,0,1-.17-.08.21.21,0,0,1,0-.29L327,138.41a.2.2,0,1,1,.25.32l-12.73,9.79A.18.18,0,0,1,314.4,148.57Z"/></g><g class="cls-7"><path class="cls-58" d="M307.06,207.85a.18.18,0,0,1-.16-.08.21.21,0,0,1,0-.29l12.67-9.77a.21.21,0,0,1,.26.33l-12.68,9.77A.2.2,0,0,1,307.06,207.85Z"/></g><rect class="cls-59" x="210.65" y="188.19" width="59.32" height="47.48"/><rect class="cls-60" x="197.34" y="188.19" width="59.32" height="47.48"/><rect class="cls-59" x="299.85" y="201.37" width="59.32" height="34.31"/><rect class="cls-60" x="286.54" y="201.37" width="59.32" height="34.31"/><rect class="cls-59" x="121.06" y="194.42" width="59.32" height="41.26"/><rect class="cls-60" x="107.75" y="194.42" width="59.32" height="41.26"/><g id="man"><g id="hand"><path class="cls-61" d="M203.8,84.13c0,1.76-1,3.22-2.37,3.25S199,86,198.91,84.24s1-3.23,2.37-3.26S203.76,82.36,203.8,84.13Z"/><path class="cls-61" d="M202.61,85.71l-1.93,1.05,1.12,5.42,2.86-1C203.59,88.27,202.61,85.71,202.61,85.71Z"/></g><path class="cls-62" d="M200.4,88.43l3.48-.9s1.55,6.4,3.44,11.65c4.89-1.9,10.09-4.82,11.37-6,3.35-2.93,8.67,1.72,6.57,3.87-2.61,2.7-18.06,10.41-21.46,8.83C202.05,105.12,200.56,90.38,200.4,88.43Z"/><g id="shoes"><path class="cls-63" d="M244.55,186.12a3.27,3.27,0,0,1,.64,1.5,1.2,1.2,0,0,1-.78,1.19,9.52,9.52,0,0,1-6.12-1.19,6.94,6.94,0,0,1-2.82-4.56l1-.1c1.07,1.17,2.15,2.33,3.22,3.49C241.35,186.5,242.89,186.07,244.55,186.12Z"/><path class="cls-64" d="M240.63,182.88a11.84,11.84,0,0,1,3.2,2.39c.57.57,1.46,1.64,1.06,2.41s-2.93.44-4.64-.1a7.27,7.27,0,0,1-3.46-2.43,6.8,6.8,0,0,1-1.24-2.25Z"/></g><g id="shoes-2" data-name="shoes"><g id="shoes_r"><path class="cls-63" d="M211.65,186.24l10,.22s0,.55-.26.62c-3.49,1-8,1.7-9.56.42C211.39,187.11,211.65,186.24,211.65,186.24Z"/></g><g id="shoes_r-2" data-name="shoes_r"><path class="cls-64" d="M221.41,183.3a5.62,5.62,0,0,1,.27,3.16.22.22,0,0,1-.15.16c-1.12.28-9.28,2.22-9.86,0-.37-1.44,2.14-1.2,4.86-3.37a.24.24,0,0,1,.13-.05h4.56A.2.2,0,0,1,221.41,183.3Z"/></g></g><path id="leg" class="cls-65" d="M216.07,183.41l5.4,0s.82-46.81,3.6-60.71l-14.66-.56C210.41,136.66,216.07,183.41,216.07,183.41Z"/><path id="leg-2" data-name="leg" class="cls-66" d="M228.4,124.88c5.85,19.88,13.3,58.52,13.3,58.52h-6.65s-11.16-34.32-15.58-49.47c0,0-8-5-9.06-11.83Z"/><g id="hand-2" data-name="hand"><path class="cls-61" d="M242.41,63.15c-.26,1.75.61,3.33,1.94,3.53s2.63-1.05,2.9-2.8-.61-3.33-1.94-3.53S242.68,61.4,242.41,63.15Z"/><path class="cls-61" d="M243.39,64.87l1.79,1.29-1.81,5.24-2.7-1.32C242.1,67.29,243.39,64.87,243.39,64.87Z"/></g><path id="shirt" class="cls-62" d="M210.25,122.77s3.24-22.37,8.27-27.92c1.38-1.52,5.31-3.38,7.34-3.69,1.54-.25,5.61.21,6,1.73,1.67,6.66-2.85,34-2.85,34Z"/><path id="neck" class="cls-67" d="M222.43,92.63,222.16,89c-.12-1.71.84-3.16,2.14-3.25h0c1.31-.08,2.48,1.23,2.6,2.94l.27,3.61c.12,1.71-1,2.16-2.22,2.24S222.58,94.61,222.43,92.63Z"/><path id="face" class="cls-68" d="M227.68,83.5c.62,3.75.28,7.24-3.66,8s-5.42-2.58-6-6.33,1.23-5.8,3.91-6.25S227.07,79.76,227.68,83.5Z"/><path id="hair" class="cls-69" d="M222.48,80.6c-.16.15-2.66,2.37-5.48,1.45a4.14,4.14,0,0,1-2.93-3.62c0-1.76,1.59-3.26,6.08-3.64,2.13-.17,4.08.71,4.37,2.24.41-.27,6.3-.85,5.69,6.33a9.28,9.28,0,0,1-2.61,5.15c-.18-.45-1.8-3.07-2.06-4.43A5.82,5.82,0,0,0,222.48,80.6Z"/><g id="eye"><path id="ear_l" class="cls-61" d="M226.42,84c0-.62-.43-1.08-.76-1s-.86.15-.45,1a13.41,13.41,0,0,1,.59,1.56A3.2,3.2,0,0,0,226.42,84Z"/><path id="ear_l-2" data-name="ear_l" class="cls-70" d="M226.06,84.21c0-.4-.27-.69-.48-.66s-.56.09-.29.61c.18.36.37.88.37.88A1.43,1.43,0,0,0,226.06,84.21Z"/></g><path id="arm" class="cls-62" d="M232.58,98.79c5-4.22,11.26-26,12.22-30.49L241.46,67s-9.29,22-12.27,25C226,95.09,230.28,100.72,232.58,98.79Z"/></g><g id="woman"><g id="shoes_l"><path id="foot_l" class="cls-61" d="M315.51,199.2c-1.2,1.67-2.31,2.67-3,1.94a1.86,1.86,0,0,1-.22-1.84,18.14,18.14,0,0,1,1.71-2.65c1.11-1.72,2.23-3.47,2.91-2.75S316.71,197.53,315.51,199.2Z"/><path id="shoes_r-3" data-name="shoes_r" class="cls-71" d="M312.53,198.8s-3,2.11-2.42,2.71c.38.41,3.27.07,3.38,0,.77-.53,1.62-1.63,2.7-2.45,1.44-1.09.82-3,.86-3.39C313.62,200.06,312.53,198.87,312.53,198.8Z"/></g><polygon id="shoes_r-4" data-name="shoes_r" class="cls-71" points="316.81 201.42 316.34 201.39 316.1 197.62 317.05 195.66 316.81 201.42"/><path id="foot_l-2" data-name="foot_l" class="cls-61" d="M331.48,197.76c.24,2.06-.27,3.76-1.48,3.7s-1.55-1.84-1.56-3.9a15.83,15.83,0,0,1,.23-2.25c.11-.89.15-1.31,1.32-1.29,1,0,1.17.36,1.25,1S331.36,196.75,331.48,197.76Z"/><path class="cls-71" d="M331.5,198c0-.17,0-.28,0-.28-.05,2.6-.59,3.07-1.51,3.07s-1.48-.47-1.52-2.88c0,0-.05.7-.05.87,0,1.9.2,4.12,1.24,4.14h.52C331.38,202.91,331.62,199.1,331.5,198Z"/><path class="cls-61" d="M336.1,138.78a38.85,38.85,0,0,1,.76,7.28c0,5.61-2.7,22.2-2.7,22.2s-.54,9.82-.85,13.07c-.32,3.45-2,14.9-2,14.9l-2.76-.27s-.46-13.53-.17-17.9c.13-2.05.28-8.61.28-8.61s-1.45-21.36-1.45-30.67Z"/><path class="cls-61" d="M318.14,167.82s-1.63,7-2,9.82c-.7,5-1,17.39-1,17.39l2,.2s3.25-10.74,4.19-15.35c.6-3,2.26-11.62,2.26-11.62s3.63-15.81,6.37-29.48l-10.38.32c-1.82,7.85-.47,11.19-.57,15.34C318.8,162.07,318.14,167.82,318.14,167.82Z"/><path class="cls-72" d="M323.5,93.45c1.35-2.49,6.31-1.8,8.58-.54.87.49,4.3,2.71,6.86,11.86a11,11,0,0,0,3.75,6.24c2.27,2,3.6,1.5,5.61,3.12,3.11,2.5,4.25,7.19,3.75,11-.86,6.58-6.44,9.73-7.28,10.19-4.94,2.69-12.16,2.73-15.19-.83-3.24-3.81.55-9.15-3.33-12.89-2-2-4.21-1.62-6.24-4.37-.67-.92-2.58-3.26-1.87-5.2s2.85-1.32,4.37-3.75c.77-1.22,1.37-2.63.67-4.08-.51-1.08-1.85-1.82-2.3-3.43-.78-2.73-.26-7.32,2.62-7.34Z"/><path id="neck-2" data-name="neck" class="cls-67" d="M324.79,109.1l0-3.63c0-1.72,1.11-3.1,2.43-3.07h0c1.32,0,2.37,1.44,2.35,3.16l0,3.63c0,1.72-1.2,2.07-2.41,2S324.77,111.09,324.79,109.1Z"/><g id="hand-3" data-name="hand"><path class="cls-61" d="M346,83.34c-.24,1.61.56,3.07,1.78,3.25s2.43-1,2.67-2.57-.56-3.07-1.79-3.25S346.23,81.74,346,83.34Z"/><path class="cls-61" d="M346.89,84.93l1.64,1.18-1.66,4.82-2.49-1.21C345.7,87.15,346.89,84.93,346.89,84.93Z"/></g><path id="arm-2" data-name="arm" class="cls-62" d="M336.45,116.79c4.62-3.87,11.26-25,12.14-29.12l-3.07-1.23s-8.55,20.28-11.3,23C331.31,112.32,334.34,118.57,336.45,116.79Z"/><path class="cls-62" d="M334.89,134.58c-.41-4.93,2.59-13.87,1.45-18.32-.57-2.25-5.54-7.47-5.54-7.47,0-.64.06-.77-.33-1-.82-.52-.83.55-1.45.61s-.93-.57-1.82-.55c-.71,0-.7.8-1.62.77s-.95-1.14-1.65-.71c-.3.18-.37.46-.33,1.15,0,0-.74,1.19-1.57,2.67a20.88,20.88,0,0,0-2.22,4.77c-1,5.51,1.5,9.79.76,17.65a20.09,20.09,0,0,1-.54,2.27h15.36A8.81,8.81,0,0,1,334.89,134.58Z"/><g id="hand-4" data-name="hand"><path class="cls-61" d="M310.74,82.38c.24,1.61-.56,3.06-1.79,3.25s-2.42-1-2.66-2.58.55-3.06,1.78-3.25S310.49,80.77,310.74,82.38Z"/><path class="cls-61" d="M309.84,84l-1.65,1.19L309.85,90l2.5-1.21C311,86.19,309.84,84,309.84,84Z"/></g><path id="arm-3" data-name="arm" class="cls-62" d="M320.17,115.84c-4.61-3.88-10.75-24.59-11.63-28.72l3.08-1.24s9.24,20.44,12,23.16C326.52,111.92,322.29,117.62,320.17,115.84Z"/><g id="coin"><path class="cls-69" d="M326.81,120h-.06a.61.61,0,0,1-.39-.21c-.14-.19-3.37-3.75-4.19-10.62l.9-1a24.1,24.1,0,0,0,3.81,10.36,15.51,15.51,0,0,0,3.9-9.83l1.13,0a16,16,0,0,1-4.73,11.09A.59.59,0,0,1,326.81,120Z"/><g id="coin-2" data-name="coin"><g id="coin-3" data-name="coin"><path class="cls-73" d="M331.72,125.29A4.59,4.59,0,1,1,328,120,4.59,4.59,0,0,1,331.72,125.29Z"/></g><g id="coin-4" data-name="coin"><path class="cls-74" d="M326.33,129.45a5,5,0,1,1,5.83-4.09A5,5,0,0,1,326.33,129.45Zm1.59-9a4.15,4.15,0,1,0,3.36,4.8A4.15,4.15,0,0,0,327.92,120.41Z"/></g></g><path id="scintillation" class="cls-75" d="M329.84,121.92a.92.92,0,0,0-1.33.54,1,1,0,0,0-.52-1.37,1,1,0,0,0,1.37-.54A1,1,0,0,0,329.84,121.92Z"/><path id="scintillation-2" data-name="scintillation" class="cls-75" d="M330.53,127.05a1.28,1.28,0,0,0-1.85.74,1.42,1.42,0,0,0-.73-1.9,1.37,1.37,0,0,0,1.92-.75A1.32,1.32,0,0,0,330.53,127.05Z"/><path id="scintillation-3" data-name="scintillation" class="cls-75" d="M325.37,125a.9.9,0,0,0-1.32.53,1,1,0,0,0-.52-1.36,1,1,0,0,0,1.36-.53A1,1,0,0,0,325.37,125Z"/></g><path class="cls-66" d="M335.39,136.4H320c-.41,1.26-2.52,13.79-2,17a32.56,32.56,0,0,1,0,10.79,31.52,31.52,0,0,0,13.6,0s1.6-5.91,2.89-14.17c0,0-.74,10.72-1.38,14.17,0,.22,1,0,1,0v0s3.39-12.7,3.39-17.58C337.55,144,335.89,137.62,335.39,136.4Z"/><path class="cls-76" d="M323.28,104.44a4.3,4.3,0,0,1-.77,3.87c-1.52,2.42-3.7,1.93-4.37,3.74-.5,1.36.29,2.92,1,4a4.4,4.4,0,0,1,.77-3.62c.63-.73,1.17-.61,2.29-1.78a9.09,9.09,0,0,0,1.95-3.27c.2-.54.35-1,.44-1.31A3.79,3.79,0,0,1,323.28,104.44Z"/><path id="face-2" data-name="face" class="cls-67" d="M331.09,99.49c0,3.81-.87,7.19-4.37,7.19s-4.25-3.53-4.2-7.34,2-5.5,4.31-5.46S331.14,95.68,331.09,99.49Z"/><path id="ear_l-3" data-name="ear_l" class="cls-67" d="M330.1,101c.28-.54.1-1.13-.21-1.23s-.81-.26-.81.64a12.14,12.14,0,0,1-.18,1.61A3.06,3.06,0,0,0,330.1,101Z"/><path class="cls-76" d="M323.41,104.86s0-.1-.08-.22c0,.06.05.12.07.19A0,0,0,0,0,323.41,104.86Z"/><path class="cls-76" d="M352.11,122.16a13.53,13.53,0,0,0-1.4-5h0a8.32,8.32,0,0,0-2.58-3.14,13.34,13.34,0,0,0-3.38-1.68h0a8.26,8.26,0,0,1-2.23-1.43h0a12.94,12.94,0,0,1-1.68-1.72,8.28,8.28,0,0,1-.78-1.2v0a.08.08,0,0,1,0,0,15.33,15.33,0,0,1-1.26-3.26,29.16,29.16,0,0,0-3.93-9,9.37,9.37,0,0,0-2.93-2.87,9,9,0,0,0-2-.78c-2-.52-5.48-.72-6.61,1.33l-.23,0c-1.32,0-2.28,1.52-2.55,3.2a9.52,9.52,0,0,0,.16,4.15l.09.28c.32,1,1.83,2.37,2.36,3.57a10.53,10.53,0,0,1-.58-2.08c0-.47-.15-.93-.18-1.41h0a6.42,6.42,0,0,1,0-1.37,3,3,0,0,1,.24-1.08,14.66,14.66,0,0,0,.71-2.46.35.35,0,0,1,.53-.21c.83.58.63,1.37,2,2.34a10.44,10.44,0,0,0,3.23,1.46c.28.23.39-.24-.13,1.69a9.75,9.75,0,0,0,3.83,10.32,16.53,16.53,0,0,0,3.58,1.9,5.45,5.45,0,0,0,2.49.4,13.78,13.78,0,0,1,4.64,0c1.78.33,6,3,6.84,3.72,1.49,1.41,1.75,4.38,1.8,4.48Z"/></g><g id="trophy"><g id="hand-5" data-name="hand"><path class="cls-61" d="M176.35,86.43c.73.62.52,2.07-.47,3.24s-2.39,1.62-3.12,1-.53-2.07.47-3.24S175.61,85.81,176.35,86.43Z"/><polygon class="cls-61" points="170.7 92.44 172.48 89.66 174.55 90.71 171.81 93.5 170.7 92.44"/></g><g id="arm-4" data-name="arm"><path class="cls-77" d="M146.19,109.55s2.06-6.87,3.1-7.07c4.87-.93,7.92-.21,11.6-1.83,3-1.32,10.22-10.61,10.22-10.61l2.48,2.34s-6.91,9.93-9.84,12.12a49.88,49.88,0,0,1-12.57,6.34Z"/></g><g id="shoes-3" data-name="shoes"><g id="shoes_r-5" data-name="shoes_r"><path class="cls-78" d="M165.89,192.59l-10.34.22s0,.57.27.65c3.59,1,8.26,1.75,9.85.43C166.15,193.49,165.89,192.59,165.89,192.59Z"/></g><g id="shoes_r-6" data-name="shoes_r"><path class="cls-79" d="M155.83,189.56a5.73,5.73,0,0,0-.28,3.25.23.23,0,0,0,.16.17c1.15.29,9.56,2.29,10.15,0,.38-1.49-2.2-1.23-5-3.48a.18.18,0,0,0-.13,0H156A.21.21,0,0,0,155.83,189.56Z"/></g></g><g id="shoes-4" data-name="shoes"><g id="shoes_r-7" data-name="shoes_r"><path class="cls-78" d="M133.26,193.21l-10-2.68s-.15.55.08.69c3.16,2,7.43,4,9.33,3.18C133.27,194.15,133.26,193.21,133.26,193.21Z"/></g><g id="shoes_r-8" data-name="shoes_r"><path class="cls-79" d="M124.45,187.48a5.79,5.79,0,0,0-1.17,3.05.23.23,0,0,0,.1.21c1,.59,8.54,4.87,9.76,2.81.78-1.32-1.77-1.8-3.84-4.74a.21.21,0,0,0-.11-.08l-4.51-1.32A.22.22,0,0,0,124.45,187.48Z"/></g></g><path class="cls-80" d="M149.11,131.8s-5.36,20.92-7.3,29.35c-1.51,6.58-12,28.28-12,28.28l-5.66-1.53,9.75-27.55A283.51,283.51,0,0,0,136,132Z"/><path class="cls-81" d="M154.06,131.26s8.35,16.5,9.09,27.48c.51,7.69-1.91,31-1.91,31l-5.41-.22s.17-22-.39-29c-.28-3.43-8.76-19.13-8.76-19.13-11.07,0-11.07-9.93-11.07-9.93Z"/><path class="cls-77" d="M135.61,133.52c8.21,2.66,19.22.8,19.67-.55.6-1.87.93-10.47,0-18.44-.54-4.62-1.92-9.08-4.92-11.59a1.84,1.84,0,0,0-.22-.17,3.72,3.72,0,0,0-.58-.35l-.26-.12a11.31,11.31,0,0,0-4.2-.78h-.61a14,14,0,0,0-3.65.51l-.11,0h0l-.28.1c-2.2,1-4.05,4.42-4.41,5.57a32.1,32.1,0,0,0-.81,7.26C135,122.12,134.41,133.12,135.61,133.52Z"/><path class="cls-82" d="M150.34,100l0,1.67c-.49.09-1,.17-1.46.24l-.41,0c-.34,0-.69,0-1,.07a43.09,43.09,0,0,0-9.44,2l0-1.31c.1-2.24,6.42-2.48,10.42-2.67h.34C149.24,100,149.8,100,150.34,100Z"/><path id="neck-3" data-name="neck" class="cls-67" d="M147.49,100.77l.23-3.39a2.87,2.87,0,0,0-2.58-3.1h0a2.82,2.82,0,0,0-3,2.7l-.23,3.39c-.19,2.51,0,3.19,2.82,3.29S147.36,102.62,147.49,100.77Z"/><path id="face-3" data-name="face" class="cls-67" d="M137.06,95.62c1.21,3.77,4.56,6.42,8.58,5.2s3.82-5,2.61-8.75-3.92-4.79-6.64-3.92S135.84,91.86,137.06,95.62Z"/><path class="cls-83" d="M146.49,83.7a3.21,3.21,0,0,1,.84,5.34c-1,1.06-5.2.19-5.79,2a6.85,6.85,0,0,1-1.78,3c-.2.24-.66-.25-1.07-.41-.6-.24-1.13-.15-.87.8.35,1.23,1.69,1.23,2.17,2,1.2,1.91,2.14,4.15,1.83,4.31-1,.51-4.51-1.68-6.47-4.74-1.83-2.85-1.79-6.7.86-8.79,4.79-3.76,7.57-1.93,7.94-1.92C146.84,85.14,145.4,83.28,146.49,83.7Z"/><g id="hand-6" data-name="hand"><path class="cls-61" d="M138.63,133.81c0,1-1.3,1.69-2.84,1.63s-2.75-.88-2.71-1.84,1.31-1.69,2.84-1.63S138.67,132.85,138.63,133.81Z"/><polygon class="cls-61" points="132.29 130.46 135.03 132.18 133.55 134.54 131.5 131.97 132.29 130.46"/></g><path class="cls-77" d="M140.43,102.17c1,0,.27,9.14-.75,9.45-5.58,1.67-7.27,4.76-7.38,8.57a40.71,40.71,0,0,0,1.85,11.43s-.57,1.34-1.31,2.92a26,26,0,0,1-5.45-15C127.25,111.67,134.7,102.24,140.43,102.17Z"/><path class="cls-77" d="M140.92,105a29.73,29.73,0,0,1-3.78-1.88,8,8,0,0,1,2.37-.84c.39.2.83.41,1.3.62A10.64,10.64,0,0,1,140.92,105Z"/><path class="cls-82" d="M172.91,87.15a35.29,35.29,0,0,1-9.8,9.42,35.73,35.73,0,0,1-12.79,5.07c-.49.09-1,.17-1.46.24s-1,.13-1.47.18V102c0-.36.06-.76.09-1.2l0-.62,1.17-.15a33.62,33.62,0,0,0,22.67-13.94Z"/><path class="cls-82" d="M176.31,87.42c-.51,2.11-3.63,12.86-14.73,17.72a24.3,24.3,0,0,1-9.85,2.07A28.61,28.61,0,0,1,140.92,105a8.77,8.77,0,0,1-3-2.3,6.8,6.8,0,0,1,2.13-.8,1.52,1.52,0,0,0,1.06,1.3,24,24,0,0,0,19.69.23C171.11,98.9,174,88.93,174.47,87Z"/><g id="coin-5" data-name="coin"><g id="coin-6" data-name="coin"><path class="cls-73" d="M182.58,72.63a10.58,10.58,0,1,1-14.75-2.45A10.58,10.58,0,0,1,182.58,72.63Z"/></g><g id="coin-7" data-name="coin"><path class="cls-74" d="M180.71,88.22A11.6,11.6,0,1,1,183.41,72,11.6,11.6,0,0,1,180.71,88.22ZM168.42,71a9.55,9.55,0,1,0,13.32,2.22A9.56,9.56,0,0,0,168.42,71Z"/></g></g><path id="scintillation-4" data-name="scintillation" class="cls-75" d="M174,70.3a2.11,2.11,0,0,0-1.28,3A2.32,2.32,0,0,0,169.65,72,2.27,2.27,0,0,0,171,68.86,2.21,2.21,0,0,0,174,70.3Z"/><path id="scintillation-5" data-name="scintillation" class="cls-75" d="M183.56,77.44c-2.26,1-2.44,2.58-1.78,4.25a3.25,3.25,0,0,0-4.3-1.88,3.16,3.16,0,0,0,1.85-4.37A3.08,3.08,0,0,0,183.56,77.44Z"/><path id="scintillation-6" data-name="scintillation" class="cls-75" d="M171.77,82.54a2.09,2.09,0,0,0-1.27,3,2.3,2.3,0,0,0-3.05-1.33,2.24,2.24,0,0,0,1.31-3.11A2.19,2.19,0,0,0,171.77,82.54Z"/></g><g id="trophy-2" data-name="trophy"><path class="cls-84" d="M245.55,80.6l16.69-7.73A3.59,3.59,0,0,0,264,68.12h0a3.58,3.58,0,0,0-4.75-1.74l-16.69,7.73a3.59,3.59,0,0,0-1.74,4.75h0A3.58,3.58,0,0,0,245.55,80.6Z"/><path class="cls-85" d="M240.86,79l-.12-.26a3.45,3.45,0,0,1,1.68-4.56l1.06-.49,1.74-.77c-1.62,1.53-.5,3.53-.19,4.14a3.5,3.5,0,0,0,4.57,1.68l-4.17,1.93A3.45,3.45,0,0,1,240.86,79Z"/><path class="cls-86" d="M260.92,69.69c-.45-1-2.18-2.85-4.05-2.18l1.47-.72c.4-.2.78-.36,1-.47A3.48,3.48,0,0,1,263.92,68l.12.25a3.46,3.46,0,0,1-1.67,4.57l-3.12,1.45A3.41,3.41,0,0,0,260.92,69.69Z"/><path class="cls-87" d="M258,71c-.6-1.39-2.1-3.08-3.82-2.28l2.67-1.24c1.1-.59,3.22.39,4.05,2.18a3.45,3.45,0,0,1-1.67,4.57l-2.91,1.34A3.49,3.49,0,0,0,258,71Z"/><path class="cls-84" d="M243.54,73.65c2-.83,13-5.94,15-7a12.1,12.1,0,0,1-7.15-4l-.12-.14-.22-.27A21,21,0,0,1,248,57c0-.12-.09-.25-.14-.37s-.09-.25-.13-.38l-.05-.13c-.05-.17-.11-.34-.16-.5l-.14-.49c0-.13-.07-.25-.1-.37h0c-.93.44-4.64,2.16-5.58,2.58h0a21.3,21.3,0,0,1,3.38,7.77,10,10,0,0,1,.18,2.86A12.55,12.55,0,0,1,243.54,73.65Z"/><path class="cls-86" d="M250,62.83c2.3,3,6.92,4.68,6.92,4.68.94-.44,1.65-.81,1.65-.81a12.1,12.1,0,0,1-7.15-4l-.12-.14-.22-.27A21,21,0,0,1,248,57c0-.12-.09-.25-.14-.37s-.09-.25-.13-.38l-.05-.13c-.05-.17-.11-.34-.16-.5l-.14-.49c0-.13-.07-.25-.1-.37l-1.09.51A21.22,21.22,0,0,0,250,62.83Z"/><path class="cls-85" d="M243.55,73.65l.89-.39.79-.35s1.68-4.63.91-8.3a21.3,21.3,0,0,0-3.38-7.77l-1,.48a21.14,21.14,0,0,1,3.38,7.77,10,10,0,0,1,.18,2.86A12.47,12.47,0,0,1,243.55,73.65Z"/><path class="cls-87" d="M254.52,68.63a18.36,18.36,0,0,1-6-5.13,21.19,21.19,0,0,1-3.74-7.6l.4-.18,1-.48A21,21,0,0,0,250,62.83c2.3,3,6.92,4.68,6.92,4.68"/><path class="cls-88" d="M233.56,56.17c.58-.27,1.17-.57,1.76-.88l-1.64-3.07c-5.63,3-10.93,3.7-15.75,2-5.33-1.83-10.23-6.73-13.59-13.56l11.14-5.16L214,32.38,199.73,39l.7,1.56a38.35,38.35,0,0,0,6.37,10.07,24,24,0,0,0,10,6.93C222.05,59.36,227.68,58.9,233.56,56.17Z"/><path class="cls-84" d="M251.35,47.92c-.59.28-1.19.53-1.82.78l-1.28-3.24c5.95-2.35,9.9-5.94,11.74-10.69,2.05-5.26,1.47-12.16-1.56-19.14l-11.14,5.16-1.47-3.15L260.11,11l.74,1.53a38.69,38.69,0,0,1,3.57,11.38A24,24,0,0,1,263.24,36C261.23,41.2,257.23,45.2,251.35,47.92Z"/><path class="cls-84" d="M209,28.67l37.55-17.4c.38-.16,3.6,7.18,3.9,7.92a59.57,59.57,0,0,1,4.29,15.66c1,9-1.19,19.82-10.64,23.31-8.16,3-16.61-1.94-22.16-7.73A54,54,0,0,1,213.21,38C212.79,37.22,208.41,28.93,209,28.67Z"/><path class="cls-87" d="M240.78,13.92l5.73-2.65a73,73,0,0,1,6.24,14.27A46.75,46.75,0,0,1,255,39a25.57,25.57,0,0,1-2.09,10.82,16.63,16.63,0,0,1-3.37,4.82,56.87,56.87,0,0,0,.67-12A57.79,57.79,0,0,0,240.78,13.92Z"/><path class="cls-86" d="M243.77,58.27h0l.29-.1.06,0,.05,0,.31-.13.06,0,.27-.11.06,0,.33-.15.26-.12.18-.09.18-.09.18-.1.23-.12.12-.06.52-.32.19-.12.38-.24.18-.13.11-.08.16-.12.22-.16.14-.12.14-.1c9.24-7.45,8.92-25.26-1.89-44.44l-2.83,1.31c10.31,18.3,11.08,35.36,3.1,43.35A15,15,0,0,1,243.77,58.27Z"/><path class="cls-85" d="M209,28.67c7.5,20.25,20.53,31.95,32,30.28l.6-.1.21,0,.21,0,.26-.06.55-.14.27-.08.2-.06.49-.16h0l.29-.1.06,0,.05,0,.1,0h0l.12,0,.07,0,.06,0,.27-.11.06,0,.33-.15.26-.12.18-.09.18-.09.18-.1.23-.12.12-.06.52-.32.19-.12.38-.24.18-.13.11-.08.16-.12.22-.16.14-.12.14-.1a15,15,0,0,1-1.62.22,16.41,16.41,0,0,1-3.13-.06c-10.38-1.23-21.32-12.45-27.94-30.32"/></g></svg>