<svg xmlns="http://www.w3.org/2000/svg" width="702.2" height="432.4" overflow="scroll"><style>.st9{opacity:.3}.st10{fill:#fff}.st23{fill:#f1f2f2}.st24{fill:#cbd9d9}.st30{fill:#f4f4f4}.st31{fill:#8dafe3}.st32{fill:#d5e5fd}.st33{fill:#f9b09f}.st56{fill:#663bd3}.st60{fill:#935137}.st69{fill:#66220f}.st76{fill:#dee5e8}.st77{fill:#ef832e}.st86{fill:#44b8fa}.st87{fill:#2a3072}.st91{fill:#3c499d}.st97{fill:#e7f0fe}.st106,.st107,.st108{fill-rule:evenodd;clip-rule:evenodd;fill:#fff}.st107,.st108{fill:#e27e67}.st108{fill:#1d2a36}.st109,.st110{opacity:.1}.st110{fill:#fff}.st111{fill:#db8370}.st113,.st114,.st115{fill-rule:evenodd;clip-rule:evenodd;fill:#76c5fb}.st114,.st115{fill:#fca700}.st115{fill:#3882c8}.st116{fill:#ffcf74}.st125{fill-rule:evenodd;clip-rule:evenodd;fill:#2a3072}</style><linearGradient id="SVGID_1_" gradientUnits="userSpaceOnUse" x1="0" y1="64.381" x2="215.124" y2="64.381"><stop offset="0" stop-color="#b3e0fd"/><stop offset=".5" stop-color="#d7ecfd"/><stop offset="1" stop-color="#f0f8ff"/></linearGradient><path d="M0 81.7C13.6 77.4 14.6 69.9 21.8 64c4-3.2 8.8-6.6 13.7-5.3 6.1 1.7 8.9 10 15.2 10.8 7.4.9 12.9-9.4 20.2-7.9 2.3.5 4.2 2.1 6.4 2.9 5 1.9 10.7-.7 14.8-4.2 4.1-3.5 7.4-7.9 12-10.7 4.5-2.9 11.1-3.7 14.9 0 3.3 3.2 3.8 8.7 7.6 11.1 4.1 2.5 9.3 0 14.1-.8 6.2-1.1 12.4.9 18.3 2.9 7.3 2.4 25.1 14.9 55.9 18.9H0z" opacity=".5" fill="url(#SVGID_1_)"/><linearGradient id="SVGID_2_" gradientUnits="userSpaceOnUse" x1="579.843" y1="75.433" x2="699.315" y2="75.433"><stop offset="0" stop-color="#b3e0fd"/><stop offset=".5" stop-color="#d7ecfd"/><stop offset="1" stop-color="#f0f8ff"/></linearGradient><path d="M579.8 83.7c12.6 0 13.1-6.1 19.6-8.9 1.6-.7 3.3-1.4 5-1.1 2.3.4 3.9 2.5 6.1 3.2 3.9 1.3 7.8-1.8 10.7-4.7 2.9-2.9 6.8-6.1 10.7-4.7 3.9 1.4 5.6 6.7 9.7 7.3 3.7.5 7-3.4 10.7-3 .9.1 1.8.5 2.7.9 2.9 1.3 23.5 11 44.4 11H579.8z" opacity=".5" fill="url(#SVGID_2_)"/><linearGradient id="SVGID_3_" gradientUnits="userSpaceOnUse" x1="224.138" y1="9.244" x2="357.823" y2="9.244"><stop offset="0" stop-color="#b3e0fd"/><stop offset=".5" stop-color="#d7ecfd"/><stop offset="1" stop-color="#f0f8ff"/></linearGradient><path d="M224.1 18.5c14.1 0 14.6-6.8 22-10 1.8-.8 3.7-1.6 5.6-1.2 2.5.5 4.3 2.8 6.8 3.6 4.3 1.5 8.7-2 11.9-5.3 3.3-3.3 7.6-6.8 11.9-5.3 4.3 1.5 6.3 7.5 10.8 8.2 4.2.6 7.8-3.9 12-3.3 1.1.1 2.1.6 3 1 3.2 1.5 26.3 12.3 49.7 12.3H224.1z" opacity=".5" fill="url(#SVGID_3_)"/><linearGradient id="SVGID_4_" gradientUnits="userSpaceOnUse" x1="97.238" y1="212.224" x2="227.611" y2="212.224" gradientTransform="rotate(7.387 216.834 -69.893)"><stop offset=".003" stop-color="#a757a1"/><stop offset="1" stop-color="#3850a2"/></linearGradient><path d="M66.8 224.8c20-8.4 44.1-5.9 61.9 6.3-37.7-17.3-62.3-59.8-58.4-101.2 34.7 3 65.5 32 70.5 66.5-5.3-24-11-42.8-.5-65 46.7 23.6 53.4 90 41.9 142.9-30.1 14.4-98.9-2.8-115.4-49.5z" fill="url(#SVGID_4_)"/><linearGradient id="SVGID_5_" gradientUnits="userSpaceOnUse" x1="327.464" y1="452.567" x2="413.37" y2="366.66" gradientTransform="rotate(-31.843 111.443 628.117)"><stop offset="0" stop-color="#3850a2"/><stop offset=".997" stop-color="#a757a1"/></linearGradient><path d="M169.6 292.8c15.7 1.7 30.5 10 40.1 22.4-21.6-24.7-32-58.7-28-91.3 16.6 23.6 39.2 11.6 46.3 39.1 1-11.5 6-18 13.8-24.4 40.6 52.6 23.7 120.8-8.2 148.5-14-35.1-63.7-39.7-64-94.3z" fill="url(#SVGID_5_)"/><linearGradient id="SVGID_6_" gradientUnits="userSpaceOnUse" x1="135.396" y1="393.404" x2="64.648" y2="337.294"><stop offset="0" stop-color="#4f3292"/><stop offset=".997" stop-color="#00bbc5"/></linearGradient><path d="M76.4 400.1c-3.6-2.5-7.2-5.5-8.8-9.6-1.6-4.1-.5-9.6 3.5-11.5 3.1-1.5 6.8-.5 10.1.7 8.7 3.3 16.8 8 24 13.9-9.4-5.5-18.9-11.1-27-18.5-8.1-7.4-14.7-16.7-17-27.4-.8-3.6-1-7.4.1-10.9s3.8-6.7 7.4-7.6c4.8-1.3 9.7 1.5 13.6 4.6 11.2 8.6 20.1 20.1 25.7 33.1-5.7-7.5-9.5-16.4-10.9-25.7-.9-5.9-.4-13 4.5-16.5 5-3.6 12.2-1.6 17.3 2 11.9 8.6 35.4 34.4 42.9 47.1 26.8 45.2-17.5 47.2-31.1 43.7-5.3-1.4-10.8-1.2-16.2-2.1-6.4-1-12.7-2.8-18.7-5.1-7-2.6-13.4-6.1-19.4-10.2z" fill="url(#SVGID_6_)"/><linearGradient id="SVGID_7_" gradientUnits="userSpaceOnUse" x1="102.303" y1="427.957" x2="53.092" y2="386.664"><stop offset="0" stop-color="#3850a2"/><stop offset=".997" stop-color="#a757a1"/></linearGradient><path d="M121.8 389.7c-18.3-38.8-84-48.2-59 5.8-11.1-10.2-25.2-12-29-6.9-3.9 5.2-.9 13.3 5.3 21.5-25.9-8.2-26.4 7.7-18.2 14.7-12.7-5.9-11.7 3.7-20.8 7.3h157.7v-46.4c-14.9-18.8-43.7-23.6-36 4z" fill="url(#SVGID_7_)"/><linearGradient id="SVGID_8_" gradientUnits="userSpaceOnUse" x1="3061.103" y1="428.849" x2="3010.927" y2="386.746" gradientTransform="matrix(-1 0 0 1 3232.567 0)"><stop offset="0" stop-color="#3850a2"/><stop offset=".997" stop-color="#a757a1"/></linearGradient><path d="M150.1 389.7c18.3-38.8 84-48.2 59 5.8 11.1-10.2 25.2-12 29-6.9 3.9 5.2.9 13.3-5.3 21.5 25.9-8.2 26.4 7.7 18.2 14.7 12.7-5.9 17.6 3.7 26.8 7.3H114.1v-46.4c14.9-18.8 43.7-23.6 36 4z" fill="url(#SVGID_8_)"/><g><linearGradient id="SVGID_9_" gradientUnits="userSpaceOnUse" x1="2594.887" y1="423.906" x2="2642.309" y2="286.384" gradientTransform="matrix(-1 0 .1738 1 2703.062 0)"><stop offset="0" stop-color="#4f3292"/><stop offset=".997" stop-color="#00bbc5"/></linearGradient><path d="M51.2 342.8c4.5-3.4 11.6-2.2 16.5 2.3 3.5 3.3 7.1 6.6 10.6 9.9 2.3 2.1 5.3 0 3.7-2.6-9.3-16.1-15.6-32.5-16.5-50-.3-4.9 2.1-9.3 6.5-10.9 8.9-3.3 16.6 6.6 21.5 14.8.1.2.3.5.4.7 5.5 9.4 19.1 6.7 17.4-3.4-2.1-12.6-2.8-25.1-1.4-37.5 1-8.8 3.9-18.7 12.6-20.5 1-.2 5.3-.2 6.4 0 9.3 1.8 15.7 11.7 19.7 20.5 7.5 16.3 11.5 32.7 13.4 49.2 1.4 8.7 12 11.9 14.7.6 1.3-5.4 2.6-10.9 3.9-16.3 1.1-4.6 4.6-8 9.4-8.6 9.9-1.2 15.7 10.2 17.5 19.3 3 14.7 2.1 28.6-1.1 42.3-.6 2.6 3.1 4.7 4.7 2.6l7.2-9.9c3.3-4.5 10-5.7 15.7-2.3 9.4 5.5 6.1 16.5 1.6 23.4-13.7 21.2-41 56.1-69.5 65.9h-16.2c-31.9-9.8-71.3-44.7-92.4-65.9-6.6-7.1-13.7-18-6.3-23.6z" fill="url(#SVGID_9_)"/><g class="st9"><path class="st10" d="M158.2 432.4c-.1 0-.2-.1-.2-.2l-30.7-176.6c0-.1.1-.3.2-.3s.3.1.3.2l30.7 176.6c0 .1-.1.2-.3.3z"/></g><g class="st9"><path class="st10" d="M158.2 432.4c-.1 0-.1 0-.2-.1s-.1-.2-.1-.3c24.6-43.2 36.8-85.1 37.4-127.8 0-.1.1-.2.3-.2.1 0 .2.1.2.3-.6 42.5-12.7 84.1-36.9 127 29.4-22.1 53-48.6 68.2-76.6.1-.1.2-.2.3-.1.1.1.2.2.1.3-15.4 28.4-39.4 55.2-69.3 77.5.1-.1.1 0 0 0z"/></g><g class="st9"><path class="st10" d="M158.2 432.4h-.1c-37.6-22.3-70.9-49.1-96.2-77.4-.1-.1-.1-.3 0-.4.1-.1.3-.1.4 0 24.9 28 57.6 54.4 94.6 76.5-39-42.9-65.5-84.3-80.8-126.8 0-.1 0-.3.2-.3.1 0 .3 0 .3.2 15.5 42.8 42.3 84.6 81.9 127.9.1.1.1.2 0 .3-.1-.1-.2 0-.3 0z"/></g><g class="st9"><path class="st10" d="M133.9 292.5s-.1 0 0 0c-.2-.1-.3-.2-.2-.3l8.3-21.3c.1-.1.2-.2.3-.1.1.1.2.2.1.3l-8.3 21.3s-.1.1-.2.1z"/></g><g class="st9"><path class="st10" d="M137.8 314.9c-.1 0-.1 0-.2-.1l-22.9-22.4c-.1-.1-.1-.3 0-.4.1-.1.3-.1.4 0l22.9 22.4c.1.1.1.3 0 .4-.1.1-.1.1-.2.1z"/></g><g class="st9"><path class="st10" d="M139.7 325.9h-.1c-.1-.1-.2-.2-.1-.3l12.3-20.9c.1-.1.2-.2.3-.1.1.1.2.2.1.3l-12.3 20.9s-.1.1-.2.1z"/></g><g class="st9"><path class="st10" d="M145.7 360.3c-.1 0-.1 0-.2-.1l-19.2-17.6c-.1-.1-.1-.3 0-.4.1-.1.3-.1.4 0l19.2 17.6c.1.1.1.3 0 .4-.1.1-.1.1-.2.1z"/></g><g class="st9"><path class="st10" d="M89.5 335.2c-.1 0-.2-.1-.3-.2l-.6-26c0-.1.1-.3.2-.3s.2.1.3.2l.6 26c0 .2-.1.3-.2.3z"/></g><g class="st9"><path class="st10" d="M107.4 366.9c-.1 0-.2-.1-.3-.2l-.2-22.8c0-.1.1-.3.2-.3s.2.1.3.2l.2 22.8c0 .2-.1.2-.2.3z"/></g><g class="st9"><path class="st10" d="M96.4 348.4l-14.6-5.7c-.1-.1-.2-.2-.1-.3.1-.1.2-.2.3-.1l14.5 5.7c.1.1.2.2.1.3 0 .1-.1.1-.2.1z"/></g><g class="st9"><path class="st10" d="M126.5 394.5c-.1 0-.2-.1-.2-.2l-2.6-19.1c0-.1.1-.3.2-.3s.3.1.3.2l2.6 19.1c0 .1-.1.2-.3.3.1 0 .1 0 0 0z"/></g><g class="st9"><path class="st10" d="M116.8 381.1h-.1l-12-8c-.1-.1-.1-.2-.1-.3.1-.1.2-.1.3-.1l12 8c.1.1.1.2.1.3 0 .1-.1.1-.2.1z"/></g><g class="st9"><path class="st10" d="M193.2 335.2c-.1 0-.2-.1-.2-.2l-7.9-20.3c-.1-.1 0-.3.1-.3.1-.1.3 0 .3.1l7.9 20.3c.1.2 0 .4-.2.4z"/></g><g class="st9"><path class="st10" d="M188.1 360.3c-.1 0-.2 0-.2-.1l-9.1-16.3c-.1-.1 0-.3.1-.3.1-.1.3 0 .3.1l9.1 16.3c.1.1 0 .3-.1.3h-.1z"/></g><g class="st9"><path class="st10" d="M179.8 386.7c-.1 0-.1 0-.2-.1s-.1-.3 0-.4l14-11.1c.1-.1.3-.1.4 0 .1.1.1.3 0 .4l-14 11.1c-.1.1-.2.1-.2.1z"/></g><g class="st9"><path class="st10" d="M109.3 398.9c-.1 0-.2 0-.2-.1l-10.3-20.4c-.1-.1 0-.3.1-.3.1-.1.3 0 .3.1l10.3 20.4c.1.1 0 .3-.1.3h-.1z"/></g><g class="st9"><path class="st10" d="M81.9 375.3l-11-2.3c-.1 0-.2-.2-.2-.3 0-.1.2-.2.3-.2l10.9 2.3c.1 0 .2.2.2.3.1.2 0 .2-.2.2z"/></g><g class="st9"><path class="st10" d="M119.1 406.4h-8.5c-.1 0-.3-.1-.3-.3s.1-.3.3-.3h8.5c.1 0 .3.1.3.3s-.2.3-.3.3z"/></g><g class="st9"><path class="st10" d="M208.8 383.2c-.2 0-.3-.1-.2-.3l2.3-20.6c0-.1.1-.2.3-.2.1 0 .2.1.2.3l-2.3 20.6c-.1.1-.2.2-.3.2z"/></g><g class="st9"><path class="st10" d="M195.5 398.9c-.1 0-.3-.1-.3-.3l.2-12.2c0-.1.1-.2.3-.2.1 0 .2.1.2.3l-.2 12.2c0 .1-.1.2-.2.2z"/></g><g class="st9"><path class="st10" d="M201.6 392c-.1 0-.2-.1-.2-.2s.1-.3.2-.3l11.3-1.9c.1 0 .3.1.3.2s-.1.3-.2.3l-11.4 1.9c.1 0 .1 0 0 0z"/></g><g class="st9"><path class="st10" d="M150 384.9h-.1c-.1-.1-.2-.2-.1-.3l9.1-16.5c.1-.1.2-.2.3-.1.1.1.2.2.1.3l-9.1 16.5c-.1.1-.1.1-.2.1z"/></g></g><g><linearGradient id="SVGID_10_" gradientUnits="userSpaceOnUse" x1="-223.488" y1="390.853" x2="-300.822" y2="329.52" gradientTransform="matrix(-1 0 0 1 183.093 0)"><stop offset="0" stop-color="#4f3292"/><stop offset=".997" stop-color="#00bbc5"/></linearGradient><path d="M472.5 392.1c3.6-2.5 7.2-5.5 8.8-9.6 1.6-4.1.5-9.6-3.5-11.5-3.1-1.5-6.8-.5-10.1.7-8.7 3.3-16.8 8-24 13.9 9.4-5.5 18.9-11.1 27-18.5 8.1-7.4 14.7-16.7 17-27.4.8-3.6 1-7.4-.1-10.9s-3.8-6.7-7.4-7.6c-4.8-1.3-9.7 1.5-13.6 4.6-11.2 8.6-20.1 20.1-25.7 33.1 5.7-7.5 9.5-16.4 10.9-25.7.9-5.9.4-13-4.5-16.5-5-3.6-12.2-1.6-17.3 2-11.9 8.6-16.8 23.7-22.9 37.1-7.7 17-18.4 32.6-31.4 46-1.9 2-4.1 4.9-2.5 7.2.8 1.3 2.4 1.7 3.9 2 13.8 2.9 27.6 2 41.1-1.5 5.3-1.4 10.8-1.2 16.2-2.1 6.4-1 12.7-2.8 18.7-5.1 6.9-2.6 13.4-6.1 19.4-10.2z" fill="url(#SVGID_10_)"/><linearGradient id="SVGID_11_" gradientUnits="userSpaceOnUse" x1="-380.874" y1="394.896" x2="-144.344" y2="394.896" gradientTransform="matrix(-1 0 0 1 183.093 0)"><stop offset=".003" stop-color="#00bbc5"/><stop offset="1" stop-color="#4f3292"/></linearGradient><path d="M436.3 389.6c18.3-38.8 84-48.2 59 5.8 11.1-10.2 25.2-12 29-6.9 3.9 5.2.9 13.3-5.3 21.5 25.9-8.2 26.4 7.7 18.2 14.7 12.7-5.9 17.6 3.7 26.8 7.3H327.4v-46.4c97.6-23.5 116.5-23.5 108.9 4z" fill="url(#SVGID_11_)"/><linearGradient id="SVGID_12_" gradientUnits="userSpaceOnUse" x1="510.126" y1="165.287" x2="415.665" y2="297.66"><stop offset=".003" stop-color="#00bbc5"/><stop offset="1" stop-color="#4f3292"/></linearGradient><path d="M508.2 253.2c-18-5.8-38.8-1.9-53.4 10 31.6-17.8 49.8-56.6 43.4-92.2-30 5.2-54.6 32.6-56.4 63 9.8-19.2 9.1-43.3-1.6-61.9-31.3 35.4-49.8 91-28.9 156.4 31.2-34.5 85.5-26.9 96.9-75.3z" fill="url(#SVGID_12_)"/><linearGradient id="SVGID_13_" gradientUnits="userSpaceOnUse" x1="374.368" y1="299.549" x2="442.913" y2="231.003" gradientTransform="rotate(6.148 433.095 313.766)"><stop offset="0" stop-color="#4f3292"/><stop offset=".997" stop-color="#00bbc5"/></linearGradient><path d="M376.5 231.9c10.9 10.5 17.2 25.6 17.1 40.8-1.8-31.5 10.5-63.5 32.8-85.7-1.5 23 14.1 44.3 3.2 69.4 7.4-13.3 21.1-19.1 33.7-22.7-.4 63.8-32.4 93.4-72.9 95.5-1.7-27.9-14.7-45.7-16.2-57.6-1.8-13.2-1-26.7 2.3-39.7z" fill="url(#SVGID_13_)"/></g><g><linearGradient id="SVGID_14_" gradientUnits="userSpaceOnUse" x1="304.221" y1="342.167" x2="252.083" y2="276.228"><stop offset="0" stop-color="#4f3292"/><stop offset=".997" stop-color="#00bbc5"/></linearGradient><path d="M273.4 360.5c-10.2-9.7-49.3-50.5-37.1-102.1 1.9-7.9 10.4-16.3 18.5-14.2 21.3 5.6 34.4 39.5 68.8 58 37 19.9 42.1 76.4 38.2 122.8h-49.1c-1.5-28.4-29.1-54.8-39.3-64.5z" fill="url(#SVGID_14_)"/><linearGradient id="SVGID_15_" gradientUnits="userSpaceOnUse" x1="2756.153" y1="436.789" x2="2827.547" y2="389.042" gradientTransform="matrix(-1 0 0 1 3088.65 0)"><stop offset="0" stop-color="#3850a2"/><stop offset=".997" stop-color="#a757a1"/></linearGradient><path d="M257.3 368.9c-4-.7-9.1-.1-10.3 3.7-1.3 4.4 3.8 8.2 8.1 10.3 8.5 4.2 17.1 8.5 25.6 12.7 3.8 1.9 3.7 2.1-.2.9-8.9-2.9-18.3-4-27.5-3.4-4.4.3-9.7 2.1-9.7 6.5s5.4 6.8 9.8 7.9c12.4 3.2 27.5 3 22.1 3.6-5.4.6-9.6 7.6-5.7 11.7 1.5 1.5 3.6 2.2 5.6 2.8 12 3.3 36.3 6.6 63.9 6.6-3.9-13.8-33.2-54.5-81.7-63.3z" fill="url(#SVGID_15_)"/><linearGradient id="SVGID_16_" gradientUnits="userSpaceOnUse" x1="2638.45" y1="416.519" x2="2685.82" y2="399.278" gradientTransform="matrix(-1 0 0 1 3088.65 0)"><stop offset=".003" stop-color="#00bbc5"/><stop offset="1" stop-color="#4f3292"/></linearGradient><path d="M462.2 374.3c3.6-.7 8.3 0 9.8 3.4 1.7 4-2.5 7.5-6.2 9.4-7.3 3.9-14.6 7.8-22 11.6-3.2 1.7-3.2 2 .3.8 7.8-2.6 16.3-3.7 24.7-3.1 4 .3 9.1 1.9 9.6 6 .5 4-4.2 6.2-8 7.2-11 2.9-24.7 2.6-19.8 3.3 23.4 3.2 28.7 9.9 27.7 19.2H359.7c3.8-16.3 61.3-50.1 102.5-57.8z" fill="url(#SVGID_16_)"/><linearGradient id="SVGID_17_" gradientUnits="userSpaceOnUse" x1="351.434" y1="345.704" x2="289.651" y2="251.212"><stop offset=".003" stop-color="#a757a1"/><stop offset="1" stop-color="#3850a2"/></linearGradient><path d="M364.5 381.7c-2.7-8.9-3.4-42.9-.2-51.5 24.7-67.1-39.4-82.5-43.8-149.4-.6-9.1-10.8-18.1-19.5-16.2-7.6 1.6-9.9 11.5-8 19.3 1.9 7.8 6.6 14.9 7.6 22.8 1.5 10.9-4.1 20.9-8.8 30.5-4.7 9.6-17.1 28.9-4.3 48.7 16.7 25.8 14.1 38.7 10.6 53-3 12.4 8.5 25.5 10.5 38.5 1.1 7.1-3.9 16.1-.4 22.5 8.3 15.7 19.7 31.9 38.5 31.6 24.8-.3 23-32.9 17.8-49.8z" fill="url(#SVGID_17_)"/><linearGradient id="SVGID_18_" gradientUnits="userSpaceOnUse" x1="501.456" y1="260.663" x2="397.316" y2="400.135"><stop offset=".003" stop-color="#a757a1"/><stop offset="1" stop-color="#3850a2"/></linearGradient><path d="M403.8 358.1c12.2-10 1.9-32.9 11.8-45.2 9.6-11.9 30.5-5.7 43.3-14.1 8.6-5.7 11.6-16.5 16.4-25.6 4.8-9.1 14.7-17.6 24.7-13.7 9 3.5 12.3 15.5 9.1 24.2-3.1 8.7-10.7 14.7-18 20.3-7.3 5.5-15 11.3-18.5 19.9-3.3 7.9-2.6 17.2-5.6 25.3-11.6 31.9-52.8 31.1-46.5 83h-68.3c-.1-54.8 46.3-69.9 51.6-74.1z" fill="url(#SVGID_18_)"/><g class="st9"><path class="st10" d="M385.3 421h-.1c-.1-.1-.2-.2-.1-.3 15.7-35.8 42-66.8 67.5-96.7 14.9-17.5 28.9-34 40.8-51.3.1-.1.2-.1.3-.1.1.1.1.2.1.3-11.9 17.3-26 33.8-40.9 51.3-25.4 29.9-51.7 60.9-67.4 96.6 0 .2-.1.2-.2.2z"/></g><g class="st9"><path class="st10" d="M430.1 351.5c-.1 0-.3-.1-.3-.3l.2-33.7c0-.1.1-.2.3-.2.1 0 .3.1.2.3l-.2 33.7c0 .1-.1.2-.2.2z"/></g><g class="st9"><path class="st10" d="M424.2 358.9c-.1 0-.2-.1-.2-.2s0-.3.2-.3l36.6-11.8c.1 0 .3 0 .3.2 0 .1 0 .3-.2.3l-36.7 11.8c.1-.1.1 0 0 0z"/></g><g class="st9"><path class="st10" d="M408.9 379.6c-.1 0-.2-.1-.2-.2s.1-.3.2-.3l16.4-3.9c.1 0 .3.1.3.2s-.1.3-.2.3l-16.5 3.9c.1 0 0 0 0 0z"/></g><g class="st9"><path class="st10" d="M444 334.7c-.2 0-.3-.1-.2-.3l2.1-19.6c0-.1.1-.3.3-.2.1 0 .2.1.2.3l-2.1 19.6c0 .1-.1.2-.3.2z"/></g><g class="st9"><path class="st10" d="M466.5 321.4h-11.2c-.1 0-.3-.1-.3-.3s.1-.3.3-.3h11.2c.1 0 .3.1.3.3s-.2.3-.3.3z"/></g><g class="st9"><path class="st10" d="M479.5 292.2c-.2 0-.3-.1-.2-.3l1.3-19.1c0-.1.1-.3.3-.2.1 0 .2.1.2.3l-1.3 19.1c-.1.1-.2.2-.3.2z"/></g><g class="st9"><path class="st10" d="M472.8 300.5c-.1 0-.2-.1-.2-.2s.1-.3.2-.3l14.8-2.2c.1 0 .3.1.3.2s-.1.3-.2.3l-14.9 2.2z"/></g><g><linearGradient id="SVGID_19_" gradientUnits="userSpaceOnUse" x1="2720.224" y1="437.534" x2="2680.019" y2="177.391" gradientTransform="matrix(-1 0 0 1 3088.65 0)"><stop offset="0" stop-color="#4f3292"/><stop offset=".997" stop-color="#00bbc5"/></linearGradient><path d="M344.3 337.6c18.6-30.7 7.8-64.9 10.1-80.4 1.8-12.7 15.9-18.6 23.1-29 5.6-8 6.7-18.4 7.9-28.3 1.2-9.9 2.8-20.3 9.1-27.8s18.7-10.6 26.7-3.9c6.7 5.6 7.5 15.8 4.9 23.7-2.6 7.9-7.9 14.5-11.7 21.8-3.8 7.3-6.1 16.4-2.4 24.3 4.2 9 15.3 14.2 18.2 23.7 2.7 8.8-2.8 17.4-8.4 24.1-5.7 6.7-7.3 13.9-7.1 23 .3 13.6 11 25.7 7.6 38.6-3.4 12.9-18 18-22.3 32.9-2.9 10.2-2.9 28.7 20.6 51.6H321c0-52.9 16.4-82.9 23.3-94.3z" fill="url(#SVGID_19_)"/><g class="st9"><path class="st10" d="M368 427.9c-.2 0-.3-.1-.2-.3 8.3-91.8 21.1-170.7 40.3-248.1 0-.1.2-.2.3-.2.1 0 .2.2.2.3-19.2 77.4-32 156.2-40.3 248 0 .2-.2.3-.3.3z"/></g><g class="st9"><path class="st10" d="M385.7 289.1c-.1 0-.1 0-.2-.1s-.1-.3 0-.4l32.6-26.8c.1-.1.3-.1.4 0 .1.1.1.3 0 .4L385.8 289c0 .1-.1.1-.1.1z"/></g><g class="st9"><path class="st10" d="M388.4 273.1c-.1 0-.2 0-.2-.1l-13.9-27.1c-.1-.1 0-.3.1-.3.1-.1.3 0 .3.1l13.9 27.1c.1.1 0 .3-.1.3h-.1z"/></g><g class="st9"><path class="st10" d="M376.1 353.4c-.1 0-.2 0-.2-.1-.1-.1-.1-.3.1-.3l29.3-21.2c.1-.1.3-.1.3.1.1.1.1.3-.1.3l-29.3 21.2h-.1z"/></g><g class="st9"><path class="st10" d="M374.2 369c-.1 0-.2 0-.2-.1l-17.7-30c-.1-.1 0-.3.1-.3.1-.1.3 0 .3.1l17.7 30c.1.1 0 .3-.1.3h-.1z"/></g><g class="st9"><path class="st10" d="M402.5 204.1c-.1 0-.1 0-.2-.1s-.1-.3 0-.4l14.2-12.6c.1-.1.3-.1.4 0 .1.1.1.3 0 .4L402.7 204c0 .1-.1.1-.2.1z"/></g><g class="st9"><path class="st10" d="M404.7 195c-.1 0-.2-.1-.2-.1l-6-13.2c-.1-.1 0-.3.1-.3.1-.1.3 0 .3.1l6 13.2c.1.1 0 .3-.1.3-.1-.1-.1 0-.1 0z"/></g><g class="st9"><path class="st10" d="M391.5 256.6c-.1 0-.1 0-.2-.1s-.1-.3 0-.4l13.5-12.3c.1-.1.3-.1.4 0 .1.1.1.3 0 .4l-13.5 12.3c-.1 0-.1.1-.2.1z"/></g><g class="st9"><path class="st10" d="M396.8 227c-.1 0-.2-.1-.2-.1l-6.3-13.9c-.1-.1 0-.3.1-.3.1-.1.3 0 .3.1l6.3 13.9c.1.1 0 .3-.1.3h-.1z"/></g><g class="st9"><path class="st10" d="M379.7 326.9c-.1 0-.1 0-.2-.1s-.1-.3 0-.4l15.4-11.8c.1-.1.3-.1.4 0 .1.1.1.3 0 .4l-15.4 11.8c-.1.1-.1.1-.2.1z"/></g><g class="st9"><path class="st10" d="M370.9 398.5c-.1 0-.1 0-.2-.1s-.1-.3 0-.4l15.3-11.8c.1-.1.3-.1.4 0 .1.1.1.3 0 .4L371 398.4c0 .1-.1.1-.1.1z"/></g></g></g><g><linearGradient id="SVGID_20_" gradientUnits="userSpaceOnUse" x1="2009.408" y1="361.302" x2="2009.408" y2="389.175" gradientTransform="matrix(-1 0 0 1 2332.884 0)"><stop offset=".003" stop-color="#a757a1"/><stop offset="1" stop-color="#3850a2"/></linearGradient><path d="M247.2 390.6h137.5c8.4 0 15.1-6.8 15.1-15.1s-6.8-15.1-15.1-15.1H247.2v30.2z" fill="url(#SVGID_20_)"/><path d="M190.4 386.9v-22.7h-4.2c-1 0-1.9-.8-1.9-1.9 0-1 .8-1.9 1.9-1.9h93c8.1 0 15.2 6.3 15.5 14.4.4 8.7-6.5 15.9-15.1 15.9h-93.5c-1 0-1.9-.8-1.9-1.9 0-1 .8-1.9 1.9-1.9h4.3z" fill="#7f509f"/><path class="st23" d="M190.4 364.1h89.2c6.3 0 11.4 5.1 11.4 11.4 0 6.3-5.1 11.4-11.4 11.4h-89.2v-22.8z"/><path class="st24" d="M190.4 370.2h93.2v1h-93.2zM190.4 373.4h93.2v1h-93.2zM190.4 376.6h93.2v1h-93.2zM190.4 379.8h93.2v1h-93.2z"/><g><linearGradient id="SVGID_21_" gradientUnits="userSpaceOnUse" x1="2045.324" y1="359.856" x2="2045.324" y2="343.367" gradientTransform="matrix(-1 0 0 1 2338.692 0)"><stop offset="0" stop-color="#393091"/><stop offset=".997" stop-color="#f05c2a"/></linearGradient><path d="M229.8 342.5h136v3.8H362v10.4h3.8v3.8h-136c-5 0-9-4-9-9 .1-4.9 4.1-9 9-9z" fill="url(#SVGID_21_)"/><path d="M293.3 342.5h84.5v3.8H374v10.4h3.8v3.8h-84.5c-5 0-9-4-9-9 0-4.9 4-9 9-9z" fill="#99334c"/><path class="st23" d="M374 356.7v-10.4h-80.7c-2.9 0-5.2 2.3-5.2 5.2 0 2.9 2.3 5.2 5.2 5.2H374z"/><path class="st24" d="M295.1 349.4H374v1h-78.9zM295.1 352.6H374v1h-78.9z"/></g><g><linearGradient id="SVGID_22_" gradientUnits="userSpaceOnUse" x1="3418.115" y1="431.384" x2="3418.115" y2="391.141" gradientTransform="matrix(-1 0 0 1 3638.894 0)"><stop offset="0" stop-color="#e73d25"/><stop offset=".997" stop-color="#f1ce41"/></linearGradient><path d="M162.8 390.6h123.3c1 0 1.9.8 1.9 1.9 0 1-.8 1.9-1.9 1.9h-1.9v33.9h1.9c1 0 1.9.8 1.9 1.9 0 1-.8 1.9-1.9 1.9H162.8c-5.1 0-9.3-4.1-9.3-9.3v-22.9c.1-5.1 4.2-9.3 9.3-9.3z" fill="url(#SVGID_22_)"/><path d="M283.1 390.6h137.3c1 0 1.9.8 1.9 1.9 0 1-.8 1.9-1.9 1.9h-1.9v33.9h1.9c1 0 1.9.8 1.9 1.9 0 1-.8 1.9-1.9 1.9H283.1c-5.1 0-9.3-4.1-9.3-9.3v-22.9c.1-5.1 4.2-9.3 9.3-9.3z" fill="#ee9833"/><path class="st23" d="M418.6 428.3v-33.9H283.1c-3 0-5.5 2.5-5.5 5.5v22.9c0 3 2.5 5.5 5.5 5.5h135.5z"/><path class="st24" d="M284.7 399.6h133.9v1H284.7zM284.7 404.1h133.9v1H284.7zM284.7 408.6h133.9v1H284.7zM284.7 413.1h133.9v1H284.7zM284.7 417.6h133.9v1H284.7zM284.7 422.1h133.9v1H284.7z"/></g><linearGradient id="SVGID_23_" gradientUnits="userSpaceOnUse" x1="294.689" y1="420.39" x2="294.689" y2="404.174"><stop offset=".003" stop-color="#f1ce41"/><stop offset="1" stop-color="#e73d25"/></linearGradient><path fill="url(#SVGID_23_)" d="M304.7 420l-10-5.9-10 5.9v-15.9h20z"/></g><g><path class="st30" d="M637.5 399l5 33.1-5-33.1z"/><path class="st31" d="M638.4 398.8l4.3 33.2-.5.1-5.6-33z"/><path class="st30" d="M628.7 399l5 33.1-5-33.1z"/><path class="st31" d="M629.6 398.8L634 432l-.5.1-5.7-33z"/><path class="st30" d="M606.3 399l-5 33.1 5-33.1z"/><path class="st31" d="M607.2 399.1l-5.6 33-.5-.1 4.3-33.2z"/><path class="st30" d="M615.1 399l-5 33.1 5-33.1z"/><path class="st31" d="M616 399.1l-5.7 33-.5-.1 4.4-33.2z"/><path class="st32" d="M630 361.4h8.6c4.9 0 6.9 3.8 6.5 9.3l-5.8 28.1h-22.7l5.3-28.1c.9-5.1 3.2-9.3 8.1-9.3z"/><path class="st31" d="M637.7 361.4h.8c4.9 0 6.9 3.8 6.5 9.3l-5.8 28.1h-2l6.7-28.1c.6-5.5-1.3-9.3-6.2-9.3z"/><path class="st32" d="M604 400h27c.6 0 1.1-.5 1.1-1.1 0-.6-.5-1.1-1.1-1.1h-27c-.6 0-1.1.5-1.1 1.1 0 .6.5 1.1 1.1 1.1z"/><path class="st31" d="M626.1 400h12c.6 0 1.1-.5 1.1-1.1 0-.6-.5-1.1-1.1-1.1h-12c-.6 0-1.1.5-1.1 1.1-.1.6.4 1.1 1.1 1.1z"/><path class="st33" d="M595.7 420.7l-1.8 7.2-3.3-.6 1.2-7.4z"/><linearGradient id="SVGID_24_" gradientUnits="userSpaceOnUse" x1="583.775" y1="429.262" x2="594.942" y2="429.262"><stop offset="0" stop-color="#9946d6"/><stop offset="1" stop-color="#cd7afe"/></linearGradient><path d="M585.9 430.1c1.1-.2 4-1.5 4.5-3.7h4.3c.4 1.7.1 3.6.1 5.6h-2.1l-.5-1.4-1.2 1.4h-7.3c.1-1.9 1.4-1.8 2.2-1.9z" fill="url(#SVGID_24_)"/><linearGradient id="SVGID_25_" gradientUnits="userSpaceOnUse" x1="591.051" y1="404.533" x2="626.509" y2="404.533"><stop offset="0" stop-color="#5760ff"/><stop offset="1" stop-color="#3a35ea"/></linearGradient><path d="M625.5 385.3l-19.4 1.3c-5.4.5-8.8 1.5-10.1 5.1-1.1 6.6-2.8 16-4.9 31l4.3 1c2.3-11.6 7.7-19 8.3-25.9h14.9c2.9 0 10.6-8.6 6.9-12.5z" fill="url(#SVGID_25_)"/><path class="st33" d="M617 421.5l1.4 5.6 3.6-1.5-1.1-4.9z"/><linearGradient id="SVGID_26_" gradientUnits="userSpaceOnUse" x1="604.484" y1="403.958" x2="634.663" y2="403.958"><stop offset="0" stop-color="#5760ff"/><stop offset="1" stop-color="#3a35ea"/></linearGradient><path d="M605.7 390c4.5-3.6 13.9-4.8 20.6-4.6h6.5c2.9 4.7 2.1 12.5-.8 12.5h-18.8c4.7 6.6 6.5 14.7 8.4 23.8l-4.8 1c-4.5-13.7-16.1-28.7-11.1-32.7z" fill="url(#SVGID_26_)"/><linearGradient id="SVGID_27_" gradientUnits="userSpaceOnUse" x1="612.74" y1="428.352" x2="624.939" y2="428.352"><stop offset="0" stop-color="#9946d6"/><stop offset="1" stop-color="#cd7afe"/></linearGradient><path d="M621.9 424.6l-4.2 1.6c1.1 2.9-1.1 3.8-2.2 4-.7.1-2.8-.2-2.8 1.8h7c1.2-.5 2.1-1.3 2.3-3.1l1.2.9 1.7-1.1c-1.1-1.7-1.7-2.9-3-4.1z" fill="url(#SVGID_27_)"/><g><linearGradient id="SVGID_28_" gradientUnits="userSpaceOnUse" x1="617.073" y1="366.898" x2="619.547" y2="351.401"><stop offset="0" stop-color="#9946d6"/><stop offset="1" stop-color="#cd7afe"/></linearGradient><path d="M616.6 363.1c1-1.7 2.9-3.4 4.1-3.4 1 0-1.1 8.7-3.9 24.8-.7 1.2-3.6 1.7-4.1-.2-1.5-6.8 1.6-17.2 3.9-21.2z" fill="url(#SVGID_28_)"/><linearGradient id="SVGID_29_" gradientUnits="userSpaceOnUse" x1="611.435" y1="381.126" x2="616.114" y2="381.126"><stop offset="0" stop-color="#9946d6"/><stop offset="1" stop-color="#cd7afe"/></linearGradient><path d="M611.9 376.7l3.6.1c.5 3.2.8 6 .4 7.6-.2 1-1.9 1.6-3.5.1-1.5-1.3-.9-5-.5-7.8z" fill="url(#SVGID_29_)"/><linearGradient id="SVGID_30_" gradientUnits="userSpaceOnUse" x1="631.811" y1="380.579" x2="607.544" y2="356.312"><stop offset="0" stop-color="#9946d6"/><stop offset="1" stop-color="#cd7afe"/></linearGradient><path d="M622.1 359.3h9c5.3 0 4.3 3.6 4.2 4.3-.3 2.7-1 5.3-1.7 7.9-.7 2.6-1.4 5.2-2.2 7.8-.4 1.4 1.1 4.5 2.1 7l-19.1-.1c.8-1.9 1.6-4.3 1.6-6.5 0-2.3-.5-12.7 2.7-18.6.4-.6 2-1.8 3.4-1.8z" fill="url(#SVGID_30_)"/><linearGradient id="SVGID_31_" gradientUnits="userSpaceOnUse" x1="647.988" y1="359.579" x2="627.023" y2="378.461"><stop offset="0" stop-color="#9946d6"/><stop offset="1" stop-color="#cd7afe"/></linearGradient><path d="M636.4 363.1c-.6-1.7-2-3.3-2.8-3.2-1.1.2-1.6 2.4-1.9 3.5-.7 3.1-.5 4.6-1 15.3-1.4-1.1-3.1-2.1-4.9-2.8v3.4c1.2 2.2 2.9 4 4.8 5.3.2.3.5.5.9.6h.1c.7.5 1.7.3 2.5-.4.2-.2.4-.4.5-.7 3-6.6 3.2-17 1.8-21z" fill="url(#SVGID_31_)"/><path class="st10" d="M616.4 383.1h9.2c.6 0 1-.4.9-.9l-4.2-13.3c-.2-.5-.8-.9-1.5-.9h-9.2c-.6 0-1 .4-.9.9l4.2 13.3c.2.5.8.9 1.5.9z"/><path d="M625.8 382.2l-4.2-13.3c-.2-.5-.8-.9-1.5-.9h.6c.6 0 1.3.4 1.5.9l4.2 13.3c.2.5-.2.9-.9.9h-.6c.7 0 1.1-.4.9-.9z" fill="#bdd3f2"/><path class="st33" d="M622.2 379.7c1.1.9 2.7 1.1 3.4.3 1.4-1.6 1.5-3.7-.2-5-.5-.4-1.1-.8-1.7-1.2-1.1-.8-.9.3-.4 1.1.3.6 1.4.9.7 1.4-.4.3-1.9.5-2.4.4-1.7-.4-1.3 1.3.6 3zM611.5 375.5c0-.6.1-1.2.1-1.8 0-1.2.7-.5 1 .2.2.4.6 1.8 1 2 .4.2.9.2 1.7.2 1.5 0 .6 1.3 1.4 3.1.2.5-.7.8-1.4.8-1.6-.1-3.7-2.7-3.8-4.5z"/></g><g><linearGradient id="SVGID_32_" gradientUnits="userSpaceOnUse" x1="621.985" y1="357.757" x2="621.985" y2="340.717"><stop offset="0" stop-color="#ea607d"/><stop offset="1" stop-color="#ff9e40"/></linearGradient><path d="M624.8 359.4h-7.1c3.7-3.7-.2-7.7 3.1-12.8l5.4 1-1.4 11.8z" fill="url(#SVGID_32_)"/><path class="st33" d="M624.5 353.2l3.7-1.3c-.3 1.5-.8 7.6-.8 7.6-.6.8-2.6.9-3.7.5-.1-1.8 0-5 .8-6.8z"/><path class="st33" d="M624.5 344.6c2.9.2 5.6 2.2 5.1 5.7-.5 4.5-6.8 5.8-7.4 5.6-3-.8-1.3-11.5 2.3-11.3z"/><linearGradient id="SVGID_33_" gradientUnits="userSpaceOnUse" x1="626.637" y1="357.757" x2="626.637" y2="340.717"><stop offset="0" stop-color="#ea607d"/><stop offset="1" stop-color="#ff9e40"/></linearGradient><path d="M627.1 349.2c-.5-.6-6.7-1.5-7.1-2.2-2-3.2 4.7-5.2 5.4-5.2 3.9-.4 2.1 1.4 4.1 2.4.7.3 1.5.4 2.1.8 5.2 3.3-1.4 10.6 1 14.7h-5.2c-2.2-3.6.3-9.8-.3-10.5z" fill="url(#SVGID_33_)"/></g><g><path class="st30" d="M580.3 399l5 33.1-5-33.1z"/><path class="st31" d="M581.2 398.8l4.4 33.2-.5.1-5.7-33z"/><path class="st30" d="M571.6 399l5 33.1-5-33.1z"/><path class="st31" d="M572.5 398.8l4.3 33.2-.5.1-5.6-33z"/><path class="st30" d="M549.2 399l-5 33.1 5-33.1z"/><path class="st31" d="M550.1 399.1l-5.7 33-.4-.1 4.3-33.2z"/><g><path class="st30" d="M557.9 399l-5 33.1 5-33.1z"/><path class="st31" d="M558.8 399.1l-5.6 33-.5-.1 4.3-33.2z"/></g><path class="st32" d="M572.8 361.4h8.6c4.9 0 6.9 3.8 6.5 9.3l-5.8 28.1h-22.7l5.3-28.1c1-5.1 3.2-9.3 8.1-9.3z"/><path class="st31" d="M580.6 361.4h.8c4.9 0 6.9 3.8 6.5 9.3l-5.8 28.1h-2l6.7-28.1c.6-5.5-1.3-9.3-6.2-9.3z"/><path class="st32" d="M546.9 400h27c.6 0 1.1-.5 1.1-1.1 0-.6-.5-1.1-1.1-1.1h-27c-.6 0-1.1.5-1.1 1.1 0 .6.5 1.1 1.1 1.1z"/><path class="st31" d="M568.9 400h12c.6 0 1.1-.5 1.1-1.1 0-.6-.5-1.1-1.1-1.1h-12c-.6 0-1.1.5-1.1 1.1 0 .6.5 1.1 1.1 1.1z"/></g><g><path class="st30" d="M523.2 399l5 33.1-5-33.1z"/><path class="st31" d="M524.1 398.8l4.4 33.2-.5.1-5.7-33z"/><path class="st30" d="M514.5 399l5 33.1-5-33.1z"/><path class="st31" d="M515.4 398.8l4.3 33.2-.5.1-5.6-33z"/><path class="st30" d="M492.1 399l-5 33.1 5-33.1z"/><path class="st31" d="M493 399.1l-5.7 33-.5-.1 4.4-33.2z"/><g><path class="st30" d="M500.8 399l-5 33.1 5-33.1z"/><path class="st31" d="M501.7 399.1l-5.6 33-.5-.1 4.3-33.2z"/></g><path class="st32" d="M515.7 361.4h8.6c4.9 0 6.9 3.8 6.5 9.3l-5.8 28.1h-22.7l5.3-28.1c.9-5.1 3.2-9.3 8.1-9.3z"/><path class="st31" d="M523.5 361.4h.8c4.9 0 6.9 3.8 6.5 9.3l-5.8 28.1h-2l6.7-28.1c.6-5.5-1.3-9.3-6.2-9.3z"/><path class="st32" d="M489.8 400h27c.6 0 1.1-.5 1.1-1.1 0-.6-.5-1.1-1.1-1.1h-27c-.6 0-1.1.5-1.1 1.1-.1.6.4 1.1 1.1 1.1z"/><path class="st31" d="M511.8 400h12c.6 0 1.1-.5 1.1-1.1 0-.6-.5-1.1-1.1-1.1h-12c-.6 0-1.1.5-1.1 1.1 0 .6.5 1.1 1.1 1.1z"/></g><g><path class="st30" d="M694.6 399l5 33.1-5-33.1z"/><path class="st31" d="M695.5 398.8l4.3 33.2-.5.1-5.6-33z"/><path class="st30" d="M685.8 399l5 33.1-5-33.1z"/><path class="st31" d="M686.7 398.8l4.4 33.2-.5.1-5.6-33z"/><path class="st30" d="M663.5 399l-5 33.1 5-33.1z"/><path class="st31" d="M664.4 399.1l-5.7 33-.5-.1 4.4-33.2z"/><g><path class="st30" d="M672.2 399l-5 33.1 5-33.1z"/><path class="st31" d="M673.1 399.1l-5.7 33-.4-.1 4.3-33.2z"/></g><path class="st32" d="M687.1 361.4h8.6c4.9 0 6.9 3.8 6.5 9.3l-5.8 28.1h-22.7l5.3-28.1c.9-5.1 3.2-9.3 8.1-9.3z"/><path class="st31" d="M694.8 361.4h.8c4.9 0 6.9 3.8 6.5 9.3l-5.8 28.1h-2l6.7-28.1c.7-5.5-1.3-9.3-6.2-9.3z"/><path class="st32" d="M661.2 400h27c.6 0 1.1-.5 1.1-1.1 0-.6-.5-1.1-1.1-1.1h-27c-.6 0-1.1.5-1.1 1.1-.1.6.4 1.1 1.1 1.1z"/><path class="st31" d="M683.2 400h12c.6 0 1.1-.5 1.1-1.1 0-.6-.5-1.1-1.1-1.1h-12c-.6 0-1.1.5-1.1 1.1 0 .6.5 1.1 1.1 1.1z"/></g><g><linearGradient id="SVGID_34_" gradientUnits="userSpaceOnUse" x1="672.858" y1="384.363" x2="654.165" y2="384.363"><stop offset="0" stop-color="#6c9ed1"/><stop offset="1" stop-color="#b9daf9"/></linearGradient><path d="M665.7 388.2l12.9 7.7c4.1-.7 8.3-3.2 6.7-9.5-.6-.3-22.6-12-28.9-13.4-2-.5-3 .2-3.4 1.4l12.7 13.8z" fill="url(#SVGID_34_)"/><linearGradient id="SVGID_35_" gradientUnits="userSpaceOnUse" x1="690.913" y1="383.689" x2="641.913" y2="336.023"><stop offset="0" stop-color="#138c77"/><stop offset="1" stop-color="#35eae7"/></linearGradient><path d="M691.7 378.6c.4-3.5 1.9-10.6-1.6-18.9-1.3-3.2-7.3-4.7-10.1-4.7-1 .5-1.9.9-2.8 1.5-3.9-.3-9 .4-13.7.9-1.5-2.5-5.2-4.4-10.5-12.6l-1.8 1.8c4.9 9.7 6.3 12.7 9.7 15 1.9 1.3 7.9 1.6 13.3 1.2-.3 1.8-.5 4-.5 6.9 0 4.6.5 19.9 1.6 22.8l17.9.2c.3-6.5-1.9-10.1-1.5-14.1z" fill="url(#SVGID_35_)"/><path class="st33" d="M654 424.3l-.4 3h3.6l.5-3z"/><linearGradient id="SVGID_36_" gradientUnits="userSpaceOnUse" x1="645.115" y1="429.215" x2="659.1" y2="429.215"><stop offset="0" stop-color="#34495e"/><stop offset="1" stop-color="#1d2a36"/></linearGradient><path d="M648 430.2c1.2-.2 5-1.7 5.5-3.9h4.4c.4 1.7 1.2 3.7 1.2 5.7h-2.6l-.5-1.4-2.2 1.4h-8.6c-.1-1.9 2.1-1.7 2.8-1.8z" fill="url(#SVGID_36_)"/><linearGradient id="SVGID_37_" gradientUnits="userSpaceOnUse" x1="687.854" y1="385.758" x2="647.713" y2="414.748"><stop offset="0" stop-color="#6c9ed1"/><stop offset="1" stop-color="#b9daf9"/></linearGradient><path d="M692.6 386c-.7 0-27 .7-33.1 2.6-3 1.4-3 5.8-3.4 9-1.2 7.9-2.2 21.8-2.5 27.6h4.2c3.3-8.5 7.9-20.7 7.4-27.6h27.3c3.1-2.6 1.4-7.8.1-11.6z" fill="url(#SVGID_37_)"/><path class="st33" d="M667 405.3l.9 2.5-2.7 2.5-1.4-3.8z"/><linearGradient id="SVGID_38_" gradientUnits="userSpaceOnUse" x1="662.615" y1="413.44" x2="672.539" y2="413.44"><stop offset="0" stop-color="#34495e"/><stop offset="1" stop-color="#1d2a36"/></linearGradient><path d="M663.8 416.8c.7-1 2-4.9.8-6.7l2.9-3.3c1.5.8 3.5 1.6 5 2.9l-1.8 2-1.4-.5-.4 2.5-5.8 6.5c-1.4-1.4.3-2.8.7-3.4z" fill="url(#SVGID_38_)"/><linearGradient id="SVGID_39_" gradientUnits="userSpaceOnUse" x1="672.858" y1="391.397" x2="654.165" y2="391.397"><stop offset="0" stop-color="#6c9ed1"/><stop offset="1" stop-color="#b9daf9"/></linearGradient><path d="M653.1 374.3c-.6 2.7-.4 6.4.3 8.2 3 7.7 8.5 20.4 10.7 25.9l3.5-2.3c-.5-6.3-1.1-14.4-2.4-20.9l-12.1-10.9z" fill="url(#SVGID_39_)"/><path class="st33" d="M679.6 348.2l-3.7 1.7c.4 2.4.5 5.5 1.9 8l4.5-2.6c-1.2-3.3-1.7-2.8-2.7-7.1z"/><path class="st33" d="M674 347.6c-.1 1.4-.8 4.5 1.2 5 1.1.3 2.8-.2 3.8-.6 2-.6 3.2-2.4 3.5-4.5.2-1.6-.4-3.1-1.8-4.2-2.6-2-6.4-1.9-6.7 4.3z"/><linearGradient id="SVGID_40_" gradientUnits="userSpaceOnUse" x1="682.28" y1="350.488" x2="670.835" y2="340.358"><stop offset="0" stop-color="#34495e"/><stop offset="1" stop-color="#1d2a36"/></linearGradient><path d="M683.8 342.9c-.4-1.1-1.1-1.8-2.1-2.3-4-1.9-6 0-6.2 2.3 1.2.7 3.6.4 4.1 2 .1.4.1.7.1 1-.6 1.6-2 2.6-2.1 4.2-1.4-1-2.7-1.7-3.8-1.6-.7.1-.7 1.4-.6 2.8 0 .7.5 1.4 1.2 1.6.5.1 1.1.2 1.8.3.9 0 1.6-.3 2.3-1 .4-1.9.6-3.8 1.6-4.2.2 0 .4-.1.6 0 .8.3.5 1-.1 1.3-.7.4-.9 1.2-.9 1.6 0 .5.4 1.3 1 2 .7-.3 1.4-.5 1.5-1.1.3-1.7 1.2-3.2 1.9-4.6.6-1.3 1.3-3.3-.3-4.3z" fill="url(#SVGID_40_)"/><path class="st33" d="M650.4 346.2c-.5-.7-.7-1.5-.9-2.3-.5-1.4-1.3-2.7-2.2-4-.1-.1-.2-.3-.1-.4.1-.1.3 0 .5.1.6.4 1.1.9 1.4 1.5.2.2.3.5.6.5-.1-.4-.3-.7-.5-1.1-.3-.5-.6-1.1-1-1.6-.1-.1-.1-.2-.1-.4 0-.1.1-.2.1-.3.1-.2.3-.4.4-.6 0-.1.1-.1.2-.1s.2 0 .3.1c.9.6 1.5 1.6 2.1 2.6-.4-.8-.8-1.7-1.2-2.5-.1-.2-.2-.5 0-.6.1-.1.3-.1.5 0 .1.1.2.3.3.4 1.2 1.9 2.1 3.8 2.8 5.9.2-.1.2-.4.3-.6.1-.4.2-.9.3-1.3.1-.3.2-.6.4-.7.2-.2.7-.1.7.2 0 .2 0 .3-.1.5-.4 1.2.4 2.7.3 4-.2 2-3.6 2.9-5.1.7zM656.7 379.6c-.4.5-1.7 1-1.7 1.2 0 .6 1.1.2 1.4.1.7-.3 1.1-1 1.9-.8.6.2 2 1.1 2.4.4.4-.7.4-1.8-.1-2.5-1.3-.5-2.7-1.5-3.3-1.6-.7-.1-4.2 1.5-5.2 3.3-.2.3-.2.5.2.7.6.4 3.1-1 4.4-.8z"/><linearGradient id="SVGID_41_" gradientUnits="userSpaceOnUse" x1="712.513" y1="361.377" x2="658.68" y2="377.71"><stop offset="0" stop-color="#138c77"/><stop offset="1" stop-color="#35eae7"/></linearGradient><path d="M683.8 360.1c-2.5 1.6-3.9 6.7-7.2 15.7-4 .7-10.7 1.9-16 2.1v2.8c5.6 1.9 16.2 2.1 19.7.5 4.6-5.7 10.6-14.1 10.3-19.2-.6-1.7-4.2-3.6-6.8-1.9z" fill="url(#SVGID_41_)"/></g><g><path class="st33" d="M502.9 421.2l1.5 3.8-3 1.9-1.5-4z"/><linearGradient id="SVGID_42_" gradientUnits="userSpaceOnUse" x1="483.79" y1="405.323" x2="515.68" y2="405.323"><stop offset="0" stop-color="#3a35ea"/><stop offset="1" stop-color="#131a8c"/></linearGradient><path d="M522.5 386.2c-1 0-25.7.7-35.5 2.4-3 .5-7.1 1.7-3 9.6 2.8 5.5 12.1 20.7 16.3 26.2l3.4-1.8c-2.8-7.7-6.3-19.4-10.7-24.9h26.6c5.1-2.6 5.7-8.3 2.9-11.5z" fill="url(#SVGID_42_)"/><path class="st33" d="M489.4 423.3l-1 4.5 3.4.2 1.2-4.5z"/><linearGradient id="SVGID_43_" gradientUnits="userSpaceOnUse" x1="503.357" y1="389.525" x2="523.472" y2="389.525"><stop offset="0" stop-color="#3a35ea"/><stop offset="1" stop-color="#131a8c"/></linearGradient><path fill="url(#SVGID_43_)" d="M504.2 386.1l-.8 6.9 17.6-2.8 2.5-4.1z"/><linearGradient id="SVGID_44_" gradientUnits="userSpaceOnUse" x1="488.647" y1="405.687" x2="524.194" y2="405.687"><stop offset="0" stop-color="#3a35ea"/><stop offset="1" stop-color="#131a8c"/></linearGradient><path d="M492.7 397.7c.5-3.3.8-7.6 3.9-9 6.2-1.9 26.2-2.6 26.8-2.6 1.3 3.8 1 9-2.2 11.6h-19.5c.1 6.9-5.2 19.1-9 27.6h-4.2c.8-5.8 2.6-19.7 4.2-27.6z" fill="url(#SVGID_44_)"/><path class="st56" d="M504.5 424.3l-3.6 2.4c1.1 2.9-1 3.4-2.1 3.6-.7.1-2.8-.2-2.8 1.8h7c1.2-.5 2.1-1.3 2.3-3.1l1.2.9 2.2-1.4c-1.2-1.8-2.9-3-4.2-4.2zM484.6 430.1c1.1-.2 3-1.5 3.5-3.7h4.4c.4 1.7.9 3.6.9 5.6h-2.6l-.5-1.4-1.2 1.4h-6.5c-.1-1.9 1.3-1.8 2-1.9z"/><g><linearGradient id="SVGID_45_" gradientUnits="userSpaceOnUse" x1="516.877" y1="374.271" x2="465.786" y2="354.126"><stop offset="0" stop-color="#ff9e40"/><stop offset="1" stop-color="#fff768"/></linearGradient><path d="M523.7 384.3c-1.3-6.1-5.7-25.8-6.5-26.9-3.7-5.6-10.2-5.9-12.3-6.1-1.9-.2-3.6 1.5-4.8 3.6-.7.7-1.3 1.7-1.6 2.4-1.4 3-2.2 5.3-1.4 17.6-3.7.7-8.9 1.9-14.2 2-.7 0-2.8-.3-3.1.6-.4 1.4 2.6 2.5 3.5 2.8 4.9 1.6 14.2 2.2 17.8-1.2.7-.7 1.6-2.7 2.4-5.4.9 2 1.5 3.5 1.6 4 0 0-.9 5.1-1.1 8 0 .1 0 .4.2.4h19.3c.3 0 .4-.8.2-1.8z" fill="url(#SVGID_45_)"/><linearGradient id="SVGID_46_" gradientUnits="userSpaceOnUse" x1="520.899" y1="361.587" x2="495.215" y2="378.804"><stop offset="0" stop-color="#ff9e40"/><stop offset="1" stop-color="#fff768"/></linearGradient><path d="M493.9 372c.5-.8 2.4 0 3.1.1 5 1.1 10.1 1.3 13.9 1.5-4.2-10-4.1-12.3-3.8-15.4.2-2.1 4.2-3.7 6.3-.8 4.2 7.1 3.5 10.3 3.9 17.7.1 2.1-1.6 4-3.3 4.5-4.5 1.2-13.2-1.5-17.4-4.1-.7-.4-3.4-2.2-2.7-3.5z" fill="url(#SVGID_46_)"/><path class="st33" d="M490.5 368.9c.1-.1.1-.2.1-.2l-3.4-2 .1-.6 4.1 1.4c.9.3 1.7 1.1 2.3 1.8.4.4 2.3 2.3 2.5 2.8.2 1 0 2-.7 2.3-1.3.6-3.1-.4-4-1.2-.7-.6-2.1-2.6-2.2-.7-1.4.1-.7-2-.2-2.5.4-.3 1.1-.6 1.4-1.1zM476.7 376.4c1.8-.7 4.4-.2 5.3.2.9.5 1.3 1.1 1.4 1.8.1 1.1-.3 1.1-1.2 1.5-.5.2-1.2.6-1.8.8l-.8-.7h.1c-.5-1.1-1.6-2-2.5-1.8-1 .2-2.4 1.2-3.4 1.4-.3.1-.4-.3-.5-.4 1.3-.5 1.9-2.2 3.4-2.8z"/><path class="st33" d="M477.2 381c.2-.8 1.8-.7 2.5-.9l.7.7c-1.2.5-2.4.8-3.2.2zM499.7 348.6c-.2-.6-.3-1.2-.1-1.8h4c.8 1.7 1.9 3.4 3.4 4.7.2.2.5.4.7.5-.5 1.2-2.1 2.2-4.9 3-.5-.6-.9-1.3-1.2-1.9-.8-1.4-1.5-2.9-1.9-4.5z"/><path class="st33" d="M507.4 343.9c-1.1 4.4-2.6 4.7-4.9 6.1-1.1.6-3.2 1.4-4.3.7-1.3-.9-.6-3.8-.5-5.1.2-2.5-.2-6.1 2.8-6.8 3.1-.7 8 .8 6.9 5.1z"/><linearGradient id="SVGID_47_" gradientUnits="userSpaceOnUse" x1="508.685" y1="346.037" x2="496.531" y2="338.405"><stop offset="0" stop-color="#633225"/><stop offset="1" stop-color="#8c5b4d"/></linearGradient><path d="M504.9 344.7c.4.2.4 1.1.3 1.4-.3.9-1.3 1.2-1.1 2.2.1.6.5 1.2.9 1.6.3.3 1.2.8 1.2 0 0-.3-.3-.6-.3-.9 0-.9 4.9-4.9 3.3-7.8-.4-.7-1.1-.9-1.8-1.2-.6-1-1-2.7-4.4-2.9-2-.1-2.6 1.4-5.5 1-.4-.1-.7-.1-.9.2-.6.9 0 3.9 4.8 3.9 1.1 0 1.3.2 1.5 1.2.3 1.1-.5 2.8-.5 2.8 1.3.5 1.5-2 2.5-1.5z" fill="url(#SVGID_47_)"/></g></g><g><path class="st60" d="M558.8 421.2l2.4 3.6-2.6 1.8-2.7-3.6z"/><linearGradient id="SVGID_48_" gradientUnits="userSpaceOnUse" x1="538.262" y1="405.323" x2="580.163" y2="405.323"><stop offset="0" stop-color="#34495e"/><stop offset="1" stop-color="#1d2a36"/></linearGradient><path d="M578.5 386.2c-1 0-25.7.7-35.5 2.4-3 .5-7.1 1.7-3 9.6 2.8 5.5 12.1 20.7 16.3 26.2l3.2-2.6c-2.8-7.7-6.2-18.5-10.6-24h26.6c5.2-2.7 5.8-8.4 3-11.6z" fill="url(#SVGID_48_)"/><linearGradient id="SVGID_49_" gradientUnits="userSpaceOnUse" x1="559.332" y1="389.525" x2="579.447" y2="389.525"><stop offset="0" stop-color="#131a8c"/><stop offset="1" stop-color="#3a35ea"/></linearGradient><path fill="url(#SVGID_49_)" d="M560.1 386.1l-.8 6.9 17.6-2.8 2.5-4.1z"/><path class="st60" d="M568.3 421.4l1 4.2-3 .9-1.3-4.3z"/><linearGradient id="SVGID_50_" gradientUnits="userSpaceOnUse" x1="552.242" y1="404.874" x2="580.184" y2="404.874"><stop offset="0" stop-color="#34495e"/><stop offset="1" stop-color="#1d2a36"/></linearGradient><path d="M579.5 386.1c-.7 0-20.7.7-26.8 2.6-2.8 4.1 10.1 30.4 12.3 35l3.8-1.4c-1-7.5-2.6-17.9-5.1-24.6h13.6c3.2-2.6 3.4-7.9 2.2-11.6z" fill="url(#SVGID_50_)"/><linearGradient id="SVGID_51_" gradientUnits="userSpaceOnUse" x1="552.236" y1="428.124" x2="564.359" y2="428.124"><stop offset="0" stop-color="#34495e"/><stop offset="1" stop-color="#1d2a36"/></linearGradient><path d="M561 424.2l-3.3 2.2c1.1 2.9-1.6 3.8-2.7 3.9-.7.1-2.8-.2-2.8 1.8h7c1.2-.5 2.1-1.3 2.3-3.1l1.2.9 1.6-1.1c-1-1.8-2-3.5-3.3-4.6z" fill="url(#SVGID_51_)"/><linearGradient id="SVGID_52_" gradientUnits="userSpaceOnUse" x1="560.387" y1="428.276" x2="572.51" y2="428.276"><stop offset="0" stop-color="#34495e"/><stop offset="1" stop-color="#1d2a36"/></linearGradient><path d="M569.3 424.5l-3.5 1.2c1.1 2.9-1.5 4.5-2.6 4.6-.7.1-2.8-.2-2.8 1.8h7c1.2-.5 2.1-1.3 2.3-3.1l1.2.9 1.6-1.1c-1.1-1.8-1.9-3.1-3.2-4.3z" fill="url(#SVGID_52_)"/><g><linearGradient id="SVGID_53_" gradientUnits="userSpaceOnUse" x1="570.395" y1="368.946" x2="511.548" y2="368.946"><stop offset="0" stop-color="#287fff"/><stop offset="1" stop-color="#68defd"/></linearGradient><path d="M580 386.1c-.2-1.4-5.9-27.4-6.9-28.6-2.8-3.8-10.1-5.6-12.2-5.6-2 0-3.7 1.4-4.9 3.3 0 .1-.1.1-.1.2-2.1 2.6-3.5 4.7-5.6 17.6-3.7.8-8.6 2-13.7 2.3-.7 0-2.8-.2-3 .7-.4 1.4 2.7 2.5 3.5 2.7 11.3 1.9 16.9-.6 18.9-4.7.6-1.1 1.3-2.3 1.8-3.5 1.6 3.7 3.1 6.6 3.2 7.3 0 0-1 5.5-1.1 8.4H580z" fill="url(#SVGID_53_)"/><path class="st60" d="M556.9 346.9h5.1c.2 1.6 1.4 5.8 1.4 5.8-.3.8-2.4 1.7-4.8 2.5-.1-2.7-1.8-6.3-1.7-8.3z"/><path class="st60" d="M564.6 343.4c-1.1 4.4-2.7 4.7-5 6-1.1.6-3.2 1.4-4.3.6-1.3-.9-.5-3.8-.4-5.1.2-2.5-.1-6.1 2.9-6.8 3.1-.6 8 .9 6.8 5.3z"/><linearGradient id="SVGID_54_" gradientUnits="userSpaceOnUse" x1="558.318" y1="334.434" x2="565.056" y2="345.508"><stop offset="0" stop-color="#34495e"/><stop offset="1" stop-color="#1d2a36"/></linearGradient><path d="M568.6 342.8c.1-.6-.2-1.9-1.9-1.9 1.1-.4 2.3-1.4 1.9-2.3-.5-1-2.9-1-4-.6.5-.2 2-1.6 1.1-2.3-1-.8-3.2.1-4.5 1.1.3-.5.7-1.3.2-1.7-.8-.7-3.5.7-4.3 1.5.1-.2.1-1.2-.1-1.2-.2-.1-.5.1-.7.3-.7.6-1.4 1.5-1.7 2.4-.6 1.7-.5 3.7.8 3.5 4.9-.8 5.2 3.4 5.4 3.9.6-.5.8-1.1 1.1-1 1.1.5-.5 3.5.4 5.6.7-3.1 5.8-5.4 6.3-7.3z" fill="url(#SVGID_54_)"/><path class="st60" d="M535.8 372.3c-.5.3-1.3 1.1-1.3 1.1-.3.4.6.5 1.1.4.4-.1.8.1.7.5-.1.3-4.2-.8-4 .4.2 1.5.9 3.8 2 4.1.9.3 2.4.4 3.2 0 1-.6 1.5-2.2 1.4-3.1-.2-.6-1.6-4.1-3.1-3.4z"/><path class="st31" d="M531 378.2l-.2.8.7-.4 5.7-8.2-.6-.4z"/><path class="st60" d="M533.1 374.1c.3.4.8.6 1.2 1 .2.1.7.6.5.9-.1.1-.4.1-.6.1-.6 0-1.2 0-1.7-.4-.5-.3-.7-1-.4-1.5.2-.2 1-.1 1-.1z"/><g><path class="st60" d="M552 379.1c-.6.6-1.1 1.1-1.6 1.8-.4.5-.9 1-1.2 1.5-.1.3-.1.4.2.5.5.1 1-.2 1.4-.5.5-.3 1-.6 1.5-.8-.1.2-.3.3-.3.4-.4.8.1.7.6.3.6-.4.9-.7 1.5-.9 1.4-.6 3.1.3 4.4-.5 3-1.6-3.8-4.5-6.5-1.8z"/><linearGradient id="SVGID_55_" gradientUnits="userSpaceOnUse" x1="575.466" y1="360.269" x2="543.91" y2="389.454"><stop offset="0" stop-color="#287fff"/><stop offset="1" stop-color="#68defd"/></linearGradient><path d="M570.2 355.4c-2.9-2.7-5.1 1-5.8 3-1.1 3.1-1.7 5.4.4 17.3-1.9.3-4.8 1.5-7.2 2.3l.5 3.4c2.7-.3 11.3 1.4 12.3-4.2 1.3-7.3 2.3-14-.2-21.8z" fill="url(#SVGID_55_)"/></g><g><path class="st69" d="M534.5 376.5c-.7 0-1.5-.2-1.5-.2-.1 0-.2-.2-.1-.3 0-.1.2-.2.3-.1.4.1 1.5.3 1.7.2v-.1c-.1-.2-.7-.6-.9-.7-.1 0-.2-.2-.2-.3 0-.1.2-.2.3-.2.3.1 1 .6 1.2 1 .2.3 0 .5 0 .6-.1.1-.4.1-.8.1z"/></g><g><path class="st69" d="M535.8 379.2c-.1 0-.1 0-.2-.1s-.1-.3 0-.4v-.1c-.1-.1-.2-.3-.3-.5-.1-.1-.2-.3-.3-.4-.1-.2-.1-.4-.2-.6v-.3c0-.1-.1-.2-.3-.3-.1-.1-.2-.2-.1-.3.1-.1.2-.2.3-.1.2.1.5.3.6.6 0 .1 0 .2.1.4 0 .2 0 .3.1.4l.3.3c.2.2.3.4.4.6.1.2 0 .4-.1.6-.2.2-.2.2-.3.2z"/></g></g></g><g><path class="st10" d="M679 432h1.5l-8.3-48.5h-1.5z"/><path class="st31" d="M671.2 386.5l1.4-1-.4-2h-1.5z"/><path class="st10" d="M471.4 432h-1.5l8.3-48.5h1.5z"/><path class="st31" d="M479.2 386.5l-1.4-1 .4-2h1.5z"/><path class="st10" d="M464.2 383.5h222c.6 0 1.1-.5 1.1-1.1 0-.6-.5-1.1-1.1-1.1h-222c-.6 0-1.1.5-1.1 1.1 0 .6.5 1.1 1.1 1.1z"/></g><g><path class="st31" d="M468.5 381.2h18.6c.6 0 .9-.5.7-1l-3.5-12.8c-.2-.6-.7-1-1.3-1h-18.6c-.6 0-.9.5-.7 1l3.5 12.8c.1.6.7 1 1.3 1z"/><path class="st31" d="M472.1 381.2h22.5c.4 0 .7-.3.7-.7 0-.4-.3-.7-.7-.7h-22.5c-.4 0-.7.3-.7.7 0 .4.3.7.7.7z"/><path class="st10" d="M467.1 381.2h18.6c.6 0 .9-.5.7-1l-3.5-12.8c-.2-.6-.7-1-1.3-1H463c-.6 0-.9.5-.7 1l3.5 12.8c.2.6.7 1 1.3 1z"/><path class="st32" d="M473.3 372l-.1.3c-.1.2-.2.4-.5.4h-.3c-.6.1-.7.8-.1 1.3l.3.2c.2.2.4.4.4.7v.3c0 .6.8 1.1 1.3.8l.2-.1c.2-.1.5-.1.7 0l.3.1c.6.3 1.2-.2.9-.8l-.1-.3c-.1-.2-.1-.5.1-.7l.2-.2c.3-.4-.1-1.2-.7-1.3h-.3c-.3 0-.5-.2-.7-.4l-.2-.3c-.5-.6-1.2-.6-1.4 0z"/></g><g><path class="st31" d="M528.5 381.2H547c.6 0 .9-.5.7-1l-3.5-12.8c-.2-.6-.7-1-1.3-1h-18.6c-.6 0-.9.5-.7 1l3.5 12.8c.2.6.8 1 1.4 1z"/><path class="st31" d="M532.1 381.2h22.5c.4 0 .7-.3.7-.7 0-.4-.3-.7-.7-.7h-22.5c-.4 0-.7.3-.7.7-.1.4.3.7.7.7z"/><path class="st10" d="M527.1 381.2h18.6c.6 0 .9-.5.7-1l-3.5-12.8c-.2-.6-.7-1-1.3-1H523c-.6 0-.9.5-.7 1l3.5 12.8c.1.6.7 1 1.3 1z"/><path class="st32" d="M533.3 372l-.1.3c-.1.2-.2.4-.5.4h-.3c-.6.1-.7.8-.1 1.3l.3.2c.2.2.4.4.4.7v.3c0 .6.8 1.1 1.3.8l.2-.1c.2-.1.5-.1.7 0l.3.1c.6.3 1.2-.2.9-.8l-.1-.3c-.1-.2-.1-.5.1-.7l.2-.2c.3-.4-.1-1.2-.7-1.3h-.3c-.3 0-.5-.2-.7-.4l-.2-.3c-.5-.6-1.3-.6-1.4 0z"/></g><g><path class="st31" d="M647.4 381.2H666c.6 0 .9-.5.7-1l-3.5-12.8c-.2-.6-.7-1-1.3-1h-18.6c-.6 0-.9.5-.7 1l3.5 12.8c.2.6.8 1 1.3 1z"/><path class="st31" d="M651 381.2h22.5c.4 0 .7-.3.7-.7 0-.4-.3-.7-.7-.7H651c-.4 0-.7.3-.7.7 0 .4.3.7.7.7z"/><path class="st10" d="M646 381.2h18.6c.6 0 .9-.5.7-1l-3.5-12.8c-.2-.6-.7-1-1.3-1h-18.6c-.6 0-.9.5-.7 1l3.5 12.8c.2.6.8 1 1.3 1z"/><path class="st32" d="M652.2 372l-.1.3c-.1.2-.2.4-.5.4h-.3c-.6.1-.7.8-.1 1.3l.3.2c.2.2.4.4.4.7v.3c0 .6.8 1.1 1.3.8l.2-.1c.2-.1.5-.1.7 0l.3.1c.6.3 1.2-.2.9-.8l-.1-.3c-.1-.2-.1-.5.1-.7l.2-.2c.3-.4-.1-1.2-.7-1.3h-.3c-.3 0-.5-.2-.7-.4l-.2-.3c-.4-.6-1.2-.6-1.4 0z"/></g><g><path d="M589.8 376.8h17.3v.7h-1.3v3h1.3v.7h-17.3c-1.2 0-2.2-1-2.2-2.2s.9-2.2 2.2-2.2z" fill="#3934e7"/><path class="st23" d="M595.1 380.5h11.1v-3h-11.1c-.8 0-1.5.7-1.5 1.5s.6 1.5 1.5 1.5z"/><g><path d="M602.4 372.4h-17.3v.7h1.3v3h-1.3v.7h17.3c1.2 0 2.2-1 2.2-2.2 0-1.2-1-2.2-2.2-2.2z" fill="#dc4e6f"/><path class="st23" d="M597.1 376.1h-11v-3h11c.8 0 1.5.7 1.5 1.5s-.7 1.5-1.5 1.5z"/></g></g></g><g><linearGradient id="SVGID_56_" gradientUnits="userSpaceOnUse" x1="625.664" y1="231.162" x2="625.664" y2="157.776"><stop offset=".003" stop-color="#a757a1"/><stop offset="1" stop-color="#3850a2"/></linearGradient><path d="M643.8 231.2h-36.3c-3.9 0-7-3.1-7-7v-59.4c0-3.9 3.1-7 7-7h36.3c3.9 0 7 3.1 7 7v59.4c0 3.8-3.1 7-7 7z" fill="url(#SVGID_56_)"/><circle transform="rotate(-76.714 600.978 157.77)" class="st10" cx="600.9" cy="157.8" r="22.8"/><linearGradient id="SVGID_57_" gradientUnits="userSpaceOnUse" x1="600.929" y1="146.493" x2="600.929" y2="168.56"><stop offset=".003" stop-color="#f1ce41"/><stop offset="1" stop-color="#e73d25"/></linearGradient><path d="M611.3 164.1c-.3-.4-5.1-2-6.4-2.9h-.1c2.1-1.8 3.5-4.7 3.5-7.4 0-4-3.3-7.3-7.3-7.3s-7.3 3.3-7.3 7.3c0 2.6 1.4 5.6 3.5 7.4h-.1c-1.3.9-6.2 2.5-6.4 2.9-.8 1.4-1.4 2.9-1.9 4.4h24.4c-.5-1.5-1.1-3-1.9-4.4z" fill="url(#SVGID_57_)"/><path class="st10" d="M607.2 187.6c-1.1 0-2-.9-2-2s.9-2 2-2 2 .9 2 2c.1 1.1-.9 2-2 2zm0-3.1c-.6 0-1 .5-1 1 0 .6.5 1 1 1 .6 0 1-.5 1-1 .1-.5-.4-1-1-1zM633.1 186.1h-21.9c-.3 0-.5-.2-.5-.5s.2-.5.5-.5h21.9c.3 0 .5.2.5.5 0 .2-.2.5-.5.5zM645.6 193.6h-31.9c-.3 0-.5-.2-.5-.5s.2-.5.5-.5h31.9c.3 0 .5.2.5.5 0 .2-.2.5-.5.5zM645.6 197.6h-31.9c-.3 0-.5-.2-.5-.5s.2-.5.5-.5h31.9c.3 0 .5.2.5.5 0 .2-.2.5-.5.5zM607.2 211.8c-1.1 0-2-.9-2-2s.9-2 2-2 2 .9 2 2c.1 1.1-.9 2-2 2zm0-3.1c-.6 0-1 .5-1 1 0 .6.5 1 1 1 .6 0 1-.5 1-1 .1-.5-.4-1-1-1zM633.1 210.2h-21.9c-.3 0-.5-.2-.5-.5s.2-.5.5-.5h21.9c.3 0 .5.2.5.5s-.2.5-.5.5zM645.6 217.7h-31.9c-.3 0-.5-.2-.5-.5s.2-.5.5-.5h31.9c.3 0 .5.2.5.5s-.2.5-.5.5zM645.6 221.7h-31.9c-.3 0-.5-.2-.5-.5s.2-.5.5-.5h31.9c.3 0 .5.2.5.5s-.2.5-.5.5z"/><g><linearGradient id="SVGID_58_" gradientUnits="userSpaceOnUse" x1="653.279" y1="146.385" x2="653.279" y2="134.563"><stop offset=".003" stop-color="#f1ce41"/><stop offset="1" stop-color="#e73d25"/></linearGradient><path d="M673.9 146.4h-41.2c-3.3 0-5.9-2.6-5.9-5.9s2.6-5.9 5.9-5.9h41.2c3.3 0 5.9 2.6 5.9 5.9s-2.6 5.9-5.9 5.9z" fill="url(#SVGID_58_)"/><path class="st10" d="M635.5 143c-1.4 0-2.5-1.1-2.5-2.5s1.1-2.5 2.5-2.5 2.5 1.1 2.5 2.5-1.1 2.5-2.5 2.5zm0-4c-.8 0-1.5.7-1.5 1.5s.7 1.5 1.5 1.5 1.5-.7 1.5-1.5-.7-1.5-1.5-1.5zM655.2 141h-12.7c-.3 0-.5-.2-.5-.5s.2-.5.5-.5h12.7c.3 0 .5.2.5.5s-.2.5-.5.5zM661.6 141h-3.9c-.3 0-.5-.2-.5-.5s.2-.5.5-.5h3.9c.3 0 .5.2.5.5s-.2.5-.5.5zM673 141h-8.9c-.3 0-.5-.2-.5-.5s.2-.5.5-.5h8.9c.3 0 .5.2.5.5s-.2.5-.5.5z"/><g><linearGradient id="SVGID_59_" gradientUnits="userSpaceOnUse" x1="641.272" y1="117.583" x2="641.272" y2="129.405"><stop offset=".003" stop-color="#a757a1"/><stop offset="1" stop-color="#3850a2"/></linearGradient><path d="M661.9 129.4h-41.2c-3.3 0-5.9-2.6-5.9-5.9 0-3.3 2.6-5.9 5.9-5.9h41.2c3.3 0 5.9 2.6 5.9 5.9 0 3.3-2.6 5.9-5.9 5.9z" fill="url(#SVGID_59_)"/><path class="st10" d="M623.5 126c-1.4 0-2.5-1.1-2.5-2.5s1.1-2.5 2.5-2.5 2.5 1.1 2.5 2.5-1.1 2.5-2.5 2.5zm0-4c-.8 0-1.5.7-1.5 1.5s.7 1.5 1.5 1.5 1.5-.7 1.5-1.5-.7-1.5-1.5-1.5zM640.7 124h-10.2c-.3 0-.5-.2-.5-.5s.2-.5.5-.5h10.2c.3 0 .5.2.5.5s-.2.5-.5.5zM657.1 124h-13.9c-.3 0-.5-.2-.5-.5s.2-.5.5-.5h13.9c.3 0 .5.2.5.5s-.2.5-.5.5zM661 124h-1.4c-.3 0-.5-.2-.5-.5s.2-.5.5-.5h1.4c.3 0 .5.2.5.5s-.2.5-.5.5z"/></g></g><path class="st76" d="M597.3 173.3c-.5 0-.9.4-.9.9s.4.9.9.9.9-.4.9-.9-.4-.9-.9-.9zm3.6 0c-.5 0-.9.4-.9.9s.4.9.9.9.9-.4.9-.9-.4-.9-.9-.9zm3.6 0c-.5 0-.9.4-.9.9s.4.9.9.9.9-.4.9-.9-.4-.9-.9-.9z"/><g><path class="st10" d="M584.7 218.2h-41.2c-3.3 0-5.9-2.6-5.9-5.9s2.6-5.9 5.9-5.9h41.2c3.3 0 5.9 2.6 5.9 5.9s-2.6 5.9-5.9 5.9z"/><path class="st77" d="M546.3 214.7c-1.4 0-2.5-1.1-2.5-2.5s1.1-2.5 2.5-2.5 2.5 1.1 2.5 2.5-1.1 2.5-2.5 2.5zm0-3.9c-.8 0-1.5.7-1.5 1.5s.7 1.5 1.5 1.5 1.5-.7 1.5-1.5c0-.9-.6-1.5-1.5-1.5zM566.1 212.7h-12.7c-.3 0-.5-.2-.5-.5s.2-.5.5-.5h12.7c.3 0 .5.2.5.5s-.3.5-.5.5zM572.4 212.7h-3.9c-.3 0-.5-.2-.5-.5s.2-.5.5-.5h3.9c.3 0 .5.2.5.5s-.2.5-.5.5zM583.8 212.7h-8.9c-.3 0-.5-.2-.5-.5s.2-.5.5-.5h8.9c.3 0 .5.2.5.5s-.2.5-.5.5z"/></g><g><path class="st10" d="M584.7 201.1H566c-3.3 0-5.9-2.6-5.9-5.9s2.6-5.9 5.9-5.9h18.7c3.3 0 5.9 2.6 5.9 5.9s-2.6 5.9-5.9 5.9z"/><path class="st76" d="M579.2 196.6h-11.4c-.7 0-1.3-.6-1.3-1.3 0-.7.6-1.3 1.3-1.3h11.4c.7 0 1.3.6 1.3 1.3 0 .7-.6 1.3-1.3 1.3z"/><linearGradient id="SVGID_60_" gradientUnits="userSpaceOnUse" x1="580.538" y1="198.984" x2="580.538" y2="191.488"><stop offset=".003" stop-color="#a757a1"/><stop offset="1" stop-color="#3850a2"/></linearGradient><circle cx="580.5" cy="195.2" r="3.7" fill="url(#SVGID_60_)"/></g><g><linearGradient id="SVGID_61_" gradientUnits="userSpaceOnUse" x1="620.347" y1="310.25" x2="620.347" y2="280.567"><stop offset=".003" stop-color="#f1ce41"/><stop offset="1" stop-color="#e73d25"/></linearGradient><path d="M664.6 310.3H576c-8.2 0-14.8-6.6-14.8-14.8 0-8.2 6.6-14.8 14.8-14.8h88.6c8.2 0 14.8 6.6 14.8 14.8.1 8.1-6.6 14.8-14.8 14.8z" fill="url(#SVGID_61_)"/><path class="st10" d="M585 301.4c-3.3 0-6-2.7-6-6s2.7-6 6-6 6 2.7 6 6-2.7 6-6 6zm0-11c-2.8 0-5 2.3-5 5 0 2.8 2.3 5 5 5 2.8 0 5-2.3 5-5 0-2.8-2.2-5-5-5zM661.2 291.3h-64.4c-.3 0-.5-.2-.5-.5s.2-.5.5-.5h64.4c.3 0 .5.2.5.5s-.2.5-.5.5zM661.2 295.9h-64.4c-.3 0-.5-.2-.5-.5s.2-.5.5-.5h64.4c.3 0 .5.2.5.5s-.2.5-.5.5zM642.9 300.5h-46c-.3 0-.5-.2-.5-.5s.2-.5.5-.5h46c.3 0 .5.2.5.5s-.3.5-.5.5z"/></g><g><linearGradient id="SVGID_62_" gradientUnits="userSpaceOnUse" x1="586.181" y1="242.801" x2="586.181" y2="272.485"><stop offset="0" stop-color="#4f3292"/><stop offset=".997" stop-color="#00bbc5"/></linearGradient><path d="M630.5 272.5h-88.6c-8.2 0-14.8-6.6-14.8-14.8 0-8.2 6.6-14.8 14.8-14.8h88.6c8.2 0 14.8 6.6 14.8 14.8 0 8.1-6.6 14.8-14.8 14.8z" fill="url(#SVGID_62_)"/><path class="st10" d="M550.8 263.7c-3.3 0-6-2.7-6-6s2.7-6 6-6 6 2.7 6 6-2.7 6-6 6zm0-11.1c-2.8 0-5 2.3-5 5 0 2.8 2.3 5 5 5 2.8 0 5-2.3 5-5s-2.2-5-5-5zM627.1 255.9h-64.4c-.3 0-.5-.2-.5-.5s.2-.5.5-.5h64.4c.3 0 .5.2.5.5s-.2.5-.5.5zM608.1 260.4h-45.4c-.3 0-.5-.2-.5-.5s.2-.5.5-.5h45.4c.3 0 .5.2.5.5s-.2.5-.5.5z"/></g></g><g><path class="st10" d="M350.1 337.5h-26.4c-.8 0-1.4-.6-1.4-1.4v-35.3h-59.2v36.4c0 2.9 2.4 5.3 5.3 5.3h81.8c1.5 0 2.6-1.3 2.5-2.8-.1-1.3-1.3-2.2-2.6-2.2z"/><path class="st32" d="M323.3 337.8H295c-.1 0-.3-.1-.3-.3 0-.1.1-.3.3-.3h28.3c.1 0 .3.1.3.3 0 .2-.1.3-.3.3z"/><linearGradient id="SVGID_63_" gradientUnits="userSpaceOnUse" x1="276.498" y1="300.174" x2="276.498" y2="341.442"><stop offset="0" stop-color="#4f3292"/><stop offset=".997" stop-color="#00bbc5"/></linearGradient><path d="M291.6 337.5h-26.4c-.8 0-1.4-.6-1.4-1.4v-35.3h-5v36.4c0 2.9 2.4 5.3 5.3 5.3h27.6c1.5 0 2.6-1.3 2.5-2.8-.1-1.3-1.3-2.2-2.6-2.2z" fill="url(#SVGID_63_)"/><linearGradient id="SVGID_64_" gradientUnits="userSpaceOnUse" x1="288.073" y1="283.949" x2="288.073" y2="102.839"><stop offset="0" stop-color="#4f3292"/><stop offset=".997" stop-color="#00bbc5"/></linearGradient><path d="M420.3 300.8H155.9c-3.5 0-6.3-2.8-6.3-6.3V112.8c0-3.5 2.8-6.3 6.3-6.3h264.4c3.5 0 6.3 2.8 6.3 6.3v181.7c0 3.5-2.9 6.3-6.3 6.3z" fill="url(#SVGID_64_)"/><path class="st10" d="M425.3 300.8H160.9c-3.5 0-6.3-2.8-6.3-6.3V112.8c0-3.5 2.8-6.3 6.3-6.3h264.4c3.5 0 6.3 2.8 6.3 6.3v181.7c0 3.5-2.9 6.3-6.3 6.3z"/><path d="M154.6 275.8v18.7c0 3.5 2.8 6.3 6.3 6.3h264.4c3.5 0 6.3-2.8 6.3-6.3v-18.7h-277z" fill="#6383db"/><linearGradient id="SVGID_65_" gradientUnits="userSpaceOnUse" x1="154.573" y1="288.296" x2="431.573" y2="288.296"><stop offset=".003" stop-color="#00bbc5"/><stop offset="1" stop-color="#4f3292"/></linearGradient><path d="M154.6 275.8v18.7c0 3.5 2.8 6.3 6.3 6.3h264.4c3.5 0 6.3-2.8 6.3-6.3v-18.7h-277z" fill="url(#SVGID_65_)"/><path class="st32" d="M160.6 269.8V114.5c0-1.1.9-2 2-2h261.1c1.1 0 2 .9 2 2v155.3H160.6z"/><path d="M425.6 137.7h-265v-23.2c0-1.1.9-2 2-2h261.1c1.1 0 2 .9 2 2v23.2z" fill="#c0d9fd"/><path class="st32" d="M284.5 128.7H221c-2 0-3.6-1.6-3.6-3.6s1.6-3.6 3.6-3.6h63.5c2 0 3.6 1.6 3.6 3.6s-1.6 3.6-3.6 3.6z"/><path class="st10" d="M284.5 128.7h-5.6v-7.2h5.6c2 0 3.6 1.6 3.6 3.6s-1.6 3.6-3.6 3.6z"/><path class="st86" d="M374 125.3h-34.7c-.1 0-.3-.1-.3-.3s.1-.3.3-.3H374c.1 0 .3.1.3.3s-.1.3-.3.3zM389.5 125.3h-13c-.1 0-.3-.1-.3-.3s.1-.3.3-.3h13c.1 0 .3.1.3.3s-.2.3-.3.3zM399.3 128.4c-1.8 0-3.3-1.5-3.3-3.3 0-1.8 1.5-3.3 3.3-3.3s3.3 1.5 3.3 3.3c0 1.8-1.5 3.3-3.3 3.3zm0-6.1c-1.6 0-2.8 1.3-2.8 2.8 0 1.6 1.3 2.8 2.8 2.8 1.5 0 2.8-1.3 2.8-2.8 0-1.6-1.3-2.8-2.8-2.8z"/><path class="st87" d="M213.8 125.2l-2.3 1.1c-.1 0-.2 0-.2-.1v-.1l.5-1.1-.5-1.1c0-.1 0-.2.1-.2h.1l2.3 1.1c.1.2.1.2 0 .4.1 0 0 0 0 0z"/><linearGradient id="SVGID_66_" gradientUnits="userSpaceOnUse" x1="205.469" y1="125.476" x2="206.208" y2="125.476"><stop offset="0" stop-color="#3b469c"/><stop offset="1" stop-color="#2a3072"/></linearGradient><path d="M205.5 125.5c0 .2.1.2.4.2h.3v-.4h-.3c-.3-.1-.4 0-.4.2z" fill="url(#SVGID_66_)"/><linearGradient id="SVGID_67_" gradientUnits="userSpaceOnUse" x1="200.466" y1="125.476" x2="201.206" y2="125.476"><stop offset="0" stop-color="#3b469c"/><stop offset="1" stop-color="#2a3072"/></linearGradient><path d="M200.5 125.5c0 .2.1.2.4.2h.3v-.4h-.3c-.3-.1-.4 0-.4.2z" fill="url(#SVGID_67_)"/><linearGradient id="SVGID_68_" gradientUnits="userSpaceOnUse" x1="195.844" y1="125.124" x2="196.721" y2="125.124"><stop offset="0" stop-color="#3b469c"/><stop offset="1" stop-color="#2a3072"/></linearGradient><path d="M195.8 125.1c0 .4.2.6.5.6h.3v-1.1h-.3c-.3 0-.5.2-.5.5z" fill="url(#SVGID_68_)"/><path class="st91" d="M209.5 125.1c0-1 .3-1.9.9-2.6-.6-.5-1.3-.8-2.2-.8h-21.1c-1.8 0-3.3 1.5-3.3 3.3v.4c0 1.8 1.5 3.3 3.3 3.3h21.1c.9 0 1.6-.3 2.2-.9-.6-.8-.9-1.7-.9-2.7zm-22 1.2c-.2 0-.4-.2-.4-.4s.2-.4.4-.4.4.2.4.4c.1.2-.1.4-.4.4zm4.5 0h-.8v-1.4c0-.2-.1-.3-.3-.3-.1 0-.2 0-.3.1V126.3h-.8v-1.4c0-.2-.1-.3-.3-.3h-.3v1.7h-.8V124c.4-.1.9-.1 1.1-.1.3 0 .5 0 .7.2.2-.1.4-.2.7-.2.6 0 1.1.2 1.1.9v1.5zm2.7-.1c0 .7-.5 1-1.1 1-.3 0-.6-.1-.8-.1l-.2-.7c.2.1.6.1.8.1.4 0 .5-.1.5-.4h-.4c-.6 0-1.1-.2-1.1-.9v-1.3h.7v1.3c0 .2.1.3.4.3h.4v-1.6h.7v2.3zm2.8 0c-.3.1-.7.2-1.1.2-.8 0-1.3-.5-1.3-1.3s.5-1.2 1.3-1.2h.3v-1h.8v3.3zm2-1.6h-.8v1.6h-.7V124c.4-.1.8-.1 1-.1h.5v.7zm2.5 1.6c-.3.1-.7.1-1.1.1-.7 0-1.1-.2-1.1-.8 0-.5.4-.8 1-.8h.5c0-.2-.2-.3-.5-.3s-.6.1-.9.1l.2-.7c.2 0 .6-.1.8-.1.9 0 1.1.3 1.1.9v1.6zm1.4.1c-.4 0-.7-.1-1.1-.2l.2-.6c.3.1.6.2.8.2.2 0 .4 0 .4-.1s-.1-.1-.4-.2c-.1 0-.1 0-.2-.1-.5-.1-.7-.4-.7-.8s.4-.7 1-.7c.4 0 .7.1 1 .2l-.2.6c-.2-.1-.5-.2-.7-.2-.2 0-.3 0-.3.1s.1.1.3.2h.2c.5.1.8.4.8.8-.1.6-.4.8-1.1.8zm3.6-.1c-.3.1-.7.1-1.1.1-.7 0-1.1-.2-1.1-.8 0-.5.4-.8 1-.8h.5c0-.2-.2-.3-.5-.3s-.6.1-.9.1l.2-.7c.2 0 .6-.1.8-.1.9 0 1.1.3 1.1.9v1.6z"/><g><linearGradient id="SVGID_69_" gradientUnits="userSpaceOnUse" x1="183.795" y1="125.094" x2="213.905" y2="125.094"><stop offset="0" stop-color="#3b469c"/><stop offset="1" stop-color="#2a3072"/></linearGradient><path d="M213.8 125.2l-2.3 1.1c-.1 0-.2 0-.2-.1v-.1l.5-1.1-.5-1.1c0-.1 0-.2.1-.2h.1l2.3 1.1c.1.2.1.2 0 .4.1 0 0 0 0 0z" fill="url(#SVGID_69_)"/><linearGradient id="SVGID_70_" gradientUnits="userSpaceOnUse" x1="183.795" y1="125.094" x2="213.905" y2="125.094"><stop offset="0" stop-color="#3b469c"/><stop offset="1" stop-color="#2a3072"/></linearGradient><path d="M205.5 125.5c0 .2.1.2.4.2h.3v-.4h-.3c-.3-.1-.4 0-.4.2z" fill="url(#SVGID_70_)"/><linearGradient id="SVGID_71_" gradientUnits="userSpaceOnUse" x1="183.795" y1="125.094" x2="213.905" y2="125.094"><stop offset="0" stop-color="#3b469c"/><stop offset="1" stop-color="#2a3072"/></linearGradient><path d="M200.5 125.5c0 .2.1.2.4.2h.3v-.4h-.3c-.3-.1-.4 0-.4.2z" fill="url(#SVGID_71_)"/><linearGradient id="SVGID_72_" gradientUnits="userSpaceOnUse" x1="183.795" y1="125.094" x2="213.905" y2="125.094"><stop offset="0" stop-color="#3b469c"/><stop offset="1" stop-color="#2a3072"/></linearGradient><path d="M195.8 125.1c0 .4.2.6.5.6h.3v-1.1h-.3c-.3 0-.5.2-.5.5z" fill="url(#SVGID_72_)"/><linearGradient id="SVGID_73_" gradientUnits="userSpaceOnUse" x1="183.795" y1="125.094" x2="213.905" y2="125.094"><stop offset="0" stop-color="#3b469c"/><stop offset="1" stop-color="#2a3072"/></linearGradient><path d="M209.5 125.1c0-1 .3-1.9.9-2.6-.6-.5-1.3-.8-2.2-.8h-21.1c-1.8 0-3.3 1.5-3.3 3.3v.4c0 1.8 1.5 3.3 3.3 3.3h21.1c.9 0 1.6-.3 2.2-.9-.6-.8-.9-1.7-.9-2.7zm-22 1.2c-.2 0-.4-.2-.4-.4s.2-.4.4-.4.4.2.4.4c.1.2-.1.4-.4.4zm4.5 0h-.8v-1.4c0-.2-.1-.3-.3-.3-.1 0-.2 0-.3.1V126.3h-.8v-1.4c0-.2-.1-.3-.3-.3h-.3v1.7h-.8V124c.4-.1.9-.1 1.1-.1.3 0 .5 0 .7.2.2-.1.4-.2.7-.2.6 0 1.1.2 1.1.9v1.5zm2.7-.1c0 .7-.5 1-1.1 1-.3 0-.6-.1-.8-.1l-.2-.7c.2.1.6.1.8.1.4 0 .5-.1.5-.4h-.4c-.6 0-1.1-.2-1.1-.9v-1.3h.7v1.3c0 .2.1.3.4.3h.4v-1.6h.7v2.3zm2.8 0c-.3.1-.7.2-1.1.2-.8 0-1.3-.5-1.3-1.3s.5-1.2 1.3-1.2h.3v-1h.8v3.3zm2-1.6h-.8v1.6h-.7V124c.4-.1.8-.1 1-.1h.5v.7zm2.5 1.6c-.3.1-.7.1-1.1.1-.7 0-1.1-.2-1.1-.8 0-.5.4-.8 1-.8h.5c0-.2-.2-.3-.5-.3s-.6.1-.9.1l.2-.7c.2 0 .6-.1.8-.1.9 0 1.1.3 1.1.9v1.6zm1.4.1c-.4 0-.7-.1-1.1-.2l.2-.6c.3.1.6.2.8.2.2 0 .4 0 .4-.1s-.1-.1-.4-.2c-.1 0-.1 0-.2-.1-.5-.1-.7-.4-.7-.8s.4-.7 1-.7c.4 0 .7.1 1 .2l-.2.6c-.2-.1-.5-.2-.7-.2-.2 0-.3 0-.3.1s.1.1.3.2h.2c.5.1.8.4.8.8-.1.6-.4.8-1.1.8zm3.6-.1c-.3.1-.7.1-1.1.1-.7 0-1.1-.2-1.1-.8 0-.5.4-.8 1-.8h.5c0-.2-.2-.3-.5-.3s-.6.1-.9.1l.2-.7c.2 0 .6-.1.8-.1.9 0 1.1.3 1.1.9v1.6z" fill="url(#SVGID_73_)"/></g><g><path class="st86" d="M185.3 159.7c-1 0-1.8-.8-1.8-1.8s.8-1.8 1.8-1.8 1.8.8 1.8 1.8-.8 1.8-1.8 1.8zm0-3.1c-.7 0-1.3.6-1.3 1.3 0 .7.6 1.3 1.3 1.3.7 0 1.3-.6 1.3-1.3 0-.7-.6-1.3-1.3-1.3zM218.7 158.1h-29.4c-.1 0-.3-.1-.3-.3s.1-.3.3-.3h29.4c.1 0 .3.1.3.3s-.1.3-.3.3zM185.3 167.2c-1 0-1.8-.8-1.8-1.8s.8-1.8 1.8-1.8 1.8.8 1.8 1.8-.8 1.8-1.8 1.8zm0-3.1c-.7 0-1.3.6-1.3 1.3 0 .7.6 1.3 1.3 1.3.7 0 1.3-.6 1.3-1.3 0-.7-.6-1.3-1.3-1.3zM218.7 165.6h-29.4c-.1 0-.3-.1-.3-.3s.1-.3.3-.3h29.4c.1 0 .3.1.3.3s-.1.3-.3.3zM185.3 174.7c-1 0-1.8-.8-1.8-1.8s.8-1.8 1.8-1.8 1.8.8 1.8 1.8-.8 1.8-1.8 1.8zm0-3.1c-.7 0-1.3.6-1.3 1.3 0 .7.6 1.3 1.3 1.3.7 0 1.3-.6 1.3-1.3 0-.7-.6-1.3-1.3-1.3zM218.7 173.1h-29.4c-.1 0-.3-.1-.3-.3s.1-.3.3-.3h29.4c.1 0 .3.1.3.3s-.1.3-.3.3zM185.3 201.6c-1 0-1.8-.8-1.8-1.8s.8-1.8 1.8-1.8 1.8.8 1.8 1.8-.8 1.8-1.8 1.8zm0-3c-.7 0-1.3.6-1.3 1.3 0 .7.6 1.3 1.3 1.3.7 0 1.3-.6 1.3-1.3 0-.8-.6-1.3-1.3-1.3zM218.7 200.1h-29.4c-.1 0-.3-.1-.3-.3 0-.1.1-.3.3-.3h29.4c.1 0 .3.1.3.3 0 .2-.1.3-.3.3zM185.3 209.1c-1 0-1.8-.8-1.8-1.8s.8-1.8 1.8-1.8 1.8.8 1.8 1.8-.8 1.8-1.8 1.8zm0-3c-.7 0-1.3.6-1.3 1.3 0 .7.6 1.3 1.3 1.3.7 0 1.3-.6 1.3-1.3 0-.8-.6-1.3-1.3-1.3zM218.7 207.6h-29.4c-.1 0-.3-.1-.3-.3 0-.1.1-.3.3-.3h29.4c.1 0 .3.1.3.3 0 .2-.1.3-.3.3zM185.3 216.6c-1 0-1.8-.8-1.8-1.8s.8-1.8 1.8-1.8 1.8.8 1.8 1.8-.8 1.8-1.8 1.8zm0-3c-.7 0-1.3.6-1.3 1.3 0 .7.6 1.3 1.3 1.3.7 0 1.3-.6 1.3-1.3 0-.8-.6-1.3-1.3-1.3zM218.7 215.1h-29.4c-.1 0-.3-.1-.3-.3 0-.1.1-.3.3-.3h29.4c.1 0 .3.1.3.3 0 .2-.1.3-.3.3z"/><path class="st97" d="M206 151.4h-20.5c-.9 0-1.7-.8-1.7-1.7 0-.9.8-1.7 1.7-1.7H206c.9 0 1.7.8 1.7 1.7 0 .9-.7 1.7-1.7 1.7zM206 193.3h-20.5c-.9 0-1.7-.8-1.7-1.7 0-.9.8-1.7 1.7-1.7H206c.9 0 1.7.8 1.7 1.7 0 .9-.7 1.7-1.7 1.7z"/><path class="st86" d="M185.3 243.6c-1 0-1.8-.8-1.8-1.8s.8-1.8 1.8-1.8 1.8.8 1.8 1.8-.8 1.8-1.8 1.8zm0-3.1c-.7 0-1.3.6-1.3 1.3 0 .7.6 1.3 1.3 1.3.7 0 1.3-.6 1.3-1.3 0-.7-.6-1.3-1.3-1.3zM218.7 242h-29.4c-.1 0-.3-.1-.3-.3 0-.1.1-.3.3-.3h29.4c.1 0 .3.1.3.3 0 .2-.1.3-.3.3zM185.3 251.1c-1 0-1.8-.8-1.8-1.8s.8-1.8 1.8-1.8 1.8.8 1.8 1.8-.8 1.8-1.8 1.8zm0-3.1c-.7 0-1.3.6-1.3 1.3 0 .7.6 1.3 1.3 1.3.7 0 1.3-.6 1.3-1.3 0-.7-.6-1.3-1.3-1.3zM218.7 249.5h-29.4c-.1 0-.3-.1-.3-.3 0-.1.1-.3.3-.3h29.4c.1 0 .3.1.3.3 0 .2-.1.3-.3.3zM185.3 258.6c-1 0-1.8-.8-1.8-1.8s.8-1.8 1.8-1.8 1.8.8 1.8 1.8-.8 1.8-1.8 1.8zm0-3.1c-.7 0-1.3.6-1.3 1.3 0 .7.6 1.3 1.3 1.3.7 0 1.3-.6 1.3-1.3 0-.7-.6-1.3-1.3-1.3zM218.7 257h-29.4c-.1 0-.3-.1-.3-.3 0-.1.1-.3.3-.3h29.4c.1 0 .3.1.3.3 0 .2-.1.3-.3.3z"/><path class="st97" d="M206 235.3h-20.5c-.9 0-1.7-.8-1.7-1.7 0-.9.8-1.7 1.7-1.7H206c.9 0 1.7.8 1.7 1.7 0 .9-.7 1.7-1.7 1.7z"/></g><g><path class="st97" d="M313.6 194.7h-52.8c-.1 0-.3-.1-.3-.3 0-.1.1-.3.3-.3h52.8c.1 0 .3.1.3.3 0 .2-.1.3-.3.3zM313.6 198.7h-52.8c-.1 0-.3-.1-.3-.3 0-.1.1-.3.3-.3h52.8c.1 0 .3.1.3.3 0 .2-.1.3-.3.3zM313.6 202.7h-52.8c-.1 0-.3-.1-.3-.3 0-.1.1-.3.3-.3h52.8c.1 0 .3.1.3.3 0 .2-.1.3-.3.3zM293.6 206.7h-32.8c-.1 0-.3-.1-.3-.3 0-.1.1-.3.3-.3h32.8c.1 0 .3.1.3.3 0 .2-.1.3-.3.3z"/></g><path class="st97" d="M387.9 176.9h-141c-8 0-14.5-6.5-14.5-14.5s6.5-14.5 14.5-14.5h140.9c8 0 14.5 6.5 14.5 14.5s-6.4 14.5-14.4 14.5z"/><circle class="st97" cx="246.4" cy="200.5" r="8.4"/><g><path class="st97" d="M313.6 219.3h-52.8c-.1 0-.3-.1-.3-.3 0-.1.1-.3.3-.3h52.8c.1 0 .3.1.3.3 0 .2-.1.3-.3.3zM313.6 223.3h-52.8c-.1 0-.3-.1-.3-.3 0-.1.1-.3.3-.3h52.8c.1 0 .3.1.3.3 0 .2-.1.3-.3.3zM313.6 227.3h-52.8c-.1 0-.3-.1-.3-.3 0-.1.1-.3.3-.3h52.8c.1 0 .3.1.3.3 0 .2-.1.3-.3.3zM293.6 231.3h-32.8c-.1 0-.3-.1-.3-.3 0-.1.1-.3.3-.3h32.8c.1 0 .3.1.3.3 0 .2-.1.3-.3.3z"/></g><circle class="st97" cx="246.4" cy="225.1" r="8.4"/><g><path class="st97" d="M313.6 243.9h-52.8c-.1 0-.3-.1-.3-.3 0-.1.1-.3.3-.3h52.8c.1 0 .3.1.3.3 0 .2-.1.3-.3.3zM313.6 247.9h-52.8c-.1 0-.3-.1-.3-.3 0-.1.1-.3.3-.3h52.8c.1 0 .3.1.3.3 0 .2-.1.3-.3.3zM313.6 251.9h-52.8c-.1 0-.3-.1-.3-.3 0-.1.1-.3.3-.3h52.8c.1 0 .3.1.3.3 0 .2-.1.3-.3.3zM293.6 255.9h-32.8c-.1 0-.3-.1-.3-.3 0-.1.1-.3.3-.3h32.8c.1 0 .3.1.3.3 0 .2-.1.3-.3.3z"/></g><circle transform="rotate(-45.001 246.408 249.687)" class="st97" cx="246.4" cy="249.7" r="8.4"/><path class="st97" d="M398.7 208.9h-68.5c-2 0-3.7-1.7-3.7-3.7v-9.4c0-2 1.7-3.7 3.7-3.7h68.5c2 0 3.7 1.7 3.7 3.7v9.4c0 2-1.7 3.7-3.7 3.7zM398.7 233.5h-68.5c-2 0-3.7-1.7-3.7-3.7v-9.4c0-2 1.7-3.7 3.7-3.7h68.5c2 0 3.7 1.7 3.7 3.7v9.4c0 2-1.7 3.7-3.7 3.7zM398.7 258.1h-68.5c-2 0-3.7-1.7-3.7-3.7V245c0-2 1.7-3.7 3.7-3.7h68.5c2 0 3.7 1.7 3.7 3.7v9.4c0 2-1.7 3.7-3.7 3.7z"/><g><linearGradient id="SVGID_74_" gradientUnits="userSpaceOnUse" x1="469.711" y1="52.898" x2="469.711" y2="144.474"><stop offset="0" stop-color="#4f3292"/><stop offset=".997" stop-color="#00bbc5"/></linearGradient><path d="M410.6 144.5h118.2c9.8 0 17.8-7.9 17.8-17.8V70.6c0-9.8-7.9-17.8-17.8-17.8H410.6c-9.8 0-17.8 7.9-17.8 17.8v56.1c.1 9.8 8 17.8 17.8 17.8z" fill="url(#SVGID_74_)"/><path class="st10" d="M521 81.3H418.5c-.3 0-.5-.2-.5-.5s.2-.5.5-.5H521c.3 0 .5.2.5.5s-.2.5-.5.5zM521 91H418.5c-.3 0-.5-.2-.5-.5s.2-.5.5-.5H521c.3 0 .5.2.5.5s-.2.5-.5.5zM521 100.7H418.5c-.3 0-.5-.2-.5-.5s.2-.5.5-.5H521c.3 0 .5.2.5.5s-.2.5-.5.5zM521 110.5H418.5c-.3 0-.5-.2-.5-.5s.2-.5.5-.5H521c.3 0 .5.2.5.5s-.2.5-.5.5zM494 120.2h-75.6c-.3 0-.5-.2-.5-.5s.2-.5.5-.5H494c.3 0 .5.2.5.5s-.2.5-.5.5z"/><linearGradient id="SVGID_75_" gradientUnits="userSpaceOnUse" x1="546.577" y1="72.599" x2="546.577" y2="34.187"><stop offset=".003" stop-color="#f1ce41"/><stop offset="1" stop-color="#e73d25"/></linearGradient><circle cx="546.6" cy="53" r="20.3" fill="url(#SVGID_75_)"/><path class="st10" d="M544.3 64.1l-10.2-10.2 3.7-3.7 6.5 6.5 13.5-13.5 3.8 3.7z"/></g><g><linearGradient id="SVGID_76_" gradientUnits="userSpaceOnUse" x1="328.707" y1="232.406" x2="376.388" y2="149.821"><stop offset="0" stop-color="#4f3292"/><stop offset=".134" stop-color="#3c549e"/><stop offset=".31" stop-color="#2679ac"/><stop offset=".486" stop-color="#1696b7"/><stop offset=".661" stop-color="#0aaabf"/><stop offset=".832" stop-color="#02b7c3"/><stop offset=".997" stop-color="#00bbc5"/></linearGradient><path d="M396 247.5c12.5-26 12.1-49.9 9-70.3l-20.6-5c-2.5 12.4-5.9 24.2-9.2 35-9.6-56.5-20-62.6-30.7-73.8-6.9-7.3-24.1-19.3-34.7-.2.5 41.2 19.7 67.7 34.8 99.5 4 8.4 11.4 15.3 20.9 21 10.7 6.8 19.7 6 25.5.9 1.5-1.2 2.7-2.6 3.6-4.4.6-.9 1-1.8 1.4-2.7z" fill="url(#SVGID_76_)"/><linearGradient id="SVGID_77_" gradientUnits="userSpaceOnUse" x1="348.495" y1="142.003" x2="188.939" y2="275.887"><stop offset=".003" stop-color="#00bbc5"/><stop offset="1" stop-color="#4f3292"/></linearGradient><path d="M338.3 130.1c-4-7.3-35.6-22.8-53.7-22.8-13.7 0-59.3 15.7-64 22.4-27.5 30-31.8 62.2-42.7 95.3-4.2 12.9-.9 28.7 5.9 44.7h29.3c-3.5-11.4-5.3-21.1-5.3-28.1 12.2-17.1 20.5-30.3 26.2-40.8 1.9 7.5 3.1 15.1 2.6 23-.9 15.5-4.9 30.8-7.1 45.9h109.3c-1.1-41 11.2-118-.5-139.6z" fill="url(#SVGID_77_)"/><path class="st10" d="M259.3 112.8l40.2 93.6 17.4-90.4c-7.8-3.9-20.1-9.2-29.5-9.3-11.1-.1-18.9 3.1-28.1 6.1z"/><linearGradient id="SVGID_78_" gradientUnits="userSpaceOnUse" x1="294.306" y1="201.25" x2="294.306" y2="126.359"><stop offset="0" stop-color="#e73d25"/><stop offset=".997" stop-color="#f1ce41"/></linearGradient><path fill="url(#SVGID_78_)" d="M295.5 131l6.3-10.6h-18.3l7.6 10.6-4.3 46.1 12.7 29.3 5.6-29.3z"/><path class="st33" d="M301.6 77.9h-25c-.1 10.6-1.1 21.2-2.9 31.4 7.1 10.3 15.8 12.6 28.4 10.3.9-11 .9-28.4-.5-41.7z"/><linearGradient id="SVGID_79_" gradientUnits="userSpaceOnUse" x1="271.136" y1="99.175" x2="290.114" y2="99.175"><stop offset="0" stop-color="#f9b09f" stop-opacity="0"/><stop offset="1" stop-color="#e1a092"/></linearGradient><path d="M301.6 77.9h-25c-.1 10.6-1.1 21.2-2.9 31.4 7.1 10.3 15.8 12.6 28.4 10.3.9-11 .9-28.4-.5-41.7z" fill="url(#SVGID_79_)"/><path class="st10" d="M266.6 113.1l14 23.9 12.4-16.6-18.4-17.4-8 10.1zm41.4.2l-5.3-7.8-9.6 14.9L309 137l-1-23.7z"/><path class="st32" d="M309 137.5c-.1 0-.3-.1-.4-.2l-15.5-16.1-12.1 16.1c-.1.1-.2.2-.4.2s-.3-.1-.4-.2l-14-23.9c-.1-.2-.1-.5.2-.7.2-.1.5-.1.7.2l13.7 23.2 12-16 .1-.1c.1 0 .1-.1.2-.1h.2c.1 0 .1.1.1.1l15 15.6-1-22.4c0-.3.2-.5.5-.5s.5.2.5.5l1 23.7c0 .2-.1.4-.3.5 0 .1 0 .1-.1.1z"/><linearGradient id="SVGID_80_" gradientUnits="userSpaceOnUse" x1="323.916" y1="53.928" x2="314.281" y2="74.232"><stop offset="0" stop-color="#34495e"/><stop offset="1" stop-color="#1d2a36"/></linearGradient><path d="M324.8 65.3c-2.3 10.2-4.7 14.2-10.1 17.3 1.2-6.8.1-27.8 1.7-29.2 4.8-4.1 9.6 6.3 8.4 11.9z" fill="url(#SVGID_80_)"/><path class="st33" d="M286.1 97c3.3 4.2 8.3 8 13.5 6.8 4.3-1 7.1-5.1 9.3-8.9 4-7.2 7.3-14.9 9.6-22.8 1.2-4.1 2.2-8.3 1.5-12.5-1.4-8.5-10.1-14.7-18.8-14.7-11.4-.1-21.2 7.7-23.2 18.7-2.1 11.5.8 24 8.1 33.4z"/><linearGradient id="SVGID_81_" gradientUnits="userSpaceOnUse" x1="318.286" y1="37.007" x2="269.286" y2="75.507"><stop offset="0" stop-color="#34495e"/><stop offset="1" stop-color="#1d2a36"/></linearGradient><path d="M304.2 36.6c-5.5-.3-11.6 2.1-15.7 6.2-3.3-1.8-7.4-.5-10.1 3.2-3.2 4.5-2.8 9.9-3.4 15.1-.7 6-3.3 10.7-1.5 16.8 1 3.4 1.1 8.1 2.6 11.2 1.6-2.4 2.5-4.3 3.6-7.4.6-1.7.8-3.6.4-5.3-1.2-5.2-.6-11.2 1.9-10.6 1.2.3 3 5.5 3.1 7.3l4-4.9c2.1-5.4 3.5-13.4 3.8-14.6.1-.7.2-1.3.2-1.9 11 1.6 16 5 19.3 5.7 5.6 1.3 12.3-1.1 14.7-5.4 3-5.5-2.1-14.1-22.9-15.4z" fill="url(#SVGID_81_)"/><path class="st106" d="M295.6 86.9c-.8 3 .9 6.1 3.9 6.9 3 .8 6.1-.9 6.9-3.9.1-.5-.2-1-.7-1.2l-8.9-2.5c-.5-.1-1 .2-1.2.7z"/><path class="st107" d="M309.6 86.1c-1.3-.4-2.1-1.9-1.7-3.2.4-1.3 1.9-2.1 3.2-1.7 1.3.4 2.1 1.9 1.7 3.2-.4 1.4-1.9 2.2-3.2 1.7zM294.9 82c-1.3-.4-2.1-1.9-1.7-3.2.4-1.3 1.9-2.1 3.2-1.7 1.3.4 2.1 1.9 1.7 3.2-.4 1.4-1.8 2.2-3.2 1.7z"/><g><path class="st108" d="M299.3 72.5c.1-.4.1-.9-.2-1.2-.2-.4-.6-.7-1-.8-.4-.1-.9-.1-1.2.2-.4.2-.6.6-.8 1-.1.4-.5.6-.9.5-.4-.1-.6-.5-.5-.9.2-.8.7-1.4 1.4-1.8.7-.4 1.5-.5 2.3-.3.8.2 1.4.7 1.8 1.4.4.7.5 1.5.3 2.3-.1.4-.5.6-.9.5-.1-.1-.4-.5-.3-.9zM317.3 77.5c.1-.4.1-.9-.2-1.2-.2-.4-.6-.7-1-.8-.4-.1-.9-.1-1.2.2-.4.2-.7.6-.8 1-.1.4-.5.6-.9.5-.4-.1-.6-.5-.5-.9.2-.8.7-1.4 1.4-1.8.7-.4 1.5-.5 2.3-.3.8.2 1.4.7 1.8 1.4.4.7.5 1.5.3 2.3-.1.4-.5.6-.9.5-.2-.1-.4-.5-.3-.9zM297.2 65.9c-.4.1-.7-.2-.8-.5-.1-.4.2-.7.5-.8 1.9-.4 4.1.1 5.5 1.5.3.3.3.7 0 1-.3.3-.7.3-1 0-1-1.1-2.8-1.5-4.2-1.2zM319.4 72c-1.2-1-2.7-1.6-4.2-1.2-.4.1-.7-.1-.8-.5-.1-.4.1-.7.5-.8 1.9-.5 4.1.2 5.5 1.5.3.3.3.7 0 1-.3.3-.7.3-1 0z"/><path class="st108" d="M318.1 69.6c1.9.6 3.4 1.8 4.3 3.5.9 1.6 1.2 3.6.6 5.5s-1.8 3.4-3.5 4.3c-1.6.9-3.6 1.2-5.5.6s-3.4-1.8-4.3-3.5c-.8-1.5-1.1-3.2-.7-5l-5.1-1.5c-.6 1.7-1.8 3-3.3 3.8-1.6.9-3.6 1.2-5.5.6s-3.4-1.8-4.3-3.5c-.8-1.5-1.1-3.2-.7-5l-3-.8.3-1 2.9.8c.6-1.7 1.8-3 3.3-3.8 1.6-.9 3.6-1.2 5.5-.6s3.4 1.8 4.3 3.5c.8 1.5 1.1 3.2.7 5l5.1 1.5c.6-1.7 1.8-3 3.3-3.8 1.8-.9 3.7-1.2 5.6-.6zm-23.9-4c-1.4.8-2.5 2-2.9 3.7-.5 1.6-.2 3.3.5 4.7.8 1.4 2 2.5 3.7 2.9 1.6.5 3.3.2 4.7-.5 1.4-.8 2.5-2 2.9-3.7.5-1.6.2-3.3-.5-4.7-.8-1.4-2-2.5-3.7-2.9-1.6-.5-3.3-.2-4.7.5zm16 9.2c-.5 1.6-.2 3.3.5 4.7.8 1.4 2 2.5 3.7 2.9 1.6.5 3.3.2 4.7-.5 1.4-.8 2.5-2 2.9-3.7.5-1.6.2-3.3-.5-4.7-.8-1.4-2-2.5-3.7-2.9-1.6-.5-3.3-.2-4.7.5-1.3.8-2.4 2.1-2.9 3.7z"/></g><g class="st109"><path class="st10" d="M299.5 206.9c-.1 0-.3-.1-.4-.2l-40.4-42.9c-.2-.2-.2-.5 0-.7l7.1-8.3-18.3-12.5c-.2-.1-.3-.3-.2-.6l7-24.1c.1-.3.4-.4.6-.3.3.1.4.4.3.6l-6.9 23.8 18.4 12.6c.1.1.2.2.2.3 0 .1 0 .3-.1.4l-7.2 8.4 40.1 42.6c.2.2.2.5 0 .7.1.1 0 .2-.2.2z"/></g><g class="st109"><path class="st10" d="M299.5 206.9c-.1 0-.2 0-.3-.1-.2-.2-.3-.5-.1-.7l28.4-42.6-9.6-8.5c-.1-.1-.2-.2-.2-.4 0-.1.1-.3.2-.4l14.9-12.5-13.4-23.8c-.1-.2-.1-.5.2-.7.2-.1.5-.1.7.2l13.6 24.1c.1.2.1.5-.1.6L319 154.7l9.4 8.4c.2.2.2.4.1.7l-28.6 42.9c-.1.1-.2.2-.4.2z"/></g><g class="st109"><path class="st10" d="M233.4 202.7c-.1 0-.2 0-.2-.1-.2-.1-.3-.4-.2-.7 5.5-9.8 9.1-18.3 11.2-26.2.1-.3.3-.4.6-.4.3.1.4.3.4.6-2.1 8-5.8 16.6-11.3 26.5-.2.2-.4.3-.5.3z"/></g><g class="st109"><path class="st10" d="M298.1 269.9c-.3 0-.5-.2-.5-.5l1.4-55.5c0-.3.2-.5.5-.5s.5.2.5.5l-1.4 55.5c0 .3-.2.5-.5.5z"/></g><g><path class="st110" d="M288.2 226.3c-2.4 0-4.4-2-4.4-4.4 0-2.4 2-4.4 4.4-4.4s4.4 2 4.4 4.4c.1 2.4-1.9 4.4-4.4 4.4zm0-7.8c-1.9 0-3.4 1.5-3.4 3.4s1.5 3.4 3.4 3.4 3.4-1.5 3.4-3.4c.1-1.9-1.5-3.4-3.4-3.4z"/></g><g><path class="st110" d="M288.2 245.7c-2.4 0-4.4-2-4.4-4.4 0-2.4 2-4.4 4.4-4.4s4.4 2 4.4 4.4c.1 2.4-1.9 4.4-4.4 4.4zm0-7.8c-1.9 0-3.4 1.5-3.4 3.4s1.5 3.4 3.4 3.4 3.4-1.5 3.4-3.4c.1-1.9-1.5-3.4-3.4-3.4z"/></g><g><path class="st110" d="M288.2 265.1c-2.4 0-4.4-2-4.4-4.4 0-2.4 2-4.4 4.4-4.4s4.4 2 4.4 4.4c.1 2.4-1.9 4.4-4.4 4.4zm0-7.8c-1.9 0-3.4 1.5-3.4 3.4s1.5 3.4 3.4 3.4 3.4-1.5 3.4-3.4c.1-1.9-1.5-3.4-3.4-3.4z"/></g><g><path class="st33" d="M383.8 140c2.6-11 7.1-27.5 8.9-32.9 2.2 0 3.8 2.2 4 4.4.3 2.2-1.4 13.9-1.5 20.1 6.8.9 16 4.5 19.5 8.7 3 4.3-2.1 7.5-3.6 8.1-.4 1.8-4.2 14.8-8.2 16.1-4.3 1.4-9.9.9-14.1-.6-4.6-5.4-10.3-20-5-23.9z"/><path class="st111" d="M390.8 162.7c-.3 0-.5-.2-.5-.5s.2-.5.5-.5c.7-.1 1.3-.5 1.8-.8 2.5-1.8 4-4.5 3.9-7-.2-3.1-2.6-5.7-5.2-8.1-.1-.1-.2-.2-.2-.4 0-.1.1-.3.2-.4 1.7-1.3 3.3-2.6 4.8-4 .7-.6 1.3-1.2 1.6-1.9.3-.7.3-1.4.1-1.9-4.7-.6-9.7.5-13.6 3.1-.2.2-.5.1-.7-.1-.2-.2-.1-.5.1-.7 4.2-2.8 9.5-4 14.5-3.3.1 0 .3.1.3.2.6.8.6 2 .1 3.1-.4.9-1.1 1.5-1.8 2.2-1.4 1.3-2.9 2.6-4.4 3.7 2.5 2.4 4.9 5.1 5 8.4.1 2.9-1.5 5.9-4.3 7.9-.5.4-1.3.9-2.2 1z"/><path class="st111" d="M409.1 149.3c-.1 0-.2 0-.3-.1-4.5-2.6-8.6-4.6-12-5.8-.3-.1-.4-.4-.3-.6.1-.3.4-.4.6-.3 3.5 1.2 7.6 3.2 12.2 5.9.2.1.3.4.2.7-.1.1-.2.2-.4.2z"/></g><path class="st10" d="M402.9 165.6l-16.7-4c-.6 3.6-1.2 7.1-1.9 10.6l20.6 5c-.5-4-1.2-7.9-2-11.6z"/></g></g><g><linearGradient id="SVGID_82_" gradientUnits="userSpaceOnUse" x1="148.636" y1="260.947" x2="3.439" y2="406.144"><stop offset="0" stop-color="#4f3292"/><stop offset=".997" stop-color="#00bbc5"/></linearGradient><path d="M117.1 235H35c-7.5 0-13.7 6.2-13.7 13.7v169.7c0 7.5 6.2 13.7 13.7 13.7h82c7.5 0 13.7-6.2 13.7-13.7V248.7c0-7.5-6.1-13.7-13.6-13.7" fill-rule="evenodd" clip-rule="evenodd" fill="url(#SVGID_82_)"/><path class="st113" d="M117.1 246.5c3.9 0 7.2 3.2 7.2 7.2v140.2c0 3.9-3.2 7.2-7.2 7.2H35c-3.9 0-7.2-3.2-7.2-7.2V253.7c0-3.9 3.2-7.2 7.2-7.2h82.1z"/><path class="st106" d="M82.2 242c.5 0 .9-.4.9-.9s-.4-.9-.9-.9h-16c-.5 0-.9.4-.9.9s.4.9.9.9h16zm2.9-1.7c-.5 0-.9.4-.9.9s.4.9.9.9h.7c.5 0 .9-.4.9-.9s-.4-.9-.9-.9h-.7z"/><path class="st113" d="M71.3 412.3H82c2.8 0 5.1 2.3 5.1 5.1s-2.3 5.1-5.1 5.1H71.3c-2.8 0-5.1-2.3-5.1-5.1s2.3-5.1 5.1-5.1"/><path class="st106" d="M112.9 292.9H41.6c-1 0-1.8.7-1.8 1.5s.8 1.5 1.8 1.5h71.2c1 0 1.8-.7 1.8-1.5s-.7-1.5-1.7-1.5M65.5 278.7H41.4c-.9 0-1.5.7-1.5 1.5 0 .9.7 1.5 1.5 1.5h24.1c.9 0 1.5-.7 1.5-1.5.1-.8-.6-1.5-1.5-1.5zM112.9 285.8H41.6c-1 0-1.8.7-1.8 1.5s.8 1.5 1.8 1.5h71.2c1 0 1.8-.7 1.8-1.5.1-.8-.7-1.5-1.7-1.5M112.9 299.9H41.6c-1 0-1.8.7-1.8 1.5s.8 1.5 1.8 1.5h71.2c1 0 1.8-.7 1.8-1.5.1-.8-.7-1.5-1.7-1.5M112.9 307.2H41.6c-1 0-1.8.7-1.8 1.5s.8 1.5 1.8 1.5h71.2c1 0 1.8-.7 1.8-1.5.1-.8-.7-1.5-1.7-1.5M112.9 328.9H73.6c-1 0-1.8.7-1.8 1.5s.8 1.5 1.8 1.5h39.3c1 0 1.8-.7 1.8-1.5s-.8-1.5-1.8-1.5M112.9 321.8H73.6c-1 0-1.8.7-1.8 1.5s.8 1.5 1.8 1.5h39.3c1 0 1.8-.7 1.8-1.5s-.8-1.5-1.8-1.5M112.9 335.9H73.6c-1 0-1.8.7-1.8 1.5s.8 1.5 1.8 1.5h39.3c1 0 1.8-.7 1.8-1.5s-.8-1.5-1.8-1.5M112.9 343.3H73.6c-1 0-1.8.7-1.8 1.5s.8 1.5 1.8 1.5h39.3c1 0 1.8-.7 1.8-1.5s-.8-1.5-1.8-1.5"/><path class="st114" d="M60.5 334.9c-1.7 2.2-3.4 5.2-4 7.3-.1.2-.2.3-.4.4h-5.6c-.3-.1-.4-.3-.5-.5-.6-2-4.7-8.3-4.6-8.3-.8-1.4-1.3-2.9-1.3-4.6 0-5 4.1-9.1 9.2-9.1s9.2 4.1 9.2 9.1c0 1.7-.5 3.2-1.3 4.6-.2.4-.4.7-.7 1.1"/><path class="st106" d="M55.1 334c.1-1.4 1.1-1.4 1.2-.4 0 .2 0 .4-.1.7-.1.2-.5.4-1.2.5l.1-.8zm-3.6 0c-.1-1.4-1.1-1.4-1.2-.4 0 .2 0 .4.1.7.1.2.5.4 1.2.5l-.1-.8zm1.7 1.6h.2c.4 0 .7 0 1.1-.1v7h.6v-7.1c.9-.2 1.6-.5 1.7-1 .1-.3.1-.6.1-1 0-.3-.1-.6-.3-.8-.1-.2-.3-.4-.6-.5-1-.2-1.6.8-1.6 1.8v.8c-.4 0-.8.1-1.2.1-.4 0-.8 0-1.2-.1v-.8c.1-1-.6-2-1.6-1.8-.2.1-.4.3-.6.5-.2.2-.3.5-.3.8 0 .3 0 .7.1 1 .1.5.8.8 1.7 1v7.1h.6v-7c.6.1 1 .1 1.3.1z"/><path class="st115" d="M55.6 342.6h-4.4c-.6 0-1.1.5-1.1 1.1 0 .6.5 1.1 1.1 1.1h.2c.1 0 .1.1.1.1 0 .1 0 .1-.1.1-.4 0-.6.3-.6.7 0 .4.3.7.7.7h.4c.1 0 .1.1.1.1 0 .1 0 .1-.1.1-.2.1-.4.3-.4.7 0 .4.3.7.7.7h2.6c.4 0 .7-.3.7-.7 0-.3-.3-.6-.6-.7-.1 0-.1-.1-.1-.1 0-.1 0-.1.1-.1h.5c.4 0 .7-.3.7-.7 0-.4-.3-.7-.7-.7-.1 0-.1-.1-.1-.1 0-.1 0-.1.1-.1h.3c.6 0 1.1-.5 1.1-1.1 0-.6-.5-1.1-1.2-1.1"/><path class="st116" d="M50.7 322.3c.5-.2 1 0 1.2.4.2.5 0 1-.4 1.2-1.1.5-2.1 1.4-2.8 2.5-.7 1.1-1.2 2.4-1.3 3.6 0 .5-.4.9-.9.8-.5 0-.9-.4-.8-.9.1-1.6.7-3.2 1.6-4.5.7-1.4 2-2.5 3.4-3.1"/><path class="st106" d="M88.1 361.4h21.4c1.5 0 2.7 1.2 2.7 2.7v19.2c0 1.5-1.2 2.7-2.7 2.7H88.1c-1.5 0-2.7-1.2-2.7-2.7v-19.2c0-1.5 1.2-2.7 2.7-2.7"/><path class="st114" d="M105.8 368.6c-1.7 2.2-3.4 5.2-4 7.3-.1.2-.2.3-.4.4h-5.6c-.3-.1-.4-.3-.5-.5-.6-2-4.7-8.3-4.6-8.3-.8-1.4-1.3-2.9-1.3-4.6 0-5 4.1-9.1 9.2-9.1s9.2 4.1 9.2 9.1c0 1.7-.5 3.2-1.3 4.6-.3.3-.5.7-.7 1.1"/><path class="st106" d="M100.4 367.7c.1-1.4 1.1-1.4 1.2-.4 0 .2 0 .4-.1.7-.1.2-.5.4-1.2.5l.1-.8zm-3.6 0c-.1-1.4-1.1-1.4-1.2-.4 0 .2 0 .4.1.7.1.2.5.4 1.2.5l-.1-.8zm1.6 1.6h.2c.4 0 .7 0 1.1-.1v7h.6v-7.1c.9-.2 1.6-.5 1.7-1 .1-.3.1-.6.1-1 0-.3-.1-.6-.3-.8-.1-.2-.3-.4-.6-.5-1-.2-1.6.8-1.6 1.8v.8c-.4 0-.8.1-1.2.1-.4 0-.8 0-1.2-.1v-.8c.1-1-.6-2-1.6-1.8-.2.1-.4.3-.6.5-.2.2-.3.5-.3.8 0 .3 0 .7.1 1 .1.5.8.8 1.7 1v7.1h.6v-7c.6.1 1 .1 1.3.1z"/><path class="st115" d="M100.9 376.2h-4.4c-.6 0-1.1.5-1.1 1.1 0 .6.5 1.1 1.1 1.1h.2c.1 0 .1.1.1.1 0 .1 0 .1-.1.1-.4 0-.6.3-.6.7 0 .4.3.7.7.7h.4c.1 0 .1.1.1.1 0 .1 0 .1-.1.1-.2.1-.4.3-.4.7 0 .4.3.7.7.7h2.6c.4 0 .7-.3.7-.7 0-.3-.3-.6-.6-.7-.1 0-.1-.1-.1-.1 0-.1 0-.1.1-.1h.5c.4 0 .7-.3.7-.7 0-.4-.3-.7-.7-.7-.1 0-.1-.1-.1-.1 0-.1 0-.1.1-.1h.3c.6 0 1.1-.5 1.1-1.1-.1-.5-.6-1.1-1.2-1.1"/><path class="st116" d="M95.9 355.9c.5-.2 1 0 1.2.4.2.5 0 1-.4 1.2-1.1.5-2.1 1.4-2.8 2.5-.7 1.1-1.2 2.4-1.3 3.6 0 .5-.4.9-.9.8-.5 0-.9-.4-.8-.9.1-1.6.7-3.2 1.6-4.5.8-1.3 2-2.4 3.4-3.1"/><path class="st106" d="M78 368.4H41.7c-.9 0-1.7.7-1.7 1.5s.8 1.5 1.7 1.5H78c.9 0 1.7-.7 1.7-1.5-.1-.8-.8-1.5-1.7-1.5M78 361.3H41.7c-.9 0-1.7.7-1.7 1.5s.8 1.5 1.7 1.5H78c.9 0 1.7-.7 1.7-1.5-.1-.8-.8-1.5-1.7-1.5M78 375.4H41.7c-.9 0-1.7.7-1.7 1.5s.8 1.5 1.7 1.5H78c.9 0 1.7-.7 1.7-1.5-.1-.8-.8-1.5-1.7-1.5M78 382.7H41.7c-.9 0-1.7.7-1.7 1.5s.8 1.5 1.7 1.5H78c.9 0 1.7-.7 1.7-1.5-.1-.8-.8-1.5-1.7-1.5"/><path class="st87" d="M99 264.2l-4.5 2.2c-.1.1-.3 0-.4-.1v-.3l.9-2.1-.9-2.1c-.1-.2 0-.3.2-.4h.3l4.5 2.2c.1.1.2.3.1.4l-.2.2z"/><linearGradient id="SVGID_83_" gradientUnits="userSpaceOnUse" x1="82.563" y1="264.732" x2="84.019" y2="264.732"><stop offset="0" stop-color="#3b469c"/><stop offset="1" stop-color="#2a3072"/></linearGradient><path d="M82.6 264.7c0 .3.3.5.8.5.2 0 .5 0 .7-.1v-.8c-.2 0-.4-.1-.7-.1-.6.1-.8.2-.8.5z" fill="url(#SVGID_83_)"/><linearGradient id="SVGID_84_" gradientUnits="userSpaceOnUse" x1="72.716" y1="264.732" x2="74.172" y2="264.732"><stop offset="0" stop-color="#3b469c"/><stop offset="1" stop-color="#2a3072"/></linearGradient><path d="M72.7 264.7c0 .3.3.5.8.5.2 0 .5 0 .7-.1v-.8c-.2 0-.4-.1-.7-.1-.5.1-.8.2-.8.5z" fill="url(#SVGID_84_)"/><linearGradient id="SVGID_85_" gradientUnits="userSpaceOnUse" x1="63.616" y1="264.04" x2="65.343" y2="264.04"><stop offset="0" stop-color="#3b469c"/><stop offset="1" stop-color="#2a3072"/></linearGradient><path d="M63.6 264c0 .7.4 1.1 1.1 1.1h.7V263c-.2 0-.5-.1-.7-.1-.7 0-1.1.5-1.1 1.1z" fill="url(#SVGID_85_)"/><path class="st91" d="M90.5 263.9c0-2 .7-3.8 1.8-5.2-1.1-1-2.6-1.6-4.3-1.6H46.4c-3.6 0-6.5 2.9-6.5 6.5v.8c0 3.6 2.9 6.5 6.5 6.5H88c1.7 0 3.2-.6 4.4-1.7-1.2-1.5-1.9-3.3-1.9-5.3zm-43.3 2.5c-.5 0-.9-.4-.9-.9s.4-.9.9-.9.9.4.9.9-.4.9-.9.9zm8.8-.1h-1.5v-2.7c0-.4-.1-.7-.6-.7-.2 0-.4.1-.6.2V266.2h-1.5v-2.7c0-.5-.3-.7-.7-.7-.2 0-.4 0-.6.1v3.3H49v-4.5c.8-.1 1.7-.2 2.1-.2.5 0 1 .1 1.3.3.4-.2.9-.3 1.4-.3 1.2 0 2.1.4 2.1 1.8v3zm5.4-.2c0 1.4-1 2-2.2 2-.6 0-1.2-.1-1.5-.2l-.3-1.4c.5.2 1.1.2 1.5.2.8 0 1.1-.2 1.1-.7-.3 0-.6.1-.8.1-1.3 0-2.1-.4-2.1-1.8v-2.6h1.5v2.5c0 .5.3.6.7.6.3 0 .6 0 .8-.1v-3.1h1.5v4.5zm5.4 0c-.6.2-1.4.4-2.1.4-1.6 0-2.6-.9-2.6-2.5s1-2.5 2.6-2.5h.6v-2h1.5v6.6zm4-3.1h-1.4v3.2h-1.5v-4.4c.7-.2 1.6-.2 2-.2h.9v1.4zm4.9 3.1c-.6.2-1.5.3-2.2.3-1.4 0-2.3-.5-2.3-1.6 0-1 .8-1.5 2-1.5.3 0 .6 0 1 .1 0-.4-.3-.6-1.1-.6-.5 0-1.1.1-1.7.3l.4-1.4c.4-.1 1.1-.2 1.7-.2 1.7 0 2.2.6 2.2 1.7v2.9zm2.7.3c-.7 0-1.4-.1-2.1-.4l.4-1.1c.6.2 1.1.3 1.6.3s.8 0 .8-.2-.1-.2-.7-.4c-.1 0-.3-.1-.4-.1-1-.2-1.4-.8-1.4-1.6 0-.9.7-1.4 1.9-1.4.7 0 1.5.2 1.9.4L80 263c-.4-.2-.9-.3-1.3-.3s-.6 0-.6.2.2.2.7.4c.1 0 .2.1.3.1 1 .3 1.5.8 1.5 1.5-.1 1-.7 1.5-2.2 1.5zm7.1-.3c-.6.2-1.5.3-2.2.3-1.4 0-2.3-.5-2.3-1.6 0-1 .8-1.5 2-1.5.3 0 .6 0 1 .1 0-.4-.3-.6-1.1-.6-.5 0-1.1.1-1.7.3l.4-1.4c.4-.1 1.1-.2 1.7-.2 1.7 0 2.2.6 2.2 1.7v2.9z"/><g><linearGradient id="SVGID_86_" gradientUnits="userSpaceOnUse" x1="39.896" y1="263.98" x2="99.172" y2="263.98"><stop offset="0" stop-color="#3b469c"/><stop offset="1" stop-color="#2a3072"/></linearGradient><path d="M99 264.2l-4.5 2.2c-.1.1-.3 0-.4-.1v-.3l.9-2.1-.9-2.1c-.1-.2 0-.3.2-.4h.3l4.5 2.2c.1.1.2.3.1.4l-.2.2z" fill="url(#SVGID_86_)"/><linearGradient id="SVGID_87_" gradientUnits="userSpaceOnUse" x1="39.896" y1="263.98" x2="99.172" y2="263.98"><stop offset="0" stop-color="#3b469c"/><stop offset="1" stop-color="#2a3072"/></linearGradient><path d="M82.6 264.7c0 .3.3.5.8.5.2 0 .5 0 .7-.1v-.8c-.2 0-.4-.1-.7-.1-.6.1-.8.2-.8.5z" fill="url(#SVGID_87_)"/><linearGradient id="SVGID_88_" gradientUnits="userSpaceOnUse" x1="39.896" y1="263.98" x2="99.172" y2="263.98"><stop offset="0" stop-color="#3b469c"/><stop offset="1" stop-color="#2a3072"/></linearGradient><path d="M72.7 264.7c0 .3.3.5.8.5.2 0 .5 0 .7-.1v-.8c-.2 0-.4-.1-.7-.1-.5.1-.8.2-.8.5z" fill="url(#SVGID_88_)"/><linearGradient id="SVGID_89_" gradientUnits="userSpaceOnUse" x1="39.896" y1="263.98" x2="99.172" y2="263.98"><stop offset="0" stop-color="#3b469c"/><stop offset="1" stop-color="#2a3072"/></linearGradient><path d="M63.6 264c0 .7.4 1.1 1.1 1.1h.7V263c-.2 0-.5-.1-.7-.1-.7 0-1.1.5-1.1 1.1z" fill="url(#SVGID_89_)"/><linearGradient id="SVGID_90_" gradientUnits="userSpaceOnUse" x1="39.896" y1="263.98" x2="99.172" y2="263.98"><stop offset="0" stop-color="#3b469c"/><stop offset="1" stop-color="#2a3072"/></linearGradient><path d="M90.5 263.9c0-2 .7-3.8 1.8-5.2-1.1-1-2.6-1.6-4.3-1.6H46.4c-3.6 0-6.5 2.9-6.5 6.5v.8c0 3.6 2.9 6.5 6.5 6.5H88c1.7 0 3.2-.6 4.4-1.7-1.2-1.5-1.9-3.3-1.9-5.3zm-43.3 2.5c-.5 0-.9-.4-.9-.9s.4-.9.9-.9.9.4.9.9-.4.9-.9.9zm8.8-.1h-1.5v-2.7c0-.4-.1-.7-.6-.7-.2 0-.4.1-.6.2V266.2h-1.5v-2.7c0-.5-.3-.7-.7-.7-.2 0-.4 0-.6.1v3.3H49v-4.5c.8-.1 1.7-.2 2.1-.2.5 0 1 .1 1.3.3.4-.2.9-.3 1.4-.3 1.2 0 2.1.4 2.1 1.8v3zm5.4-.2c0 1.4-1 2-2.2 2-.6 0-1.2-.1-1.5-.2l-.3-1.4c.5.2 1.1.2 1.5.2.8 0 1.1-.2 1.1-.7-.3 0-.6.1-.8.1-1.3 0-2.1-.4-2.1-1.8v-2.6h1.5v2.5c0 .5.3.6.7.6.3 0 .6 0 .8-.1v-3.1h1.5v4.5zm5.4 0c-.6.2-1.4.4-2.1.4-1.6 0-2.6-.9-2.6-2.5s1-2.5 2.6-2.5h.6v-2h1.5v6.6zm4-3.1h-1.4v3.2h-1.5v-4.4c.7-.2 1.6-.2 2-.2h.9v1.4zm4.9 3.1c-.6.2-1.5.3-2.2.3-1.4 0-2.3-.5-2.3-1.6 0-1 .8-1.5 2-1.5.3 0 .6 0 1 .1 0-.4-.3-.6-1.1-.6-.5 0-1.1.1-1.7.3l.4-1.4c.4-.1 1.1-.2 1.7-.2 1.7 0 2.2.6 2.2 1.7v2.9zm2.7.3c-.7 0-1.4-.1-2.1-.4l.4-1.1c.6.2 1.1.3 1.6.3s.8 0 .8-.2-.1-.2-.7-.4c-.1 0-.3-.1-.4-.1-1-.2-1.4-.8-1.4-1.6 0-.9.7-1.4 1.9-1.4.7 0 1.5.2 1.9.4L80 263c-.4-.2-.9-.3-1.3-.3s-.6 0-.6.2.2.2.7.4c.1 0 .2.1.3.1 1 .3 1.5.8 1.5 1.5-.1 1-.7 1.5-2.2 1.5zm7.1-.3c-.6.2-1.5.3-2.2.3-1.4 0-2.3-.5-2.3-1.6 0-1 .8-1.5 2-1.5.3 0 .6 0 1 .1 0-.4-.3-.6-1.1-.6-.5 0-1.1.1-1.7.3l.4-1.4c.4-.1 1.1-.2 1.7-.2 1.7 0 2.2.6 2.2 1.7v2.9z" fill="url(#SVGID_90_)"/></g><path class="st125" d="M113.3 257.1h-8c-.8 0-1.4.6-1.4 1.4 0 .8.6 1.4 1.4 1.4h8c.8 0 1.4-.6 1.4-1.4 0-.8-.6-1.4-1.4-1.4zM113.3 262.6h-8c-.8 0-1.4.6-1.4 1.4 0 .8.6 1.4 1.4 1.4h8c.8 0 1.4-.6 1.4-1.4 0-.8-.6-1.4-1.4-1.4zM113.3 268.1h-8c-.8 0-1.4.6-1.4 1.4 0 .8.6 1.4 1.4 1.4h8c.8 0 1.4-.6 1.4-1.4 0-.8-.6-1.4-1.4-1.4z"/></g></svg>