<svg xmlns="http://www.w3.org/2000/svg" xmlns:xlink="http://www.w3.org/1999/xlink" width="424.1" height="384.5" overflow="scroll"><style>.st11,.st12,.st13,.st9{fill-rule:evenodd;clip-rule:evenodd;fill:#b3e0fd}.st11,.st12,.st13{fill:#ee9073}.st12,.st13{fill:#510f00}.st13{fill:#61422d}.st14,.st16,.st18,.st19,.st20,.st21{fill-rule:evenodd;clip-rule:evenodd;fill:#4a3324}.st16,.st18,.st19,.st20,.st21{fill:#face88}.st18,.st19,.st20,.st21{fill:#e27e67}.st19,.st20,.st21{fill:#f5ac83}.st20,.st21{fill:#fff}.st21{fill:#6a291f}.st24,.st25,.st26,.st27,.st28,.st29{fill-rule:evenodd;clip-rule:evenodd;fill:#b8846a}.st25,.st26,.st27,.st28,.st29{fill:#804139}.st26,.st27,.st28,.st29{fill:#210309}.st27,.st28,.st29{fill:#5d1d10}.st28,.st29{fill:#8ccdd7}.st29{fill:#70a9af}</style><linearGradient id="SVGID_1_" gradientUnits="userSpaceOnUse" x1="212.06" y1="361.837" x2="212.06" y2="27.061"><stop offset="0" stop-color="#b3e0fd"/><stop offset=".5" stop-color="#d7ecfd"/><stop offset="1" stop-color="#f0f8ff"/></linearGradient><path d="M68.2 361.8C30.7 361.8 0 331.2 0 293.7c0-37.5 30.7-68.2 68.2-68.2 15.9 0 28.8-13 28.8-28.8 0-15.9-13-28.8-28.8-28.8h-3.4c-16.5 0-30-13.5-30-30s13.5-30 30-30h10.5c6.4 0 11.7-5.3 11.7-11.7 0-6.4-5.3-11.7-11.7-11.7h-7.7c-4.4 0-8.1-3.6-8.1-8.1 0-4.4 3.6-8.1 8.1-8.1h52c7 0 12.7-5.7 12.7-12.7 0-7-5.7-12.7-12.7-12.7H104c-4.4 0-8.1-3.6-8.1-8.1 0-4.4 3.6-8.1 8.1-8.1h221.2c5.8 0 10.5 4.7 10.5 10.5s-4.7 10.5-10.5 10.5H309c-9.1 0-16.5 7.4-16.5 16.5s7.4 16.5 16.5 16.5h68.4c5.8 0 10.5 4.7 10.5 10.5s-4.7 10.5-10.5 10.5h-10.1c-8.4 0-15.2 6.9-15.2 15.2 0 8.4 6.9 15.2 15.2 15.2H381c21.5 0 39.1 17.6 39.1 39.1s-17.6 39.1-39.1 39.1h-4.5c-20.7 0-37.6 16.9-37.6 37.6 0 20.7 16.9 37.6 37.6 37.6h9.7c20.9 0 37.9 17.1 37.9 37.9 0 20.9-17.1 37.9-37.9 37.9-107.9.5-210.1.5-318 .5zM352.1 48.1c5.8 0 10.5-4.7 10.5-10.5s-4.7-10.5-10.5-10.5-10.5 4.7-10.5 10.5 4.7 10.5 10.5 10.5zM44.9 84.6c4.4 0 8.1-3.6 8.1-8.1 0-4.4-3.6-8.1-8.1-8.1-4.4 0-8.1 3.6-8.1 8.1.1 4.5 3.7 8.1 8.1 8.1z" fill-rule="evenodd" clip-rule="evenodd" fill="url(#SVGID_1_)"/><linearGradient id="SVGID_2_" gradientUnits="userSpaceOnUse" x1="173.205" y1="108.169" x2="173.205" y2="286.092"><stop offset="0" stop-color="#b3e0fd"/><stop offset=".5" stop-color="#d7ecfd"/><stop offset="1" stop-color="#f0f8ff"/></linearGradient><path d="M236.4 284.1c1.4-5.6 2.6-11 3.5-16.4.9-5.4 1.6-10.7 2.1-15.8 1.7-19.1 0-36.2-4.3-51.2-4.7-16.3-12.5-30.3-22.6-42.2-9.3-11-20.6-20.1-33-27.4-13.4-7.9-28.2-13.7-43.5-17.6-5.2-1.3-10.5-2.4-15.8-3.3-5.4-.9-10.8-1.6-16.2-2.1-.6-.1-1.2.1-1.6.5-.4.4-.7.9-.8 1.5v.2c-.2 2.1-3.3 47.4 11.2 91.4 14.7 44.5 47.3 87.8 119 84.1.5 0 1-.2 1.3-.5.4-.3.6-.7.7-1.2zm-130-172.4c2.4 1.5 12.2 7.7 25.6 18.7-6 0-19.6.1-25.8.9-.3-9.7 0-16.8.2-19.6zm-.2 21.8c7.2-1 25.6-.9 28.3-.9 6.6 5.6 14 12.3 21.8 20.2l-48.3 3.9c-1-8.6-1.5-16.5-1.8-23.2zm2.1 25.3l50-4c7.2 7.4 14.6 15.8 21.9 25.1-10 1.2-57.7 7-66.1 9.5-2.8-10.6-4.6-21-5.8-30.6zm6.3 32.7c8.4-2.6 61.1-8.9 67-9.6 5.8 7.6 11.6 15.8 17.2 24.6l-75.1 10c-.1 0-.2 0-.3.1-2.2-5.1-4.2-10.3-5.9-15.5-1-3.2-2-6.4-2.9-9.6zm9.8 27l75.7-10.1c4.3 7 8.4 14.3 12.3 22-12.3 1.8-74.9 9.7-75.1 9.8-.2 0-.3.1-.5.2-4.8-6.9-9-14.3-12.4-21.9zm13.8 23.8c6.6-.8 65.2-8.2 75.2-9.8 3.3 6.7 6.5 13.7 9.4 21-15.2 4.4-64.5 8.3-64.7 8.3-.3 0-.6.2-.7.4-7.4-5.9-13.7-12.6-19.2-19.9zm21.4 21.4c7.9-.6 50.1-4.2 64-8.3 1.9 4.7 3.6 9.6 5.3 14.5-5.8 1.2-31.5 6.1-47.4 4.9-.5 0-.9.2-1 .6-7.7-3.1-14.7-7.1-20.9-11.7zm25.3 13.5c16.4.4 39.7-4.2 44.6-5.2 1.2 3.8 2.4 7.7 3.5 11.6-18.6.8-34.5-1.6-48.1-6.4zm49.8 4.3c-1-3.6-2.1-7.2-3.2-10.7 3.2-5.6 6.7-15.6 8.5-21.3-.1.7-.1 1.4-.2 2.2-.4 5-1.1 10.2-2.1 15.6-.8 4.7-1.8 9.4-3 14.2zm5.5-37.4c-.5 0-.9.3-1.1.8 0 0-4.4 14.9-8.6 23.3-1.6-4.7-3.3-9.4-5.1-13.9 1.4-2.7 8.8-18.1 13.6-36 1.2 8 1.6 16.6 1.2 25.8zm-1.7-29.7c-.4.1-.8.4-.9.8-4.1 16.3-10.7 30.9-13.2 36.3-2.8-7-5.9-13.7-9.1-20.2 1.9-3.4 13-23.9 16.8-40 1.3 3.2 2.4 6.6 3.4 10 1.2 4.3 2.2 8.6 3 13.1zm-7.5-25.8c-.3.1-.6.4-.6.8-3.2 14.6-13.1 33.7-16.3 39.6-3.9-7.6-7.9-14.8-12.2-21.7 13-18.3 17.3-34.4 18.3-38.4 4.2 6.1 7.8 12.7 10.8 19.7zm-12.3-21.7c-.2.2-.4.4-.4.7 0 .1-3.3 17.3-17.6 37.8-5.6-8.8-11.4-17.1-17.2-24.7 5.9-8.8 14.3-31.8 15.4-35 5.2 4.4 10.1 9.1 14.5 14.3 1.8 2.3 3.6 4.5 5.3 6.9zm-21.6-22.6c-.1.1-.1.2-.2.3 0 .1-8.7 24.6-14.9 34.3-7.4-9.5-14.9-18-22.2-25.5 5.2-11.7 7.5-25 7.9-27.1 4.5 2.1 8.9 4.4 13.2 6.9 5.7 3.3 11.1 7 16.2 11.1zm-31.3-18.9c0 .1-.1.2-.1.3 0 0-2.1 13.8-7.4 26.1-7.9-8-15.4-14.9-22.1-20.6 2.1-6.6 2.9-13.8 3-15 9.1 2.3 18 5.4 26.6 9.2zm-28.8-9.8v.2s-.6 7.1-2.6 13.9c-12.3-10.2-21.8-16.5-25.6-19 4.5.5 9.1 1.1 13.6 1.8 4.9.9 9.8 1.9 14.6 3.1z" fill-rule="evenodd" clip-rule="evenodd" fill="url(#SVGID_2_)"/><linearGradient id="SVGID_3_" gradientUnits="userSpaceOnUse" x1="30.178" y1="269.151" x2="211.274" y2="269.151"><stop offset="0" stop-color="#b3e0fd"/><stop offset=".5" stop-color="#d7ecfd"/><stop offset="1" stop-color="#f0f8ff"/></linearGradient><path d="M210.6 351.8c1-13.2.9-25.5-.1-37-4-44.9-22.4-77-48.4-98.4-26-21.4-59.6-32.3-94.1-34.8-12.2-.9-24.6-.8-36.7.3-.7.1-1.2.7-1.1 1.3v.1c.4 3.5 21.7 206.2 179.5 169.6.5-.1.9-.6.9-1.1z" fill-rule="evenodd" clip-rule="evenodd" fill="url(#SVGID_3_)"/><linearGradient id="SVGID_4_" gradientUnits="userSpaceOnUse" x1="120.365" y1="349.01" x2="120.365" y2="187.643"><stop offset="0" stop-color="#b3e0fd"/><stop offset=".5" stop-color="#d7ecfd"/><stop offset="1" stop-color="#f0f8ff"/></linearGradient><path d="M37.9 188c-.6-.2-1.2.1-1.5.7-.2.6.1 1.2.7 1.5.1 0 12.4 4.6 30.9 15-6.3 1.1-20.7 3.8-27 5.8-.6.2-.9.8-.7 1.4.2.6.8.9 1.4.7 7.3-2.4 26.5-5.7 29.3-6.2 8 4.6 16.9 10.3 26.5 17L47.8 237c-.6.2-1 .8-.8 1.4.2.6.8 1 1.4.8l51.5-13.6c8.9 6.4 18.2 13.8 27.6 22.2-10.2 3.1-59.3 18.1-67.3 22.3-.6.3-.8 1-.5 1.5.3.6 1 .8 1.5.5 8.3-4.2 62.1-20.7 68.2-22.5 7.5 6.8 15.1 14.3 22.5 22.5l-76.6 24.4c-.6.2-.9.8-.7 1.4.2.6.8.9 1.4.7l77.6-24.8c5.8 6.5 11.5 13.4 17 20.7-12.5 4.2-76.4 24.1-76.6 24.2-.6.2-.9.8-.7 1.4.2.6.8.9 1.4.7.2-.1 66.6-20.7 77.3-24.4 4.7 6.4 9.3 13.1 13.7 20.2-15.1 7.5-65.9 20.6-66 20.7-.6.2-1 .8-.8 1.4.2.6.8 1 1.4.8.2 0 51.5-13.4 66.6-20.9 2.8 4.6 5.5 9.3 8.2 14.2-5.8 2.3-31.8 12.3-48.5 14-.6.1-1.1.6-1 1.2.1.6.6 1.1 1.2 1 17.3-1.8 44.1-12.1 49.4-14.2 2 3.8 4 7.8 6 11.8.3.6.9.8 1.5.5.6-.3.8-.9.5-1.5-2-4.2-4.1-8.3-6.2-12.3 3.3-9.3 5.4-28.3 5.4-28.4.1-.6-.4-1.2-1-1.3-.6-.1-1.2.4-1.3 1 0 .1-1.8 16.4-4.7 25.9-2.6-4.7-5.2-9.2-7.9-13.6 1-3.3 6.3-22.1 7.7-42.8 0-.6-.4-1.2-1-1.2s-1.2.4-1.2 1c-1.2 17.8-5.4 34.3-7 40.3-4.3-6.8-8.7-13.2-13.3-19.4 1.4-4.1 9.6-28.9 10.2-46.5 0-.6-.5-1.2-1.1-1.2-.6 0-1.2.5-1.2 1.1-.6 15.8-7.4 37.6-9.6 44.4-5.4-7.2-11.1-14-16.7-20.3 11.8-24.9 12-44.5 12-44.5 0-.6-.5-1.1-1.1-1.2-.6 0-1.1.5-1.2 1.1 0 .1-.2 18.7-11.4 42.8-7.5-8.2-15-15.7-22.6-22.6 4.9-11 9.6-39.7 9.6-39.8.1-.6-.3-1.2-.9-1.3s-1.2.3-1.3.9c0 .1-4.5 27.4-9.2 38.5-9.5-8.5-18.9-16-27.9-22.5 3.6-14.4 3.2-30 3.2-30.1 0-.6-.5-1.1-1.2-1.1-.6 0-1.1.5-1.1 1.2 0 0 .4 14.8-2.9 28.6-9.7-6.9-18.8-12.7-27-17.4 1.1-8 .3-16.4.3-16.4-.1-.6-.6-1.1-1.2-1-.6.1-1.1.6-1 1.2 0 0 .7 7.6-.2 15C51 192.9 38 188.1 37.9 188z" fill-rule="evenodd" clip-rule="evenodd" fill="url(#SVGID_4_)"/><linearGradient id="SVGID_5_" gradientUnits="userSpaceOnUse" x1="312.632" y1="339.92" x2="312.632" y2="185.895"><stop offset="0" stop-color="#b3e0fd"/><stop offset=".5" stop-color="#d7ecfd"/><stop offset="1" stop-color="#f0f8ff"/></linearGradient><path d="M234.2 334.1c-.4-5.6-.6-11.1-.6-16.4 0-5.4.3-10.6.7-15.6 1.7-18.7 6.2-34.9 13-48.7 7.3-14.9 17.3-27.1 29-36.8 10.9-9 23.3-15.8 36.6-20.7 14.3-5.3 29.5-8.3 45-9.5 5.2-.4 10.5-.5 15.8-.5 5.3 0 10.7.3 16 .8.6.1 1.1.3 1.5.8.4.4.6 1 .5 1.6v.2c-.2 2.1-5 46.3-26.5 86.3-21.8 40.4-60.7 76.5-129.3 60.6-.5-.1-.9-.4-1.2-.7-.3-.5-.5-1-.5-1.4zm155.1-143.9c-2.6 1-13.1 5.3-27.9 13.6 5.8 1 18.8 3.5 24.7 5.3 1.9-9.4 2.8-16.2 3.2-18.9zm-3.7 21c-6.8-2.2-24.5-5.3-27.1-5.8-7.4 4.3-15.6 9.5-24.5 15.7l45.9 12.1c2.5-8.1 4.4-15.6 5.7-22zm-6.3 24l-47.5-12.5c-8.2 5.9-16.8 12.7-25.5 20.5 9.4 2.9 54.4 16.7 62.1 20.5 4.5-9.7 8.1-19.4 10.9-28.5zm-11.7 30.4c-7.7-3.9-57.4-19.1-63-20.8-6.9 6.3-13.9 13.2-20.8 20.8l70.7 22.6c.1 0 .2.1.2.1 3-4.5 5.8-9.2 8.4-13.9 1.6-2.9 3.1-5.8 4.5-8.8zm-14.1 24.5l-71.3-22.8c-5.3 6-10.6 12.3-15.7 19.1 11.5 3.9 70.6 22.3 70.7 22.3.2.1.3.1.4.3 6-5.8 11.3-12.2 15.9-18.9zm-17.4 20.4c-6.3-1.9-61.5-19.2-70.8-22.4-4.4 5.9-8.6 12.1-12.7 18.6 13.9 6.9 60.8 19.1 61 19.1.3.1.5.3.6.5 8.1-4.2 15.4-9.6 21.9-15.8zm-24.3 17.1c-7.5-2-47.6-12.7-60.3-19-2.6 4.2-5.1 8.6-7.6 13.1 5.4 2.1 29.3 11.3 44.8 12.9.4 0 .8.4.9.8 8-1.8 15.4-4.4 22.2-7.8zm-26.8 8.6c-15.9-2.5-37.6-10.9-42.2-12.7-1.8 3.5-3.6 7-5.4 10.6 17.9 4 33.7 4.4 47.6 2.1zm-48.7-4.4c1.6-3.3 3.3-6.6 5-9.7-2.1-5.9-3.7-16.2-4.5-22-.1.7-.1 1.4-.2 2.1-.4 4.9-.7 10.1-.7 15.4-.1 4.6.1 9.4.4 14.2zm1.1-37c.5.1.9.4.9.9 0 0 1.7 15.1 4.3 23.9 2.4-4.3 4.8-8.5 7.3-12.5-.8-2.9-5.4-19-6.9-37.1-2.5 7.6-4.4 15.9-5.6 24.8zm6.8-28.3c.4.1.7.5.7.9 1.1 16.5 5 31.7 6.5 37.3 3.9-6.3 8.1-12.2 12.3-17.9-1.2-3.6-8.4-25.3-9.4-41.4-1.8 2.9-3.4 5.9-5 9.1-1.9 3.7-3.6 7.8-5.1 12zm11.6-23.6c.3.2.5.5.5.8.6 14.6 6.8 34.8 8.9 41 5-6.7 10.2-12.9 15.5-18.8-9.4-19.9-10.8-36.1-11-40.2-5.1 5.2-9.8 10.9-13.9 17.2zm15.6-18.9c.2.2.3.4.3.7 0 0 .2 17.3 10.5 39.5 6.9-7.6 13.9-14.5 20.9-20.8-4.2-9.5-8.3-33.1-8.8-36.4-5.8 3.3-11.3 7.1-16.5 11.3-2.2 1.9-4.3 3.7-6.4 5.7zm24.7-18c.1.1.1.2.1.3 0 .1 4.2 25.3 8.5 35.6 8.8-7.9 17.5-14.8 25.8-20.8-3.1-12.2-3-25.4-2.9-27.5-4.7 1.2-9.3 2.7-13.9 4.4-6.1 2.2-12 4.9-17.6 8zm33.5-12.9v.3s-.4 13.7 2.7 26.4c9-6.4 17.4-11.7 24.9-16.1-.9-6.8-.4-13.8-.3-15-9.2.8-18.4 2.2-27.3 4.4zm29.4-4.5v.2s-.7 7 .2 13.9c13.6-7.8 23.9-12.2 28-13.9-4.5-.3-9-.5-13.5-.6-4.9-.1-9.8.1-14.7.4z" fill-rule="evenodd" clip-rule="evenodd" fill="url(#SVGID_5_)"/><g><linearGradient id="SVGID_6_" gradientUnits="userSpaceOnUse" x1="278.389" y1="207.063" x2="278.389" y2="121.255"><stop offset="0" stop-color="#f0f8ff"/><stop offset=".5" stop-color="#d7ecfd"/><stop offset="1" stop-color="#b3e0fd"/></linearGradient><path d="M271.3 207.1c.9-6.7 3.5-17.5 11.5-30.5 13.6-22.2 20.1-46.6 8.1-54.2-11.5-7.3-30.7 24.1-31.3 82.5l11.7 2.2z" fill-rule="evenodd" clip-rule="evenodd" fill="url(#SVGID_6_)"/><linearGradient id="SVGID_7_" gradientUnits="userSpaceOnUse" x1="261.736" y1="166.804" x2="292.632" y2="166.804"><stop offset="0" stop-color="#b3e0fd"/><stop offset=".5" stop-color="#d7ecfd"/><stop offset="1" stop-color="#f0f8ff"/></linearGradient><path d="M288.1 129c.3-.4.3-.9-.1-1.2-.4-.3-.9-.3-1.2.1 0 0-1.9 2.2-4.5 6.4l.5-5c0-.3-.2-.6-.5-.6s-.6.2-.6.5l-.7 7.5c-1.2 2-2.4 4.3-3.7 7l-.4-6.1c0-.3-.3-.6-.6-.5-.3 0-.6.3-.5.6l.6 8.2c-1.3 2.8-2.6 5.9-3.9 9.3l-.6-5.3c0-.3-.3-.6-.6-.5-.3 0-.6.3-.5.6l.8 7.7c-1.2 3.6-2.4 7.5-3.4 11.7l-1.1-5c-.1-.3-.4-.5-.7-.4-.3.1-.5.4-.4.7l1.6 7.4c-.9 4-1.6 8.2-2.1 12.7l-1.3-2.7c-.1-.3-.5-.4-.8-.3-.3.1-.4.5-.3.8l2.1 4.4c-.4 3.4-.6 7-.7 10.7l-1.4-2.7c-.2-.3-.5-.4-.8-.2-.3.1-.4.5-.2.8l2.4 4.6c0 1.8 0 3.7.1 5.6l1.8.3c-.1-1.9-.1-3.8-.1-5.6 1-1.1 3.4-3.6 5-4.2.3-.1.4-.5.3-.8-.1-.3-.5-.4-.8-.3-1.3.6-3.2 2.3-4.5 3.6 0-1.4.1-2.9.1-4.3 1.1-.9 3.9-3.2 6.4-4.2.3-.1.5-.5.3-.8-.1-.3-.5-.5-.8-.3-2.1.8-4.4 2.5-5.9 3.7.2-2.9.4-5.6.8-8.3 1.9-1 7.9-4.1 10.9-4.7.3-.1.5-.4.5-.7-.1-.3-.4-.5-.7-.5-2.9.6-8.1 3.2-10.5 4.4.4-2.9.8-5.6 1.4-8.3 1.8-1 7.9-4.3 13.1-5.4.3-.1.5-.4.5-.7-.1-.3-.4-.5-.7-.5-4.7 1-10 3.7-12.6 5.1.3-1.3.6-2.6.9-3.8 1.8-1.2 8-4.9 15.6-6.9.3-.1.5-.4.4-.7-.1-.3-.4-.5-.7-.4-6.7 1.7-12.3 4.8-14.9 6.4 1.2-4.5 2.5-8.6 3.9-12.4 2.5-.8 12.3-4.1 17.5-4.7.3 0 .6-.3.5-.7 0-.3-.3-.6-.7-.5-4.8.6-13.3 3.3-16.8 4.4 1.1-2.8 2.2-5.4 3.3-7.7 2.5-.6 11.6-2.7 13.9-3.1.3-.1.5-.4.5-.7-.1-.3-.4-.5-.7-.5-2.1.3-9.7 2.1-13 2.9 1.5-3 2.9-5.7 4.2-7.9 2.4-.4 8.1-1.3 9.5-1.5.3 0 .6-.3.5-.6 0-.3-.3-.6-.6-.5-1.3.1-5.9.9-8.6 1.3 2.3-4.3 4.3-6.7 4.3-6.7z" fill-rule="evenodd" clip-rule="evenodd" fill="url(#SVGID_7_)"/></g><g><linearGradient id="SVGID_8_" gradientUnits="userSpaceOnUse" x1="225.824" y1="218.808" x2="343.078" y2="218.808"><stop offset="0" stop-color="#f0f8ff"/><stop offset=".5" stop-color="#d7ecfd"/><stop offset="1" stop-color="#b3e0fd"/></linearGradient><path d="M248.6 297.2c4.9-11.9 16.3-32.3 41.3-55.5 39.5-36.7 66.2-80 46.6-98-19.2-17.7-77 36.6-110.7 149.1 9 2.5 16.5 3.9 22.8 4.4z" fill-rule="evenodd" clip-rule="evenodd" fill="url(#SVGID_8_)"/><linearGradient id="SVGID_9_" gradientUnits="userSpaceOnUse" x1="232.876" y1="221.666" x2="333.068" y2="221.666"><stop offset="0" stop-color="#b3e0fd"/><stop offset=".5" stop-color="#d7ecfd"/><stop offset="1" stop-color="#f0f8ff"/></linearGradient><path d="M237.8 289.9c1.2-.3 4.6-1 9.2-.7.3 0 .6-.2.6-.5s-.2-.6-.5-.6c-4.1-.3-7.2.2-8.8.5.6-1.9 1.3-3.7 1.9-5.5 2-.5 8.4-2 10.9-2.3.3-.1.5-.4.5-.7 0-.3-.4-.5-.7-.5-2.2.3-7.7 1.6-10.2 2.2 1.2-3.4 2.4-6.7 3.6-9.9 1.9-.4 8-1.5 14.8-2 .3 0 .6-.3.5-.6 0-.3-.3-.6-.6-.5-6.2.5-11.7 1.4-14.2 1.9 1.3-3.3 2.5-6.4 3.8-9.5 2.7-.5 11.3-2.1 21.1-2.8.3 0 .6-.3.5-.6 0-.3-.3-.6-.6-.5-9.1.7-17.2 2.1-20.5 2.7 1.7-4 3.4-7.9 5.1-11.7 2.7-.7 14.2-3.4 23.4-2.5.3 0 .6-.2.6-.5s-.2-.6-.5-.6c-8.6-.9-19 1.4-22.9 2.3 2.1-4.6 4.3-9 6.5-13.2 3.8-.6 19.3-2.7 27.5.9.3.1.6 0 .8-.3.1-.3 0-.6-.3-.8-7.9-3.4-22.3-1.8-27.3-1.1 2.3-4.4 4.6-8.6 7-12.6 2.9 0 15 .4 27 3.5.3.1.6-.1.7-.4.1-.3-.1-.6-.4-.7-11.4-3-22.9-3.5-26.7-3.6 1.4-2.3 2.8-4.6 4.1-6.8 2.8 0 14.6.2 31 4.2.3.1.6-.1.7-.4.1-.3-.1-.6-.4-.7-15.3-3.8-26.7-4.2-30.5-4.2 3.3-5.2 6.5-9.9 9.7-14.3 3.6.4 21.7 2.5 31.8 6.3.3.1.6 0 .8-.3.1-.3 0-.6-.3-.8-9.7-3.6-26.6-5.7-31.4-6.3 1.9-2.5 3.7-4.9 5.5-7.2 3.1.4 17.2 2.2 30.6 6.6.3.1.6-.1.7-.4.1-.3-.1-.6-.4-.7-12.7-4.1-25.9-6-30.1-6.6 4.3-5.2 8.4-9.8 12.2-13.7 3 .1 16.4.6 27.2 4.1.3.1.6-.1.7-.4.1-.3-.1-.6-.4-.7-9.9-3.2-22-4-26.4-4.1 1.6-1.6 3.1-3.1 4.6-4.4 2.3-.3 11.1-1 22.9.9.3.1.6-.2.7-.5.1-.3-.2-.6-.5-.7-10.1-1.6-18-1.3-21.7-1.1 12.1-10.9 20.2-14.7 20.3-14.7.4-.2.6-.7.4-1.2-.2-.4-.7-.6-1.2-.4 0 0-3.6 1.7-9.5 6 1.3-2.6 3.2-6.3 3.8-6.8.2-.2.2-.6 0-.8-.2-.2-.6-.2-.8 0-.9.9-4 7.1-5 9.2-2.4 1.8-5.1 4-8 6.6l3.3-12.5c.1-.3-.1-.6-.4-.7-.3-.1-.6.1-.7.4l-3.7 14.2c-2 1.8-4.1 3.8-6.3 6.1l3.3-14.7c.1-.3-.1-.6-.4-.7-.3-.1-.6.1-.7.4l-3.7 16.5c-3.3 3.4-6.7 7.2-10.3 11.5l2.4-15c.1-.3-.2-.6-.5-.7-.3-.1-.6.2-.7.5l-2.7 17c-1.6 2-3.3 4.1-4.9 6.3l1.8-13.4c0-.3-.2-.6-.5-.7-.3 0-.6.2-.7.5l-2.1 15.6c-3.1 4.1-6.2 8.7-9.3 13.5l.8-12.9c0-.3-.2-.6-.6-.6-.3 0-.6.2-.6.5l-.9 15c-1.2 2-2.5 4-3.7 6.1l-.1-9.7c0-.3-.3-.6-.6-.6s-.6.3-.6.6l.1 11.7c-2.3 3.9-4.6 8-6.9 12.4l-.4-10.8c0-.3-.3-.6-.6-.6s-.6.3-.6.6l.5 12.8c-2 3.8-4 7.9-5.9 12.1l-.8-9.5c0-.3-.3-.6-.6-.5-.3 0-.6.3-.5.6l1 11.5c-1.7 3.7-3.4 7.5-5.1 11.5L246 250c-.1-.3-.4-.5-.7-.5-.3.1-.5.4-.5.7l2.1 10c-1.2 2.9-2.4 5.9-3.6 8.9l-2.4-6.9c-.1-.3-.4-.5-.7-.4-.3.1-.5.4-.4.7l2.9 8.2c-1.1 2.8-2.1 5.7-3.2 8.6l-1.8-4.4c-.1-.3-.5-.4-.8-.3-.3.1-.4.5-.3.8l2.3 5.6c-.8 2.2-1.6 4.5-2.3 6.7l-2.7-3.4c-.2-.3-.6-.3-.8-.1-.3.2-.3.6-.1.8l3.2 4-1.8 5.7c.6.1 1.2.3 1.7.4.6-1.6 1.1-3.4 1.7-5.2z" fill-rule="evenodd" clip-rule="evenodd" fill="url(#SVGID_9_)"/></g><g><path class="st9" d="M262.1 35.7c0-.7.6-1.2 1.2-1.2.7 0 1.2.6 1.2 1.2v2.9h2.9c.7 0 1.2.6 1.2 1.2 0 .7-.6 1.2-1.2 1.2h-2.9v2.9c0 .7-.6 1.2-1.2 1.2-.7 0-1.2-.6-1.2-1.2V41h-2.9c-.7 0-1.2-.6-1.2-1.2 0-.7.6-1.2 1.2-1.2h2.9v-2.9zM74.6 129.7c0-.7.6-1.2 1.2-1.2.7 0 1.2.6 1.2 1.2v2.9h2.9c.7 0 1.2.6 1.2 1.2 0 .7-.6 1.2-1.2 1.2H77v2.9c0 .7-.6 1.2-1.2 1.2-.7 0-1.2-.6-1.2-1.2V135h-2.9c-.7 0-1.2-.6-1.2-1.2 0-.7.6-1.2 1.2-1.2h2.9v-2.9zM30.7 313.7c0-.7.6-1.2 1.2-1.2.7 0 1.2.6 1.2 1.2v2.9H36c.7 0 1.2.6 1.2 1.2 0 .7-.6 1.2-1.2 1.2h-2.9v2.9c0 .7-.6 1.2-1.2 1.2-.7 0-1.2-.6-1.2-1.2V319h-2.9c-.7 0-1.2-.6-1.2-1.2 0-.7.6-1.2 1.2-1.2h2.9v-2.9zM382.9 160.4c0-.7.6-1.2 1.2-1.2.7 0 1.2.6 1.2 1.2v2.9h2.9c.7 0 1.2.6 1.2 1.2 0 .7-.6 1.2-1.2 1.2h-2.9v2.9c0 .7-.6 1.2-1.2 1.2-.7 0-1.2-.6-1.2-1.2v-2.9H380c-.7 0-1.2-.6-1.2-1.2 0-.7.6-1.2 1.2-1.2h2.9v-2.9zM358 3.8c0-.7.6-1.2 1.2-1.2.7 0 1.2.6 1.2 1.2v2.9h2.9c.7 0 1.2.6 1.2 1.2 0 .7-.6 1.2-1.2 1.2h-2.9V12c0 .7-.6 1.2-1.2 1.2-.7 0-1.2-.6-1.2-1.2V9.1h-2.9c-.7 0-1.2-.6-1.2-1.2 0-.7.6-1.2 1.2-1.2h2.9V3.8zM37.3 13.7c0-.7.6-1.2 1.2-1.2.7 0 1.2.6 1.2 1.2v2.9h2.9c.7 0 1.2.6 1.2 1.2 0 .7-.6 1.2-1.2 1.2h-2.9v2.9c0 .7-.6 1.2-1.2 1.2-.7 0-1.2-.6-1.2-1.2V19h-2.9c-.7 0-1.2-.6-1.2-1.2 0-.7.6-1.2 1.2-1.2h2.9v-2.9zM18.2 375.1c0-.7.6-1.2 1.2-1.2s1.2.6 1.2 1.2v2.9h2.9c.7 0 1.2.6 1.2 1.2s-.6 1.2-1.2 1.2h-2.9v2.9c0 .7-.6 1.2-1.2 1.2s-1.2-.6-1.2-1.2v-2.9h-2.9c-.7 0-1.2-.6-1.2-1.2s.6-1.2 1.2-1.2h2.9v-2.9zM295.3 96.7c1.2 0 2.2-1 2.2-2.2 0-1.2-1-2.2-2.2-2.2-1.2 0-2.2 1-2.2 2.2 0 1.2 1 2.2 2.2 2.2zM304.8 96.7c1.2 0 2.2-1 2.2-2.2 0-1.2-1-2.2-2.2-2.2-1.2 0-2.2 1-2.2 2.2 0 1.2 1 2.2 2.2 2.2zM314.3 96.7c1.2 0 2.2-1 2.2-2.2 0-1.2-1-2.2-2.2-2.2-1.2 0-2.2 1-2.2 2.2 0 1.2 1 2.2 2.2 2.2zM323.9 96.7c1.2 0 2.2-1 2.2-2.2 0-1.2-1-2.2-2.2-2.2-1.2 0-2.2 1-2.2 2.2 0 1.2 1 2.2 2.2 2.2zM333.4 96.7c1.2 0 2.2-1 2.2-2.2 0-1.2-1-2.2-2.2-2.2-1.2 0-2.2 1-2.2 2.2 0 1.2 1 2.2 2.2 2.2zM300.6 105.4c1.2 0 2.2-1 2.2-2.2 0-1.2-1-2.2-2.2-2.2-1.2 0-2.2 1-2.2 2.2.1 1.2 1 2.2 2.2 2.2zM319.7 105.4c1.2 0 2.2-1 2.2-2.2 0-1.2-1-2.2-2.2-2.2-1.2 0-2.2 1-2.2 2.2 0 1.2 1 2.2 2.2 2.2zM329.2 105.4c1.2 0 2.2-1 2.2-2.2 0-1.2-1-2.2-2.2-2.2-1.2 0-2.2 1-2.2 2.2.1 1.2 1 2.2 2.2 2.2zM117.9 4.4c1.2 0 2.2-1 2.2-2.2 0-1.2-1-2.2-2.2-2.2-1.2 0-2.2 1-2.2 2.2 0 1.2 1 2.2 2.2 2.2zM127.4 4.4c1.2 0 2.2-1 2.2-2.2 0-1.2-1-2.2-2.2-2.2-1.2 0-2.2 1-2.2 2.2 0 1.2 1 2.2 2.2 2.2zM137 4.4c1.2 0 2.2-1 2.2-2.2 0-1.2-1-2.2-2.2-2.2-1.2 0-2.2 1-2.2 2.2 0 1.2 1 2.2 2.2 2.2zM146.5 4.4c1.2 0 2.2-1 2.2-2.2 0-1.2-1-2.2-2.2-2.2-1.2 0-2.2 1-2.2 2.2 0 1.2 1 2.2 2.2 2.2zM156 4.4c1.2 0 2.2-1 2.2-2.2 0-1.2-1-2.2-2.2-2.2-1.2 0-2.2 1-2.2 2.2 0 1.2 1 2.2 2.2 2.2zM123.3 13.1c1.2 0 2.2-1 2.2-2.2 0-1.2-1-2.2-2.2-2.2-1.2 0-2.2 1-2.2 2.2 0 1.2 1 2.2 2.2 2.2zM142.3 13.1c1.2 0 2.2-1 2.2-2.2 0-1.2-1-2.2-2.2-2.2-1.2 0-2.2 1-2.2 2.2.1 1.2 1 2.2 2.2 2.2zM151.9 13.1c1.2 0 2.2-1 2.2-2.2 0-1.2-1-2.2-2.2-2.2-1.2 0-2.2 1-2.2 2.2 0 1.2 1 2.2 2.2 2.2zM353.9 373.4c0-.7.6-1.2 1.2-1.2s1.2.6 1.2 1.2v2.9h2.9c.7 0 1.2.6 1.2 1.2s-.6 1.2-1.2 1.2h-2.9v2.9c0 .7-.6 1.2-1.2 1.2s-1.2-.6-1.2-1.2v-2.9H351c-.7 0-1.2-.6-1.2-1.2s.6-1.2 1.2-1.2h2.9v-2.9z"/></g><g><defs><path id="SVGID_10_" d="M53 39.8h322.3v322.3H53z"/></defs><clipPath id="SVGID_11_"><use xlink:href="#SVGID_10_" overflow="visible"/></clipPath><g clip-path="url(#SVGID_11_)"><path class="st11" d="M310.6 161.8l-.3 7.5V187c0 1.7.7 2.3 2.6 3.7 2.4 4.4-4.4 23.6-9.3 24.3-4.9.8-27.3-1.2-28.9-2.5-1.1-.9 10.5-17.6 9.8-20.3 1-.3 1.9-.6 2.6-1.3 4.8-4.5 4.2-16.9.8-21.3-2.6-3.3 22.7-7.8 22.7-7.8z"/><path class="st12" d="M260.5 87.3s-6 6.8-6.1 12c-.1 5.2 6.7 27.4 6.7 30.8 0 3.4 5.6 2.4 6.1-2.4.6-4.8 13.7-32.8-6.7-40.4z"/><path class="st13" d="M266.2 202.5c-9.2 10.6-36.3 66.3-37.1 74.3-.9 8 18.8 42.8 26.6 50.2 0 0 .9.8 1.7-.6.8-1.3 3.8-.4 6.1-1.3 2.2-.9-2.5-6.2-4-8.2-1.5-2-10.9-28-12-38.2-1.1-10.2 29.8-39.1 33.5-45.3 2.6-4.2 6.6-14.4 4.7-24.4-1.1.9-1.9 1.4-2 1.4-.7-.1-17.5-7.9-17.5-7.9z"/><path class="st14" d="M266.2 202.5c-4.4 5.1-12.8 20.4-20.6 35.9 1.8 8.3 2.9 18.9-.1 26.6-5.8 14.5 1.8 27.7 2.9 34.6.8 4.8 1.4 10.3-2.3 14.5 3.6 5.8 7.1 10.6 9.5 12.8 0 0 .9.8 1.7-.6.8-1.3 3.8-.4 6.1-1.3 2.2-.9-2.5-6.2-4-8.2-1.5-2-10.9-28-12-38.2-1.1-10.2 29.8-39.1 33.5-45.3 1-1.6 2.1-4 3.1-6.9-.3-5.9-.6-11.4-1-16.4-2.9-1.1-16.8-7.5-16.8-7.5z"/><path d="M268.9 219.7c4.1-2.6 6.4-.5 10.8 4.3s8.6 4.3 11.1 5.4c2.4 1.1 2.4 45.4-13.6 52.1-5.9 2.5-9.6-.1-11.9-5.4-4.1-9.4-7-49.8 3.6-56.4z" fill-rule="evenodd" clip-rule="evenodd" fill="#f6f5f4"/><path class="st16" d="M337.5 360.8c-3.5 8.2-20.7 13.8-34.3 16.1-3.3.6-6.3.9-8.9 1.1-1.7.1-3.3 0-4.8-.3-14.8-.1-26-3.6-32.7-6.5-4-.4-6.2-1.8-7.4-3.8-1.8-3.3-.7-8.2.2-12.5 1.6-7.8 9.5-22.9 8.1-59.8-1.4-36.9-8.3-99.9 27.2-104 0 0-.4.9-1 2.5l1.5.1s-3.5 11.2 3 14.9c6.6 3.8 13.9-1.3 17.2-5.6.5-.6 1-.9 1.6-.9 2.3-3.1 4.8-6.3 7.6-9.5 7.5 1.4 19.3 7.8 19.3 7.8 5.9 3 13.3 8.5 14.3 15.2 1.4 9.6-9.2 42.7-15.8 63.5-10.8 34.9 10.8 67.8 4.9 81.7z"/><path d="M337.5 360.8c-3.5 8.2-20.7 13.8-34.3 16.1-3.3.6-6.3.9-8.9 1.1-1.7.1-3.3 0-4.8-.3h-1.8c6.9-7 8.4-19.1 6.9-33.6-2.5-23.7.8-68.5 2.7-91.4 1.9-22.9-4.2-32.1-15.4-34.1s-15.9 4.5-15.9 4.5-2.5-5-4.2-11.4c4.2-11.2 11.3-19.1 23.1-20.5 0 0-.4.9-1 2.5l1.5.1s-3.5 11.2 3 14.9c6.6 3.8 13.9-1.3 17.2-5.6.5-.6 1-.9 1.6-.9 2.3-3.1 4.8-6.3 7.6-9.5 7.5 1.4 19.3 7.8 19.3 7.8 5.9 3 13.3 8.5 14.3 15.2 1.4 9.6-9.2 42.7-15.8 63.5-10.8 34.8 10.8 67.7 4.9 81.6z" fill-rule="evenodd" clip-rule="evenodd" fill="#cba66a"/><path class="st18" d="M265 149.4c6 0 11-4.9 11-11 0-6-4.9-11-11-11-6 0-11 4.9-11 11s4.9 11 11 11zM340.1 149.4c6 0 11-4.9 11-11 0-6-4.9-11-11-11-6 0-11 4.9-11 11 .1 6.1 5 11 11 11z"/><path class="st19" d="M300.1 72c20.7 0 37.6 16.9 37.6 37.6v34.2c0 20.7-16.9 37.6-37.6 37.6-20.7 0-37.6-16.9-37.6-37.6v-34.2c0-20.7 16.9-37.6 37.6-37.6z"/><path class="st11" d="M336.7 101.3c.6 2.7.9 5.5.9 8.3v34.2c0 20.7-16.9 37.6-37.6 37.6 40.2-7.9 27.3-58.8 14.9-63.2-12.4-4.4-38.6-5.5-45.8-4.1-6 1.1-6.7 5.7-6.7 7.1v-11.5c0-4.2.7-8.3 2-12.1 7.5-1.1 27.4.1 45.6.1 10.4-.1 19.3 1.5 26.7 3.6zm-36.6 80"/><path class="st20" d="M307 149.4c0 6.6-5.4 12-12 12s-12-5.4-12-12c0-1.1.9-2.1 2.1-2.1h19.7c1.2 0 2.2.9 2.2 2.1z"/><path class="st18" d="M271.6 153.9c3 0 5.4-2.4 5.4-5.4 0-3-2.4-5.4-5.4-5.4s-5.4 2.4-5.4 5.4c0 2.9 2.5 5.4 5.4 5.4zM318.4 153.9c3 0 5.4-2.4 5.4-5.4 0-3-2.4-5.4-5.4-5.4-3 0-5.4 2.4-5.4 5.4 0 2.9 2.4 5.4 5.4 5.4z"/><path class="st21" d="M337.6 137.5s-9-6.8-7.1-19.9c0 0-6.7-8.7-2.5-15.6 0 0-37 8.3-60 .7-23-7.6-20.8-36.2-6.6-49.2 6.8-6.2 13.2-7.1 16-3.3 16.3 22.2 72.5-2.4 64 35.8 0 0 15.1 9.5.9 41.6 0 .1-5.7-.5-4.7 9.9z"/><path class="st12" d="M337.6 137.5s-9-6.8-7.1-19.9c0 0-6.7-8.7-2.5-15.6 0 0-15.6 3.5-32.8 3.9 14.3-2.4 28.2-8.2 38.4-18.7 5.7-5.9 7.2-11.5 6.7-16.3 2.1 3.5 2.6 8.3 1.1 15.2 0 0 15.1 9.5.9 41.6 0 0-5.7-.6-4.7 9.8z"/><path d="M281 191.9s3.3-2.3 6.1-1.1c0 0-6.3 12 1 17.7 7.3 5.7 22.5-7.6 24.8-17.8 0 0 3.4.2 5.4 2.9 0 0-4.9 16.1-20.6 21-15.6 5.1-22.1-10.4-16.7-22.7z" fill-rule="evenodd" clip-rule="evenodd" fill="#813e1d"/><path class="st13" d="M318.3 193.6s-17.2 34.3-19.8 91c-2.6 56.7-.2 94.6 41 107.4 0 0 1.9.5 3.3-3.5 1.4-4.1-9.9-93.5-4.5-127.7l19.2-26.4c-8.3-23.7-9.7-33.9-39.2-40.8z"/><path class="st14" d="M330.5 388.5c2.8 1.3 5.8 2.5 9.1 3.5 0 0 1.9.5 3.3-3.5 1.4-4.1-9.9-93.5-4.5-127.7l5.5-7.6-8-12-3.8-1.6s-4.2 10.4-4.6 23.9c-.4 13.5 9.7 90.6 9.7 110.8-.1 7.1-3 11.5-6.7 14.2z"/><path class="st13" d="M320.1 322.3c14.7-4.9 27.9-9.2 39.1-13.8 18.2-7.4 8.3-60.4-13.1-98.5-3.8-6.7-12.1-10.6-23.5-14.3l-7.2 24.7 13 11.2c29.5 67.3 40 51.2-13.3 81 1.6 3.1 3.6 7.1 5 9.7z"/><path class="st14" d="M320.1 322.3c14.7-4.9 27.9-9.2 39.1-13.8 4.3-1.8 7.1-6.1 8.5-12.3-3.3 11.4-28.8 16.2-37.8 17.5-5.7.8-8.5-1.6-9.9-3.7-1.5.8-3.1 1.7-4.8 2.7 1.5 3 3.5 7 4.9 9.6zm47.9-27.7c0-.1.1-.3.1-.4 0 .1-.1.2-.1.4zm-36-54.9c14.4 31.4 23.2 41.9 20.2 49.4 0 0 5.2-7.2.8-18.9s-9.3-27.7-12.8-31.3c-3.5-3.6-8.1.7-8.2.8z"/><path d="M311.9 306c-.1-1.1.7-2 1.7-2.1 1.1-.1 2 .7 2.1 1.7 0 0 1.3 13.4 10.5 21.4.8.7.9 1.9.2 2.7-.7.8-1.9.9-2.7.2-10.3-9-11.7-23.9-11.8-23.9z" fill-rule="evenodd" clip-rule="evenodd" fill="#987665"/><path class="st13" d="M281 191.9s-8.2 18.1-8.1 54.3c.1 36.2-4.2 98.4-5.9 111.3-1.7 12.9-10.2 26.8-14.8 28.5 0 0-6.3 2-7.5-7.8-1.2-9.8 13-56.5 10-90.6-3.1-34.1-2.5-90.9 26.3-95.7z"/><path class="st24" d="M299.3 272s17-71.6 26.7-76.3c0 0-5-3.7-6.1-3.8-.9-.2-13.7 15.1-20.6 80.1zM281 191.9s-9.8 32.7-8.5 77.8c0 0-2.6-34.1 0-53.2s1.4-22.1 1.4-22.1 2.2-2.8 7.1-2.5z"/><path class="st25" d="M334.9 66c-10.1 40-49.9 37.4-83.9 15.8-.8-7.3 1.1-15 5-21.4l.1-.1c26.2 35.7 67.4 32.1 75.5 4.2 1.2.5 2.3 1 3.3 1.5z"/><g><path class="st26" d="M310.2 136.7c0-.9.4-1.8 1.1-2.4.7-.6 1.6-1 2.5-.9.9 0 1.8.4 2.4 1.1.6.7 1 1.6.9 2.5 0 .8.6 1.5 1.4 1.5.8 0 1.5-.6 1.5-1.4.1-1.7-.6-3.4-1.7-4.6-1.2-1.2-2.8-2-4.5-2-1.7-.1-3.4.6-4.6 1.7-1.2 1.2-2 2.8-2 4.5 0 .8.6 1.5 1.4 1.5.9 0 1.6-.7 1.6-1.5zM270.5 135.3c0-.9.4-1.8 1.1-2.4.7-.6 1.6-1 2.5-.9.9 0 1.8.4 2.4 1.1.6.7 1 1.6.9 2.5 0 .8.6 1.5 1.4 1.5.8 0 1.5-.6 1.5-1.4.1-1.7-.6-3.4-1.7-4.6-1.2-1.2-2.8-2-4.5-2-1.7-.1-3.4.6-4.6 1.7-1.2 1.2-2 2.8-2 4.5 0 .8.6 1.5 1.4 1.5.9 0 1.6-.7 1.6-1.5zM318.8 124.5c.7.4 1.6.1 2-.6.4-.7.1-1.6-.6-2-3.7-2-8.4-2.4-12.1-.4-.7.4-1 1.3-.6 2s1.3 1 2 .6c2.8-1.5 6.7-1.2 9.3.4zM269.7 122.8c3-1.3 6.5-1.6 9.3.3.7.4 1.6.2 2-.4.4-.7.2-1.6-.4-2-3.5-2.3-8.4-2.2-12.1-.5-.7.3-1.1 1.2-.7 2 .3.6 1.1.9 1.9.6z"/><path class="st26" d="M273.9 118.6c4.3.1 8.1 1.9 10.8 4.8 2.5 2.6 4 6 4.3 9.8l11.3.3c.4-3.8 2.1-7.1 4.7-9.6 2.9-2.7 6.7-4.4 11-4.3 4.3.1 8.1 1.9 10.8 4.8 2.5 2.6 4.1 6 4.3 9.8l6.5.2v2.4l-6.6-.2c-.4 3.8-2.1 7.1-4.7 9.6-2.9 2.7-6.7 4.4-11 4.3-4.3-.1-8.1-1.9-10.8-4.8-2.5-2.6-4.1-6-4.3-9.8l-11.3-.3c-.4 3.8-2.1 7.1-4.7 9.6-2.9 2.7-6.7 4.4-11 4.3-4.3-.1-8.1-1.9-10.8-4.8-2.7-2.9-4.4-6.7-4.3-11 .1-4.3 1.9-8.1 4.8-10.8 2.8-2.8 6.7-4.4 11-4.3zm51.2 7.3c-2.3-2.4-5.5-4-9.1-4-3.6-.1-6.9 1.3-9.3 3.6-2.4 2.3-4 5.5-4 9.1-.1 3.6 1.3 6.9 3.6 9.3 2.3 2.4 5.5 4 9.1 4 3.6.1 6.9-1.3 9.3-3.6 2.4-2.3 4-5.5 4-9.1.1-3.6-1.3-6.9-3.6-9.3zm-42.1-1c-2.3-2.4-5.5-4-9.1-4-3.6-.1-6.9 1.3-9.3 3.6-2.4 2.3-4 5.5-4 9.1-.1 3.6 1.3 6.9 3.6 9.3 2.3 2.4 5.5 4 9.1 4 3.6.1 6.9-1.3 9.3-3.6 2.4-2.3 4-5.5 4-9.1.1-3.5-1.3-6.8-3.6-9.3z"/></g><g><path class="st27" d="M93.5 175l-13.7-.5s-38.6 51.2-2.9 89 105 23.2 119.2-1.6c14.1-24.8 6.4-43.3-7.5-65.5-13.9-22.2-34.7-10-34.7-10L93.5 175z"/><path class="st28" d="M125.3 276.6s-4.2 1.5-5.6 5.8c-.5 1.4-11.5 28.1-13.1 38.3-3.2 20.2-1.7 50.3-16.3 87.4-22 55.7-19.2 56.7-8.3 61.8 0 0-.2 9.2 5.6 10.6 5.8 1.5 10.3 1.4 12.4 2.5 0 0 .8 3 4.6 3.4 3.7.5 15.5-2.2 25.8 2.5 10.4 4.6 20.5 4.4 21.4-3.5 0 0 22.7 2.9 27.5-5.6 4.7-8.5-5.5-59.6-5.8-107.1-.3-47.5-3.4-74.6-9.8-93.1-6.2-18.4-38.4-3-38.4-3z"/><path class="st29" d="M151.9 485.4s14.9 1.9 23-1.8c-.4.1-18 5.2-18.3-19.7-.3-25.1 1.9-56.2 1.1-59.8-.7-3.5-4 69.5-5.8 81.3l-.1.5c.1-.1.1-.3.1-.5zm-26.6-208.8s33.8-10.6 38.5 3.1c4.7 13.7 6.8 29.3 7.6 40.7-11.2-15.5-34.5-16.6-43-10.3-8.6 6.3-6.3 21.2-6.3 21.2s7.5 1.8 8.1 5.2c.6 3.3-1.7 7.5-4.9 8.5-3.3 1-8.2-3.5-9.7.5-1.5 4.1-1.8 34.3-11.8 67.5s-21.7 56.9-21.7 56.9c-10.9-5.2-13.7-6.1 8.3-61.8 14.6-37.1 13.1-67.2 16.3-87.4 1.6-10.1 12.6-36.8 13.1-38.3 1.4-4.4 5.5-5.8 5.5-5.8zM85.7 479.5c.6.4 1.3.8 2 1 5.8 1.5 10.3 1.4 12.4 2.5 0 0 15.1-66 22.6-105.4 0 0 .3-3.5-1.2-3s-18.8 71.8-22.7 85.7c-3.2 11.4-7.4 18.1-13.1 19.2zm26.1 6.7c5.2-.3 12.1-.2 18.6 2.6-.9-.4-4.7-2.4-5.1-7-.4-5.2 1.6-26.9 1.9-30.2.3-3.3-2.7 2.2-6.7 19.2-1.9 8.5-5.6 13-8.7 15.4z"/><path class="st11" d="M139.3 168.7l12.4 3.5s12.6 37.4 23.4 56.2c10.8 18.8 29.7 46 30.3 48.7 2.1 2.5 5 3.2 6.5 3.9 1.8.8 3.5 3.8 4.7 5.3 1.2 1.5-.9 4.2-5 7.7-4.1 3.4-6.6-.5-8.1-2.8s-.2-5.8-.8-7.6c-.3-.8-1.1-2-1.9-3.1-5.2-5.1-33.2-34.1-48.3-68.9-15.1-34.7-13.2-42.9-13.2-42.9z"/><path class="st21" d="M121.9 65.2s-14.5-8.9-25 5.8-18.9 37-7.2 66-31 44.5-18.5 75.1c12.5 30.6 62.4 12.1 66.4 9.7 4-2.4 41.5 7.4 41.5 7.4s27-1 15.7-21.9-27.8-39.3-5.6-60c22.1-20.7-.8-48.3-13.3-61-3.6-3.6-5.2-7.8-6-12-7.9-42.1-41-24.5-48-9.1z"/><path class="st21" d="M92.6 77.9c-.5.9-1 1.8-1.5 2.8 26.3 33.1 57.2 11 72.3-23.7-4.3-6.3-9.9-8.8-15.6-8.8-4 40-38.2 52.6-55.2 29.7z"/><path class="st27" d="M89.3 84.4c-5.9 13.7-8.2 31.4.4 52.7 11.7 29-31 44.5-18.5 75.1 8.3 20.4 33.2 19 50.1 15.1 3.9-42.9-1.8-103.7-1.8-103.7l33.1-13.4 2.6-26c-49 48.3-65.9.3-65.9.2z"/><path class="st12" d="M137.6 221.8c.6-.4 2.1-.4 4-.3l28.5-5.4s14.6-3.6 2.4-26-2.7-31-2.3-50.6c.4-19.6-53-12.5-53-12.5l-8.3-7.9s-17.1 1.7-14.1 24.5c3 22.8-21.1 44.2-1.4 63 15.3 14.6 35.7 15.6 44.2 15.2z"/><path d="M116.3 182.1l1.4-4s3.4 1.1 8-.1c4.6-1.2 19.1 1.1 19.1 1.1l1-2.3s2.9.9 4.2-.3l1.9 1.9s.4 2.7-.6 3.3c-1 .6-9.4 1.5-11.8 1.5-2.3.1-23.2-1.1-23.2-1.1z" fill-rule="evenodd" clip-rule="evenodd" fill="#dbd7d7"/><path class="st16" d="M121 271.7s-1.1.5-1.4 1.2-1.7 6-1.3 7.1c3.5 7.8 46.3 9.7 47.2-1.2.2-2.2.3-9.9-1.5-10.7-1.8-.8-43 3.6-43 3.6z"/><path class="st28" d="M95.3 193c7-8.9 11-10 17-11.8l35.9-3.5c12.1.8 18.7 8.3 22 19.2 0 0 2.3 5.4 7.2 12s1.9 20.2-4.2 28.4c-.5 13.5-5.6 19.8-5.4 29.8.1 6-1.2 9.9-9.4 11.1-16.1 2.5-40-1-40.1-6.3-1-30.2-12.7-31.1-20.6-51.1 1.4-1.1 2.3-2.1 2.6-2.9.8-3 .5-19.6.3-20.8-.2-1.2-1.9-3.3-2.6-4.1-.1-.3-1.3-.2-2.7 0z"/><path class="st29" d="M95.3 193c7-8.9 11-10 17-11.8l14.9-1.4 9.9 3.4s-24.1-5.9-23.9 13.7c.2 19.6 18.8 39.7 28.3 42 9.5 2.3 15.8-11.6 24.1-6 8 5.4 11.8-3 12-3.6-1.1 2.9-2.6 5.7-4.3 8 0 1.2-.1 2.3-.2 3.4-16.1-1-38.7 3-37.7 17.2 1 14.1 14.1 17.8 22.3 20.5-16 2.6-39.1-1.2-39.3-6.4-1-30.2-12.7-31.1-20.6-51.1 1.4-1.1 2.3-2.1 2.6-2.9.8-3 .5-19.6.3-20.8-.2-1.2-1.9-3.3-2.6-4.1-.2-.4-1.4-.3-2.8-.1z"/><path class="st11" d="M125.5 151.5l.3 6.9v16.2c0 2.1-4.1 6.2-10.3 6.5-3 .1 2 3.5 8.8 7.4 14.3 8.2 30.3 16.5 29.5-5-.1-2.6-.9-4.7-2.6-5.5-.6-.3-1.3-.3-1.9-.5-1.2-.4-2.4-1-3.1-1.8-2.3-2.6-2.2-14 .1-17 2.4-3-20.8-7.2-20.8-7.2z"/><path class="st11" d="M126.7 152.9l.3 6.5v15.3c0 2-3.9 5.9-9.7 6.1-2.8.1 1.9 3.3 8.3 7 13.5 7.8 28.6 15.5 27.9-4.8-.1-2.5-.8-4.5-2.4-5.2-.5-.2-1.2-.3-1.8-.5-1.2-.4-2.2-.9-3-1.7-2.2-2.4-2.1-13.2.1-16 2.1-2.8-19.7-6.7-19.7-6.7z"/><circle transform="rotate(-45.001 103.579 130.017)" class="st18" cx="103.6" cy="130" r="9.5"/><path class="st19" d="M138.2 72.7c-17.8 0-32.4 14.6-32.4 32.4v29.5c0 17.8 14.6 32.4 32.4 32.4 17.8 0 32.4-14.6 32.4-32.4v-29.5c0-17.8-14.6-32.4-32.4-32.4z"/><path class="st11" d="M108.9 91.2c-2 4.2-3.2 9-3.2 13.9v29.5c0 17.8 14.6 32.4 32.4 32.4 1.1 0 2.1-.1 3.1-.2-34.6-5.8-36.2-46.5-21.4-48.2 18.3-2.1 34.9-16.6 34.9-16.6 2.8 5.1 10.5 8.8 15.8 10.8v-7.7c0-16-11.8-29.4-27.1-32-5.3.6-10 1.6-12.4 1.6-6.2 0-15.4 10-20.9 15.4-.2.3-.7.6-1.2 1.1z"/><path class="st21" d="M165.1 115.2h-9c-.9 0-1.7.8-1.7 1.7 0 .9.8 1.7 1.7 1.7h9c.9 0 1.7-.8 1.7-1.7 0-1-.8-1.7-1.7-1.7zM128.9 115.2h-9c-.9 0-1.7.8-1.7 1.7 0 .9.8 1.7 1.7 1.7h9c.9 0 1.7-.8 1.7-1.7 0-1-.8-1.7-1.7-1.7z"/><path class="st20" d="M132.2 141.1c0 5.7 4.6 10.3 10.3 10.3 5.7 0 10.3-4.6 10.3-10.3 0-1-.8-1.8-1.8-1.8h-17c-1 .1-1.8.9-1.8 1.8z"/><path class="st18" d="M162.7 145c2.6 0 4.7-2.1 4.7-4.7s-2.1-4.7-4.7-4.7-4.7 2.1-4.7 4.7 2.1 4.7 4.7 4.7zM122.3 145c2.6 0 4.7-2.1 4.7-4.7s-2.1-4.7-4.7-4.7-4.7 2.1-4.7 4.7 2.1 4.7 4.7 4.7z"/><path class="st21" d="M101.6 120.8l7-2.9s3.7 8.4-2.8 11.4v-4c-.1-2.2-1-4.5-4.2-4.5z"/><path class="st21" d="M155 84.1s-3.5 24.3-51.5 36.5l.5-35.1 24.6-17.3 24 3.2s12.9 8.5 14.1 10.3c1.2 1.8 8.7 24.6 8.7 24.6l-4.8 3.9c0-.1-10.3-4.8-15.6-26.1z"/><path class="st27" d="M155 84.1s-3.5 24.3-51.5 36.5l.3-18.2c10.4 6 26.8 5.9 51.2-18.3z"/><path class="st25" d="M92.6 77.9c-.5.9-1 1.8-1.5 2.8 26.3 33.1 57.2 11 72.3-23.7-4.3-6.3-9.9-8.8-15.6-8.8-4 40-38.2 52.6-55.2 29.7z"/><path class="st21" d="M129.3 129.6c0 .7.5 1.2 1.2 1.2s1.2-.5 1.2-1.2c0-1.6-.6-3-1.7-4.1-1-1-2.5-1.7-4.1-1.7-1.6 0-3 .6-4.1 1.7-1 1-1.7 2.5-1.7 4.1 0 .7.5 1.2 1.2 1.2s1.2-.5 1.2-1.2c0-.9.4-1.8 1-2.4.6-.6 1.5-1 2.4-1 .9 0 1.8.4 2.4 1 .7.6 1 1.5 1 2.4zM162.4 129.6c0 .7.5 1.2 1.2 1.2s1.2-.5 1.2-1.2c0-1.6-.6-3-1.7-4.1-1-1-2.5-1.7-4.1-1.7-1.6 0-3 .6-4.1 1.7-1 1-1.7 2.5-1.7 4.1 0 .7.5 1.2 1.2 1.2s1.2-.5 1.2-1.2c0-.9.4-1.8 1-2.4.6-.6 1.5-1 2.4-1 .9 0 1.8.4 2.4 1 .6.6 1 1.5 1 2.4z"/><path class="st20" d="M150.1 176.5s6.4 11.6-1.5 18.5c0 0 2.8 3.8 3.1 8.1.3 4.3 10.4-11.6.6-25.2l-2.2-1.4zM117.7 178.1s6.4 10.3 29.5 17.7c0 0-5.7 5.6-5.7 10.4 0 0-2.1 2.6-4.3 1.8-2.2-.7-21.5-18-22.5-26.7 0-.1 1.1-2.9 3-3.2z"/><path class="st19" d="M93.9 194.8c-2.3 4.1-27.3 72.5-26.9 80.2.4 7.7 24.3 33.2 35.3 46 3 4.3 9.1 13.2 10.8 15.2 2 2.5 11.4 6.8 15.1 4.8 1.9-1-7.9-8.8-8.9-12.3s6.7-2.7 1.7-5.6c-7.5-4.4-10.8-5.8-12.8-8.2-.1-.2-.2-.3-.4-.5-.5-.6-.9-1.3-1.3-2.2-.4-.8-.9-1.3-1.4-1.5-5.4-8.2-16.6-26.4-19-34.9-2.4-8.5 17.6-46.4 20.2-52.8 8-19.9-4.6-41.7-12.4-28.2z"/><path class="st11" d="M93.9 194.8c-2.3 4.1-27.3 72.5-26.9 80.2.4 7.7 24.3 33.2 35.3 46 3 4.3 9.1 13.2 10.8 15.2 2 2.5 11.4 6.8 15.1 4.8.8-.5-1.2-2.9-1.5-2.9-9.1-1.2-17.2-10-18.3-12.2-1.4-2.8-1.8-5.7-2.9-7.5-1.1-1.8-2.1-.9-3.2-1.6-1.1-.8-4.2-3.8-13.3-16.2-9.1-12.4-19.3-19.1-14.7-35.8 4.5-16.7 22.4-62 27.2-64.8 2.6-1.5 4.5-1.4 5.6-.9-2.8-8.2-8.7-12-13.2-4.3z"/></g></g></g></svg>