<svg xmlns="http://www.w3.org/2000/svg" xmlns:xlink="http://www.w3.org/1999/xlink" viewBox="0 0 466.85 235.85"><defs><style>.cls-1{isolation:isolate;}.cls-2{fill:url(#linear-gradient);}.cls-3{fill:url(#linear-gradient-2);}.cls-4{fill:url(#linear-gradient-3);}.cls-5{fill:url(#linear-gradient-4);}.cls-6{fill:url(#linear-gradient-5);}.cls-7{fill:url(#linear-gradient-6);}.cls-8{opacity:0.3;}.cls-9{fill:url(#linear-gradient-7);}.cls-10{fill:url(#linear-gradient-8);}.cls-11{fill:url(#linear-gradient-9);}.cls-12{fill:url(#linear-gradient-10);}.cls-13{fill:url(#linear-gradient-11);}.cls-14{fill:url(#linear-gradient-12);}.cls-15{fill:url(#linear-gradient-13);}.cls-16{fill:url(#linear-gradient-14);}.cls-17{fill:url(#linear-gradient-15);}.cls-18{fill:url(#linear-gradient-16);}.cls-19{fill:url(#linear-gradient-17);}.cls-20{fill:url(#linear-gradient-18);}.cls-21{fill:url(#linear-gradient-19);}.cls-22{fill:url(#linear-gradient-20);}.cls-23{fill:url(#linear-gradient-21);}.cls-24{fill:url(#linear-gradient-22);}.cls-25{fill:url(#linear-gradient-23);}.cls-26{fill:url(#linear-gradient-24);}.cls-27{fill:url(#linear-gradient-25);}.cls-28{fill:url(#linear-gradient-26);}.cls-29{fill:url(#linear-gradient-27);}.cls-30{fill:url(#linear-gradient-28);}.cls-31{fill:url(#linear-gradient-29);}.cls-32{fill:url(#linear-gradient-30);}.cls-33{fill:url(#linear-gradient-31);}.cls-34{fill:url(#linear-gradient-32);}.cls-35{fill:url(#linear-gradient-33);}.cls-36{fill:url(#linear-gradient-34);}.cls-37{fill:url(#linear-gradient-35);}.cls-38{fill:url(#linear-gradient-36);}.cls-39{fill:url(#linear-gradient-37);}.cls-40{fill:url(#linear-gradient-38);}.cls-41{fill:url(#linear-gradient-39);}.cls-42{fill:url(#linear-gradient-40);}.cls-43{fill:url(#linear-gradient-41);}.cls-44{fill:url(#linear-gradient-42);}.cls-45{fill:url(#linear-gradient-43);}.cls-46{fill:url(#linear-gradient-44);}.cls-47{fill:url(#linear-gradient-45);}.cls-48{fill:url(#linear-gradient-46);}.cls-49{fill:url(#linear-gradient-47);}.cls-50{fill:url(#linear-gradient-48);}.cls-51{fill:url(#linear-gradient-49);}.cls-52{fill:url(#linear-gradient-50);}.cls-53{fill:url(#linear-gradient-51);}.cls-54{fill:url(#linear-gradient-52);}.cls-55{fill:url(#linear-gradient-53);}.cls-56{fill:url(#linear-gradient-54);}.cls-57{fill:url(#linear-gradient-55);}.cls-58{fill:url(#linear-gradient-56);}.cls-59{fill:url(#linear-gradient-57);}.cls-60{fill:url(#linear-gradient-58);}.cls-61{fill:url(#linear-gradient-59);}.cls-62{fill:url(#linear-gradient-60);}.cls-63{fill:url(#linear-gradient-61);}.cls-64{fill:#fff;}.cls-65{fill:url(#linear-gradient-62);}.cls-66,.cls-74{fill:#f9f9f9;}.cls-67{fill:#cecde9;}.cls-68{fill:#fd425f;}.cls-69{fill:#3c49b9;}.cls-70{fill:#111b34;}.cls-71{fill:#ef8b67;}.cls-72{fill:#f4bca3;}.cls-73{fill:url(#linear-gradient-63);}.cls-74{opacity:0.55;mix-blend-mode:screen;}.cls-75{fill:#932646;}.cls-76{fill:url(#linear-gradient-64);}.cls-77{fill:url(#linear-gradient-65);}.cls-78{fill:url(#linear-gradient-66);}.cls-79{fill:url(#linear-gradient-67);}.cls-80{fill:#b3b2da;}.cls-81{fill:url(#linear-gradient-68);}.cls-82{fill:#3c4db5;}.cls-83{fill:url(#linear-gradient-69);}.cls-84{fill:url(#linear-gradient-70);}.cls-85{fill:url(#linear-gradient-71);}.cls-86{fill:#8494ab;}.cls-87{fill:#4d6486;}.cls-88{fill:#c8ced9;}.cls-89{fill:url(#linear-gradient-72);}.cls-90{fill:url(#linear-gradient-73);}.cls-91{fill:url(#linear-gradient-74);}.cls-92{fill:url(#linear-gradient-75);}.cls-93{fill:url(#linear-gradient-76);}.cls-94{fill:url(#linear-gradient-77);}.cls-95{fill:url(#linear-gradient-78);}.cls-96{fill:url(#linear-gradient-79);}.cls-97{fill:url(#linear-gradient-80);}.cls-98{fill:url(#radial-gradient);}.cls-99{fill:#60d3be;}.cls-100{fill:#dae2f2;}</style><linearGradient id="linear-gradient" x1="-456.85" y1="2958.22" x2="-348.93" y2="2958.22" gradientTransform="matrix(0.17, 0.99, -0.99, 0.17, 3213.96, -31.7)" gradientUnits="userSpaceOnUse"><stop offset="0" stop-color="#b3e0fd"/><stop offset="0.5" stop-color="#d7ecfd"/><stop offset="1" stop-color="#f0f8ff"/></linearGradient><linearGradient id="linear-gradient-2" x1="-2683.41" y1="-825.47" x2="-2612.3" y2="-896.59" gradientTransform="matrix(0.85, -0.53, 0.53, 0.85, 2882.57, -534.62)" xlink:href="#linear-gradient"/><linearGradient id="linear-gradient-3" x1="-3129.89" y1="203.41" x2="-3188.45" y2="156.96" gradientTransform="translate(3241.97)" xlink:href="#linear-gradient"/><linearGradient id="linear-gradient-4" x1="-3157.28" y1="232.01" x2="-3198.02" y2="197.83" gradientTransform="translate(3241.97)" xlink:href="#linear-gradient"/><linearGradient id="linear-gradient-5" x1="3876.21" y1="232.75" x2="3834.68" y2="197.9" gradientTransform="matrix(-1, 0, 0, 1, 4018.15, 0)" xlink:href="#linear-gradient"/><linearGradient id="linear-gradient-6" x1="3423.99" y1="228.66" x2="3463.25" y2="114.82" gradientTransform="matrix(-1, 0, 0.17, 1, 3534.78, 0)" xlink:href="#linear-gradient"/><linearGradient id="linear-gradient-7" x1="-3136.62" y1="162.33" x2="-3110.8" y2="162.33" gradientTransform="translate(3241.97)" xlink:href="#linear-gradient"/><linearGradient id="linear-gradient-8" x1="-3111.21" y1="182.49" x2="-3053.52" y2="182.49" gradientTransform="translate(3241.97)" xlink:href="#linear-gradient"/><linearGradient id="linear-gradient-9" x1="-3190.75" y1="182.49" x2="-3110.79" y2="182.49" gradientTransform="translate(3241.97)" xlink:href="#linear-gradient"/><linearGradient id="linear-gradient-10" x1="-3131.33" y1="110.85" x2="-3124.07" y2="110.85" gradientTransform="translate(3241.97)" xlink:href="#linear-gradient"/><linearGradient id="linear-gradient-11" x1="-3147.04" y1="128.94" x2="-3127.69" y2="128.94" gradientTransform="translate(3241.97)" xlink:href="#linear-gradient"/><linearGradient id="linear-gradient-12" x1="-3126.53" y1="138.64" x2="-3115.93" y2="138.64" gradientTransform="translate(3241.97)" xlink:href="#linear-gradient"/><linearGradient id="linear-gradient-13" x1="-3137.46" y1="168.53" x2="-3121.16" y2="168.53" gradientTransform="translate(3241.97)" xlink:href="#linear-gradient"/><linearGradient id="linear-gradient-14" x1="-3168.59" y1="144.28" x2="-3167.68" y2="144.28" gradientTransform="translate(3241.97)" xlink:href="#linear-gradient"/><linearGradient id="linear-gradient-15" x1="-3153.48" y1="171.79" x2="-3152.88" y2="171.79" gradientTransform="translate(3241.97)" xlink:href="#linear-gradient"/><linearGradient id="linear-gradient-16" x1="-3174.35" y1="163.62" x2="-3161.94" y2="163.62" gradientTransform="translate(3241.97)" xlink:href="#linear-gradient"/><linearGradient id="linear-gradient-17" x1="-3139.58" y1="196.16" x2="-3137.01" y2="196.16" gradientTransform="translate(3241.97)" xlink:href="#linear-gradient"/><linearGradient id="linear-gradient-18" x1="-3155.41" y1="189.7" x2="-3145.04" y2="189.7" gradientTransform="translate(3241.97)" xlink:href="#linear-gradient"/><linearGradient id="linear-gradient-19" x1="-3088.83" y1="146.63" x2="-3081.85" y2="146.63" gradientTransform="translate(3241.97)" xlink:href="#linear-gradient"/><linearGradient id="linear-gradient-20" x1="-3094.04" y1="169.07" x2="-3086.07" y2="169.07" gradientTransform="translate(3241.97)" xlink:href="#linear-gradient"/><linearGradient id="linear-gradient-21" x1="-3093.38" y1="193.01" x2="-3081.34" y2="193.01" gradientTransform="translate(3241.97)" xlink:href="#linear-gradient"/><linearGradient id="linear-gradient-22" x1="-3160.25" y1="199.3" x2="-3151.28" y2="199.3" gradientTransform="translate(3241.97)" xlink:href="#linear-gradient"/><linearGradient id="linear-gradient-23" x1="-3183.37" y1="187.32" x2="-3173.93" y2="187.32" gradientTransform="translate(3241.97)" xlink:href="#linear-gradient"/><linearGradient id="linear-gradient-24" x1="-3150.63" y1="213.92" x2="-3143.2" y2="213.92" gradientTransform="translate(3241.97)" xlink:href="#linear-gradient"/><linearGradient id="linear-gradient-25" x1="-3069.32" y1="186.23" x2="-3066.99" y2="186.23" gradientTransform="translate(3241.97)" xlink:href="#linear-gradient"/><linearGradient id="linear-gradient-26" x1="-3080.35" y1="202.69" x2="-3079.74" y2="202.69" gradientTransform="translate(3241.97)" xlink:href="#linear-gradient"/><linearGradient id="linear-gradient-27" x1="-3075.25" y1="201.25" x2="-3065.48" y2="201.25" gradientTransform="translate(3241.97)" xlink:href="#linear-gradient"/><linearGradient id="linear-gradient-28" x1="-3118.03" y1="189.33" x2="-3110.09" y2="189.33" gradientTransform="translate(3241.97)" xlink:href="#linear-gradient"/><linearGradient id="linear-gradient-29" x1="632.11" y1="201.3" x2="568.09" y2="150.53" gradientTransform="matrix(-1, 0, 0, 1, 968.68, 0)" xlink:href="#linear-gradient"/><linearGradient id="linear-gradient-30" x1="501.82" y1="204.64" x2="697.62" y2="204.64" gradientTransform="matrix(-1, 0, 0, 1, 968.68, 0)" xlink:href="#linear-gradient"/><linearGradient id="linear-gradient-31" x1="-2808.55" y1="47.97" x2="-2886.75" y2="157.55" gradientTransform="translate(3241.97)" xlink:href="#linear-gradient"/><linearGradient id="linear-gradient-32" x1="-2895.95" y1="380.91" x2="-2839.21" y2="324.17" gradientTransform="matrix(0.99, 0.11, -0.11, 0.99, 3242.51, 85.42)" xlink:href="#linear-gradient"/><linearGradient id="linear-gradient-33" x1="-2990.13" y1="161" x2="-3033.29" y2="106.41" gradientTransform="translate(3241.97)" xlink:href="#linear-gradient"/><linearGradient id="linear-gradient-34" x1="3598.99" y1="239.32" x2="3658.09" y2="199.8" gradientTransform="matrix(-1, 0, 0, 1, 3874.23, 0)" xlink:href="#linear-gradient"/><linearGradient id="linear-gradient-35" x1="3501.56" y1="222.54" x2="3540.77" y2="208.27" gradientTransform="matrix(-1, 0, 0, 1, 3874.23, 0)" xlink:href="#linear-gradient"/><linearGradient id="linear-gradient-36" x1="-2892.64" y1="715.65" x2="-2943.78" y2="637.43" gradientTransform="matrix(0.98, 0.18, -0.18, 0.98, 3277.93, -16.59)" xlink:href="#linear-gradient"/><linearGradient id="linear-gradient-37" x1="-2838.9" y1="93.53" x2="-2925.11" y2="208.98" gradientTransform="translate(3241.97)" xlink:href="#linear-gradient"/><linearGradient id="linear-gradient-38" x1="-2935.25" y1="164.83" x2="-2845.18" y2="164.83" gradientTransform="translate(3241.97)" xlink:href="#linear-gradient"/><linearGradient id="linear-gradient-39" x1="-2898.19" y1="154.58" x2="-2897.65" y2="154.58" gradientTransform="translate(3241.97)" xlink:href="#linear-gradient"/><linearGradient id="linear-gradient-40" x1="-2903.02" y1="169.71" x2="-2872.31" y2="169.71" gradientTransform="translate(3241.97)" xlink:href="#linear-gradient"/><linearGradient id="linear-gradient-41" x1="-2915.71" y1="190.17" x2="-2901.74" y2="190.17" gradientTransform="translate(3241.97)" xlink:href="#linear-gradient"/><linearGradient id="linear-gradient-42" x1="-2886.63" y1="146.46" x2="-2884.45" y2="146.46" gradientTransform="translate(3241.97)" xlink:href="#linear-gradient"/><linearGradient id="linear-gradient-43" x1="-2877.32" y1="143.6" x2="-2867.66" y2="143.6" gradientTransform="translate(3241.97)" xlink:href="#linear-gradient"/><linearGradient id="linear-gradient-44" x1="-2857.31" y1="111.49" x2="-2855.86" y2="111.49" gradientTransform="translate(3241.97)" xlink:href="#linear-gradient"/><linearGradient id="linear-gradient-45" x1="-2862.82" y1="125.33" x2="-2850.18" y2="125.33" gradientTransform="translate(3241.97)" xlink:href="#linear-gradient"/><linearGradient id="linear-gradient-46" x1="3565.21" y1="238.48" x2="3532.23" y2="25.07" gradientTransform="matrix(-1, 0, 0, 1, 3874.23, 0)" xlink:href="#linear-gradient"/><linearGradient id="linear-gradient-47" x1="-2937.53" y1="129.07" x2="-2903.74" y2="129.07" gradientTransform="translate(3241.97)" xlink:href="#linear-gradient"/><linearGradient id="linear-gradient-48" x1="-2922.93" y1="105.76" x2="-2895.5" y2="105.76" gradientTransform="translate(3241.97)" xlink:href="#linear-gradient"/><linearGradient id="linear-gradient-49" x1="-2932.14" y1="92.39" x2="-2920.2" y2="92.39" gradientTransform="translate(3241.97)" xlink:href="#linear-gradient"/><linearGradient id="linear-gradient-50" x1="-2930.82" y1="161.37" x2="-2906.12" y2="161.37" gradientTransform="translate(3241.97)" xlink:href="#linear-gradient"/><linearGradient id="linear-gradient-51" x1="-2947.09" y1="170.56" x2="-2932.01" y2="170.56" gradientTransform="translate(3241.97)" xlink:href="#linear-gradient"/><linearGradient id="linear-gradient-52" x1="-2908.95" y1="41.28" x2="-2896.76" y2="41.28" gradientTransform="translate(3241.97)" xlink:href="#linear-gradient"/><linearGradient id="linear-gradient-53" x1="-2912.12" y1="33.47" x2="-2906.77" y2="33.47" gradientTransform="translate(3241.97)" xlink:href="#linear-gradient"/><linearGradient id="linear-gradient-54" x1="-2918.08" y1="84.83" x2="-2906.48" y2="84.83" gradientTransform="translate(3241.97)" xlink:href="#linear-gradient"/><linearGradient id="linear-gradient-55" x1="-2918.91" y1="59.72" x2="-2913.27" y2="59.72" gradientTransform="translate(3241.97)" xlink:href="#linear-gradient"/><linearGradient id="linear-gradient-56" x1="-2927.82" y1="143.24" x2="-2914.68" y2="143.24" gradientTransform="translate(3241.97)" xlink:href="#linear-gradient"/><linearGradient id="linear-gradient-57" x1="-2935.16" y1="202.53" x2="-2922.07" y2="202.53" gradientTransform="translate(3241.97)" xlink:href="#linear-gradient"/><linearGradient id="linear-gradient-58" x1="255.96" y1="69.72" x2="365.08" y2="69.72" gradientUnits="userSpaceOnUse"><stop offset="0" stop-color="#a757a1"/><stop offset="1" stop-color="#3850a2"/></linearGradient><linearGradient id="linear-gradient-59" x1="309.25" y1="69.72" x2="311.79" y2="69.72" xlink:href="#linear-gradient-58"/><linearGradient id="linear-gradient-60" x1="257.77" y1="69.72" x2="363.27" y2="69.72" xlink:href="#linear-gradient-58"/><linearGradient id="linear-gradient-61" x1="215.19" y1="31.18" x2="239.54" y2="31.18" xlink:href="#linear-gradient-58"/><linearGradient id="linear-gradient-62" x1="319.24" y1="93.42" x2="196.27" y2="93.42" gradientUnits="userSpaceOnUse"><stop offset="0" stop-color="#00bbc5"/><stop offset="1" stop-color="#4f3292"/></linearGradient><linearGradient id="linear-gradient-63" x1="245.01" y1="120.52" x2="245.01" y2="95.05" xlink:href="#linear-gradient-62"/><linearGradient id="linear-gradient-64" x1="231.89" y1="111.49" x2="231.89" y2="139.75" xlink:href="#linear-gradient-62"/><linearGradient id="linear-gradient-65" x1="284.37" y1="111.49" x2="284.37" y2="139.75" xlink:href="#linear-gradient-62"/><linearGradient id="linear-gradient-66" x1="184.79" y1="235.28" x2="184.79" y2="138.44" xlink:href="#linear-gradient-62"/><linearGradient id="linear-gradient-67" x1="330.48" y1="235.28" x2="330.48" y2="138.44" xlink:href="#linear-gradient-62"/><linearGradient id="linear-gradient-68" x1="257.82" y1="152.21" x2="257.82" y2="214.81" xlink:href="#linear-gradient-62"/><linearGradient id="linear-gradient-69" x1="257.82" y1="165.57" x2="257.82" y2="107.03" gradientUnits="userSpaceOnUse"><stop offset="0" stop-color="#393091"/><stop offset="1" stop-color="#f05c2a"/></linearGradient><linearGradient id="linear-gradient-70" x1="198.64" y1="138.43" x2="198.64" y2="133.34" xlink:href="#linear-gradient-62"/><linearGradient id="linear-gradient-71" x1="195.16" y1="133.34" x2="195.16" y2="128.24" gradientUnits="userSpaceOnUse"><stop offset="0" stop-color="#f1ce41"/><stop offset="1" stop-color="#e73d25"/></linearGradient><linearGradient id="linear-gradient-72" x1="213.51" y1="70.49" x2="233.66" y2="46.48" gradientUnits="userSpaceOnUse"><stop offset="0" stop-color="#f05c2a"/><stop offset="1" stop-color="#393091"/></linearGradient><linearGradient id="linear-gradient-73" x1="219.8" y1="59.08" x2="227.36" y2="59.08" xlink:href="#linear-gradient-69"/><linearGradient id="linear-gradient-74" x1="126.45" y1="41.6" x2="196.11" y2="41.6" xlink:href="#linear-gradient-62"/><linearGradient id="linear-gradient-75" x1="163.88" y1="25.23" x2="168.76" y2="25.23" xlink:href="#linear-gradient-62"/><linearGradient id="linear-gradient-76" x1="156.46" y1="26.93" x2="161.34" y2="26.93" xlink:href="#linear-gradient-71"/><linearGradient id="linear-gradient-77" x1="179.41" y1="25.46" x2="174.09" y2="27.4" gradientTransform="translate(22.41 -63.68) rotate(21.77)" xlink:href="#linear-gradient-71"/><linearGradient id="linear-gradient-78" x1="176.34" y1="26.43" x2="190.31" y2="26.43" gradientTransform="translate(22.88 -66.12) rotate(21.77)" xlink:href="#linear-gradient-58"/><linearGradient id="linear-gradient-79" x1="141.9" y1="39.15" x2="141.9" y2="34.77" xlink:href="#linear-gradient-69"/><linearGradient id="linear-gradient-80" x1="284.94" y1="64.01" x2="284.94" y2="37.1" xlink:href="#linear-gradient-71"/><radialGradient id="radial-gradient" cx="342.61" cy="50.55" r="8.42" xlink:href="#linear-gradient-58"/></defs><title>Private-Tutoring</title><g class="cls-1"><g id="Layer_1" data-name="Layer 1"><path class="cls-2" d="M198.08,19.89A54.75,54.75,0,0,1,208,70.46C212.6,36.39,240.35,6.69,274-.2c6,28.22-9.55,59.56-35.64,71.87,17.7-10,31.2-19,51.4-16.07-7.42,42.67-58.38,64-103,67.7C168.08,102.9,165.1,44.24,198.08,19.89Z"/><path class="cls-3" d="M140.43,120.15a48.9,48.9,0,0,1,33.22,18.57,97.9,97.9,0,0,1-23.16-75.55c13.72,19.5,32.49,9.58,38.37,32.37.84-9.52,5-14.91,11.43-20.21,33.58,43.51,19.6,100-6.78,122.91C181.81,169.16,140.68,165.36,140.43,120.15Z"/><path class="cls-4" d="M63.21,208.92c-3-2.09-6-4.56-7.3-8s-.38-7.95,2.9-9.55c2.58-1.26,5.67-.41,8.35.61A71.89,71.89,0,0,1,87,203.56c-7.79-4.59-15.64-9.22-22.32-15.31s-12.18-13.84-14-22.68a17.75,17.75,0,0,1,.1-9,9.31,9.31,0,0,1,6.1-6.3c4-1.07,8,1.26,11.25,3.77a70.09,70.09,0,0,1,21.29,27.37,46.89,46.89,0,0,1-9-21.24c-.75-4.9-.33-10.72,3.69-13.62,4.17-3,10.14-1.31,14.31,1.69,9.89,7.12,29.27,28.5,35.48,39,22.15,37.38-14.52,39.08-25.74,36.18-4.39-1.14-9-1-13.43-1.72a77.09,77.09,0,0,1-15.49-4.24A76.21,76.21,0,0,1,63.21,208.92Z"/><path class="cls-5" d="M100.79,200.34C85.68,168.19,31.27,160.46,52,205.16c-9.18-8.48-20.87-9.92-24-5.72s-.78,11,4.37,17.78c-21.41-6.77-21.85,6.36-15,12.15-10.51-4.9-9.66,3-17.24,6.08H130.56V197C118.26,181.44,94.44,177.52,100.79,200.34Z"/><path class="cls-6" d="M124.26,200.34c15.11-32.15,69.52-39.88,48.82,4.82,9.19-8.48,20.88-9.92,24-5.72s.78,11-4.37,17.78c21.41-6.77,21.85,6.36,15,12.15,10.52-4.9,14.59,3,22.16,6.08H94.49V197C106.79,181.44,130.61,177.52,124.26,200.34Z"/><path class="cls-7" d="M42.39,161.53c3.75-2.79,9.62-1.81,13.68,1.95l8.81,8.16c1.86,1.73,4.35,0,3.1-2.18-7.71-13.3-12.92-26.89-13.67-41.41-.21-4.07,1.76-7.71,5.4-9.06,7.37-2.72,13.78,5.46,17.77,12.26l.33.57c4.56,7.77,15.78,5.56,14.38-2.84A112,112,0,0,1,91,97.89c.82-7.3,3.24-15.49,10.43-17a27.71,27.71,0,0,1,5.31,0c7.7,1.46,13,9.65,16.32,17a132.57,132.57,0,0,1,11.07,40.75c1.18,7.2,10,9.86,12.2.47q1.62-6.75,3.23-13.48a9,9,0,0,1,7.8-7.11c8.2-1,13,8.48,14.51,16,2.49,12.13,1.74,23.66-.88,35-.51,2.16,2.59,3.91,3.86,2.18l6-8.16c2.75-3.76,8.28-4.74,13-1.95,7.74,4.59,5,13.64,1.33,19.33-11.38,17.55-34,46.47-57.51,54.59h-13.4c-26.37-8.12-59-37-76.49-54.59C42.1,175.17,36.24,166.12,42.39,161.53Z"/><g class="cls-8"><path class="cls-9" d="M131,235.65a.21.21,0,0,1-.21-.17L105.35,89.26a.21.21,0,0,1,.17-.24.21.21,0,0,1,.24.17l25.41,146.22a.21.21,0,0,1-.17.24Z"/></g><g class="cls-8"><path class="cls-10" d="M131,235.65a.24.24,0,0,1-.14-.05.21.21,0,0,1,0-.26c20.35-35.79,30.48-70.41,31-105.81a.21.21,0,0,1,.21-.21h0a.2.2,0,0,1,.2.21c-.49,35.2-10.49,69.6-30.55,105.16,24.34-18.3,43.84-40.21,56.43-63.41a.21.21,0,0,1,.37.19c-12.76,23.51-32.59,45.69-57.34,64.14A.19.19,0,0,1,131,235.65Z"/></g><g class="cls-8"><path class="cls-11" d="M131,235.65a.2.2,0,0,1-.11,0C99.71,217.18,72.19,195,51.26,171.51a.22.22,0,0,1,0-.29.2.2,0,0,1,.29,0c20.63,23.16,47.68,45,78.3,63.31C97.55,199.07,75.65,164.73,63,129.6a.22.22,0,0,1,.12-.27.22.22,0,0,1,.27.13c12.8,35.42,35,70,67.78,105.84a.23.23,0,0,1,0,.28A.2.2,0,0,1,131,235.65Z"/></g><g class="cls-8"><path class="cls-12" d="M110.85,119.87l-.08,0a.2.2,0,0,1-.12-.26L117.49,102a.21.21,0,0,1,.27-.11.21.21,0,0,1,.12.27L111,119.74A.21.21,0,0,1,110.85,119.87Z"/></g><g class="cls-8"><path class="cls-13" d="M114.07,138.43a.2.2,0,0,1-.14-.06L95,119.81a.21.21,0,0,1,0-.29.2.2,0,0,1,.29,0l18.94,18.56a.22.22,0,0,1,0,.3A.22.22,0,0,1,114.07,138.43Z"/></g><g class="cls-8"><path class="cls-14" d="M115.65,147.5a.23.23,0,0,1-.11,0,.2.2,0,0,1-.07-.28l10.18-17.3a.21.21,0,0,1,.29-.08.21.21,0,0,1,.07.29l-10.18,17.3A.22.22,0,0,1,115.65,147.5Z"/></g><g class="cls-8"><path class="cls-15" d="M120.6,176a.2.2,0,0,1-.14-.06L104.57,161.4a.21.21,0,0,1,.28-.31l15.89,14.57a.21.21,0,0,1,0,.29A.21.21,0,0,1,120.6,176Z"/></g><g class="cls-8"><path class="cls-16" d="M74.08,155.25a.21.21,0,0,1-.21-.21l-.49-21.51a.19.19,0,0,1,.2-.21h0a.2.2,0,0,1,.21.2L74.28,155a.21.21,0,0,1-.2.22Z"/></g><g class="cls-8"><path class="cls-17" d="M88.88,181.44a.21.21,0,0,1-.21-.2l-.18-18.9a.2.2,0,0,1,.2-.21h0a.2.2,0,0,1,.21.2l.19,18.9A.23.23,0,0,1,88.88,181.44Z"/></g><g class="cls-8"><path class="cls-18" d="M79.82,166.19h-.07l-12-4.74a.2.2,0,0,1-.11-.27.2.2,0,0,1,.26-.12l12,4.74a.21.21,0,0,1-.08.4Z"/></g><g class="cls-8"><path class="cls-19" d="M104.75,204.29a.22.22,0,0,1-.21-.18l-2.15-15.83a.21.21,0,0,1,.18-.24.22.22,0,0,1,.23.18L105,204.05a.2.2,0,0,1-.17.23Z"/></g><g class="cls-8"><path class="cls-20" d="M96.72,193.22a.2.2,0,0,1-.11,0l-10-6.63a.21.21,0,0,1-.06-.29.21.21,0,0,1,.29-.06l10,6.63a.21.21,0,0,1,0,.29A.2.2,0,0,1,96.72,193.22Z"/></g><g class="cls-8"><path class="cls-21" d="M159.91,155.25a.2.2,0,0,1-.19-.14l-6.57-16.81a.21.21,0,0,1,.12-.27.2.2,0,0,1,.26.12L160.1,155a.21.21,0,0,1-.12.27Z"/></g><g class="cls-8"><path class="cls-22" d="M155.69,176a.21.21,0,0,1-.18-.11L148,162.44a.22.22,0,0,1,.08-.29.21.21,0,0,1,.28.08l7.56,13.48a.21.21,0,0,1-.08.28A.19.19,0,0,1,155.69,176Z"/></g><g class="cls-8"><path class="cls-23" d="M148.8,197.83a.18.18,0,0,1-.16-.08.21.21,0,0,1,0-.29l11.62-9.22a.2.2,0,1,1,.25.32l-11.61,9.23A.22.22,0,0,1,148.8,197.83Z"/></g><g class="cls-8"><path class="cls-24" d="M90.48,208a.21.21,0,0,1-.19-.11l-8.55-16.91a.21.21,0,1,1,.37-.19l8.55,16.91a.21.21,0,0,1-.09.28Z"/></g><g class="cls-8"><path class="cls-25" d="M67.83,188.46h0l-9-1.86a.22.22,0,0,1-.16-.25.22.22,0,0,1,.25-.16l9,1.87a.21.21,0,0,1,.16.24A.21.21,0,0,1,67.83,188.46Z"/></g><g class="cls-8"><path class="cls-26" d="M98.56,214.13h-7a.21.21,0,0,1-.21-.21.21.21,0,0,1,.21-.21h7a.21.21,0,0,1,.2.21A.2.2,0,0,1,98.56,214.13Z"/></g><g class="cls-8"><path class="cls-27" d="M172.85,195h0a.2.2,0,0,1-.18-.23l1.91-17.08a.2.2,0,0,1,.23-.18.2.2,0,0,1,.18.22l-1.91,17.09A.21.21,0,0,1,172.85,195Z"/></g><g class="cls-8"><path class="cls-28" d="M161.83,208h0a.21.21,0,0,1-.2-.21l.19-10.13a.21.21,0,0,1,.21-.2h0a.21.21,0,0,1,.21.21l-.2,10.13A.2.2,0,0,1,161.83,208Z"/></g><g class="cls-8"><path class="cls-29" d="M166.92,202.24a.21.21,0,0,1,0-.42l9.36-1.54a.2.2,0,0,1,.24.17.21.21,0,0,1-.17.24L167,202.23Z"/></g><g class="cls-8"><path class="cls-30" d="M124.14,196.37l-.1,0a.21.21,0,0,1-.08-.29l7.52-13.67a.21.21,0,0,1,.37.2l-7.53,13.67A.21.21,0,0,1,124.14,196.37Z"/></g><path class="cls-31" d="M391.11,202.3c3-2.09,6-4.56,7.3-8s.39-8-2.9-9.55c-2.58-1.26-5.66-.41-8.35.61a72.1,72.1,0,0,0-19.84,11.54c7.79-4.58,15.64-9.21,22.32-15.31s12.18-13.83,14.05-22.68a17.64,17.64,0,0,0-.11-9,9.33,9.33,0,0,0-6.1-6.3c-4-1.06-8,1.27-11.25,3.78a70.11,70.11,0,0,0-21.29,27.37,46.78,46.78,0,0,0,9-21.24c.75-4.9.33-10.72-3.69-13.62s-10.14-1.31-14.31,1.69c-9.88,7.11-13.9,19.61-18.92,30.7a132.5,132.5,0,0,1-26,38.05c-1.61,1.65-3.37,4.07-2.1,6a4.85,4.85,0,0,0,3.24,1.66,74,74,0,0,0,34.06-1.23c4.39-1.14,9-1,13.44-1.72a77.48,77.48,0,0,0,15.48-4.24A76.68,76.68,0,0,0,391.11,202.3Z"/><path class="cls-32" d="M361.15,200.3c15.11-32.15,69.52-39.88,48.83,4.83,9.18-8.49,20.87-9.93,24-5.73s.78,11-4.37,17.78c21.41-6.77,21.85,6.36,15,12.15,10.52-4.9,14.59,3,22.16,6.08H271.05V197C351.84,177.48,367.5,177.48,361.15,200.3Z"/><path class="cls-33" d="M431.83,120.73a47.79,47.79,0,0,0-44.2,8.3c26.13-14.73,41.23-46.82,35.92-76.34-24.8,4.27-45.18,27-46.72,52.12a54.53,54.53,0,0,0-1.35-51.22c-25.87,29.33-41.2,75.29-23.9,129.45C377.44,154.49,422.4,160.79,431.83,120.73Z"/><path class="cls-34" d="M322.8,103.14A47.07,47.07,0,0,1,337,136.87a94.09,94.09,0,0,1,27.16-70.94c-1.28,19,11.65,36.7,2.62,57.45,6.09-11,17.43-15.8,27.92-18.78-.31,52.85-26.84,77.34-60.39,79.1-1.38-23.06-12.14-37.82-13.42-47.65A86.69,86.69,0,0,1,322.8,103.14Z"/><path class="cls-35" d="M226.36,176.19c-8.44-8.05-40.79-41.8-30.75-84.54,1.54-6.54,8.59-13.52,15.33-11.74,17.64,4.64,28.44,32.7,56.95,48,30.66,16.46,34.88,63.23,31.62,101.62H258.86C257.57,206.09,234.75,184.2,226.36,176.19Z"/><path class="cls-36" d="M213,183.09c-3.33-.61-7.57,0-8.53,3.09-1.11,3.62,3.12,6.8,6.66,8.56l21.19,10.54c3.12,1.55,3.1,1.77-.16.73a61.66,61.66,0,0,0-22.73-2.84c-3.62.25-8.07,1.77-8,5.41s4.49,5.59,8.08,6.52c10.29,2.66,22.75,2.51,18.26,3s-8,6.26-4.73,9.65a9.64,9.64,0,0,0,4.64,2.29c9.93,2.74,30,5.43,52.89,5.43C277.4,224.09,253.14,190.45,213,183.09Z"/><path class="cls-37" d="M382.62,187.61c3-.56,6.91,0,8.15,2.83,1.42,3.3-2.09,6.2-5.13,7.81l-18.17,9.63c-2.67,1.42-2.63,1.62.23.67A53.93,53.93,0,0,1,388.15,206c3.33.22,7.57,1.61,7.94,4.94s-3.47,5.1-6.64,5.95c-9.1,2.44-20.48,2.16-16.35,2.72,19.39,2.65,23.76,8.17,22.93,15.87h-98.3C300.93,221.93,348.54,194,382.62,187.61Z"/><path class="cls-38" d="M309,197.07c-.9-7.7,3.65-35.4,7.52-41.95,30.12-50.91-19.75-73.08-13.34-128.2.87-7.53-6.14-16.33-13.46-16.11-6.45.2-9.81,7.9-9.41,14.51s3.11,13.13,2.81,19.7c-.42,9.11-6.44,16.45-11.73,23.53s-18.21,21-10.75,39c9.76,23.52,5.68,33.64.74,44.78-4.27,9.61,3.12,22,2.84,32.91-.15,5.92-5.54,12.5-3.71,18.25,4.45,14,11.26,28.93,26.6,31.5C307.29,238.37,310.65,211.57,309,197.07Z"/><path class="cls-39" d="M322.2,174.15c10.12-8.27,1.6-27.26,9.78-37.45,7.92-9.86,25.25-4.68,35.82-11.68,7.09-4.68,9.57-13.68,13.54-21.2s12.14-14.59,20.45-11.36c7.45,2.88,10.17,12.86,7.57,20.07s-8.85,12.2-14.9,16.78-12.41,9.39-15.35,16.45c-2.73,6.56-2.19,14.26-4.63,21-9.63,26.43-43.72,25.75-38.51,68.73h-56.5C279.47,190.17,317.85,177.7,322.2,174.15Z"/><g class="cls-8"><path class="cls-40" d="M306.93,226.27l-.09,0a.2.2,0,0,1-.1-.27c13-29.64,34.8-55.27,55.87-80.06,12.31-14.48,23.93-28.15,33.8-42.45a.22.22,0,0,1,.29,0,.21.21,0,0,1,.05.29c-9.88,14.31-21.51,28-33.82,42.48-21.06,24.77-42.83,50.38-55.81,80A.22.22,0,0,1,306.93,226.27Z"/></g><g class="cls-8"><path class="cls-41" d="M344,168.74h0a.2.2,0,0,1-.2-.21l.13-27.91a.2.2,0,0,1,.2-.2h0a.21.21,0,0,1,.21.21l-.13,27.9A.21.21,0,0,1,344,168.74Z"/></g><g class="cls-8"><path class="cls-42" d="M339.15,174.81a.2.2,0,0,1-.19-.15.2.2,0,0,1,.13-.26l30.3-9.77a.21.21,0,0,1,.26.13.2.2,0,0,1-.13.26l-30.3,9.78Z"/></g><g class="cls-8"><path class="cls-43" d="M326.46,192a.2.2,0,0,1-.2-.16.21.21,0,0,1,.15-.25L340,188.37a.21.21,0,1,1,.09.41L326.51,192Z"/></g><g class="cls-8"><path class="cls-44" d="M355.54,154.79h0a.19.19,0,0,1-.18-.22l1.76-16.24a.19.19,0,0,1,.23-.18.21.21,0,0,1,.18.23l-1.76,16.23A.22.22,0,0,1,355.54,154.79Z"/></g><g class="cls-8"><path class="cls-45" d="M374.1,143.8h-9.25a.2.2,0,0,1-.2-.2.2.2,0,0,1,.2-.21h9.25a.21.21,0,1,1,0,.41Z"/></g><g class="cls-8"><path class="cls-46" d="M384.86,119.6h0a.22.22,0,0,1-.2-.22l1.05-15.8a.19.19,0,0,1,.22-.2.21.21,0,0,1,.19.22l-1,15.81A.22.22,0,0,1,384.86,119.6Z"/></g><g class="cls-8"><path class="cls-47" d="M379.36,126.47a.21.21,0,0,1-.21-.18.21.21,0,0,1,.18-.23l12.22-1.86a.19.19,0,0,1,.23.17.21.21,0,0,1-.17.24l-12.22,1.86Z"/></g><path class="cls-48" d="M285,157.25c15.41-25.44,6.46-53.69,8.32-66.53,1.52-10.48,13.19-15.43,19.12-24,4.62-6.65,5.57-15.24,6.55-23.44s2.33-16.8,7.51-23,15.5-8.8,22.08-3.26c5.54,4.67,6.21,13.05,4,19.6s-6.55,12-9.71,18.07-5.08,13.57-2,20.09c3.5,7.49,12.64,11.77,15,19.62,2.24,7.29-2.28,14.42-7,20s-6.08,11.53-5.89,19c.29,11.25,9.13,21.27,6.3,32s-14.88,14.88-18.44,27.22c-2.44,8.44-2.44,23.74,17.08,42.76l-68.54,0C279.47,191.54,279.34,166.64,285,157.25Z"/><g class="cls-8"><path class="cls-49" d="M304.65,232h0a.21.21,0,0,1-.19-.23c6.89-76,17.5-141.27,33.38-205.37a.21.21,0,1,1,.4.1c-15.88,64.08-26.48,129.32-33.37,205.31A.21.21,0,0,1,304.65,232Z"/></g><g class="cls-8"><path class="cls-50" d="M319.24,117.07a.23.23,0,0,1-.16-.08.21.21,0,0,1,0-.29l27-22.21a.21.21,0,0,1,.26.32l-27,22.21A.24.24,0,0,1,319.24,117.07Z"/></g><g class="cls-8"><path class="cls-51" d="M321.56,103.8a.21.21,0,0,1-.19-.12L309.85,81.29a.21.21,0,0,1,.09-.28.21.21,0,0,1,.28.09l11.52,22.4a.2.2,0,0,1-.09.27A.16.16,0,0,1,321.56,103.8Z"/></g><g class="cls-8"><path class="cls-52" d="M311.35,170.33a.21.21,0,0,1-.17-.09.2.2,0,0,1,.05-.28l24.29-17.51a.21.21,0,0,1,.29,0,.2.2,0,0,1-.05.29l-24.29,17.51A.19.19,0,0,1,311.35,170.33Z"/></g><g class="cls-8"><path class="cls-53" d="M309.76,183.18a.2.2,0,0,1-.18-.11l-14.67-24.82A.2.2,0,0,1,295,158a.2.2,0,0,1,.28.07l14.67,24.82a.21.21,0,0,1-.07.29A.19.19,0,0,1,309.76,183.18Z"/></g><g class="cls-8"><path class="cls-54" d="M333.23,46.69a.21.21,0,0,1-.14-.36l11.77-10.41a.2.2,0,0,1,.29,0,.22.22,0,0,1,0,.3L333.36,46.64A.24.24,0,0,1,333.23,46.69Z"/></g><g class="cls-8"><path class="cls-55" d="M335,39.13a.2.2,0,0,1-.19-.12L329.87,28.1a.21.21,0,1,1,.38-.18l4.92,10.92a.19.19,0,0,1-.1.27A.13.13,0,0,1,335,39.13Z"/></g><g class="cls-8"><path class="cls-56" d="M324.09,90.14a.21.21,0,0,1-.15-.07.2.2,0,0,1,0-.29l11.19-10.19a.21.21,0,0,1,.28.3L324.23,90.08A.2.2,0,0,1,324.09,90.14Z"/></g><g class="cls-8"><path class="cls-57" d="M328.49,65.68a.22.22,0,0,1-.19-.13l-5.23-11.48a.22.22,0,0,1,.11-.28.2.2,0,0,1,.27.1l5.23,11.49a.21.21,0,0,1-.11.28Z"/></g><g class="cls-8"><path class="cls-58" d="M314.35,148.34a.21.21,0,0,1-.16-.08.21.21,0,0,1,0-.29L327,138.18a.21.21,0,1,1,.25.33l-12.72,9.79A.22.22,0,0,1,314.35,148.34Z"/></g><g class="cls-8"><path class="cls-59" d="M307,207.62a.21.21,0,0,1-.17-.08.21.21,0,0,1,0-.29l12.68-9.77a.21.21,0,0,1,.25.33l-12.68,9.77A.17.17,0,0,1,307,207.62Z"/></g><path class="cls-60" d="M256,29v81.41H365.08V29Zm104,76.12h-98.8V34.31h98.8Z"/><rect class="cls-61" x="309.25" y="31.85" width="2.54" height="75.75"/><rect class="cls-62" x="257.77" y="68.45" width="105.49" height="2.54"/><path class="cls-63" d="M238.43,34.68H228.07l-8.35,9.47,4.11-9.47h-7.54a1.11,1.11,0,0,1-1.1-1.11V19.31a1.11,1.11,0,0,1,1.1-1.11h22.14a1.11,1.11,0,0,1,1.11,1.11V33.57A1.11,1.11,0,0,1,238.43,34.68Z"/><path class="cls-64" d="M224.48,30.55h-2.69V28h2.69Z"/><path class="cls-64" d="M228.71,30.55H226V28h2.69Z"/><path class="cls-64" d="M232.93,30.55h-2.68V28h2.68Z"/><rect class="cls-65" x="196.27" y="55.19" width="122.97" height="76.45" rx="4.74" ry="4.74"/><rect class="cls-66" x="203.28" y="60.4" width="108.7" height="60.09"/><rect class="cls-67" x="269.24" y="69.72" width="35.15" height="44.52"/><rect class="cls-68" x="272.55" y="73.92" width="28.53" height="4.44"/><rect class="cls-69" x="272.55" y="82.14" width="28.53" height="4.44"/><rect class="cls-64" x="272.55" y="90.36" width="28.53" height="4.44"/><rect class="cls-64" x="272.55" y="98.58" width="28.53" height="4.44"/><rect class="cls-64" x="272.55" y="106.8" width="28.53" height="4.44"/><path class="cls-70" d="M229.7,75.19s5.79,0,6.6,3.8.09,8,1.08,10.68,4.06,10.07-2.54,10.49-7.67-1.47-9.29-1.54-4,3.82-8.82,1.6S214,93,216.1,92.37s1.26-4.17.77-5.36c-1-2.47-1.8-10.07,5.25-12.3C227.81,72.9,229.7,75.19,229.7,75.19Z"/><path class="cls-71" d="M224.15,88.9c-.43,5.08-.78,11.1-2.87,15.39.24,2.06,1.38,6,6.68,5.84,4.49-.12,5.82-2.93,6.19-5A30.31,30.31,0,0,1,230.48,92C228.43,92,225.57,89.93,224.15,88.9Z"/><path class="cls-72" d="M225.64,77.09s7.27.35,8.78,1.85,1.43,4.55,1.85,9-2.33,9.41-4.76,10.07-9.08-3.52-10-10.48S222.84,76.85,225.64,77.09Z"/><path class="cls-72" d="M280.27,97.55a67.75,67.75,0,0,0,4.94-6.13c1.36-2.14,6.44-9.2,7.5-8.1s-3.33,7-3.33,7,4.24-7.58,5.72-6.74S291.17,91,291.17,91s4.6-6.41,5.39-5.51-.15,2.3-3.94,7c0,0,3.25-4,4-2.76s-2.92,4.83-4.22,5.61-7.68,4.18-9.39,5.84C283.05,101.17,280,99.6,280.27,97.55Z"/><path class="cls-71" d="M292.09,91.12c-.37-1-1.87-.89-2.78-.81a3.93,3.93,0,0,0-2.84,1.37c-.38.46-.68.93-1.1,1.37-.81.84-.27,1.56,0,2.47.08.27,1.84.53,3.55-.15A6.55,6.55,0,0,0,291.64,93,3.42,3.42,0,0,0,292.09,91.12Z"/><path class="cls-72" d="M286.12,92.24s4.05-2.74,5.3-1.91.14,1.91-4.13,3.68c0,0-1.4,2.09-2.38,2.32A3,3,0,0,1,286.12,92.24Z"/><path class="cls-70" d="M228.88,75.43s2,8.7-4.21,9.79a5.79,5.79,0,0,0-.74,4.91c.88,2.71,2.86,8.48-.71,9.81s-6.28-.84-4.84-6.47,1.45-8.7,2.33-12.8S223.29,73.55,228.88,75.43Z"/><path class="cls-70" d="M225.32,75.12s.46,7.86,7.25,8.18,6.86-4.48,6-5.65S234.65,71.89,225.32,75.12Z"/><path class="cls-73" d="M232.19,100.79s-2.44,3.08-3.64,3.54-6-3.41-6-3.41-6.63,3.69-12.11,4.34c0,0-4.9,1.77-6.73,15.26h43.93s-.31-2.82,0-2.82,2.42,2.82,5.83,2.82h14.95s12.27-11.89,17.94-20.22l-5.28-5.25s-17.93,19.24-19.42,19.24-12.9-9.58-13.37-9.86S236,104,232.19,100.79Z"/><path class="cls-74" d="M294,120.49H281.21S311.39,96.89,312,96.22V103C308.64,106.46,294,120.49,294,120.49Z"/><path class="cls-74" d="M312,66.58v9.56c-2.27,2.78-53.43,41.38-56.55,44.38H232.35C238.52,115.63,309.62,68.35,312,66.58Z"/><path class="cls-74" d="M265.21,60.4h12.13l-.27.22c-5,4.33-55,53.84-60.55,59.87l-11.59,0C212.4,112.77,251.24,73.91,265.21,60.4Z"/><path class="cls-74" d="M203.28,90.15V78.43c6.07-6,12.48-12.36,18.24-18h11.86C224.68,68.92,213,80.45,203.28,90.15Z"/><path class="cls-75" d="M241,132s-1.4-2.05-5.63-1.35-6.7,7.82-6.7,7.82h12S241.78,132.94,241,132Z"/><path class="cls-75" d="M274.49,132s1.4-2.05,5.63-1.35,6.7,7.82,6.7,7.82h-12S273.75,132.94,274.49,132Z"/><path class="cls-76" d="M241.24,111.5a14.08,14.08,0,0,0-7.26,2.41c-3.07,2.33-15.07,21.43-15.63,23s2.51,2.83,6.47,2.83,5.81.35,7.3-1.29,10.31-9,12.63-14.31S243.41,111.22,241.24,111.5Z"/><path class="cls-77" d="M275,111.5a14,14,0,0,1,7.25,2.41c3.07,2.33,15.07,21.43,15.63,23s-2.5,2.83-6.46,2.83-5.82.35-7.3-1.29-10.31-9-12.63-14.31S272.85,111.22,275,111.5Z"/><polygon class="cls-71" points="261.65 100.21 254.61 100.21 253.37 106.71 262.89 106.71 261.65 100.21"/><path class="cls-70" d="M258.2,80.85h-.14c-3.82,0-9.14,2.19-9.14,8.46s1.56,14.46,9.17,14.46h.09c7.61,0,9.16-8.19,9.16-14.46S262,80.85,258.2,80.85Z"/><path d="M247.5,208.48,241.74,212s2,3.53,1.24,4.58-5.34,6.21-5.52,8.75,1.24,4.09,2,3.84,14.33-9.92,14-11.59S247.5,208.48,247.5,208.48Z"/><path d="M268.14,208.48l5.77,3.54s-2.05,3.53-1.24,4.58,5.33,6.21,5.52,8.75-1.24,4.09-2,3.84-14.32-9.92-14-11.59S268.14,208.48,268.14,208.48Z"/><rect class="cls-78" x="182.23" y="138.44" width="5.11" height="96.84"/><rect class="cls-79" x="327.93" y="138.44" width="5.11" height="96.84"/><rect class="cls-80" x="172.9" y="138.43" width="169.71" height="2.57"/><path class="cls-81" d="M271,153.79c-3.66-2.11-22.69-2.11-26.36,0s-22.52,15.93-22.52,19.28,20.47,41.74,20.47,41.74l7.5-3.83s-12.49-32.14-11-33.54,18.7-2.45,18.7-2.45,17.19,1.06,18.71,2.45-11,33.54-11,33.54l7.51,3.83s20.46-38.39,20.46-41.74S274.67,155.9,271,153.79Z"/><path class="cls-82" d="M262.51,104.16c-.32-.31-3-.11-4.38-.11s-4.06-.2-4.38.11-2.48,5.14-2.48,5.14l6.86,1.45L265,109.3S262.83,104.48,262.51,104.16Z"/><path class="cls-70" d="M278.69,229.22c-1.8-2.58-15.5-12.55-15.5-12.55H252.45s-13.7,10-15.5,12.55-1.42,5.24.69,5.24h6.72a.84.84,0,0,0,.83-.66,8.71,8.71,0,0,0,.17-1.84.84.84,0,0,0-.72-.85c-.42-.06-.89-.16-.92-.32-.07-.36.17-1,1.54-2.16,2.48-2,8.4-6.57,8.4-6.57l4.16.13,4.17-.13s5.91,4.53,8.39,6.57c1.38,1.14,1.61,1.8,1.54,2.16,0,.16-.49.26-.92.32a.85.85,0,0,0-.72.85,8,8,0,0,0,.18,1.84.84.84,0,0,0,.83.66H278C280.12,234.46,280.49,231.8,278.69,229.22Z"/><polygon class="cls-70" points="257.82 175 252.89 175 255.35 219.52 257.82 219.52 260.29 219.52 262.76 175 257.82 175"/><path class="cls-70" d="M257.82,173.07H244.64s1.34,15.16,13.18,15.16S271,173.07,271,173.07Z"/><path class="cls-83" d="M280.86,112.36c-3.35-4.46-23-5.33-23-5.33s-19.69.87-23,5.33,5.83,41.43,8.93,47.38,14.11,5.83,14.11,5.83,11,.12,14.11-5.83S284.21,116.83,280.86,112.36Z"/><path class="cls-70" d="M264.54,151.74c-1.13-.75-12.31-.75-13.43,0-1.3.87,1.86,21.89,2.35,24s8.22,2.11,8.72,0S265.84,152.61,264.54,151.74Z"/><rect class="cls-70" x="232.03" y="170.56" width="51.59" height="6.88"/><rect class="cls-84" x="182.72" y="133.34" width="31.86" height="5.1"/><rect class="cls-85" x="179.23" y="128.24" width="31.86" height="5.1"/><path class="cls-86" d="M323.3,126.36h-1.82v1h1.34a2.72,2.72,0,0,1,2.72,2.72v.06a2.72,2.72,0,0,1-2.72,2.72h-1.34v1h1.82a3.71,3.71,0,0,0,3.71-3.71v-.08A3.71,3.71,0,0,0,323.3,126.36Z"/><path class="cls-86" d="M320.93,138.44H312.7a2.19,2.19,0,0,1-2.18-2.19V124.13h12.59v12.12A2.18,2.18,0,0,1,320.93,138.44Z"/><path class="cls-87" d="M316.39,136.79V125.14h-4.76v10.41a1.87,1.87,0,0,0,1.87,1.87h3A2.6,2.6,0,0,1,316.39,136.79Z"/><path class="cls-88" d="M319.25,125.14v11a2,2,0,0,1-.48,1.31h1.4a1.88,1.88,0,0,0,1.88-1.87V125.14Z"/><rect class="cls-89" x="209.64" y="49.05" width="27.89" height="18.87" rx="1.27" ry="1.27"/><rect class="cls-64" x="210.91" y="50.55" width="25.35" height="15.86"/><polygon class="cls-90" points="219.8 55.19 219.8 62.96 227.36 59.08 219.8 55.19"/><rect class="cls-91" x="126.45" y="39.65" width="69.66" height="3.91"/><rect class="cls-92" x="163.88" y="10.81" width="4.88" height="28.84"/><rect class="cls-93" x="156.46" y="14.2" width="4.88" height="25.45"/><rect class="cls-94" x="174.31" y="13.71" width="4.88" height="25.45" transform="translate(2.81 67.45) rotate(-21.77)"/><rect class="cls-95" x="180.88" y="13.71" width="4.88" height="25.45" transform="translate(3.27 69.89) rotate(-21.77)"/><rect class="cls-96" x="129.64" y="34.77" width="24.53" height="4.38"/><path class="cls-97" d="M271.86,56.57h14.88L280.58,64l13.27-7.44H298a1.31,1.31,0,0,0,1.31-1.31V38.41A1.31,1.31,0,0,0,298,37.1H271.86a1.31,1.31,0,0,0-1.31,1.31V55.26A1.31,1.31,0,0,0,271.86,56.57Z"/><path class="cls-64" d="M289.18,44.69c0,2.18-2.74,2.82-2.74,3.67v.34H283.7v-.8c0-1.17,2.08-1.84,2.08-3.14a1.05,1.05,0,0,0-1.06-1.13c-.86,0-1,.68-1,1.35a3,3,0,0,0,0,.43h-2.95a6,6,0,0,1-.05-.61c0-2.08,1.86-3.38,4.38-3.38S289.18,42.7,289.18,44.69Zm-2.5,8h-3.17v-3h3.17Z"/><circle class="cls-98" cx="342.61" cy="50.55" r="8.42"/><path class="cls-99" d="M156,166.18c-2.63-1,8.1-16.28-3.58-22.47-15.36-8.15,1.56-33.85-4.91-33.23-9.65,1-12.34,16-10.6,32.76,2.23,21.44-8.74,15.64-8.95,15.54-6.24-2.81-9-.09-6.21,18.43s9.88,32.79,16,31.89a3.81,3.81,0,0,0,1.09-.33,6.07,6.07,0,0,0,1.18.2,5.75,5.75,0,0,0,2.66-.59c7.66.39,8.13-2.85,14.55-19.44C164.21,170.81,163.73,169.16,156,166.18Z"/><polygon class="cls-100" points="156.09 235.28 128.86 235.28 125.88 204.04 159.07 204.04 156.09 235.28"/></g></g></svg>