<svg xmlns="http://www.w3.org/2000/svg" xmlns:xlink="http://www.w3.org/1999/xlink" viewBox="0 0 333.94 235.67"><defs><style>.cls-1{isolation:isolate;}.cls-2{opacity:0.5;mix-blend-mode:screen;}.cls-3{fill:url(#linear-gradient);}.cls-4{fill:url(#linear-gradient-2);}.cls-5{fill:url(#linear-gradient-3);}.cls-6{fill:url(#linear-gradient-4);}.cls-7{fill:url(#linear-gradient-5);}.cls-8{fill:url(#linear-gradient-6);}.cls-9{opacity:0.3;}.cls-10{fill:url(#linear-gradient-7);}.cls-11{fill:url(#linear-gradient-8);}.cls-12{fill:url(#linear-gradient-9);}.cls-13{fill:url(#linear-gradient-10);}.cls-14{fill:url(#linear-gradient-11);}.cls-15{fill:url(#linear-gradient-12);}.cls-16{fill:url(#linear-gradient-13);}.cls-17{fill:url(#linear-gradient-14);}.cls-18{fill:url(#linear-gradient-15);}.cls-19{fill:url(#linear-gradient-16);}.cls-20{fill:url(#linear-gradient-17);}.cls-21{fill:url(#linear-gradient-18);}.cls-22{fill:url(#linear-gradient-19);}.cls-23{fill:url(#linear-gradient-20);}.cls-24{fill:url(#linear-gradient-21);}.cls-25{fill:url(#linear-gradient-22);}.cls-26{fill:url(#linear-gradient-23);}.cls-27{fill:url(#linear-gradient-24);}.cls-28{fill:url(#linear-gradient-25);}.cls-29{fill:url(#linear-gradient-26);}.cls-30{fill:url(#linear-gradient-27);}.cls-31{fill:url(#linear-gradient-28);}.cls-32{fill:url(#linear-gradient-29);}.cls-33{fill:url(#linear-gradient-30);}.cls-34{fill:url(#linear-gradient-31);}.cls-35{fill:#fff;}.cls-36{fill:url(#linear-gradient-32);}.cls-37{fill:#f5f5f5;}.cls-38{fill:url(#linear-gradient-33);}.cls-39{fill:url(#linear-gradient-34);}.cls-40{fill:url(#linear-gradient-35);}.cls-41{fill:url(#linear-gradient-36);}.cls-42{fill:url(#linear-gradient-37);}.cls-43{fill:url(#linear-gradient-38);}.cls-44{fill:url(#linear-gradient-39);}.cls-45{fill:url(#linear-gradient-40);}.cls-46{fill:url(#linear-gradient-41);}.cls-47{fill:url(#linear-gradient-42);}.cls-48{fill:url(#linear-gradient-43);}.cls-49{fill:url(#linear-gradient-44);}.cls-50{fill:url(#linear-gradient-45);}.cls-51{fill:url(#linear-gradient-46);}.cls-52{fill:url(#linear-gradient-47);}.cls-53{fill:url(#linear-gradient-48);}.cls-54{fill:url(#linear-gradient-49);}.cls-55{fill:url(#linear-gradient-50);}.cls-56{fill:url(#linear-gradient-51);}.cls-57{fill:url(#linear-gradient-52);}.cls-58{fill:url(#linear-gradient-53);}.cls-59{fill:url(#linear-gradient-54);}.cls-60{fill:url(#linear-gradient-55);}.cls-61{fill:url(#linear-gradient-56);}.cls-62{fill:url(#linear-gradient-57);}.cls-63{fill:url(#linear-gradient-58);}.cls-64{fill:url(#linear-gradient-59);}.cls-65{fill:url(#linear-gradient-60);}.cls-66{fill:url(#linear-gradient-61);}.cls-67{fill:url(#linear-gradient-62);}.cls-68{fill:url(#linear-gradient-63);}.cls-69{fill:url(#linear-gradient-64);}.cls-70{fill:#1990b5;}.cls-71{fill:url(#linear-gradient-65);}.cls-72{mix-blend-mode:multiply;fill:url(#linear-gradient-66);}.cls-73{fill:url(#linear-gradient-67);}.cls-74{fill:url(#linear-gradient-68);}.cls-75{fill:url(#linear-gradient-69);}.cls-76{fill:url(#linear-gradient-70);}.cls-77{fill:url(#linear-gradient-71);}.cls-78{fill:url(#linear-gradient-72);}.cls-79{fill:url(#linear-gradient-73);}.cls-80{fill:url(#linear-gradient-74);}.cls-81{fill:url(#linear-gradient-75);}.cls-82{fill:url(#linear-gradient-76);}.cls-83{fill:url(#linear-gradient-77);}.cls-84{fill:url(#linear-gradient-78);}.cls-85{fill:#ffc3ae;}.cls-86{fill:url(#linear-gradient-79);}.cls-87{fill:url(#linear-gradient-80);}.cls-88{fill:#ee9833;}.cls-89{fill:url(#linear-gradient-81);}.cls-90{fill:url(#linear-gradient-82);}.cls-91{fill:url(#linear-gradient-83);}.cls-92{fill:url(#linear-gradient-84);}.cls-93{fill:url(#linear-gradient-85);}.cls-94{fill:url(#linear-gradient-86);}.cls-95{fill:url(#linear-gradient-87);}.cls-96{fill:url(#linear-gradient-88);}.cls-97{fill:url(#linear-gradient-89);}.cls-98{fill:url(#linear-gradient-90);}.cls-99{fill:url(#linear-gradient-91);}.cls-100{fill:url(#linear-gradient-92);}.cls-101{fill:url(#linear-gradient-93);}.cls-102{fill:url(#linear-gradient-94);}.cls-103{fill:url(#linear-gradient-95);}.cls-104{fill:url(#linear-gradient-96);}.cls-105{fill:url(#linear-gradient-97);}.cls-106{fill:url(#linear-gradient-98);}.cls-107{fill:url(#linear-gradient-99);}.cls-108{fill:url(#linear-gradient-100);}.cls-109{fill:url(#linear-gradient-101);}.cls-110{fill:url(#linear-gradient-102);}.cls-111{fill:url(#linear-gradient-103);}.cls-112{fill:url(#linear-gradient-104);}.cls-113{fill:url(#linear-gradient-105);}.cls-114{fill:url(#linear-gradient-106);}.cls-115{fill:url(#linear-gradient-107);}.cls-116{fill:url(#linear-gradient-108);}.cls-117{fill:url(#linear-gradient-109);}.cls-118{fill:url(#linear-gradient-110);}.cls-119{fill:url(#linear-gradient-111);}.cls-120{fill:url(#linear-gradient-112);}.cls-121{fill:url(#linear-gradient-113);}.cls-122{fill:url(#linear-gradient-114);}.cls-123{fill:url(#linear-gradient-115);}.cls-124{fill:url(#linear-gradient-116);}</style><linearGradient id="linear-gradient" x1="3116.4" y1="-374.67" x2="3193.6" y2="-374.67" gradientTransform="matrix(-0.99, 0.13, 0.13, 0.99, 3436.03, 65.3)" gradientUnits="userSpaceOnUse"><stop offset="0" stop-color="#b3e0fd"/><stop offset="0.5" stop-color="#d7ecfd"/><stop offset="1" stop-color="#f0f8ff"/></linearGradient><linearGradient id="linear-gradient-2" x1="2860.9" y1="2279.4" x2="2911.77" y2="2228.53" gradientTransform="matrix(-0.85, -0.53, -0.53, 0.85, 3847.08, -231.14)" xlink:href="#linear-gradient"/><linearGradient id="linear-gradient-3" x1="3169.02" y1="212.6" x2="3127.13" y2="179.38" gradientTransform="matrix(-1, 0, 0, 1, 3422.79, 0)" xlink:href="#linear-gradient"/><linearGradient id="linear-gradient-4" x1="3149.42" y1="233.06" x2="3120.28" y2="208.61" gradientTransform="matrix(-1, 0, 0, 1, 3422.79, 0)" xlink:href="#linear-gradient"/><linearGradient id="linear-gradient-5" x1="-1415.24" y1="233.59" x2="-1444.96" y2="208.66" gradientTransform="translate(1647.66)" xlink:href="#linear-gradient"/><linearGradient id="linear-gradient-6" x1="-1910.81" y1="230.67" x2="-1882.73" y2="149.23" gradientTransform="matrix(1, 0, -0.17, 1, 2177.16, 0)" xlink:href="#linear-gradient"/><linearGradient id="linear-gradient-7" x1="3164.21" y1="183.22" x2="3182.68" y2="183.22" gradientTransform="matrix(-1, 0, 0, 1, 3422.79, 0)" xlink:href="#linear-gradient"/><linearGradient id="linear-gradient-8" x1="3182.38" y1="197.64" x2="3223.65" y2="197.64" gradientTransform="matrix(-1, 0, 0, 1, 3422.79, 0)" xlink:href="#linear-gradient"/><linearGradient id="linear-gradient-9" x1="3125.48" y1="197.64" x2="3182.68" y2="197.64" gradientTransform="matrix(-1, 0, 0, 1, 3422.79, 0)" xlink:href="#linear-gradient"/><linearGradient id="linear-gradient-10" x1="3167.99" y1="146.4" x2="3173.18" y2="146.4" gradientTransform="matrix(-1, 0, 0, 1, 3422.79, 0)" xlink:href="#linear-gradient"/><linearGradient id="linear-gradient-11" x1="3156.75" y1="159.34" x2="3170.59" y2="159.34" gradientTransform="matrix(-1, 0, 0, 1, 3422.79, 0)" xlink:href="#linear-gradient"/><linearGradient id="linear-gradient-12" x1="3171.42" y1="166.27" x2="3179" y2="166.27" gradientTransform="matrix(-1, 0, 0, 1, 3422.79, 0)" xlink:href="#linear-gradient"/><linearGradient id="linear-gradient-13" x1="3163.6" y1="187.65" x2="3175.26" y2="187.65" gradientTransform="matrix(-1, 0, 0, 1, 3422.79, 0)" xlink:href="#linear-gradient"/><linearGradient id="linear-gradient-14" x1="3141.33" y1="170.31" x2="3141.98" y2="170.31" gradientTransform="matrix(-1, 0, 0, 1, 3422.79, 0)" xlink:href="#linear-gradient"/><linearGradient id="linear-gradient-15" x1="3152.14" y1="189.98" x2="3152.57" y2="189.98" gradientTransform="matrix(-1, 0, 0, 1, 3422.79, 0)" xlink:href="#linear-gradient"/><linearGradient id="linear-gradient-16" x1="3137.22" y1="184.14" x2="3146.09" y2="184.14" gradientTransform="matrix(-1, 0, 0, 1, 3422.79, 0)" xlink:href="#linear-gradient"/><linearGradient id="linear-gradient-17" x1="3162.09" y1="207.42" x2="3163.92" y2="207.42" gradientTransform="matrix(-1, 0, 0, 1, 3422.79, 0)" xlink:href="#linear-gradient"/><linearGradient id="linear-gradient-18" x1="3150.76" y1="202.8" x2="3158.18" y2="202.8" gradientTransform="matrix(-1, 0, 0, 1, 3422.79, 0)" xlink:href="#linear-gradient"/><linearGradient id="linear-gradient-19" x1="3198.39" y1="171.99" x2="3203.38" y2="171.99" gradientTransform="matrix(-1, 0, 0, 1, 3422.79, 0)" xlink:href="#linear-gradient"/><linearGradient id="linear-gradient-20" x1="3194.66" y1="188.04" x2="3200.36" y2="188.04" gradientTransform="matrix(-1, 0, 0, 1, 3422.79, 0)" xlink:href="#linear-gradient"/><linearGradient id="linear-gradient-21" x1="3195.14" y1="205.17" x2="3203.74" y2="205.17" gradientTransform="matrix(-1, 0, 0, 1, 3422.79, 0)" xlink:href="#linear-gradient"/><linearGradient id="linear-gradient-22" x1="3147.3" y1="209.66" x2="3153.71" y2="209.66" gradientTransform="matrix(-1, 0, 0, 1, 3422.79, 0)" xlink:href="#linear-gradient"/><linearGradient id="linear-gradient-23" x1="3130.76" y1="201.09" x2="3137.52" y2="201.09" gradientTransform="matrix(-1, 0, 0, 1, 3422.79, 0)" xlink:href="#linear-gradient"/><linearGradient id="linear-gradient-24" x1="3154.19" y1="220.12" x2="3159.49" y2="220.12" gradientTransform="matrix(-1, 0, 0, 1, 3422.79, 0)" xlink:href="#linear-gradient"/><linearGradient id="linear-gradient-25" x1="3212.34" y1="200.32" x2="3214.01" y2="200.32" gradientTransform="matrix(-1, 0, 0, 1, 3422.79, 0)" xlink:href="#linear-gradient"/><linearGradient id="linear-gradient-26" x1="3204.46" y1="212.09" x2="3204.89" y2="212.09" gradientTransform="matrix(-1, 0, 0, 1, 3422.79, 0)" xlink:href="#linear-gradient"/><linearGradient id="linear-gradient-27" x1="3208.1" y1="211.06" x2="3215.09" y2="211.06" gradientTransform="matrix(-1, 0, 0, 1, 3422.79, 0)" xlink:href="#linear-gradient"/><linearGradient id="linear-gradient-28" x1="3177.5" y1="202.53" x2="3183.18" y2="202.53" gradientTransform="matrix(-1, 0, 0, 1, 3422.79, 0)" xlink:href="#linear-gradient"/><linearGradient id="linear-gradient-29" x1="-4603.94" y1="211.09" x2="-4649.73" y2="174.78" gradientTransform="translate(4697.13)" xlink:href="#linear-gradient"/><linearGradient id="linear-gradient-30" x1="-4697.13" y1="213.49" x2="-4557.07" y2="213.49" gradientTransform="translate(4697.13)" xlink:href="#linear-gradient"/><linearGradient id="linear-gradient-31" x1="166.97" y1="604.67" x2="166.97" y2="-38.91" gradientUnits="userSpaceOnUse"><stop offset="0" stop-color="#4f3292"/><stop offset="1" stop-color="#00bbc5"/></linearGradient><linearGradient id="linear-gradient-32" x1="166.97" y1="66.75" x2="166.97" y2="5.61" gradientUnits="userSpaceOnUse"><stop offset="0" stop-color="#f1ce41"/><stop offset="1" stop-color="#e73d25"/></linearGradient><linearGradient id="linear-gradient-33" x1="137.45" y1="136.15" x2="137.45" y2="344.04" gradientUnits="userSpaceOnUse"><stop offset="0" stop-color="#00bbc5"/><stop offset="1" stop-color="#4f3292"/></linearGradient><linearGradient id="linear-gradient-34" x1="137.45" y1="100.26" x2="137.45" y2="308.18" xlink:href="#linear-gradient-33"/><linearGradient id="linear-gradient-35" x1="187.62" y1="89.26" x2="187.62" y2="189.76" xlink:href="#linear-gradient-33"/><linearGradient id="linear-gradient-36" x1="194.14" y1="89.26" x2="194.14" y2="189.76" xlink:href="#linear-gradient-33"/><linearGradient id="linear-gradient-37" x1="189.93" y1="89.27" x2="189.93" y2="189.77" xlink:href="#linear-gradient-33"/><linearGradient id="linear-gradient-38" x1="184.82" y1="89.27" x2="184.82" y2="189.77" xlink:href="#linear-gradient-33"/><linearGradient id="linear-gradient-39" x1="187.62" y1="53.36" x2="187.62" y2="153.95" xlink:href="#linear-gradient-33"/><linearGradient id="linear-gradient-40" x1="194.14" y1="53.38" x2="194.14" y2="153.88" xlink:href="#linear-gradient-33"/><linearGradient id="linear-gradient-41" x1="189.93" y1="53.39" x2="189.93" y2="153.89" xlink:href="#linear-gradient-33"/><linearGradient id="linear-gradient-42" x1="184.82" y1="53.36" x2="184.82" y2="153.95" xlink:href="#linear-gradient-33"/><linearGradient id="linear-gradient-43" x1="187.62" y1="125.12" x2="187.62" y2="225.71" xlink:href="#linear-gradient-33"/><linearGradient id="linear-gradient-44" x1="194.14" y1="125.12" x2="194.14" y2="225.7" xlink:href="#linear-gradient-33"/><linearGradient id="linear-gradient-45" x1="189.93" y1="125.15" x2="189.93" y2="225.64" xlink:href="#linear-gradient-33"/><linearGradient id="linear-gradient-46" x1="184.82" y1="125.12" x2="184.82" y2="225.7" xlink:href="#linear-gradient-33"/><linearGradient id="linear-gradient-47" x1="187.62" y1="161" x2="187.62" y2="261.59" xlink:href="#linear-gradient-33"/><linearGradient id="linear-gradient-48" x1="194.14" y1="161" x2="194.14" y2="261.58" xlink:href="#linear-gradient-33"/><linearGradient id="linear-gradient-49" x1="189.93" y1="161.03" x2="189.93" y2="261.52" xlink:href="#linear-gradient-33"/><linearGradient id="linear-gradient-50" x1="184.82" y1="161" x2="184.82" y2="261.58" xlink:href="#linear-gradient-33"/><linearGradient id="linear-gradient-51" x1="104.43" y1="4.51" x2="101.67" y2="10.92" gradientUnits="userSpaceOnUse"><stop offset="0" stop-color="#101719"/><stop offset="1" stop-color="#243137"/></linearGradient><linearGradient id="linear-gradient-52" x1="103.09" y1="37.87" x2="89.82" y2="42.94" xlink:href="#linear-gradient-51"/><linearGradient id="linear-gradient-53" x1="-34.02" y1="-1870.35" x2="-85.05" y2="-1817.82" gradientTransform="translate(-1151.04 925.36) rotate(70.97)" gradientUnits="userSpaceOnUse"><stop offset="0" stop-color="#ffd1ae"/><stop offset="1" stop-color="#f9ac78"/></linearGradient><linearGradient id="linear-gradient-54" x1="-90.57" y1="-1820.09" x2="-134.81" y2="-1774.55" xlink:href="#linear-gradient-53"/><linearGradient id="linear-gradient-55" x1="339.07" y1="-1173.75" x2="294.83" y2="-1128.21" gradientTransform="matrix(0.78, 0.63, -0.63, 0.78, -421.17, 696.09)" xlink:href="#linear-gradient-53"/><linearGradient id="linear-gradient-56" x1="1337.74" y1="-1341.13" x2="1284.24" y2="-1257.28" gradientTransform="translate(-962.07 1564.68) rotate(-10.06)" xlink:href="#linear-gradient-51"/><linearGradient id="linear-gradient-57" x1="1335.75" y1="-1342.43" x2="1282.23" y2="-1258.55" gradientTransform="translate(-962.07 1564.68) rotate(-10.06)" xlink:href="#linear-gradient-51"/><linearGradient id="linear-gradient-58" x1="-428.86" y1="-1488.04" x2="-428.86" y2="-1444.98" xlink:href="#linear-gradient-53"/><linearGradient id="linear-gradient-59" x1="-426.61" y1="-1488.02" x2="-426.61" y2="-1444.99" xlink:href="#linear-gradient-53"/><linearGradient id="linear-gradient-60" x1="-418.13" y1="-1488.02" x2="-418.13" y2="-1444.99" xlink:href="#linear-gradient-53"/><linearGradient id="linear-gradient-61" x1="1549.77" y1="-2068.81" x2="1496.28" y2="-1984.98" gradientTransform="matrix(0.93, 0.37, -0.37, 0.93, -2069.89, 1377.06)" xlink:href="#linear-gradient-51"/><linearGradient id="linear-gradient-62" x1="1547.79" y1="-2070.14" x2="1494.26" y2="-1986.24" gradientTransform="matrix(0.93, 0.37, -0.37, 0.93, -2069.89, 1377.06)" xlink:href="#linear-gradient-51"/><linearGradient id="linear-gradient-63" x1="123.37" y1="31.93" x2="95.38" y2="42.63" xlink:href="#linear-gradient-51"/><linearGradient id="linear-gradient-64" x1="-5746.67" y1="-3297.27" x2="-5741.03" y2="-3297.21" gradientTransform="matrix(-0.74, 0.67, 0.67, 0.74, -1972.01, 6315.34)" xlink:href="#linear-gradient-53"/><linearGradient id="linear-gradient-65" x1="-668.22" y1="185.96" x2="-668.22" y2="225.7" gradientTransform="matrix(-0.99, 0.15, 0.15, 0.99, -586.11, -82.71)" xlink:href="#linear-gradient-53"/><linearGradient id="linear-gradient-66" x1="-189.77" y1="210.11" x2="-189.77" y2="187.07" gradientTransform="matrix(-0.99, 0.15, 0.15, 0.99, -112.89, -153.27)" gradientUnits="userSpaceOnUse"><stop offset="0" stop-color="#afafaf"/><stop offset="0.4" stop-color="#ccc"/><stop offset="1" stop-color="#fff"/></linearGradient><linearGradient id="linear-gradient-67" x1="-654.66" y1="192.16" x2="-681.71" y2="222.71" gradientTransform="matrix(-0.99, 0.15, 0.15, 0.99, -586.11, -82.71)" xlink:href="#linear-gradient-31"/><linearGradient id="linear-gradient-68" x1="99.73" y1="550.35" x2="106.87" y2="535.76" gradientTransform="matrix(-0.88, 0.48, 0.48, 0.88, -60.81, -519.58)" xlink:href="#linear-gradient-51"/><linearGradient id="linear-gradient-69" x1="100.12" y1="6.81" x2="97.32" y2="1.62" xlink:href="#linear-gradient-31"/><linearGradient id="linear-gradient-70" x1="73.99" y1="9.41" x2="73.99" y2="147.21" xlink:href="#linear-gradient-51"/><linearGradient id="linear-gradient-71" x1="74" y1="9.41" x2="74" y2="147.2" xlink:href="#linear-gradient-51"/><linearGradient id="linear-gradient-72" x1="74" y1="9.41" x2="74" y2="147.21" xlink:href="#linear-gradient-51"/><linearGradient id="linear-gradient-73" x1="86.01" y1="9.41" x2="86.01" y2="147.21" xlink:href="#linear-gradient-51"/><linearGradient id="linear-gradient-74" x1="86.01" y1="9.41" x2="86.01" y2="147.2" xlink:href="#linear-gradient-51"/><linearGradient id="linear-gradient-75" x1="86.01" y1="9.41" x2="86.01" y2="147.21" xlink:href="#linear-gradient-51"/><linearGradient id="linear-gradient-76" x1="-5752.14" y1="-3285.36" x2="-5746.5" y2="-3285.3" gradientTransform="matrix(-0.74, 0.67, 0.67, 0.74, -1972.01, 6315.34)" xlink:href="#linear-gradient-53"/><linearGradient id="linear-gradient-77" x1="80.77" y1="56.35" x2="80.77" y2="264.25" xlink:href="#linear-gradient-32"/><linearGradient id="linear-gradient-78" x1="-5642.93" y1="-2887.65" x2="-5637.29" y2="-2887.59" gradientTransform="matrix(-0.6, 0.8, 0.8, 0.6, -868.44, 6406.55)" xlink:href="#linear-gradient-53"/><linearGradient id="linear-gradient-79" x1="354.45" y1="-854.86" x2="369.45" y2="-854.86" gradientTransform="translate(-495.26 593.44) rotate(37.02)" xlink:href="#linear-gradient-32"/><linearGradient id="linear-gradient-80" x1="515.91" y1="2008.15" x2="515.91" y2="2028.57" gradientTransform="translate(-1204.8 1559.29) rotate(-119.05)" xlink:href="#linear-gradient-32"/><linearGradient id="linear-gradient-81" x1="513.14" y1="1918.97" x2="518.63" y2="1918.97" gradientTransform="translate(-1204.8 1559.29) rotate(-119.05)" xlink:href="#linear-gradient-51"/><linearGradient id="linear-gradient-82" x1="299.73" y1="130.88" x2="309.57" y2="130.88" gradientUnits="userSpaceOnUse"><stop offset="0" stop-color="#a757a1"/><stop offset="1" stop-color="#3850a2"/></linearGradient><linearGradient id="linear-gradient-83" x1="172.37" y1="175.41" x2="172.37" y2="217.37" gradientTransform="translate(73.54 24.54) rotate(-5.07)" xlink:href="#linear-gradient-51"/><linearGradient id="linear-gradient-84" x1="4.23" y1="-1592.22" x2="4.23" y2="-1545.01" gradientTransform="translate(-1130.17 927.34) rotate(62.83)" xlink:href="#linear-gradient-53"/><linearGradient id="linear-gradient-85" x1="-2518.83" y1="179.47" x2="-2509.56" y2="217.01" gradientTransform="matrix(-1, 0, 0, 1, -2252.22, 0)" xlink:href="#linear-gradient-51"/><linearGradient id="linear-gradient-86" x1="56.66" y1="375.04" x2="56.66" y2="417" gradientTransform="translate(125.31 -167.36) rotate(-13.56)" xlink:href="#linear-gradient-51"/><linearGradient id="linear-gradient-87" x1="374.16" y1="-625.13" x2="374.16" y2="-576.25" gradientTransform="matrix(0.91, 0.41, -0.41, 0.91, -305.92, 599.97)" xlink:href="#linear-gradient-53"/><linearGradient id="linear-gradient-88" x1="266.83" y1="182.92" x2="277.83" y2="215.42" xlink:href="#linear-gradient-51"/><linearGradient id="linear-gradient-89" x1="-2626.5" y1="-177.95" x2="-2621.06" y2="-133.56" gradientTransform="matrix(-0.97, -0.23, -0.23, 0.97, -2321.38, -264.58)" xlink:href="#linear-gradient-33"/><linearGradient id="linear-gradient-90" x1="-4507.39" y1="-3033.61" x2="-4501.75" y2="-3033.55" gradientTransform="matrix(0.8, -0.6, 0.6, 0.8, 5707.85, -155.97)" xlink:href="#linear-gradient-53"/><linearGradient id="linear-gradient-91" x1="-2586.24" y1="-31.23" x2="-2586.24" y2="-16.38" gradientTransform="matrix(-0.99, -0.13, -0.13, 0.99, -2296.49, -153.5)" xlink:href="#linear-gradient-53"/><linearGradient id="linear-gradient-92" x1="-2622.08" y1="-172.31" x2="-2622.08" y2="-169.74" gradientTransform="matrix(-0.97, -0.23, -0.23, 0.97, -2321.38, -264.58)" xlink:href="#linear-gradient-51"/><linearGradient id="linear-gradient-93" x1="-2639.12" y1="-520.26" x2="-2639.12" y2="-507.23" gradientTransform="matrix(-0.9, -0.43, -0.43, 0.9, -2329.02, -529.78)" xlink:href="#linear-gradient-51"/><linearGradient id="linear-gradient-94" x1="-2518.17" y1="182.72" x2="-2509.53" y2="217.74" gradientTransform="matrix(-1, 0, 0, 1, -2252.22, 0)" xlink:href="#linear-gradient-51"/><linearGradient id="linear-gradient-95" x1="-2512" y1="180.12" x2="-2563.3" y2="292.82" gradientTransform="matrix(-1, 0, 0, 1, -2252.22, 0)" xlink:href="#linear-gradient-51"/><linearGradient id="linear-gradient-96" x1="-11.95" y1="386.68" x2="-11.95" y2="397.31" gradientTransform="translate(45.73 -161.87) rotate(-7.71)" xlink:href="#linear-gradient-53"/><linearGradient id="linear-gradient-97" x1="-23.93" y1="348.53" x2="-15.75" y2="381.64" gradientTransform="translate(45.73 -161.87) rotate(-7.71)" xlink:href="#linear-gradient-51"/><linearGradient id="linear-gradient-98" x1="94.63" y1="143.77" x2="103.88" y2="181.25" gradientTransform="matrix(1, 0.03, -0.03, 1, -12.11, 31.64)" xlink:href="#linear-gradient-51"/><linearGradient id="linear-gradient-99" x1="80.02" y1="189.58" x2="87.31" y2="219.12" xlink:href="#linear-gradient-51"/><linearGradient id="linear-gradient-100" x1="-2517.4" y1="47.65" x2="-2517.4" y2="58.28" gradientTransform="matrix(-0.99, -0.13, -0.13, 0.99, -2419.03, -161.87)" xlink:href="#linear-gradient-53"/><linearGradient id="linear-gradient-101" x1="-2529.38" y1="9.5" x2="-2521.21" y2="42.61" gradientTransform="matrix(-0.99, -0.13, -0.13, 0.99, -2419.03, -161.87)" xlink:href="#linear-gradient-51"/><linearGradient id="linear-gradient-102" x1="-2432.84" y1="213.31" x2="-2423.59" y2="250.78" gradientTransform="matrix(-1, 0.03, 0.03, 1, -2361.19, 31.64)" xlink:href="#linear-gradient-51"/><linearGradient id="linear-gradient-103" x1="-2448.35" y1="189.59" x2="-2441.06" y2="219.12" gradientTransform="matrix(-1, 0, 0, 1, -2373.3, 0)" xlink:href="#linear-gradient-51"/><linearGradient id="linear-gradient-104" x1="75.12" y1="149.39" x2="75.12" y2="153.32" gradientTransform="matrix(1, 0, 0, 1, 0, 0)" xlink:href="#linear-gradient-53"/><linearGradient id="linear-gradient-105" x1="-2445.23" y1="149.39" x2="-2445.23" y2="153.32" gradientTransform="matrix(-1, 0, 0, 1, -2361.91, 0)" xlink:href="#linear-gradient-53"/><linearGradient id="linear-gradient-106" x1="-4886.85" y1="-2983.33" x2="-4880.68" y2="-2983.26" gradientTransform="matrix(0.67, -0.75, 0.75, 0.67, 5568.32, -1512.34)" xlink:href="#linear-gradient-53"/><linearGradient id="linear-gradient-107" x1="88.2" y1="133.76" x2="88.2" y2="209.4" xlink:href="#linear-gradient-82"/><linearGradient id="linear-gradient-108" x1="90.83" y1="125.42" x2="90.83" y2="230.87" xlink:href="#linear-gradient-82"/><linearGradient id="linear-gradient-109" x1="-6582.93" y1="-4878.76" x2="-6576.76" y2="-4878.69" gradientTransform="matrix(-0.67, -0.75, -0.75, 0.67, -7955.94, -1512.34)" xlink:href="#linear-gradient-53"/><linearGradient id="linear-gradient-110" x1="67.28" y1="133.77" x2="67.28" y2="209.4" xlink:href="#linear-gradient-82"/><linearGradient id="linear-gradient-111" x1="64.64" y1="125.41" x2="64.64" y2="230.86" xlink:href="#linear-gradient-82"/><linearGradient id="linear-gradient-112" x1="77.57" y1="127.61" x2="77.57" y2="216.64" xlink:href="#linear-gradient-82"/><linearGradient id="linear-gradient-113" x1="79.12" y1="145.19" x2="79.12" y2="164.54" gradientTransform="matrix(1, 0, 0, 1, 0, 0)" xlink:href="#linear-gradient-53"/><linearGradient id="linear-gradient-114" x1="-15.96" y1="314.71" x2="-15.96" y2="335.35" gradientTransform="translate(48.82 -169.3) rotate(-8.02)" xlink:href="#linear-gradient-53"/><linearGradient id="linear-gradient-115" x1="78.33" y1="157.43" x2="78.33" y2="159.22" xlink:href="#linear-gradient-51"/><linearGradient id="linear-gradient-116" x1="79.18" y1="144.48" x2="79.18" y2="155.57" xlink:href="#linear-gradient-51"/></defs><title>Smart-Assessments</title><g class="cls-1"><g id="Layer_1" data-name="Layer 1"><g class="cls-2"><path class="cls-3" d="M294.41,112.76a39.19,39.19,0,0,0-36.68,3.74c22.36-10.24,36.9-35.42,34.59-59.9C271.76,58.38,253.55,75.55,250.57,96c3.13-14.19,6.52-25.31.28-38.51-27.65,14-31.59,53.28-24.84,84.62C243.86,150.59,284.62,140.4,294.41,112.76Z"/><path class="cls-4" d="M233.49,153.05a35,35,0,0,0-23.76,13.28,70,70,0,0,0,16.56-54c-9.81,13.95-23.23,6.85-27.44,23.15-.6-6.81-3.58-10.66-8.18-14.46-24,31.13-14,71.53,4.85,87.93C203.89,188.1,233.32,185.38,233.49,153.05Z"/><path class="cls-5" d="M288.73,216.55c2.14-1.5,4.27-3.26,5.22-5.7s.27-5.69-2.08-6.84c-1.84-.9-4.05-.29-6,.44a51.49,51.49,0,0,0-14.19,8.26c5.57-3.28,11.19-6.59,16-11s8.71-9.9,10-16.23a12.62,12.62,0,0,0-.07-6.46,6.7,6.7,0,0,0-4.36-4.51c-2.84-.76-5.73.9-8.05,2.7A50.08,50.08,0,0,0,270,196.84a33.56,33.56,0,0,0,6.45-15.19c.54-3.51.23-7.67-2.64-9.75s-7.25-.93-10.23,1.21c-7.08,5.09-20.94,20.39-25.38,27.89-15.85,26.74,10.38,28,18.41,25.88,3.14-.81,6.41-.7,9.61-1.23a55.21,55.21,0,0,0,22.5-9.1Z"/><path class="cls-6" d="M261.85,210.4c10.81-23,49.73-28.52,34.92,3.46,6.57-6.07,14.94-7.1,17.2-4.1s.56,7.88-3.12,12.72c15.31-4.84,15.62,4.55,10.76,8.69,7.52-3.5,6.91,2.17,12.33,4.35H240.55V208C249.35,196.89,266.39,194.09,261.85,210.4Z"/><path class="cls-7" d="M245.06,210.4c-10.81-23-49.73-28.52-34.93,3.46-6.56-6.07-14.93-7.1-17.2-4.1s-.55,7.88,3.13,12.72c-15.31-4.84-15.63,4.55-10.76,8.69-7.52-3.5-10.43,2.17-15.85,4.35h96.9V208C257.56,196.89,240.52,194.09,245.06,210.4Z"/><path class="cls-8" d="M303.62,182.65c-2.68-2-6.88-1.3-9.78,1.39l-6.3,5.84c-1.34,1.24-3.12,0-2.23-1.56,5.52-9.52,9.24-19.23,9.78-29.62a6.26,6.26,0,0,0-3.86-6.48c-5.27-1.95-9.85,3.9-12.71,8.77l-.23.4c-3.26,5.56-11.3,4-10.29-2a80.26,80.26,0,0,0,.83-22.23c-.59-5.22-2.32-11.08-7.46-12.13a20.1,20.1,0,0,0-3.8,0c-5.51,1-9.28,6.91-11.68,12.13A95.14,95.14,0,0,0,238,166.27c-.84,5.15-7.12,7.06-8.72.34L226.94,157a6.5,6.5,0,0,0-5.58-5.09c-5.86-.71-9.28,6.07-10.38,11.41a57.71,57.71,0,0,0,.63,25c.36,1.54-1.86,2.79-2.76,1.56L204.58,184c-2-2.69-5.92-3.39-9.3-1.39-5.54,3.28-3.6,9.75-.95,13.83,8.14,12.55,24.3,33.23,41.14,39h9.58c18.86-5.81,42.22-26.49,54.72-39C303.83,192.4,308,185.93,303.62,182.65Z"/><g class="cls-9"><path class="cls-10" d="M240.26,235.67a.15.15,0,0,0,.15-.13L258.58,131a.14.14,0,0,0-.12-.17.15.15,0,0,0-.17.12L240.12,235.49a.14.14,0,0,0,.12.17Z"/></g><g class="cls-9"><path class="cls-11" d="M240.26,235.67a.18.18,0,0,0,.1,0,.14.14,0,0,0,0-.18c-14.56-25.61-21.81-50.37-22.16-75.7a.15.15,0,0,0-.15-.14h0a.15.15,0,0,0-.15.15c.36,25.17,7.51,49.79,21.86,75.22-17.41-13.09-31.36-28.76-40.37-45.36a.15.15,0,0,0-.26.14c9.13,16.82,23.31,32.68,41,45.88A.16.16,0,0,0,240.26,235.67Z"/></g><g class="cls-9"><path class="cls-12" d="M240.26,235.67l.08,0c22.28-13.2,42-29.05,56.93-45.86a.15.15,0,0,0-.22-.2c-14.75,16.57-34.1,32.22-56,45.29,23.12-25.38,38.78-49.95,47.87-75.07a.16.16,0,0,0-.09-.19.14.14,0,0,0-.19.09c-9.16,25.33-25,50.1-48.49,75.71a.16.16,0,0,0,.11.25Z"/></g><g class="cls-9"><path class="cls-13" d="M254.65,152.85h.06a.16.16,0,0,0,.08-.2L249.9,140a.16.16,0,0,0-.19-.09.16.16,0,0,0-.09.2l4.9,12.6A.15.15,0,0,0,254.65,152.85Z"/></g><g class="cls-9"><path class="cls-14" d="M252.35,166.12a.14.14,0,0,0,.1,0L266,152.8a.15.15,0,1,0-.2-.21l-13.55,13.28a.15.15,0,0,0,0,.21A.15.15,0,0,0,252.35,166.12Z"/></g><g class="cls-9"><path class="cls-15" d="M251.22,172.61l.07,0a.14.14,0,0,0,.06-.2L244.06,160a.15.15,0,0,0-.25.15l7.28,12.38A.17.17,0,0,0,251.22,172.61Z"/></g><g class="cls-9"><path class="cls-16" d="M247.67,193a.12.12,0,0,0,.1,0l11.37-10.42a.15.15,0,0,0-.2-.22l-11.37,10.42a.15.15,0,0,0,0,.21A.14.14,0,0,0,247.67,193Z"/></g><g class="cls-9"><path class="cls-17" d="M281,178.15a.15.15,0,0,0,.15-.14l.36-15.39a.16.16,0,0,0-.15-.16h0a.15.15,0,0,0-.15.15L280.81,178a.14.14,0,0,0,.14.15Z"/></g><g class="cls-9"><path class="cls-18" d="M270.37,196.89a.15.15,0,0,0,.14-.15l.14-13.52a.16.16,0,0,0-.15-.15h0a.15.15,0,0,0-.15.15l-.13,13.52A.16.16,0,0,0,270.37,196.89Z"/></g><g class="cls-9"><path class="cls-19" d="M276.85,186h0l8.58-3.39a.14.14,0,0,0,.08-.19.14.14,0,0,0-.19-.08l-8.58,3.39a.15.15,0,0,0-.08.19A.14.14,0,0,0,276.85,186Z"/></g><g class="cls-9"><path class="cls-20" d="M259,213.23a.14.14,0,0,0,.14-.13l1.54-11.32a.15.15,0,0,0-.12-.17.16.16,0,0,0-.17.13l-1.54,11.32a.15.15,0,0,0,.12.17Z"/></g><g class="cls-9"><path class="cls-21" d="M264.76,205.32a.13.13,0,0,0,.08,0l7.12-4.74a.15.15,0,0,0,0-.21.14.14,0,0,0-.2,0l-7.12,4.75a.15.15,0,0,0-.05.2A.17.17,0,0,0,264.76,205.32Z"/></g><g class="cls-9"><path class="cls-22" d="M219.56,178.15a.15.15,0,0,0,.14-.09l4.69-12a.14.14,0,0,0-.08-.19.14.14,0,0,0-.19.08l-4.7,12a.15.15,0,0,0,.08.19Z"/></g><g class="cls-9"><path class="cls-23" d="M222.58,193a.16.16,0,0,0,.13-.08l5.4-9.64a.14.14,0,0,0-.06-.2.15.15,0,0,0-.2.06l-5.4,9.64a.14.14,0,0,0,.06.2Z"/></g><g class="cls-9"><path class="cls-24" d="M227.51,208.61a.13.13,0,0,0,.11-.05.16.16,0,0,0,0-.21l-8.31-6.6a.15.15,0,1,0-.19.23l8.31,6.6A.17.17,0,0,0,227.51,208.61Z"/></g><g class="cls-9"><path class="cls-25" d="M269.22,215.86a.16.16,0,0,0,.14-.08l6.11-12.09a.14.14,0,0,0-.06-.2.15.15,0,0,0-.2.06l-6.12,12.09a.15.15,0,0,0,.07.2Z"/></g><g class="cls-9"><path class="cls-26" d="M285.42,201.91h0l6.46-1.33a.14.14,0,0,0,.11-.18.15.15,0,0,0-.17-.11l-6.46,1.33a.15.15,0,0,0-.11.18A.14.14,0,0,0,285.42,201.91Z"/></g><g class="cls-9"><path class="cls-27" d="M263.44,220.27h5a.15.15,0,1,0,0-.3h-5a.15.15,0,0,0,0,.3Z"/></g><g class="cls-9"><path class="cls-28" d="M210.3,206.57h0a.15.15,0,0,0,.13-.16l-1.37-12.22a.15.15,0,0,0-.17-.13.15.15,0,0,0-.13.16l1.37,12.22A.15.15,0,0,0,210.3,206.57Z"/></g><g class="cls-9"><path class="cls-29" d="M218.19,215.86h0a.14.14,0,0,0,.14-.15l-.13-7.25a.15.15,0,0,0-.15-.14h0a.15.15,0,0,0-.15.15l.14,7.24A.15.15,0,0,0,218.19,215.86Z"/></g><g class="cls-9"><path class="cls-30" d="M214.54,211.76a.15.15,0,0,0,.15-.12.15.15,0,0,0-.12-.17l-6.7-1.11a.15.15,0,0,0-.17.12.14.14,0,0,0,.12.17l6.7,1.11Z"/></g><g class="cls-9"><path class="cls-31" d="M245.14,207.57l.08,0a.15.15,0,0,0,.05-.2l-5.38-9.78a.14.14,0,0,0-.2-.06.15.15,0,0,0-.06.2l5.39,9.78A.13.13,0,0,0,245.14,207.57Z"/></g><path class="cls-32" d="M54.18,211.81c-2.15-1.49-4.28-3.26-5.23-5.7s-.27-5.69,2.08-6.83c1.85-.91,4-.3,6,.44A51.07,51.07,0,0,1,71.19,208c-5.57-3.28-11.19-6.59-16-10.95s-8.71-9.9-10-16.22a12.66,12.66,0,0,1,.08-6.47,6.66,6.66,0,0,1,4.36-4.51c2.83-.76,5.72.91,8.05,2.7A50.22,50.22,0,0,1,72.9,192.1a33.47,33.47,0,0,1-6.46-15.19c-.53-3.51-.23-7.67,2.65-9.75s7.25-.93,10.23,1.22c7.07,5.09,9.94,14,13.53,22a95.23,95.23,0,0,0,18.62,27.22c1.15,1.17,2.41,2.91,1.5,4.28a3.48,3.48,0,0,1-2.32,1.19,52.94,52.94,0,0,1-24.36-.89c-3.14-.81-6.41-.7-9.61-1.23a55.08,55.08,0,0,1-11.08-3A54.38,54.38,0,0,1,54.18,211.81Z"/><path class="cls-33" d="M75.61,210.38c-10.81-23-49.73-28.53-34.93,3.45-6.56-6.07-14.93-7.1-17.2-4.1s-.55,7.88,3.13,12.73C11.3,217.61,11,227,15.85,231.14c-7.52-3.5-10.43,2.18-15.85,4.35H140.06V208C82.27,194.06,71.07,194.06,75.61,210.38Z"/></g><rect class="cls-34" x="91.11" y="44.52" width="151.73" height="191.15" rx="3.46" ry="3.46"/><rect class="cls-35" x="102.8" y="56.6" width="128.35" height="166.98" rx="3.46" ry="3.46"/><path class="cls-36" d="M192.05,37.65H174.81V33a7.84,7.84,0,0,0-15.67,0v4.7H141.9A6.94,6.94,0,0,0,135,44.57V58.43a4.3,4.3,0,0,0,4.29,4.29h55.41A4.3,4.3,0,0,0,199,58.43V44.57A6.93,6.93,0,0,0,192.05,37.65Z"/><circle class="cls-37" cx="166.97" cy="32.95" r="3.94"/><polygon class="cls-38" points="133.8 206.65 116.09 188.94 122.14 182.89 133.8 194.55 152.76 175.16 158.82 181.2 133.8 206.65"/><polygon class="cls-39" points="133.8 170.77 116.09 153.06 122.14 147.02 133.8 158.67 152.76 139.28 158.82 145.32 133.8 170.77"/><rect class="cls-40" x="169.3" y="107.05" width="36.65" height="3.79" rx="1.33" ry="1.33"/><rect class="cls-41" x="169.3" y="113.84" width="49.68" height="3.79" rx="1.33" ry="1.33"/><path class="cls-42" d="M170.62,120.65h38.61a1.33,1.33,0,0,1,1.33,1.33v1.14a1.33,1.33,0,0,1-1.33,1.33H170.62a1.32,1.32,0,0,1-1.32-1.32V122A1.33,1.33,0,0,1,170.62,120.65Z"/><rect class="cls-43" x="169.3" y="127.44" width="31.04" height="3.79" rx="1.33" ry="1.33"/><rect class="cls-44" x="169.3" y="71.17" width="36.65" height="3.8" rx="1.33" ry="1.33"/><path class="cls-45" d="M170.62,78h47A1.33,1.33,0,0,1,219,79.29v1.14a1.33,1.33,0,0,1-1.33,1.33h-47a1.33,1.33,0,0,1-1.33-1.33V79.29A1.32,1.32,0,0,1,170.62,78Z"/><path class="cls-46" d="M170.62,84.77h38.62a1.33,1.33,0,0,1,1.33,1.33v1.14a1.33,1.33,0,0,1-1.33,1.33H170.62a1.33,1.33,0,0,1-1.33-1.33V86.09a1.32,1.32,0,0,1,1.32-1.32Z"/><rect class="cls-47" x="169.3" y="91.56" width="31.04" height="3.8" rx="1.33" ry="1.33"/><rect class="cls-48" x="169.3" y="142.92" width="36.65" height="3.8" rx="1.33" ry="1.33"/><rect class="cls-49" x="169.3" y="149.72" width="49.68" height="3.8" rx="1.33" ry="1.33"/><path class="cls-50" d="M170.62,156.52h38.61a1.33,1.33,0,0,1,1.33,1.33V159a1.33,1.33,0,0,1-1.33,1.33H170.62A1.32,1.32,0,0,1,169.3,159v-1.14a1.33,1.33,0,0,1,1.33-1.33Z"/><rect class="cls-51" x="169.3" y="163.32" width="31.04" height="3.8" rx="1.33" ry="1.33"/><rect class="cls-52" x="169.3" y="178.8" width="36.65" height="3.8" rx="1.33" ry="1.33"/><rect class="cls-53" x="169.3" y="185.6" width="49.68" height="3.8" rx="1.33" ry="1.33"/><rect class="cls-54" x="169.3" y="192.4" width="41.27" height="3.79" rx="1.33" ry="1.33"/><rect class="cls-55" x="169.3" y="199.2" width="31.04" height="3.8" rx="1.33" ry="1.33"/><path class="cls-56" d="M98.94,15.44c1.8-1.29,10.37,2,10.37-6.65-1.36-2.41-2.77-4.34-3.87-5.06-3.15-2-8.33-1.38-9.29,2.64C96.15,6.37,97.62,11,98.94,15.44Z"/><path class="cls-57" d="M88.1,37.33s-1.7-.14-1.4,3.44,4.11,4.81,9.84,5.29,4.32-5.36,2.59-7.22S90.59,37.19,88.1,37.33Z"/><path class="cls-58" d="M89.61,37.93s-4,0-4.83,1.55a2.36,2.36,0,0,0-.18,2.23s7.85.5,7.79.34S89.61,37.93,89.61,37.93Z"/><path class="cls-59" d="M89.61,37.93c2.68,0,18.78-3.82,21.63-2.44-.08,3,1.1,6.15-5.94,7.57-10.76,2.18-15.74,1.34-16.08,1.07l.08,0c-.11,0-.12,0-.08,0l-.13.06S89.49,37.93,89.61,37.93Z"/><path class="cls-60" d="M90.8,71.37c-.15-.66,1.12-1.51,1.09-2.66-.11-3.31,1.63-4.76,1.25-6-.2-.6-1.51-4-3-7.84S86,45,85,42.66a4.18,4.18,0,0,1-.43-.95l6.16-.13A22,22,0,0,0,92.62,47,51.54,51.54,0,0,1,95,57.55c.44,2.92.67,5.15.85,5.68.56,1.53,1.91,2.14,0,3.61C94.38,68,94.22,71,93.05,71.71S91,72.13,90.8,71.37Z"/><path class="cls-61" d="M97.87,67s-.35,2.16-.44,2.89c0,.35-.12,1.35-.12,1.35l-.59.25s0-3.52-1.51-1.82.13-1,.13-1Z"/><path class="cls-62" d="M96,63.41A35.33,35.33,0,0,1,97.87,67c0,.4-1.56.84-2.54,2.42s-1.5,3.07-1.66,3.28c-1.11,1.43-4,1-4.16.59-.31-1,2-3.55,1.77-3.12-.53.92.75,1.52,1.68-1.43.71-2.25.66-2.25,2.34-3.94C96.13,64,96,63.41,96,63.41Z"/><path class="cls-63" d="M95.14,38.84s-3.67.67-3.9,2.17,3.38,4.1,3.38,4.1A28.66,28.66,0,0,0,97.92,43C97.87,42.8,95.14,38.84,95.14,38.84Z"/><path class="cls-64" d="M95.14,38.84c2.69,0,18.78-3.81,21.64-2.43-.09,3,1.09,6.15-6,7.57-10.75,2.18-15.74,1.34-16.07,1.07l.07,0c-.11,0-.12,0-.07,0l-.14.06S95,38.84,95.14,38.84Z"/><path class="cls-65" d="M80.83,69.46c.22-.64,1.74-.69,2.33-1.69,1.66-2.87,3.9-3.17,4.24-4.44.15-.62.86-4.24,1.63-8.23S90.71,44.58,91.1,42a4.38,4.38,0,0,1,.14-1l5.3,3.14a22.47,22.47,0,0,0-1.31,5.62A50.7,50.7,0,0,1,91.72,60c-1.17,2.7-2.16,4.72-2.28,5.26-.32,1.6.49,2.83-1.9,3.07-1.89.18-3.63,2.68-5,2.64S80.56,70.19,80.83,69.46Z"/><path class="cls-66" d="M89.12,69.51s-1.44,1.66-1.9,2.23l-.81,1.08-.64-.11s1.88-3-.31-2.34.62-.77.62-.77Z"/><path class="cls-67" d="M89.47,65.46a34.48,34.48,0,0,1-.35,4.05c-.19.35-1.77-.11-3.43.72s-2.9,1.81-3.15,1.9c-1.69.64-3.94-1.27-3.84-1.69.24-1,3.6-2,3.16-1.72-.94.51-.17,1.69,2.18-.33,1.79-1.53,1.75-1.56,4.06-2.1C89.25,66,89.47,65.46,89.47,65.46Z"/><path class="cls-68" d="M103.76,34.57s-3.71.86-9.77,1.67-5.89,1.09-5.89,1.09a50,50,0,0,1,6.11,1.51c2.84.95,3.75,2.41,3.71,4.68a3.68,3.68,0,0,1-1.38,2.54s3.8.86,12.4-1,8.7-3.85,7.74-8.65S107.16,34.31,103.76,34.57Z"/><path class="cls-69" d="M79,17.33s-2.35-.23-3-.94-2.06-2.08-2.75-1.84a3.21,3.21,0,0,0-1.44,3.15c.4,1,2.41,1.75,3.48,1.65a8.3,8.3,0,0,1,2.71.53Z"/><path class="cls-70" d="M92.37,23.15s5.65-2.44,9-4.21c3.59-1.89,2.15-6.24-.86-5.12-3.22,1.2-7,4.39-10.88,5.68C87.89,20.08,88.85,23.77,92.37,23.15Z"/><path class="cls-70" d="M76.89,19.82s-.61-.56,0-1.7a3.57,3.57,0,0,1,1.15-1.24s4.88.9,9.8,1.72,7.45.63,6.46,2.54a3.15,3.15,0,0,1-3.08,2.08C89.39,23.27,76.89,19.82,76.89,19.82Z"/><path class="cls-71" d="M101.07,13.72l1.43-.33c.07-.46-.11-.51-.35-1.21a3.83,3.83,0,0,1-2.16.07C97.81,11.16,95.59,5,95.59,5c0-.75,2.49-3,5.1-2.55,2.22.41,3.91,2.75,4.15,5.29a.12.12,0,0,1,0,0,12.8,12.8,0,0,0,.76,3.49A10.53,10.53,0,0,0,107,13.17c.92.09,2.11-.29,2.92.63,2.08,2.37,1.6,6.32,2.25,11.26s-2.89-.28-1,4.17c.64,3.53-3.85,7.24-7.43,6.19.26-3.43,1.93-2.1.35-7.14-.65-2.07-4.93-2.59-5.66-5.52C97.48,19,101.07,13.72,101.07,13.72Z"/><path class="cls-72" d="M102.3,13.43c.13,1.08-1.65,3.13-1.91,3.85-.34.94,2.26.87,3.49-.52s2.42-2.93,1.72-3.85-2.56-1.46-3.45-.73a3.83,3.83,0,0,1-2.16.07,1.35,1.35,0,0,1-.22-.14c.51-.59,2.88-1,3.31-1.43s0-1.32,0-2.94.86-1.9.41-2.51-.13.81-2.73,1.62c-2.16.69-4.42-1.2-4.33-.74l.36,1.81c-.75-1.58-1.25-3-1.25-3,0-.75,2.49-3,5.1-2.55,2.22.41,3.91,2.75,4.15,5.29a.12.12,0,0,1,0,0,12.8,12.8,0,0,0,.76,3.49A10.53,10.53,0,0,0,107,13.17c.92.09,2.11-.29,2.92.63A6.8,6.8,0,0,1,111.38,17a93.15,93.15,0,0,1-7.52,6.55c-.63.26-3.65.11-5.13,0a4.83,4.83,0,0,1-.29-.84c-1-3.73,2.63-9,2.63-9Z"/><path class="cls-73" d="M110.32,13.85c-1.32-1.16-2.43-.92-3.82.62s-2.46,4.29-5.2,4.12c-2-.12-1.82-.95-1.21-2.24a22.17,22.17,0,0,1,1.74-2.88l-1,.25s-4.85,7-1.67,10.84,4,3.91,4.09,6.54-.49,2.38-1,3.62S105.11,37.93,109,36c4.86-2.41,6.95-.7,6.61-1.43-.49-1.06-.59-4.22-1.51-7.78S111.93,15.27,110.32,13.85Z"/><path class="cls-74" d="M96.15,6.37a2.13,2.13,0,0,1-.09-.75c0-.34.77.85,3.29.66l2.24-.17.61-.75s.79-.75,1.21-.45c.79.56.58,2,.17,2.67s.44,2,1.21,3.06a8.85,8.85,0,0,0,4.22,3,14.92,14.92,0,0,0,3.67-5c-2.08-5.13-9.47-12.55-16.47-6.31C94.2,4.17,96.15,6.37,96.15,6.37Z"/><path class="cls-75" d="M95.31,4.51A4.64,4.64,0,0,1,99,4.14a9.45,9.45,0,0,1,3.07,1.6l.61-.75a13,13,0,0,0-3.57-2.52c-1.72-.77-2.47-.37-2.47-.37A1.69,1.69,0,0,0,95.31,4.51Z"/><rect class="cls-76" x="73.46" y="17.2" width="1.07" height="96.65"/><path class="cls-77" d="M75.16,17.2A1.17,1.17,0,1,0,74,18.37,1.16,1.16,0,0,0,75.16,17.2Z"/><path class="cls-78" d="M75.16,113.85A1.17,1.17,0,1,0,74,115,1.16,1.16,0,0,0,75.16,113.85Z"/><rect class="cls-79" x="85.47" y="22.61" width="1.07" height="87.33"/><path class="cls-80" d="M87.17,22.61A1.17,1.17,0,1,0,86,23.77,1.17,1.17,0,0,0,87.17,22.61Z"/><path class="cls-81" d="M87.17,109.94A1.17,1.17,0,1,0,86,111.1,1.16,1.16,0,0,0,87.17,109.94Z"/><path class="cls-82" d="M91,22.49s-2.35-.23-3-.94S86,19.47,85.27,19.72a3.17,3.17,0,0,0-1.44,3.14c.4,1,2.41,1.75,3.47,1.65A8.23,8.23,0,0,1,90,25Z"/><path class="cls-70" d="M105.73,27.29S109,22,110.66,18.65C112.5,15,108.82,12.32,107,15c-1.94,2.83-3.18,7.62-5.62,10.91C100.3,27.36,103.21,29.82,105.73,27.29Z"/><path class="cls-70" d="M88.94,25s-.62-.56,0-1.7A3.59,3.59,0,0,1,90.09,22s4.88.9,9.81,1.72,7.45.63,6.46,2.54a3.16,3.16,0,0,1-3.08,2.08C101.44,28.43,88.94,25,88.94,25Z"/><polygon class="cls-83" points="77.11 126.85 59.4 109.15 65.45 103.1 77.11 114.76 96.08 95.36 102.13 101.41 77.11 126.85"/><path class="cls-84" d="M248.63,168.63s-2.36.22-3.14-.37-2.41-1.66-3-1.29a3.18,3.18,0,0,0-.84,3.36c.59.95,2.69,1.28,3.72,1a8.07,8.07,0,0,1,2.76,0Z"/><path class="cls-70" d="M261.63,171.51s6.67-5.59,9.07-8.52c2.59-3.12-3.67-4.89-6-2.69-2.5,2.35-4.29,5.61-7.12,8.58C256.29,170.21,258.63,173.43,261.63,171.51Z"/><path class="cls-70" d="M247,171.47s-.72-.44-.31-1.67a3.67,3.67,0,0,1,.89-1.44s2.63.06,7.62,0,5.84-3.23,6.92-.06c.28.85.39,3.64-2.17,3.81C258.14,172.19,247,171.47,247,171.47Z"/><polygon class="cls-85" points="227.4 166.45 220.07 177.88 233.66 177.71 233.69 177.77 255.47 165.66 249.16 154.3 227.37 166.4 227.4 166.45"/><path class="cls-86" d="M302.31,124.75a1.88,1.88,0,0,0-.73,2.57l4.47,8.06a1.89,1.89,0,0,0,2.57.73l6-3.33a1.9,1.9,0,0,0,.73-2.57l-4.48-8.06a1.9,1.9,0,0,0-2.57-.74Z"/><path class="cls-87" d="M309,123.17l4.49,8.06a1.9,1.9,0,0,1-.74,2.57l1.84-1a1.9,1.9,0,0,0,.73-2.57l-4.48-8.06a1.9,1.9,0,0,0-2.57-.74l-1.82,1A1.88,1.88,0,0,1,309,123.17Z"/><polygon class="cls-88" points="233.22 167.44 230.32 172.16 235.86 172.2 233.48 177.85 237.7 175.5 306.97 137.03 305.14 133.73 302.49 128.96 300.66 125.66 231.38 164.14 227.17 166.48 233.22 167.44"/><polygon class="cls-89" points="223.19 173.01 220.07 177.88 225.86 177.81 223.19 173.01"/><path class="cls-90" d="M300.86,123.87a1.9,1.9,0,0,1,2.57.74l5.9,10.63a1.88,1.88,0,0,1-.73,2.56l-.16.09a1.89,1.89,0,0,1-2.57-.73L300,126.53a1.89,1.89,0,0,1,.73-2.57Z"/><path class="cls-91" d="M257.53,205.23c.61-2.62.83-19.14,2.86-21.59,2.91.82,6.22.43,5.9,7.6-.47,11-2.8,15.37-2.8,15.41S257.49,205.35,257.53,205.23Z"/><path class="cls-92" d="M248.91,233.8a3.66,3.66,0,0,1,2.77-2.07c2.9,0,4.32-1.15,4.47-2.45.06-.64,1.26-7.12,1.46-11.18s-.12-10.29-.08-12.87c-.06-.3,6,1.42,6,1.42a19.54,19.54,0,0,0-.5,5.28,92,92,0,0,1-3,13.41c-.78,2.84-1.48,5-1.52,5.53-.09,1.63.89,3.35-1.44,3.93-1.85.44-4.82.07-6.17.22S248.75,234.57,248.91,233.8Z"/><path class="cls-93" d="M265.71,203.47c-.93,3.16-1.42,4.54-1.42,4.54s-.46,2.76-1.24,7.27-3.36,12.86-3.36,12.86-.45.32-1.94,0a6.8,6.8,0,0,1-2.07-.64s1.49-18.29,1.9-22.13,1.08-11.7,1.79-18.16c.62-5.7,9.32-2.76,9.15,2.5C268.52,189.74,266.64,200.3,265.71,203.47Z"/><path class="cls-94" d="M268.3,205.36c.21-2.68-2-19.06-.36-21.77,3,.37,6.22-.5,7,6.64,1.15,10.91-.5,15.61-.49,15.65S268.29,205.48,268.3,205.36Z"/><path class="cls-95" d="M279.35,233.93c-.3-.6.46-1.49,1.36-2.21,2.27-1.8,3.08-3.94,2.39-5.06-.35-.53-2.49-3.53-4.86-6.84s-8.43-12.31-10-14.34c-.22-.21,5.56-2.6,5.56-2.6a19,19,0,0,0,2.89,4.44,111.56,111.56,0,0,1,6.95,13.9c1.16,2.7,2.33,5.73,2.64,6.19.93,1.33,2.78,2.07,1.31,4-1.18,1.5-4.53,2.48-5.49,3.44S279.71,234.63,279.35,233.93Z"/><path class="cls-96" d="M275.13,187.42a75.31,75.31,0,0,1,.56,12.52c-.16,3.78-.56,4.64-.56,4.64s.51.22,2.89,4.11,6.48,13.45,6.48,13.45a4.36,4.36,0,0,1-2,1.73c-1.62.87-2,.33-2,.33s-12.1-15.72-12.75-18.32-1.41-13.94-1.73-17.4,7.13-1.94,9.13-1.24"/><path class="cls-97" d="M259.43,186.3s1.38-6.34,3.6-15.52c2.29-9.41,1.19-10.22,3.7-11.51s7-.27,9,1c3.2,2,5.65,1.57,2,14.55a60.7,60.7,0,0,0-2.47,13.39C274.87,190.16,264.4,191,259.43,186.3Z"/><path class="cls-98" d="M284.92,146.29s.21-2.35-.37-3.14-1.66-2.41-1.28-3a3.17,3.17,0,0,1,3.36-.82c.95.58,1.27,2.68,1,3.71a8.07,8.07,0,0,0,0,2.76Z"/><path class="cls-70" d="M287.76,159.3s-5.61,6.66-8.54,9.06c-3.13,2.57-4.88-3.69-2.68-6,2.36-2.5,5.62-4.27,8.6-7.1C286.47,154,289.69,156.3,287.76,159.3Z"/><path class="cls-70" d="M287.75,144.7s-.44-.71-1.66-.31a3.67,3.67,0,0,0-1.44.89s.05,2.62-.06,7.62-3.24,5.83-.08,6.91c.85.29,3.64.41,3.82-2.16C288.45,155.81,287.75,144.7,287.75,144.7Z"/><path class="cls-99" d="M270,158.77a6.78,6.78,0,0,0,.66-1.81,5.67,5.67,0,0,1-2.32-1c-1.4-2,0-8.49,0-8.49.39-.65,3.64-1.48,5.71.19,1.74,1.42,2.11,4.29,1.11,6.63a.15.15,0,0,1,0,.08,12.6,12.6,0,0,0-1,3.43,5.09,5.09,0,0,0,.24,2A42.59,42.59,0,0,1,270,158.77Z"/><path class="cls-100" d="M275.34,160.35s.22-1.32-1-1.58-1.87.07-3.52-.21-1.81-.8-2.06-.48-.45.69-.45.69.11,1,2.58,1.4A21.51,21.51,0,0,0,275.34,160.35Z"/><path class="cls-101" d="M273.84,151.26s1.41-.34,1.41.68-1.2.69-1.2.69a5.31,5.31,0,0,0-.19,2.43c.27,1,.51,1.63.51,1.63s1.57-2.44,2.54-4c1.94-3.15,1.66-6.95-2.73-8.29-4.19-1.27-4.48,1.09-8.06.59-.26,1.51-.23,3.35,1.92,4a8.57,8.57,0,0,0,4.78.45C273.67,150.25,273.58,151,273.84,151.26Z"/><path class="cls-102" d="M251.66,231.51c-2.22,1.27-2.94.18-3.54,1.26s0,2.88,2.77,2.85,7.32.2,7.61-.38.66-4.27.26-4.72C257.27,228.86,253.87,230.26,251.66,231.51Z"/><path class="cls-103" d="M280.88,231.08c-1.27,2.22-2.44,1.65-2.41,2.89s1.46,2.49,3.83,1.05,6.41-3.56,6.37-4.2-1.61-4-2.18-4.2C284.36,226,282.15,228.88,280.88,231.08Z"/><polygon class="cls-104" points="84.46 224.78 85.17 229.39 87.75 228.9 87.44 224.1 84.46 224.78"/><path class="cls-105" d="M84.2,234.26s-1.26-5.16,1.6-5.66,3.19.38,3.59,2.24a32.39,32.39,0,0,1,.55,3.58Z"/><path class="cls-106" d="M76.87,188.15c.42,3.78,1,10.56,1.88,13.74S80,206.47,80,206.47s.39,2.77,1,7.3,3,12.95,3,12.95.43.33,1.93.08a6.76,6.76,0,0,0,2.08-.58s-1-18.33-1.28-22.17-.76-11.73-1.29-18.21C85.08,180.13,76.84,182.88,76.87,188.15Z"/><path class="cls-107" d="M88.62,229a14.89,14.89,0,0,1,3.12,2.49,4.12,4.12,0,0,1,.48,3c-.1.27-1.86,0-2.28,0S87.93,229.25,88.62,229Z"/><polygon class="cls-108" points="70.61 224.78 69.89 229.39 67.32 228.9 67.63 224.1 70.61 224.78"/><path class="cls-109" d="M70.87,234.26s1.26-5.16-1.61-5.66-3.18.38-3.58,2.24a34,34,0,0,0-.56,3.58Z"/><path class="cls-110" d="M78.2,188.15c-.42,3.78-1,10.56-1.89,13.74S75,206.47,75,206.47s-.39,2.77-1,7.3-3,12.95-3,12.95-.44.33-1.93.08a6.77,6.77,0,0,1-2.09-.58s1-18.33,1.29-22.17.75-11.73,1.28-18.21C70,180.13,78.22,182.88,78.2,188.15Z"/><path class="cls-111" d="M66.45,229a14.89,14.89,0,0,0-3.12,2.49,4.14,4.14,0,0,0-.49,3c.11.27,1.86,0,2.28,0S67.14,229.25,66.45,229Z"/><path class="cls-112" d="M74.18,149.4s-1.93-.25-.64,2.23a2.79,2.79,0,0,0,3.61,1.49S75,149.17,74.18,149.4Z"/><path class="cls-113" d="M84.25,149.4s1.94-.25.64,2.23a2.78,2.78,0,0,1-3.6,1.49S83.42,149.17,84.25,149.4Z"/><path class="cls-114" d="M88.46,141.76s-.24-2.13-1-2.72-.59-1.62-.85-2.25c-1.13-2.79,1.12-3.3,2.2-2.94s1.7,3.56,1.61,4.52a6.78,6.78,0,0,0,.55,2.46Z"/><path class="cls-115" d="M93.67,155.67c.44,2.39-4.94,8.86-7.75,12.38-2.37,3-4.87-7.29-1.74-8,1.16-1.92,1.88-1.84,4.3-5.22C88.31,152.81,93.13,152.71,93.67,155.67Z"/><path class="cls-116" d="M90.94,139.86s-.57-.56-1.7,0a3.57,3.57,0,0,0-1.24,1,32.85,32.85,0,0,1,.57,6.88c0,3-.08,6.49,0,8.24.88.2,5.41,1.67,5.09-.63C93.42,153.74,90.94,139.86,90.94,139.86Z"/><path class="cls-117" d="M67.35,141.81s.24-2.13,1-2.73.59-1.61.84-2.24c1.13-2.79-1.12-3.3-2.2-2.94s-1.7,3.56-1.61,4.52a6.77,6.77,0,0,1-.54,2.45Z"/><path class="cls-118" d="M61.48,155.72c-.44,2.38,5.6,8.85,8.41,12.38,2.37,3,4.87-7.29,1.75-8-1.17-1.92-2.56-1.85-5-5.22C66.84,152.86,62,152.75,61.48,155.72Z"/><path class="cls-119" d="M64.87,139.9s.57-.55,1.7,0a3.46,3.46,0,0,1,1.24,1,63.19,63.19,0,0,0-.9,9.55c0,3-.25,3.81-.33,5.57-.88.2-5.41,1.67-5.09-.64C61.72,153.79,64.87,139.9,64.87,139.9Z"/><path class="cls-120" d="M69.14,187.24s0-10.87,1-19.33c.49-4.23.24-7.44,1-8.72,2,1,2.44-.59,6.49-.48,2.39.07,4.06.28,5.26.26,3.89-.05,2.94,4.67,3.06,8,.26,6.63-.16,17.77-.09,19.22s-1.92,2-8.26,2.35S69.14,187.24,69.14,187.24Z"/><path class="cls-121" d="M74.67,149.16c0,.27-.77,6.68,1.88,7.18s6.46.7,7-5.17-1.84-5.49-4.47-5.33S74.79,147.2,74.67,149.16Z"/><path class="cls-122" d="M76.52,156.63v1.7s4.11.14,4.1.16a9.8,9.8,0,0,1,.17-2.7C81.14,154.29,75.3,154.18,76.52,156.63Z"/><path class="cls-123" d="M74.67,158.84s.61-1.44,3.62-1.44,3.7,1.52,3.7,1.52Z"/><path class="cls-124" d="M74.56,152.5c.3,1,.62,3,3.34,3.06s4.54-.62,5.33-2.44a7.78,7.78,0,0,0,.46-6.31c-.92-2.31-2.84-2.39-6.16-2.32S73.69,149.62,74.56,152.5Z"/></g></g></svg>