<svg xmlns="http://www.w3.org/2000/svg" xmlns:xlink="http://www.w3.org/1999/xlink" viewBox="0 0 465.14 235.67"><defs><linearGradient id="linear-gradient" x1="-39.27" y1="3451.45" x2="68.26" y2="3451.45" gradientTransform="matrix(.17 .99 -.99 .17 3630.25 -524.5)" gradientUnits="userSpaceOnUse"><stop offset="0" stop-color="#b3e0fd"/><stop offset=".5" stop-color="#d7ecfd"/><stop offset="1" stop-color="#f0f8ff"/></linearGradient><linearGradient id="linear-gradient-2" x1="-2609.03" y1="-1089.17" x2="-2538.17" y2="-1160.02" gradientTransform="rotate(-31.8 988.725 -5301.097)" xlink:href="#linear-gradient"/><linearGradient id="linear-gradient-3" x1="-3130.3" y1="203.55" x2="-3188.65" y2="157.27" gradientTransform="translate(3241.97)" xlink:href="#linear-gradient"/><linearGradient id="linear-gradient-4" x1="-3157.59" y1="232.04" x2="-3198.18" y2="197.99" gradientTransform="translate(3241.97)" xlink:href="#linear-gradient"/><linearGradient id="linear-gradient-5" x1="4875.68" y1="232.78" x2="4834.3" y2="198.05" gradientTransform="matrix(-1 0 0 1 5017.1 0)" xlink:href="#linear-gradient"/><linearGradient id="linear-gradient-6" x1="4423.55" y1="228.7" x2="4462.66" y2="115.28" gradientTransform="matrix(-1 0 .17 1 4533.79 0)" xlink:href="#linear-gradient"/><linearGradient id="linear-gradient-7" x1="-3137" y1="162.62" x2="-3111.28" y2="162.62" gradientTransform="translate(3241.97)" xlink:href="#linear-gradient"/><linearGradient id="linear-gradient-8" x1="-3111.69" y1="182.7" x2="-3054.21" y2="182.7" gradientTransform="translate(3241.97)" xlink:href="#linear-gradient"/><linearGradient id="linear-gradient-9" x1="-3190.94" y1="182.7" x2="-3111.28" y2="182.7" gradientTransform="translate(3241.97)" xlink:href="#linear-gradient"/><linearGradient id="linear-gradient-10" x1="-3131.73" y1="111.33" x2="-3124.51" y2="111.33" gradientTransform="translate(3241.97)" xlink:href="#linear-gradient"/><linearGradient id="linear-gradient-11" x1="-3147.38" y1="129.35" x2="-3128.11" y2="129.35" gradientTransform="translate(3241.97)" xlink:href="#linear-gradient"/><linearGradient id="linear-gradient-12" x1="-3126.95" y1="139.01" x2="-3116.39" y2="139.01" gradientTransform="translate(3241.97)" xlink:href="#linear-gradient"/><linearGradient id="linear-gradient-13" x1="-3137.84" y1="168.79" x2="-3121.6" y2="168.79" gradientTransform="translate(3241.97)" xlink:href="#linear-gradient"/><linearGradient id="linear-gradient-14" x1="-3168.86" y1="144.63" x2="-3167.95" y2="144.63" gradientTransform="translate(3241.97)" xlink:href="#linear-gradient"/><linearGradient id="linear-gradient-15" x1="-3153.81" y1="172.04" x2="-3153.21" y2="172.04" gradientTransform="translate(3241.97)" xlink:href="#linear-gradient"/><linearGradient id="linear-gradient-16" x1="-3174.59" y1="163.9" x2="-3162.23" y2="163.9" gradientTransform="translate(3241.97)" xlink:href="#linear-gradient"/><linearGradient id="linear-gradient-17" x1="-3139.96" y1="196.33" x2="-3137.4" y2="196.33" gradientTransform="translate(3241.97)" xlink:href="#linear-gradient"/><linearGradient id="linear-gradient-18" x1="-3155.73" y1="189.89" x2="-3145.39" y2="189.89" gradientTransform="translate(3241.97)" xlink:href="#linear-gradient"/><linearGradient id="linear-gradient-19" x1="-3089.39" y1="146.97" x2="-3082.44" y2="146.97" gradientTransform="translate(3241.97)" xlink:href="#linear-gradient"/><linearGradient id="linear-gradient-20" x1="-3094.58" y1="169.33" x2="-3086.64" y2="169.33" gradientTransform="translate(3241.97)" xlink:href="#linear-gradient"/><linearGradient id="linear-gradient-21" x1="-3093.92" y1="193.19" x2="-3081.93" y2="193.19" gradientTransform="translate(3241.97)" xlink:href="#linear-gradient"/><linearGradient id="linear-gradient-22" x1="-3160.55" y1="199.45" x2="-3151.62" y2="199.45" gradientTransform="translate(3241.97)" xlink:href="#linear-gradient"/><linearGradient id="linear-gradient-23" x1="-3183.58" y1="187.51" x2="-3174.18" y2="187.51" gradientTransform="translate(3241.97)" xlink:href="#linear-gradient"/><linearGradient id="linear-gradient-24" x1="-3150.96" y1="214.02" x2="-3143.57" y2="214.02" gradientTransform="translate(3241.97)" xlink:href="#linear-gradient"/><linearGradient id="linear-gradient-25" x1="-3069.96" y1="186.43" x2="-3067.64" y2="186.43" gradientTransform="translate(3241.97)" xlink:href="#linear-gradient"/><linearGradient id="linear-gradient-26" x1="-3080.94" y1="202.83" x2="-3080.34" y2="202.83" gradientTransform="translate(3241.97)" xlink:href="#linear-gradient"/><linearGradient id="linear-gradient-27" x1="-3075.87" y1="201.4" x2="-3066.12" y2="201.4" gradientTransform="translate(3241.97)" xlink:href="#linear-gradient"/><linearGradient id="linear-gradient-28" x1="-3118.49" y1="189.51" x2="-3110.58" y2="189.51" gradientTransform="translate(3241.97)" xlink:href="#linear-gradient"/><linearGradient id="linear-gradient-29" x1="1632.29" y1="201.44" x2="1568.51" y2="150.86" gradientTransform="matrix(-1 0 0 1 1967.63 0)" xlink:href="#linear-gradient"/><linearGradient id="linear-gradient-30" x1="1502.48" y1="204.78" x2="1697.57" y2="204.78" gradientTransform="matrix(-1 0 0 1 1967.63 0)" xlink:href="#linear-gradient"/><linearGradient id="linear-gradient-31" x1="-2810.14" y1="48.68" x2="-2888.05" y2="157.86" gradientTransform="translate(3241.97)" xlink:href="#linear-gradient"/><linearGradient id="linear-gradient-32" x1="-2894.21" y1="434.85" x2="-2837.67" y2="378.31" gradientTransform="matrix(.99 .11 -.11 .99 3245.37 31.92)" xlink:href="#linear-gradient"/><linearGradient id="linear-gradient-33" x1="-2991.06" y1="161.29" x2="-3034.06" y2="106.9" gradientTransform="translate(3241.97)" xlink:href="#linear-gradient"/><linearGradient id="linear-gradient-34" x1="4598.95" y1="239.33" x2="4657.83" y2="199.95" gradientTransform="matrix(-1 0 0 1 4873.18 0)" xlink:href="#linear-gradient"/><linearGradient id="linear-gradient-35" x1="4501.87" y1="222.61" x2="4540.94" y2="208.39" gradientTransform="matrix(-1 0 0 1 4873.18 0)" xlink:href="#linear-gradient"/><linearGradient id="linear-gradient-36" x1="-2885.45" y1="806.18" x2="-2936.4" y2="728.24" gradientTransform="matrix(.98 .18 -.18 .98 3286.07 -106.65)" xlink:href="#linear-gradient"/><linearGradient id="linear-gradient-37" x1="-2840.38" y1="94.06" x2="-2926.27" y2="209.1" gradientTransform="translate(3241.97)" xlink:href="#linear-gradient"/><linearGradient id="linear-gradient-38" x1="-2936.37" y1="165.1" x2="-2846.63" y2="165.1" gradientTransform="translate(3241.97)" xlink:href="#linear-gradient"/><linearGradient id="linear-gradient-39" x1="-2899.45" y1="154.89" x2="-2898.91" y2="154.89" gradientTransform="translate(3241.97)" xlink:href="#linear-gradient"/><linearGradient id="linear-gradient-40" x1="-2904.26" y1="169.97" x2="-2873.66" y2="169.97" gradientTransform="translate(3241.97)" xlink:href="#linear-gradient"/><linearGradient id="linear-gradient-41" x1="-2916.91" y1="190.35" x2="-2902.99" y2="190.35" gradientTransform="translate(3241.97)" xlink:href="#linear-gradient"/><linearGradient id="linear-gradient-42" x1="-2887.93" y1="146.81" x2="-2885.76" y2="146.81" gradientTransform="translate(3241.97)" xlink:href="#linear-gradient"/><linearGradient id="linear-gradient-43" x1="-2878.65" y1="143.95" x2="-2869.03" y2="143.95" gradientTransform="translate(3241.97)" xlink:href="#linear-gradient"/><linearGradient id="linear-gradient-44" x1="-2858.72" y1="111.96" x2="-2857.27" y2="111.96" gradientTransform="translate(3241.97)" xlink:href="#linear-gradient"/><linearGradient id="linear-gradient-45" x1="-2864.21" y1="125.76" x2="-2851.62" y2="125.76" gradientTransform="translate(3241.97)" xlink:href="#linear-gradient"/><linearGradient id="linear-gradient-46" x1="4565.3" y1="238.49" x2="4532.44" y2="25.86" gradientTransform="matrix(-1 0 0 1 4873.18 0)" xlink:href="#linear-gradient"/><linearGradient id="linear-gradient-47" x1="-2938.64" y1="129.48" x2="-2904.98" y2="129.48" gradientTransform="translate(3241.97)" xlink:href="#linear-gradient"/><linearGradient id="linear-gradient-48" x1="-2924.1" y1="106.25" x2="-2896.77" y2="106.25" gradientTransform="translate(3241.97)" xlink:href="#linear-gradient"/><linearGradient id="linear-gradient-49" x1="-2933.28" y1="92.94" x2="-2921.38" y2="92.94" gradientTransform="translate(3241.97)" xlink:href="#linear-gradient"/><linearGradient id="linear-gradient-50" x1="-2931.96" y1="161.66" x2="-2907.35" y2="161.66" gradientTransform="translate(3241.97)" xlink:href="#linear-gradient"/><linearGradient id="linear-gradient-51" x1="-2948.17" y1="170.81" x2="-2933.14" y2="170.81" gradientTransform="translate(3241.97)" xlink:href="#linear-gradient"/><linearGradient id="linear-gradient-52" x1="-2910.17" y1="42.01" x2="-2898.02" y2="42.01" gradientTransform="translate(3241.97)" xlink:href="#linear-gradient"/><linearGradient id="linear-gradient-53" x1="-2913.32" y1="34.23" x2="-2908" y2="34.23" gradientTransform="translate(3241.97)" xlink:href="#linear-gradient"/><linearGradient id="linear-gradient-54" x1="-2919.27" y1="85.4" x2="-2907.71" y2="85.4" gradientTransform="translate(3241.97)" xlink:href="#linear-gradient"/><linearGradient id="linear-gradient-55" x1="-2920.1" y1="60.39" x2="-2914.47" y2="60.39" gradientTransform="translate(3241.97)" xlink:href="#linear-gradient"/><linearGradient id="linear-gradient-56" x1="-2928.97" y1="143.6" x2="-2915.88" y2="143.6" gradientTransform="translate(3241.97)" xlink:href="#linear-gradient"/><linearGradient id="linear-gradient-57" x1="-2936.28" y1="202.67" x2="-2923.24" y2="202.67" gradientTransform="translate(3241.97)" xlink:href="#linear-gradient"/><linearGradient id="linear-gradient-58" x1="256.2" y1="225.55" x2="241.95" y2="211.31" gradientUnits="userSpaceOnUse"><stop offset=".02" stop-color="#fff"/><stop offset="1" stop-color="#dcd6e8"/></linearGradient><linearGradient id="linear-gradient-59" x1="-1869.17" y1="181.67" x2="-1866.2" y2="181.67" gradientTransform="matrix(-1 0 0 1 -1753.76 0)" gradientUnits="userSpaceOnUse"><stop offset=".02" stop-color="#6d41d4"/><stop offset="1" stop-color="#572dba"/></linearGradient><linearGradient id="linear-gradient-60" x1="-1864.44" y1="179.77" x2="-1862.62" y2="179.77" xlink:href="#linear-gradient-59"/><linearGradient id="linear-gradient-61" x1="-1854.17" y1="199.51" x2="-1849" y2="199.51" gradientTransform="matrix(-1 0 .11 .94 -1762.06 6.45)" xlink:href="#linear-gradient-59"/><linearGradient id="linear-gradient-62" x1="109.41" y1="186.42" x2="108.01" y2="185.03" xlink:href="#linear-gradient-59"/><linearGradient id="linear-gradient-63" x1="171.31" y1="162.62" x2="177.25" y2="162.62" gradientTransform="matrix(1 0 -.05 1 14.27 -.43)" gradientUnits="userSpaceOnUse"><stop offset="0" stop-color="#eaedfc"/><stop offset=".84" stop-color="#cae0fc"/></linearGradient><linearGradient id="linear-gradient-64" x1="176.04" y1="150.99" x2="187.41" y2="150.99" xlink:href="#linear-gradient-63"/><linearGradient id="linear-gradient-65" x1="202.11" y1="-58.37" x2="208.38" y2="-58.37" gradientTransform="matrix(.95 .28 -.33 .96 -16.12 160.23)" xlink:href="#linear-gradient-63"/><linearGradient id="linear-gradient-66" x1="-770.05" y1="107.94" x2="-764.59" y2="88.47" gradientTransform="matrix(-1 0 0 1 -501.43 0)" xlink:href="#linear-gradient-59"/><linearGradient id="linear-gradient-67" x1="-773.21" y1="107.06" x2="-767.74" y2="87.59" gradientTransform="matrix(-1 0 0 1 -501.43 0)" xlink:href="#linear-gradient-59"/><linearGradient id="linear-gradient-68" x1="282.97" y1="100.76" x2="309.65" y2="127.43" xlink:href="#linear-gradient-59"/><clipPath id="clip-path"><path class="cls-1" d="M122.85 149l-.29-.28a.31.31 0 00-.13-.06l.29.27a.21.21 0 01.13.07z"/></clipPath><clipPath id="clip-path-2"><path class="cls-1" d="M114.38 157l.29.27c-.13-.12-.12-.36 0-.62l-.3-.28c-.11.25-.12.5.01.63z"/></clipPath><clipPath id="clip-path-3"><path class="cls-1" d="M119.24 148.65l.3.28a.9.9 0 01.82-.49l-.29-.28a1 1 0 00-.83.49z"/></clipPath><style>.cls-1{fill:none}.cls-2{isolation:isolate}.cls-9{opacity:.3}.cls-61{fill:#0d1a38}.cls-63,.cls-75{fill:#fff}.cls-63{opacity:.44;mix-blend-mode:soft-light}.cls-126,.cls-64,.cls-74{mix-blend-mode:multiply}.cls-66{fill:#274782}.cls-72{fill:#4781ea}.cls-73,.cls-74{fill:#ea9e7c}.cls-77{fill:#355fad}.cls-79{fill:#291811}.cls-80{fill:#281710}.cls-81{fill:#261610}.cls-83{fill:#2b1911}.cls-84{fill:#2c1a12}.cls-85{fill:#2e1b13}.cls-86{fill:#2f1c13}.cls-87{fill:#311c14}.cls-88{fill:#321d14}.cls-89{fill:#341e15}.cls-90{fill:#351f16}.cls-91{fill:#372016}.cls-92{fill:#382117}.cls-93{fill:#3a2217}.cls-94{fill:#3b2218}.cls-95{fill:#3d2319}.cls-96{fill:#3e2419}.cls-97{fill:#40251a}.cls-98{fill:#41261a}.cls-99{fill:#43271b}.cls-100{fill:#44281c}.cls-101{fill:#46281c}.cls-102{fill:#47291d}.cls-103{fill:#492a1d}.cls-106{fill:#4a2b1e}.cls-107{fill:#604439}.cls-108{fill:#694f44}.cls-112{fill:#282828}.cls-113{fill:#422d11}.cls-114{fill:#234573}.cls-115{fill:#172e4d}.cls-116{fill:#1c4f69}.cls-117{fill:#6131c9}.cls-119,.cls-126{fill:#6d37e3}.cls-120{fill:#162b47}.cls-122{fill:#451225}.cls-126{opacity:.5}.cls-127{fill:#41d4cc}.cls-132{fill:#807976}.cls-134{fill:#db9474}.cls-135{fill:#ed4784}.cls-141{fill:#fa940e}.cls-142{fill:#fc6da2}.cls-143{fill:#4e97e6}.cls-144{fill:#fa0}.cls-145{fill:#fbba64}</style></defs><g class="cls-2"><g id="Layer_1" data-name="Layer 1"><path d="M197.36 20.7a54.55 54.55 0 019.9 50.39C211.82 37.14 239.47 7.54 273 .68c6 28.11-9.51 59.35-35.51 71.61 17.64-9.94 31.08-19 51.2-16-7.38 42.51-58.16 63.72-102.66 67.45C167.47 103.41 164.5 45 197.36 20.7z" fill="url(#linear-gradient)"/><path d="M139.91 120.59A48.74 48.74 0 01173 139.1a97.53 97.53 0 01-23.08-75.28c13.67 19.43 32.37 9.54 38.23 32.25.84-9.48 5-14.85 11.39-20.14 33.46 43.36 19.52 99.63-6.75 122.47-11.65-28.98-52.63-32.77-52.88-77.81z" fill="url(#linear-gradient-2)"/><path d="M63 209c-3-2-6-4.5-7.3-7.9s-.38-7.92 2.9-9.52c2.57-1.26 5.64-.41 8.31.61a71.46 71.46 0 0119.77 11.5c-7.76-4.57-15.58-9.18-22.24-15.25s-12.13-13.79-14-22.6a17.63 17.63 0 01.1-9 9.3 9.3 0 016.08-6.27c3.95-1.07 8 1.26 11.21 3.76a69.67 69.67 0 0121.21 27.27 46.68 46.68 0 01-9-21.17c-.75-4.88-.33-10.68 3.67-13.57 4.15-3 10.1-1.3 14.26 1.69 9.85 7.09 29.16 28.4 35.35 38.84 22.06 37.25-14.47 38.94-25.65 36.05-4.37-1.13-8.93-1-13.38-1.71a77.82 77.82 0 01-15.43-4.22A76.11 76.11 0 0163 209z" fill="url(#linear-gradient-3)"/><path d="M100.42 200.48c-15.06-32-69.27-39.73-48.65 4.81-9.15-8.45-20.8-9.88-24-5.7s-.77 11 4.36 17.72c-21.33-6.75-21.77 6.33-15 12.1-10.47-4.88-9.63 3-17.18 6.05h130.13v-38.28c-12.25-15.52-35.99-19.43-29.66 3.3z" fill="url(#linear-gradient-4)"/><path d="M123.8 200.48c15.06-32 69.27-39.73 48.65 4.81 9.15-8.45 20.8-9.88 24-5.7s.77 11-4.36 17.72c21.33-6.75 21.77 6.33 15 12.1 10.48-4.88 14.53 3 22.08 6.05h-135v-38.28c12.23-15.52 35.96-19.43 29.63 3.3z" fill="url(#linear-gradient-5)"/><path d="M42.24 161.82C46 159 51.82 160 55.86 163.76l8.78 8.13c1.86 1.73 4.34 0 3.09-2.17-7.68-13.26-12.87-26.79-13.61-41.26-.21-4.06 1.75-7.68 5.37-9 7.34-2.71 13.73 5.45 17.7 12.22l.33.57c4.54 7.74 15.73 5.54 14.33-2.84a111.54 111.54 0 01-1.15-31c.81-7.27 3.22-15.43 10.39-16.88a26 26 0 015.29 0c7.68 1.45 12.92 9.61 16.26 16.88a132.16 132.16 0 0111 40.6c1.17 7.17 9.92 9.83 12.16.47l3.2-13.43a9 9 0 017.77-7.08c8.17-1 12.93 8.45 14.46 15.89 2.48 12.1 1.73 23.58-.88 34.86-.5 2.15 2.59 3.89 3.85 2.17l5.95-8.13c2.74-3.75 8.25-4.72 12.95-1.94 7.72 4.57 5 13.58 1.33 19.26-11.34 17.48-33.85 46.3-57.31 54.38h-13.31c-26.27-8.08-58.81-36.9-76.21-54.38-5.6-5.68-11.49-14.69-5.36-19.26z" fill="url(#linear-gradient-6)"/><path d="M130.49 235.67a.21.21 0 01-.21-.17L105 89.81a.2.2 0 01.4-.07l25.32 145.69a.21.21 0 01-.17.24z" fill="url(#linear-gradient-7)"/><path d="M130.49 235.67a.24.24 0 01-.14 0 .21.21 0 010-.26c20.27-35.66 30.37-70.15 30.87-105.43a.2.2 0 01.2-.2.2.2 0 01.2.21c-.49 35.07-10.45 69.35-30.44 104.77 24.25-18.23 43.67-40.06 56.22-63.18a.2.2 0 01.28-.08.21.21 0 01.09.28c-12.72 23.42-32.47 45.52-57.13 63.9a.19.19 0 01-.15-.01z" fill="url(#linear-gradient-8)"/><path d="M130.49 235.67a.2.2 0 01-.11 0c-31-18.37-58.46-40.46-79.3-63.87a.21.21 0 11.3-.28c20.55 23.08 47.51 44.87 78 63.08C97.19 199.22 75.37 165 62.72 130a.2.2 0 01.12-.26.22.22 0 01.27.12c12.76 35.29 34.89 69.79 67.53 105.46a.21.21 0 010 .27.21.21 0 01-.15.08z" fill="url(#linear-gradient-9)"/><path d="M110.44 120.31h-.08a.22.22 0 01-.11-.27l6.81-17.56a.23.23 0 01.27-.12.21.21 0 01.12.27l-6.82 17.56a.21.21 0 01-.19.12z" fill="url(#linear-gradient-10)"/><path d="M113.65 138.8a.2.2 0 01-.14-.06l-18.86-18.49a.2.2 0 010-.29.21.21 0 01.29 0l18.87 18.49a.21.21 0 01-.15.35z" fill="url(#linear-gradient-11)"/><path d="M115.22 147.84a.19.19 0 01-.1 0 .2.2 0 01-.07-.28l10.14-17.24a.21.21 0 01.29-.07.21.21 0 01.07.28l-10.15 17.21a.22.22 0 01-.18.1z" fill="url(#linear-gradient-12)"/><path d="M120.16 176.25a.19.19 0 01-.14-.05l-15.83-14.51a.21.21 0 01.28-.31l15.83 14.52a.2.2 0 01-.14.35z" fill="url(#linear-gradient-13)"/><path d="M73.81 155.56a.2.2 0 01-.21-.2l-.49-21.44a.2.2 0 01.2-.21.2.2 0 01.21.2l.48 21.44a.21.21 0 01-.2.21z" fill="url(#linear-gradient-14)"/><path d="M88.56 181.66a.21.21 0 01-.21-.21l-.19-18.83a.22.22 0 01.21-.21.21.21 0 01.2.21l.19 18.83a.22.22 0 01-.2.21z" fill="url(#linear-gradient-15)"/><path d="M79.53 166.46h-.08l-12-4.72a.21.21 0 01-.11-.27.21.21 0 01.27-.12l11.94 4.73a.2.2 0 01.12.26.21.21 0 01-.14.12z" fill="url(#linear-gradient-16)"/><path d="M104.37 204.42a.21.21 0 01-.21-.18L102 188.47a.21.21 0 01.18-.23.2.2 0 01.23.17l2.15 15.77a.21.21 0 01-.18.24z" fill="url(#linear-gradient-17)"/><path d="M96.37 193.4a.28.28 0 01-.12 0l-9.92-6.61a.21.21 0 01-.06-.28.21.21 0 01.29-.06l9.92 6.55a.2.2 0 01.06.28.22.22 0 01-.17.12z" fill="url(#linear-gradient-18)"/><path d="M159.32 155.56a.21.21 0 01-.19-.13l-6.54-16.76a.21.21 0 01.11-.27.21.21 0 01.27.12l6.55 16.76a.21.21 0 01-.12.26z" fill="url(#linear-gradient-19)"/><path d="M155.12 176.25a.2.2 0 01-.18-.1l-7.53-13.43a.21.21 0 01.08-.28.2.2 0 01.28.08L155.3 176a.21.21 0 01-.08.28.18.18 0 01-.1-.03z" fill="url(#linear-gradient-20)"/><path d="M148.25 198a.21.21 0 01-.12-.37l11.57-9.19a.21.21 0 11.26.32l-11.58 9.19a.21.21 0 01-.13.05z" fill="url(#linear-gradient-21)"/><path d="M90.15 208.08A.21.21 0 0190 208l-8.52-16.84a.2.2 0 01.09-.27.2.2 0 01.28.09l8.52 16.84a.2.2 0 01-.09.27z" fill="url(#linear-gradient-22)"/><path d="M67.59 188.65l-9-1.86a.2.2 0 11.08-.4l9 1.86a.21.21 0 01.16.24.21.21 0 01-.24.16z" fill="url(#linear-gradient-23)"/><path d="M98.2 214.22h-7a.2.2 0 01-.2-.2.2.2 0 01.2-.21h7a.2.2 0 01.2.21.2.2 0 01-.2.2z" fill="url(#linear-gradient-24)"/><path d="M172.22 195.15a.2.2 0 01-.18-.22l1.91-17a.2.2 0 01.23-.18.2.2 0 01.18.22l-1.91 17a.21.21 0 01-.23.18z" fill="url(#linear-gradient-25)"/><path d="M161.23 208.08a.21.21 0 01-.2-.21l.19-10.09a.2.2 0 01.21-.2.2.2 0 01.2.21l-.19 10.09a.2.2 0 01-.21.2z" fill="url(#linear-gradient-26)"/><path d="M166.31 202.38a.22.22 0 01-.21-.18.2.2 0 01.17-.23l9.33-1.55a.21.21 0 01.24.17.21.21 0 01-.17.24l-9.33 1.54z" fill="url(#linear-gradient-27)"/><path d="M123.68 196.53h-.09a.21.21 0 01-.09-.28l7.5-13.65a.2.2 0 01.28-.08.2.2 0 01.08.28l-7.49 13.63a.23.23 0 01-.19.1z" fill="url(#linear-gradient-28)"/><path d="M389.68 202.44c3-2.08 5.95-4.54 7.27-7.94s.39-7.92-2.89-9.52c-2.57-1.26-5.64-.41-8.31.61a71.46 71.46 0 00-19.75 11.5c7.76-4.56 15.58-9.18 22.24-15.25s12.13-13.79 14-22.6a17.63 17.63 0 00-.1-9A9.32 9.32 0 00396 144c-3.95-1.06-8 1.26-11.21 3.76A69.67 69.67 0 00363.61 175a46.8 46.8 0 009-21.16c.75-4.89.33-10.68-3.68-13.58s-10.1-1.3-14.25 1.69c-9.85 7.09-13.85 19.54-18.85 30.59a132.22 132.22 0 01-25.93 37.91c-1.6 1.64-3.36 4.06-2.09 6a4.89 4.89 0 003.23 1.66 73.77 73.77 0 0033.96-1.28c4.37-1.13 8.92-1 13.38-1.71a76.86 76.86 0 0031.34-12.68z" fill="url(#linear-gradient-29)"/><path d="M359.83 200.44c15.05-32 69.26-39.73 48.64 4.81 9.15-8.45 20.8-9.88 24-5.7s.78 11-4.35 17.72c21.33-6.75 21.76 6.34 15 12.1 10.47-4.88 14.52 3 22.07 6H270.06v-38.23c80.49-19.43 96.09-19.43 89.77 3.3z" fill="url(#linear-gradient-30)"/><path d="M430.25 121.17a47.61 47.61 0 00-44 8.27c26-14.67 41.08-46.65 35.79-76.06-24.71 4.25-45 26.9-46.55 51.93a54.32 54.32 0 00-1.35-51c-25.77 29.22-41 75-23.81 129 25.72-28.5 70.52-22.23 79.92-62.14z" fill="url(#linear-gradient-31)"/><path d="M321.62 103.64a46.88 46.88 0 0114.12 33.61 93.73 93.73 0 0127.07-70.68c-1.28 18.93 11.6 36.57 2.6 57.24 6.08-11 17.38-15.75 27.82-18.71-.31 52.65-26.74 77.06-60.16 78.81-1.38-23-12.1-37.68-13.38-47.48a86.47 86.47 0 011.93-32.79z" fill="url(#linear-gradient-32)"/><path d="M225.53 176.43c-8.41-8-40.64-41.65-30.64-84.23 1.54-6.52 8.56-13.47 15.28-11.7 17.57 4.62 28.34 32.58 56.74 47.82 30.55 16.4 34.75 63 31.5 101.25h-40.49c-1.29-23.36-24.03-45.16-32.39-53.14z" fill="url(#linear-gradient-33)"/><path d="M212.25 183.3c-3.31-.61-7.54 0-8.5 3.08-1.11 3.61 3.11 6.77 6.64 8.53l21.11 10.5c3.11 1.54 3.09 1.77-.16.73a61.26 61.26 0 00-22.65-2.83c-3.6.24-8 1.76-8 5.38s4.47 5.58 8 6.5c10.26 2.66 22.67 2.51 18.2 3s-7.92 6.23-4.72 9.61a9.73 9.73 0 004.62 2.28c9.9 2.72 29.94 5.41 52.7 5.41-3.11-11.34-27.28-44.86-67.24-52.19z" fill="url(#linear-gradient-34)"/><path d="M381.22 187.8c3-.56 6.89 0 8.12 2.82 1.42 3.29-2.08 6.18-5.11 7.79L366.12 208c-2.66 1.41-2.61 1.62.23.67a53.36 53.36 0 0120.38-2.58c3.32.22 7.54 1.6 7.91 4.91s-3.46 5.09-6.62 5.94c-9.07 2.43-20.41 2.15-16.29 2.71 19.33 2.64 23.68 8.14 22.85 15.81h-97.94c3.19-13.46 50.62-41.29 84.58-47.66z" fill="url(#linear-gradient-35)"/><path d="M307.84 197.23c-.89-7.67 3.63-35.27 7.5-41.8 30-50.72-19.69-72.81-13.3-127.73.87-7.5-6.12-16.27-13.41-16-6.43.19-9.78 7.86-9.38 14.44s3.11 13.09 2.8 19.64c-.42 9.07-6.41 16.39-11.68 23.44S252.22 90.11 259.66 108c9.72 23.43 5.66 33.51.73 44.61-4.26 9.58 3.11 22 2.83 32.79-.15 5.9-5.52 12.45-3.7 18.18 4.44 14 11.22 28.83 26.51 31.39 20.13 3.41 23.48-23.3 21.81-37.74z" fill="url(#linear-gradient-36)"/><path d="M321 174.4c10.08-8.25 1.59-27.17 9.74-37.32 7.9-9.83 25.16-4.67 35.7-11.63 7.05-4.67 9.53-13.64 13.49-21.13S392 89.79 400.32 93c7.42 2.88 10.13 12.82 7.55 20s-8.82 12.17-14.86 16.73-12.36 9.36-15.29 16.38c-2.72 6.54-2.18 14.21-4.61 20.88-9.59 26.34-43.56 25.66-38.37 68.48h-56.29c0-45.12 38.24-57.54 42.55-61.07z" fill="url(#linear-gradient-37)"/><path d="M305.8 226.32a.13.13 0 01-.08 0 .2.2 0 01-.1-.27c13-29.52 34.67-55.07 55.66-79.76 12.26-14.43 23.84-28.05 33.68-42.3a.21.21 0 11.34.24c-9.85 14.26-21.44 27.89-33.7 42.32-21 24.68-42.67 50.2-55.61 79.67a.21.21 0 01-.19.1z" fill="url(#linear-gradient-38)"/><path d="M342.72 169a.2.2 0 01-.2-.21l.13-27.8a.21.21 0 01.2-.21.22.22 0 01.21.21l-.13 27.81a.2.2 0 01-.21.2z" fill="url(#linear-gradient-39)"/><path d="M337.91 175.05a.2.2 0 01-.19-.14.2.2 0 01.13-.26l30.15-9.74a.2.2 0 01.26.13.22.22 0 01-.13.26L338 175z" fill="url(#linear-gradient-40)"/><path d="M325.26 192.15a.21.21 0 01-.2-.16.22.22 0 01.16-.25l13.5-3.18a.22.22 0 01.25.16.21.21 0 01-.15.25l-13.51 3.17z" fill="url(#linear-gradient-41)"/><path d="M354.24 155.1a.21.21 0 01-.19-.23l1.76-16.17a.19.19 0 01.23-.18.2.2 0 01.18.22l-1.76 16.18a.2.2 0 01-.22.18z" fill="url(#linear-gradient-42)"/><path d="M372.73 144.16h-9.21a.21.21 0 110-.41h9.21a.2.2 0 01.2.2.2.2 0 01-.2.21z" fill="url(#linear-gradient-43)"/><path d="M383.45 120a.2.2 0 01-.19-.22l1-15.74a.18.18 0 01.22-.19.19.19 0 01.19.21l-1 15.75a.21.21 0 01-.22.19z" fill="url(#linear-gradient-44)"/><path d="M378 126.89a.22.22 0 01-.21-.18.21.21 0 01.18-.23l12.18-1.85a.2.2 0 01.06.4L378 126.89z" fill="url(#linear-gradient-45)"/><path d="M284 157.56c15.35-25.36 6.44-53.5 8.29-66.29 1.51-10.44 13.13-15.37 19.05-23.88 4.6-6.62 5.54-15.18 6.53-23.35s2.32-16.73 7.48-22.92 15.44-8.77 22-3.25c5.52 4.65 6.19 13 4 19.53s-6.53 11.94-9.68 18-5.05 13.52-2 20c3.49 7.46 12.59 11.72 15 19.54 2.23 7.27-2.28 14.37-7 19.92s-6.05 11.49-5.86 19c.28 11.21 9.09 21.19 6.27 31.85s-14.82 14.83-18.38 27.13c-2.42 8.41-2.42 23.64 17 42.59h-68.28c.03-43.71-.11-68.52 5.58-77.87z" fill="url(#linear-gradient-46)"/><path d="M303.53 232a.21.21 0 01-.18-.23C310.19 156 320.76 91 336.58 27.13a.21.21 0 11.4.1c-15.82 63.85-26.38 128.85-33.24 204.56a.21.21 0 01-.21.21z" fill="url(#linear-gradient-47)"/><path d="M318.08 117.52a.21.21 0 01-.16-.08.21.21 0 010-.29L344.86 95a.21.21 0 01.26.32l-26.91 22.12a.24.24 0 01-.13.08z" fill="url(#linear-gradient-48)"/><path d="M320.38 104.3a.19.19 0 01-.18-.11l-11.49-22.32a.2.2 0 01.09-.27.2.2 0 01.28.09L320.56 104a.19.19 0 01-.09.27.16.16 0 01-.09.03z" fill="url(#linear-gradient-49)"/><path d="M310.21 170.59a.21.21 0 01-.17-.09.22.22 0 010-.29l24.2-17.44a.21.21 0 01.29 0 .2.2 0 01-.05.29l-24.2 17.45a.28.28 0 01-.07.08z" fill="url(#linear-gradient-50)"/><path d="M308.62 183.39a.21.21 0 01-.18-.11l-14.61-24.73a.2.2 0 01.07-.28.2.2 0 01.28.07l14.62 24.73a.22.22 0 01-.07.29.23.23 0 01-.11.03z" fill="url(#linear-gradient-51)"/><path d="M332 47.4a.2.2 0 01-.16-.07.21.21 0 010-.29l11.76-10.37a.2.2 0 01.29 0 .2.2 0 010 .29l-11.75 10.39a.24.24 0 01-.14.05z" fill="url(#linear-gradient-52)"/><path d="M333.76 39.87a.22.22 0 01-.19-.12l-4.91-10.88a.21.21 0 01.38-.17L334 39.58a.21.21 0 01-.11.27z" fill="url(#linear-gradient-53)"/><path d="M322.9 90.69a.23.23 0 01-.15-.07.2.2 0 010-.29l11.14-10.15a.2.2 0 01.29 0 .21.21 0 010 .29L323 90.63a.2.2 0 01-.1.06z" fill="url(#linear-gradient-54)"/><path d="M327.29 66.32a.21.21 0 01-.19-.12l-5.21-11.45a.21.21 0 01.1-.28.22.22 0 01.28.11l5.2 11.42a.2.2 0 01-.1.28z" fill="url(#linear-gradient-55)"/><path d="M313.2 148.68a.21.21 0 01-.16-.08.21.21 0 010-.29l12.68-9.75a.2.2 0 01.29 0 .19.19 0 010 .28l-12.68 9.76a.25.25 0 01-.13.08z" fill="url(#linear-gradient-56)"/><path d="M305.89 207.74a.21.21 0 01-.12-.37l12.63-9.73a.2.2 0 01.29 0 .2.2 0 010 .28L306 207.7a.2.2 0 01-.11.04z" fill="url(#linear-gradient-57)"/><path class="cls-61" d="M193.73 116.79a1.54 1.54 0 01-1.55-1.55v-8.86a1.54 1.54 0 011.55-1.54 1.55 1.55 0 011.55 1.54v8.86a1.55 1.55 0 01-1.55 1.55zM193.73 130.21a1.55 1.55 0 01-1.55-1.55v-8.86a1.54 1.54 0 011.55-1.55 1.55 1.55 0 011.55 1.55v8.86a1.56 1.56 0 01-1.55 1.55z"/><rect class="cls-61" x="193.49" y="88.14" width="81.62" height="147.33" rx="5.96" ry="5.96"/><path d="M194.63 97.17v127.05H274v-127a9.25 9.25 0 00-1.61-5.23h-76.15a9.25 9.25 0 00-1.61 5.18z" fill="#77b8e6"/><path class="cls-63" d="M226.02 224.21L250.5 91.53h-7.94l-24.48 132.68h7.94zM202.09 224.21l24.48-132.68h-7.93l-24.48 132.68h7.93zM251.03 224.21l24.48-132.68h-20.63L230.4 224.21h20.63z"/><path class="cls-61" d="M252.93 96.71h-37.25a4.1 4.1 0 01-4.09-4.1 4.1 4.1 0 014.09-4.1h37.25a4.1 4.1 0 014.09 4.1 4.1 4.1 0 01-4.09 4.1z"/><path d="M204.35 164.5c0-1-.14-1.93-.27-2.89l.28-.07-.1-.58-.26.04c0-.21-.06-.41-.1-.61-.08-.45-.17-.89-.27-1.34a3 3 0 00-.07-.32c-.18-.79-.38-1.57-.62-2.34-.1-.33-.21-.66-.32-1s-.23-.66-.36-1-.26-.66-.4-1c-.07-.17-.15-.33-.23-.51l-.12-.26a.91.91 0 01-.07-.14v-.07a.93.93 0 000-.1 3.44 3.44 0 00-1.63-1.43c-1.71-1.94-3-2.08-3.33-2.09l-.16-.1-.2-.11-.21-.1-.15-.05-.17-.05h-.18l-.42-.09h-.39a21.57 21.57 0 001-4.62 1 1 0 000-.15v-.07-.45h.26a2.36 2.36 0 002.44-2.05 1.85 1.85 0 00-.57-1.43 9.62 9.62 0 00.29-4.39c-.4-3.07-1.71-5.56-2.93-5.56a.8.8 0 00-.3.06 1.34 1.34 0 00-.54-.51 14.64 14.64 0 00-1.39-.62v69c1.19-2.87 2.4-5.9 3.3-8.5a4.07 4.07 0 00.94-.78 3.7 3.7 0 00.94-3.17 2.88 2.88 0 00.68-.83 57.88 57.88 0 003.45-7.47c.48-1.28.92-2.59 1.29-3.93a26.55 26.55 0 00.81-4.19l.05-.56v-1.54-1c0-.31.05-.68.03-1.03z" fill="url(#linear-gradient-58)" id="shadow_"/><g id="guy_01"><path class="cls-66" d="M115 180l-.82-1h-8.6c.07 4.37 4.06 22.82 4.47 25.36s.75 6.71 1.43 10c.37 1.77 2.12 7.39 3.65 12.19l1.7 7.44h.7l.06.2v-.2l2.26-.1z"/><path d="M115.41 185.12c-1.41-.7-3-2.17-3-3.86a4.28 4.28 0 011.26-3c.78 1.05 1.28 1.77 1.28 1.77z" style="mix-blend-mode:multiply" fill="url(#linear-gradient-59)" opacity=".17"/><path d="M109.76 176.16a.92.92 0 01.92.91v5.39a.92.92 0 11-1.83 0v-5.39a.91.91 0 01.91-.91z" style="mix-blend-mode:multiply" fill="url(#linear-gradient-60)" opacity=".17"/><path d="M109.53 186.75a18.71 18.71 0 00-2 4.07c.94 5.08 2 10.22 2.32 12.05l.14-.05c.23-1.29-.75-13.91-.09-14.79s2.31-2.16 2.2-2.57-1.4.1-2.57 1.29z" style="mix-blend-mode:multiply" opacity=".49" fill="url(#linear-gradient-61)"/><path class="cls-66" d="M99.6 213.25a31.27 31.27 0 011-7.24c-.1-2.4-1.38-24.88-.63-27 1-2.85 6.31-2 6.31-2l-.16 1.42h.22a34.14 34.14 0 003.49 1l-4.95 54.06-3 .13s-2.33-17.1-2.28-20.37z"/><path d="M107 182.92c.83-1.62.51-3.45-.71-4.08s-2.9.16-3.74 1.78-.52 3.45.71 4.08 2.88-.16 3.74-1.78z" style="mix-blend-mode:multiply" fill="url(#linear-gradient-62)" opacity=".17"/><path d="M111.08 147.68c0 .24-.14.43-.3.43s-.27-.19-.26-.43.14-.42.3-.42.27.19.26.42z" fill="#a9cee6"/><path class="cls-72" d="M105.84 145.06a7 7 0 017 6.62l1.69 26.75H99.67l1-7.5-2.58-17.61a7.86 7.86 0 017.75-8.26z"/><path class="cls-61" d="M108.86 151.08l3.35 24.59-.85 2.8-1.6-2.6-1.53-24.59.63-.2z"/><path class="cls-73" d="M106.61 148.51a12.52 12.52 0 011.37 0 1.09 1.09 0 01.87.18c.94-2.49-.18-7.46.76-9.62-1.75.12-6.54 1.17-6.54 1.17s-.18 2.84-.28 5.24a5.68 5.68 0 002.65 4.37 1.64 1.64 0 011.17-1.34z"/><path class="cls-74" d="M102.94 142.11c.08-1.51.16-2.78.17-2.94l.79-.17a41.6 41.6 0 005.31.41h.11c-.24 2.21.23 5.43-.23 7.54a4.93 4.93 0 01-.55 0c-4.23-.01-5.39-2.6-5.6-4.84z"/><path class="cls-73" d="M104.67 138a1.75 1.75 0 00-1.76-1.82A1.92 1.92 0 00101 138a1.75 1.75 0 001.76 1.83 1.92 1.92 0 001.91-1.83z"/><path class="cls-73" d="M108.86 142.78h-1.65a4.42 4.42 0 01-4.46-4.63l.13-3.54a5.09 5.09 0 015.05-4.85h4.95l-.36 9.51a3.69 3.69 0 01-3.66 3.51z"/><path class="cls-61" d="M103.61 138a38.44 38.44 0 005.38.46 11.59 11.59 0 003.57-.37s.67 7.1-4.18 7.1c-6.65.01-4.77-7.19-4.77-7.19z"/><path class="cls-73" d="M109.28 141a2 2 0 01-1.21-.35.15.15 0 01.19-.22 1.88 1.88 0 002.1-.08.15.15 0 01.21 0 .14.14 0 010 .2 2 2 0 01-1.29.45z"/><path class="cls-61" d="M112.91 132.89h-.2a59.79 59.79 0 00-7.48-.12c-1.91.26-1.66 3.29-1.66 3.29l-1.3.26s-1.09-3.23-.11-5.61 9.94-4.26 10.56-3.61.09 5.79.09 5.79z"/><path class="cls-61" d="M104.39 138.17a3 3 0 000-2.19c-.45-1.25-.8-1.59-.41-2.95s.4-1 0-.59a11.66 11.66 0 00-.71 3.11 6.86 6.86 0 01.32 2.46c.41.93.8.16.8.16z"/><path class="cls-75" d="M107.35 140.28c.08-.9.8.12 1.81.17s1.92-.88 1.83 0a1.83 1.83 0 01-2 1.53 1.64 1.64 0 01-1.64-1.7z"/><path class="cls-61" d="M106.65 150.13c-.05 1 .55 1.89 1.34 1.89a1.8 1.8 0 001.51-1.89c0-1-.54-1.88-1.33-1.88a1.8 1.8 0 00-1.52 1.88z"/><path d="M101.62 146.34l4.12 5.37 2.34-3.4 1.94 3.15.14-1.08-1.93-2.07-5.34-3.31z" style="mix-blend-mode:multiply" opacity=".35" fill="#c22f96"/><path class="cls-77" d="M108.23 148.31l1.93 2.07s.27-3.62.25-3.89-1.15-1.25-1.15-1.25-.03 2.15-1.03 3.07zM105.78 150.81l2.45-2.5-5.39-4.04-1.22 2.07 4.16 4.47z"/><path class="cls-73" d="M115.61 152.19c0-1.18.76-2.14 1.62-2.14s1.55 1 1.52 2.14-.75 2.14-1.62 2.14-1.54-.96-1.52-2.14z"/><g class="cls-2"><g class="cls-2"><g class="cls-2" clip-path="url(#clip-path)"><path class="cls-79" d="M122.43 148.69l.29.27-.3-.27z"/><path class="cls-80" d="M122.44 148.69l.3.27-.29-.28z"/><path class="cls-81" d="M122.48 148.7l.29.28.08.05-.29-.28-.08-.05z"/></g></g><g class="cls-2"><g class="cls-2" clip-path="url(#clip-path-2)"><path class="cls-81" d="M114.38 157l.29.27v-.06l-.29-.27v.06z"/><path class="cls-80" d="M114.33 156.93l.29.27-.29-.28z"/><path class="cls-79" d="M114.32 156.89l.29.28-.29-.27z"/><path class="cls-83" d="M114.31 156.87l.29.27-.29-.27z"/><path class="cls-84" d="M114.3 156.84l.29.27-.29-.28z"/><path class="cls-85" d="M114.3 156.81l.29.28-.3-.27z"/><path class="cls-86" d="M114.29 156.79l.3.27-.29-.28z"/><path class="cls-87" d="M114.29 156.76l.29.28-.3-.27z"/><path class="cls-88" d="M114.29 156.74l.3.27-.3-.27z"/><path class="cls-89" d="M114.29 156.72l.3.27-.29-.27z"/><path class="cls-90" d="M114.3 156.7l.29.27-.29-.28z"/><path class="cls-91" d="M114.3 156.67l.29.28-.3-.27z"/><path class="cls-92" d="M114.3 156.65l.3.27-.29-.27z"/><path class="cls-93" d="M114.31 156.63l.29.27-.29-.28z"/><path class="cls-94" d="M114.32 156.6l.29.28-.3-.27z"/><path class="cls-95" d="M114.32 156.58l.3.27-.29-.28z"/><path class="cls-96" d="M114.33 156.55l.29.28-.29-.27z"/><path class="cls-97" d="M114.34 156.53l.29.27-.29-.28z"/><path class="cls-98" d="M114.35 156.5l.29.28-.3-.27z"/><path class="cls-99" d="M114.36 156.48l.3.27-.29-.27z"/><path class="cls-100" d="M114.38 156.45l.29.27-.29-.27z"/><path class="cls-101" d="M114.39 156.42l.29.27-.29-.28z"/><path class="cls-102" d="M114.41 156.39l.29.28-.3-.28z"/><path class="cls-103" d="M114.42 156.37l.3.27-.3-.27z"/></g></g><path class="cls-83" d="M120.06 148.16l.3.28 2.36.52-.29-.27-2.37-.53z"/><path fill="#482a1d" d="M114.42 156.37l.3.27 4.82-7.71-.3-.28-4.82 7.72z"/><path class="cls-80" d="M122.72 149l-2.36-.52a.9.9 0 00-.82.49l-4.82 7.71c-.21.32-.17.63.08.69l2.36.52a.92.92 0 00.83-.49l4.82-7.71c.19-.36.19-.69-.09-.69z"/><g class="cls-2"><g class="cls-2" clip-path="url(#clip-path-3)"><path class="cls-103" d="M119.24 148.65l.3.28-.29-.27z"/><path class="cls-106" d="M119.26 148.63l.29.27-.29-.27z"/><path class="cls-107" d="M119.28 148.6l.29.27-.3-.27z"/><path class="cls-108" d="M119.3 148.57l.3.27-.3-.27z"/><path d="M119.33 148.53l.3.27.1-.11-.29-.27-.11.11z" fill="#70574d"/><path class="cls-108" d="M119.44 148.42l.29.27-.29-.27z"/><path class="cls-107" d="M119.47 148.39l.29.27-.29-.27z"/><path class="cls-106" d="M119.5 148.36l.29.27-.29-.27z"/><path class="cls-103" d="M119.53 148.34l.29.27-.3-.27z"/><path class="cls-102" d="M119.55 148.32l.3.27-.29-.28z"/><path class="cls-101" d="M119.58 148.3l.29.28-.29-.28z"/><path class="cls-100" d="M119.61 148.28l.29.28-.3-.27z"/><path class="cls-99" d="M119.63 148.27l.3.27-.29-.28z"/><path class="cls-98" d="M119.66 148.25l.29.28-.3-.27z"/><path class="cls-97" d="M119.68 148.24l.3.27-.29-.27z"/><path class="cls-96" d="M119.71 148.23l.29.27-.29-.28z"/><path class="cls-95" d="M119.74 148.21l.29.28-.29-.28z"/><path class="cls-94" d="M119.76 148.2l.29.28-.3-.28z"/><path class="cls-93" d="M119.78 148.19l.3.28-.29-.27z"/><path class="cls-92" d="M119.81 148.19l.29.27-.29-.27z"/><path class="cls-91" d="M119.83 148.18l.29.27-.3-.28z"/><path class="cls-90" d="M119.85 148.17l.3.28-.3-.27z"/><path class="cls-89" d="M119.87 148.17l.3.27-.29-.28z"/><path class="cls-88" d="M119.9 148.16l.29.28-.29-.27z"/><path class="cls-87" d="M119.92 148.16l.29.27-.3-.27z"/><path class="cls-86" d="M119.94 148.16l.3.27-.29-.28z"/><path class="cls-85" d="M120 148.15l.29.28-.3-.28z"/><path class="cls-84" d="M120 148.15l.3.28-.29-.27z"/><path class="cls-83" d="M120 148.16l.29.27-.29-.27z"/><path class="cls-79" d="M120.05 148.16l.29.27-.29-.28z"/></g></g></g><path class="cls-72" d="M98.31 152.78a19.25 19.25 0 00.64 2.69c.27.85.57 1.66.9 2.44a44.12 44.12 0 002.19 4.47c.79 1.42 1.64 2.8 2.52 4.14.44.67.89 1.34 1.35 2l.71 1c.24.33.47.64.74 1v.07a2.49 2.49 0 003.53.32 2.81 2.81 0 00.64-.7c.7-1.1 1.35-2.16 2-3.25s1.29-2.18 1.92-3.28 1.23-2.24 1.82-3.41c.29-.58.57-1.17.84-1.8a15.34 15.34 0 00.76-2.07 2.09 2.09 0 00-1.57-2.65 2.46 2.46 0 00-2.76 1.66v.08a11.29 11.29 0 01-.57 1.37c-.24.5-.51 1-.8 1.53-.56 1-1.18 2.07-1.82 3.1s-1.3 2.06-2 3.09-1.37 2-2 3l4.22-.31c-.19-.28-.41-.6-.61-.91l-.62-1c-.4-.63-.8-1.27-1.18-1.92-.77-1.3-1.5-2.62-2.17-4a39.54 39.54 0 01-1.76-4 17.85 17.85 0 01-1-3.95 2.73 2.73 0 00-3.31-2.34 3.23 3.23 0 00-2.62 3.47s0 .13.01.16z"/><path d="M109.17 163.49l.44.74c.42-.64.83-1.28 1.24-1.93l-1.68 4.7s-1.12-4-1.66-6.47c.49.99 1.08 1.98 1.66 2.96z" style="mix-blend-mode:multiply" opacity=".35" fill="#4781ea"/><path class="cls-73" d="M120.86 153.92a2.93 2.93 0 00-2.93-2.91 2.89 2.89 0 00-2.9 2.91 2.93 2.93 0 002.93 2.91 2.89 2.89 0 002.9-2.91z"/><path fill="#702b0a" d="M114.99 180.02H99.61l-.01-1.8h15.38l.01 1.8z"/><path class="cls-112" d="M116.78 234a6.56 6.56 0 013-.13c1.65.29 3.82.66 4 .94a1.28 1.28 0 01.16.67s-6.72-.07-7-.22-.16-1.26-.16-1.26zM101.81 233.17a6.78 6.78 0 013-.13c1.63.28 3.8.65 4 .92a1.19 1.19 0 01.14.67s-6.71-.07-7-.22-.14-1.24-.14-1.24z"/><path class="cls-113" d="M107.74 179.42v-.61a.9.9 0 01.27-.68 1 1 0 01.68-.28h3.07a.73.73 0 01.74.73v.84a.94.94 0 01-.27.68 1 1 0 01-.68.28h-2.85a1 1 0 01-.96-.96zm1-1.25a.64.64 0 00-.45.19.67.67 0 00-.18.45v.61a.64.64 0 00.64.64h2.85a.61.61 0 00.44-.19.59.59 0 00.18-.45v-.84a.43.43 0 00-.42-.41z"/><path class="cls-113" d="M107.92 179.3h2.4a.17.17 0 00.16-.17.16.16 0 00-.16-.16h-2.4a.16.16 0 00-.16.16.17.17 0 00.16.17z"/></g><g id="guy_03"><path class="cls-73" d="M328.4 230.57s.24 3.47 0 3.54-2.84.46-2.79.07-.48-3.85-.48-3.85zM309.31 230.67s-.24 3.47 0 3.54 2.84.45 2.79.07.48-3.85.48-3.85z"/><path class="cls-114" d="M316.08 215.13c-.25 1.75-1.62 7.32-2.82 12.08-.26 1.59-.49 3-.68 4.11h-3.32l1.49-50.22s.34-.46.9-1.19h8.1c.29 3.89-2.6 22.78-2.85 25.34s-.35 6.64-.82 9.88z"/><path class="cls-115" d="M314.1 211.05c0 .05-.08.06-.12 0V211s0-.08.09-.08a.08.08 0 01.09 0zM316.58 209.88v.12h-.06v-.07a.08.08 0 01.06-.05zM313.82 211.09h-.05-.07V211a.07.07 0 01.11 0 .07.07 0 01.01.09zM315 214.71V214.83h-.08v-.06s.02-.12.08-.06zM310.27 216.38a.11.11 0 010 .05v.06h-.07v-.07h.11zM314.07 209.56v.07H314v-.07zM310.68 213.38v.06a.14.14 0 01-.07.12.09.09 0 01.06.06v.08a.12.12 0 01-.1 0 .13.13 0 01-.07-.06.15.15 0 010-.09.14.14 0 01-.05-.1.56.56 0 010-.07h.07a.13.13 0 01.16 0zM313.32 210.05v.06h-.06v-.07zM312.12 210.59h-.05s-.12 0-.13-.09v-.05a.12.12 0 01.1 0s.08.1.08.14zM313 213.17h.06l.14.05v.13h.05a.07.07 0 010 .09.06.06 0 010 .08h-.05a.12.12 0 01-.06-.06.21.21 0 01-.06.1.08.08 0 01.1 0 .12.12 0 010 .08.07.07 0 01-.1 0v.07l-.05.05h-.09v.06h-.11a.26.26 0 01-.15-.23l-.07-.08a.27.27 0 010-.2h.05v-.05a.37.37 0 01.09-.2.08.08 0 010-.08zM315.44 211.07h.07v.11h-.11v-.07zM311.26 212.81c.06 0 .13.07.12.12a.15.15 0 01-.05.08h-.18v-.06l.11-.14zM314.63 213a.09.09 0 010 .07.11.11 0 01-.08 0v-.08a.1.1 0 01.08 0h.05zM313 215.73l.05.07c.05.07 0 .09-.05.1s-.05 0-.09 0 0 0 0-.06a.09.09 0 01.09-.11zM310.59 214.31a.13.13 0 010-.08.19.19 0 01.09 0 .15.15 0 010 .08.11.11 0 01-.08 0zM310 215.18v.06a.11.11 0 01-.09 0 .13.13 0 01-.06 0v-.06zM316.39 208.06v.05a.07.07 0 01-.07 0s.05-.05.07-.05z"/><path class="cls-115" d="M313.09 214.44a.14.14 0 01-.08-.09.17.17 0 010-.15H313.18a.29.29 0 01.13 0h.1l.05.09v.05a.3.3 0 01-.08.21v.06a.25.25 0 01-.12.3.34.34 0 010 .12h.12a.28.28 0 01.13 0l.12.05v.12h.2l.14.12h-.07a.25.25 0 01-.17 0 .27.27 0 01-.08-.17v.14h-.08v.07h.17a.2.2 0 01.09.09.09.09 0 010 .05v.06a.29.29 0 01.18-.13.16.16 0 01.05-.06h.14a.21.21 0 01.08.15l.12.09v.12a.43.43 0 010 .05h.1a.18.18 0 01.13.15.28.28 0 010 .09H314.84l.06.05a.11.11 0 010-.05.19.19 0 01-.1-.17.33.33 0 01-.07-.19.25.25 0 01-.17 0 .2.2 0 01-.12 0l-.12-.11a.16.16 0 01.08-.14.66.66 0 010-.1v-.06l.09-.05h.11c0-.06 0-.14.12-.23h.16v.08a.23.23 0 01-.06.18.19.19 0 01-.1 0 .29.29 0 010 .09.18.18 0 01.1 0 .24.24 0 01.2 0 .14.14 0 01.08.05v-.05h-.05v-.09a.3.3 0 01.05-.2.17.17 0 01-.06-.12h.05a.18.18 0 01.11 0v.07c-.32 2-1.63 7.27-2.78 11.84-.26 1.59-.49 3-.68 4.11h-3.32l.4-13.4h.09a.12.12 0 01.09 0 .14.14 0 01.11 0 .13.13 0 01.06-.07h.05a.2.2 0 01.08 0H309.51v.11a.17.17 0 01-.12.07.17.17 0 01.17.12v.1h.09v-.09l.06-.07h.05v-.14a.24.24 0 01.11-.18l.11-.06h.2v-.05a.26.26 0 01-.17-.21.19.19 0 01-.09 0h-.1l-.08.09a.1.1 0 01.09 0 .17.17 0 01.13.13v.06a.07.07 0 01-.05 0 .1.1 0 01-.13 0 .12.12 0 01-.05-.12v.07a.15.15 0 01-.21 0h-.08a.16.16 0 01-.11-.14v.13a.16.16 0 01-.16.07.13.13 0 01-.1-.1v-.54a.11.11 0 01.07-.05h.07a.2.2 0 01.17-.05h.06a.2.2 0 01-.05-.09h-.05a.12.12 0 01.07-.22h.14l.05-.07v-.06h.13a.25.25 0 01.2 0 .26.26 0 01.1.19.35.35 0 010 .14h.15l.13.06v.44l.13-.08a.3.3 0 01.19.05h.06v.06a.37.37 0 01.05.11h.05a.2.2 0 010-.11l-.12-.08v-.07h.15-.16a.25.25 0 01.2-.24h.09l.11.07a.33.33 0 01.12-.05.24.24 0 01.17 0v-.05a.27.27 0 01.11-.18H311.61a.24.24 0 01.2-.16.22.22 0 01.1 0h.18a.13.13 0 01.1 0 .32.32 0 01.05-.23.27.27 0 01.06-.12v-.06h.27l-.05-.07h-.05l-.09.05a.23.23 0 01-.26-.1v-.16a.29.29 0 01.14-.15v-.06h-.06l-.06.06h-.11v-.11a.14.14 0 01.07-.1h.9-.05a.07.07 0 01.06-.08h.05a.13.13 0 010 .06h.05z"/><path class="cls-115" d="M309.75 216.94a.13.13 0 01-.06.05v-.64h.05a.23.23 0 01.28.13v.06a.28.28 0 01-.08.22.3.3 0 01-.15.05.12.12 0 01-.05.05zM309.74 215.45v-.07zM316.22 214.06a.19.19 0 01-.13 0 .17.17 0 01-.09-.06.22.22 0 01-.19.21h-.16l.08.05v.2h.22a.27.27 0 01.14-.07c0 .18 0 .35-.07.53h-.19l-.05-.05h-.08a.19.19 0 01-.09.11H315.37a.47.47 0 010 .12v.08a.24.24 0 01-.19.26.21.21 0 01-.15 0l-.05-.06v-.07a.28.28 0 010-.13h-.18l-.13-.06a.23.23 0 01-.17.05h-.18l-.07-.14a.32.32 0 010-.14.33.33 0 010-.17.15.15 0 010-.16v-.08h.12a.2.2 0 01.11.08.12.12 0 01.06-.08h.06a.1.1 0 010 .12.1.1 0 01-.1.05v.06l.07.05a.22.22 0 01.21-.06.09.09 0 010-.07h.05c.05 0 .07.06.07.08a.12.12 0 010 .09v.2a.2.2 0 010 .08h.19v-.05-.06-.08a.26.26 0 010-.15.14.14 0 01.05-.14.12.12 0 01.07-.11.17.17 0 010-.14v-.18a.15.15 0 01.11-.07h.07v-.09a.41.41 0 010-.11l.09-.11h.38a.15.15 0 01.13 0 .17.17 0 01.06.14v.05h.07zM316.57 208a.08.08 0 01.07.06h-.09s-.01-.12.02-.06zM314.88 209.42v.07h-.06v-.05s.04-.04.06-.02zM313.63 214.23h.08v.05zM314.26 211.66a.07.07 0 01.06.06.09.09 0 010 .07h-.06a.08.08 0 010-.11zM316.1 209.55a.07.07 0 01-.06 0 .11.11 0 010-.05.19.19 0 010-.09zM316.17 207.43c.05 0 .11 0 .11.07a.08.08 0 010 .07.1.1 0 01-.07 0v-.06a.11.11 0 010-.06zM311.55 212.51l-.05.05h-.09v-.07a.17.17 0 01.14 0zM313.67 208.64a.07.07 0 01-.1 0 .14.14 0 01.08-.07.12.12 0 01.07 0zM316 211.7a.09.09 0 010-.07h.08v.08a.06.06 0 01-.08-.01zM312.72 214.11V214h.05s.05 0 .05.06zM315.69 207.68a.11.11 0 01.05.09h-.09v-.07a.07.07 0 01.04-.02zM313.44 208.58a.07.07 0 010 .09l-.06-.05s.05-.06.06-.04zM314.4 211.61v.06h-.07c-.01-.11.03-.1.07-.06zM315.81 211.83v.1a.15.15 0 01-.14 0 .08.08 0 010 .08h-.08V212a.09.09 0 01.07 0h-.05s-.06-.06-.06-.12a.16.16 0 01.05-.11h.16a.16.16 0 01.05.06zM316.51 210.78v.3a.14.14 0 01-.07-.11v-.15zM312.84 210.9h.05v.1h-.06v-.06zM310.5 213h.06v.05h-.1V213zM315.61 209.89a.09.09 0 01.08 0v.11a.14.14 0 01-.21-.05v-.05s.11-.02.13-.01z"/><path class="cls-115" d="M314.94 214.22h.06a.15.15 0 01.11.19.18.18 0 01-.07.1.09.09 0 010-.1V214.26zM312.38 212.67a.12.12 0 010-.1h.05a.08.08 0 010 .05.07.07 0 01-.05.05zM315 211.36v.07c-.07.14-.17.13-.21.12h-.05v-.06a.21.21 0 01.07-.14.22.22 0 01.14 0l.07.05zM316.21 211.29h-.2V211.14a.1.1 0 010-.06H316.16l.05.05v.14a.08.08 0 010 .02zM314.59 210.17a.07.07 0 01.07.06.08.08 0 010 .09.08.08 0 010-.12zM316.68 208.19v.11-.06h.06zM313.59 207.52v-.05h.06v.06h-.05zM313.8 214.72h.06a.16.16 0 01.1.2.16.16 0 01-.08.1.17.17 0 01-.12 0v-.17l.06-.06zM314.68 214.23v.14l-.05.06h-.48l-.09-.12h-.15l-.12-.05h-.05l-.05-.15v-.05l-.06-.1v-.11a.22.22 0 01.19-.18.24.24 0 01.26.14h.15a.09.09 0 01.08.09h.06a.16.16 0 01.06.2v.08l.09.12v.07h.11a.08.08 0 01.05-.14zM316.18 210.58h-.1v-.07h.05c.05-.03.06.01.05.07zM316.37 212.14l-.06.71a.15.15 0 01-.09-.21.11.11 0 010 .07h-.07v-.18l-.11.06a.18.18 0 01-.11-.21.09.09 0 01-.08-.09.08.08 0 010-.08h.05c.06 0 .06.07.06.09a.15.15 0 01.11 0v.12h.05a.14.14 0 01.1 0v-.07h.09zM314.35 212.87l.06.08v.13h-.07l-.07.06h-.15l.07-.05-.07.05v-.19a.27.27 0 01.08-.07c-.13.03-.05-.07.15-.01zM313.93 211.74l.07.07V211.93c-.07.14-.17.13-.21.11v-.11a.17.17 0 01.08-.13.17.17 0 01.06-.06zM310.79 210.69a.1.1 0 01.13 0 .09.09 0 010 .07.09.09 0 01-.07 0h-.06a.1.1 0 010-.07zM312.66 214.22v-.08h.13a.16.16 0 010 .23h-.17.07zM315.34 211.78v.07s0 .05-.05.05h-.2v-.2h.24zM316.45 211.66a1.5 1.5 0 010 .2v-.09a.2.2 0 010-.11zM313.82 210.71a.08.08 0 01-.05.08s-.07 0 0-.12a.07.07 0 01.05.04zM315.94 208.85h.06v-.06zM311.84 215a.07.07 0 010-.06l.07-.07h.05a.08.08 0 010 .09s-.1.04-.12.04zM313 207.82v.06h-.06v-.06zM315.62 213.14a.11.11 0 01.09-.13v.24a.11.11 0 01-.09-.11zM312 208.18a.08.08 0 01.07 0 .06.06 0 010 .06s-.1 0-.1-.07zM310.59 211.15a.08.08 0 01-.12 0 .06.06 0 010-.06h.05zM311 213a.16.16 0 01-.14.17h-.08a.21.21 0 01-.08-.16.25.25 0 01.1-.17h.06a.19.19 0 01.14.16zM309.88 214.66a.13.13 0 010 .11l-.07.1a.13.13 0 01-.13-.05v-.24a.11.11 0 01.07 0zM310 213.12h.17v.1a.25.25 0 01-.22.17h-.07v-.06a.13.13 0 010-.12.17.17 0 01.12-.09zM311.83 212.31h.09a.19.19 0 01.15.12.16.16 0 010 .16h-.06a.14.14 0 01-.17-.07.18.18 0 010-.21zM312.77 210.36h-.11c-.02 0 0 0 0-.06h.05zM312.33 212.28h-.13v-.08H312.37a.07.07 0 010 .05h.09a.22.22 0 01-.13.03zM312.31 213.2h-.06a.2.2 0 010-.11v-.05h.06a.16.16 0 010 .32zM315.19 210.32h-.05a.14.14 0 010-.06.09.09 0 01.07 0 .09.09 0 010 .07zM315.38 212.29v.18a.12.12 0 01-.06.09v.09l-.06.06h-.13a.09.09 0 010-.08V212.51a.16.16 0 01.18-.1l.12-.13zM315.6 212.62a.15.15 0 01.11-.08.15.15 0 01.14 0 .18.18 0 010 .15v.05h-.18v-.05a.18.18 0 01-.07-.07zM314.54 211.85a.16.16 0 01-.06.21H314.36c-.13 0-.2-.1-.19-.22H314.34zM312.42 214.91l.11-.07H312.76l.06.09h.14a.13.13 0 010 .08v.13a.12.12 0 01-.07 0h-.08l-.06.06h-.13a.24.24 0 01.19.16v.06a.19.19 0 01-.07.18h-.05a.16.16 0 010 .06.07.07 0 01-.07 0 .17.17 0 010-.1.29.29 0 01-.19-.15l-.05-.05v-.18a.33.33 0 01.06-.08.17.17 0 01.07-.15l.07-.06a.64.64 0 010-.07zM310.85 212.16v.05a.05.05 0 01-.07 0 .12.12 0 01.05-.09zM313.1 212.53v-.05h.13a.17.17 0 01.12 0h.07a.18.18 0 01.13.06v.15a.18.18 0 01-.18 0 .12.12 0 01-.05.05h-.07a.14.14 0 01-.14 0 .18.18 0 01-.07-.12v-.1zM312.13 213.46a.24.24 0 01.15.11v.16h-.08a.22.22 0 01-.18-.06.21.21 0 010-.07H311.8a.21.21 0 010-.16.13.13 0 01-.07 0 .09.09 0 010-.09h.07l.07-.06a.27.27 0 01.26 0 .23.23 0 01.1.19.37.37 0 01-.1-.02zM311.19 214.25l-.05-.05v-.05H311.31v-.08h.06l.05.06a.17.17 0 01-.08.23h-.1zM315 212.85v.07h.06a.17.17 0 010 .08v.14h-.2v.14h-.16l-.06-.05a.12.12 0 010-.07v-.14h.16a.18.18 0 01-.08-.2.13.13 0 01.07-.08.13.13 0 01.12 0v.06zM314 211.48a.08.08 0 010 .1.1.1 0 01-.09 0v-.12zM314.72 208.75v-.05h.09v.05h-.09zM315.07 209.56v.05a.07.07 0 01-.07-.07.11.11 0 010-.06s.05.06.05.08zM311.36 210.06a.1.1 0 01.09.11.06.06 0 010 .05h-.05a.08.08 0 01-.09 0v-.05a.05.05 0 01.05-.11zM309.91 212.41a.18.18 0 01-.05.12v-.3a.2.2 0 01.05.18zM313.72 212.35a.17.17 0 01-.06-.16h.17l.11.1h-.05a.14.14 0 01-.17.06z"/><path class="cls-115" d="M312.11 215.89a.24.24 0 010 .1l-.05.13a.11.11 0 010 .07h-.07l-.15-.06a.19.19 0 01-.15-.14v.34l-.13.08a.08.08 0 010 .1l-.06.05h-.06v-.09h-.16a.1.1 0 01-.07 0H310.97a.22.22 0 01-.1-.15.26.26 0 01-.1-.07V216.04a.32.32 0 01.27-.21h.05l.08-.05a.24.24 0 010-.08v-.06a.21.21 0 01.05-.18.13.13 0 10-.13.23l-.11.09h-.11a.15.15 0 010 .13v.05a.06.06 0 010-.09h-.92v-.07a.19.19 0 01-.11-.18v-.05h.16a.27.27 0 01.06-.17h-.11a.17.17 0 01-.09-.22.13.13 0 01.07-.08.16.16 0 01.12 0v.21a.06.06 0 010-.08h.07v-.06a.25.25 0 01.06-.21l-.06-.13a.25.25 0 01.09-.2.36.36 0 010-.1.26.26 0 01-.24 0l-.08-.05-.07-.16a.29.29 0 01.25-.3h.07a.11.11 0 010-.08h.06v.05h.08a.23.23 0 01.05 0V214.14s0 .05-.05.05h.09a.31.31 0 01.28.07l.05.06v.11a.28.28 0 01-.1.21.37.37 0 01-.05.15.28.28 0 000-.08l-.07.14.06.09v.05a.33.33 0 010 .17.22.22 0 01.13 0 .24.24 0 01.26.2.26.26 0 01.07.15v.49a.13.13 0 010 .06l.09-.05h.19v-.23h.06v-.09a.23.23 0 01-.07-.07.16.16 0 01-.09-.2v-.05a.1.1 0 010-.13h.1a.13.13 0 01.07.06.24.24 0 01.23 0s.05 0 .06.06h.19a.16.16 0 010 .22.21.21 0 01-.13 0 .25.25 0 01-.06.14l-.06.05a.15.15 0 01.17-.05.15.15 0 01.09.1.13.13 0 010 .12v.06a.21.21 0 01.27-.11zM315.4 213.22l-.06.05h-.14l-.05-.07v-.07a.16.16 0 01.15-.18.15.15 0 01.17.12.15.15 0 010 .07.24.24 0 01-.07.08zM309.85 213.6h-.06v-.15l.11.06zM315.86 211.58a.09.09 0 010 .14h-.07a.08.08 0 01.07-.14zM311.69 212.5a.22.22 0 01.14.18.16.16 0 01-.08.14h-.05a.15.15 0 01-.16-.12v-.08a.15.15 0 01.15-.12zM311.87 211.2h.07a.09.09 0 01.07 0l.05.06v.07a.11.11 0 010 .07l-.06.05h-.07a.14.14 0 01-.07 0l-.05-.06v-.06-.08zM314.57 212.75a.17.17 0 01-.11 0l-.09-.08a.15.15 0 01.15-.16.18.18 0 01.13 0 .19.19 0 01.05.1l-.06.06zM316.06 213a.12.12 0 010 .09v.13h-.1a.23.23 0 01-.14-.24v-.06h.06a.15.15 0 01.13 0zM314.1 210.21a.07.07 0 01-.09.08.12.12 0 010-.07h.07zM313.55 210.93h-.08a.08.08 0 010-.08h.05c.04.02.04.05.03.08zM311.27 213.1c.05 0 .07 0 .05.1h-.05v-.07zM311.19 211.46v.06h-.06v-.06zM311.74 210.46V210.58a.11.11 0 01-.08 0s-.05 0-.06-.05a.1.1 0 010-.07.08.08 0 01.14 0zM310.82 213.22l.11.09a.28.28 0 01-.14 0 .2.2 0 01-.07-.16h.17l-.07.07zM312.52 214.23v.07h-.06v.06a.26.26 0 01-.19-.05h-.24a.56.56 0 01-.08 0l-.05-.06a.1.1 0 010 .09h-.11a.14.14 0 01-.09-.11v-.09a.17.17 0 01.11-.11H311.93l.09.05h.18a.26.26 0 01.1-.07.18.18 0 01.14-.2.15.15 0 01.17.12.13.13 0 010 .06.2.2 0 010 .07.18.18 0 01-.09.17zM312.81 212.49v.09c0 .01 0 0-.08 0a.06.06 0 01.06 0l.02-.09z"/><path class="cls-115" d="M311.08 214.55v.06a.24.24 0 01.28 0l.05.06v.07a.31.31 0 01-.07.21.32.32 0 01-.13.08l-.11.07h-.25l-.05-.07a.27.27 0 010-.29h.13v-.07h.07s.08-.13.08-.12zM316.16 210.43a.11.11 0 010 .06h-.05s.04-.06.05-.06zM310.42 213.55a.17.17 0 01-.09.18h-.06a.31.31 0 010 .07l-.06.06h-.07a.17.17 0 01-.14.14.15.15 0 01.1-.18v-.11h.07a.2.2 0 01.19-.09zM311.45 213.49a.25.25 0 01.13 0 .14.14 0 01.05.1v.06a.11.11 0 01-.1 0h-.06a.17.17 0 01-.02-.16zM313.6 210.72v.05h-.05zM310.81 211.29a.1.1 0 010-.07h.06a.08.08 0 010 .06.09.09 0 01-.07 0zM312.18 211.3h.07a.11.11 0 01-.08.11.09.09 0 010-.07s-.01-.02.01-.04zM310.26 212h.05-.08zM311 213.69h-.05a.08.08 0 010-.07.1.1 0 01.08 0l.06.06zM312.26 214.93a.07.07 0 010-.09h.05v.05h-.05zM311.55 216.28v.05h-.06.05zM311.32 214.53v-.05h.05a.06.06 0 01-.05.05zM311.3 216.6zM310.64 218.14v-.06.06z"/><path class="cls-114" d="M328.56 231c.18-5.34.45-14.66.22-17a32.28 32.28 0 00-1.58-7c-.12-2.42 1.28-24.51.39-26.5a2.39 2.39 0 00-1-1.06h-.09l-7.88 1.11a23.48 23.48 0 01-2.5 1.07l8.84 49.94z"/><path class="cls-115" d="M327.3 202.81a.07.07 0 00-.06 0 .09.09 0 00-.06.12h.07zM327.52 208.51a.15.15 0 000 .11.1.1 0 00.08 0 .08.08 0 00.05 0v-.06h-.05zM324.3 207.72h.11v-.08a.08.08 0 00-.09 0s-.06.05-.08.1zM326.64 206.32v.06s.07.06.12 0a.14.14 0 00-.08-.11.08.08 0 00-.04.05zM324.1 207.75a.08.08 0 000-.1.09.09 0 00-.12 0v.06a.1.1 0 00.12.04zM325.74 211.2v.06h.08v-.08c-.01-.03-.06-.03-.08.02zM324.17 206.2h-.06v.07h.06v-.06zM321.23 210.51a.07.07 0 000 .08.16.16 0 00.08.06.13.13 0 00.09 0 .13.13 0 000-.09.08.08 0 00-.07 0 .13.13 0 00.05-.13v-.06a.17.17 0 00-.12-.08h-.07v.23zM323.53 206.88v-.06h-.07v.07zM322.21 207.33c0 .09.1.08.13.08v-.06a.11.11 0 00-.05-.08h-.12zM324 210.31a.19.19 0 00.05-.1.19.19 0 00.07.06h.05a.07.07 0 000-.08s0-.08-.05-.09h-.05l-.07-.1v-.06h-.32a.08.08 0 000 .08.3.3 0 00-.06.2v.05a.19.19 0 000 .19l.08.08c0 .05.06.18.19.21l.09-.05v-.06h.09v-.1a.09.09 0 00.11 0 .09.09 0 00-.06-.07h-.09v-.06zM325.76 207.56v.07h.11v-.07zM321.8 209.8a.13.13 0 00.12 0h.07a.12.12 0 000-.08.13.13 0 00-.14-.11h-.06c-.06 0 0 0 0 .07zM325.15 209.67h.08a.15.15 0 000-.08h-.05a.09.09 0 00-.08 0 .08.08 0 000 .07zM324 212.52a.09.09 0 00.09 0 .11.11 0 000-.12.06.06 0 00-.06 0h-.07a.07.07 0 00.04.12zM321.54 211.21a.08.08 0 000-.07h-.05a.08.08 0 00-.07 0 .1.1 0 000 .08h.06s.05.02.06-.01zM326.27 204.5h-.06.05a.07.07 0 00.07-.05zM327.9 209.67h.05v-.06c0-.08 0-.15-.05-.23V209.53h-.06v.05h.06a.09.09 0 000 .09zM327 201z"/><path class="cls-115" d="M328.42 211.6h-.06a.24.24 0 00-.09.07h-.05v-.21h-.13v-.05H327.92a.18.18 0 00-.05.15.22.22 0 00.05.08.24.24 0 00-.07.12h-.27a.22.22 0 00-.06.15v.16l.11.11h.15v.06a.22.22 0 000 .19l.05.05h.27v-.07h-.1a.17.17 0 000 .1.08.08 0 11-.09.07l-.05.06v.08a.29.29 0 00.2.23l.13-.05-.06.1.06.15h.05l-.11-.05H328a.25.25 0 00-.07-.31h-.06V212.62a.12.12 0 00-.08.16.34.34 0 00-.13.1.25.25 0 00-.1-.15.17.17 0 000-.12.14.14 0 000-.06v-.07l-.05-.05V212.28l-.06-.07h-.06a.11.11 0 000-.11l-.07-.21-.13-.06v-.07h-.05a.18.18 0 00-.11 0h-.05v.09a.15.15 0 00.08.11.27.27 0 000 .21v.08h.06v.05h-.09a.26.26 0 00-.2.05.19.19 0 00-.09 0 .2.2 0 000-.08.19.19 0 00.1-.06.2.2 0 000-.18l-.06-.08h-.16c-.1.09-.11.17-.09.23a.21.21 0 00-.11 0l-.08.07v.05a.17.17 0 000 .1.18.18 0 00-.05.16l.13.09a.17.17 0 00.13 0 .24.24 0 00.16-.05.37.37 0 00.11.18.2.2 0 00.12.16v.05h-.27a.28.28 0 000-.09.19.19 0 00-.15-.14h-.05v-.12l-.13-.07a.26.26 0 00-.1-.15h-.14a.14.14 0 000 .07.26.26 0 00-.15.14l-.06-.05v-.05a.26.26 0 00-.11-.07h-.12v-.07h.08v-.1a.26.26 0 00.1.16.21.21 0 00.18 0h.06l-.15-.1h-.21l-.07-.11h-.13a.21.21 0 00-.13.05h-.12a.27.27 0 00-.06-.12h-.1a.22.22 0 00.08-.3v-.06h-.05a.23.23 0 000-.21v-.05l-.07-.09h-.35l-.05.05a.18.18 0 000 .15.18.18 0 00.09.08l.06.09a.06.06 0 000-.05.09.09 0 00-.05.08.06.06 0 00.06.05h-.16a.16.16 0 000 .11v.06h.16a.19.19 0 00.06-.07.18.18 0 00.07.05h.05a.3.3 0 00-.12.17v.15a.29.29 0 00.28.08l.09-.06v.05h.11l.06.06H325.26l-.1.06a.08.08 0 000 .06.33.33 0 000 .13.31.31 0 000 .23h-.26a.15.15 0 00-.11 0 .21.21 0 00-.17.17V213a.21.21 0 00-.11 0 .23.23 0 00-.08.18v.06a.23.23 0 00-.17 0 .17.17 0 00-.11.06l-.13-.06h-.08a.22.22 0 00-.17.26h.16-.14v.07l.13.07a.2.2 0 000 .11h-.06a.24.24 0 00-.06-.11v-.06h-.06a.28.28 0 00-.2 0l-.12.09v.19h-.14a.26.26 0 00-.12 0 .23.23 0 000-.14.27.27 0 00-.13-.18.3.3 0 00-.16 0l.2 1.1a.09.09 0 00.13 0l.05-.05v-.06a.19.19 0 00-.14-.12h-.09l.07-.09h.26a.3.3 0 00.2.19v.05l-.08.06h-.11l-.1.07a.2.2 0 00-.08.18l.07.14-.06.07v.13l2.87 16.24 3.65-.51c.18-5.34.45-14.66.22-17-1.24-.68-1.36-1.51-1.51-2.34z"/><path class="cls-115" d="M328.16 210.68v.06l.08.06c-.06-.3-.13-.59-.19-.88a.33.33 0 00-.12.05.27.27 0 00-.08.19l-.07-.05a.16.16 0 00-.09 0h-.05a.13.13 0 000 .06l-.13-.1a.4.4 0 00-.16-.07h-.07l-.11.05v.1-.07a.28.28 0 00-.14-.09v.01a.17.17 0 00-.08-.13.14.14 0 00-.14 0h-.34l-.07.12a.34.34 0 000 .1v.07h-.05a.1.1 0 00-.1.07V210.46a.18.18 0 000 .14.14.14 0 00-.06.12.15.15 0 000 .15.22.22 0 000 .14.08.08 0 000 .08.13.13 0 000 .06V211.27H326.02l-.05-.07v-.05a.08.08 0 000-.08s0-.06-.08-.07a.08.08 0 000 .07.23.23 0 00-.19.08h-.09v-.06a.1.1 0 00.09-.07s0-.08-.05-.11h-.06a.12.12 0 000 .08.5.5 0 00-.13-.07h-.06v.08a.17.17 0 000 .15.25.25 0 000 .17.32.32 0 000 .14l.09.13h.19a.22.22 0 00.16-.07l.14.05.06-.05.11-.06a.61.61 0 000 .12v.07l.07.05a.17.17 0 00.14 0 .21.21 0 00.15-.27.15.15 0 000-.11h.26a.16.16 0 00.06-.12h.08l.06.05h.31a.2.2 0 00.09.12h.16a.24.24 0 00.17-.06v-.14a.17.17 0 00-.17-.09h-.07l-.05-.13h-.07a.73.73 0 00-.12-.05.23.23 0 00-.23.08h-.13a.31.31 0 00-.1 0l-.05-.05v-.15h-.08.15a.23.23 0 00.17-.23.21.21 0 00.12 0 .17.17 0 00.18-.1.33.33 0 000 .17.28.28 0 00.13.2h.16a.29.29 0 00.1 0 .2.2 0 000 .15h.1a.17.17 0 000 .07h.14a.11.11 0 00.07 0v-.06a.08.08 0 000-.06v-.05a.06.06 0 000-.05h-.2a.21.21 0 00.08-.14v-.13h-.08a.41.41 0 00.05-.09.26.26 0 00.06-.23h.05v.08l.06.09a.13.13 0 00.08.05H328a.19.19 0 00.13 0zM326.75 203.1zM326.74 205.39v.06h.05a.13.13 0 000-.06zM325.91 201.32a.07.07 0 00-.05.09h.14v-.06a.05.05 0 00-.09-.03zM326.37 204.43h.09a.09.09 0 00-.08-.06s-.01.02-.01.06zM324.88 206v.05a.11.11 0 00.07 0v-.07a.06.06 0 00-.07.02zM324.51 210.82h-.05v.05h.05v-.05zM328.18 211.18a.13.13 0 00-.05-.15v.16a.11.11 0 00.05-.01zM324.64 208.26v.11h.07a.07.07 0 000-.07l-.06-.06zM326.19 206h-.05a.13.13 0 000 .09h.06zM325.94 203.9v.12h.1a.06.06 0 000-.07.1.1 0 00-.1-.05zM321.93 209.37a.11.11 0 00.08 0h.05v-.05a.15.15 0 00-.14 0zM327.26 207.58l-.05.06h-.08v.05h.16a.15.15 0 000-.09v-.13h-.12zM323.53 205.37h.09v-.07h-.07c-.01 0 0 0-.07.07zM326.33 208.07a.06.06 0 000 .06h.06a.08.08 0 000-.08h-.05s-.01 0-.01.02zM323.56 210.81v-.06a.08.08 0 00-.06-.05v.05zM326.07 201s-.09 0-.08.07h.08a.07.07 0 000-.07zM325.43 204.23v.05s.06.05.09 0a.14.14 0 00-.07-.09s0 .01-.02.04zM323.3 205.3h.07a.08.08 0 000-.08.07.07 0 00-.07.08zM324.7 208.2v.05h.07v-.06c-.01-.04-.05-.03-.07.01zM325.93 208.23a.11.11 0 000 .11.17.17 0 00.08.11.07.07 0 00-.06 0v.06a.09.09 0 00.08 0 .07.07 0 000-.08.16.16 0 00.14 0V208.28a.16.16 0 00-.15-.07H326zM326.69 207.35a.15.15 0 00.08.11h.16v-.07a.2.2 0 00-.1-.13.17.17 0 00-.15 0v.06zM323.18 207.74h-.09v.06zM321.1 210h.09v-.05h-.09v.05zM325.79 206.39a.09.09 0 00-.11 0v.05a.15.15 0 00.22 0v-.05a.08.08 0 00-.11 0z"/><path class="cls-115" d="M326 210.83a.16.16 0 00-.14-.17l-.05.05v.13h.05a.08.08 0 000 .1.14.14 0 00.14-.11zM327.14 206.26c0-.06 0-.09-.07-.08v.06h.05zM323 209.29h-.05a.13.13 0 000 .09h.05a.08.08 0 000-.06zM325.08 207.83a.17.17 0 00-.05.15v.05h.06s.15 0 .19-.14v-.07l-.09-.05a.18.18 0 00-.11.06zM327.35 209.62v.18l.07.12a.37.37 0 00.27.09l.12-.09v-.09l.06-.05c0-.07 0-.11-.09-.11a.28.28 0 00-.12-.1.25.25 0 00.07-.31l-.06-.08h-.33l-.06.12a.36.36 0 00.09.26h.06zM326.31 207.57v.14a.14.14 0 00.07 0h.14a.15.15 0 000-.06v-.14H326.31a.15.15 0 000 .06zM324.78 206.75c0 .09 0 .12.06.12a.1.1 0 000-.09.07.07 0 00-.06-.03zM326.6 204.69v-.06h-.05zM323.45 204.15h-.05v.06zM324.64 211.53v.06a.17.17 0 00.12 0 .15.15 0 00.06-.11.16.16 0 00-.12-.18h-.06l-.05.06v.1zM324.81 210.78l.11.12h.52a.16.16 0 000-.06v-.14l-.06-.05h-.08v-.06l-.11-.12v-.08a.17.17 0 00-.09-.2H324.95a.09.09 0 00-.1-.08.11.11 0 000 .05h-.09a.25.25 0 00-.28-.12.22.22 0 00-.16.2l.05.11a.2.2 0 00.08.08v.06l.08.13h.13a.42.42 0 00.15 0zM326.32 207v.07h.1c0-.06 0-.1-.07-.1zM326.31 208.63s0-.08-.08-.08a.11.11 0 000 .08.1.1 0 00.1.07.2.2 0 00.15.19l.1-.07v-.06h.06v.24h.06a.07.07 0 000-.07.17.17 0 00.13.19.26.26 0 00.11.07.14.14 0 00.13 0 .19.19 0 000-.08c.07 0 .11 0 .12-.11v-.14h-.09a.09.09 0 000-.07.1.1 0 00-.05-.07.17.17 0 000-.16H326.9a.25.25 0 00-.08 0v.07a.16.16 0 00-.09 0h-.05v-.06l-.05-.05s-.28.09-.32.11zM324.8 209.86h.06l.06-.06v-.05h.06v-.16l-.07-.06c-.21 0-.27.06-.29.11a.15.15 0 00-.06.09v.12l.05.05.07-.05-.06.06zM324.17 208.6h.06a.17.17 0 00.2-.13v-.07l-.08-.06a.17.17 0 00-.14 0 .17.17 0 00-.06.14zM321.2 207.66a.1.1 0 00-.14 0v.07a.15.15 0 00.06 0 .11.11 0 00.08 0s.01-.06 0-.07zM323.66 211.09a.18.18 0 00-.08-.23h-.14V211.03h-.06.18zM325.43 208.16v.2a.16.16 0 00.06.05H325.64a.15.15 0 000-.06v-.14h-.24zM327.1 208.06v-.05h-.05a.16.16 0 00-.12 0 .15.15 0 00-.05.12v.09a.19.19 0 00.12.1h.06a.14.14 0 000-.15zM324 207.3v.12a.08.08 0 000-.09s.06-.02 0-.03zM326 205.3h-.05v.05h.06v-.05zM322.82 211.74v-.09h-.05c-.05 0-.06.06-.05.08s0 0 .05 0 .04.03.05.01zM322.9 204.68v-.06h-.05v.05zM326.37 209.53v-.09a.1.1 0 00-.07.14.11.11 0 00.14.08v-.09zM321.85 205a.08.08 0 00.11.06.09.09 0 000-.06.08.08 0 00-.11 0zM320.83 208.08a.06.06 0 000 .06.08.08 0 00.12 0h-.06zM321.31 209.89a.18.18 0 00.1.15h.08a.16.16 0 00.12-.18.22.22 0 00-.17-.19h-.07a.2.2 0 00-.06.22zM322.61 209.36a.15.15 0 000-.16.2.2 0 00-.17-.1.18.18 0 000 .21.19.19 0 00.18.06h.06zM322.89 207.09v.06c0 .06.1 0 .11 0h-.05zM322.84 208.88H322.67v.07h.13a.18.18 0 00.13-.15h-.13zM323 210a.16.16 0 00.1-.2.16.16 0 00-.2-.12h-.05v.05a.11.11 0 000 .11h.1zM325.51 206.78v-.07h-.05a.1.1 0 00-.06.05v.06h.08zM327.3 208.64v-.18a.16.16 0 00-.13-.06v-.06a.08.08 0 00-.06 0 .08.08 0 000 .09.14.14 0 000 .17.16.16 0 00.19.04zM325.6 209.1v.07a.06.06 0 000 .07h.12l.05-.07v-.09a.11.11 0 00.23-.08l-.06-.17-.11.13h-.07a.14.14 0 00-.16.11zM326.44 209.25v-.05a.19.19 0 00-.08-.15.14.14 0 00-.14 0 .13.13 0 00-.1.09.22.22 0 000 .16H326.29zM327.14 205.38v-.06zM325 208.42H324.77a.22.22 0 00.22.2h.08s.08-.1 0-.21h-.05zM324 211.73a.17.17 0 000-.07h-.18l-.07-.08h-.24l-.1.08v.19l-.06.07a.16.16 0 000 .15.25.25 0 00-.05.08l.05.18v.05a.34.34 0 00.21.13.16.16 0 000 .1.09.09 0 00.06 0h.06a.06.06 0 000-.06v-.05h.05a.21.21 0 000-.18.26.26 0 00-.22-.13h.13l.06-.07h.09a.09.09 0 00.07 0v-.06zM321.26 209.16a.05.05 0 00.07 0h-.06a.14.14 0 00-.01 0zM324.18 209.37v-.11l-.05-.09a.16.16 0 00-.13 0h-.07a.2.2 0 00-.13 0h-.11l-.05.06v.22a.16.16 0 00.08.12.19.19 0 00.15 0h.13l.05-.06a.18.18 0 00.13-.14zM322.37 210.43H322.59a.14.14 0 000 .07.3.3 0 00.19.05l.08-.05v-.16a.37.37 0 00-.16-.1.47.47 0 000-.12.26.26 0 00-.14-.17.25.25 0 00-.25 0l-.07.07v.06a.07.07 0 00-.06 0 .09.09 0 000 .08.1.1 0 00.08.05.18.18 0 00.11.22zM321.92 211v.05l.05.05h.16a.16.16 0 000-.23l-.05-.06h-.07v.09h-.16zM325.69 209.47h-.06v-.13a.12.12 0 00-.12 0 .11.11 0 00-.05.09.17.17 0 00.1.19h-.2V209.83H325.51a.09.09 0 00.07 0v-.14h.14a.12.12 0 00.07 0v-.14a.13.13 0 00-.1-.08zM324.34 208.23a.1.1 0 00.08-.06v-.09h-.05a.09.09 0 00-.03.15zM327.21 207.48v-.06h-.09v.06h.09zM324.72 205.24v.06h.06v-.05zM325.1 206a.08.08 0 000 .07.09.09 0 00.08.06.06.06 0 00-.08-.13zM321.6 206.92h-.05a.11.11 0 000 .06h.1a.06.06 0 000-.06.1.1 0 00-.05 0zM324.15 208.83a.22.22 0 00.09.16.16.16 0 00.14 0h.05l-.12-.09z"/><path class="cls-115" d="M322.88 212.08h.06a.16.16 0 00.11-.05.15.15 0 000-.22h-.19l-.08-.05a.22.22 0 00-.22 0 .18.18 0 00-.07 0h-.1a.12.12 0 000 .13.15.15 0 00.12.19.16.16 0 00.08.06v.09h-.06v.09h.05V212.44h-.14l-.09.05a.14.14 0 000-.06l.08-.08v-.12a.24.24 0 00-.09-.14.26.26 0 00-.29-.18.31.31 0 00-.12.05.25.25 0 000-.17l-.08-.09.05-.14a.14.14 0 010 .07.26.26 0 000-.15.29.29 0 00.07-.21v-.08l-.06-.06a.32.32 0 00-.26-.05l.19 1.1a.21.21 0 00.12-.08.22.22 0 000 .18.2.2 0 000 .08h-.08l.11.65H322.14 322v-.06h.16v.08h.12a.1.1 0 000-.11v-.05l.12-.1v.23a.21.21 0 00.17.13.1.1 0 000 .05h.16a.09.09 0 00.06 0 .07.07 0 00.06 0 .07.07 0 000-.07h.05v-.14a.44.44 0 00-.06-.1.22.22 0 000-.21v-.05a.13.13 0 000-.12.21.21 0 00-.11-.08.15.15 0 00-.17 0V212.42a.23.23 0 00.32-.34zM326 209.49a.16.16 0 00-.19-.11.17.17 0 00-.12.2v.07l.07.05h.14l.05-.05a.29.29 0 000-.08.06.06 0 000-.06zM326.18 208.12a.07.07 0 00.07 0 .08.08 0 000-.09v-.05h-.06a.09.09 0 00-.01.14zM322.08 209.43v.09a.16.16 0 00.18.1h.05a.17.17 0 000-.15.2.2 0 00-.16-.16.15.15 0 00-.07.12zM322.23 208l-.06.06a.2.2 0 000 .07v.07l.06.05h.14l.05-.05a.22.22 0 000-.08v-.06l-.06-.06h-.08zM325.1 209.35l.05-.06a.13.13 0 00-.07-.09.14.14 0 00-.13 0 .13.13 0 00-.13.16l.11.08a.2.2 0 00.17-.09zM326.58 209.66h.1v-.13a.12.12 0 00-.05-.08.16.16 0 00-.13 0h-.06v.07c-.02-.03.01.11.14.14zM327 206.29zM324.18 206.91a.09.09 0 00.07 0v-.06h-.11a.08.08 0 00.04.06zM323.75 207.62a.06.06 0 00.07 0 .09.09 0 00-.06-.08h-.05a.11.11 0 00.04.08zM321.93 210.09h.05a.07.07 0 00-.07-.09v.06zM321.56 208.47h.05-.05v.06zM322 207.25a.09.09 0 00-.09 0v.07a.07.07 0 00.06 0 .11.11 0 00.08 0s.02-.07-.05-.07zM321.39 210.27a.23.23 0 00.15 0l-.12-.08h-.18a.23.23 0 00.15.08zM323.23 211.29a.1.1 0 00.05 0V211l-.07-.09a.56.56 0 000-.07v-.08a.16.16 0 00-.19-.1.17.17 0 00-.11.21.36.36 0 00-.09.08H322.7l-.05.05-.09-.05h-.08a.15.15 0 00-.09.12v.09a.23.23 0 00.12.1h.06a.38.38 0 000-.1v.05h.18l.05-.06h.1a.24.24 0 00.33.14zM323.24 209.27a.09.09 0 00.08 0 .1.1 0 000-.09.06.06 0 00-.05-.05h-.06a.06.06 0 00.03.14z"/><path class="cls-115" d="M321.94 211.41h-.07v.07h-.07a.25.25 0 000 .29l.06.08h.25l.1-.08v-.05a.32.32 0 00.12-.1.25.25 0 000-.21v-.07l-.06-.05a.27.27 0 00-.29 0zM326.41 206.82h.05v-.08h-.05zM321.2 210.55v.1a.09.09 0 000-.07zM322.07 210.54h.06a.15.15 0 00.11 0v-.06a.13.13 0 00-.07-.09.19.19 0 00-.13 0 .15.15 0 00-.11.11v.05zM323.87 207.39zM321.18 208.14a.15.15 0 000 .07.09.09 0 00.07 0 .15.15 0 000-.07h-.05zM322.55 208.1s-.05 0 0 .08a.09.09 0 000 .06.13.13 0 00.06-.13h-.07zM321.7 210.61h.05s-.05-.05-.08-.05a.08.08 0 00-.07 0v.06zM323.16 211.59a.06.06 0 000 .09h.05a.09.09 0 000-.05zM322.65 213.06a.06.06 0 00.07.05z"/><path class="cls-115" d="M322.18 211.37v-.08h-.06zM322.39 213.37a.07.07 0 000-.07zM322 215.07h.05v-.05s-.05.04-.05.05z"/><path class="cls-116" d="M312.29 233.61a6.5 6.5 0 00-2.89-.12c-1.54.27-3.59.63-3.74.89a1.27 1.27 0 00-.08.66s6.46-.08 6.73-.22-.02-1.21-.02-1.21zM325.41 233.61a6.5 6.5 0 012.89-.12c1.55.27 1.78.63 1.92.89a1.16 1.16 0 01.08.66s-4.64-.08-4.91-.22.02-1.21.02-1.21z"/><path class="cls-117" d="M307.27 167.93l-.22-.06-.14-.05-.24-.08-.4-.17c-.26-.11-.47-.23-.71-.35a13.33 13.33 0 01-1.22-.77l-.28-.2-.27-.22-.52-.43c-.32-.3-.64-.61-.94-.92a17.9 17.9 0 01-2.85-4.06l-.27-.53-.14-.26-.12-.27-.47-1.09c-.16-.35-.28-.72-.41-1.09l-.38-1.09c-.2-.74-.41-1.47-.6-2.21l-.46-2.21a2.61 2.61 0 012-3 2.45 2.45 0 012.94 1.59l.05.16.58 1.88.69 1.82.4.86c.14.29.26.58.42.85l.45.81.11.21.13.19.25.38a12.47 12.47 0 002.26 2.64l.63.5.32.21.16.11.16.09a5.12 5.12 0 00.62.31 1.71 1.71 0 00.27.09h.1-.09a3.11 3.11 0 012.32 3.92 3.53 3.53 0 01-4.13 2.44z"/><path class="cls-117" d="M313.34 151a102.35 102.35 0 00-6.46 9.9c-2.08 3.93 4 5.68 4 5.68a29.93 29.93 0 003.6-7.05 34.32 34.32 0 00.53-8.18z"/><path d="M306.91 160.26c-.12-.09-.22-.19-.33-.29l1.21 2.84-.06-3.46c-.21.36-.41.72-.6 1.06z" fill="#482596"/><path class="cls-119" d="M310.65 181s.25-5 .54-10.11c.42-7.39.31-16.35 1.78-19.24 2.47-4.88 7-5.43 11.69-4.6s4.28 10.9 2.43 33.93c-2.37-.76-16.44.02-16.44.02z"/><path class="cls-117" d="M311.7 159.7c-.08 1-.13 2.11-.18 3.22l16.73.64c.06-1.15.1-2.22.12-3.23zM312.23 155.31a29.74 29.74 0 00-.44 3.21l16.59.63c0-1.19 0-2.27-.1-3.23zM327.94 168.36c.09-1.13.16-2.2.23-3.22l-16.72-.64-.15 3.23z"/><path class="cls-120" d="M296.05 144.25l3.95 9.85a.86.86 0 001.07.49l3.88-1.21a.63.63 0 00.4-.81l-3.94-9.85a.85.85 0 00-1.07-.49l-3.88 1.21a.63.63 0 00-.41.81z"/><path class="cls-114" d="M295.65 144.35l3.93 9.85a.87.87 0 001.08.49l3.88-1.22a.62.62 0 00.4-.81l-3.94-9.85a.88.88 0 00-1.07-.49l-3.88 1.22a.63.63 0 00-.4.81z"/><path class="cls-73" d="M296.27 149.76a4 4 0 014.84-2.56 3.55 3.55 0 012.42 4.6 4 4 0 01-4.84 2.56 3.54 3.54 0 01-2.42-4.6z"/><path class="cls-120" d="M297 144.55a.32.32 0 01-.3.42.53.53 0 01-.51-.4.32.32 0 01.31-.42.53.53 0 01.5.4z"/><path fill="#cf386f" d="M310.69 182.38h16.89l.02-1.74h-16.89l-.02 1.74z"/><path class="cls-122" d="M313.33 182.45a.88.88 0 01-.27-.65v-.8a.71.71 0 01.7-.71h2.94a.92.92 0 01.91.93v.59a.92.92 0 01-.92.92H314a.87.87 0 01-.67-.28zm.44-1.85a.39.39 0 00-.39.39v.81a.58.58 0 00.18.43.56.56 0 00.42.18h2.72a.63.63 0 00.61-.61v-.6a.63.63 0 00-.17-.43.59.59 0 00-.42-.17z"/><path class="cls-122" d="M315.15 181.68h2.29a.16.16 0 000-.32h-2.29a.16.16 0 000 .32z"/><path class="cls-119" d="M325.39 147.26l3 1.82c.09.07.15.14.21.19l.39.39c.25.26.5.5.73.77.46.52.93 1 1.36 1.6a25.8 25.8 0 012.23 3.46 22.55 22.55 0 011.48 3.74 9 9 0 01.24 1c.08.32.14.66.19 1s.13.71.18 1a4.22 4.22 0 01.06.54v.52a23.15 23.15 0 01-.14 4.09 16.63 16.63 0 01-.78 3.86 16.37 16.37 0 01-4 6.45 2.76 2.76 0 01-3.68.22c-1.12-.89-.95-2-.27-3.12a11.2 11.2 0 002.85-4.72 13.76 13.76 0 00.38-2.93 16.49 16.49 0 00-.17-2.89c0-.09 0-.22-.06-.35s0-.2-.06-.39-.08-.5-.13-.73-.12-.47-.19-.71-.12-.5-.2-.74a15 15 0 00-1.23-2.74A13.94 13.94 0 00326 156c-.35-.37-.72-.7-1.08-1.05l-.56-.5-.27-.23-.14-.11c-.05 0-.07 0-.11-.09a3.37 3.37 0 01-.13-4.54c1.29-1.48.09-3.12 1.68-2.22z"/><path class="cls-73" d="M328 180.84a3.5 3.5 0 01-4.84-1.15c-1.14-1.58-1.16-3.53.62-4.62a4 4 0 015.34.86c1.28 1.69.55 3.78-1.12 4.91z"/><path class="cls-61" d="M324.75 147a13.59 13.59 0 00-7.24.31c.13 2.49.59 4.21 3.13 4.21 2.88.01 3.82-1.69 4.11-4.52z"/><path class="cls-73" d="M324.25 142.11a45.43 45.43 0 01-.05 4.73c-.25 2.43-1.06 3.9-3.54 3.9-4.3 0-1.91-7.09-3.37-9.65 1.86.1 6.96 1.02 6.96 1.02z"/><path class="cls-74" d="M324.25 142.11v.58a5.58 5.58 0 01-3.09 3.87l-1.72.67a3 3 0 01-1.49.41c-.26-2.24.13-5.11-.69-6.55 1.89.1 6.99 1.02 6.99 1.02z"/><path class="cls-61" d="M314.15 136.43a3 3 0 113.15 2.94 3 3 0 01-3.15-2.94z"/><path class="cls-61" d="M315.68 130.42a3 3 0 113.15 2.94 3 3 0 01-3.15-2.94z"/><path class="cls-61" d="M319 130.48a3.05 3.05 0 113.15 2.94 3 3 0 01-3.15-2.94z"/><path class="cls-61" d="M321.63 133.54a3.05 3.05 0 113.16 2.94 3.06 3.06 0 01-3.16-2.94z"/><path class="cls-61" d="M322 138.62a3.05 3.05 0 113.16 2.94 3 3 0 01-3.16-2.94z"/><path class="cls-73" d="M323 141a1.79 1.79 0 011.71-1.82 1.75 1.75 0 011.81 1.7 1.78 1.78 0 01-1.72 1.82 1.73 1.73 0 01-1.8-1.7z"/><path class="cls-73" d="M318.86 145.73h1.58a4.52 4.52 0 004.35-4.62l-.08-3.41a4.63 4.63 0 00-4.8-4.51l-4.76.16.23 9.17a3.35 3.35 0 003.48 3.21z"/><path class="cls-61" d="M313.48 132.57a3.05 3.05 0 113.15 2.94 3.05 3.05 0 01-3.15-2.94zM323.38 129.2a13.74 13.74 0 01-3.94-.08c1.17-.13 2.45-.29 3.72-.32l.61.39a1.29 1.29 0 00-.39.01z"/><path class="cls-61" d="M317.3 131.76a21.09 21.09 0 006.18.39 1.65 1.65 0 001.21-2.29 3.79 3.79 0 011.15 1.32c.91 2.26-.64 5.82-.64 5.82l-1.25-.21s.27-2.93-1.56-3.12a58.75 58.75 0 00-7.19.37h-.1v-2.7c.74.17 1.48.3 2.2.42z"/><path class="cls-61" d="M324.44 140.78c-.26-.25-.48-1-.73-1.31a3.22 3.22 0 00.26-2.67c1-1.48.38-1.07.76-.64s0 3 0 3-.19.98-.29 1.62z"/><path class="cls-75" d="M316.94 142.06c-.09-.92.85 0 1.89-.11s1.78-1.19 1.87-.26a1.9 1.9 0 01-3.76.37z"/></g><g id="guy_02"><path class="cls-61" d="M182.8 135.9a3.44 3.44 0 01-1.14-4.14c2.37-.08 2.94-.68 2.59.24s-.74 1.8-.74 1.8l-.48 1.1z"/><path class="cls-73" d="M178.58 171.61h-.65l-.45-.05c-.29 0-.53-.1-.8-.15a11.58 11.58 0 01-1.44-.43l-.34-.13-.33-.14-.64-.28q-.62-.32-1.2-.66a18.31 18.31 0 01-4-3.26l-.43-.45-.21-.23-.2-.24-.77-.95c-.27-.31-.48-.65-.72-1l-.68-1c-.41-.68-.83-1.36-1.22-2l-1.08-2.09a2.7 2.7 0 011.18-3.55 2.53 2.53 0 013.38.77l.1.14 1.11 1.72c.39.55.8 1.09 1.2 1.63l.64.75c.22.24.42.51.66.73l.68.69.17.17.18.16.35.31a13.13 13.13 0 003 2l.77.32.38.12.19.07h.19c.25.07.48.1.7.14s.22 0 .3 0h.12a.17.17 0 00-.1 0A3.21 3.21 0 01182 168a3.67 3.67 0 01-3.42 3.61z"/><path class="cls-73" d="M179.9 153a106.89 106.89 0 00-3.69 11.71c-1 4.52 4.15 5.4 4.15 5.4s3.12-5.67 3.08-8.9-1.76-8.33-1.76-8.33z"/><g style="mix-blend-mode:multiply" opacity=".35"><path class="cls-73" d="M179.67 169.18s-.06.06-.05.09zM176.75 169.6h.05v-.06h-.05s-.02.03 0 .06zM179.81 168.9h.05a.08.08 0 000-.08h-.06s0 .06.01.08zM178.35 169.11h-.08.08zM178.72 169.11V169h-.06v.07a.05.05 0 00.06.04zM179.84 170h-.05s0 .07.07.06zM177.73 167.15h-.06.06zM176.67 169v.07-.07zM181.63 167.93a.06.06 0 000-.06.06.06 0 00-.11 0v.05a.06.06 0 000-.06zM177.35 169.43v-.05c0-.05 0 0-.06 0a.07.07 0 00.06.05zM179.57 167.66v-.05a.05.05 0 000 .05zM175.56 169.5a.08.08 0 000 .06v-.06c0-.06.04-.01 0 0zM179.7 170.3h.05v-.06-.05a.06.06 0 00-.07 0zM176.1 168.46c0 .06 0 .07.05.08h.05a.13.13 0 000-.06zM171.21 168.55h-.05s.05-.01.05 0zM179.83 170.54v-.05.05zM180.26 169.32a.06.06 0 000-.05.06.06 0 00-.09 0 .05.05 0 00.09.05zM176 169.32h.05v-.06a.08.08 0 000 .07zM174.16 170.07zM174.24 168.81h-.06v.06h.07s0-.04-.01-.06zM175 170a.05.05 0 00.06.07zM173.79 166.78v.07a.05.05 0 00.05 0s-.03-.05-.05-.07zM172.23 168.47v-.07h-.08v.05zM171.59 168.31v.06a.08.08 0 00.08 0l-.08-.06zM174.79 169h.07a.1.1 0 00-.06.05.07.07 0 00-.01-.05zM175 166.83h.1a.11.11 0 00-.1 0zM169.7 167.22h.06s-.06-.03-.06 0zM172.55 168h.05v-.08a.07.07 0 00-.05.08zM175.08 170.69s0-.07-.07-.06v.05h.05s.02.03.02.01zM170.78 167s.02 0 0 0zM167.94 165.41v-.06zM175.36 170.87h-.21v.05l.23.08.47.16v-.06h-.07a.15.15 0 00-.07-.17h-.12l-.1.07zM176.5 171.33h.24v-.06s0-.06-.07-.05h-.1zM179 171.56a3.44 3.44 0 00.55-.15v-.05h-.22l-.05.06a.11.11 0 00-.08 0 .17.17 0 00-.1.14.11.11 0 00-.07.06z"/><path class="cls-73" d="M175.66 170.73v.06a.14.14 0 00.13.07.17.17 0 00.12 0h.14a.07.07 0 000 .06.05.05 0 000 .05.21.21 0 000 .2l.08.07h.12a.09.09 0 000 .06l.16.05v-.11h-.06.05a.17.17 0 00.15 0h.17a.13.13 0 00.08-.08h.2l-.06.08v.05l.39.07v-.2a.19.19 0 00.05-.21.16.16 0 00-.16-.07h-.06a.17.17 0 00-.12 0 .17.17 0 00-.1 0V170.73h-.08a.15.15 0 000-.2h-.1l.07-.07h-.16v.18l.05.06h.07a.24.24 0 00-.06.11H176.58v-.26l-.07-.05H176v.07h-.13a.22.22 0 00-.21.16z"/><path class="cls-73" d="M176.68 170.05h-.1a.14.14 0 00-.1.07h-.09a.12.12 0 00-.11.09.13.13 0 00.1.13h.08a.22.22 0 000 .08h.18l.05-.06a.19.19 0 000 .08.18.18 0 000 .12h.12a.17.17 0 000 .1h.29a.21.21 0 00.13-.05.16.16 0 000-.07h.07a.16.16 0 00.12-.12.13.13 0 000-.13h.1a.11.11 0 000 .1h-.07a.07.07 0 000 .09.23.23 0 00-.13 0h-.06a.15.15 0 000 .17.13.13 0 00.07 0v.1h-.08v.14l-.05.08a.45.45 0 000 .12H177.56v.07h.3v-.05a.18.18 0 00.18-.12v.06h.17a.15.15 0 00.14 0 .16.16 0 00.05-.11.08.08 0 00.07 0 .17.17 0 00.19 0 .17.17 0 000-.15l.09-.09h-.11v.06-.08a.11.11 0 00.07-.06.11.11 0 000-.06.1.1 0 000-.1.43.43 0 000-.05v-.17h.29a.14.14 0 00-.05.19.1.1 0 00.09 0h-.07a.16.16 0 00-.3-.08v.09a.19.19 0 000 .08v.48h-.06a.16.16 0 00-.08.05.07.07 0 000-.06.11.11 0 000-.08.1.1 0 00-.1 0 .15.15 0 000-.16.12.12 0 00-.1-.09v-.09a.16.16 0 000-.07h-.11a.12.12 0 000 .16.23.23 0 000 .09v.07a.19.19 0 00-.09 0 .16.16 0 00-.06.12h-.05a.11.11 0 000-.08v-.07a.12.12 0 00.06-.08.1.1 0 00-.08-.71h-.05a.06.06 0 00-.06 0 .12.12 0 00-.05.09h-.1a.13.13 0 00-.09 0 .14.14 0 000 .1.21.21 0 00-.17 0v-.09-.05h-.58a.17.17 0 00-.06.06v-.07a.17.17 0 00-.09-.08zM179.83 171.24h-.12l-.05.05v.06a2.62 2.62 0 00.48-.22.16.16 0 00-.15 0 .19.19 0 00-.16.11zM174.54 170.63a.08.08 0 000-.07h-.11v-.05h-.07a.13.13 0 00-.07.08.11.11 0 000 .09.06.06 0 00.08 0l.36.16zM176.14 171.12a.17.17 0 00-.18 0v.05h-.05l.44.13a.14.14 0 00-.06-.12s-.13-.05-.15-.06z"/><path class="cls-73" d="M174.92 170.69a.14.14 0 00-.13 0 .18.18 0 00-.11.08l.22.09h.08v-.09zM181.82 167.52v.07h.05zM181 168.79h-.06.08v-.05a.06.06 0 00-.02.05zM179.52 167.82a.07.07 0 000 .08h.07zM179.88 170.11a.06.06 0 00.06 0h-.06c-.06 0 0 0 0 .05zM181.93 167.24a.24.24 0 010-.08zM181.26 168.82a.06.06 0 00.08 0 .08.08 0 000 .05zM178.61 169.45h-.06a.08.08 0 000 .06h.05zM180.82 167.46h-.06.06zM179.75 169.43a.06.06 0 00.08 0zM177 168.86v.06zM181.07 167.36a.1.1 0 000 .06h.05v-.05zM180.39 169.54h.11v-.1a.11.11 0 00-.14 0 .12.12 0 00.03.1zM181.94 168.23zM179.85 168.6v-.05c0-.05 0 0 0 0s-.01.03 0 .05zM181.13 169.31a.14.14 0 00.16 0 .15.15 0 000-.17.24.24 0 00-.13.05.13.13 0 00-.03.12zM180.37 165.84v.08h.07zM180 169.73v-.06h-.07a.1.1 0 00-.08.05.11.11 0 000 .15h.13zM180.58 169v.08a.18.18 0 00.19 0V169a.1.1 0 00-.1 0h-.09zM179.38 167.38h.06s-.06.01-.06 0zM180 167.72h-.05a.08.08 0 000 .05zM179.31 169.82a.1.1 0 000-.09h-.07zM179.87 170.29a.1.1 0 000 .09v.06a.1.1 0 00.1 0 .13.13 0 000-.06v-.08h-.06a.1.1 0 00-.04-.01zM178.7 168.86s0-.01 0 0zM176.63 169.19zM180.72 169.21h-.06a.09.09 0 00.1.1zM180.05 170.81a.07.07 0 000 .09.1.1 0 00.12.09.08.08 0 00.07 0 4.74 4.74 0 00.51-.37.11.11 0 00-.1 0 .11.11 0 00-.08 0 .09.09 0 00-.06 0H180.3a.07.07 0 00-.25.19zM181.34 170v.05a3.46 3.46 0 00.22-.31h-.07a.14.14 0 00-.15.26zM181 169.25v.11-.05zM180.09 167.93v-.07c0-.07 0 0-.06 0zM178.53 167.8a.07.07 0 00-.06 0s.06.02.06 0zM178.1 170s0-.06-.07 0z"/><path class="cls-73" d="M179.23 170.5v.05h.09a.12.12 0 000 .09.09.09 0 000 .08.09.09 0 00-.06.08.1.1 0 00.07.1h.05s.08 0 .1-.09a.09.09 0 00.06 0 .13.13 0 000 .06H179.71a.19.19 0 00.11-.13v-.07-.05c0-.05 0 0 0 0h.18a.13.13 0 00.1-.12h.08l.05.06c.05.06 0 0 .06 0a.08.08 0 000-.08h.08l.08-.05a.24.24 0 000-.12.12.12 0 00.1 0 .15.15 0 000-.11h.06a.11.11 0 000-.07.09.09 0 00.06 0v-.05a.08.08 0 00-.05-.07h.38-.11a.12.12 0 00-.08 0h-.05v.05a.28.28 0 000 .09h-.11a.08.08 0 00-.05 0 .21.21 0 00-.08.06v.1l.05.07a.11.11 0 00-.07-.06.17.17 0 00-.1 0 .11.11 0 000 .08.09.09 0 00-.08-.05H180a.15.15 0 00-.07.12.13.13 0 000 .06h-.18l-.08.06v-.07l.05-.07v-.06a.14.14 0 00-.06-.13h-.08a.1.1 0 000 .07zM181.84 168.43h-.06z"/><path class="cls-73" d="M180.16 170.08v.12h.1v-.1H180.14zM178.83 170.38a.1.1 0 00-.06 0 .09.09 0 000 .09v.05a.1.1 0 00.09 0 .11.11 0 000-.09zM179.55 170.06v.05a.08.08 0 000 .09h.11a.08.08 0 000-.1.07.07 0 00-.09 0zM177.41 169.12zM179.32 169.23c0 .09.07.1.1.09s0-.05-.06 0zM176.24 168.13v.06a.06.06 0 00.05 0v-.06zM178.93 166.93a.05.05 0 000 .07s.07-.06 0-.07zM177.35 168.57h-.05a.08.08 0 00.05 0zM175.56 169.62s.02 0 0 0zM174.91 167v.06zM176.51 169.67a.14.14 0 00-.1 0 .1.1 0 000 .07v.05a.2.2 0 00.18-.06v-.08h-.05zM178.56 170a.12.12 0 00.11.11.17.17 0 00.12 0V170a.09.09 0 00-.07 0h-.09zM178.86 168.45a.08.08 0 00.08 0zM178 169.51v.11a.11.11 0 00.12 0 .2.2 0 00.09-.05H178zM180.49 169h-.05zM181 170.34v.06c0 .06 0 0 0 0zM182 168.54zM179.4 170l-.08.09a.12.12 0 00.12 0 .12.12 0 00.07-.07.12.12 0 00.09-.12h-.12a.17.17 0 000 .1zM180.19 168.38v.06a.08.08 0 000-.06s.02-.01 0 0zM178.79 167.57v.05a.07.07 0 00.05 0zM177.54 169.32v.06s.03-.07 0-.06zM181.49 169.59z"/><path class="cls-73" d="M178.82 170.11h-.05a.09.09 0 000 .08h.13v-.1a.09.09 0 00-.08.02zM177.3 168.26v.05h.06zM175.29 167.88s.01.01 0 0zM179 169.37a.06.06 0 000-.06v-.06c0 .09 0 .12.06.13zM174.64 167.5a.09.09 0 00.07 0s-.05-.01-.07 0zM177.4 167.22v.05h.05zM180.15 167.84a.06.06 0 000-.09.06.06 0 000 .09zM176.28 169.18h.05v-.06a.09.09 0 00-.13 0 .11.11 0 00.08.06zM178 168.16s0 .06.05.05zM176 168.12h.05a.08.08 0 000-.07zM176 170v.08H176.15a.17.17 0 00.07-.14.18.18 0 000-.14h-.07a.18.18 0 00-.16.11v.06zM177.05 165.64v.06s-.05-.05 0-.06zM175.72 169.23a.09.09 0 000 .14h.09a.08.08 0 00.06-.05h-.07a.09.09 0 00-.08-.09zM176.57 168.74a.14.14 0 00.17.05v-.07a.12.12 0 00-.09 0 .12.12 0 00-.08 0zM177.55 169.69h.06a.14.14 0 00.11 0 .11.11 0 00.09.08v.06a.11.11 0 00.11.05v-.11a.11.11 0 00-.07-.1.15.15 0 000-.13.13.13 0 00-.11.08.08.08 0 000 .08h-.05a.07.07 0 000 .09.11.11 0 000 .08zM179.3 169.05a.05.05 0 00.05.06z"/><path class="cls-73" d="M177.69 169.79h-.13v.21a.11.11 0 00.15 0 .1.1 0 000-.15zM175.75 166.87h.06zM174.51 168.29zM175.25 166.81h0zM177.84 167.34h.06a.12.12 0 00-.06 0zM173.27 168.31h-.1v.11a.13.13 0 000 .06h.05a.08.08 0 00.05 0 .05.05 0 000-.05v-.05-.07zM175.28 168.9a.1.1 0 00.1 0h-.09l-.11.05a.1.1 0 00.1-.05zM180.38 168.71v-.05c-.05 0 0 .06 0 .08zM176.36 168.74a.12.12 0 000 .16h.05a.11.11 0 00-.05-.16zM172 168.68a.1.1 0 00-.05 0 .11.11 0 00.05 0zM175.33 169.63h-.1a.21.21 0 00-.08.25v.11a.12.12 0 00.09 0 .16.16 0 00.08-.06v-.05a.17.17 0 000-.1zM178.26 168.41a.07.07 0 000 .07v-.06zM176.32 167.82a.06.06 0 000-.06zM177.05 169.05a.08.08 0 000 .05.11.11 0 00.15 0 .12.12 0 00.06-.08.14.14 0 000-.07.18.18 0 00-.13 0 .14.14 0 00-.08.1zM175.82 169.76l.06.06h.12a.18.18 0 00.11-.12.14.14 0 000-.14h-.05a.18.18 0 00-.18.07v.12zM178.06 165.61H178v.06zM174 168.8h-.1v.05h.1v-.05zM175 169.21v.11a.09.09 0 00.08 0 .12.12 0 00.09 0 .09.09 0 000 .06.12.12 0 00.11 0 .1.1 0 00.08 0v-.06a.14.14 0 00-.09-.12h-.08a.13.13 0 000-.06h-.07a.16.16 0 00-.12.07zM175.78 168.79c-.06 0-.08.09-.05.13h.08a.09.09 0 00.07 0v-.06a.09.09 0 00-.06 0 .09.09 0 00-.04-.07zM176.74 168.52v.08s.06.11.15.1l.06-.06v-.11a.11.11 0 00-.08-.06.08.08 0 00-.13.05zM179.18 169.56v.07zM177.41 169.89h-.07v.11a.1.1 0 00.15 0 .11.11 0 000-.14h-.06zM179.81 171.12a.05.05 0 00-.05 0h-.05.06zM176.48 166.51h.05zM174.82 167.67v-.06a.11.11 0 000-.05zM180.18 169.71a.06.06 0 000 .07h.06v-.06zM173.71 165.93s0-.03 0 0zM178.35 168.25v.06c0 .06 0 0 0 0a.07.07 0 00.07 0 .06.06 0 00-.07-.06zM176.4 168.46v.05a.11.11 0 00.08 0 .14.14 0 000-.15h-.06a.09.09 0 00-.07 0zM173.07 167.94v.05h.06a.06.06 0 000-.05zM171.57 168.78a.06.06 0 000-.06h-.06l.06.06zM176.05 166.51a.08.08 0 000 .05.06.06 0 000-.07zM175.94 169h-.12a.12.12 0 00.09.09h.09V169zM176.19 169.38a.11.11 0 00.13 0 .09.09 0 000-.09h-.08a.24.24 0 00-.05.09zM179.42 171.14h.06c.06 0 0 0 0 0h-.06zM176.76 170.11h.23a.18.18 0 000-.14.09.09 0 000-.07h.07v-.08a.11.11 0 00-.08 0 .09.09 0 000-.06h.05a.12.12 0 000-.14.11.11 0 00-.12-.05.08.08 0 000 .12l-.08.05h-.08v.07h-.06a.17.17 0 00.07.3zM177.88 169v.05h.1v-.06h-.05zM173.62 170.06v.06a.11.11 0 000 .05h.12V170h-.08zM179.39 169.56zM172.91 169.56a.05.05 0 000 .05h.06v-.05a.08.08 0 00.08 0 .07.07 0 00.06 0h.14a.16.16 0 000-.15.1.1 0 00-.11-.06h-.05a.07.07 0 000-.08.09.09 0 000 .06.11.11 0 00-.06.06.12.12 0 000 .18h-.07s-.04-.05-.05-.01zM179.75 168.64zM177.56 168.68V168.69a.05.05 0 000-.01zM176.55 167.47V167.46zM174.86 168.78v-.07zM171.39 168.22h.06a.06.06 0 000-.05.07.07 0 00-.06.05zM174.83 169.56v.08a.11.11 0 000 .09h.17a.1.1 0 000-.1h-.07s-.09-.08-.1-.07zM175 167.63v0zM174.26 170.08v.08h.1a.15.15 0 00.18 0 .12.12 0 000 .07.14.14 0 00.09 0 .11.11 0 000 .08l-.05.16.09.06h.46v-.1-.05a.16.16 0 00.05-.14.12.12 0 00-.05-.1.15.15 0 00-.21 0v-.05h-.08a.1.1 0 000-.05h-.08a.17.17 0 000-.07.19.19 0 00.1 0 .13.13 0 000-.1.12.12 0 00-.06-.09.11.11 0 00-.08 0v.06h-.18a.11.11 0 000 .05v.06h-.05zM173.26 166.63h.06s-.05.01-.06 0zM176.16 169.09c-.06.08 0 .12 0 .14v-.06s.03-.06 0-.08zM173.19 169.66v-.06a.08.08 0 000 .11.07.07 0 00.09 0v-.05zM176 169h0zM170 167.32h.07zM172.37 168h.05zM173.67 168.8v.06zM174.1 169.63a.1.1 0 00-.07.1v.05h.05-.05a.11.11 0 00-.07 0v.05a.08.08 0 00.09.08.1.1 0 00.06-.07h.05v-.07a.09.09 0 000-.07.13.13 0 00-.06-.07zM172.86 169.68a.09.09 0 000 .08c.16.1.33.19.5.28V169.89h-.09v-.1a.11.11 0 00-.05 0v-.06h-.06zM172.84 169.23l-.07.1a.12.12 0 00.07 0v-.1zM176.56 167a.12.12 0 00.07-.07z"/><path class="cls-73" d="M173.41 170h.08v-.07a.11.11 0 00-.06-.07h-.09a.13.13 0 00.07.14zM175.3 170v.18a.07.07 0 000 .08h-.06a.16.16 0 00-.06.15.15.15 0 00.09.13h.2v-.07a.17.17 0 000-.14.2.2 0 00.12-.1h.07a.19.19 0 00.12-.11.22.22 0 000-.14v-.05a.24.24 0 00-.09-.17h-.16v.05a.19.19 0 00-.14 0zM175.18 167.29a.05.05 0 00.05 0v-.05h-.06zM173.47 166.93h-.06zM172.1 169.18a.12.12 0 00.15.1h.05a.12.12 0 00.05 0 .1.1 0 00.09 0h.06v-.06.05a.1.1 0 00.09 0 .13.13 0 00.09 0 .1.1 0 000-.11.11.11 0 00-.08 0h-.07V169v.12h-.07zM178 168.7zM175.83 168.66h.05s-.07-.02-.05 0zM175 167.35v-.06V167.35zM171.71 168.16v0zM173.38 167.39h.06-.06zM171.8 166.21h-.06.06zM174.37 168.92a.09.09 0 000-.05.05.05 0 000-.05h.15a.07.07 0 00-.06 0h-.19v.12zM174.59 165.73zM174.7 169.45v.1a.11.11 0 00.08 0 .14.14 0 00.13-.09v-.06h-.06zM172.73 167v-.06h-.05v.05zM171.23 166.35zM175.73 167.77a.07.07 0 00.06 0zM176.48 169.37h.05a.13.13 0 000-.06zM174 169.36v.05a.13.13 0 000 .12.13.13 0 00-.07.06v.07a.06.06 0 000 .05h.05v-.05a.08.08 0 000-.09v-.07h.06v-.09zM174.18 167.76zM170 167.34zM171.75 168l-.05-.05c0 .09 0 .11.07.12zM172.81 169.08s.09 0 .09-.09zM170.1 165.55zM170.09 167a.05.05 0 00.08 0h-.05a.06.06 0 00-.03 0zM171.74 167.31zM172.33 168.62a.07.07 0 000 .06s-.02-.06 0-.06zM171.33 168.64h.06v-.12l-.1.05zM171.58 169h.1a.11.11 0 000-.09.11.11 0 00-.08-.07h-.05a.11.11 0 00-.08 0s-.05 0-.07.05l.15.11zM175.56 168.52a.09.09 0 00.09 0 .07.07 0 00-.09 0zM174.35 168.05zM173.13 166.8zM170.14 167.74a.1.1 0 000-.12zM171.8 167.38h-.06.06zM172.67 168.88a.09.09 0 00-.05 0zM172 165.37a.13.13 0 00.06-.08h-.05zM173.88 167.5V167.51zM171.42 168.46a.05.05 0 000-.07v.07zM170.67 165.9v-.05zM168.91 165.9h-.05zM169.46 164.78a.09.09 0 000 .05v-.05zM171.74 165.94h-.05v.05zM169 166.67h-.06l.1.1h-.08zM173.68 167.86V167.88zM169.88 167h.12a.12.12 0 000-.05v.05a.08.08 0 00-.11-.06.11.11 0 00-.01.06zM171.77 167.08v.07zM170.16 166.08a.05.05 0 00.05 0v-.06c0-.06 0 0 0 0zM170.72 167.39a.11.11 0 00-.11-.06.17.17 0 00-.1.06.1.1 0 00.11.08.14.14 0 00.13-.1zM172.32 164.47s-.02 0 0 0zM170.31 168l.07.06a.1.1 0 00-.07-.06zM169.33 166.9h.06a.09.09 0 00.07 0v-.06h-.08a.09.09 0 00-.05.06zM170.82 168.17a.13.13 0 00.08.17.14.14 0 00.07-.13.15.15 0 00.07-.09V168a.11.11 0 00-.13 0v.11c0 .05 0 0 0 0zM172.33 168.44a.05.05 0 000 .08zM171.07 168.32a.12.12 0 00.09.09V168.24zM170.64 164.82s.01 0 0 0zM169 165.38zM168.88 164.88zM171.47 165.67v.08zM169.33 165.8v.06-.06zM168.79 163.17h-.06v.06h.06v-.06zM170.33 166.82v.05a.17.17 0 00.11.13v-.07a.17.17 0 000-.07zM171.26 168.12zM167.41 164.32v-.05h-.06v.06zM172.4 168.81v.06h.06v-.06h-.06zM168.65 164.28s.03 0 0 0zM170.64 165.84zM172.15 168.14s0 .05-.06.06zM168.75 166.48l.09.1a.1.1 0 00-.1-.08zM169.1 165.68a.06.06 0 000-.06zM169.38 167.13v-.07a.15.15 0 00-.1-.07zM171.46 164.4zM169.23 166.45a.09.09 0 00-.07 0s0 .13.08.15h.07v-.06s-.04-.07-.08-.09zM169.82 164.59zM168 164.83zM168.06 165.74a.05.05 0 00-.07 0zM170.37 167.51h-.05a.06.06 0 00.06-.06zM168.11 163.78a.09.09 0 000 .05.09.09 0 000-.05zM170.09 165.71v.06a.05.05 0 000-.05zM167 163.41v.08zM170.67 168.22a.08.08 0 00.09 0 .07.07 0 00-.06 0zM169.77 167.35v-.05a.08.08 0 000 .05zM169.2 165.69h.05zM168.3 164.08a.05.05 0 000 .08zM165.76 161.47h-.06v.05zM169.53 165.37s0-.06-.05-.05zM167.48 165h.05v.06zM166.84 163.66v.05s-.01-.03 0-.05zM165.05 161.2zM166.46 162.85h.05s-.05-.02-.05 0zM167.42 164.16v.05h.07a.06.06 0 000-.05h-.07z"/></g><path class="cls-74" d="M176.07 164c-.14-.07-.28-.13-.41-.21l2 2.5-1-3.44c-.12.42-.22.83-.31 1.23z"/><path d="M179.9 153s-1.39 3.67-2.54 7.42c1.81 1.36 4.59 3.51 5.42 4.16a10.94 10.94 0 00.66-3.37c0-3.23-1.76-8.33-1.76-8.33z" fill="#4280d6"/><path fill="url(#linear-gradient-63)" d="M182.37 164.61l.38-.43-5.31-4.35-.42.45 5.35 4.33z"/><ellipse class="cls-61" cx="193.12" cy="134.32" rx="1.94" ry="5.61" transform="rotate(-7.39 193.23 134.386)"/><path class="cls-73" d="M191.22 140.14a2.19 2.19 0 012.16-2.06 1.93 1.93 0 011.94 2.06 2.18 2.18 0 01-2.16 2.05 1.93 1.93 0 01-1.94-2.05z"/><path class="cls-112" d="M192.94 224.18a11.12 11.12 0 00.09 2.69 14.44 14.44 0 00.84 4 5.46 5.46 0 001.48.21s.53-7 .41-7.27-2.82.37-2.82.37z"/><path class="cls-119" d="M186.15 181.43l-.84.35c-.73.31-6.8.53-7.52.81l-1.47 51.33 2.27.09v.19l.05-.19h.7s.45-2.78 1.14-7.16c1.18-4.62 2.51-10 2.74-11.72.44-3.14.47-7 .69-9.6s2.79-19.86 2.58-24.26z"/><path class="cls-126" d="M185.56 190.77a19.59 19.59 0 00-.94-2.62 6.27 6.27 0 00-2.53-3.07c-.28 0 1.15 2.88 1 4.46s-3.7 15.91-3.79 19.26c-.05 2.18 1.64 6.37 3.28 9.54.33-1.41.57-2.55.65-3.18.44-3.14.47-7 .69-9.6.08-.98 1.08-10.74 1.64-14.79z"/><path class="cls-119" d="M194.46 226.6a1.55 1.55 0 00.86-1.92c-1.63-4.43-3.74-9-4.6-12.18a8.64 8.64 0 00-4.33-5.2s8.6-20.86 8.33-25.17c-.36-5.88-8.42-2.67-9.64-2.78-.86 7.44-4.43 20.52-6 25.22a9 9 0 00-.47 2.65c0 1 2 3.71 2.52 4.49 2.12 3 8 8.83 11.55 14.39a1.43 1.43 0 001.81.5z"/><path class="cls-126" d="M194.91 182.59c-1.14-5.74-9.09-1.94-10.29-1.88v1.19c-1.68.25-6.22.44-6.83.69v.55c3.18.5 12.6 2.17 17 2.8a12 12 0 00.12-3.35z"/><path class="cls-112" d="M179.5 234a6.61 6.61 0 00-3-.12 18.22 18.22 0 00-4.09.89 1.31 1.31 0 00-.23.65s6.73-.07 7-.21.32-1.21.32-1.21z"/><path class="cls-127" d="M177.76 182.72s.26-5.23.56-10.5c.43-7.67.31-17 1.84-20 2.57-5.07 7.29-5.64 12.15-4.77s4.45 11.32 2.52 35.25c-2.46-.7-17.07.02-17.07.02z"/><path d="M193.76 148.13a3.07 3.07 0 00-1.45-.67c-3.71-.66-7.33-.48-10 1.89 0 2.19.75 4.7 4.57 4.7s5.86-3.21 6.88-5.92z" fill="url(#linear-gradient-64)"/><path class="cls-73" d="M192.94 142.17s-.59 9.94-5.4 9.94-1-8.17-2.22-11.12c2.06.12 7.62 1.18 7.62 1.18z"/><path class="cls-73" d="M192.31 147.46c-3.2-.57-6.32-.52-8.83 1-.18 1.89-.07 4.84 3.65 4.84 3.52 0 5.15-3.37 5.85-5.66a3 3 0 00-.67-.18z"/><path class="cls-74" d="M192.94 142.17s0 .24-.06.66a10.86 10.86 0 01-4.28 4.3l-1.83.94a3.89 3.89 0 01-1.74.47c.07-2.58 1-5.89.29-7.55 2.06.12 7.62 1.18 7.62 1.18z"/><path class="cls-73" d="M186 145.53h1.86a5.55 5.55 0 005.48-5.21l.22-4a5.12 5.12 0 00-5.17-5.45h-5.56l-.57 10.69a3.71 3.71 0 003.74 3.97z"/><path class="cls-73" d="M186 145.53h1.86a5.55 5.55 0 005.48-5.21l.22-4a5.12 5.12 0 00-5.17-5.45h-5.56l-.57 10.69a3.71 3.71 0 003.74 3.97z"/><path class="cls-61" d="M192.61 140.57s-1.25-4.32-1.19-4.68.52-2.15.52-2.15-6.32 1.39-7.84 1.21-3.57-3-3.28-5a2.23 2.23 0 012.89-2c1 .27 3.19-2.44 8 .37 1 .59.55 2.23 1 2.5s1.27 7.42 1.27 7.42z"/><path d="M163.09 151.32l3.83 10.34a.9.9 0 001.1.54l4.06-1.16a.65.65 0 00.44-.83l-3.83-10.34a.88.88 0 00-1.1-.53l-4.06 1.15a.65.65 0 00-.44.83z" fill="#2b1a12"/><path class="cls-106" d="M162.67 151.41l3.83 10.34a.88.88 0 001.1.53l4.06-1.16a.65.65 0 00.44-.83L168.27 150a.9.9 0 00-1.1-.54l-4.06 1.16a.65.65 0 00-.44.79z"/><path d="M163 151.37l.76 2a.17.17 0 00.21.1l.81-.23a.13.13 0 00.09-.16l-.76-2a.18.18 0 00-.22-.11l-.81.23a.13.13 0 00-.08.17z" fill="#140c09"/><path class="cls-73" d="M162.48 156.52a4.19 4.19 0 014.13-3.92 3.68 3.68 0 013.71 3.92 4.19 4.19 0 01-4.13 3.92 3.69 3.69 0 01-3.71-3.92z"/><g class="cls-64"><path class="cls-73" d="M186.1 142.34a1.86 1.86 0 01-.6-.09.15.15 0 01-.1-.2.15.15 0 01.2-.11 2.25 2.25 0 002.27-.81.15.15 0 01.22-.06.16.16 0 01.06.22 2.67 2.67 0 01-2.05 1.05z"/></g><path class="cls-75" d="M184.72 142c-.19-.81.91-.18 2-.49s1.81-1.44 2-.63-.56 1.71-1.68 2-2.13-.05-2.32-.88z"/><path class="cls-127" d="M193.58 148c.24 0 2.26.08 4.62 4.76-.6 5.35.36 5-.76 8.5-3-.31-5.44-4.14-5.44-4.14s-1.25 4.07 0-.37a47.49 47.49 0 001.58-8.75z"/><path class="cls-73" d="M198 151.55c.06.14.09.21.14.31l.11.26.2.5c.12.33.24.66.35 1 .22.66.43 1.31.6 2a39.58 39.58 0 01.86 4c.2 1.35.33 2.72.4 4.09v4.1a28.82 28.82 0 01-.72 4.19c-.33 1.35-.71 2.65-1.14 3.93a63 63 0 01-3.05 7.48 2.74 2.74 0 01-3.51 1.36 2.5 2.5 0 01-1.24-3.29 57.66 57.66 0 002.4-6.91c.32-1.16.59-2.33.81-3.48a23.64 23.64 0 00.39-3.34v-.38a2.8 2.8 0 000-.41v-.86-.85c0-.29 0-.57-.07-.85a31.91 31.91 0 00-.53-3.37 30 30 0 00-.89-3.25 21.947 21.947 0 00-.89-2.3 2.84 2.84 0 00-.16-.35l-.08-.17-.06-.11a3.56 3.56 0 011.59-4.67 3.33 3.33 0 014.49 1.37z"/><path class="cls-74" d="M200.27 159.58c-.16-1-.36-2-.6-3-2.45.47-5.2 1-6.63 1.33a30.27 30.27 0 01.85 3.14 31.91 31.91 0 01.53 3.37c0 .28 0 .57.07.85s0 .57 0 .85v.24l5.9-5.5c0-.42-.06-.86-.12-1.28z"/><path class="cls-73" d="M194.27 187.45a3.83 3.83 0 01-5.44.43 3.38 3.38 0 01-.64-5 4 4 0 015.52-.85 3.85 3.85 0 01.56 5.42z"/><path class="cls-127" d="M200.27 159.58a39.58 39.58 0 00-.86-4c-.17-.66-.38-1.31-.6-2-.11-.33-.23-.66-.35-1l-.2-.5-.11-.26c-.05-.1-.08-.17-.14-.31a3.33 3.33 0 00-4.61-1.34 3.56 3.56 0 00-1.59 4.67l.06.11.08.17a2.84 2.84 0 01.16.35c.11.23.22.49.32.74.2.5.4 1 .57 1.56a30 30 0 01.89 3.25c.09.41.16.82.23 1.23 1.34-.36 4.06-1.08 6.28-1.75-.04-.28-.09-.6-.13-.92z"/><path fill="url(#linear-gradient-65)" d="M193.69 162.05l.1.55 6.89-1.89-.09-.59-6.9 1.93z"/><path class="cls-119" d="M187.5 183.34c.32.31 3.36 4.82 5.77 4.93a11.93 11.93 0 00-.62 2.34s-5.93-1.15-6-1.29a15.31 15.31 0 01-.13-3.09 28 28 0 01.98-2.89z"/><path class="cls-132" d="M164.11 151.66a.33.33 0 01-.33.43.56.56 0 01-.51-.43.33.33 0 01.33-.43.55.55 0 01.51.43zM164.46 152.89a.28.28 0 01-.27.37.47.47 0 01-.43-.37.28.28 0 01.27-.36.46.46 0 01.43.36z"/><path d="M188.59 208.88l-3.85-1.31 2.34-2-.69 1.71a9.26 9.26 0 012.2 1.6z" style="mix-blend-mode:multiply" fill="#5229ab"/></g><g id="grl"><path class="cls-61" d="M237.81 61.27c-.64.92-4.57 7.74-1.8 12.59s16.92 7 17.84 1.38a24.69 24.69 0 00-1.27-11.32 26.64 26.64 0 00-2.19-4.5c-.87-1.1-4.21-2.25-4.21-2.25s-4.18.83-4.45 1.33a36.68 36.68 0 01-3.92 2.77z"/><path class="cls-134" d="M267.07 74.73H267c-3.08-.1-8.13-2-16.33-16.74l-.43-.76a2.66 2.66 0 013.85-3.62 5.1 5.1 0 011.23 1.8c6.95 12.51 10.61 14 11.86 14a2.67 2.67 0 01-.09 5.33zm-16.41-17.05zm0 0z"/><path class="cls-135" d="M255.3 55.4a5.1 5.1 0 00-1.23-1.8 2.66 2.66 0 00-3.85 3.62l.43.76a80 80 0 005.64 8.93l.16-.18 2.83-4.73a108 108 0 01-3.98-6.6z"/><path class="cls-61" d="M255.28 41.06l-5.45-1.93-6.65.6s-3.51 3.45-3.93 6.23.61 7 .06 10.4a14.11 14.11 0 01-1.5 4.91l4.66.18c0-.69.21.12 1.1.12h3.81a3.63 3.63 0 00.94-1.22S252 59.26 253.1 57s2.9-9.74 2.9-9.74z"/><path class="cls-61" d="M257.9 41.79l-2.52-2.44-2.61-1.74-1.48.74-2.87 4.22-7 1c-.16 1.66 0 3.36 0 5v1.5a6.29 6.29 0 014.92 2.61c2.26 3.13 2.13 2.82 5 2.34s4.26-.21 6.79-4.08-.23-9.15-.23-9.15z"/><path class="cls-135" d="M255 54.63a3 3 0 00-2.44-1.38h-3.55l-1.71.07-2.21.88a4.9 4.9 0 00-2.65 6.25c.81 2.61 4.47 9.15 4.47 9.15s1.25 10 1.35 10.24c3.79.2 8-1.3 11.91-1.19.26-.65-4.49-22.91-5.17-24.02z"/><path class="cls-61" d="M247.24 53.35s2.56 4.15 4.52 4.24c1.35-1 .83-4.24.83-4.24s-.89 2.44-1 2.44-1.24-.39-1.24-.39z"/><path d="M246.27 64.1c0-.15 1.16-5.87 1.16-5.87l1.14 6.17-2.52 1.12z" fill="#b53665"/><path class="cls-135" d="M251.93 62.93a3.56 3.56 0 012.41-4 2.86 2.86 0 013.44 2.56 3.55 3.55 0 01-2.41 4 2.85 2.85 0 01-3.44-2.56z"/><path class="cls-73" d="M243.5 70.55a3.45 3.45 0 01-2.67-1 2.88 2.88 0 01-.68-3c.41-1.22 1.76-6.74 2.57-10.16a2.66 2.66 0 015.18 1.23c-.14.58-1 4.16-1.73 7.07 2.49-.56 6.1-1.58 9.2-2.58a2.68 2.68 0 013.35 1.73 2.65 2.65 0 01-1.72 3.43c-.13 0-3.22 1-6.48 1.91a30.54 30.54 0 01-7.02 1.37z"/><path class="cls-74" d="M246.17 64.77c-.22 0-3.86 2.32-3.86 2.32l4.15-3.48z"/><rect class="cls-61" x="254.38" y="57.58" width="5.75" height="8.66" rx="1.43" ry="1.43" transform="rotate(180 257.26 61.91)"/><path class="cls-73" d="M261 64.2a3.93 3.93 0 00-3.88-3.68 3.45 3.45 0 00-3.48 3.68 3.93 3.93 0 003.88 3.68A3.45 3.45 0 00261 64.2zM247 48l.27 5.37s3.84 3.33 4.22 3.44 1.36-2.66 1.13-3.44-.51-3-.59-3.23.12-3.18.12-3.81a11.09 11.09 0 00-.12-1.4z"/><path class="cls-74" d="M252 50.12c-.07-.26.12-3.18.12-3.81a11.09 11.09 0 00-.12-1.4L247 48v.47c.93 2.92 2.56 5.37 4.42 6.29a3.71 3.71 0 001 .33 4 4 0 00.23-1.72c-.3-.8-.57-2.99-.65-3.25z"/><ellipse class="cls-73" cx="251.61" cy="43.37" rx="5.42" ry="8.78"/><path class="cls-73" d="M247.94 47.4a1.68 1.68 0 00-.08-2.36 1.64 1.64 0 00-2.34.08 1.67 1.67 0 00.08 2.36 1.64 1.64 0 002.34-.08z"/><g class="cls-64"><path class="cls-73" d="M252.43 49.26a2.75 2.75 0 01-2.18-1.15.18.18 0 01.32-.17 2.3 2.3 0 002.42.88.18.18 0 01.22.12.17.17 0 01-.12.22 2.16 2.16 0 01-.66.1z"/></g><path class="cls-61" d="M251.89 36.71a2.29 2.29 0 00-2.66-1.84c-2.17.44-4.34 2.85-6.56 5.41-.67.77-1 1.51-2.77 3.81.32 2.4.45 2.36.75 4.76a57.19 57.19 0 015.49-4.23c.73-.14 3.67.49 5.22-2.31a7.36 7.36 0 00.53-5.6z"/><path class="cls-61" d="M251.16 38.78c.39 0 2.17-.56 4.31 1.66S257 44.8 256.81 46c.48.26 5.31-7.39 2.05-10.57s-9.31-.48-9.31-.48z"/><path class="cls-61" d="M251.21 40.29c.5.13 6.11 1.13 6.36 5.74a29.93 29.93 0 00.08-5.65l-3-2.87-3.49-.37-.75 1.12z"/><path transform="rotate(-45 246.083 48.22)" fill="#cf3e73" d="M245.1 47.23h1.98v1.98h-1.98z"/><path class="cls-75" d="M253.38 49c.33-.82-.77-.24-1.68-.61s-1.29-1.55-1.62-.73a1.79 1.79 0 003.3 1.34z"/><path class="cls-113" d="M256.23 79.64V79a1 1 0 011-1h3.24a.78.78 0 01.78.77v.89a1 1 0 01-.29.72 1 1 0 01-.71.3h-3a1 1 0 01-1.02-1.04zm1-1.32a.67.67 0 00-.47.19.66.66 0 00-.19.47v.65a.69.69 0 00.68.67h3a.7.7 0 00.47-.19.68.68 0 00.19-.47v-.89a.44.44 0 00-.44-.43z"/><path class="cls-113" d="M256.42 79.5H259a.18.18 0 00.17-.17.17.17 0 00-.17-.17h-2.53a.17.17 0 00-.17.17.18.18 0 00.12.17z"/><path d="M269.87 80.41h.61c2.62 0 4.74 1.84 4.74 4v2.12a26.88 26.88 0 00-6.07 1.91l-.55.26.15.67c-1.14.19-5.78.19-10.26.42-5.59.29-10.29-3.42-10.29-8.05V79.9z" fill="url(#linear-gradient-66)"/><path d="M260.67 89.6a9.4 9.4 0 00-1.09-4.12 9.52 9.52 0 00-1.39-2.71l.59-.52 16 .46s6.31 11.62-9.45 30.72a16.41 16.41 0 00-2-1.09s3.24-7 5.2-23.24a59.66 59.66 0 00-7.86.5z" fill="url(#linear-gradient-67)"/><path d="M274.12 72.28c-.27-.27-.43-.4-.43-.4a5 5 0 00-4.81-.39l-.56.23-20.12 8.18v2.72a7.52 7.52 0 006.85 7.4 11.21 11.21 0 005.84-1.17c3.74-1.87 8.25-7.06 9.64-8.26 4.6 15.48 4.41 23 4.41 23a16.46 16.46 0 012.29.19c6-20.78-1.23-29.6-3.11-31.5z" fill="url(#linear-gradient-68)"/><path class="cls-134" d="M266.81 76.23a3.66 3.66 0 114.35-2.79 3.63 3.63 0 01-4.35 2.79z"/><path class="cls-112" d="M263.72 110.59a9.54 9.54 0 012.64 3.24c1.1 2.1 2.55 4.89 2.43 5.35a1.75 1.75 0 01-.55.8s-5.57-7.63-5.67-8.1 1.15-1.29 1.15-1.29zM277.3 103.77l-2.32-.2c.1 1.14 2.21 9.55 2.21 9.55a1.83 1.83 0 00.82-.54c.29-.38 0-3.52-.23-5.89a10.27 10.27 0 00-.48-2.92z"/><path class="cls-135" d="M246.35 64.14c.7-2.78 1.44-5.89 1.57-6.43a2.66 2.66 0 00-5.18-1.23c-.48 2-1.14 4.75-1.69 6.91a51 51 0 005.3.75z"/><path class="cls-61" d="M241 63.1l-.14.52s5.54 1.13 5.56.91.15-.67.15-.67z"/></g><path class="cls-75" d="M260.69 125.16a9 9 0 10-9 9 9 9 0 009-9zM219.55 169.94a6.09 6.09 0 10-6.09 6.09 6.09 6.09 0 006.09-6.09zM261.52 205.71a8.15 8.15 0 10-8.14 8.19 8.17 8.17 0 008.14-8.19z"/><path class="cls-75" d="M253.51 208.56c-.34-.12-1.35-.45-42-38.5l-.85-.8 38.63-44.58 1.84 1.6-37.1 42.8c15.71 14.72 38.84 36.23 40.41 37.26a1 1 0 00-.2-.09z"/><path class="cls-141" d="M328.39 77.09h-.84a20.22 20.22 0 00-20.73-20.66v-.83a21.05 21.05 0 0121.6 21.51z"/><path class="cls-141" d="M322.74 77.77h-.84a15.74 15.74 0 00-16.14-16.08v-.84a16.59 16.59 0 0117 16.94z"/><path class="cls-141" d="M317.49 77h-.84a9.86 9.86 0 00-10.12-10.07v-.84a10.71 10.71 0 0111 10.93zM307.77 78.87a3 3 0 112.1-.87 3 3 0 01-2.1.87zm0-5.11a2.12 2.12 0 00-1.51.63 2.14 2.14 0 103 3 2.14 2.14 0 000-3 2.12 2.12 0 00-1.49-.63z"/><path class="cls-142" d="M185 69.16l-4.79-4.79a.52.52 0 11.74-.74l4.79 4.79a.52.52 0 01-.74.74z"/><path class="cls-142" d="M180.17 68.42l4.83-4.79a.52.52 0 01.74.74l-4.79 4.79a.52.52 0 01-.74-.74z"/><path class="cls-143" d="M382.64 197.07l-4.79-4.79a.52.52 0 01.74-.74l4.79 4.79a.52.52 0 01-.74.74z"/><path class="cls-143" d="M377.85 196.33l4.79-4.79a.52.52 0 01.74.74l-4.79 4.79a.52.52 0 01-.74-.74z"/><path class="cls-142" d="M145.81 190.22v-6.78a.53.53 0 01.52-.52.52.52 0 01.52.52v6.78a.51.51 0 01-.52.51.52.52 0 01-.52-.51z"/><path class="cls-142" d="M143 186.31h6.77a.52.52 0 010 1H143a.52.52 0 010-1zM85.22 213.78a3.72 3.72 0 113.72-3.72 3.73 3.73 0 01-3.72 3.72zm0-5.78a2.06 2.06 0 102.06 2.06 2.06 2.06 0 00-2.06-2.06zM213.25 59.29a3.72 3.72 0 113.75-3.72 3.73 3.73 0 01-3.75 3.72zm0-5.78a2.06 2.06 0 102.06 2.06 2.06 2.06 0 00-2.06-2.06z"/><path class="cls-144" d="M357.51 45.42a3.72 3.72 0 113.73-3.72 3.73 3.73 0 01-3.73 3.72zm0-5.78a2.06 2.06 0 102.06 2.06 2.05 2.05 0 00-2.06-2.06z"/><rect class="cls-72" x="311.46" y="100.41" width="37.67" height="14.29" rx="2.89" ry="2.89"/><path class="cls-72" d="M317.47 111.15l3.27 10.17 6.3-10.41-9.57.24z"/><rect class="cls-75" x="323.93" y="104.38" width="6.79" height="1.96" rx=".87" ry=".87"/><rect class="cls-75" x="331.18" y="104.38" width="6.79" height="1.96" rx=".87" ry=".87"/><rect class="cls-75" x="338.44" y="104.38" width="4.92" height="1.96" rx=".87" ry=".87"/><rect class="cls-75" x="329.43" y="108.84" width="10.52" height="1.96" rx=".87" ry=".87"/><rect class="cls-75" x="340.42" y="108.84" width="3.06" height="1.96" rx=".87" ry=".87"/><rect class="cls-119" x="145.75" y="88.35" width="37.67" height="14.29" rx="2.89" ry="2.89"/><path class="cls-119" d="M151.77 99.08l3.27 10.17 6.29-10.41-9.56.24z"/><rect class="cls-75" x="158.23" y="92.31" width="6.79" height="1.96" rx=".87" ry=".87"/><rect class="cls-75" x="165.48" y="92.31" width="6.79" height="1.96" rx=".87" ry=".87"/><rect class="cls-75" x="172.74" y="92.31" width="4.92" height="1.96" rx=".87" ry=".87"/><rect class="cls-75" x="163.73" y="96.77" width="10.52" height="1.96" rx=".87" ry=".87"/><rect class="cls-75" x="174.71" y="96.77" width="3.06" height="1.96" rx=".87" ry=".87"/><rect class="cls-135" x="262.84" y="13.78" width="37.67" height="14.29" rx="2.89" ry="2.89"/><path class="cls-135" d="M268.86 24.51l3.26 10.17 6.3-10.41-9.56.24z"/><rect class="cls-75" x="275.31" y="17.74" width="6.79" height="1.96" rx=".87" ry=".87"/><rect class="cls-75" x="282.57" y="17.74" width="6.79" height="1.96" rx=".87" ry=".87"/><rect class="cls-75" x="289.82" y="17.74" width="4.92" height="1.96" rx=".87" ry=".87"/><rect class="cls-75" x="280.81" y="22.2" width="10.52" height="1.96" rx=".87" ry=".87"/><rect class="cls-75" x="291.8" y="22.2" width="3.06" height="1.96" rx=".87" ry=".87"/><rect class="cls-145" x="86.81" y="100.13" width="37.67" height="14.29" rx="2.89" ry="2.89"/><path class="cls-145" d="M92.83 110.87l3.27 10.17 6.29-10.41-9.56.24z"/><rect class="cls-75" x="99.28" y="104.1" width="6.79" height="1.96" rx=".87" ry=".87"/><rect class="cls-75" x="106.54" y="104.1" width="6.79" height="1.96" rx=".87" ry=".87"/><rect class="cls-75" x="113.79" y="104.1" width="4.92" height="1.96" rx=".87" ry=".87"/><rect class="cls-75" x="104.78" y="108.56" width="10.52" height="1.96" rx=".87" ry=".87"/><rect class="cls-75" x="115.77" y="108.56" width="3.06" height="1.96" rx=".87" ry=".87"/><path class="cls-144" d="M361.86 134.89l-4.66-2.4a12.53 12.53 0 015.23-5.49 14.43 14.43 0 017.38-2 13.47 13.47 0 015.78 1.27 11.89 11.89 0 014.58 3.71l1.67-2.11 1.81 6.79-6.75-.63 1.5-1.9a9.18 9.18 0 00-7.24-2.95q-5.95.04-9.3 5.71zm9.14 14.53a13.58 13.58 0 01-5.78-1.26 11.76 11.76 0 01-4.58-3.73l-1.64 2.12-1.83-6.79 6.75.62-1.5 1.91a9.16 9.16 0 007.24 2.94q6 0 9.3-5.66l4.66 2.39a12.59 12.59 0 01-5.23 5.52 14.64 14.64 0 01-7.39 1.94z"/><circle class="cls-75" cx="126.8" cy="86.28" r="8.92" transform="rotate(-76.79 126.798 86.285)"/><path class="cls-143" d="M126.8 95.57a9.29 9.29 0 119.28-9.29 9.3 9.3 0 01-9.28 9.29zm0-17.85a8.57 8.57 0 108.56 8.56 8.57 8.57 0 00-8.56-8.56z"/><path class="cls-143" d="M122.63 89.21a5.44 5.44 0 01-.43-2.1 4.88 4.88 0 01.48-2.1h1a.91.91 0 00.52-.12 3.8 3.8 0 00.57-.66l.25-.33q.41-.56.57-.75c.6-.69 1.45-1 1.64-2a1.29 1.29 0 01.19-.61.67.67 0 01.94 0 1.55 1.55 0 01.41.95 3.68 3.68 0 010 1.65c-.08.24-.56.71-.53 1s1.93.4 2.35.64a1.34 1.34 0 01.79 1.17 1.64 1.64 0 01-.49 1.14 1.13 1.13 0 01.19.59.85.85 0 01-.72.88 1.48 1.48 0 010 .26q0 .82-1 .9v.17a.79.79 0 01-.32.69 1.67 1.67 0 01-1 .24h-.4l-.31-.16a4.25 4.25 0 01-1 .16h-.49a6 6 0 01-2-1.54z"/><circle class="cls-75" cx="350.62" cy="163.46" r="8.92"/><path class="cls-143" d="M350.62 172.75a9.29 9.29 0 119.29-9.29 9.3 9.3 0 01-9.29 9.29zm0-17.85a8.57 8.57 0 108.56 8.56 8.57 8.57 0 00-8.56-8.56z"/><path class="cls-143" d="M346.46 166.39a5.46 5.46 0 01-.44-2.1 4.88 4.88 0 01.48-2.1h1a.89.89 0 00.52-.12 3.08 3.08 0 00.57-.66l.25-.33c.27-.37.47-.62.58-.75.59-.69 1.44-1 1.63-2a1.3 1.3 0 01.2-.61.67.67 0 01.93 0 1.62 1.62 0 01.42.95 3.68 3.68 0 010 1.65c-.08.25-.56.71-.53 1s1.93.4 2.35.64a1.33 1.33 0 01.79 1.17 1.63 1.63 0 01-.49 1.15 1.09 1.09 0 01.2.58.85.85 0 01-.72.88 1.48 1.48 0 010 .26q0 .82-1 .9a1.31 1.31 0 010 .17.8.8 0 01-.32.7 1.73 1.73 0 01-1 .23h-.39l-.31-.16a4.33 4.33 0 01-1 .16h-.5a6 6 0 01-2-1.54z"/></g></g></svg>