<svg xmlns="http://www.w3.org/2000/svg" xmlns:xlink="http://www.w3.org/1999/xlink" width="424.1" height="384.5" overflow="scroll"><style>.st11,.st12,.st13,.st9{fill-rule:evenodd;clip-rule:evenodd;fill:#b3e0fd}.st11,.st12,.st13{fill:#543432}.st12,.st13{fill:#ffae83}.st13{fill:#ff9071}.st15,.st16,.st18,.st19,.st21,.st22{fill-rule:evenodd;clip-rule:evenodd;fill:#cfcbcb}.st16,.st18,.st19,.st21,.st22{fill:#eeeced}.st18,.st19,.st21,.st22{fill:#fff}.st19,.st21,.st22{fill:#40221f}.st21,.st22{fill:#ff7c63}.st22{fill:#560a05}</style><linearGradient id="SVGID_1_" gradientUnits="userSpaceOnUse" x1="212.06" y1="361.837" x2="212.06" y2="27.061"><stop offset="0" stop-color="#b3e0fd"/><stop offset=".5" stop-color="#d7ecfd"/><stop offset="1" stop-color="#f0f8ff"/></linearGradient><path d="M68.2 361.8C30.7 361.8 0 331.2 0 293.7c0-37.5 30.7-68.2 68.2-68.2 15.9 0 28.8-13 28.8-28.8 0-15.9-13-28.8-28.8-28.8h-3.4c-16.5 0-30-13.5-30-30s13.5-30 30-30h10.5c6.4 0 11.7-5.3 11.7-11.7 0-6.4-5.3-11.7-11.7-11.7h-7.7c-4.4 0-8.1-3.6-8.1-8.1 0-4.4 3.6-8.1 8.1-8.1h52c7 0 12.7-5.7 12.7-12.7 0-7-5.7-12.7-12.7-12.7H104c-4.4 0-8.1-3.6-8.1-8.1 0-4.4 3.6-8.1 8.1-8.1h221.2c5.8 0 10.5 4.7 10.5 10.5s-4.7 10.5-10.5 10.5H309c-9.1 0-16.5 7.4-16.5 16.5s7.4 16.5 16.5 16.5h68.4c5.8 0 10.5 4.7 10.5 10.5s-4.7 10.5-10.5 10.5h-10.1c-8.4 0-15.2 6.9-15.2 15.2 0 8.4 6.9 15.2 15.2 15.2H381c21.5 0 39.1 17.6 39.1 39.1s-17.6 39.1-39.1 39.1h-4.5c-20.7 0-37.6 16.9-37.6 37.6 0 20.7 16.9 37.6 37.6 37.6h9.7c20.9 0 37.9 17.1 37.9 37.9 0 20.9-17.1 37.9-37.9 37.9-107.9.5-210.1.5-318 .5zM352.1 48.1c5.8 0 10.5-4.7 10.5-10.5s-4.7-10.5-10.5-10.5-10.5 4.7-10.5 10.5 4.7 10.5 10.5 10.5zM44.9 84.6c4.4 0 8.1-3.6 8.1-8.1 0-4.4-3.6-8.1-8.1-8.1-4.4 0-8.1 3.6-8.1 8.1.1 4.5 3.7 8.1 8.1 8.1z" fill-rule="evenodd" clip-rule="evenodd" fill="url(#SVGID_1_)"/><linearGradient id="SVGID_2_" gradientUnits="userSpaceOnUse" x1="173.205" y1="108.169" x2="173.205" y2="286.092"><stop offset="0" stop-color="#b3e0fd"/><stop offset=".5" stop-color="#d7ecfd"/><stop offset="1" stop-color="#f0f8ff"/></linearGradient><path d="M236.4 284.1c1.4-5.6 2.6-11 3.5-16.4.9-5.4 1.6-10.7 2.1-15.8 1.7-19.1 0-36.2-4.3-51.2-4.7-16.3-12.5-30.3-22.6-42.2-9.3-11-20.6-20.1-33-27.4-13.4-7.9-28.2-13.7-43.5-17.6-5.2-1.3-10.5-2.4-15.8-3.3-5.4-.9-10.8-1.6-16.2-2.1-.6-.1-1.2.1-1.6.5-.4.4-.7.9-.8 1.5v.2c-.2 2.1-3.3 47.4 11.2 91.4 14.7 44.5 47.3 87.8 119 84.1.5 0 1-.2 1.3-.5.4-.3.6-.7.7-1.2zm-130-172.4c2.4 1.5 12.2 7.7 25.6 18.7-6 0-19.6.1-25.8.9-.3-9.7 0-16.8.2-19.6zm-.2 21.8c7.2-1 25.6-.9 28.3-.9 6.6 5.6 14 12.3 21.8 20.2l-48.3 3.9c-1-8.6-1.5-16.5-1.8-23.2zm2.1 25.3l50-4c7.2 7.4 14.6 15.8 21.9 25.1-10 1.2-57.7 7-66.1 9.5-2.8-10.6-4.6-21-5.8-30.6zm6.3 32.7c8.4-2.6 61.1-8.9 67-9.6 5.8 7.6 11.6 15.8 17.2 24.6l-75.1 10c-.1 0-.2 0-.3.1-2.2-5.1-4.2-10.3-5.9-15.5-1-3.2-2-6.4-2.9-9.6zm9.8 27l75.7-10.1c4.3 7 8.4 14.3 12.3 22-12.3 1.8-74.9 9.7-75.1 9.8-.2 0-.3.1-.5.2-4.8-6.9-9-14.3-12.4-21.9zm13.8 23.8c6.6-.8 65.2-8.2 75.2-9.8 3.3 6.7 6.5 13.7 9.4 21-15.2 4.4-64.5 8.3-64.7 8.3-.3 0-.6.2-.7.4-7.4-5.9-13.7-12.6-19.2-19.9zm21.4 21.4c7.9-.6 50.1-4.2 64-8.3 1.9 4.7 3.6 9.6 5.3 14.5-5.8 1.2-31.5 6.1-47.4 4.9-.5 0-.9.2-1 .6-7.7-3.1-14.7-7.1-20.9-11.7zm25.3 13.5c16.4.4 39.7-4.2 44.6-5.2 1.2 3.8 2.4 7.7 3.5 11.6-18.6.8-34.5-1.6-48.1-6.4zm49.8 4.3c-1-3.6-2.1-7.2-3.2-10.7 3.2-5.6 6.7-15.6 8.5-21.3-.1.7-.1 1.4-.2 2.2-.4 5-1.1 10.2-2.1 15.6-.8 4.7-1.8 9.4-3 14.2zm5.5-37.4c-.5 0-.9.3-1.1.8 0 0-4.4 14.9-8.6 23.3-1.6-4.7-3.3-9.4-5.1-13.9 1.4-2.7 8.8-18.1 13.6-36 1.2 8 1.6 16.6 1.2 25.8zm-1.7-29.7c-.4.1-.8.4-.9.8-4.1 16.3-10.7 30.9-13.2 36.3-2.8-7-5.9-13.7-9.1-20.2 1.9-3.4 13-23.9 16.8-40 1.3 3.2 2.4 6.6 3.4 10 1.2 4.3 2.2 8.6 3 13.1zm-7.5-25.8c-.3.1-.6.4-.6.8-3.2 14.6-13.1 33.7-16.3 39.6-3.9-7.6-7.9-14.8-12.2-21.7 13-18.3 17.3-34.4 18.3-38.4 4.2 6.1 7.8 12.7 10.8 19.7zm-12.3-21.7c-.2.2-.4.4-.4.7 0 .1-3.3 17.3-17.6 37.8-5.6-8.8-11.4-17.1-17.2-24.7 5.9-8.8 14.3-31.8 15.4-35 5.2 4.4 10.1 9.1 14.5 14.3 1.8 2.3 3.6 4.5 5.3 6.9zm-21.6-22.6c-.1.1-.1.2-.2.3 0 .1-8.7 24.6-14.9 34.3-7.4-9.5-14.9-18-22.2-25.5 5.2-11.7 7.5-25 7.9-27.1 4.5 2.1 8.9 4.4 13.2 6.9 5.7 3.3 11.1 7 16.2 11.1zm-31.3-18.9c0 .1-.1.2-.1.3 0 0-2.1 13.8-7.4 26.1-7.9-8-15.4-14.9-22.1-20.6 2.1-6.6 2.9-13.8 3-15 9.1 2.3 18 5.4 26.6 9.2zm-28.8-9.8v.2s-.6 7.1-2.6 13.9c-12.3-10.2-21.8-16.5-25.6-19 4.5.5 9.1 1.1 13.6 1.8 4.9.9 9.8 1.9 14.6 3.1z" fill-rule="evenodd" clip-rule="evenodd" fill="url(#SVGID_2_)"/><linearGradient id="SVGID_3_" gradientUnits="userSpaceOnUse" x1="30.178" y1="269.151" x2="211.274" y2="269.151"><stop offset="0" stop-color="#b3e0fd"/><stop offset=".5" stop-color="#d7ecfd"/><stop offset="1" stop-color="#f0f8ff"/></linearGradient><path d="M210.6 351.8c1-13.2.9-25.5-.1-37-4-44.9-22.4-77-48.4-98.4-26-21.4-59.6-32.3-94.1-34.8-12.2-.9-24.6-.8-36.7.3-.7.1-1.2.7-1.1 1.3v.1c.4 3.5 21.7 206.2 179.5 169.6.5-.1.9-.6.9-1.1z" fill-rule="evenodd" clip-rule="evenodd" fill="url(#SVGID_3_)"/><linearGradient id="SVGID_4_" gradientUnits="userSpaceOnUse" x1="120.365" y1="349.01" x2="120.365" y2="187.643"><stop offset="0" stop-color="#b3e0fd"/><stop offset=".5" stop-color="#d7ecfd"/><stop offset="1" stop-color="#f0f8ff"/></linearGradient><path d="M37.9 188c-.6-.2-1.2.1-1.5.7-.2.6.1 1.2.7 1.5.1 0 12.4 4.6 30.9 15-6.3 1.1-20.7 3.8-27 5.8-.6.2-.9.8-.7 1.4.2.6.8.9 1.4.7 7.3-2.4 26.5-5.7 29.3-6.2 8 4.6 16.9 10.3 26.5 17L47.8 237c-.6.2-1 .8-.8 1.4.2.6.8 1 1.4.8l51.5-13.6c8.9 6.4 18.2 13.8 27.6 22.2-10.2 3.1-59.3 18.1-67.3 22.3-.6.3-.8 1-.5 1.5.3.6 1 .8 1.5.5 8.3-4.2 62.1-20.7 68.2-22.5 7.5 6.8 15.1 14.3 22.5 22.5l-76.6 24.4c-.6.2-.9.8-.7 1.4.2.6.8.9 1.4.7l77.6-24.8c5.8 6.5 11.5 13.4 17 20.7-12.5 4.2-76.4 24.1-76.6 24.2-.6.2-.9.8-.7 1.4.2.6.8.9 1.4.7.2-.1 66.6-20.7 77.3-24.4 4.7 6.4 9.3 13.1 13.7 20.2-15.1 7.5-65.9 20.6-66 20.7-.6.2-1 .8-.8 1.4.2.6.8 1 1.4.8.2 0 51.5-13.4 66.6-20.9 2.8 4.6 5.5 9.3 8.2 14.2-5.8 2.3-31.8 12.3-48.5 14-.6.1-1.1.6-1 1.2.1.6.6 1.1 1.2 1 17.3-1.8 44.1-12.1 49.4-14.2 2 3.8 4 7.8 6 11.8.3.6.9.8 1.5.5.6-.3.8-.9.5-1.5-2-4.2-4.1-8.3-6.2-12.3 3.3-9.3 5.4-28.3 5.4-28.4.1-.6-.4-1.2-1-1.3-.6-.1-1.2.4-1.3 1 0 .1-1.8 16.4-4.7 25.9-2.6-4.7-5.2-9.2-7.9-13.6 1-3.3 6.3-22.1 7.7-42.8 0-.6-.4-1.2-1-1.2s-1.2.4-1.2 1c-1.2 17.8-5.4 34.3-7 40.3-4.3-6.8-8.7-13.2-13.3-19.4 1.4-4.1 9.6-28.9 10.2-46.5 0-.6-.5-1.2-1.1-1.2-.6 0-1.2.5-1.2 1.1-.6 15.8-7.4 37.6-9.6 44.4-5.4-7.2-11.1-14-16.7-20.3 11.8-24.9 12-44.5 12-44.5 0-.6-.5-1.1-1.1-1.2-.6 0-1.1.5-1.2 1.1 0 .1-.2 18.7-11.4 42.8-7.5-8.2-15-15.7-22.6-22.6 4.9-11 9.6-39.7 9.6-39.8.1-.6-.3-1.2-.9-1.3s-1.2.3-1.3.9c0 .1-4.5 27.4-9.2 38.5-9.5-8.5-18.9-16-27.9-22.5 3.6-14.4 3.2-30 3.2-30.1 0-.6-.5-1.1-1.2-1.1-.6 0-1.1.5-1.1 1.2 0 0 .4 14.8-2.9 28.6-9.7-6.9-18.8-12.7-27-17.4 1.1-8 .3-16.4.3-16.4-.1-.6-.6-1.1-1.2-1-.6.1-1.1.6-1 1.2 0 0 .7 7.6-.2 15C51 192.9 38 188.1 37.9 188z" fill-rule="evenodd" clip-rule="evenodd" fill="url(#SVGID_4_)"/><linearGradient id="SVGID_5_" gradientUnits="userSpaceOnUse" x1="312.632" y1="339.92" x2="312.632" y2="185.895"><stop offset="0" stop-color="#b3e0fd"/><stop offset=".5" stop-color="#d7ecfd"/><stop offset="1" stop-color="#f0f8ff"/></linearGradient><path d="M234.2 334.1c-.4-5.6-.6-11.1-.6-16.4 0-5.4.3-10.6.7-15.6 1.7-18.7 6.2-34.9 13-48.7 7.3-14.9 17.3-27.1 29-36.8 10.9-9 23.3-15.8 36.6-20.7 14.3-5.3 29.5-8.3 45-9.5 5.2-.4 10.5-.5 15.8-.5 5.3 0 10.7.3 16 .8.6.1 1.1.3 1.5.8.4.4.6 1 .5 1.6v.2c-.2 2.1-5 46.3-26.5 86.3-21.8 40.4-60.7 76.5-129.3 60.6-.5-.1-.9-.4-1.2-.7-.3-.5-.5-1-.5-1.4zm155.1-143.9c-2.6 1-13.1 5.3-27.9 13.6 5.8 1 18.8 3.5 24.7 5.3 1.9-9.4 2.8-16.2 3.2-18.9zm-3.7 21c-6.8-2.2-24.5-5.3-27.1-5.8-7.4 4.3-15.6 9.5-24.5 15.7l45.9 12.1c2.5-8.1 4.4-15.6 5.7-22zm-6.3 24l-47.5-12.5c-8.2 5.9-16.8 12.7-25.5 20.5 9.4 2.9 54.4 16.7 62.1 20.5 4.5-9.7 8.1-19.4 10.9-28.5zm-11.7 30.4c-7.7-3.9-57.4-19.1-63-20.8-6.9 6.3-13.9 13.2-20.8 20.8l70.7 22.6c.1 0 .2.1.2.1 3-4.5 5.8-9.2 8.4-13.9 1.6-2.9 3.1-5.8 4.5-8.8zm-14.1 24.5l-71.3-22.8c-5.3 6-10.6 12.3-15.7 19.1 11.5 3.9 70.6 22.3 70.7 22.3.2.1.3.1.4.3 6-5.8 11.3-12.2 15.9-18.9zm-17.4 20.4c-6.3-1.9-61.5-19.2-70.8-22.4-4.4 5.9-8.6 12.1-12.7 18.6 13.9 6.9 60.8 19.1 61 19.1.3.1.5.3.6.5 8.1-4.2 15.4-9.6 21.9-15.8zm-24.3 17.1c-7.5-2-47.6-12.7-60.3-19-2.6 4.2-5.1 8.6-7.6 13.1 5.4 2.1 29.3 11.3 44.8 12.9.4 0 .8.4.9.8 8-1.8 15.4-4.4 22.2-7.8zm-26.8 8.6c-15.9-2.5-37.6-10.9-42.2-12.7-1.8 3.5-3.6 7-5.4 10.6 17.9 4 33.7 4.4 47.6 2.1zm-48.7-4.4c1.6-3.3 3.3-6.6 5-9.7-2.1-5.9-3.7-16.2-4.5-22-.1.7-.1 1.4-.2 2.1-.4 4.9-.7 10.1-.7 15.4-.1 4.6.1 9.4.4 14.2zm1.1-37c.5.1.9.4.9.9 0 0 1.7 15.1 4.3 23.9 2.4-4.3 4.8-8.5 7.3-12.5-.8-2.9-5.4-19-6.9-37.1-2.5 7.6-4.4 15.9-5.6 24.8zm6.8-28.3c.4.1.7.5.7.9 1.1 16.5 5 31.7 6.5 37.3 3.9-6.3 8.1-12.2 12.3-17.9-1.2-3.6-8.4-25.3-9.4-41.4-1.8 2.9-3.4 5.9-5 9.1-1.9 3.7-3.6 7.8-5.1 12zm11.6-23.6c.3.2.5.5.5.8.6 14.6 6.8 34.8 8.9 41 5-6.7 10.2-12.9 15.5-18.8-9.4-19.9-10.8-36.1-11-40.2-5.1 5.2-9.8 10.9-13.9 17.2zm15.6-18.9c.2.2.3.4.3.7 0 0 .2 17.3 10.5 39.5 6.9-7.6 13.9-14.5 20.9-20.8-4.2-9.5-8.3-33.1-8.8-36.4-5.8 3.3-11.3 7.1-16.5 11.3-2.2 1.9-4.3 3.7-6.4 5.7zm24.7-18c.1.1.1.2.1.3 0 .1 4.2 25.3 8.5 35.6 8.8-7.9 17.5-14.8 25.8-20.8-3.1-12.2-3-25.4-2.9-27.5-4.7 1.2-9.3 2.7-13.9 4.4-6.1 2.2-12 4.9-17.6 8zm33.5-12.9v.3s-.4 13.7 2.7 26.4c9-6.4 17.4-11.7 24.9-16.1-.9-6.8-.4-13.8-.3-15-9.2.8-18.4 2.2-27.3 4.4zm29.4-4.5v.2s-.7 7 .2 13.9c13.6-7.8 23.9-12.2 28-13.9-4.5-.3-9-.5-13.5-.6-4.9-.1-9.8.1-14.7.4z" fill-rule="evenodd" clip-rule="evenodd" fill="url(#SVGID_5_)"/><g><linearGradient id="SVGID_6_" gradientUnits="userSpaceOnUse" x1="278.389" y1="207.063" x2="278.389" y2="121.255"><stop offset="0" stop-color="#f0f8ff"/><stop offset=".5" stop-color="#d7ecfd"/><stop offset="1" stop-color="#b3e0fd"/></linearGradient><path d="M271.3 207.1c.9-6.7 3.5-17.5 11.5-30.5 13.6-22.2 20.1-46.6 8.1-54.2-11.5-7.3-30.7 24.1-31.3 82.5l11.7 2.2z" fill-rule="evenodd" clip-rule="evenodd" fill="url(#SVGID_6_)"/><linearGradient id="SVGID_7_" gradientUnits="userSpaceOnUse" x1="261.736" y1="166.804" x2="292.632" y2="166.804"><stop offset="0" stop-color="#b3e0fd"/><stop offset=".5" stop-color="#d7ecfd"/><stop offset="1" stop-color="#f0f8ff"/></linearGradient><path d="M288.1 129c.3-.4.3-.9-.1-1.2-.4-.3-.9-.3-1.2.1 0 0-1.9 2.2-4.5 6.4l.5-5c0-.3-.2-.6-.5-.6s-.6.2-.6.5l-.7 7.5c-1.2 2-2.4 4.3-3.7 7l-.4-6.1c0-.3-.3-.6-.6-.5-.3 0-.6.3-.5.6l.6 8.2c-1.3 2.8-2.6 5.9-3.9 9.3l-.6-5.3c0-.3-.3-.6-.6-.5-.3 0-.6.3-.5.6l.8 7.7c-1.2 3.6-2.4 7.5-3.4 11.7l-1.1-5c-.1-.3-.4-.5-.7-.4-.3.1-.5.4-.4.7l1.6 7.4c-.9 4-1.6 8.2-2.1 12.7l-1.3-2.7c-.1-.3-.5-.4-.8-.3-.3.1-.4.5-.3.8l2.1 4.4c-.4 3.4-.6 7-.7 10.7l-1.4-2.7c-.2-.3-.5-.4-.8-.2-.3.1-.4.5-.2.8l2.4 4.6c0 1.8 0 3.7.1 5.6l1.8.3c-.1-1.9-.1-3.8-.1-5.6 1-1.1 3.4-3.6 5-4.2.3-.1.4-.5.3-.8-.1-.3-.5-.4-.8-.3-1.3.6-3.2 2.3-4.5 3.6 0-1.4.1-2.9.1-4.3 1.1-.9 3.9-3.2 6.4-4.2.3-.1.5-.5.3-.8-.1-.3-.5-.5-.8-.3-2.1.8-4.4 2.5-5.9 3.7.2-2.9.4-5.6.8-8.3 1.9-1 7.9-4.1 10.9-4.7.3-.1.5-.4.5-.7-.1-.3-.4-.5-.7-.5-2.9.6-8.1 3.2-10.5 4.4.4-2.9.8-5.6 1.4-8.3 1.8-1 7.9-4.3 13.1-5.4.3-.1.5-.4.5-.7-.1-.3-.4-.5-.7-.5-4.7 1-10 3.7-12.6 5.1.3-1.3.6-2.6.9-3.8 1.8-1.2 8-4.9 15.6-6.9.3-.1.5-.4.4-.7-.1-.3-.4-.5-.7-.4-6.7 1.7-12.3 4.8-14.9 6.4 1.2-4.5 2.5-8.6 3.9-12.4 2.5-.8 12.3-4.1 17.5-4.7.3 0 .6-.3.5-.7 0-.3-.3-.6-.7-.5-4.8.6-13.3 3.3-16.8 4.4 1.1-2.8 2.2-5.4 3.3-7.7 2.5-.6 11.6-2.7 13.9-3.1.3-.1.5-.4.5-.7-.1-.3-.4-.5-.7-.5-2.1.3-9.7 2.1-13 2.9 1.5-3 2.9-5.7 4.2-7.9 2.4-.4 8.1-1.3 9.5-1.5.3 0 .6-.3.5-.6 0-.3-.3-.6-.6-.5-1.3.1-5.9.9-8.6 1.3 2.3-4.3 4.3-6.7 4.3-6.7z" fill-rule="evenodd" clip-rule="evenodd" fill="url(#SVGID_7_)"/></g><g><linearGradient id="SVGID_8_" gradientUnits="userSpaceOnUse" x1="225.824" y1="218.808" x2="343.078" y2="218.808"><stop offset="0" stop-color="#f0f8ff"/><stop offset=".5" stop-color="#d7ecfd"/><stop offset="1" stop-color="#b3e0fd"/></linearGradient><path d="M248.6 297.2c4.9-11.9 16.3-32.3 41.3-55.5 39.5-36.7 66.2-80 46.6-98-19.2-17.7-77 36.6-110.7 149.1 9 2.5 16.5 3.9 22.8 4.4z" fill-rule="evenodd" clip-rule="evenodd" fill="url(#SVGID_8_)"/><linearGradient id="SVGID_9_" gradientUnits="userSpaceOnUse" x1="232.876" y1="221.666" x2="333.068" y2="221.666"><stop offset="0" stop-color="#b3e0fd"/><stop offset=".5" stop-color="#d7ecfd"/><stop offset="1" stop-color="#f0f8ff"/></linearGradient><path d="M237.8 289.9c1.2-.3 4.6-1 9.2-.7.3 0 .6-.2.6-.5s-.2-.6-.5-.6c-4.1-.3-7.2.2-8.8.5.6-1.9 1.3-3.7 1.9-5.5 2-.5 8.4-2 10.9-2.3.3-.1.5-.4.5-.7 0-.3-.4-.5-.7-.5-2.2.3-7.7 1.6-10.2 2.2 1.2-3.4 2.4-6.7 3.6-9.9 1.9-.4 8-1.5 14.8-2 .3 0 .6-.3.5-.6 0-.3-.3-.6-.6-.5-6.2.5-11.7 1.4-14.2 1.9 1.3-3.3 2.5-6.4 3.8-9.5 2.7-.5 11.3-2.1 21.1-2.8.3 0 .6-.3.5-.6 0-.3-.3-.6-.6-.5-9.1.7-17.2 2.1-20.5 2.7 1.7-4 3.4-7.9 5.1-11.7 2.7-.7 14.2-3.4 23.4-2.5.3 0 .6-.2.6-.5s-.2-.6-.5-.6c-8.6-.9-19 1.4-22.9 2.3 2.1-4.6 4.3-9 6.5-13.2 3.8-.6 19.3-2.7 27.5.9.3.1.6 0 .8-.3.1-.3 0-.6-.3-.8-7.9-3.4-22.3-1.8-27.3-1.1 2.3-4.4 4.6-8.6 7-12.6 2.9 0 15 .4 27 3.5.3.1.6-.1.7-.4.1-.3-.1-.6-.4-.7-11.4-3-22.9-3.5-26.7-3.6 1.4-2.3 2.8-4.6 4.1-6.8 2.8 0 14.6.2 31 4.2.3.1.6-.1.7-.4.1-.3-.1-.6-.4-.7-15.3-3.8-26.7-4.2-30.5-4.2 3.3-5.2 6.5-9.9 9.7-14.3 3.6.4 21.7 2.5 31.8 6.3.3.1.6 0 .8-.3.1-.3 0-.6-.3-.8-9.7-3.6-26.6-5.7-31.4-6.3 1.9-2.5 3.7-4.9 5.5-7.2 3.1.4 17.2 2.2 30.6 6.6.3.1.6-.1.7-.4.1-.3-.1-.6-.4-.7-12.7-4.1-25.9-6-30.1-6.6 4.3-5.2 8.4-9.8 12.2-13.7 3 .1 16.4.6 27.2 4.1.3.1.6-.1.7-.4.1-.3-.1-.6-.4-.7-9.9-3.2-22-4-26.4-4.1 1.6-1.6 3.1-3.1 4.6-4.4 2.3-.3 11.1-1 22.9.9.3.1.6-.2.7-.5.1-.3-.2-.6-.5-.7-10.1-1.6-18-1.3-21.7-1.1 12.1-10.9 20.2-14.7 20.3-14.7.4-.2.6-.7.4-1.2-.2-.4-.7-.6-1.2-.4 0 0-3.6 1.7-9.5 6 1.3-2.6 3.2-6.3 3.8-6.8.2-.2.2-.6 0-.8-.2-.2-.6-.2-.8 0-.9.9-4 7.1-5 9.2-2.4 1.8-5.1 4-8 6.6l3.3-12.5c.1-.3-.1-.6-.4-.7-.3-.1-.6.1-.7.4l-3.7 14.2c-2 1.8-4.1 3.8-6.3 6.1l3.3-14.7c.1-.3-.1-.6-.4-.7-.3-.1-.6.1-.7.4l-3.7 16.5c-3.3 3.4-6.7 7.2-10.3 11.5l2.4-15c.1-.3-.2-.6-.5-.7-.3-.1-.6.2-.7.5l-2.7 17c-1.6 2-3.3 4.1-4.9 6.3l1.8-13.4c0-.3-.2-.6-.5-.7-.3 0-.6.2-.7.5l-2.1 15.6c-3.1 4.1-6.2 8.7-9.3 13.5l.8-12.9c0-.3-.2-.6-.6-.6-.3 0-.6.2-.6.5l-.9 15c-1.2 2-2.5 4-3.7 6.1l-.1-9.7c0-.3-.3-.6-.6-.6s-.6.3-.6.6l.1 11.7c-2.3 3.9-4.6 8-6.9 12.4l-.4-10.8c0-.3-.3-.6-.6-.6s-.6.3-.6.6l.5 12.8c-2 3.8-4 7.9-5.9 12.1l-.8-9.5c0-.3-.3-.6-.6-.5-.3 0-.6.3-.5.6l1 11.5c-1.7 3.7-3.4 7.5-5.1 11.5L246 250c-.1-.3-.4-.5-.7-.5-.3.1-.5.4-.5.7l2.1 10c-1.2 2.9-2.4 5.9-3.6 8.9l-2.4-6.9c-.1-.3-.4-.5-.7-.4-.3.1-.5.4-.4.7l2.9 8.2c-1.1 2.8-2.1 5.7-3.2 8.6l-1.8-4.4c-.1-.3-.5-.4-.8-.3-.3.1-.4.5-.3.8l2.3 5.6c-.8 2.2-1.6 4.5-2.3 6.7l-2.7-3.4c-.2-.3-.6-.3-.8-.1-.3.2-.3.6-.1.8l3.2 4-1.8 5.7c.6.1 1.2.3 1.7.4.6-1.6 1.1-3.4 1.7-5.2z" fill-rule="evenodd" clip-rule="evenodd" fill="url(#SVGID_9_)"/></g><g><path class="st9" d="M262.1 35.7c0-.7.6-1.2 1.2-1.2.7 0 1.2.6 1.2 1.2v2.9h2.9c.7 0 1.2.6 1.2 1.2 0 .7-.6 1.2-1.2 1.2h-2.9v2.9c0 .7-.6 1.2-1.2 1.2-.7 0-1.2-.6-1.2-1.2V41h-2.9c-.7 0-1.2-.6-1.2-1.2 0-.7.6-1.2 1.2-1.2h2.9v-2.9zM74.6 129.7c0-.7.6-1.2 1.2-1.2.7 0 1.2.6 1.2 1.2v2.9h2.9c.7 0 1.2.6 1.2 1.2 0 .7-.6 1.2-1.2 1.2H77v2.9c0 .7-.6 1.2-1.2 1.2-.7 0-1.2-.6-1.2-1.2V135h-2.9c-.7 0-1.2-.6-1.2-1.2 0-.7.6-1.2 1.2-1.2h2.9v-2.9zM30.7 313.7c0-.7.6-1.2 1.2-1.2.7 0 1.2.6 1.2 1.2v2.9H36c.7 0 1.2.6 1.2 1.2 0 .7-.6 1.2-1.2 1.2h-2.9v2.9c0 .7-.6 1.2-1.2 1.2-.7 0-1.2-.6-1.2-1.2V319h-2.9c-.7 0-1.2-.6-1.2-1.2 0-.7.6-1.2 1.2-1.2h2.9v-2.9zM382.9 160.4c0-.7.6-1.2 1.2-1.2.7 0 1.2.6 1.2 1.2v2.9h2.9c.7 0 1.2.6 1.2 1.2 0 .7-.6 1.2-1.2 1.2h-2.9v2.9c0 .7-.6 1.2-1.2 1.2-.7 0-1.2-.6-1.2-1.2v-2.9H380c-.7 0-1.2-.6-1.2-1.2 0-.7.6-1.2 1.2-1.2h2.9v-2.9zM358 3.8c0-.7.6-1.2 1.2-1.2.7 0 1.2.6 1.2 1.2v2.9h2.9c.7 0 1.2.6 1.2 1.2 0 .7-.6 1.2-1.2 1.2h-2.9V12c0 .7-.6 1.2-1.2 1.2-.7 0-1.2-.6-1.2-1.2V9.1h-2.9c-.7 0-1.2-.6-1.2-1.2 0-.7.6-1.2 1.2-1.2h2.9V3.8zM37.3 13.7c0-.7.6-1.2 1.2-1.2.7 0 1.2.6 1.2 1.2v2.9h2.9c.7 0 1.2.6 1.2 1.2 0 .7-.6 1.2-1.2 1.2h-2.9v2.9c0 .7-.6 1.2-1.2 1.2-.7 0-1.2-.6-1.2-1.2V19h-2.9c-.7 0-1.2-.6-1.2-1.2 0-.7.6-1.2 1.2-1.2h2.9v-2.9zM18.2 375.1c0-.7.6-1.2 1.2-1.2s1.2.6 1.2 1.2v2.9h2.9c.7 0 1.2.6 1.2 1.2s-.6 1.2-1.2 1.2h-2.9v2.9c0 .7-.6 1.2-1.2 1.2s-1.2-.6-1.2-1.2v-2.9h-2.9c-.7 0-1.2-.6-1.2-1.2s.6-1.2 1.2-1.2h2.9v-2.9zM295.3 96.7c1.2 0 2.2-1 2.2-2.2 0-1.2-1-2.2-2.2-2.2-1.2 0-2.2 1-2.2 2.2 0 1.2 1 2.2 2.2 2.2zM304.8 96.7c1.2 0 2.2-1 2.2-2.2 0-1.2-1-2.2-2.2-2.2-1.2 0-2.2 1-2.2 2.2 0 1.2 1 2.2 2.2 2.2zM314.3 96.7c1.2 0 2.2-1 2.2-2.2 0-1.2-1-2.2-2.2-2.2-1.2 0-2.2 1-2.2 2.2 0 1.2 1 2.2 2.2 2.2zM323.9 96.7c1.2 0 2.2-1 2.2-2.2 0-1.2-1-2.2-2.2-2.2-1.2 0-2.2 1-2.2 2.2 0 1.2 1 2.2 2.2 2.2zM333.4 96.7c1.2 0 2.2-1 2.2-2.2 0-1.2-1-2.2-2.2-2.2-1.2 0-2.2 1-2.2 2.2 0 1.2 1 2.2 2.2 2.2zM300.6 105.4c1.2 0 2.2-1 2.2-2.2 0-1.2-1-2.2-2.2-2.2-1.2 0-2.2 1-2.2 2.2.1 1.2 1 2.2 2.2 2.2zM319.7 105.4c1.2 0 2.2-1 2.2-2.2 0-1.2-1-2.2-2.2-2.2-1.2 0-2.2 1-2.2 2.2 0 1.2 1 2.2 2.2 2.2zM329.2 105.4c1.2 0 2.2-1 2.2-2.2 0-1.2-1-2.2-2.2-2.2-1.2 0-2.2 1-2.2 2.2.1 1.2 1 2.2 2.2 2.2zM117.9 4.4c1.2 0 2.2-1 2.2-2.2 0-1.2-1-2.2-2.2-2.2-1.2 0-2.2 1-2.2 2.2 0 1.2 1 2.2 2.2 2.2zM127.4 4.4c1.2 0 2.2-1 2.2-2.2 0-1.2-1-2.2-2.2-2.2-1.2 0-2.2 1-2.2 2.2 0 1.2 1 2.2 2.2 2.2zM137 4.4c1.2 0 2.2-1 2.2-2.2 0-1.2-1-2.2-2.2-2.2-1.2 0-2.2 1-2.2 2.2 0 1.2 1 2.2 2.2 2.2zM146.5 4.4c1.2 0 2.2-1 2.2-2.2 0-1.2-1-2.2-2.2-2.2-1.2 0-2.2 1-2.2 2.2 0 1.2 1 2.2 2.2 2.2zM156 4.4c1.2 0 2.2-1 2.2-2.2 0-1.2-1-2.2-2.2-2.2-1.2 0-2.2 1-2.2 2.2 0 1.2 1 2.2 2.2 2.2zM123.3 13.1c1.2 0 2.2-1 2.2-2.2 0-1.2-1-2.2-2.2-2.2-1.2 0-2.2 1-2.2 2.2 0 1.2 1 2.2 2.2 2.2zM142.3 13.1c1.2 0 2.2-1 2.2-2.2 0-1.2-1-2.2-2.2-2.2-1.2 0-2.2 1-2.2 2.2.1 1.2 1 2.2 2.2 2.2zM151.9 13.1c1.2 0 2.2-1 2.2-2.2 0-1.2-1-2.2-2.2-2.2-1.2 0-2.2 1-2.2 2.2 0 1.2 1 2.2 2.2 2.2zM353.9 373.4c0-.7.6-1.2 1.2-1.2s1.2.6 1.2 1.2v2.9h2.9c.7 0 1.2.6 1.2 1.2s-.6 1.2-1.2 1.2h-2.9v2.9c0 .7-.6 1.2-1.2 1.2s-1.2-.6-1.2-1.2v-2.9H351c-.7 0-1.2-.6-1.2-1.2s.6-1.2 1.2-1.2h2.9v-2.9z"/></g><g><defs><path id="SVGID_10_" d="M50.9 39.8h322.3v322.3H50.9z"/></defs><clipPath id="SVGID_11_"><use xlink:href="#SVGID_10_" overflow="visible"/></clipPath><g clip-path="url(#SVGID_11_)"><path class="st11" d="M206.8 188.9l53.7 3.1c9 .5 15.9 8.3 15.4 17.3l-5 85.9c-.5 9-8.3 15.9-17.3 15.4l-53.7-3.1c-9-.5-15.9-8.3-15.4-17.3l5-85.9c.5-9 8.3-16 17.3-15.4z"/><path class="st12" d="M100.1 208.9s-2.3-7.3-4.2-9.5c-1.9-2.2-7.8-3.3-9.6-7.1-1.9-3.9-5.2-10.4 2.7-13.1 7.9-2.7 13.3-3.4 14.3-.6 1.1 2.8 3.8 7.5 3.4 10.7-.3 3.1-2.2 8.9 1.5 14.8 3.8 5.8-8.1 4.8-8.1 4.8z"/><path class="st12" d="M186 197.2c-1 1.2-2 2.5-3 3.9-7.9 10.7-19.7 29.9-30.9 43.4-12.1 14.4-10 17.9-19.4 2.6-9.8-16.2-20.2-34.6-23.7-41.5-.5-1.1-2.9-6.2-4.9-4.6-.9.8 1 4-1.1 5-2.1 1.1-1.4-2.3-2.8 2.9 4.4 11.7 28 57.3 31 60.9 3.1 3.8 14.5 5 17.7 1.7l.4-.2c9.8-9.4 26.2-20.5 38.9-36.3 6.2-7.6 10.4-15.1 13.7-22-5.7-4.8-11.3-10.7-15.9-15.8zM318.4 327.2c.1.4.3.7.3 1.1.4 2.4 3 16.5 3.3 19.5.3 3-3.5 12-7.6 13s-11.8-6.8-7.3-16.7c4.4-9.6 4-17.1 3.3-26.5-.9-11.7-2.9-26.9-5.1-35.7-3.3-13.1-16.1-27.6-16.1-27.6l13.6-9.6s7.7 13.5 11.6 25.9c3.9 12.4 4 56.6 4 56.6z"/><path class="st13" d="M318.4 327.2c.1.4.3.7.3 1.1.4 2.4 3 16.5 3.3 19.5.3 3-3.5 12-7.6 13-2.3.6-5.8-1.7-7.6-5.5l1.9-1.6s4.1 5.2 7.7 2c3.7-3.2 3.6-11.9 1.8-19.7-1.7-7.8-2-9.8-1.8-22.2.2-12.5-1.8-39-3.4-43.4-1.4-4-7.3-13.6-18-8.4-3.2-4.5-5.9-7.5-5.9-7.5l13.6-9.6s7.7 13.5 11.6 25.9c4 12.2 4.1 56.4 4.1 56.4zM231.3 156.2l-.3 8.2v19.3c0 1.9 2.4 3.4 4.4 4.9 7.2 9-.7 18-6 18.8-5.3.8-30.9-5.4-32.6-6.8-1.2-1 6.5-10.3 5.8-13.3.6-.2-.1 0 .5-.2 1.5-.5 2.8-1.2 3.7-2.1 2.8-3 2.7-16.6-.1-20.2-3-3.6 24.6-8.6 24.6-8.6zM98.2 203.7l-.1-.2V202.4c-.6-1.3-1.2-2.4-1.8-3.1-1.9-2.2-7.8-3.3-9.6-7.1-1.9-3.9-5.2-10.4 2.7-13.1 1.3-.4 2.5-.8 3.6-1.2-.5.1-7.6 2.6-3.9 9.5 3.8 7.1 9.4 7.7 13.1 4 1.4-1.5 3.1-3.1 4.8-4.3.1.7.2 1.4.1 2-.2 1.5-.7 3.6-.8 6-1.3-.3-2.7-.1-3.8 1.6-1.1 1.6-1.6 3.6-1 4.9l1.9 4.3c5.1 11.6 19.6 43.7 28 54.3 9.1 11.6 18.3 5.6 12.8-5.5 1.8-2.1 4.3-5.6 8.2-10.3 6.8-8.1 13.7-18.3 19.9-27.4.8 7.7 3.8 17.4 7.4 27.8-10.8 10.8-22.5 19.2-30.1 26.5l-.4.2c-3.2 3.3-14.6 2.1-17.7-1.7-3-3.6-26.6-49.3-31-60.9-.4 0-1.2-2.7-2.3-5.2z"/><path d="M186 197.2c-1 1.2-2 2.5-3 3.9-7.9 10.7-20.8 26.9-32.1 40.3-3.1 3.7-5.2 6.6-6.9 8.8 0 0-.6 1.4.4 1.6 1 .3 7.1 4.8 9.2 8.7 2.1 3.9 1.5 6.9.5 7.9 10.5-9.3 24.4-21.5 34-33.3 6.2-7.6 10.4-15.1 13.7-22-5.6-4.9-11.2-10.8-15.8-15.9z" fill-rule="evenodd" clip-rule="evenodd" fill="#f2efef"/><path class="st15" d="M186 197.2c-1 1.2-2 2.5-3 3.9-2.1 2.9-8.5 11.1-11.2 14.6 1.7 10.9-.2 28.9-9.6 39.5-2.4 2.7-4.9 5.4-7.5 7.8.8 2.7.3 4.7-.5 5.4 10.5-9.3 24.4-21.5 34-33.3 6.2-7.6 10.4-15.1 13.7-22-5.7-4.9-11.3-10.8-15.9-15.9z"/><path class="st12" d="M102.9 192.5l3.8-2.6s1.5-2.6 5.8-3.5c4.4-.9-1.8-9.7-7.2-3.4-6.4 7.4-2.4 9.5-2.4 9.5z"/><path class="st13" d="M102.9 192.5l3.8-2.6s1.5-2.6 5.8-3.5c.9-.2 1.3-.7 1.4-1.3-3.6-1.5-8.5 2.6-12 6.2.4.9 1 1.2 1 1.2z"/><path class="st16" d="M262.6 361.8c-5.6 27.7-90 17.9-95.9 7.2-2-3.6-.8-8.9.2-13.6 9.3-46-7.6-163.6 35.9-168.6-2.2 14.9 15.1 23.9 32.6 1.7 8.2 1.5 21 8.5 21 8.5 6.5 3.3 10.6 5.5 11.6 12.9 4 27-12.4 59.3-12.7 86.9-.3 25.7 12 41.6 7.3 65z"/><path class="st15" d="M262.6 361.8c-2.4 12.1-20 17.1-39.4 17.9 28.9-24.7 15-82 18.8-126.1 3-34.5-6.6-50.2-14.3-57.1 2.5-2 5.1-4.6 7.7-7.9 8.2 1.5 21 8.5 21 8.5 6.5 3.3 10.6 5.5 11.6 12.9 4 27-12.4 59.3-12.7 86.9-.3 25.6 12 41.5 7.3 64.9z"/><path d="M209.8 200l2.6-.5.7 2.4.9-2.3s4.1 1.4 4.2 1.6c0 .2.2 2.7-1.1 3.2-1.2.5-4.8.7-5.8-.1-1.2-.9-1.5-4.3-1.5-4.3z" fill-rule="evenodd" clip-rule="evenodd" fill="#dbd4d6"/><path class="st18" d="M233.9 185.9s-5.7 12.2-20 13.7c0 0 3.6 5.3 4.6 9.1.9 3.8 14.7-6.2 19.3-19.5-.1-.1-3-4.1-3.9-3.3zM208.6 207.4c-2.6.2-8.4-6.4-7.2-20.4 0 0 1.7-1 3.6-.9 0 0-1.8 8 7.3 13.3.1 0-3.9 4.7-3.7 8z"/><path class="st16" d="M247.4 203.5l10.2-5.8s31.5 17.5 49.9 47.5c1.5 2.5 1 3.5-2.3 5.3-4.2 2.3-10.9 7.7-12.5 8.7-1.6 1-3.6.6-3.6.6-7.3-6.7-17.6-13.1-32.2-17.2 0 0-14-15-9.5-39.1z"/><path class="st15" d="M247.4 203.5l10.2-5.8s3.5 1.9 8.8 5.6c-3.5 2.6-6.5 7.1-5.9 14.7 1.2 15.3 25.3 42.2 45.1 24.2.6 1 1.3 2 1.9 3 1.5 2.5 1 3.5-2.3 5.3-4.2 2.3-10.9 7.7-12.5 8.7-1.6 1-3.6.6-3.6.6-7.3-6.7-17.6-13.1-32.2-17.2 0 0-14-15-9.5-39.1z"/><path class="st19" d="M241.4 191.6c-3.1 10.7-20.2 75.9 15.8 87.6 0 0 4.6 1 6 1.2 0 0 1.6-.4.8-2.1 0 0-36-8.3-12.9-83.9 0 0 .9-1.9-.3-2.8-2-1.7-8.2-4.1-9.4 0zM199.8 187.4s-23.9 33.9-28.5 74.8c0 0-2.9-32.4 13.9-62.3 1.1-1.9 5.4-9.5 7-10.6 1.8-1.3 6.9-4 7.6-1.9z"/><path d="M177.4 97.6s-2.1 4.2-2 8c.1 3.8 8.2 5.4 10.9 5.4 2.8 0 77.7 2.8 77.7 2.8s2.3-.4 2.3-2.7c0-2.2-12.8-30.2-12.8-30.2l-76.1 16.7z" fill-rule="evenodd" clip-rule="evenodd" fill="#1d0100"/><path class="st21" d="M179.6 142.7c6.6 0 11.9-5.4 11.9-11.9 0-6.6-5.4-11.9-11.9-11.9-6.6 0-11.9 5.4-11.9 11.9s5.4 11.9 11.9 11.9zM261.6 142.7c6.6 0 11.9-5.4 11.9-11.9 0-6.6-5.4-11.9-11.9-11.9-6.6 0-11.9 5.4-11.9 11.9-.1 6.5 5.3 11.9 11.9 11.9z"/><path class="st12" d="M220.8 58.2c22.5 0 40.8 18.4 40.8 40.8v37.1c0 22.5-18.4 40.8-40.8 40.8-22.5 0-40.8-18.4-40.8-40.8V99c-.1-22.5 18.3-40.8 40.8-40.8z"/><path class="st13" d="M238.2 62.1c13.8 6.6 23.4 20.7 23.4 36.9v37.1c0 22.5-18.4 40.8-40.8 40.8-4.7 0-9.2-.8-13.4-2.3 38.6-.4 42.9-27 42.9-49.6s-7.5-20.2-15.9-20.2h-54.3v-8.4c13.5-11.4 37.8-30.6 50.1-33.1 17.5-3.5 5.5-.9 8-1.2z"/><path class="st19" d="M256.9 98.4v12.8c0 5 .9 6.5 3.4 8.3 0 0-1.5 4.9 1.3 6 0 0 0-2.6 2.2-3.8v-31c-1.8 2-4.1 3.7-7.2 4.9.2.8.3 1.8.3 2.8z"/><path class="st22" d="M198 125.2c2.2 0 4 1.8 4 4v5.2c0 2.2-1.8 4-4 4s-4-1.8-4-4v-5.2c0-2.2 1.8-4 4-4zM243.6 125.2c2.2 0 4 1.8 4 4v5.2c0 2.2-1.8 4-4 4s-4-1.8-4-4v-5.2c0-2.2 1.8-4 4-4zM192.3 115.2h11.3c1.2 0 2.2 1 2.2 2.2 0 1.2-1 2.2-2.2 2.2h-11.3c-1.2 0-2.2-1-2.2-2.2.1-1.2 1-2.2 2.2-2.2zM237.9 115.2h11.3c1.2 0 2.2 1 2.2 2.2 0 1.2-1 2.2-2.2 2.2h-11.3c-1.2 0-2.2-1-2.2-2.2.1-1.2 1-2.2 2.2-2.2z"/><path class="st18" d="M233.8 147.9c0 7.2-5.8 13-13 13s-13-5.8-13-13c0-1.2 1-2.2 2.2-2.2h21.4c1.3 0 2.3 1 2.4 2.2z"/><path class="st21" d="M195.4 152.8c3.3 0 5.9-2.7 5.9-5.9 0-3.3-2.7-5.9-5.9-5.9-3.3 0-5.9 2.7-5.9 5.9s2.6 5.9 5.9 5.9zM246.2 152.8c3.3 0 5.9-2.7 5.9-5.9 0-3.3-2.7-5.9-5.9-5.9-3.3 0-5.9 2.7-5.9 5.9s2.6 5.9 5.9 5.9z"/><path class="st19" d="M184.9 96.2v9.2c0 3.6-.7 4.7-2.5 6 0 0-.5 3.1-2.5 3.9L178.1 91c1.3 1.5 4.7 2.2 7 3-.1.8-.2 1.5-.2 2.2z"/><path class="st19" d="M266.2 111.1c-2.5-3-5.7-5.5-9.3-7.6l-.2-.1c-.4-.2-.8-.4-1.1-.6-7.2-4.1-9.6-9.5-9.6-9.5-3.4 2.3-17.3 2-22.6 1.8-.6 0-1.2-.1-1.8-.1h-.2c-23.3-.9-45.9 4.7-46 10.6-20.2-42.5 30.3-83.4 75.3-37 23.7 1.2 21.6 25.6 15.5 42.5z"/><path class="st11" d="M170.8 84.2c.4-7.4 2.8-14.2 6.7-19.9 10.9 6.6 37.1 18 66.6-1.8 1.4 1.2 2.8 2.5 4.2 3.8-9.5 10.1-34.4 29.6-77.5 17.9z"/><path d="M266.2 111.1c-2.5-3-5.7-5.5-9.3-7.6l-.2-.1c-.4-.2-.8-.4-1.1-.6-7.2-4.1-9.6-9.5-9.6-9.5-3.4 2.3-17.3 2-22.6 1.8-.6 0-1.2-.1-1.8-.1h-.2c-2.2-.1-4.3-.1-6.5-.1 30-1.2 44.4-11.8 50.9-19.6 7 8.6 4.7 24 .4 35.8z" fill-rule="evenodd" clip-rule="evenodd" fill="#37140e"/></g></g></svg>