<svg id="Layer_1" data-name="Layer 1" xmlns="http://www.w3.org/2000/svg" xmlns:xlink="http://www.w3.org/1999/xlink" viewBox="0 0 791.6 399.92"><defs><style>.cls-1{fill:url(#linear-gradient);}.cls-2{fill:url(#linear-gradient-2);}.cls-3{fill:url(#linear-gradient-3);}.cls-4{fill:url(#linear-gradient-4);}.cls-5{fill:url(#linear-gradient-5);}.cls-6{fill:url(#linear-gradient-6);}.cls-7{opacity:0.3;}.cls-8{fill:url(#linear-gradient-7);}.cls-9{fill:url(#linear-gradient-8);}.cls-10{fill:url(#linear-gradient-9);}.cls-11{fill:url(#linear-gradient-10);}.cls-12{fill:url(#linear-gradient-11);}.cls-13{fill:url(#linear-gradient-12);}.cls-14{fill:url(#linear-gradient-13);}.cls-15{fill:url(#linear-gradient-14);}.cls-16{fill:url(#linear-gradient-15);}.cls-17{fill:url(#linear-gradient-16);}.cls-18{fill:url(#linear-gradient-17);}.cls-19{fill:url(#linear-gradient-18);}.cls-20{fill:url(#linear-gradient-19);}.cls-21{fill:url(#linear-gradient-20);}.cls-22{fill:url(#linear-gradient-21);}.cls-23{fill:url(#linear-gradient-22);}.cls-24{fill:url(#linear-gradient-23);}.cls-25{fill:url(#linear-gradient-24);}.cls-26{fill:url(#linear-gradient-25);}.cls-27{fill:url(#linear-gradient-26);}.cls-28{fill:url(#linear-gradient-27);}.cls-29{fill:url(#linear-gradient-28);}.cls-30{fill:url(#linear-gradient-29);}.cls-31{fill:url(#linear-gradient-30);}.cls-32{fill:url(#linear-gradient-31);}.cls-33{fill:url(#linear-gradient-32);}.cls-34{fill:url(#linear-gradient-33);}.cls-35{fill:url(#linear-gradient-34);}.cls-36{fill:url(#linear-gradient-35);}.cls-37{fill:url(#linear-gradient-36);}.cls-38{fill:url(#linear-gradient-37);}.cls-39{fill:url(#linear-gradient-38);}.cls-40{fill:url(#linear-gradient-39);}.cls-41{fill:url(#linear-gradient-40);}.cls-42{fill:url(#linear-gradient-41);}.cls-43{fill:url(#linear-gradient-42);}.cls-44{fill:url(#linear-gradient-43);}.cls-45{fill:url(#linear-gradient-44);}.cls-46{fill:url(#linear-gradient-45);}.cls-47{fill:url(#linear-gradient-46);}.cls-48{fill:url(#linear-gradient-47);}.cls-49{fill:url(#linear-gradient-48);}.cls-50{fill:url(#linear-gradient-49);}.cls-51{fill:url(#linear-gradient-50);}.cls-52{fill:url(#linear-gradient-51);}.cls-53{fill:url(#linear-gradient-52);}.cls-54{fill:url(#linear-gradient-53);}.cls-55{fill:url(#linear-gradient-54);}.cls-56{fill:url(#linear-gradient-55);}.cls-57{fill:url(#linear-gradient-56);}.cls-58{fill:url(#linear-gradient-57);}.cls-59{fill:#a7c4e4;}.cls-60{fill:#2c4482;}.cls-61{fill:url(#linear-gradient-58);}.cls-62{fill:url(#linear-gradient-59);}.cls-63{fill:#8db0da;}.cls-64{fill:#6792b7;}.cls-65{fill:#52517b;}.cls-66{fill:#d1e7f4;}.cls-67{fill:#092140;}.cls-68{fill:#292951;}.cls-69{fill:#f1ce41;}.cls-70{fill:#ef832e;}.cls-71{fill:#e73d25;}.cls-72{fill:#f2f2f2;}.cls-73{fill:#d64377;}.cls-74{fill:#45446c;}.cls-75{fill:#81a4c6;}.cls-76{fill:#2c2b57;}.cls-77{fill:url(#linear-gradient-60);}.cls-78{fill:url(#linear-gradient-61);}.cls-79{fill:#f0a32f;}.cls-80{fill:#fe912a;}.cls-81{fill:#bc4074;}.cls-82{fill:#ffaa81;}.cls-83{fill:url(#linear-gradient-62);}.cls-84{fill:url(#linear-gradient-63);}.cls-85{fill:url(#linear-gradient-64);}.cls-86{fill:url(#linear-gradient-65);}.cls-87{fill:#492817;}.cls-88{fill:url(#linear-gradient-66);}.cls-89{fill:#230e04;}.cls-90{fill:url(#linear-gradient-67);}.cls-91{fill:url(#linear-gradient-68);}.cls-92{fill:url(#linear-gradient-69);}.cls-93{fill:#ef487c;}.cls-94{fill:#60c0fd;}.cls-95{fill:#34b2e4;}.cls-96{fill:#7a8eff;}.cls-97{fill:#1f4a6f;}.cls-98{fill:#bd0006;}.cls-99{fill:#555584;}.cls-100{fill:#4367c7;}.cls-101{fill:url(#linear-gradient-70);}.cls-102{fill:#efe0d3;}.cls-103{fill:#e2d0c3;}.cls-104{fill:#7f509f;}.cls-105,.cls-112{fill:#fff;}.cls-105{opacity:0.2;}.cls-106{fill:url(#linear-gradient-71);}.cls-107{fill:url(#linear-gradient-72);}.cls-108{fill:#ee9833;}.cls-109{fill:url(#linear-gradient-73);}.cls-110{fill:#99334c;}.cls-111{fill:url(#linear-gradient-74);}.cls-113{fill:url(#linear-gradient-75);}</style><linearGradient id="linear-gradient" x1="924.75" y1="3805.56" x2="1107.74" y2="3805.56" gradientTransform="matrix(0.17, 0.99, -0.99, 0.17, 3973.93, -1528.36)" gradientUnits="userSpaceOnUse"><stop offset="0" stop-color="#b3e0fd"/><stop offset="0.5" stop-color="#d7ecfd"/><stop offset="1" stop-color="#f0f8ff"/></linearGradient><linearGradient id="linear-gradient-2" x1="-2618.06" y1="-1369.7" x2="-2497.48" y2="-1490.28" gradientTransform="matrix(0.85, -0.53, 0.53, 0.85, 3230.69, 87.67)" xlink:href="#linear-gradient"/><linearGradient id="linear-gradient-3" x1="-3051.92" y1="345.25" x2="-3151.23" y2="266.49" gradientTransform="translate(3241.97)" xlink:href="#linear-gradient"/><linearGradient id="linear-gradient-4" x1="-3098.37" y1="393.75" x2="-3167.45" y2="335.79" gradientTransform="translate(3241.97)" xlink:href="#linear-gradient"/><linearGradient id="linear-gradient-5" x1="6307.02" y1="395" x2="6236.59" y2="335.9" gradientTransform="matrix(-1, 0, 0, 1, 6547.69, 0)" xlink:href="#linear-gradient"/><linearGradient id="linear-gradient-6" x1="5928.5" y1="388.06" x2="5995.06" y2="195.03" gradientTransform="matrix(-1, 0, 0.17, 1, 6116.3, 0)" xlink:href="#linear-gradient"/><linearGradient id="linear-gradient-7" x1="-3063.34" y1="275.6" x2="-3019.55" y2="275.6" gradientTransform="translate(3241.97)" xlink:href="#linear-gradient"/><linearGradient id="linear-gradient-8" x1="-3020.25" y1="309.77" x2="-2922.43" y2="309.77" gradientTransform="translate(3241.97)" xlink:href="#linear-gradient"/><linearGradient id="linear-gradient-9" x1="-3155.13" y1="309.77" x2="-3019.55" y2="309.77" gradientTransform="translate(3241.97)" xlink:href="#linear-gradient"/><linearGradient id="linear-gradient-10" x1="-3054.37" y1="188.3" x2="-3042.07" y2="188.3" gradientTransform="translate(3241.97)" xlink:href="#linear-gradient"/><linearGradient id="linear-gradient-11" x1="-3081" y1="218.98" x2="-3048.2" y2="218.98" gradientTransform="translate(3241.97)" xlink:href="#linear-gradient"/><linearGradient id="linear-gradient-12" x1="-3046.23" y1="235.43" x2="-3028.25" y2="235.43" gradientTransform="translate(3241.97)" xlink:href="#linear-gradient"/><linearGradient id="linear-gradient-13" x1="-3064.76" y1="286.1" x2="-3037.12" y2="286.1" gradientTransform="translate(3241.97)" xlink:href="#linear-gradient"/><linearGradient id="linear-gradient-14" x1="-3117.55" y1="244.99" x2="-3116.01" y2="244.99" gradientTransform="translate(3241.97)" xlink:href="#linear-gradient"/><linearGradient id="linear-gradient-15" x1="-3091.93" y1="291.62" x2="-3090.91" y2="291.62" gradientTransform="translate(3241.97)" xlink:href="#linear-gradient"/><linearGradient id="linear-gradient-16" x1="-3127.31" y1="277.77" x2="-3106.27" y2="277.77" gradientTransform="translate(3241.97)" xlink:href="#linear-gradient"/><linearGradient id="linear-gradient-17" x1="-3068.36" y1="332.96" x2="-3064" y2="332.96" gradientTransform="translate(3241.97)" xlink:href="#linear-gradient"/><linearGradient id="linear-gradient-18" x1="-3095.2" y1="322" x2="-3077.62" y2="322" gradientTransform="translate(3241.97)" xlink:href="#linear-gradient"/><linearGradient id="linear-gradient-19" x1="-2982.31" y1="248.97" x2="-2970.47" y2="248.97" gradientTransform="translate(3241.97)" xlink:href="#linear-gradient"/><linearGradient id="linear-gradient-20" x1="-2991.14" y1="287.03" x2="-2977.63" y2="287.03" gradientTransform="translate(3241.97)" xlink:href="#linear-gradient"/><linearGradient id="linear-gradient-21" x1="-2990.01" y1="327.62" x2="-2969.61" y2="327.62" gradientTransform="translate(3241.97)" xlink:href="#linear-gradient"/><linearGradient id="linear-gradient-22" x1="-3103.41" y1="338.28" x2="-3088.2" y2="338.28" gradientTransform="translate(3241.97)" xlink:href="#linear-gradient"/><linearGradient id="linear-gradient-23" x1="-3142.61" y1="317.96" x2="-3126.6" y2="317.96" gradientTransform="translate(3241.97)" xlink:href="#linear-gradient"/><linearGradient id="linear-gradient-24" x1="-3087.09" y1="363.07" x2="-3074.5" y2="363.07" gradientTransform="translate(3241.97)" xlink:href="#linear-gradient"/><linearGradient id="linear-gradient-25" x1="-2949.23" y1="316.12" x2="-2945.28" y2="316.12" gradientTransform="translate(3241.97)" xlink:href="#linear-gradient"/><linearGradient id="linear-gradient-26" x1="-2967.92" y1="344.02" x2="-2966.9" y2="344.02" gradientTransform="translate(3241.97)" xlink:href="#linear-gradient"/><linearGradient id="linear-gradient-27" x1="-2959.29" y1="341.59" x2="-2942.71" y2="341.59" gradientTransform="translate(3241.97)" xlink:href="#linear-gradient"/><linearGradient id="linear-gradient-28" x1="-3031.83" y1="321.37" x2="-3018.36" y2="321.37" gradientTransform="translate(3241.97)" xlink:href="#linear-gradient"/><linearGradient id="linear-gradient-29" x1="2927.53" y1="341.67" x2="2818.99" y2="255.58" gradientTransform="matrix(-1, 0, 0, 1, 3498.22, 0)" xlink:href="#linear-gradient"/><linearGradient id="linear-gradient-30" x1="2706.62" y1="347.34" x2="3038.62" y2="347.34" gradientTransform="matrix(-1, 0, 0, 1, 3498.22, 0)" xlink:href="#linear-gradient"/><linearGradient id="linear-gradient-31" x1="-2507.07" y1="81.69" x2="-2639.66" y2="267.49" gradientTransform="translate(3241.97)" xlink:href="#linear-gradient"/><linearGradient id="linear-gradient-32" x1="-2622.1" y1="597.47" x2="-2525.89" y2="501.26" gradientTransform="matrix(0.99, 0.11, -0.11, 0.99, 3217.82, -51.77)" xlink:href="#linear-gradient"/><linearGradient id="linear-gradient-33" x1="-2814.96" y1="273.33" x2="-2888.14" y2="180.78" gradientTransform="translate(3241.97)" xlink:href="#linear-gradient"/><linearGradient id="linear-gradient-34" x1="5937.08" y1="406.14" x2="6037.28" y2="339.12" gradientTransform="matrix(-1, 0, 0, 1, 6403.78, 0)" xlink:href="#linear-gradient"/><linearGradient id="linear-gradient-35" x1="5771.86" y1="377.69" x2="5838.35" y2="353.49" gradientTransform="matrix(-1, 0, 0, 1, 6403.78, 0)" xlink:href="#linear-gradient"/><linearGradient id="linear-gradient-36" x1="-2589.37" y1="1014.48" x2="-2676.09" y2="881.85" gradientTransform="matrix(0.98, 0.18, -0.18, 0.98, 3244.74, -249.53)" xlink:href="#linear-gradient"/><linearGradient id="linear-gradient-37" x1="-2558.53" y1="158.93" x2="-2704.7" y2="354.7" gradientTransform="translate(3241.97)" xlink:href="#linear-gradient"/><linearGradient id="linear-gradient-38" x1="-2721.89" y1="279.82" x2="-2569.17" y2="279.82" gradientTransform="translate(3241.97)" xlink:href="#linear-gradient"/><linearGradient id="linear-gradient-39" x1="-2659.06" y1="262.45" x2="-2658.14" y2="262.45" gradientTransform="translate(3241.97)" xlink:href="#linear-gradient"/><linearGradient id="linear-gradient-40" x1="-2667.25" y1="288.11" x2="-2615.17" y2="288.11" gradientTransform="translate(3241.97)" xlink:href="#linear-gradient"/><linearGradient id="linear-gradient-41" x1="-2688.77" y1="322.8" x2="-2665.08" y2="322.8" gradientTransform="translate(3241.97)" xlink:href="#linear-gradient"/><linearGradient id="linear-gradient-42" x1="-2639.46" y1="248.68" x2="-2635.77" y2="248.68" gradientTransform="translate(3241.97)" xlink:href="#linear-gradient"/><linearGradient id="linear-gradient-43" x1="-2623.67" y1="243.83" x2="-2607.29" y2="243.83" gradientTransform="translate(3241.97)" xlink:href="#linear-gradient"/><linearGradient id="linear-gradient-44" x1="-2589.75" y1="189.39" x2="-2587.27" y2="189.39" gradientTransform="translate(3241.97)" xlink:href="#linear-gradient"/><linearGradient id="linear-gradient-45" x1="-2599.08" y1="212.86" x2="-2577.65" y2="212.86" gradientTransform="translate(3241.97)" xlink:href="#linear-gradient"/><linearGradient id="linear-gradient-46" x1="5879.8" y1="404.71" x2="5823.88" y2="42.86" gradientTransform="matrix(-1, 0, 0, 1, 6403.78, 0)" xlink:href="#linear-gradient"/><linearGradient id="linear-gradient-47" x1="-2725.76" y1="219.19" x2="-2668.47" y2="219.19" gradientTransform="translate(3241.97)" xlink:href="#linear-gradient"/><linearGradient id="linear-gradient-48" x1="-2701.01" y1="179.66" x2="-2654.49" y2="179.66" gradientTransform="translate(3241.97)" xlink:href="#linear-gradient"/><linearGradient id="linear-gradient-49" x1="-2716.63" y1="157.01" x2="-2696.38" y2="157.01" gradientTransform="translate(3241.97)" xlink:href="#linear-gradient"/><linearGradient id="linear-gradient-50" x1="-2714.39" y1="273.96" x2="-2672.5" y2="273.96" gradientTransform="translate(3241.97)" xlink:href="#linear-gradient"/><linearGradient id="linear-gradient-51" x1="-2741.97" y1="289.54" x2="-2716.39" y2="289.54" gradientTransform="translate(3241.97)" xlink:href="#linear-gradient"/><linearGradient id="linear-gradient-52" x1="-2677.3" y1="70.34" x2="-2656.63" y2="70.34" gradientTransform="translate(3241.97)" xlink:href="#linear-gradient"/><linearGradient id="linear-gradient-53" x1="-2682.67" y1="57.09" x2="-2673.61" y2="57.09" gradientTransform="translate(3241.97)" xlink:href="#linear-gradient"/><linearGradient id="linear-gradient-54" x1="-2692.79" y1="144.19" x2="-2673.12" y2="144.19" gradientTransform="translate(3241.97)" xlink:href="#linear-gradient"/><linearGradient id="linear-gradient-55" x1="-2694.19" y1="101.61" x2="-2684.63" y2="101.61" gradientTransform="translate(3241.97)" xlink:href="#linear-gradient"/><linearGradient id="linear-gradient-56" x1="-2709.3" y1="243.22" x2="-2687.02" y2="243.22" gradientTransform="translate(3241.97)" xlink:href="#linear-gradient"/><linearGradient id="linear-gradient-57" x1="-2721.74" y1="343.75" x2="-2699.54" y2="343.75" gradientTransform="translate(3241.97)" xlink:href="#linear-gradient"/><linearGradient id="linear-gradient-58" x1="171.95" y1="271.98" x2="523.18" y2="271.98" gradientUnits="userSpaceOnUse"><stop offset="0" stop-color="#00bbc5"/><stop offset="1" stop-color="#4f3292"/></linearGradient><linearGradient id="linear-gradient-59" x1="374.25" y1="271.98" x2="171.95" y2="271.98" xlink:href="#linear-gradient-58"/><linearGradient id="linear-gradient-60" x1="403.44" y1="171.17" x2="425.82" y2="209.92" gradientUnits="userSpaceOnUse"><stop offset="0" stop-color="#f1ce41"/><stop offset="1" stop-color="#e73d25"/></linearGradient><linearGradient id="linear-gradient-61" x1="414.86" y1="211.1" x2="417.63" y2="226.83" xlink:href="#linear-gradient-58"/><linearGradient id="linear-gradient-62" x1="1094.3" y1="1261.54" x2="1139.32" y2="1261.54" gradientTransform="translate(753.85 -1495.5) rotate(45)" xlink:href="#linear-gradient-58"/><linearGradient id="linear-gradient-63" x1="639.26" y1="217.94" x2="639.26" y2="374" xlink:href="#linear-gradient-58"/><linearGradient id="linear-gradient-64" x1="619.81" y1="217.72" x2="619.81" y2="374.38" xlink:href="#linear-gradient-58"/><linearGradient id="linear-gradient-65" x1="629.96" y1="153.6" x2="629.96" y2="235.84" xlink:href="#linear-gradient-58"/><linearGradient id="linear-gradient-66" x1="602.48" y1="378.03" x2="616.39" y2="378.03" xlink:href="#linear-gradient-58"/><linearGradient id="linear-gradient-67" x1="636.56" y1="377.52" x2="665.47" y2="377.52" xlink:href="#linear-gradient-58"/><linearGradient id="linear-gradient-68" x1="594.93" y1="158.95" x2="594.93" y2="210.89" xlink:href="#linear-gradient-58"/><linearGradient id="linear-gradient-69" x1="560.13" y1="124.56" x2="580.76" y2="124.56" xlink:href="#linear-gradient-60"/><linearGradient id="linear-gradient-70" x1="422.96" y1="361.7" x2="549.11" y2="361.7" gradientUnits="userSpaceOnUse"><stop offset="0" stop-color="#a757a1"/><stop offset="1" stop-color="#3850a2"/></linearGradient><linearGradient id="linear-gradient-71" x1="456.57" y1="368.8" x2="456.57" y2="361.38" xlink:href="#linear-gradient-70"/><linearGradient id="linear-gradient-72" x1="485.81" y1="321.79" x2="485.81" y2="333.28" xlink:href="#linear-gradient-60"/><linearGradient id="linear-gradient-73" x1="486.03" y1="333.28" x2="486.03" y2="351.2" gradientUnits="userSpaceOnUse"><stop offset="0" stop-color="#393091"/><stop offset="1" stop-color="#f05c2a"/></linearGradient><linearGradient id="linear-gradient-74" x1="491.25" y1="339.72" x2="491.25" y2="348.43" xlink:href="#linear-gradient-73"/><linearGradient id="linear-gradient-75" x1="482.89" y1="372.3" x2="482.89" y2="383.1" xlink:href="#linear-gradient-60"/></defs><title>Welcome-img</title><path class="cls-1" d="M335.87,34.07c19.43,23.35,26,56.78,16.85,85.75C360.49,62.05,407.54,11.68,464.65,0c10.17,47.85-16.19,101-60.43,121.87,30-16.91,52.9-32.27,87.14-27.25-12.57,72.35-99,108.45-174.72,114.79C285,174.83,280,75.35,335.87,34.07Z"/><path class="cls-2" d="M238.11,204.07a83,83,0,0,1,56.34,31.49c-30.31-34.62-45-82.44-39.27-128.1,23.25,33.06,55.07,16.23,65.05,54.88,1.43-16.14,8.49-25.28,19.38-34.27,56.95,73.78,33.23,169.55-11.49,208.41C308.28,287.17,238.53,280.72,238.11,204.07Z"/><path class="cls-3" d="M107.19,354.6c-5.1-3.55-10.14-7.74-12.39-13.52s-.65-13.48,4.93-16.2c4.37-2.14,9.59-.7,14.14,1.05a121.48,121.48,0,0,1,33.65,19.57c-13.21-7.78-26.53-15.63-37.85-26S89,296.07,85.86,281.08c-1.07-5.06-1.41-10.41.17-15.33s5.35-9.34,10.35-10.68c6.72-1.81,13.57,2.14,19.07,6.4a118.81,118.81,0,0,1,36.1,46.4,79.43,79.43,0,0,1-15.29-36c-1.27-8.31-.55-18.17,6.26-23.09,7.06-5.1,17.19-2.22,24.26,2.87,16.76,12.06,49.63,48.33,60.16,66.1,37.55,63.38-24.62,66.27-43.65,61.35-7.43-1.92-15.19-1.67-22.77-2.91A131.27,131.27,0,0,1,134.26,369,129.41,129.41,0,0,1,107.19,354.6Z"/><path class="cls-4" d="M170.9,340c-25.62-54.5-117.88-67.61-82.79,8.19-15.57-14.38-35.4-16.83-40.78-9.71S46,357.19,54.75,368.67c-36.3-11.48-37,10.78-25.51,20.59C11.41,381,12.85,394.41,0,399.57H221.37V334.42C200.52,308,160.13,301.35,170.9,340Z"/><path class="cls-5" d="M210.69,340c25.62-54.5,117.88-67.61,82.79,8.19,15.57-14.38,35.4-16.83,40.78-9.71s1.32,18.68-7.42,30.16c36.31-11.48,37.05,10.78,25.51,20.59,17.83-8.31,24.73,5.15,37.57,10.31H160.22V334.42C181.07,308,221.46,301.35,210.69,340Z"/><path class="cls-6" d="M71.88,274.24c6.36-4.74,16.31-3.08,23.19,3.3L110,291.38c3.16,2.93,7.38,0,5.26-3.7-13.07-22.56-21.9-45.59-23.17-70.22-.36-6.9,3-13.07,9.15-15.36,12.49-4.61,23.35,9.27,30.12,20.8.19.32.38.64.56,1,7.73,13.17,26.77,9.43,24.38-4.82-3-17.68-3.91-35.22-2-52.71,1.39-12.37,5.49-26.27,17.69-28.74a46.66,46.66,0,0,1,9,0c13.06,2.47,22,16.37,27.68,28.74,10.51,22.88,16.08,45.85,18.77,69.1,2,12.2,16.88,16.71,20.69.78l5.46-22.85a15.37,15.37,0,0,1,13.22-12.05c13.91-1.68,22,14.38,24.61,27.05,4.22,20.58,2.95,40.12-1.5,59.32-.84,3.67,4.41,6.62,6.56,3.69l10.12-13.83c4.66-6.38,14-8,22-3.3C341.82,282,337.22,297.36,331,307c-19.3,29.75-57.61,78.78-97.53,92.55H210.71C166,385.8,110.65,336.77,81,307,71.39,297.36,61.45,282,71.88,274.24Z"/><g class="cls-7"><path class="cls-8" d="M222.07,399.92a.35.35,0,0,1-.35-.29L178.64,151.7a.35.35,0,0,1,.28-.41.35.35,0,0,1,.41.28l43.08,247.94a.34.34,0,0,1-.28.4Z"/></g><g class="cls-7"><path class="cls-9" d="M222.07,399.92a.36.36,0,0,1-.24-.09.36.36,0,0,1-.07-.44C256.27,338.7,273.45,280,274.3,220a.35.35,0,0,1,.35-.35h0a.36.36,0,0,1,.35.36c-.84,59.68-17.79,118-51.8,178.3,41.26-31,74.32-68.17,95.68-107.52a.35.35,0,0,1,.62.34c-21.64,39.86-55.26,77.46-97.22,108.75A.44.44,0,0,1,222.07,399.92Z"/></g><g class="cls-7"><path class="cls-10" d="M222.07,399.92a.35.35,0,0,1-.18-.05C169.07,368.6,122.4,331,86.92,291.16a.36.36,0,0,1,0-.49.35.35,0,0,1,.5,0c35,39.27,80.84,76.36,132.76,107.35-54.81-60.16-91.93-118.39-113.47-178a.34.34,0,0,1,.21-.45.36.36,0,0,1,.45.21c21.71,60.06,59.3,118.76,114.92,179.48a.35.35,0,0,1,0,.46A.37.37,0,0,1,222.07,399.92Z"/></g><g class="cls-7"><path class="cls-11" d="M188,203.59l-.13,0a.35.35,0,0,1-.2-.46l11.6-29.87a.35.35,0,0,1,.46-.2.35.35,0,0,1,.2.45l-11.6,29.88A.36.36,0,0,1,188,203.59Z"/></g><g class="cls-7"><path class="cls-12" d="M193.42,235.06a.35.35,0,0,1-.25-.1l-32.1-31.47a.34.34,0,0,1,0-.49.35.35,0,0,1,.49,0l32.1,31.47a.35.35,0,0,1-.24.6Z"/></g><g class="cls-7"><path class="cls-13" d="M196.09,250.45a.41.41,0,0,1-.18,0,.36.36,0,0,1-.12-.48l17.27-29.34a.35.35,0,0,1,.6.36l-17.27,29.33A.35.35,0,0,1,196.09,250.45Z"/></g><g class="cls-7"><path class="cls-14" d="M204.49,298.8a.33.33,0,0,1-.23-.09L177.32,274a.34.34,0,0,1,0-.49.35.35,0,0,1,.5,0l26.94,24.7a.35.35,0,0,1-.24.61Z"/></g><g class="cls-7"><path class="cls-15" d="M125.61,263.58a.35.35,0,0,1-.35-.34l-.84-36.49a.35.35,0,0,1,.34-.36h0a.35.35,0,0,1,.35.35l.84,36.48a.36.36,0,0,1-.35.36Z"/></g><g class="cls-7"><path class="cls-16" d="M150.71,308a.35.35,0,0,1-.35-.35l-.32-32a.35.35,0,0,1,.34-.35h0a.35.35,0,0,1,.35.35l.32,32A.39.39,0,0,1,150.71,308Z"/></g><g class="cls-7"><path class="cls-17" d="M135.35,282.14l-.13,0-20.34-8a.35.35,0,1,1,.26-.65l20.33,8a.35.35,0,0,1,.2.46A.33.33,0,0,1,135.35,282.14Z"/></g><g class="cls-7"><path class="cls-18" d="M177.61,346.73a.36.36,0,0,1-.35-.3l-3.65-26.84a.35.35,0,0,1,.7-.1L178,346.33a.35.35,0,0,1-.3.4Z"/></g><g class="cls-7"><path class="cls-19" d="M164,328a.32.32,0,0,1-.19-.05l-16.89-11.25a.35.35,0,0,1-.09-.49.34.34,0,0,1,.48-.09l16.89,11.24a.35.35,0,0,1,.09.49A.34.34,0,0,1,164,328Z"/></g><g class="cls-7"><path class="cls-20" d="M271.14,263.58a.35.35,0,0,1-.32-.22l-11.14-28.52a.35.35,0,0,1,.2-.45.34.34,0,0,1,.45.2l11.14,28.51a.35.35,0,0,1-.2.45A.28.28,0,0,1,271.14,263.58Z"/></g><g class="cls-7"><path class="cls-21" d="M264,298.8a.33.33,0,0,1-.3-.18l-12.81-22.85a.35.35,0,1,1,.61-.34l12.81,22.85a.35.35,0,0,1-.13.48A.39.39,0,0,1,264,298.8Z"/></g><g class="cls-7"><path class="cls-22" d="M252.3,335.79a.34.34,0,0,1-.27-.13.34.34,0,0,1,.06-.49l19.69-15.65a.36.36,0,0,1,.5.06.35.35,0,0,1-.06.49l-19.7,15.64A.3.3,0,0,1,252.3,335.79Z"/></g><g class="cls-7"><path class="cls-23" d="M153.41,353a.35.35,0,0,1-.31-.19l-14.5-28.66a.35.35,0,1,1,.62-.32l14.51,28.66a.36.36,0,0,1-.16.47A.29.29,0,0,1,153.41,353Z"/></g><g class="cls-7"><path class="cls-24" d="M115,319.89H115l-15.31-3.16a.34.34,0,0,1-.27-.41.36.36,0,0,1,.41-.28l15.31,3.17a.35.35,0,0,1-.07.69Z"/></g><g class="cls-7"><path class="cls-25" d="M167.11,363.42H155.23a.35.35,0,0,1,0-.7h11.88a.35.35,0,0,1,0,.7Z"/></g><g class="cls-7"><path class="cls-26" d="M293.09,331h0a.35.35,0,0,1-.31-.39l3.25-29a.34.34,0,0,1,.38-.31.35.35,0,0,1,.31.39l-3.25,29A.34.34,0,0,1,293.09,331Z"/></g><g class="cls-7"><path class="cls-27" d="M274.39,353h0a.35.35,0,0,1-.35-.36l.33-17.17a.35.35,0,0,1,.35-.34h0a.34.34,0,0,1,.34.36l-.33,17.17A.35.35,0,0,1,274.39,353Z"/></g><g class="cls-7"><path class="cls-28" d="M283,343.26a.36.36,0,0,1-.35-.3.35.35,0,0,1,.29-.4l15.88-2.63a.36.36,0,0,1,.4.29.34.34,0,0,1-.28.41l-15.88,2.62Z"/></g><g class="cls-7"><path class="cls-29" d="M210.49,333.31a.35.35,0,0,1-.17,0,.36.36,0,0,1-.14-.48L223,309.6a.35.35,0,0,1,.47-.14.36.36,0,0,1,.14.48L210.8,333.13A.34.34,0,0,1,210.49,333.31Z"/></g><path class="cls-30" d="M663.17,343.37c5.09-3.55,10.13-7.73,12.38-13.52s.65-13.48-4.92-16.2c-4.38-2.13-9.6-.7-14.15,1.05a121.48,121.48,0,0,0-33.65,19.57c13.21-7.78,26.53-15.63,37.85-26s20.65-23.46,23.81-38.46c1.07-5.06,1.41-10.41-.17-15.33S679,245.18,674,243.84c-6.73-1.81-13.57,2.14-19.08,6.4a118.77,118.77,0,0,0-36.1,46.41,79.51,79.51,0,0,0,15.29-36c1.27-8.3.56-18.17-6.26-23.09-7.06-5.1-17.19-2.22-24.25,2.87-16.77,12.06-23.58,33.24-32.09,52.06A225.28,225.28,0,0,1,527.37,357c-2.73,2.78-5.72,6.9-3.57,10.15,1.17,1.76,3.43,2.38,5.5,2.82,19.34,4.06,38.73,2.82,57.76-2.1,7.43-1.92,15.19-1.67,22.77-2.91a131.36,131.36,0,0,0,26.27-7.19A129.91,129.91,0,0,0,663.17,343.37Z"/><path class="cls-31" d="M612.36,340c25.63-54.5,117.88-67.62,82.8,8.19,15.57-14.39,35.39-16.83,40.77-9.72s1.32,18.69-7.41,30.16c36.3-11.48,37,10.79,25.51,20.59,17.82-8.3,24.72,5.16,37.57,10.31h-332V334.35C596.58,301.29,623.13,301.29,612.36,340Z"/><path class="cls-32" d="M732.21,205.06a81,81,0,0,0-74.94,14.07c44.31-25,69.91-79.39,60.91-129.44-42.06,7.23-76.61,45.77-79.22,88.37,13.74-26.89,12.84-60.72-2.3-86.84-43.87,49.73-69.85,127.66-40.52,219.5C640,262.31,716.22,273,732.21,205.06Z"/><path class="cls-33" d="M547.34,175.23a79.76,79.76,0,0,1,24,57.2,159.54,159.54,0,0,1,46.06-120.29c-2.18,32.22,19.74,62.23,4.43,97.41,10.34-18.66,29.57-26.8,47.34-31.84-.52,89.61-45.51,131.14-102.38,134.12-2.35-39.11-20.58-64.13-22.77-80.81A147.29,147.29,0,0,1,547.34,175.23Z"/><path class="cls-34" d="M383.81,299.1c-14.31-13.66-69.15-70.88-52.13-143.35,2.6-11.09,14.56-22.92,26-19.91,29.91,7.86,48.23,55.44,96.57,81.39,52,27.9,59.13,107.22,53.61,172.31H438.93C436.74,349.79,398,312.68,383.81,299.1Z"/><path class="cls-35" d="M361.22,310.79c-5.64-1-12.83-.07-14.47,5.25-1.89,6.14,5.3,11.52,11.3,14.5L394,348.42c5.28,2.62,5.25,3-.28,1.24a104.32,104.32,0,0,0-38.54-4.81c-6.14.41-13.68,3-13.61,9.16s7.61,9.48,13.69,11.05c17.45,4.52,38.58,4.27,31,5.05s-13.48,10.61-8,16.36c2.05,2.16,5,3.1,7.86,3.88,16.84,4.64,50.94,9.2,89.69,9.2C470.36,380.32,429.22,323.26,361.22,310.79Z"/><path class="cls-36" d="M648.78,318.45c5-.94,11.71-.06,13.81,4.8,2.41,5.61-3.54,10.52-8.69,13.25l-30.82,16.33c-4.53,2.4-4.45,2.75.4,1.14a90.91,90.91,0,0,1,34.67-4.4c5.65.38,12.83,2.73,13.46,8.37s-5.88,8.66-11.26,10.1c-15.43,4.13-34.73,3.66-27.73,4.61,32.89,4.5,40.3,13.85,38.89,26.9H504.83C510.26,376.64,591,329.3,648.78,318.45Z"/><path class="cls-37" d="M523.89,334.5c-1.52-13.05,6.19-60,12.76-71.13C587.71,177.05,503.15,139.45,514,46c1.49-12.77-10.39-27.68-22.81-27.3-10.94.33-16.64,13.38-16,24.59s5.28,22.27,4.77,33.41c-.72,15.45-10.92,27.9-19.88,39.89s-30.89,35.62-18.23,66.12c16.54,39.88,9.63,57,1.24,75.92-7.24,16.31,5.3,37.38,4.82,55.81-.26,10.05-9.39,21.19-6.29,30.94,7.54,23.77,19.09,49.06,45.1,53.42C521,404.53,526.74,359.08,523.89,334.5Z"/><path class="cls-38" d="M546.32,295.64c17.16-14,2.71-46.23,16.58-63.5,13.44-16.73,42.81-7.95,60.75-19.8,12-7.94,16.23-23.21,23-36s20.57-24.72,34.67-19.26c12.62,4.9,17.24,21.82,12.84,34s-15,20.7-25.28,28.47-21,15.92-26,27.88c-4.63,11.13-3.71,24.18-7.84,35.52-16.33,44.83-74.15,43.67-65.31,116.54h-95.8C473.87,322.8,539,301.66,546.32,295.64Z"/><g class="cls-7"><path class="cls-39" d="M520.43,384a.32.32,0,0,1-.14,0,.35.35,0,0,1-.18-.46c22-50.25,59-93.72,94.73-135.75,20.87-24.55,40.58-47.73,57.32-72a.36.36,0,0,1,.49-.09.35.35,0,0,1,.09.49c-16.77,24.28-36.48,47.47-57.36,72-35.7,42-72.62,85.42-94.63,135.58A.36.36,0,0,1,520.43,384Z"/></g><g class="cls-7"><path class="cls-40" d="M583.26,286.46h0a.35.35,0,0,1-.35-.35l.22-47.32a.35.35,0,0,1,.35-.35h0a.35.35,0,0,1,.35.35l-.22,47.32A.35.35,0,0,1,583.26,286.46Z"/></g><g class="cls-7"><path class="cls-41" d="M575.07,296.75a.33.33,0,0,1-.33-.24.36.36,0,0,1,.22-.45l51.38-16.57a.34.34,0,0,1,.44.23.35.35,0,0,1-.22.44l-51.38,16.57Z"/></g><g class="cls-7"><path class="cls-42" d="M553.55,325.85a.35.35,0,0,1-.35-.27.36.36,0,0,1,.27-.42l23-5.41a.35.35,0,0,1,.16.68l-23,5.41Z"/></g><g class="cls-7"><path class="cls-43" d="M602.86,262.8h0a.36.36,0,0,1-.31-.39l3-27.52a.32.32,0,0,1,.39-.31.35.35,0,0,1,.31.38l-3,27.53A.36.36,0,0,1,602.86,262.8Z"/></g><g class="cls-7"><path class="cls-44" d="M634.32,244.18H618.65a.35.35,0,1,1,0-.7h15.67a.35.35,0,0,1,0,.7Z"/></g><g class="cls-7"><path class="cls-45" d="M652.57,203.14h0a.36.36,0,0,1-.33-.38L654,176a.33.33,0,0,1,.38-.33.34.34,0,0,1,.32.38l-1.77,26.79A.36.36,0,0,1,652.57,203.14Z"/></g><g class="cls-7"><path class="cls-46" d="M643.24,214.79a.36.36,0,0,1-.35-.3.35.35,0,0,1,.3-.4l20.72-3.15a.34.34,0,0,1,.4.29.34.34,0,0,1-.29.4l-20.73,3.15Z"/></g><path class="cls-47" d="M483.28,267c26.13-43.14,11-91,14.11-112.8C500,136.4,519.75,128,529.81,113.54c7.83-11.28,9.44-25.84,11.11-39.74s4-28.48,12.73-39,26.29-14.92,37.43-5.53c9.4,7.93,10.53,22.14,6.86,33.24s-11.11,20.33-16.47,30.63-8.6,23-3.44,34.08c5.94,12.69,21.43,20,25.51,33.25,3.79,12.38-3.87,24.46-11.85,33.9s-10.29,19.56-10,32.29c.47,19.08,15.48,36.07,10.67,54.21S567.17,306.07,561.12,327c-4.13,14.32-4.13,40.25,29,72.5l-116.21.05C473.87,325.12,473.65,282.89,483.28,267Z"/><g class="cls-7"><path class="cls-48" d="M516.56,393.64h0a.36.36,0,0,1-.32-.39C527.89,264.37,545.87,153.72,572.81,45a.34.34,0,0,1,.42-.26.36.36,0,0,1,.26.43c-26.93,108.66-44.9,219.28-56.58,348.13A.35.35,0,0,1,516.56,393.64Z"/></g><g class="cls-7"><path class="cls-49" d="M541.31,198.84a.34.34,0,0,1-.27-.13.35.35,0,0,1,.05-.49l45.81-37.65a.35.35,0,0,1,.49.05.34.34,0,0,1,0,.49l-45.8,37.65A.4.4,0,0,1,541.31,198.84Z"/></g><g class="cls-7"><path class="cls-50" d="M545.23,176.34a.35.35,0,0,1-.31-.19l-19.54-38a.35.35,0,1,1,.62-.32l19.55,38a.35.35,0,0,1-.16.47A.29.29,0,0,1,545.23,176.34Z"/></g><g class="cls-7"><path class="cls-51" d="M527.93,289.16a.35.35,0,0,1-.21-.64l41.19-29.69a.35.35,0,1,1,.41.57l-41.19,29.69A.31.31,0,0,1,527.93,289.16Z"/></g><g class="cls-7"><path class="cls-52" d="M525.22,310.94a.35.35,0,0,1-.3-.17l-24.87-42.1a.36.36,0,0,1,.12-.48.35.35,0,0,1,.48.13l24.87,42.09a.35.35,0,0,1-.12.48A.41.41,0,0,1,525.22,310.94Z"/></g><g class="cls-7"><path class="cls-53" d="M565,79.52a.34.34,0,0,1-.26-.12.35.35,0,0,1,0-.5l20-17.66a.35.35,0,0,1,.47.53l-20,17.66A.35.35,0,0,1,565,79.52Z"/></g><g class="cls-7"><path class="cls-54" d="M568,66.7a.36.36,0,0,1-.32-.21L559.33,48a.35.35,0,0,1,.17-.46.36.36,0,0,1,.47.17l8.35,18.51a.36.36,0,0,1-.17.47A.4.4,0,0,1,568,66.7Z"/></g><g class="cls-7"><path class="cls-55" d="M549.53,153.18a.34.34,0,0,1-.26-.12.35.35,0,0,1,0-.49l19-17.28a.34.34,0,0,1,.49,0,.33.33,0,0,1,0,.49l-19,17.28A.38.38,0,0,1,549.53,153.18Z"/></g><g class="cls-7"><path class="cls-56" d="M557,111.71a.35.35,0,0,1-.32-.21L547.8,92a.36.36,0,0,1,.18-.47.35.35,0,0,1,.46.18l8.87,19.48a.34.34,0,0,1-.18.46A.23.23,0,0,1,557,111.71Z"/></g><g class="cls-7"><path class="cls-57" d="M533,251.87a.32.32,0,0,1-.27-.13.36.36,0,0,1,.06-.5l21.58-16.59a.35.35,0,1,1,.43.55l-21.58,16.6A.36.36,0,0,1,533,251.87Z"/></g><g class="cls-7"><path class="cls-58" d="M520.58,352.38a.34.34,0,0,1-.21-.62l21.49-16.57a.35.35,0,0,1,.43.56l-21.5,16.56A.31.31,0,0,1,520.58,352.38Z"/></g><path class="cls-59" d="M521.59,387.92H206.76a9.73,9.73,0,0,1-9.46-7.48L148.92,176.37a9.72,9.72,0,0,1,9.46-12H473.2a9.72,9.72,0,0,1,9.46,7.48L531.05,376A9.73,9.73,0,0,1,521.59,387.92Z"/><path class="cls-60" d="M532.41,387.92H211.13a6.6,6.6,0,0,1-6.41-5.06L154.85,172.5a6.58,6.58,0,0,1,6.4-8.1H482.54a6.58,6.58,0,0,1,6.4,5.07l49.87,210.35A6.58,6.58,0,0,1,532.41,387.92Z"/><polygon class="cls-61" points="523.18 368.15 216.69 368.15 171.95 175.81 478.44 175.81 523.18 368.15"/><path class="cls-62" d="M172,175.81l44.74,192.34H374.25C334.91,329.09,172,175.81,172,175.81Z"/><path class="cls-63" d="M210.54,383.1H699.42a4.25,4.25,0,0,1,4.25,4.25v8a4.25,4.25,0,0,1-4.25,4.25H210.54a5.08,5.08,0,0,1-5.08-5.08v-6.35A5.08,5.08,0,0,1,210.54,383.1Z"/><path class="cls-64" d="M203.58,383.1H365.76a4.17,4.17,0,0,1,4.17,4.17v8.18a4.17,4.17,0,0,1-4.17,4.17H203.58a5.08,5.08,0,0,1-5.08-5.08v-6.35A5.08,5.08,0,0,1,203.58,383.1Z"/><path class="cls-65" d="M242.42,394.9H225.19a3.56,3.56,0,0,1-3.55-3.54h0a3.56,3.56,0,0,1,3.55-3.55h17.23a3.56,3.56,0,0,1,3.55,3.55h0A3.56,3.56,0,0,1,242.42,394.9Z"/><path class="cls-65" d="M262.12,390.66a3.55,3.55,0,1,1-2.78-2.79A3.55,3.55,0,0,1,262.12,390.66Z"/><path class="cls-65" d="M272.77,390.66a3.55,3.55,0,1,1-2.79-2.79A3.56,3.56,0,0,1,272.77,390.66Z"/><path class="cls-64" d="M586,393.13H505.38a1.78,1.78,0,0,1-1.77-1.77h0a1.78,1.78,0,0,1,1.77-1.78H586a1.78,1.78,0,0,1,1.78,1.78h0A1.78,1.78,0,0,1,586,393.13Z"/><polygon class="cls-66" points="237.78 357.62 218.71 370.24 237.74 382.93 237.78 357.62"/><polygon class="cls-67" points="224.13 366.66 218.71 370.24 224.12 373.85 224.13 366.66"/><rect class="cls-68" x="309.22" y="349.72" width="25.3" height="41.39" rx="5.18" ry="5.18" transform="translate(692.84 49.17) rotate(90.1)"/><rect class="cls-69" x="268.52" y="326.93" width="8.43" height="69.93" transform="translate(-89.62 634.03) rotate(-89.9)"/><rect class="cls-70" x="268.51" y="335.37" width="8.43" height="69.93" transform="translate(-98.07 642.43) rotate(-89.9)"/><rect class="cls-71" x="268.5" y="343.8" width="8.43" height="69.93" transform="translate(-106.52 650.84) rotate(-89.9)"/><rect class="cls-72" x="294.41" y="367.84" width="25.3" height="5.1" transform="translate(677.97 63.96) rotate(90.1)"/><polygon class="cls-59" points="314.89 248.73 209.79 248.73 193.93 193.12 299.03 193.12 314.89 248.73"/><path class="cls-73" d="M267.49,238.16H249.58c-8,0-16.43-6.41-18.66-14.25l-1.7-6c-2.24-7.84,2.51-14.24,10.53-14.24h17.91c8,0,16.43,6.4,18.66,14.24l1.7,6C280.26,231.75,275.52,238.16,267.49,238.16Z"/><path class="cls-72" d="M247.4,211.64l13.73,7.76c.9.51,1.23,1.58.66,2.12l-9.05,8.65c-.7.67-2.15.05-2.46-1l-4.68-16.41C245.29,211.66,246.33,211,247.4,211.64Z"/><path class="cls-74" d="M325.47,355.4h82.66l-4.52,27h3.68l18-107.16a12.64,12.64,0,0,0-12.47-14.73H348.4A12.6,12.6,0,0,0,335.93,271L317.27,383.1H321Zm.46-2.73,13.58-81a9,9,0,0,1,8.89-7.52h64.39a9,9,0,0,1,8.88,10.5l-13.08,78.05Z"/><path class="cls-64" d="M307.71,292.61h93L431,128.35H349.08S329,253.28,307.71,292.61Z"/><polygon class="cls-74" points="327.34 295.74 422 295.74 443.87 128.34 349.22 128.34 327.34 295.74"/><polygon class="cls-75" points="478.4 295.74 380.76 295.74 349.65 128.34 447.28 128.34 478.4 295.74"/><path class="cls-75" d="M397,372.54l-19.66-117.3a12.64,12.64,0,0,1,12.47-14.73h64.39a12.61,12.61,0,0,1,12.47,10.55l19.66,117.3a12.65,12.65,0,0,1-12.47,14.74H409.42A12.61,12.61,0,0,1,397,372.54Zm-7.19-128.4a9,9,0,0,0-8.89,10.5l19.67,117.3a9,9,0,0,0,8.88,7.52h64.39A9,9,0,0,0,482.7,369L463,251.66a9,9,0,0,0-8.88-7.52Z"/><path class="cls-72" d="M349.52,128.35h99.42s22.6,122.29,44.27,162.4H393.11C373.82,250.51,353.05,149.38,349.52,128.35Z"/><path class="cls-63" d="M349.51,123.18h99.61c1.48,0,2.69,2,2.69,4.43S451,132,449.12,132H349.51Z"/><path class="cls-76" d="M351.65,127.55c0,2.45-1,4.43-2.14,4.43s-2.14-2-2.14-4.43,1-4.43,2.14-4.43S351.65,125.11,351.65,127.55Z"/><path class="cls-77" d="M408.83,169c.51-.11,1-.19,1.55-.25,10.41-1.17,19.95,7.66,20.89,16.05.38,3.42-1,6.29-2.17,9.43-1.25,3.52-2.36,7.09-3.53,10.63-.54,1.65-1.52,3.53-1.59,5.25a5.49,5.49,0,0,0,0,.81l-17.51,2a7,7,0,0,0-.74-1.9c-3.23-5.39-6.41-10.79-9.87-16C389.26,184.92,398,171.29,408.83,169Z"/><path class="cls-72" d="M404.56,198a4.5,4.5,0,0,0,4.33.1,27.58,27.58,0,0,1,.78,3.33c.13.63.24,1.23.37,1.75l2.37,9.55.84-.21L410.88,203c-.12-.5-.23-1.09-.35-1.71a27.53,27.53,0,0,0-.85-3.54,15.41,15.41,0,0,0,3-2.12h0a9.32,9.32,0,0,0,.76-.65l.21.12a13.92,13.92,0,0,0,4.15,1.78c0,.12,0,.23,0,.35-.07,1.2-.09,2.43-.11,3.61L417.41,212h.87l.22-11.24c0-1.17,0-2.38.1-3.57,0-.09,0-.17,0-.26a6.76,6.76,0,0,0,1.85,0,3.92,3.92,0,0,0,2.18-1,2.22,2.22,0,0,0-2.17-3.79,3.54,3.54,0,0,0-2.23,2.14,6.51,6.51,0,0,0-.41,1.66,13.49,13.49,0,0,1-3.79-1.64l0,0a8.85,8.85,0,0,0,1.05-1.51,3.84,3.84,0,0,0,.55-1.82,2.52,2.52,0,0,0-4.77-1.13,3.17,3.17,0,0,0,.38,3.23,5.88,5.88,0,0,0,1.43,1.39,6.21,6.21,0,0,1-.63.52h0a13.87,13.87,0,0,1-2.65,1.91,5.54,5.54,0,0,0-1.75-2.4,2.8,2.8,0,0,0-2.86-.31,2.23,2.23,0,0,0-1.37,1.81A2.16,2.16,0,0,0,404.56,198Zm14.13-1.87a5.72,5.72,0,0,1,.36-1.48,2.72,2.72,0,0,1,1.66-1.63l.22,0a1.34,1.34,0,0,1,1.11,2.37,3.05,3.05,0,0,1-1.71.76A5.64,5.64,0,0,1,418.69,196.11Zm-6.76-3.54a2.36,2.36,0,0,1-.32-2.35,1.75,1.75,0,0,1,1.33-.89,1.59,1.59,0,0,1,.53,0,1.72,1.72,0,0,1,1.27,1.61,3.08,3.08,0,0,1-.44,1.39,8,8,0,0,1-1,1.46A5.15,5.15,0,0,1,411.93,192.57ZM404.25,196a1.45,1.45,0,0,1,.88-1.09,2,2,0,0,1,2,.23,4.8,4.8,0,0,1,1.48,2.08,3.72,3.72,0,0,1-3.55,0A1.41,1.41,0,0,1,404.25,196Z"/><path class="cls-78" d="M406.38,212.6l17.58-2c0,.27.05.55.08.82.3,2.42,1.25,5.44.38,7.78s-2.77,7.09-5.79,7.43l-3.52.39c-3,.34-7.08-4.45-7.84-7a5.58,5.58,0,0,1-.19-1.07A38.79,38.79,0,0,0,406.38,212.6Z"/><path class="cls-79" d="M446.71,191.66a.58.58,0,0,0-.12-1.14l-10.45-.71a.58.58,0,0,0-.62.54.57.57,0,0,0,.54.61l10.45.72A.65.65,0,0,0,446.71,191.66Z"/><path class="cls-79" d="M433.87,175a.35.35,0,0,0,.14-.06l9.78-5.82a.58.58,0,0,0-.59-1l-9.78,5.83a.56.56,0,0,0-.2.79A.57.57,0,0,0,433.87,175Z"/><path class="cls-79" d="M425,166.1a.55.55,0,0,0,.37-.31l4.4-9.5a.58.58,0,1,0-1.05-.49l-4.4,9.5a.57.57,0,0,0,.28.77A.56.56,0,0,0,425,166.1Z"/><path class="cls-79" d="M408.06,165.45a.58.58,0,0,0,.39-.72l-2.93-10.2a.57.57,0,0,0-.71-.4.58.58,0,0,0-.4.72l2.93,10.2A.58.58,0,0,0,408.06,165.45Z"/><path class="cls-80" d="M395.13,172.32a.61.61,0,0,0,.33-.24.58.58,0,0,0-.17-.8l-9-5.94a.57.57,0,0,0-.8.16.58.58,0,0,0,.16.8l9,5.95A.59.59,0,0,0,395.13,172.32Z"/><path class="cls-79" d="M388.93,186.05a.58.58,0,0,0-.23-1.13l-10.36,1.37a.58.58,0,0,0,.15,1.15l10.36-1.37Z"/><path class="cls-81" d="M277.72,82.22l.06.81a62.69,62.69,0,0,0-7.13,1l-.15-.8A66.33,66.33,0,0,1,277.72,82.22Zm-14.3,2.71.24.77c-2.26.67-4.55,1.47-6.82,2.36l-.3-.75C258.83,86.4,261.15,85.6,263.42,84.93Zm-13.53,5.33.36.73C248.1,92,246,93.2,243.9,94.43l-.42-.7C245.57,92.49,247.73,91.33,249.89,90.26Zm-12.52,7.41.46.66c-1.7,1.2-3.37,2.45-4.94,3.72l-.8.65-.52-.62.81-.66C234,100.14,235.65,98.87,237.37,97.67Zm6.68,9.26a27.08,27.08,0,0,1,6.35,3.39l-.47.65a26.44,26.44,0,0,0-6.17-3.28l-.12,0,.28-.76Zm-7.27-1.69-.09.81a33.45,33.45,0,0,0-7.14,0l-.09-.81A34.48,34.48,0,0,1,236.78,105.24Zm18.86,10.22a30,30,0,0,1,3.65,6.35l-.74.32A29.29,29.29,0,0,0,255,116Zm-29.39-8.39.59.55a34.73,34.73,0,0,0-4.34,5.68l-.69-.42A35.2,35.2,0,0,1,226.25,107.07Zm-3.95-.27.24.77a39.43,39.43,0,0,0-6.61,2.76l-.38-.72A40.23,40.23,0,0,1,222.3,106.8Zm39.09,22a26.78,26.78,0,0,1,.28,7.33l-.8-.09a25.91,25.91,0,0,0-.28-7.1Zm-52-15.22.51.63a44,44,0,0,0-5.19,5l-.61-.54A44,44,0,0,1,209.43,113.62Zm10.33,6.22a22.69,22.69,0,0,0-.49,7.07l-.81.07a23.45,23.45,0,0,1,.51-7.33Zm39.15,23,.72.37a16.94,16.94,0,0,1-2.38,3.51,17.52,17.52,0,0,1-2.3,2.17l-.51-.63a16.7,16.7,0,0,0,2.2-2.08A16.11,16.11,0,0,0,258.91,142.86Zm-59.19-18.39.68.44a54.33,54.33,0,0,0-3.51,6.28l-.73-.35A55.05,55.05,0,0,1,199.72,124.47Zm21.09,9.39a30.24,30.24,0,0,0,3.2,6.38l-.68.45a30.88,30.88,0,0,1-3.28-6.55Zm27.35,17.59.21.78a18.45,18.45,0,0,1-7.33.56l.1-.8A17.82,17.82,0,0,0,248.16,151.45ZM228.6,145.7a25.84,25.84,0,0,0,5.81,4.11l-.37.72a26.86,26.86,0,0,1-6-4.23Zm-34.4-7.84a68.18,68.18,0,0,0-1.92,6.94l-.79-.17a69,69,0,0,1,1.94-7Zm-3.1,14c-.14,1.18-.24,2.38-.32,3.56s-.12,2.43-.15,3.63h-.81c0-1.22.08-2.45.15-3.68s.18-2.39.32-3.59Zm-.3,14.4c.15,2.39.41,4.8.76,7.17l-.8.12c-.35-2.39-.61-4.83-.77-7.24Zm2.11,14.26c.55,2.33,1.2,4.67,1.93,7l-.77.25c-.74-2.3-1.39-4.66-1.94-7Z"/><path class="cls-82" d="M666.71,171.79a.51.51,0,0,0-.52.05s0,0-.05.06a.23.23,0,0,0,.05.15,1,1,0,0,1-.08.83c-.06.13-.11.27-.17.4a1,1,0,0,0-.07.23.84.84,0,0,0,.18.52.57.57,0,0,0,.35.3c.2,0,.33-.18.42-.36a2.21,2.21,0,0,0,.34-1.27C667.12,172.42,667,171.93,666.71,171.79Z"/><path class="cls-83" d="M661.74,207.44a50.46,50.46,0,0,0,3.72-8.11c1.61-4.05,3.67-13.47,5.13-18.46-.11.36-4.29-1.75-4.34-1.61-2.08,5-7.69,17.18-10.55,19.85a.53.53,0,0,1-.87-.13c-4.21-9.87-7.77-20-11.38-30.13q-.8-2.22-1.58-4.45a12.18,12.18,0,0,0-4.6,5.65c-1.86,4.33-1.88,10.46-1.88,10.46a64,64,0,0,0,3.93,11.59c1.13,2.52,9.19,17.28,13.16,19.18C656.92,213.4,659.93,210,661.74,207.44Z"/><path class="cls-82" d="M671.09,179.79c.14-.14.32-.26.48-.39a3.67,3.67,0,0,0,1-1.69,23,23,0,0,0,.79-2.72,2,2,0,0,0,0-1.17.93.93,0,0,0-1.09-.55c0-.75-.81-1-1.35-.87,0-.32,0-.5-.6-.68a1.29,1.29,0,0,0-.82.1.94.94,0,0,0-1.06-.56,2.92,2.92,0,0,0-1.38,1,7.82,7.82,0,0,0-1,1.72,9,9,0,0,0-.37.93c-.08.28-.23.61-.12.87s.37.45.51.72a2.45,2.45,0,0,1,.39,1.22,3.81,3.81,0,0,1-.17,1.46c-.07.16-.27.51-.1.75.72,1,3.43,1.79,4,1.53a.81.81,0,0,0,.39-.54A2.61,2.61,0,0,1,671.09,179.79Z"/><path class="cls-82" d="M672.52,176.47a6.77,6.77,0,0,0,.86-1.55.69.69,0,0,0,0-.13,19.48,19.48,0,0,1-5.7-3l0,0a1.25,1.25,0,0,1-.52.37c-.17.56-.32,1.11-.43,1.65a1.85,1.85,0,0,0,0,1.07.86.86,0,0,0,1,.51c0,.69.76.91,1.24.82,0,.29,0,.46.56.63a1.23,1.23,0,0,0,.74-.08.89.89,0,0,0,1,.53A2.55,2.55,0,0,0,672.52,176.47Z"/><path class="cls-84" d="M652.89,233.22s-3.07,51.63-4.49,64.09-4.1,75.28-4.1,75.28L640.23,374l-3.7-1.41s-2.63-45.94-4-55.93-6.57-66.54-6.94-76.59S644.66,199.86,652.89,233.22Z"/><path class="cls-85" d="M632.68,236.68s-5.71,46.52-7.87,58.88-9.18,76.77-9.18,76.77l-3.08,2.05-3.07-1s-.88-51.53-1.63-61.59-1.06-69.14-.84-79.19S626.43,202.9,632.68,236.68Z"/><path class="cls-82" d="M628.13,156.06c-1.28.28-2.59.32-3.81.56a13.24,13.24,0,0,1-3.64.36c0-2-.13-4.27-.08-6.14,2.47,1.72,5,.77,7.56-.41C628.11,152.27,628.06,154.21,628.13,156.06Z"/><path class="cls-86" d="M608.61,217.89c2.53-9.63,3.37-22.37,1.1-29.49-4.51-14.17-2.21-24.17,5.2-28.5a25,25,0,0,1,4.55-2.07c.13-.32.25-.65.35-1a11.56,11.56,0,0,0,.46-2.72c0-.46,1.23,0,1.57,0a18.12,18.12,0,0,0,1.94.16,15.87,15.87,0,0,0,4.83-.71,10.49,10.49,0,0,0,.79,3.32l0,.05a23.71,23.71,0,0,1,9.73,4.09c8.41,7.75,5.23,22.69,9.69,42.24,5.33,23.33,4,29.92,4,29.92S622,239.53,607,232.59C607,232.59,606.29,226.76,608.61,217.89Z"/><path class="cls-82" d="M634.16,128.92a57.68,57.68,0,0,0,.6,9.16c.7,4,2.46,14.16-4.45,14.61s-10.2-.15-11.76-1.87-7.55-12.25-4.62-17.7S629.24,120.24,634.16,128.92Z"/><path class="cls-87" d="M611.6,135.64c0-3,1.08-6.6,4-7.5.64-.2,2.24-3.17,3-3.79A12.34,12.34,0,0,1,623,121.9c2.33-.69,6.09-1.29,8.5-.54a6.09,6.09,0,0,1,4.14,5.07c.53,4.27-3.41,4.88-6.74,4.86a16.5,16.5,0,0,0-5.93.8,6.9,6.9,0,0,0-4.24,4c-.6,1.75-.25,3.61.09,5.46a20.93,20.93,0,0,0,1.73,3.89,4.17,4.17,0,0,0,3.33.92c1.74-.22,7.3-2.17,10.3-1.65l.9-.25a.87.87,0,0,1,.74,0c.67.46.7,2.55.45,3.3a6,6,0,0,1-1.15,1.94c-1.22,2-3.17,2.76-5.53,3-1.48.16-4,.84-5.43.13a2.8,2.8,0,0,1-1.45-2.06A14.81,14.81,0,0,1,621.3,149c-.76-.94-1.5-1.9-2.19-2.89a8.3,8.3,0,0,1-1.29-2.35,9.61,9.61,0,0,1-.27-1.59c0-.23-.06-.46-.08-.69a3.21,3.21,0,0,1-.11-.52c-.1-1-.23-2.28-1.19-2.61-1,1.72-.42,3.92.36,5.76l.25.6a1.35,1.35,0,0,1,.5.32,3.91,3.91,0,0,1,.65,1,22,22,0,0,1,1.86,5.17.62.62,0,0,1-.07.55c-.22.25-.61,0-.86-.18a17.62,17.62,0,0,1-2.37-2.36l-.17-.2A21.72,21.72,0,0,1,611.6,135.64Z"/><path class="cls-82" d="M644.43,369.62c0,1-.1,3.7-.09,3.93-1.91,2.46-5.16,1.45-7.75,0,0-.3-.15-2.34-.16-2.64A9.85,9.85,0,0,0,644.43,369.62Z"/><path class="cls-82" d="M615.87,370.08c0,.16-.25,2.85-.24,3,0,0-2.78,2.11-5.14,1.48-.34-.09-.67-.21-1-.33,0-.45,0-3.38-.06-3.85A9.21,9.21,0,0,0,615.87,370.08Z"/><path class="cls-88" d="M604.21,379c1-.81,2.52-1.17,3.54-2,.49-.4,1.65-1.07,1.69-1.51a16.19,16.19,0,0,0,0-1.89,11.34,11.34,0,0,0,6.18-.85c0,.61,0,1,0,1.57a22.24,22.24,0,0,1,.63,2.93c.18,1.58.45,3.55-.74,4.82-.89.94-2.32,1-3.61,1s-5.36.21-5.82.16C604.65,383.14,600,382.41,604.21,379Z"/><path class="cls-89" d="M616.13,381a3.23,3.23,0,0,1-.64,1.06c-.89.94-2.32,1-3.61,1s-7.4.16-7.86.12c-1-.1-1.53-.44-1.54-1.84C607.63,379.42,610,382.31,616.13,381Z"/><path class="cls-90" d="M636.56,373.29c.57.15,6.06.44,7.8-.74,0,.84,0,1.89,0,1.89a82.07,82.07,0,0,1,15.41,3.25c7.78,2.51,8.21,5.23-2.39,4.63-19.09.42-20.41.48-20.47-4.25C636.88,377.2,636.74,374.47,636.56,373.29Z"/><path class="cls-89" d="M662.78,380.4a2.23,2.23,0,0,0,1.66-.65c2.48,1.7.58,3-7.08,2.57-9.48.21-16,.43-18.75-.08-1.91-.36-1.24-1.13-1.54-2.29C645.64,380.15,654.2,380.4,662.78,380.4Z"/><path class="cls-91" d="M616.17,159c-5-.1-11.46,7.86-12.35,15.48-.08.66-.67,3.55-1.41,6.38-2,7.29-5.55,14.56-7.8,17.24-5.1,6.1-17.91,3.14-25.24.85a13.43,13.43,0,0,0-.12,5.37c1.13.57,2.27,1.13,3.42,1.67a64.43,64.43,0,0,0,8.62,3.37,33.74,33.74,0,0,0,9.61,1.58,17.4,17.4,0,0,0,9-2.28,15.5,15.5,0,0,0,3.44-2.86c4.13-4.57,7.9-12.5,10.38-20,2.11-4.31,4.38-8.44,5.33-11.15C622.41,165,620.66,159,616.17,159Z"/><polygon class="cls-92" points="560.13 135.73 570.41 113.4 580.76 135.69 560.13 135.73"/><polygon class="cls-67" points="567.49 118.72 570.41 113.4 573.35 118.71 567.49 118.72"/><rect class="cls-93" x="560.31" y="342.5" width="20.63" height="40.68" rx="4.63" ry="4.63" transform="translate(-0.61 0.97) rotate(-0.1)"/><rect class="cls-65" x="560.21" y="135.72" width="6.88" height="212.32"/><rect class="cls-74" x="567.09" y="135.71" width="6.88" height="212.32"/><rect class="cls-76" x="573.97" y="135.7" width="6.88" height="212.32"/><rect class="cls-72" x="560.29" y="344.9" width="20.63" height="5.02" transform="translate(-0.59 0.97) rotate(-0.1)"/><path class="cls-82" d="M556.73,201.16c.06-.37.09-1.5.46-1.82a4.6,4.6,0,0,1,2.4-.38,8.86,8.86,0,0,1,1.51.19c.81.24,1.79.37,2.14,1,.18.57,0,.84-.56,1a1,1,0,0,1-.12,1.89c1.56.41,1.41,1.73-.24,2.15.86-.22.6,1.49-.17,1.76a5,5,0,0,1-3.43.31,2,2,0,0,1-1.15-1.73A10.88,10.88,0,0,1,556.73,201.16Z"/><path class="cls-94" d="M247.2,278.31h-8.67a.88.88,0,0,1-.75-.65c-.11-.36.07-.65.38-.65h8.67a.88.88,0,0,1,.75.65C247.68,278,247.51,278.31,247.2,278.31Z"/><path class="cls-95" d="M269.83,278.31h-16.3a.88.88,0,0,1-.75-.65c-.11-.36.07-.65.38-.65h16.3a.88.88,0,0,1,.75.65C270.31,278,270.14,278.31,269.83,278.31Z"/><path class="cls-80" d="M276.51,275.45h-8.67a.88.88,0,0,1-.75-.65c-.1-.36.07-.65.38-.65h8.67a.88.88,0,0,1,.76.65C277,275.16,276.83,275.45,276.51,275.45Z"/><path class="cls-96" d="M278.62,281.9h-16.3a.88.88,0,0,1-.75-.65c-.1-.36.07-.65.38-.65h16.3a.89.89,0,0,1,.76.65C279.11,281.61,278.94,281.9,278.62,281.9Z"/><path class="cls-97" d="M232.5,296.91h-8.67a.88.88,0,0,1-.75-.64c-.11-.36.07-.65.38-.65h8.67a.88.88,0,0,1,.75.65C233,296.62,232.81,296.91,232.5,296.91Z"/><path class="cls-95" d="M240.13,296.91h-16.3a.88.88,0,0,1-.75-.64c-.11-.36.07-.65.38-.65h16.3a.88.88,0,0,1,.75.65C240.61,296.62,240.44,296.91,240.13,296.91Z"/><path class="cls-98" d="M240.13,296.91h-16.3a.88.88,0,0,1-.75-.64c-.11-.36.07-.65.38-.65h16.3a.88.88,0,0,1,.75.65C240.61,296.62,240.44,296.91,240.13,296.91Z"/><path class="cls-94" d="M251.59,264.85h-36.9a.89.89,0,0,1-.76-.65c-.1-.36.07-.65.39-.65h36.9a.88.88,0,0,1,.75.65C252.07,264.56,251.9,264.85,251.59,264.85Z"/><path class="cls-94" d="M237.45,268H215.58a.88.88,0,0,1-.75-.65c-.11-.35.07-.64.38-.64h21.87a.88.88,0,0,1,.76.64C237.94,267.69,237.77,268,237.45,268Z"/><path class="cls-94" d="M241.61,282.55H219.73a.88.88,0,0,1-.75-.65c-.1-.36.07-.65.38-.65h21.88a.88.88,0,0,1,.75.65C242.09,282.26,241.92,282.55,241.61,282.55Z"/><path class="cls-94" d="M263,271.39H216.55a.88.88,0,0,1-.75-.65c-.1-.35.07-.65.38-.65h46.44a.89.89,0,0,1,.75.65C263.47,271.1,263.3,271.39,263,271.39Z"/><path class="cls-94" d="M258.65,289H221.57a.88.88,0,0,1-.75-.65c-.1-.36.07-.65.38-.65h37.08a.88.88,0,0,1,.75.65C259.14,288.71,259,289,258.65,289Z"/><path class="cls-94" d="M259.89,293.35H222.81a.88.88,0,0,1-.75-.65c-.1-.35.07-.64.38-.64h37.08a.89.89,0,0,1,.76.64C260.38,293.06,260.21,293.35,259.89,293.35Z"/><path class="cls-94" d="M257.09,274.8H217.53a.88.88,0,0,1-.76-.65c-.1-.35.07-.64.39-.64h39.56a.89.89,0,0,1,.76.64C257.58,274.51,257.41,274.8,257.09,274.8Z"/><path class="cls-94" d="M235.35,278.4h-16.8a.88.88,0,0,1-.75-.65c-.11-.36.07-.65.38-.65H235a.88.88,0,0,1,.76.65C235.84,278.11,235.67,278.4,235.35,278.4Z"/><path class="cls-96" d="M273.82,268.12H251.38a.88.88,0,0,1-.75-.65c-.11-.36.07-.65.38-.65h22.44a.88.88,0,0,1,.76.65C274.31,267.83,274.14,268.12,273.82,268.12Z"/><path class="cls-99" d="M336.43,113.85V126.5s.42,7,17.5,7,17.71-8,17.71-8v-17.4H336.43Z"/><circle class="cls-76" cx="319.52" cy="119.07" r="1.29"/><path class="cls-76" d="M318.68,120.12l-1.29,15.43a.36.36,0,0,0,.49.36l.19-.08a.34.34,0,0,1,.4.08l.22.25a.35.35,0,0,0,.49,0l.16-.14a.36.36,0,0,1,.48,0l.14.14a.36.36,0,0,0,.47,0l.24-.21a.36.36,0,0,1,.43,0h0a.35.35,0,0,0,.55-.32l-1.4-15.78a.43.43,0,0,0-.09-.22l-.32-.33a.36.36,0,0,0-.51,0l-.55.58A.32.32,0,0,0,318.68,120.12Z"/><path class="cls-76" d="M317.66,106.67l36.44-6.09a.17.17,0,0,1,.1,0l36,6.09c.45.11.32,1.1,0,1.17L354,115.52a.28.28,0,0,1-.13,0l-36.2-7.68C317.34,107.77,317.19,106.75,317.66,106.67Z"/><rect class="cls-76" x="319.13" y="107.3" width="0.78" height="10.45"/><path class="cls-74" d="M317.66,106.67,354.1,100h.1l36,6.68a.3.3,0,0,1,0,.58L354,114.94a.28.28,0,0,1-.13,0l-36.2-7.69A.3.3,0,0,1,317.66,106.67Z"/><polygon class="cls-63" points="252.61 92.65 312.08 63.48 264.27 81.31 252.61 92.65"/><path class="cls-66" d="M246.62,61.09S299,64,312.08,63.48c0,0-32.83,30.1-41.29,41l-6.52-23.18-3.47-6.46Z"/><polygon class="cls-59" points="252.61 92.65 264.27 81.31 312.08 63.48 260.8 74.85 252.61 92.65"/><polygon class="cls-100" points="304.65 340.57 157.2 340.57 149.03 313.97 296.48 313.97 304.65 340.57"/><polygon class="cls-72" points="275.14 336.51 159.22 336.51 153.54 318.03 269.46 318.03 275.14 336.51"/><path class="cls-72" d="M286.94,319.42c-3.16,0-4.94,2.54-4,5.67a7.87,7.87,0,0,0,1.94,3.15l-3,4.07h0a1.12,1.12,0,0,0,.45,1.4,1,1,0,0,0,1.42,0h0l2.95-4a7.38,7.38,0,0,0,3.67,1.07c3.15,0,4.93-2.54,4-5.66A8.36,8.36,0,0,0,286.94,319.42Zm3,9.79a6.11,6.11,0,0,1-5.43-4.12c-.7-2.28.6-4.13,2.9-4.13a6.11,6.11,0,0,1,5.43,4.13C293.54,327.36,292.24,329.21,289.94,329.21Z"/><path class="cls-101" d="M541.42,351.2H423v2.14h1.24a6.13,6.13,0,0,1,6.12,6.13v4.47a6.12,6.12,0,0,1-6.12,6.12H423v2.14H541.42a7.69,7.69,0,0,0,7.69-7.69V358.9A7.69,7.69,0,0,0,541.42,351.2Z"/><path class="cls-102" d="M476.71,353.35H424.53c2.33.93,4.72,3.19,4.72,5.83v4.59c0,3.48-2.19,6.29-4.72,6.29h52.18a6.14,6.14,0,0,0,6.17-6.12v-4.47A6.14,6.14,0,0,0,476.71,353.35Z"/><path class="cls-103" d="M429.25,361.38v2.39c0,3.48-2.19,6.29-4.72,6.29h52.18a6.14,6.14,0,0,0,6.17-6.12v-2.56Z"/><path class="cls-104" d="M477.43,351.21H423v2.14h53.75a6.15,6.15,0,0,1,6.17,6.13v4.46a6.15,6.15,0,0,1-6.17,6.13H423v2.14h54.47a7.74,7.74,0,0,0,7.76-7.7V358.9A7.73,7.73,0,0,0,477.43,351.21Z"/><path class="cls-105" d="M491.28,351.21h-2.72a8.16,8.16,0,0,1,5,7.51v6a8.18,8.18,0,0,1-5,7.52h2.36c4.25,0,6.65-3.45,6.65-7.7V358.9C497.57,354.65,495.53,351.21,491.28,351.21Z"/><path class="cls-106" d="M458.17,368.8s1.84-.43,1.84-1.87v-5.55h-5.16v5.36a2.26,2.26,0,0,1-1.72,2.06s2.73.16,4-1.29A3.32,3.32,0,0,1,458.17,368.8Z"/><path class="cls-107" d="M425.56,331.48a3,3,0,0,0,3,1.8H547V321.79H428.53c-1.64,0-3,1.82-3.75,3.75A8.74,8.74,0,0,0,425.56,331.48Z"/><path class="cls-108" d="M476.19,330.78c.13,1.63.8,2.5,4,2.5h68v-1.15H547v-9.31h1.16v-1h-68c-3.19,0-3.57,1-4,3.42A29.12,29.12,0,0,0,476.19,330.78Z"/><path class="cls-102" d="M477.58,330.1c.12,1.32.74,2,3.64,2h66.21v-9.31H481.22c-2.9,0-3.25.8-3.61,2.77A21.33,21.33,0,0,0,477.58,330.1Z"/><path class="cls-103" d="M477.87,326.05h-.31a23.4,23.4,0,0,0,0,4.06c.12,1.32.74,2,3.64,2h66.21v-6.08Z"/><path class="cls-105" d="M435.07,331.65a9.12,9.12,0,0,1-.82-6.19,6.54,6.54,0,0,1,2.85-3.67h-4.4c-1.63,0-3,1.82-3.75,3.75a8.71,8.71,0,0,0,.79,5.94,3,3,0,0,0,3,1.8h4A3.07,3.07,0,0,1,435.07,331.65Z"/><path class="cls-105" d="M472.24,331.65a9.12,9.12,0,0,1-.82-6.19,6.54,6.54,0,0,1,2.85-3.67h-4.4c-1.63,0-3,1.82-3.75,3.75a8.79,8.79,0,0,0,.79,5.94,3,3,0,0,0,3,1.8h4A3.07,3.07,0,0,1,472.24,331.65Z"/><path class="cls-109" d="M429.17,348.4c.42,1.49,1.25,2.8,2.78,2.8H543.81V333.28H432c-1.53,0-2.84,2.84-3.51,5.85A22.1,22.1,0,0,0,429.17,348.4Z"/><path class="cls-110" d="M476.58,347.31c.12,2.54.76,3.89,3.74,3.89h64.57v-.68l-4.7-.07-1-16.44,5.7,0v-.75H480.32c-3,0-3.35,1.54-3.71,5.34A75.92,75.92,0,0,0,476.58,347.31Z"/><path class="cls-102" d="M477.43,346.89c.11,2.32.69,3.56,3.43,3.56h63.31V334H480.86c-2.74,0-3.07,1.41-3.41,4.89A70.75,70.75,0,0,0,477.43,346.89Z"/><path class="cls-103" d="M477.7,339.74l-.29,0c-.06,1.24-.15,3.85,0,7.17.12,2.32.7,3.56,3.44,3.56h63.31V339.74Z"/><polygon class="cls-111" points="488.68 339.72 488.68 348.43 491.25 346.71 493.82 348.43 493.82 339.72 488.68 339.72"/><rect class="cls-112" x="435.94" y="337.81" width="34.03" height="8.69" rx="2.53" ry="2.53"/><path class="cls-65" d="M439.91,340.64a.26.26,0,1,1,0-.51h2.57a.26.26,0,0,1,0,.51h-1v3.28a.28.28,0,1,1-.55,0v-3.28Z"/><path class="cls-65" d="M445.73,340.38a.28.28,0,1,1,.55,0v2.4a1.48,1.48,0,0,1-3,0v-2.4a.28.28,0,1,1,.55,0v2.4a.93.93,0,0,0,1.86,0Z"/><path class="cls-65" d="M447.12,340.64a.26.26,0,0,1,0-.51h2.57a.26.26,0,1,1,0,.51h-1v3.28a.28.28,0,0,1-.27.28.27.27,0,0,1-.27-.28v-3.28Z"/><path class="cls-65" d="M452.22,340.09a2.07,2.07,0,1,1-2,2.07A2,2,0,0,1,452.22,340.09Zm0,3.61a1.55,1.55,0,1,0-1.49-1.54A1.51,1.51,0,0,0,452.22,343.7Z"/><path class="cls-65" d="M456.15,342.66h-.52v1.26a.28.28,0,0,1-.27.28.27.27,0,0,1-.27-.28v-3.55a.23.23,0,0,1,.23-.24h1.32a1.16,1.16,0,0,1,1.19,1.27,1.12,1.12,0,0,1-1.05,1.24l.79,1.12a.27.27,0,0,1-.06.38.26.26,0,0,1-.38-.07Zm-.51-2v1.51h1a.67.67,0,0,0,.67-.75c0-.37-.18-.76-.65-.76Z"/><path class="cls-65" d="M459.2,343.92a.28.28,0,1,1-.55,0v-3.54a.28.28,0,1,1,.55,0Z"/><path class="cls-65" d="M463.24,343.82a.26.26,0,0,1-.15.36.27.27,0,0,1-.35-.16l-.33-.88H460.7l-.34.88a.28.28,0,0,1-.35.16.27.27,0,0,1-.16-.36l1.31-3.45a.4.4,0,0,1,.38-.27h0a.36.36,0,0,1,.36.27Zm-1-1.17-.67-1.89-.67,1.89Z"/><path class="cls-65" d="M464.17,344.17a.29.29,0,0,1-.28-.28v-3.51a.28.28,0,1,1,.55,0v3.28h1.41a.26.26,0,1,1,0,.51Z"/><path class="cls-113" d="M415.69,381.41a2.86,2.86,0,0,0,2.78,1.69H551V372.3H418.47c-1.53,0-2.84,1.71-3.51,3.53A8.22,8.22,0,0,0,415.69,381.41Z"/><path class="cls-108" d="M483.79,380.75c.12,1.53.75,2.35,3.74,2.35H552.1v-.41l-4.71-.05-1-9.9,5.7,0v-.46H487.53c-3,0-3.35.93-3.71,3.22A27.55,27.55,0,0,0,483.79,380.75Z"/><path class="cls-102" d="M484.63,380.5c.12,1.4.7,2.14,3.43,2.14h63.32v-9.88H488.06c-2.73,0-3.07.84-3.4,2.94A26.12,26.12,0,0,0,484.63,380.5Z"/><path class="cls-103" d="M484.91,376.19h-.29a26.15,26.15,0,0,0,0,4.32c.12,1.4.7,2.14,3.43,2.14h63.32v-6.45Z"/></svg>