<?xml version="1.0" encoding="UTF-8" standalone="no"?>
<!-- Created with Inkscape (http://www.inkscape.org/) -->

<svg
   xmlns:dc="http://purl.org/dc/elements/1.1/"
   xmlns:cc="http://creativecommons.org/ns#"
   xmlns:rdf="http://www.w3.org/1999/02/22-rdf-syntax-ns#"
   xmlns:svg="http://www.w3.org/2000/svg"
   xmlns="http://www.w3.org/2000/svg"
   xmlns:sodipodi="http://sodipodi.sourceforge.net/DTD/sodipodi-0.dtd"
   xmlns:inkscape="http://www.inkscape.org/namespaces/inkscape"
   width="48"
   height="48"
   viewBox="0 0 12.7 12.7"
   version="1.1"
   id="svg8"
   inkscape:version="0.92.0 r15299"
   sodipodi:docname="Crown.svg">
  <defs
     id="defs2" />
  <sodipodi:namedview
     id="base"
     pagecolor="#ffffff"
     bordercolor="#666666"
     borderopacity="1.0"
     inkscape:pageopacity="0.0"
     inkscape:pageshadow="2"
     inkscape:zoom="5.6"
     inkscape:cx="34.436887"
     inkscape:cy="28.565745"
     inkscape:document-units="mm"
     inkscape:current-layer="layer1"
     showgrid="false"
     units="px"
     inkscape:window-width="1920"
     inkscape:window-height="1017"
     inkscape:window-x="-8"
     inkscape:window-y="-8"
     inkscape:window-maximized="1" />
  <metadata
     id="metadata5">
    <rdf:RDF>
      <cc:Work
         rdf:about="">
        <dc:format>image/svg+xml</dc:format>
        <dc:type
           rdf:resource="http://purl.org/dc/dcmitype/StillImage" />
        <dc:title></dc:title>
      </cc:Work>
    </rdf:RDF>
  </metadata>
  <g
     inkscape:label="Layer 1"
     inkscape:groupmode="layer"
     id="layer1"
     transform="translate(0,-284.29998)">
    <g
       transform="matrix(0.48846154,0,0,0.48846154,-453.71776,184.78425)"
       data-name="Group 279"
       id="Group_279">
      <path
         transform="translate(-68.278,-34.509)"
         d="m 1017.643,246.956 c 0,0 1.071,4.665 0,7.723 a 18.955,18.955 0 0 1 -3.594,5.744 h -3.212 c 0,0 -2.294,-9.723 6.806,-13.467 z"
         data-name="Path 320"
         id="Path_320"
         inkscape:connector-curvature="0"
         style="fill:#ffb10f" />
      <path
         transform="translate(-68.278,-34.509)"
         d="m 1010.837,260.423 h 3.212 c -1.787,-5.2 3.594,-13.467 3.594,-13.467 -9.1,3.744 -6.806,13.467 -6.806,13.467 z"
         data-name="Path 321"
         id="Path_321"
         inkscape:connector-curvature="0"
         style="fill:#f7a006" />
      <path
         transform="translate(-25.571,-34.509)"
         d="m 959.948,246.956 c 0,0 -1.071,4.665 0,7.723 a 18.96,18.96 0 0 0 3.594,5.744 h 3.212 c 0,0 2.294,-9.723 -6.806,-13.467 z"
         data-name="Path 322"
         id="Path_322"
         inkscape:connector-curvature="0"
         style="fill:#ffb10f" />
      <path
         transform="translate(-27.99,-34.509)"
         d="m 962.367,246.956 c 0,0 6.225,8.265 3.594,13.467 h 3.212 c 0,0 2.294,-9.723 -6.806,-13.467 z"
         data-name="Path 323"
         id="Path_323"
         inkscape:connector-curvature="0"
         style="fill:#f7a006" />
      <path
         transform="translate(0,-15.46)"
         d="m 945.924,236.319 c 0,0 -0.918,-8.259 -4.053,-12.159 -3.135,3.9 -4.053,12.159 -4.053,12.159 -1.835,-3.9 -8.947,-5.888 -8.947,-5.888 1.912,2.753 4.265,11.012 4.265,11.012 h 17.47 c 0,0 2.353,-8.259 4.265,-11.012 0,0 -7.112,1.988 -8.947,5.888 z"
         data-name="Path 324"
         id="Path_324"
         inkscape:connector-curvature="0"
         style="fill:#ffdc01" />
      <path
         transform="translate(-62.01,-15.46)"
         d="m 1003.078,225.325 c 0,0 3.385,1.284 4.855,10.994 0,0 -0.918,-8.259 -4.053,-12.159 a 10.249,10.249 0 0 0 -0.8,1.165 z"
         data-name="Path 325"
         id="Path_325"
         inkscape:connector-curvature="0"
         style="fill:#ffb703" />
      <g
         style="isolation:isolate;mix-blend-mode:screen"
         transform="translate(930.989,216.823)"
         data-name="Group 275"
         id="Group_275">
        <path
           transform="translate(-941.756,-273.577)"
           d="m 948.9,282.008 -7.007,-7.6 a 0.494,0.494 0 0 1 0.725,-0.669 c 0.012,0.015 -0.239,-0.316 6.282,8.269 z"
           data-name="Path 326"
           id="Path_326"
           inkscape:connector-curvature="0"
           style="fill:#ffdc01" />
      </g>
      <g
         style="isolation:isolate;mix-blend-mode:screen"
         transform="translate(946.343,216.824)"
         data-name="Group 276"
         id="Group_276">
        <path
           transform="translate(-1035.167,-273.582)"
           d="m 1035.167,282.012 5.75,-8.215 a 0.494,0.494 0 0 1 0.809,0.566 c -0.01,0.014 0.331,-0.383 -6.559,7.649 z"
           data-name="Path 327"
           id="Path_327"
           inkscape:connector-curvature="0"
           style="fill:#ffdc01" />
      </g>
      <g
         style="isolation:isolate;mix-blend-mode:screen"
         transform="translate(941.378,210.954)"
         data-name="Group 277"
         id="Group_277">
        <path
           transform="translate(-1004.959,-237.872)"
           d="m 1005.452,251.953 -0.493,-13.59 a 0.494,0.494 0 0 1 0.986,-0.034 c 10e-4,0.033 0.02,-0.54 -0.493,13.624 z"
           data-name="Path 328"
           id="Path_328"
           inkscape:connector-curvature="0"
           style="fill:#ffdc01" />
      </g>
      <path
         transform="translate(-12.143,-103.319)"
         d="m 962.748,329.3 h -17.47 c -0.706,0.706 -1.17,1.119 -1.877,1.825 h 21.223 c -0.705,-0.704 -1.169,-1.117 -1.876,-1.825 z"
         data-name="Path 329"
         id="Path_329"
         inkscape:connector-curvature="0"
         style="fill:#ffb10f" />
      <g
         transform="translate(940.35,205.66)"
         data-name="Group 278"
         id="Group_278">
        <path
           transform="translate(-998.711,-205.66)"
           d="m 1001.334,208.226 a 1.52,1.52 0 1 1 -0.057,-2.149 1.521,1.521 0 0 1 0.057,2.149 z"
           data-name="Path 330"
           id="Path_330"
           inkscape:connector-curvature="0"
           style="fill:#ffdc01" />
        <path
           transform="translate(-998.71,-210.67)"
           d="m 1001.654,211.655 a 1.523,1.523 0 0 1 -2.9,0.17 1.521,1.521 0 1 0 2.9,-0.17 z"
           data-name="Path 331"
           id="Path_331"
           inkscape:connector-curvature="0"
           style="fill:#ffb703" />
        <path
           transform="translate(-1000.877,-207.375)"
           d="m 1003.268,208.122 c -0.98,-0.578 -1.51,-0.026 -1.965,0.33 a 1.163,1.163 0 0 1 1.965,-0.33 z"
           data-name="Path 332"
           id="Path_332"
           inkscape:connector-curvature="0"
           style="fill:#fff876" />
      </g>
    </g>
  </g>
</svg>
