<svg xmlns="http://www.w3.org/2000/svg" viewBox="0 0 317.66 359.75"><defs><style>.cls-1{fill:#fdc00f;}.cls-2{fill:#16b6c6;}.cls-3{fill:#fff;opacity:0.3;}</style></defs><title>icon-1</title><g id="Layer_2" data-name="Layer 2"><g id="Layer_1-2" data-name="Layer 1"><path class="cls-1" d="M158.84,359.75c-37.4,0-57.59-92.67-57.59-179.87S121.44,0,158.84,0s57.59,92.68,57.59,179.88S196.25,359.75,158.84,359.75Zm0-347.9c-21.63,0-45.74,69-45.74,168s24.11,168,45.74,168,45.74-69,45.74-168S180.48,11.85,158.84,11.85Z"/><path class="cls-1" d="M281.08,283.63c-35.6,0-93.47-20.64-151-53.88-40.73-23.51-76.35-50.38-100.3-75.66C3.84,126.75-5.39,104.57,3.06,89.94c5.29-9.17,16.57-13.82,33.53-13.82,35.6,0,93.48,20.65,151,53.89,40.72,23.51,76.34,50.38,100.3,75.66,25.9,27.34,35.13,49.51,26.69,64.14C309.32,279,298,283.63,281.08,283.63ZM36.59,88c-8.54,0-19.51,1.37-23.27,7.89-5.32,9.21,4,27.93,25,50.08,23.19,24.47,57.86,50.59,97.62,73.55,55.87,32.25,111.47,52.29,145.11,52.29,8.54,0,19.51-1.37,23.28-7.89,5.31-9.21-4.05-27.93-25-50.07-23.2-24.48-57.87-50.6-97.62-73.55C125.84,108,70.23,88,36.59,88Z"/><path class="cls-1" d="M36.58,283.63c-16.95,0-28.23-4.64-33.52-13.81-18.7-32.4,51.47-96.22,127-139.81,57.56-33.24,115.44-53.89,151-53.89,17,0,28.23,4.65,33.52,13.82,8.45,14.63-.78,36.81-26.69,64.15-23.95,25.28-59.57,52.15-100.29,75.66C130.06,263,72.18,283.63,36.58,283.63ZM281.09,88c-33.65,0-89.25,20-145.12,52.3C50.22,189.77,2.5,245.16,13.32,263.9c3.76,6.52,14.73,7.89,23.26,7.89,33.64,0,89.25-20,145.13-52.31,39.75-22.95,74.42-49.06,97.61-73.54,21-22.15,30.35-40.87,25-50.08C300.59,89.34,289.62,88,281.09,88Z"/><path class="cls-2" d="M121.58,179.88a37.26,37.26,0,1,1,37.26,37.25A37.26,37.26,0,0,1,121.58,179.88Z"/><path class="cls-3" d="M128.27,174.22a24.16,24.16,0,1,1,24.16,24.16A24.15,24.15,0,0,1,128.27,174.22Z"/><path class="cls-2" d="M64.91,82.65A17.49,17.49,0,1,1,47.42,65.17,17.49,17.49,0,0,1,64.91,82.65Z"/><path class="cls-2" d="M133.6,277.71a17.49,17.49,0,1,1-17.48-17.48A17.48,17.48,0,0,1,133.6,277.71Z"/><path class="cls-2" d="M247,91.6a17.49,17.49,0,1,1-17.49-17.48A17.5,17.5,0,0,1,247,91.6Z"/><path class="cls-3" d="M238.64,88.23a11.91,11.91,0,1,1-11.91-11.9A11.91,11.91,0,0,1,238.64,88.23Z"/><path class="cls-3" d="M56.88,79.7A11.91,11.91,0,1,1,45,67.79,11.9,11.9,0,0,1,56.88,79.7Z"/><path class="cls-3" d="M124.65,275.29a11.91,11.91,0,1,1-11.9-11.9A11.91,11.91,0,0,1,124.65,275.29Z"/></g></g></svg>