<svg xmlns="http://www.w3.org/2000/svg" viewBox="0 0 201.45 315.29"><defs><style>.cls-1{fill:#fc611f;}.cls-2{fill:#184f78;}.cls-3{fill:#7495ae;}.cls-4{opacity:0.3;}</style></defs><title>icon-3</title><g id="Layer_2" data-name="Layer 2"><g id="Layer_1-2" data-name="Layer 1"><path class="cls-1" d="M167.08,218.49h7v-7.28H136.72v7.28h7V224H131v9.31h12.77v3.18a72.51,72.51,0,1,1-47.85-127V86.12a95.88,95.88,0,1,0,67.79,163.67,11.69,11.69,0,0,0,3.43-8.26V233.3h12.76V224H167.08Z"/><polygon class="cls-2" points="142.05 132.67 98.14 158.02 39.39 56.27 83.31 30.91 142.05 132.67"/><rect class="cls-3" x="113.75" y="143.42" width="27.04" height="28.69" transform="translate(-61.81 84.71) rotate(-29.98)"/><polygon class="cls-3" points="73.07 36.83 49.63 50.36 41.3 35.91 64.73 22.39 73.07 36.83"/><rect class="cls-2" x="28.69" y="7.76" width="37.19" height="22.93" transform="translate(-3.28 26.22) rotate(-30)"/><rect class="cls-1" x="56.41" y="289.16" width="74.54" height="10.73"/><path class="cls-2" d="M93.69,263.3c-20.58,0-37.28,11.57-37.28,25.86H131C131,274.87,114.27,263.3,93.69,263.3Z"/><path class="cls-2" d="M139.34,315.29v-10c0-3-4.18-5.37-9.33-5.37H57.36c-5.15,0-9.34,2.4-9.34,5.36v10Z"/><path class="cls-1" d="M86.77,277a6.92,6.92,0,1,1,6.92,6.92A6.92,6.92,0,0,1,86.77,277Z"/><path class="cls-4" d="M93.69,282.27a6.91,6.91,0,0,1-6.84-6.09,7.77,7.77,0,0,0-.08.83,6.92,6.92,0,1,0,13.83,0,7.77,7.77,0,0,0-.08-.83A6.9,6.9,0,0,1,93.69,282.27Z"/><rect class="cls-2" x="109.36" y="201.9" width="92.1" height="9.31"/><path class="cls-4" d="M107.37,304c4.37-.33,8.44-.83,11.94-1.43a79.76,79.76,0,0,0,11.5-2.64c-.27,0-.53-.05-.8-.05H57.36c-.27,0-.53,0-.79,0a81,81,0,0,0,11.49,2.62c3.5.6,7.57,1.1,11.94,1.43s9,.57,13.68.57S103,304.37,107.37,304Z"/><rect class="cls-2" x="109.35" y="215.22" width="92.1" height="9.31"/><rect class="cls-4" x="130.95" y="224.53" width="48.9" height="4.67"/><rect class="cls-4" x="136.72" y="211.21" width="37.37" height="4.01"/><polygon class="cls-4" points="131.81 138.59 108.39 152.1 139.61 152.1 131.81 138.59"/><polygon class="cls-4" points="64.73 22.39 41.3 35.91 72.54 35.91 64.73 22.39"/></g></g></svg>