<svg xmlns="http://www.w3.org/2000/svg" viewBox="0 0 386.63 218.21"><defs><style>.cls-1{fill:#184f78;}.cls-2{opacity:0.3;}.cls-3{fill:#467293;}.cls-4{fill:#fdc00f;}.cls-5{fill:#fed96f;}</style></defs><title>icon-4</title><g id="Layer_2" data-name="Layer 2"><g id="Layer_1-2" data-name="Layer 1"><path class="cls-1" d="M296,83.24v99.39c0,11.36-79.89,35.58-102.65,35.58S90.67,194,90.67,182.63V83.24Z"/><polygon class="cls-2" points="295.96 129.3 193.32 168.04 90.67 129.3 90.67 93.25 295.96 93.25 295.96 129.3"/><polygon class="cls-1" points="193.32 0 386.63 72.96 193.32 145.93 0 72.96 193.32 0"/><polygon class="cls-3" points="193.32 145.93 386.63 72.96 386.63 82.97 193.32 155.94 0 82.97 0 72.96 193.32 145.93"/><path class="cls-4" d="M78.47,163.77h8.62S106,190.49,93.56,217.3H72C59.55,190.49,78.47,163.77,78.47,163.77Z"/><path class="cls-5" d="M76,212.88c-.46-2.44-.23-5.39-.38-8.47a28.14,28.14,0,0,1,.15-4.75c.14-1.61.27-3.24.42-4.88a45,45,0,0,1,.71-4.79c.28-1.55.55-3.09.82-4.58.78-2.89,1.31-5.65,2.09-7.88a62.61,62.61,0,0,1,2.61-7.36,64.46,64.46,0,0,0-2,7.6c-.62,2.28-.94,5.07-1.49,8-.16,1.48-.32,3-.49,4.57A43.14,43.14,0,0,0,78,195c0,1.58,0,3.17-.06,4.72a26.13,26.13,0,0,0,.18,4.54c.37,2.9.33,5.68.93,7.9s.87,3.82,1.15,5.11H76.63C76.44,216.05,76.23,214.61,76,212.88Z"/><path class="cls-5" d="M86.5,212.19c.6-2.22.56-5,.92-7.9a26.12,26.12,0,0,0,.19-4.54c0-1.55,0-3.14-.06-4.72a43.14,43.14,0,0,0-.36-4.71c-.16-1.56-.32-3.09-.48-4.57-.55-2.91-.88-5.7-1.49-8a67,67,0,0,0-2-7.6,61.68,61.68,0,0,1,2.6,7.36c.79,2.23,1.32,5,2.09,7.88l.83,4.58a44.57,44.57,0,0,1,.71,4.79c.14,1.64.28,3.27.42,4.88a28.14,28.14,0,0,1,.15,4.75c-.15,3.08.08,6-.38,8.47-.26,1.73-.47,3.17-.66,4.42H85.34C85.63,216,86,214.29,86.5,212.19Z"/><path class="cls-5" d="M69.88,209a26.59,26.59,0,0,1-.37-4.89,32.64,32.64,0,0,1,.23-5.2,44.21,44.21,0,0,1,.81-5.22,58.83,58.83,0,0,1,6.92-17.07A51.92,51.92,0,0,1,82,170.17,53.5,53.5,0,0,0,78,177.06a59,59,0,0,0-5.58,17.19,39.38,39.38,0,0,0-.43,4.93,28.81,28.81,0,0,0,.12,4.76,21.72,21.72,0,0,0,.62,4.33,19.87,19.87,0,0,0,1,3.73,26.4,26.4,0,0,0,2.14,5.19,1,1,0,0,1,0,.11H72c-.26-.57-.44-1.13-.67-1.7-.22-.73-.45-1.42-.64-2.29A23.87,23.87,0,0,1,69.88,209Z"/><path class="cls-5" d="M82.78,170.17l1.75,47.13H81Z"/><path class="cls-5" d="M89.77,217.19A27.11,27.11,0,0,0,91.9,212a19.14,19.14,0,0,0,1-3.73,21.71,21.71,0,0,0,.63-4.33,28.81,28.81,0,0,0,.12-4.76,43.56,43.56,0,0,0-.43-4.93,59.32,59.32,0,0,0-5.58-17.19,55,55,0,0,0-4.06-6.89,52.65,52.65,0,0,1,4.53,6.47A58.55,58.55,0,0,1,95,193.71a44.24,44.24,0,0,1,.82,5.22,31.49,31.49,0,0,1,.22,5.2,25.74,25.74,0,0,1-.37,4.89,23.05,23.05,0,0,1-.8,4.29c-.19.87-.42,1.57-.65,2.3-.23.57-.4,1.12-.66,1.69H89.71Z"/><path class="cls-5" d="M92.53,163.77a9.75,9.75,0,1,0-9.75,9.75A9.74,9.74,0,0,0,92.53,163.77Z"/><ellipse class="cls-2" cx="193.31" cy="72.97" rx="30.72" ry="18.21"/><path class="cls-4" d="M163.21,76.64a17,17,0,0,0,6.49,8l.15.51L87.78,109.38v54.39h-10V101.9Z"/><path class="cls-1" d="M224,70.43c0-8.66-11.84-15.67-26.45-15.67s-26.45,7-26.45,15.67S183,86.11,197.59,86.11,224,79.09,224,70.43Z"/></g></g></svg>