<?xml version="1.0" encoding="iso-8859-1"?>
<!-- Generator: Adobe Illustrator 19.0.0, SVG Export Plug-In . SVG Version: 6.00 Build 0)  -->
<svg version="1.1" id="Capa_1" xmlns="http://www.w3.org/2000/svg" xmlns:xlink="http://www.w3.org/1999/xlink" x="0px" y="0px"
	 viewBox="0 0 512 512" style="enable-background:new 0 0 512 512;" xml:space="preserve">
<path style="fill:#FDCD08;" d="M154.166,156.132v18.965c0,2.122-1.722,3.844-3.844,3.844h-10.057
	c-1.384,5.72-3.629,11.103-6.612,15.993l7.104,7.104c1.497,1.507,1.497,3.937,0,5.444l-13.409,13.409
	c-1.507,1.497-3.937,1.497-5.444,0l-7.104-7.104c-4.89,2.983-10.272,5.228-15.993,6.612v10.057c0,2.122-1.722,3.844-3.844,3.844
	H75.997c-2.122,0-3.844-1.722-3.844-3.844V220.4c-5.72-1.384-11.103-3.629-15.993-6.612l-7.104,7.104
	c-1.507,1.497-3.937,1.497-5.444,0l-13.409-13.409c-1.497-1.507-1.497-3.937,0-5.444l7.104-7.104
	c-2.983-4.89-5.228-10.272-6.612-15.993H20.638c-2.122,0-3.844-1.722-3.844-3.844v-18.965c0-2.122,1.722-3.844,3.844-3.844h10.057
	c1.384-5.72,3.629-11.103,6.612-15.993l-7.104-7.104c-1.497-1.507-1.497-3.937,0-5.444l13.409-13.409
	c1.507-1.497,3.937-1.497,5.444,0l7.104,7.104c4.89-2.983,10.272-5.228,15.993-6.612v-10.057c0-2.122,1.722-3.844,3.844-3.844
	h18.966c2.122,0,3.844,1.722,3.844,3.844v10.057c5.72,1.384,11.103,3.629,15.993,6.612l7.104-7.104c1.507-1.497,3.937-1.497,5.444,0
	l13.409,13.409c1.497,1.507,1.497,3.937,0,5.444l-7.104,7.104c2.983,4.89,5.228,10.272,6.612,15.993h10.057
	C152.443,152.288,154.166,154.01,154.166,156.132z M115.21,165.615c0-16.423-13.307-29.73-29.73-29.73s-29.73,13.307-29.73,29.73
	s13.307,29.73,29.73,29.73S115.21,182.038,115.21,165.615z"/>
<path style="fill:#32B678;" d="M422.758,410.373v18.965c0,2.122-1.722,3.844-3.844,3.844h-10.057
	c-1.384,5.72-3.629,11.103-6.612,15.993l7.104,7.104c1.497,1.507,1.497,3.937,0,5.444l-13.409,13.409
	c-1.507,1.497-3.937,1.497-5.444,0l-7.104-7.104c-4.89,2.983-10.272,5.228-15.993,6.612v10.057c0,2.122-1.722,3.844-3.844,3.844
	H344.59c-2.122,0-3.844-1.722-3.844-3.844V474.64c-5.72-1.384-11.103-3.629-15.993-6.612l-7.104,7.104
	c-1.507,1.497-3.937,1.497-5.444,0l-13.409-13.409c-1.497-1.507-1.497-3.937,0-5.444l7.104-7.104
	c-2.983-4.89-5.228-10.272-6.612-15.993h-10.057c-2.122,0-3.844-1.722-3.844-3.844v-18.965c0-2.122,1.722-3.844,3.844-3.844h10.057
	c1.384-5.72,3.629-11.103,6.612-15.993l-7.104-7.104c-1.497-1.507-1.497-3.937,0-5.444l13.409-13.409
	c1.507-1.497,3.937-1.497,5.444,0l7.104,7.104c4.89-2.983,10.272-5.228,15.993-6.612v-10.057c0-2.122,1.722-3.844,3.844-3.844
	h18.966c2.122,0,3.844,1.722,3.844,3.844v10.057c5.72,1.384,11.102,3.629,15.993,6.612l7.104-7.104c1.507-1.497,3.937-1.497,5.444,0
	l13.409,13.409c1.497,1.507,1.497,3.937,0,5.444l-7.104,7.104c2.983,4.89,5.228,10.272,6.612,15.993h10.057
	C421.036,406.528,422.758,408.25,422.758,410.373z M383.802,419.855c0-16.423-13.307-29.73-29.73-29.73s-29.73,13.307-29.73,29.73
	c0,16.423,13.307,29.73,29.73,29.73S383.802,436.278,383.802,419.855z"/>
<path style="fill:#5DCBF3;" d="M496.867,132.687h-14.281c-1.322,0-2.45-0.933-2.727-2.214c-3.352-15.531-9.462-30.027-17.797-42.954
	c-0.718-1.107-0.584-2.563,0.349-3.496l10.108-10.108c5.29-5.29,5.29-13.87,0-19.16L455.646,37.89c-5.29-5.29-13.86-5.29-19.15,0
	l-10.108,10.098c-0.933,0.933-2.389,1.076-3.496,0.359c-12.927-8.335-27.433-14.445-42.954-17.797
	c-1.292-0.277-2.214-1.404-2.214-2.727v-14.28C377.723,6.059,371.654,0,364.17,0h-23.855c-7.484,0-13.553,6.059-13.553,13.542
	v14.281c0,1.322-0.923,2.45-2.214,2.727c-15.521,3.352-30.017,9.462-42.954,17.797c-1.107,0.718-2.563,0.574-3.496-0.359L268,37.89
	c-5.29-5.29-13.87-5.29-19.16,0l-16.874,16.864c-5.29,5.29-5.29,13.87,0,19.16l10.108,10.108c0.933,0.933,1.066,2.389,0.359,3.496
	c-8.345,12.927-14.455,27.423-17.807,42.954c-0.277,1.281-1.404,2.214-2.727,2.214h-14.281c-7.473,0-13.542,6.069-13.542,13.542
	v23.866c0,7.484,6.069,13.542,13.542,13.542h14.281c1.322,0,2.45,0.933,2.727,2.225c3.076,14.219,8.468,27.587,15.757,39.674
	l4.644,7.996l39.848,36.496c12.087,7.289,25.445,12.681,39.674,15.746c1.292,0.287,2.214,1.415,2.214,2.727v14.281
	c0,7.484,6.069,13.553,13.553,13.553h23.855c7.484,0,13.553-6.069,13.553-13.553v-14.281c0-1.322,0.923-2.44,2.214-2.727
	c15.521-3.352,30.027-9.462,42.954-17.797c1.107-0.718,2.563-0.574,3.496,0.359l10.108,10.108c5.29,5.29,13.86,5.29,19.15,0
	l16.874-16.874c5.29-5.29,5.29-13.87,0-19.16l-10.108-10.098c-0.933-0.943-1.066-2.389-0.349-3.506
	c8.335-12.927,14.445-27.423,17.797-42.944c0.277-1.292,1.404-2.225,2.727-2.225h14.281c7.473,0,13.542-6.059,13.542-13.542v-23.866
	C510.41,138.756,504.342,132.687,496.867,132.687z M352.248,253.697c-16.69,0-32.364-4.275-46.02-11.8l20.206-20.206
	c24.932,11.062,55.154,6.387,75.595-14.055c18.938-18.938,24.345-46.266,16.249-70.011c-0.383-1.126-1.809-1.468-2.65-0.627
	l-15.096,15.096l-8.671-28.894c-0.212-0.707-0.766-1.261-1.473-1.473l-28.884-8.671L376.6,97.959
	c0.841-0.841,0.497-2.267-0.627-2.65c-23.746-8.096-51.084-2.689-70.022,16.249c-20.442,20.442-25.116,50.664-14.045,75.606
	l-21.047,21.057l-0.01-0.01c-9.135-14.826-14.337-32.332-14.142-51.065c0.537-51.582,42.577-93.779,94.157-94.508
	c53.388-0.756,96.918,42.299,96.918,95.525C447.782,210.927,405.002,253.697,352.248,253.697z"/>
<path style="fill:#CACBCB;" d="M306.228,241.897L131.612,416.513c11.062,24.932,6.387,55.154-14.055,75.606
	c-18.459,18.459-44.89,24.053-68.204,16.827c-1.966-0.61-2.606-3.066-1.151-4.522l39.974-39.983l-11.902-27.874l-27.126-11.154
	L9.165,465.395c-1.456,1.456-3.913,0.816-4.523-1.151c-7.225-23.314-1.622-49.745,16.837-68.203
	c20.442-20.452,50.664-25.116,75.606-14.055L270.86,208.221l21.047-21.057c-11.072-24.942-6.397-55.164,14.045-75.606
	c18.938-18.938,46.276-24.345,70.022-16.249c1.126,0.383,1.468,1.809,0.627,2.65l-15.096,15.096L335.23,139.33l11.256,27.023
	l27.772,12.005l26.275-26.265l15.096-15.096c0.841-0.841,2.267-0.497,2.65,0.627c8.096,23.746,2.689,51.074-16.249,70.011
	c-20.442,20.442-50.664,25.116-75.595,14.055L306.228,241.897z"/>
<path style="fill:#BEBEBD;" d="M35.652,410.54c20.442-20.452,50.664-25.116,75.606-14.055L285.033,222.72l21.047-21.057
	c-11.072-24.942-6.397-55.164,14.045-75.606c13.32-13.32,30.797-19.936,48.256-19.878l8.221-8.221
	c0.841-0.841,0.497-2.267-0.627-2.65c-23.746-8.096-51.084-2.689-70.022,16.249c-20.442,20.442-25.116,50.664-14.045,75.606
	l-21.047,21.057L97.086,381.985c-24.942-11.062-55.164-6.397-75.606,14.055C3.021,414.499-2.583,440.93,4.643,464.244
	c0.609,1.966,3.067,2.606,4.523,1.151l6.602-6.602C15.708,441.335,22.331,423.862,35.652,410.54z"/>
<path style="fill:#A3A4A3;" d="M390.389,121.726l-28.884-8.671L335.23,139.33l11.256,26.275l27.772,12.753l26.275-26.265
	l-8.671-28.894C391.65,122.492,391.096,121.938,390.389,121.726z"/>
<path style="fill:#CACBCB;" d="M375.765,137.823c3.311,3.322,3.311,8.693,0,12.015c-3.322,3.311-8.693,3.311-12.015,0
	c-3.311-3.322-3.311-8.693,0-12.015C367.071,134.512,372.443,134.512,375.765,137.823z"/>
<g>
</g>
<g>
</g>
<g>
</g>
<g>
</g>
<g>
</g>
<g>
</g>
<g>
</g>
<g>
</g>
<g>
</g>
<g>
</g>
<g>
</g>
<g>
</g>
<g>
</g>
<g>
</g>
<g>
</g>
</svg>
