<?xml version="1.0" standalone="no"?>
<!DOCTYPE svg PUBLIC "-//W3C//DTD SVG 1.1//EN" "http://www.w3.org/Graphics/SVG/1.1/DTD/svg11.dtd" >
<svg xmlns="http://www.w3.org/2000/svg" xmlns:xlink="http://www.w3.org/1999/xlink" version="1.1">
<metadata>
Created by FontForge 20190801 at Fri Oct 25 09:21:10 2019
 By Jimmy Wärting
Copyright \(c\) 2019 by 29Letters. All rights reserved.
</metadata>
<defs>
<font id="29LTBukra-Bold" horiz-adv-x="0" >
  <font-face 
    font-family="29LT Bukra"
    font-weight="700"
    font-stretch="normal"
    units-per-em="1000"
    panose-1="2 11 8 4 4 0 0 0 0 4"
    ascent="800"
    descent="-200"
    x-height="582"
    cap-height="811"
    bbox="-915 -432 1982 1112"
    underline-thickness="50"
    underline-position="-100"
    stemh="124"
    stemv="186"
    unicode-range="U+000D-FEFC"
  />
<missing-glyph horiz-adv-x="500" 
 />
    <glyph glyph-name="f_b.liga" unicode="fb" horiz-adv-x="1162" 
d="M803 608c200 0 320 -131 320 -311v-2c0 -180 -127 -312 -328 -312c-114 0 -188 17 -275 62v637h-131c-60 0 -84 -26 -84 -64v-36h151v-172h-151v-410h-187v410h-98v172h98v46c0 118 80 183 246 183h344v-215c30 7 62 12 95 12zM934 295v2c0 82 -48 143 -139 143
c-29 0 -61 -6 -87 -12v-265c26 -8 56 -12 87 -12c91 0 139 62 139 144z" />
    <glyph glyph-name="f_h.liga" unicode="fh" horiz-adv-x="1126" 
d="M796 608c146 0 278 -49 278 -229v-379h-188v357c0 60 -32 83 -97 83c-21 0 -53 -3 -81 -8v-432h-188v682h-131c-60 0 -84 -26 -84 -64v-36h151v-172h-151v-410h-187v410h-98v172h98v46c0 118 80 183 246 183h344v-208c35 3 65 5 88 5z" />
    <glyph glyph-name="f_k.liga" unicode="fk" horiz-adv-x="1115" 
d="M708 306l6 -11l-6 -10v-285h-188v682h-131c-60 0 -84 -26 -84 -64v-36h151v-172h-151v-410h-187v410h-98v172h98v46c0 118 80 183 246 183h344v-505zM1104 0h-215l-175 295l179 287h204l-177 -285z" />
    <glyph glyph-name="f_t.liga" unicode="ft" horiz-adv-x="1022" 
d="M860 175h121v-175h-207c-135 0 -187 62 -187 192v217h-98v1h-184v-410h-187v410h-98v172h98v46c0 118 79 183 246 183h147v-129h-122c-60 0 -84 -26 -84 -64v-36h282v171h188v-171h205v-173h-205v-157c0 -52 25 -77 85 -77z" />
    <glyph glyph-name="fi" unicode="fi" horiz-adv-x="707" 
d="M389 682c-60 0 -84 -26 -84 -64v-36h162v1h188v-583h-188v410h-162v-410h-187v410h-98v172h98v46c0 118 80 183 246 183h291v-129h-266z" />
    <glyph glyph-name="fl" unicode="fl" horiz-adv-x="760" 
d="M708 811v-811h-188v682h-131c-60 0 -84 -26 -84 -64v-36h151v-172h-151v-410h-187v410h-98v172h98v46c0 118 80 183 246 183h344z" />
    <glyph glyph-name="uniFE91FE8E" unicode="&#xfe91;&#xfe8e;" horiz-adv-x="684" 
d="M438 583h186v-583h-550v811h186v-625h178v397zM349 -84c54 0 96 -34 96 -86c0 -59 -46 -87 -96 -87c-51 0 -97 28 -97 87c0 52 43 86 97 86z" />
    <glyph glyph-name="uniFE91FE84" unicode="&#xfe91;&#xfe84;" horiz-adv-x="684" 
d="M267 835v-78h-200v66c0 83 53 115 127 115h46v-65h-45c-19 0 -32 -12 -32 -30v-8h104zM438 583h186v-583h-550v692h186v-506h178v397zM349 -84c54 0 96 -34 96 -86c0 -59 -46 -87 -96 -87c-51 0 -97 28 -97 87c0 52 43 86 97 86z" />
    <glyph glyph-name="uniFE91FE82" unicode="&#xfe91;&#xfe82;" horiz-adv-x="684" 
d="M274 822v-85h-215v85h215zM438 583h186v-583h-550v692h186v-506h178v397zM349 -84c54 0 96 -34 96 -86c0 -59 -46 -87 -96 -87c-51 0 -97 28 -97 87c0 52 43 86 97 86z" />
    <glyph glyph-name="uniFE91FB51" unicode="&#xfe91;&#xfb51;" horiz-adv-x="684" 
d="M289 812v-75h-245v75c0 73 42 111 122 111h1c80 0 122 -38 122 -111zM199 812v7c0 22 -11 33 -32 33h-1c-21 0 -32 -11 -32 -33v-7h65zM438 583h186v-583h-550v692h186v-506h178v397zM349 -84c54 0 96 -34 96 -86c0 -59 -46 -87 -96 -87c-51 0 -97 28 -97 87
c0 52 43 86 97 86z" />
    <glyph glyph-name="uniFC6A" unicode="&#xfe92;&#xfeae;" horiz-adv-x="823" arabic-form="final" 
d="M818 187h24v-187h-24c-196 0 -299 110 -299 319v77h-184v-317c0 -235 -84 -299 -249 -299c-30 0 -60 3 -86 9l-20 161c36 -2 59 -2 87 -2c45 0 82 25 82 99v536h370v120h186v-397c0 -78 39 -119 113 -119zM478 -84c54 0 96 -34 96 -86c0 -59 -46 -87 -96 -87
c-51 0 -97 28 -97 87c0 52 43 86 97 86z" />
    <glyph glyph-name="uniFC6B" unicode="&#xfe92;&#xfeb0;" horiz-adv-x="823" arabic-form="final" 
d="M245 670c-51 0 -97 28 -97 87c0 52 43 86 97 86s96 -34 96 -86c0 -59 -46 -87 -96 -87zM818 187h24v-187h-24c-196 0 -299 110 -299 319v77h-184v-317c0 -235 -84 -299 -249 -299c-30 0 -60 3 -86 9l-20 161c36 -2 59 -2 87 -2c45 0 82 25 82 99v536h370v120h186v-397
c0 -78 39 -119 113 -119zM478 -84c54 0 96 -34 96 -86c0 -59 -46 -87 -96 -87c-51 0 -97 28 -97 87c0 52 43 86 97 86z" />
    <glyph glyph-name="uniFC6D" unicode="&#xfe92;&#xfee6;" horiz-adv-x="1160" arabic-form="final" 
d="M346 601c-51 0 -97 28 -97 87c0 52 43 86 97 86s96 -34 96 -86c0 -59 -46 -87 -96 -87zM1156 187h24v-187h-24c-196 0 -299 110 -299 319v9h-212v-453h-269c-212 0 -333 119 -333 325v314h186v-292c0 -114 71 -161 176 -161h54v453h398v119h187v-327
c0 -78 38 -119 112 -119zM843 -84c54 0 96 -34 96 -86c0 -59 -46 -87 -96 -87c-51 0 -97 28 -97 87c0 52 43 86 97 86z" />
    <glyph glyph-name="uniFC6E" unicode="&#xfe92;&#xfef0;" horiz-adv-x="1240" arabic-form="final" 
d="M1235 187h24v-187h-24c-196 0 -299 110 -299 319v88h-99c-89 0 -132 -49 -132 -137v-395h-330c-224 0 -333 112 -333 332v196h186v-177c0 -118 77 -165 187 -165h103v210c0 212 106 312 319 312h99v120h186v-397c0 -78 39 -119 113 -119zM915 -84c54 0 96 -34 96 -86
c0 -59 -46 -87 -96 -87c-51 0 -97 28 -97 87c0 52 43 86 97 86z" />
    <glyph glyph-name="uniFC6F" unicode="&#xfe92;&#xfef2;" horiz-adv-x="1240" arabic-form="final" 
d="M1235 187h24v-187h-24c-196 0 -299 110 -299 319v88h-99c-89 0 -132 -49 -132 -137v-395h-330c-224 0 -333 112 -333 332v196h186v-177c0 -118 77 -165 187 -165h103v210c0 212 106 312 319 312h99v120h186v-397c0 -78 39 -119 113 -119zM915 -84c54 0 96 -34 96 -86
c0 -59 -46 -87 -96 -87c-51 0 -97 28 -97 87c0 52 43 86 97 86zM364 -210c54 0 96 -33 96 -85c0 -57 -45 -86 -96 -86c-50 0 -95 29 -95 86c0 52 42 85 95 85zM587 -210c55 0 96 -33 96 -85c0 -57 -45 -86 -96 -86c-50 0 -95 29 -95 86c0 52 41 85 95 85z" />
    <glyph glyph-name="uniFE92FE8A" unicode="&#xfe92;&#xfe8a;" horiz-adv-x="1240" 
d="M1235 187h24v-187h-24c-196 0 -299 110 -299 319v88h-99c-89 0 -132 -49 -132 -137v-395h-330c-224 0 -333 112 -333 332v196h186v-177c0 -118 77 -165 187 -165h103v210c0 212 106 312 319 312h99v120h186v-397c0 -78 39 -119 113 -119zM235 545v-78h-200v66
c0 83 53 115 127 115h46v-65h-45c-19 0 -32 -12 -32 -30v-8h104zM974 -84c54 0 96 -34 96 -86c0 -59 -46 -87 -96 -87c-51 0 -97 28 -97 87c0 52 43 86 97 86z" />
    <glyph glyph-name="uniFB58FE8E" unicode="&#xfb58;&#xfe8e;" horiz-adv-x="794" 
d="M546 583h187v-583h-660v811h186v-625h287v397zM389 -171c0 -56 -44 -83 -92 -83c-47 0 -91 27 -91 83c0 50 39 82 91 82c53 0 92 -32 92 -82zM513 -89c53 0 91 -32 91 -82c0 -56 -43 -83 -91 -83s-92 27 -92 83c0 50 40 82 92 82zM405 -254c46 0 79 -28 79 -69
c0 -48 -35 -71 -79 -71c-39 0 -78 23 -78 71c0 41 33 69 78 69z" />
    <glyph glyph-name="uniFB58FE84" unicode="&#xfb58;&#xfe84;" horiz-adv-x="794" 
d="M267 835v-78h-200v66c0 83 53 115 127 115h46v-65h-45c-19 0 -32 -12 -32 -30v-8h104zM546 583h187v-583h-660v692h186v-506h287v397zM389 -171c0 -56 -44 -83 -92 -83c-47 0 -91 27 -91 83c0 50 39 82 91 82c53 0 92 -32 92 -82zM513 -89c53 0 91 -32 91 -82
c0 -56 -43 -83 -91 -83s-92 27 -92 83c0 50 40 82 92 82zM405 -254c46 0 79 -28 79 -69c0 -48 -35 -71 -79 -71c-39 0 -78 23 -78 71c0 41 33 69 78 69z" />
    <glyph glyph-name="uniFB58FE82" unicode="&#xfb58;&#xfe82;" horiz-adv-x="794" 
d="M275 822v-85h-215v85h215zM546 583h187v-583h-660v692h186v-506h287v397zM389 -171c0 -56 -44 -83 -92 -83c-47 0 -91 27 -91 83c0 50 39 82 91 82c53 0 92 -32 92 -82zM513 -89c53 0 91 -32 91 -82c0 -56 -43 -83 -91 -83s-92 27 -92 83c0 50 40 82 92 82zM405 -254
c46 0 79 -28 79 -69c0 -48 -35 -71 -79 -71c-39 0 -78 23 -78 71c0 41 33 69 78 69z" />
    <glyph glyph-name="uniFB58FB51" unicode="&#xfb58;&#xfb51;" horiz-adv-x="794" 
d="M290 812v-75h-245v75c0 73 42 111 122 111h1c80 0 122 -38 122 -111zM200 812v7c0 22 -11 33 -32 33h-1c-21 0 -32 -11 -32 -33v-7h65zM546 583h187v-583h-660v692h186v-506h287v397zM389 -171c0 -56 -44 -83 -92 -83c-47 0 -91 27 -91 83c0 50 39 82 91 82
c53 0 92 -32 92 -82zM513 -89c53 0 91 -32 91 -82c0 -56 -43 -83 -91 -83s-92 27 -92 83c0 50 40 82 92 82zM405 -254c46 0 79 -28 79 -69c0 -48 -35 -71 -79 -71c-39 0 -78 23 -78 71c0 41 33 69 78 69z" />
    <glyph glyph-name="uniFB58FB59" unicode="&#xfb58;&#xfb59;" horiz-adv-x="1038" 
d="M0 0v186h154v397h186v-397h450v397h187v-583h-977zM239 -171c0 -56 -44 -83 -92 -83c-47 0 -91 27 -91 83c0 50 39 82 91 82c53 0 92 -32 92 -82zM363 -89c53 0 91 -32 91 -82c0 -56 -43 -83 -91 -83s-92 27 -92 83c0 50 40 82 92 82zM769 -171c0 -56 -44 -83 -92 -83
c-47 0 -91 27 -91 83c0 50 39 82 91 82c53 0 92 -32 92 -82zM893 -89c53 0 91 -32 91 -82c0 -56 -43 -83 -91 -83s-92 27 -92 83c0 50 40 82 92 82zM255 -254c46 0 79 -28 79 -69c0 -48 -35 -71 -79 -71c-39 0 -78 23 -78 71c0 41 33 69 78 69zM785 -254c46 0 79 -28 79 -69
c0 -48 -35 -71 -79 -71c-39 0 -78 23 -78 71c0 41 33 69 78 69z" />
    <glyph glyph-name="uniFB59FEAE" unicode="&#xfb59;&#xfeae;" horiz-adv-x="823" 
d="M818 187h24v-187h-24c-196 0 -299 110 -299 319v77h-184v-317c0 -235 -84 -299 -249 -299c-30 0 -60 3 -86 9l-20 161c36 -2 59 -2 87 -2c45 0 82 25 82 99v536h370v120h186v-397c0 -78 39 -119 113 -119zM532 -171c0 -56 -44 -83 -92 -83c-47 0 -91 27 -91 83
c0 50 39 82 91 82c53 0 92 -32 92 -82zM656 -89c53 0 91 -32 91 -82c0 -56 -43 -83 -91 -83s-92 27 -92 83c0 50 40 82 92 82zM548 -254c46 0 79 -28 79 -69c0 -48 -35 -71 -79 -71c-39 0 -78 23 -78 71c0 41 33 69 78 69z" />
    <glyph glyph-name="uniFB59FEB0" unicode="&#xfb59;&#xfeb0;" horiz-adv-x="823" 
d="M231 670c-51 0 -97 28 -97 87c0 52 43 86 97 86s96 -34 96 -86c0 -59 -46 -87 -96 -87zM818 187h24v-187h-24c-196 0 -299 110 -299 319v77h-184v-317c0 -235 -84 -299 -249 -299c-30 0 -60 3 -86 9l-20 161c36 -2 59 -2 87 -2c45 0 82 25 82 99v536h370v120h186v-397
c0 -78 39 -119 113 -119zM532 -171c0 -56 -44 -83 -92 -83c-47 0 -91 27 -91 83c0 50 39 82 91 82c53 0 92 -32 92 -82zM656 -89c53 0 91 -32 91 -82c0 -56 -43 -83 -91 -83s-92 27 -92 83c0 50 40 82 92 82zM548 -254c46 0 79 -28 79 -69c0 -48 -35 -71 -79 -71
c-39 0 -78 23 -78 71c0 41 33 69 78 69z" />
    <glyph glyph-name="uniFB59FEE6" unicode="&#xfb59;&#xfee6;" horiz-adv-x="1160" 
d="M346 601c-51 0 -97 28 -97 87c0 52 43 86 97 86s96 -34 96 -86c0 -59 -46 -87 -96 -87zM1156 187h24v-187h-24c-196 0 -299 110 -299 319v9h-212v-453h-269c-212 0 -333 119 -333 325v314h186v-292c0 -114 71 -161 176 -161h54v453h398v119h187v-327
c0 -78 38 -119 112 -119zM891 -171c0 -56 -44 -83 -92 -83c-47 0 -91 27 -91 83c0 50 39 82 91 82c53 0 92 -32 92 -82zM1015 -89c53 0 91 -32 91 -82c0 -56 -43 -83 -91 -83s-92 27 -92 83c0 50 40 82 92 82zM907 -254c46 0 79 -28 79 -69c0 -48 -35 -71 -79 -71
c-39 0 -78 23 -78 71c0 41 33 69 78 69z" />
    <glyph glyph-name="uniFB59FEF0" unicode="&#xfb59;&#xfef0;" horiz-adv-x="1240" 
d="M1235 187h24v-187h-24c-196 0 -299 110 -299 319v88h-99c-89 0 -132 -49 -132 -137v-395h-330c-224 0 -333 112 -333 332v196h186v-177c0 -118 77 -165 187 -165h103v210c0 212 106 312 319 312h99v120h186v-397c0 -78 39 -119 113 -119zM958 -171c0 -56 -44 -83 -92 -83
c-47 0 -91 27 -91 83c0 50 39 82 91 82c53 0 92 -32 92 -82zM1082 -89c53 0 91 -32 91 -82c0 -56 -43 -83 -91 -83s-92 27 -92 83c0 50 40 82 92 82zM974 -254c46 0 79 -28 79 -69c0 -48 -35 -71 -79 -71c-39 0 -78 23 -78 71c0 41 33 69 78 69z" />
    <glyph glyph-name="uniFB59FEF2" unicode="&#xfb59;&#xfef2;" horiz-adv-x="1240" 
d="M1235 187h24v-187h-24c-196 0 -299 110 -299 319v88h-99c-89 0 -132 -49 -132 -137v-395h-330c-224 0 -333 112 -333 332v196h186v-177c0 -118 77 -165 187 -165h103v210c0 212 106 312 319 312h99v120h186v-397c0 -78 39 -119 113 -119zM958 -171c0 -56 -44 -83 -92 -83
c-47 0 -91 27 -91 83c0 50 39 82 91 82c53 0 92 -32 92 -82zM1082 -89c53 0 91 -32 91 -82c0 -56 -43 -83 -91 -83s-92 27 -92 83c0 50 40 82 92 82zM364 -210c54 0 96 -33 96 -85c0 -57 -45 -86 -96 -86c-50 0 -95 29 -95 86c0 52 42 85 95 85zM587 -210
c55 0 96 -33 96 -85c0 -57 -45 -86 -96 -86c-50 0 -95 29 -95 86c0 52 41 85 95 85zM974 -254c46 0 79 -28 79 -69c0 -48 -35 -71 -79 -71c-39 0 -78 23 -78 71c0 41 33 69 78 69z" />
    <glyph glyph-name="uniFB59FE8A" unicode="&#xfb59;&#xfe8a;" horiz-adv-x="1240" 
d="M1235 187h24v-187h-24c-196 0 -299 110 -299 319v88h-99c-89 0 -132 -49 -132 -137v-395h-330c-224 0 -333 112 -333 332v196h186v-177c0 -118 77 -165 187 -165h103v210c0 212 106 312 319 312h99v120h186v-397c0 -78 39 -119 113 -119zM235 545v-78h-200v66
c0 83 53 115 127 115h46v-65h-45c-19 0 -32 -12 -32 -30v-8h104zM958 -171c0 -56 -44 -83 -92 -83c-47 0 -91 27 -91 83c0 50 39 82 91 82c53 0 92 -32 92 -82zM1082 -89c53 0 91 -32 91 -82c0 -56 -43 -83 -91 -83s-92 27 -92 83c0 50 40 82 92 82zM974 -254
c46 0 79 -28 79 -69c0 -48 -35 -71 -79 -71c-39 0 -78 23 -78 71c0 41 33 69 78 69z" />
    <glyph glyph-name="uniFC70" unicode="&#xfe98;&#xfeae;" horiz-adv-x="823" arabic-form="final" 
d="M503 787c-50 0 -95 28 -95 85c0 52 42 86 95 86c54 0 96 -34 96 -86c0 -57 -45 -85 -96 -85zM726 787c-50 0 -95 28 -95 85c0 52 41 86 95 86c55 0 96 -34 96 -86c0 -57 -45 -85 -96 -85zM818 187h24v-187h-24c-196 0 -299 110 -299 319v77h-184v-317
c0 -235 -84 -299 -249 -299c-30 0 -60 3 -86 9l-20 161c36 -2 59 -2 87 -2c45 0 82 25 82 99v536h370v120h186v-397c0 -78 39 -119 113 -119z" />
    <glyph glyph-name="uniFC71" unicode="&#xfe98;&#xfeb0;" horiz-adv-x="823" arabic-form="final" 
d="M503 787c-50 0 -95 28 -95 85c0 52 42 86 95 86c54 0 96 -34 96 -86c0 -57 -45 -85 -96 -85zM726 787c-50 0 -95 28 -95 85c0 52 41 86 95 86c55 0 96 -34 96 -86c0 -57 -45 -85 -96 -85zM231 670c-51 0 -97 28 -97 87c0 52 43 86 97 86s96 -34 96 -86
c0 -59 -46 -87 -96 -87zM818 187h24v-187h-24c-196 0 -299 110 -299 319v77h-184v-317c0 -235 -84 -299 -249 -299c-30 0 -60 3 -86 9l-20 161c36 -2 59 -2 87 -2c45 0 82 25 82 99v536h370v120h186v-397c0 -78 39 -119 113 -119z" />
    <glyph glyph-name="uniFC73" unicode="&#xfe98;&#xfee6;" horiz-adv-x="1160" arabic-form="final" 
d="M841 718c-50 0 -95 28 -95 85c0 52 42 86 95 86c54 0 96 -34 96 -86c0 -57 -45 -85 -96 -85zM1064 718c-50 0 -95 28 -95 85c0 52 41 86 95 86c55 0 96 -34 96 -86c0 -57 -45 -85 -96 -85zM346 601c-51 0 -97 28 -97 87c0 52 43 86 97 86s96 -34 96 -86
c0 -59 -46 -87 -96 -87zM1156 187h24v-187h-24c-196 0 -299 110 -299 319v9h-212v-453h-269c-212 0 -333 119 -333 325v314h186v-292c0 -114 71 -161 176 -161h54v453h398v119h187v-327c0 -78 38 -119 112 -119z" />
    <glyph glyph-name="uniFC74" unicode="&#xfe98;&#xfef0;" horiz-adv-x="1240" arabic-form="final" 
d="M920 787c-50 0 -95 28 -95 85c0 52 42 86 95 86c54 0 96 -34 96 -86c0 -57 -45 -85 -96 -85zM1143 787c-50 0 -95 28 -95 85c0 52 41 86 95 86c55 0 96 -34 96 -86c0 -57 -45 -85 -96 -85zM1235 187h24v-187h-24c-196 0 -299 110 -299 319v88h-99
c-89 0 -132 -49 -132 -137v-395h-330c-224 0 -333 112 -333 332v196h186v-177c0 -118 77 -165 187 -165h103v210c0 212 106 312 319 312h99v120h186v-397c0 -78 39 -119 113 -119z" />
    <glyph glyph-name="uniFC75" unicode="&#xfe98;&#xfef2;" horiz-adv-x="1240" arabic-form="final" 
d="M920 787c-50 0 -95 28 -95 85c0 52 42 86 95 86c54 0 96 -34 96 -86c0 -57 -45 -85 -96 -85zM1143 787c-50 0 -95 28 -95 85c0 52 41 86 95 86c55 0 96 -34 96 -86c0 -57 -45 -85 -96 -85zM1235 187h24v-187h-24c-196 0 -299 110 -299 319v88h-99
c-89 0 -132 -49 -132 -137v-395h-330c-224 0 -333 112 -333 332v196h186v-177c0 -118 77 -165 187 -165h103v210c0 212 106 312 319 312h99v120h186v-397c0 -78 39 -119 113 -119zM364 -210c54 0 96 -33 96 -85c0 -57 -45 -86 -96 -86c-50 0 -95 29 -95 86c0 52 42 85 95 85
zM587 -210c55 0 96 -33 96 -85c0 -57 -45 -86 -96 -86c-50 0 -95 29 -95 86c0 52 41 85 95 85z" />
    <glyph glyph-name="uniFE98FE8A" unicode="&#xfe98;&#xfe8a;" horiz-adv-x="1240" 
d="M920 787c-50 0 -95 28 -95 85c0 52 42 86 95 86c54 0 96 -34 96 -86c0 -57 -45 -85 -96 -85zM1143 787c-50 0 -95 28 -95 85c0 52 41 86 95 86c55 0 96 -34 96 -86c0 -57 -45 -85 -96 -85zM1235 187h24v-187h-24c-196 0 -299 110 -299 319v88h-99
c-89 0 -132 -49 -132 -137v-395h-330c-224 0 -333 112 -333 332v196h186v-177c0 -118 77 -165 187 -165h103v210c0 212 106 312 319 312h99v120h186v-397c0 -78 39 -119 113 -119zM235 545v-78h-200v66c0 83 53 115 127 115h46v-65h-45c-19 0 -32 -12 -32 -30v-8h104z" />
    <glyph glyph-name="uniFC76" unicode="&#xfe9c;&#xfeae;" horiz-adv-x="823" arabic-form="final" 
d="M614 949c-39 0 -78 23 -78 71c0 41 33 69 78 69c46 0 79 -28 79 -69c0 -48 -37 -71 -79 -71zM506 787c-47 0 -91 27 -91 83c0 49 39 81 91 81c53 0 92 -32 92 -81c0 -56 -44 -83 -92 -83zM630 870c0 49 40 81 92 81c53 0 91 -32 91 -81c0 -56 -43 -83 -91 -83
s-92 27 -92 83zM818 187h24v-187h-24c-196 0 -299 110 -299 319v77h-184v-317c0 -235 -84 -299 -249 -299c-30 0 -60 3 -86 9l-20 161c36 -2 59 -2 87 -2c45 0 82 25 82 99v536h370v120h186v-397c0 -78 39 -119 113 -119z" />
    <glyph glyph-name="uniFC77" unicode="&#xfe9c;&#xfeb0;" horiz-adv-x="823" arabic-form="final" 
d="M614 949c-39 0 -78 23 -78 71c0 41 33 69 78 69c46 0 79 -28 79 -69c0 -48 -37 -71 -79 -71zM506 787c-47 0 -91 27 -91 83c0 49 39 81 91 81c53 0 92 -32 92 -81c0 -56 -44 -83 -92 -83zM630 870c0 49 40 81 92 81c53 0 91 -32 91 -81c0 -56 -43 -83 -91 -83
s-92 27 -92 83zM231 670c-51 0 -97 28 -97 87c0 52 43 86 97 86s96 -34 96 -86c0 -59 -46 -87 -96 -87zM818 187h24v-187h-24c-196 0 -299 110 -299 319v77h-184v-317c0 -235 -84 -299 -249 -299c-30 0 -60 3 -86 9l-20 161c36 -2 59 -2 87 -2c45 0 82 25 82 99v536h370v120
h186v-397c0 -78 39 -119 113 -119z" />
    <glyph glyph-name="uniFC79" unicode="&#xfe9c;&#xfee6;" horiz-adv-x="1160" arabic-form="final" 
d="M953 880c-39 0 -78 23 -78 71c0 41 33 69 78 69c46 0 79 -28 79 -69c0 -48 -37 -71 -79 -71zM845 718c-47 0 -91 27 -91 83c0 49 39 81 91 81c53 0 92 -32 92 -81c0 -56 -44 -83 -92 -83zM969 801c0 49 40 81 92 81c53 0 91 -32 91 -81c0 -56 -43 -83 -91 -83
s-92 27 -92 83zM346 601c-51 0 -97 28 -97 87c0 52 43 86 97 86s96 -34 96 -86c0 -59 -46 -87 -96 -87zM1156 187h24v-187h-24c-196 0 -299 110 -299 319v9h-212v-453h-269c-212 0 -333 119 -333 325v314h186v-292c0 -114 71 -161 176 -161h54v453h398v119h187v-327
c0 -78 38 -119 112 -119z" />
    <glyph glyph-name="uniFC7A" unicode="&#xfe9c;&#xfef0;" horiz-adv-x="1240" arabic-form="final" 
d="M1031 949c-39 0 -78 23 -78 71c0 41 33 69 78 69c46 0 79 -28 79 -69c0 -48 -37 -71 -79 -71zM923 787c-47 0 -91 27 -91 83c0 49 39 81 91 81c53 0 92 -32 92 -81c0 -56 -44 -83 -92 -83zM1047 870c0 49 40 81 92 81c53 0 91 -32 91 -81c0 -56 -43 -83 -91 -83
s-92 27 -92 83zM1235 187h24v-187h-24c-196 0 -299 110 -299 319v88h-99c-89 0 -132 -49 -132 -137v-395h-330c-224 0 -333 112 -333 332v196h186v-177c0 -118 77 -165 187 -165h103v210c0 212 106 312 319 312h99v120h186v-397c0 -78 39 -119 113 -119z" />
    <glyph glyph-name="uniFC7B" unicode="&#xfe9c;&#xfef2;" horiz-adv-x="1240" arabic-form="final" 
d="M1031 949c-39 0 -78 23 -78 71c0 41 33 69 78 69c46 0 79 -28 79 -69c0 -48 -37 -71 -79 -71zM923 787c-47 0 -91 27 -91 83c0 49 39 81 91 81c53 0 92 -32 92 -81c0 -56 -44 -83 -92 -83zM1047 870c0 49 40 81 92 81c53 0 91 -32 91 -81c0 -56 -43 -83 -91 -83
s-92 27 -92 83zM1235 187h24v-187h-24c-196 0 -299 110 -299 319v88h-99c-89 0 -132 -49 -132 -137v-395h-330c-224 0 -333 112 -333 332v196h186v-177c0 -118 77 -165 187 -165h103v210c0 212 106 312 319 312h99v120h186v-397c0 -78 39 -119 113 -119zM364 -210
c54 0 96 -33 96 -85c0 -57 -45 -86 -96 -86c-50 0 -95 29 -95 86c0 52 42 85 95 85zM587 -210c55 0 96 -33 96 -85c0 -57 -45 -86 -96 -86c-50 0 -95 29 -95 86c0 52 41 85 95 85z" />
    <glyph glyph-name="uniFE9CFE8A" unicode="&#xfe9c;&#xfe8a;" horiz-adv-x="1240" 
d="M1031 949c-39 0 -78 23 -78 71c0 41 33 69 78 69c46 0 79 -28 79 -69c0 -48 -37 -71 -79 -71zM923 787c-47 0 -91 27 -91 83c0 49 39 81 91 81c53 0 92 -32 92 -81c0 -56 -44 -83 -92 -83zM1047 870c0 49 40 81 92 81c53 0 91 -32 91 -81c0 -56 -43 -83 -91 -83
s-92 27 -92 83zM1235 187h24v-187h-24c-196 0 -299 110 -299 319v88h-99c-89 0 -132 -49 -132 -137v-395h-330c-224 0 -333 112 -333 332v196h186v-177c0 -118 77 -165 187 -165h103v210c0 212 106 312 319 312h99v120h186v-397c0 -78 39 -119 113 -119zM235 545v-78h-200
v66c0 83 53 115 127 115h46v-65h-45c-19 0 -32 -12 -32 -30v-8h104z" />
    <glyph glyph-name="uniFD0E" unicode="&#xfeb3;&#xfeae;" horiz-adv-x="1530" arabic-form="isolated" 
d="M1293 585h187v-276c0 -218 -94 -319 -288 -319c-81 0 -143 28 -185 78c-39 -52 -103 -78 -202 -78c-188 0 -287 110 -287 319v19h-182v-249c0 -235 -84 -299 -249 -299c-30 0 -60 3 -86 9l-20 161c36 -2 59 -2 87 -2c45 0 82 25 82 99v586h186v-119h369v-225
c0 -75 36 -112 100 -112c63 0 101 40 101 112v225h186v-225c0 -75 37 -112 100 -112s101 40 101 112v296z" />
    <glyph glyph-name="uniFD2A" unicode="&#xfeb4;&#xfeae;" horiz-adv-x="1591" arabic-form="final" 
d="M1591 186h20v-186h-20c-77 0 -141 29 -175 76c-48 -58 -122 -86 -224 -86c-81 0 -143 28 -185 78c-39 -52 -103 -78 -202 -78c-188 0 -287 110 -287 319v19h-182v-249c0 -235 -84 -299 -249 -299c-30 0 -60 3 -86 9l-20 161c36 -2 59 -2 87 -2c45 0 82 25 82 99v586h186
v-119h369v-225c0 -75 36 -112 100 -112c63 0 101 40 101 112v225h186v-225c0 -75 37 -112 100 -112s101 40 101 112v296h187v-276v-8c6 -75 45 -115 111 -115z" />
    <glyph glyph-name="uniFCFB" unicode="&#xfeb3;&#xfef0;" horiz-adv-x="1901" arabic-form="isolated" 
d="M1664 585h187v-276c0 -218 -94 -319 -269 -319c-90 0 -155 33 -198 92c-42 -61 -114 -92 -231 -92c-188 0 -309 110 -309 319v218h-40c-68 0 -98 -36 -98 -102v-550h-330c-224 0 -333 112 -333 332v196h186v-177c0 -118 77 -165 187 -165h103v330c0 212 106 312 319 312
h193v-399c0 -79 46 -127 122 -127s124 46 124 127v210h186v-225c0 -74 35 -112 102 -112c63 0 99 37 99 112v296z" />
    <glyph glyph-name="uniFD17" unicode="&#xfeb4;&#xfef0;" horiz-adv-x="1962" arabic-form="final" 
d="M1962 186h20v-186h-20c-76 0 -140 28 -174 75c-45 -57 -115 -85 -206 -85c-90 0 -155 33 -198 92c-42 -61 -114 -92 -231 -92c-188 0 -309 110 -309 319v218h-40c-68 0 -98 -36 -98 -102v-550h-330c-224 0 -333 112 -333 332v196h186v-177c0 -118 77 -165 187 -165h103
v330c0 212 106 312 319 312h193v-399c0 -79 46 -127 122 -127s124 46 124 127v210h186v-225c0 -74 35 -112 102 -112c63 0 99 37 99 112v296h187v-276v-8c6 -75 45 -115 111 -115z" />
    <glyph glyph-name="uniFCFC" unicode="&#xfeb3;&#xfef2;" horiz-adv-x="1901" arabic-form="isolated" 
d="M1663 585h187v-276c0 -218 -94 -319 -269 -319c-90 0 -155 33 -198 92c-42 -61 -114 -92 -231 -92c-188 0 -309 110 -309 319v218h-40c-68 0 -98 -36 -98 -102v-550h-330c-224 0 -333 112 -333 332v196h186v-177c0 -118 77 -165 187 -165h103v330c0 212 106 312 319 312
h193v-399c0 -79 46 -127 122 -127s124 46 124 127v210h186v-225c0 -74 35 -112 102 -112c63 0 99 37 99 112v296zM364 -210c54 0 96 -33 96 -85c0 -57 -45 -86 -96 -86c-50 0 -95 29 -95 86c0 52 42 85 95 85zM587 -210c55 0 96 -33 96 -85c0 -57 -45 -86 -96 -86
c-50 0 -95 29 -95 86c0 52 41 85 95 85z" />
    <glyph glyph-name="uniFD18" unicode="&#xfeb4;&#xfef2;" horiz-adv-x="1962" arabic-form="final" 
d="M1962 186h20v-186h-20c-76 0 -140 28 -174 75c-45 -57 -115 -85 -206 -85c-90 0 -155 33 -198 92c-42 -61 -114 -92 -231 -92c-188 0 -309 110 -309 319v218h-40c-68 0 -98 -36 -98 -102v-550h-330c-224 0 -333 112 -333 332v196h186v-177c0 -118 77 -165 187 -165h103
v330c0 212 106 312 319 312h193v-399c0 -79 46 -127 122 -127s124 46 124 127v210h186v-225c0 -74 35 -112 102 -112c63 0 99 37 99 112v296h187v-276v-8c6 -75 45 -115 111 -115zM364 -210c54 0 96 -33 96 -85c0 -57 -45 -86 -96 -86c-50 0 -95 29 -95 86c0 52 42 85 95 85
zM587 -210c55 0 96 -33 96 -85c0 -57 -45 -86 -96 -86c-50 0 -95 29 -95 86c0 52 41 85 95 85z" />
    <glyph glyph-name="uniFEB3FEB0" unicode="&#xfeb3;&#xfeb0;" horiz-adv-x="1530" 
d="M245 721c-51 0 -97 28 -97 87c0 52 43 86 97 86s96 -34 96 -86c0 -59 -46 -87 -96 -87zM1292 585h187v-276c0 -218 -94 -319 -288 -319c-81 0 -143 28 -185 78c-39 -52 -103 -78 -202 -78c-188 0 -287 110 -287 319v19h-182v-249c0 -235 -84 -299 -249 -299
c-30 0 -60 3 -86 9l-20 161c36 -2 59 -2 87 -2c45 0 82 25 82 99v586h186v-119h369v-225c0 -75 36 -112 100 -112c63 0 101 40 101 112v225h186v-225c0 -75 37 -112 100 -112s101 40 101 112v296z" />
    <glyph glyph-name="uniFEB4FEB0" unicode="&#xfeb4;&#xfeb0;" horiz-adv-x="1591" 
d="M244 721c-51 0 -97 28 -97 87c0 52 43 86 97 86s96 -34 96 -86c0 -59 -46 -87 -96 -87zM1591 186h20v-186h-20c-77 0 -141 29 -175 76c-48 -58 -122 -86 -224 -86c-81 0 -143 28 -185 78c-39 -52 -103 -78 -202 -78c-188 0 -287 110 -287 319v19h-182v-249
c0 -235 -84 -299 -249 -299c-30 0 -60 3 -86 9l-20 161c36 -2 59 -2 87 -2c45 0 82 25 82 99v586h186v-119h369v-225c0 -75 36 -112 100 -112c63 0 101 40 101 112v225h186v-225c0 -75 37 -112 100 -112s101 40 101 112v296h187v-276v-8c6 -75 45 -115 111 -115z" />
    <glyph glyph-name="uniFEB3FE8A" unicode="&#xfeb3;&#xfe8a;" horiz-adv-x="1901" 
d="M935 870v-115h-255v96c0 96 50 146 147 146h76v-80h-67c-26 0 -39 -13 -39 -38v-9h138zM1663 585h187v-276c0 -218 -94 -319 -269 -319c-90 0 -155 33 -198 92c-42 -61 -114 -92 -231 -92c-188 0 -309 110 -309 319v218h-40c-68 0 -98 -36 -98 -102v-550h-330
c-224 0 -333 112 -333 332v196h186v-177c0 -118 77 -165 187 -165h103v330c0 212 106 312 319 312h193v-399c0 -79 46 -127 122 -127s124 46 124 127v210h186v-225c0 -74 35 -112 102 -112c63 0 99 37 99 112v296z" />
    <glyph glyph-name="uniFEB4FE8A" unicode="&#xfeb4;&#xfe8a;" horiz-adv-x="1962" 
d="M935 870v-115h-255v96c0 96 50 146 147 146h76v-80h-67c-26 0 -39 -13 -39 -38v-9h138zM1962 186h20v-186h-20c-76 0 -140 28 -174 75c-45 -57 -115 -85 -206 -85c-90 0 -155 33 -198 92c-42 -61 -114 -92 -231 -92c-188 0 -309 110 -309 319v218h-40
c-68 0 -98 -36 -98 -102v-550h-330c-224 0 -333 112 -333 332v196h186v-177c0 -118 77 -165 187 -165h103v330c0 212 106 312 319 312h193v-399c0 -79 46 -127 122 -127s124 46 124 127v210h186v-225c0 -74 35 -112 102 -112c63 0 99 37 99 112v296h187v-276v-8
c6 -75 45 -115 111 -115z" />
    <glyph glyph-name="uniFD0D" unicode="&#xfeb7;&#xfeae;" horiz-adv-x="1530" arabic-form="isolated" 
d="M1001 761c-39 0 -78 23 -78 71c0 41 33 69 78 69c46 0 79 -28 79 -69c0 -48 -37 -71 -79 -71zM893 599c-47 0 -91 27 -91 83c0 49 39 81 91 81c53 0 92 -32 92 -81c0 -56 -44 -83 -92 -83zM1017 682c0 49 40 81 92 81c53 0 91 -32 91 -81c0 -56 -43 -83 -91 -83
s-92 27 -92 83zM1292 585h187v-276c0 -218 -94 -319 -288 -319c-81 0 -143 28 -185 78c-39 -52 -103 -78 -202 -78c-188 0 -287 110 -287 319v19h-182v-249c0 -235 -84 -299 -249 -299c-30 0 -60 3 -86 9l-20 161c36 -2 59 -2 87 -2c45 0 82 25 82 99v586h186v-119h369v-225
c0 -75 36 -112 100 -112c63 0 101 40 101 112v225h186v-225c0 -75 37 -112 100 -112s101 40 101 112v296z" />
    <glyph glyph-name="uniFD29" unicode="&#xfeb8;&#xfeae;" horiz-adv-x="1591" arabic-form="final" 
d="M1000 761c-39 0 -78 23 -78 71c0 41 33 69 78 69c46 0 79 -28 79 -69c0 -48 -37 -71 -79 -71zM892 599c-47 0 -91 27 -91 83c0 49 39 81 91 81c53 0 92 -32 92 -81c0 -56 -44 -83 -92 -83zM1016 682c0 49 40 81 92 81c53 0 91 -32 91 -81c0 -56 -43 -83 -91 -83
s-92 27 -92 83zM1591 186h20v-186h-20c-77 0 -141 29 -175 76c-48 -58 -122 -86 -224 -86c-81 0 -143 28 -185 78c-39 -52 -103 -78 -202 -78c-188 0 -287 110 -287 319v19h-182v-249c0 -235 -84 -299 -249 -299c-30 0 -60 3 -86 9l-20 161c36 -2 59 -2 87 -2
c45 0 82 25 82 99v586h186v-119h369v-225c0 -75 36 -112 100 -112c63 0 101 40 101 112v225h186v-225c0 -75 37 -112 100 -112s101 40 101 112v296h187v-276v-8c6 -75 45 -115 111 -115z" />
    <glyph glyph-name="uniFEB7FEB0" unicode="&#xfeb7;&#xfeb0;" horiz-adv-x="1530" 
d="M1001 761c-39 0 -78 23 -78 71c0 41 33 69 78 69c46 0 79 -28 79 -69c0 -48 -37 -71 -79 -71zM245 721c-51 0 -97 28 -97 87c0 52 43 86 97 86s96 -34 96 -86c0 -59 -46 -87 -96 -87zM893 599c-47 0 -91 27 -91 83c0 49 39 81 91 81c53 0 92 -32 92 -81
c0 -56 -44 -83 -92 -83zM1017 682c0 49 40 81 92 81c53 0 91 -32 91 -81c0 -56 -43 -83 -91 -83s-92 27 -92 83zM1292 585h187v-276c0 -218 -94 -319 -288 -319c-81 0 -143 28 -185 78c-39 -52 -103 -78 -202 -78c-188 0 -287 110 -287 319v19h-182v-249
c0 -235 -84 -299 -249 -299c-30 0 -60 3 -86 9l-20 161c36 -2 59 -2 87 -2c45 0 82 25 82 99v586h186v-119h369v-225c0 -75 36 -112 100 -112c63 0 101 40 101 112v225h186v-225c0 -75 37 -112 100 -112s101 40 101 112v296z" />
    <glyph glyph-name="uniFEB8FEB0" unicode="&#xfeb8;&#xfeb0;" horiz-adv-x="1591" 
d="M1000 761c-39 0 -78 23 -78 71c0 41 33 69 78 69c46 0 79 -28 79 -69c0 -48 -37 -71 -79 -71zM244 721c-51 0 -97 28 -97 87c0 52 43 86 97 86s96 -34 96 -86c0 -59 -46 -87 -96 -87zM892 599c-47 0 -91 27 -91 83c0 49 39 81 91 81c53 0 92 -32 92 -81
c0 -56 -44 -83 -92 -83zM1016 682c0 49 40 81 92 81c53 0 91 -32 91 -81c0 -56 -43 -83 -91 -83s-92 27 -92 83zM1591 186h20v-186h-20c-77 0 -141 29 -175 76c-48 -58 -122 -86 -224 -86c-81 0 -143 28 -185 78c-39 -52 -103 -78 -202 -78c-188 0 -287 110 -287 319v19
h-182v-249c0 -235 -84 -299 -249 -299c-30 0 -60 3 -86 9l-20 161c36 -2 59 -2 87 -2c45 0 82 25 82 99v586h186v-119h369v-225c0 -75 36 -112 100 -112c63 0 101 40 101 112v225h186v-225c0 -75 37 -112 100 -112s101 40 101 112v296h187v-276v-8c6 -75 45 -115 111 -115z
" />
    <glyph glyph-name="uniFCFD" unicode="&#xfeb7;&#xfef0;" horiz-adv-x="1901" arabic-form="isolated" 
d="M1371 761c-39 0 -78 23 -78 71c0 41 33 69 78 69c46 0 79 -28 79 -69c0 -48 -37 -71 -79 -71zM1263 599c-47 0 -91 27 -91 83c0 49 39 81 91 81c53 0 92 -32 92 -81c0 -56 -44 -83 -92 -83zM1387 682c0 49 40 81 92 81c53 0 91 -32 91 -81c0 -56 -43 -83 -91 -83
s-92 27 -92 83zM1663 585h187v-276c0 -218 -94 -319 -269 -319c-90 0 -155 33 -198 92c-42 -61 -114 -92 -231 -92c-188 0 -309 110 -309 319v218h-40c-68 0 -98 -36 -98 -102v-550h-330c-224 0 -333 112 -333 332v196h186v-177c0 -118 77 -165 187 -165h103v330
c0 212 106 312 319 312h193v-399c0 -79 46 -127 122 -127s124 46 124 127v210h186v-225c0 -74 35 -112 102 -112c63 0 99 37 99 112v296z" />
    <glyph glyph-name="uniFD19" unicode="&#xfeb8;&#xfef0;" horiz-adv-x="1962" arabic-form="final" 
d="M1371 761c-39 0 -78 23 -78 71c0 41 33 69 78 69c46 0 79 -28 79 -69c0 -48 -37 -71 -79 -71zM1263 599c-47 0 -91 27 -91 83c0 49 39 81 91 81c53 0 92 -32 92 -81c0 -56 -44 -83 -92 -83zM1387 682c0 49 40 81 92 81c53 0 91 -32 91 -81c0 -56 -43 -83 -91 -83
s-92 27 -92 83zM1962 186h20v-186h-20c-76 0 -140 28 -174 75c-45 -57 -115 -85 -206 -85c-90 0 -155 33 -198 92c-42 -61 -114 -92 -231 -92c-188 0 -309 110 -309 319v218h-40c-68 0 -98 -36 -98 -102v-550h-330c-224 0 -333 112 -333 332v196h186v-177
c0 -118 77 -165 187 -165h103v330c0 212 106 312 319 312h193v-399c0 -79 46 -127 122 -127s124 46 124 127v210h186v-225c0 -74 35 -112 102 -112c63 0 99 37 99 112v296h187v-276v-8c6 -75 45 -115 111 -115z" />
    <glyph glyph-name="uniFCFE" unicode="&#xfeb7;&#xfef2;" horiz-adv-x="1901" arabic-form="isolated" 
d="M1371 761c-39 0 -78 23 -78 71c0 41 33 69 78 69c46 0 79 -28 79 -69c0 -48 -37 -71 -79 -71zM1263 599c-47 0 -91 27 -91 83c0 49 39 81 91 81c53 0 92 -32 92 -81c0 -56 -44 -83 -92 -83zM1387 682c0 49 40 81 92 81c53 0 91 -32 91 -81c0 -56 -43 -83 -91 -83
s-92 27 -92 83zM1663 585h187v-276c0 -218 -94 -319 -269 -319c-90 0 -155 33 -198 92c-42 -61 -114 -92 -231 -92c-188 0 -309 110 -309 319v218h-40c-68 0 -98 -36 -98 -102v-550h-330c-224 0 -333 112 -333 332v196h186v-177c0 -118 77 -165 187 -165h103v330
c0 212 106 312 319 312h193v-399c0 -79 46 -127 122 -127s124 46 124 127v210h186v-225c0 -74 35 -112 102 -112c63 0 99 37 99 112v296zM364 -210c54 0 96 -33 96 -85c0 -57 -45 -86 -96 -86c-50 0 -95 29 -95 86c0 52 42 85 95 85zM587 -210c55 0 96 -33 96 -85
c0 -57 -45 -86 -96 -86c-50 0 -95 29 -95 86c0 52 41 85 95 85z" />
    <glyph glyph-name="uniFD1A" unicode="&#xfeb8;&#xfef2;" horiz-adv-x="1962" arabic-form="final" 
d="M1371 761c-39 0 -78 23 -78 71c0 41 33 69 78 69c46 0 79 -28 79 -69c0 -48 -37 -71 -79 -71zM1263 599c-47 0 -91 27 -91 83c0 49 39 81 91 81c53 0 92 -32 92 -81c0 -56 -44 -83 -92 -83zM1387 682c0 49 40 81 92 81c53 0 91 -32 91 -81c0 -56 -43 -83 -91 -83
s-92 27 -92 83zM1962 186h20v-186h-20c-76 0 -140 28 -174 75c-45 -57 -115 -85 -206 -85c-90 0 -155 33 -198 92c-42 -61 -114 -92 -231 -92c-188 0 -309 110 -309 319v218h-40c-68 0 -98 -36 -98 -102v-550h-330c-224 0 -333 112 -333 332v196h186v-177
c0 -118 77 -165 187 -165h103v330c0 212 106 312 319 312h193v-399c0 -79 46 -127 122 -127s124 46 124 127v210h186v-225c0 -74 35 -112 102 -112c63 0 99 37 99 112v296h187v-276v-8c6 -75 45 -115 111 -115zM364 -210c54 0 96 -33 96 -85c0 -57 -45 -86 -96 -86
c-50 0 -95 29 -95 86c0 52 42 85 95 85zM587 -210c55 0 96 -33 96 -85c0 -57 -45 -86 -96 -86c-50 0 -95 29 -95 86c0 52 41 85 95 85z" />
    <glyph glyph-name="uniFEB7FE8A" unicode="&#xfeb7;&#xfe8a;" horiz-adv-x="1901" 
d="M935 870v-115h-255v96c0 96 50 146 147 146h76v-80h-67c-26 0 -39 -13 -39 -38v-9h138zM1371 761c-39 0 -78 23 -78 71c0 41 33 69 78 69c46 0 79 -28 79 -69c0 -48 -37 -71 -79 -71zM1263 599c-47 0 -91 27 -91 83c0 49 39 81 91 81c53 0 92 -32 92 -81
c0 -56 -44 -83 -92 -83zM1387 682c0 49 40 81 92 81c53 0 91 -32 91 -81c0 -56 -43 -83 -91 -83s-92 27 -92 83zM1663 585h187v-276c0 -218 -94 -319 -269 -319c-90 0 -155 33 -198 92c-42 -61 -114 -92 -231 -92c-188 0 -309 110 -309 319v218h-40c-68 0 -98 -36 -98 -102
v-550h-330c-224 0 -333 112 -333 332v196h186v-177c0 -118 77 -165 187 -165h103v330c0 212 106 312 319 312h193v-399c0 -79 46 -127 122 -127s124 46 124 127v210h186v-225c0 -74 35 -112 102 -112c63 0 99 37 99 112v296z" />
    <glyph glyph-name="uniFEB8FE8A" unicode="&#xfeb8;&#xfe8a;" horiz-adv-x="1962" 
d="M935 870v-115h-255v96c0 96 50 146 147 146h76v-80h-67c-26 0 -39 -13 -39 -38v-9h138zM1371 761c-39 0 -78 23 -78 71c0 41 33 69 78 69c46 0 79 -28 79 -69c0 -48 -37 -71 -79 -71zM1263 599c-47 0 -91 27 -91 83c0 49 39 81 91 81c53 0 92 -32 92 -81
c0 -56 -44 -83 -92 -83zM1387 682c0 49 40 81 92 81c53 0 91 -32 91 -81c0 -56 -43 -83 -91 -83s-92 27 -92 83zM1962 186h20v-186h-20c-76 0 -140 28 -174 75c-45 -57 -115 -85 -206 -85c-90 0 -155 33 -198 92c-42 -61 -114 -92 -231 -92c-188 0 -309 110 -309 319v218
h-40c-68 0 -98 -36 -98 -102v-550h-330c-224 0 -333 112 -333 332v196h186v-177c0 -118 77 -165 187 -165h103v330c0 212 106 312 319 312h193v-399c0 -79 46 -127 122 -127s124 46 124 127v210h186v-225c0 -74 35 -112 102 -112c63 0 99 37 99 112v296h187v-276v-8
c6 -75 45 -115 111 -115z" />
    <glyph glyph-name="uniFD05" unicode="&#xfebb;&#xfef0;" horiz-adv-x="1793" arabic-form="isolated" 
d="M1413 583c230 0 330 -113 330 -332v-251h-612c-188 0 -287 110 -287 319v208h-40c-68 0 -98 -36 -98 -102v-550h-330c-224 0 -333 112 -333 332v196h186v-177c0 -118 77 -165 187 -165h103v330c0 212 106 312 319 312h193v-120h382zM1568 186v98c0 71 -48 112 -126 112
h-411v-97c0 -75 36 -113 100 -113h437z" />
    <glyph glyph-name="uniFD21" unicode="&#xfebc;&#xfef0;" horiz-adv-x="1832" arabic-form="final" 
d="M1743 186h109v-186h-721c-188 0 -287 110 -287 319v208h-40c-68 0 -98 -36 -98 -102v-550h-330c-224 0 -333 112 -333 332v196h186v-177c0 -118 77 -165 187 -165h103v330c0 212 106 312 319 312h193v-120h382c230 0 330 -113 330 -332v-65zM1568 186v98
c0 71 -48 112 -126 112h-411v-97c0 -75 36 -113 100 -113h437z" />
    <glyph glyph-name="uniFD06" unicode="&#xfebb;&#xfef2;" horiz-adv-x="1793" arabic-form="isolated" 
d="M1413 583c230 0 330 -113 330 -332v-251h-612c-188 0 -287 110 -287 319v208h-40c-68 0 -98 -36 -98 -102v-550h-330c-224 0 -333 112 -333 332v196h186v-177c0 -118 77 -165 187 -165h103v330c0 212 106 312 319 312h193v-120h382zM1568 186v98c0 71 -48 112 -126 112
h-411v-97c0 -75 36 -113 100 -113h437zM364 -210c54 0 96 -33 96 -85c0 -57 -45 -86 -96 -86c-50 0 -95 29 -95 86c0 52 42 85 95 85zM587 -210c55 0 96 -33 96 -85c0 -57 -45 -86 -96 -86c-50 0 -95 29 -95 86c0 52 41 85 95 85z" />
    <glyph glyph-name="uniFD22" unicode="&#xfebc;&#xfef2;" horiz-adv-x="1832" arabic-form="final" 
d="M1743 186h109v-186h-721c-188 0 -287 110 -287 319v208h-40c-68 0 -98 -36 -98 -102v-550h-330c-224 0 -333 112 -333 332v196h186v-177c0 -118 77 -165 187 -165h103v330c0 212 106 312 319 312h193v-120h382c230 0 330 -113 330 -332v-65zM1568 186v98
c0 71 -48 112 -126 112h-411v-97c0 -75 36 -113 100 -113h437zM364 -210c54 0 96 -33 96 -85c0 -57 -45 -86 -96 -86c-50 0 -95 29 -95 86c0 52 42 85 95 85zM587 -210c55 0 96 -33 96 -85c0 -57 -45 -86 -96 -86c-50 0 -95 29 -95 86c0 52 41 85 95 85z" />
    <glyph glyph-name="uniFEBBFE8A" unicode="&#xfebb;&#xfe8a;" horiz-adv-x="1793" 
d="M935 870v-115h-255v96c0 96 50 146 147 146h76v-80h-67c-26 0 -39 -13 -39 -38v-9h138zM1413 583c230 0 330 -113 330 -332v-251h-612c-188 0 -287 110 -287 319v208h-40c-68 0 -98 -36 -98 -102v-550h-330c-224 0 -333 112 -333 332v196h186v-177
c0 -118 77 -165 187 -165h103v330c0 212 106 312 319 312h193v-120h382zM1568 186v98c0 71 -48 112 -126 112h-411v-97c0 -75 36 -113 100 -113h437z" />
    <glyph glyph-name="uniFEBCFE8A" unicode="&#xfebc;&#xfe8a;" horiz-adv-x="1832" 
d="M935 870v-115h-255v96c0 96 50 146 147 146h76v-80h-67c-26 0 -39 -13 -39 -38v-9h138zM1743 186h109v-186h-721c-188 0 -287 110 -287 319v208h-40c-68 0 -98 -36 -98 -102v-550h-330c-224 0 -333 112 -333 332v196h186v-177c0 -118 77 -165 187 -165h103v330
c0 212 106 312 319 312h193v-120h382c230 0 330 -113 330 -332v-65zM1568 186v98c0 71 -48 112 -126 112h-411v-97c0 -75 36 -113 100 -113h437z" />
    <glyph glyph-name="uniFD07" unicode="&#xfebf;&#xfef0;" horiz-adv-x="1793" arabic-form="isolated" 
d="M1346 670c-51 0 -97 28 -97 87c0 52 43 86 97 86s96 -34 96 -86c0 -59 -46 -87 -96 -87zM1413 583c230 0 330 -113 330 -332v-251h-612c-188 0 -287 110 -287 319v208h-40c-68 0 -98 -36 -98 -102v-550h-330c-224 0 -333 112 -333 332v196h186v-177
c0 -118 77 -165 187 -165h103v330c0 212 106 312 319 312h193v-120h382zM1568 186v98c0 71 -48 112 -126 112h-411v-97c0 -75 36 -113 100 -113h437z" />
    <glyph glyph-name="uniFD23" unicode="&#xfec0;&#xfef0;" horiz-adv-x="1832" arabic-form="final" 
d="M1346 670c-51 0 -97 28 -97 87c0 52 43 86 97 86s96 -34 96 -86c0 -59 -46 -87 -96 -87zM1743 186h109v-186h-721c-188 0 -287 110 -287 319v208h-40c-68 0 -98 -36 -98 -102v-550h-330c-224 0 -333 112 -333 332v196h186v-177c0 -118 77 -165 187 -165h103v330
c0 212 106 312 319 312h193v-120h382c230 0 330 -113 330 -332v-65zM1568 186v98c0 71 -48 112 -126 112h-411v-97c0 -75 36 -113 100 -113h437z" />
    <glyph glyph-name="uniFD08" unicode="&#xfebf;&#xfef2;" horiz-adv-x="1793" arabic-form="isolated" 
d="M1346 670c-51 0 -97 28 -97 87c0 52 43 86 97 86s96 -34 96 -86c0 -59 -46 -87 -96 -87zM1413 583c230 0 330 -113 330 -332v-251h-612c-188 0 -287 110 -287 319v208h-40c-68 0 -98 -36 -98 -102v-550h-330c-224 0 -333 112 -333 332v196h186v-177
c0 -118 77 -165 187 -165h103v330c0 212 106 312 319 312h193v-120h382zM1568 186v98c0 71 -48 112 -126 112h-411v-97c0 -75 36 -113 100 -113h437zM364 -210c54 0 96 -33 96 -85c0 -57 -45 -86 -96 -86c-50 0 -95 29 -95 86c0 52 42 85 95 85zM587 -210
c55 0 96 -33 96 -85c0 -57 -45 -86 -96 -86c-50 0 -95 29 -95 86c0 52 41 85 95 85z" />
    <glyph glyph-name="uniFD24" unicode="&#xfec0;&#xfef2;" horiz-adv-x="1832" arabic-form="final" 
d="M1346 670c-51 0 -97 28 -97 87c0 52 43 86 97 86s96 -34 96 -86c0 -59 -46 -87 -96 -87zM1743 186h109v-186h-721c-188 0 -287 110 -287 319v208h-40c-68 0 -98 -36 -98 -102v-550h-330c-224 0 -333 112 -333 332v196h186v-177c0 -118 77 -165 187 -165h103v330
c0 212 106 312 319 312h193v-120h382c230 0 330 -113 330 -332v-65zM1568 186v98c0 71 -48 112 -126 112h-411v-97c0 -75 36 -113 100 -113h437zM364 -210c54 0 96 -33 96 -85c0 -57 -45 -86 -96 -86c-50 0 -95 29 -95 86c0 52 42 85 95 85zM587 -210c55 0 96 -33 96 -85
c0 -57 -45 -86 -96 -86c-50 0 -95 29 -95 86c0 52 41 85 95 85z" />
    <glyph glyph-name="uniFEBFFE8A" unicode="&#xfebf;&#xfe8a;" horiz-adv-x="1793" 
d="M935 870v-115h-255v96c0 96 50 146 147 146h76v-80h-67c-26 0 -39 -13 -39 -38v-9h138zM1346 670c-51 0 -97 28 -97 87c0 52 43 86 97 86s96 -34 96 -86c0 -59 -46 -87 -96 -87zM1413 583c230 0 330 -113 330 -332v-251h-612c-188 0 -287 110 -287 319v208h-40
c-68 0 -98 -36 -98 -102v-550h-330c-224 0 -333 112 -333 332v196h186v-177c0 -118 77 -165 187 -165h103v330c0 212 106 312 319 312h193v-120h382zM1568 186v98c0 71 -48 112 -126 112h-411v-97c0 -75 36 -113 100 -113h437z" />
    <glyph glyph-name="uniFEC0FE8A" unicode="&#xfec0;&#xfe8a;" horiz-adv-x="1832" 
d="M935 870v-115h-255v96c0 96 50 146 147 146h76v-80h-67c-26 0 -39 -13 -39 -38v-9h138zM1346 670c-51 0 -97 28 -97 87c0 52 43 86 97 86s96 -34 96 -86c0 -59 -46 -87 -96 -87zM1743 186h109v-186h-721c-188 0 -287 110 -287 319v208h-40c-68 0 -98 -36 -98 -102v-550
h-330c-224 0 -333 112 -333 332v196h186v-177c0 -118 77 -165 187 -165h103v330c0 212 106 312 319 312h193v-120h382c230 0 330 -113 330 -332v-65zM1568 186v98c0 71 -48 112 -126 112h-411v-97c0 -75 36 -113 100 -113h437z" />
    <glyph glyph-name="uniFEFB" unicode="&#xfedf;&#xfe8e;" horiz-adv-x="702" arabic-form="isolated" 
d="M58 0l-38 186h295c80 0 127 42 127 116v583h187v-568c0 -211 -109 -317 -336 -317h-235zM114 243v494h186v-494h-186z" />
    <glyph glyph-name="uniFEFC" unicode="&#xfee0;&#xfe8e;" horiz-adv-x="740" arabic-form="final" 
d="M740 186h20v-186h-20c-84 0 -153 35 -184 90c-55 -60 -142 -90 -263 -90h-235l-38 186h295c80 0 127 42 127 116v583h187v-568v-14c6 -77 44 -117 111 -117zM300 737v-494h-186v494h186z" />
    <glyph glyph-name="uniFEF7" unicode="&#xfedf;&#xfe84;" horiz-adv-x="702" arabic-form="isolated" 
d="M107 802v66c0 83 53 115 127 115h46v-65h-45c-19 0 -32 -12 -32 -30v-8h104v-78h-200zM58 0l-38 186h295c80 0 127 42 127 116v583h187v-568c0 -211 -109 -317 -336 -317h-235zM114 243v494h186v-494h-186z" />
    <glyph glyph-name="uniFEF8" unicode="&#xfee0;&#xfe84;" horiz-adv-x="740" arabic-form="final" 
d="M308 880v-78h-200v66c0 83 53 115 127 115h46v-65h-45c-19 0 -32 -12 -32 -30v-8h104zM740 186h20v-186h-20c-84 0 -153 35 -184 90c-55 -60 -142 -90 -263 -90h-235l-38 186h295c80 0 127 42 127 116v583h187v-568v-14c6 -77 44 -117 111 -117zM300 243h-186v494h186
v-494z" />
    <glyph glyph-name="uniFEF9" unicode="&#xfedf;&#xfe88;" horiz-adv-x="702" arabic-form="isolated" 
d="M58 0l-38 186h295c80 0 127 42 127 116v583h187v-568c0 -211 -109 -317 -336 -317h-235zM114 243v494h186v-494h-186zM123 -241v66c0 82 53 115 127 115h52v-65h-51c-19 0 -32 -12 -32 -30v-9h110v-77h-206z" />
    <glyph glyph-name="uniFEFA" unicode="&#xfee0;&#xfe88;" horiz-adv-x="740" arabic-form="final" 
d="M740 186h20v-186h-20c-84 0 -153 35 -184 90c-55 -60 -142 -90 -263 -90h-235l-38 186h295c80 0 127 42 127 116v583h187v-568v-14c6 -77 44 -117 111 -117zM300 737v-494h-186v494h186zM220 -155v-9h110v-77h-206v66c0 82 53 115 127 115h52v-65h-51
c-19 0 -32 -12 -32 -30z" />
    <glyph glyph-name="uniFEF5" unicode="&#xfedf;&#xfe82;" horiz-adv-x="702" arabic-form="isolated" 
d="M58 0l-38 186h295c80 0 127 42 127 116v583h187v-568c0 -211 -109 -317 -336 -317h-235zM100 782v85h215v-85h-215zM114 243v494h186v-494h-186z" />
    <glyph glyph-name="uniFEF6" unicode="&#xfee0;&#xfe82;" horiz-adv-x="740" arabic-form="final" 
d="M740 186h20v-186h-20c-84 0 -153 35 -184 90c-55 -60 -142 -90 -263 -90h-235l-38 186h295c80 0 127 42 127 116v583h187v-568v-14c6 -77 44 -117 111 -117zM315 867v-85h-215v85h215zM300 243h-186v494h186v-494z" />
    <glyph glyph-name="uniFEDFFB51" unicode="&#xfedf;&#xfb51;" horiz-adv-x="702" 
d="M85 782v75c0 73 42 111 122 111h1c80 0 122 -38 122 -111v-75h-245zM175 857h65v7c0 22 -11 33 -32 33h-1c-21 0 -32 -11 -32 -33v-7zM58 0l-38 186h295c80 0 127 42 127 116v583h187v-568c0 -211 -109 -317 -336 -317h-235zM114 243v494h186v-494h-186z" />
    <glyph glyph-name="uniFEE0FB51" unicode="&#xfee0;&#xfb51;" horiz-adv-x="740" 
d="M330 857v-75h-245v75c0 73 42 111 122 111h1c80 0 122 -38 122 -111zM240 857v7c0 22 -11 33 -32 33h-1c-21 0 -32 -11 -32 -33v-7h65zM740 186h20v-186h-20c-84 0 -153 35 -184 90c-55 -60 -142 -90 -263 -90h-235l-38 186h295c80 0 127 42 127 116v583h187v-568v-14
c6 -77 44 -117 111 -117zM300 243h-186v494h186v-494z" />
    <glyph glyph-name="uniFC8A" unicode="&#xfee8;&#xfeae;" horiz-adv-x="823" arabic-form="final" 
d="M615 790c-51 0 -97 28 -97 87c0 52 43 86 97 86s96 -34 96 -86c0 -59 -46 -87 -96 -87zM818 187h24v-187h-24c-196 0 -299 110 -299 319v77h-184v-317c0 -235 -84 -299 -249 -299c-30 0 -60 3 -86 9l-20 161c36 -2 59 -2 87 -2c45 0 82 25 82 99v536h370v120h186v-397
c0 -78 39 -119 113 -119z" />
    <glyph glyph-name="uniFC8B" unicode="&#xfee8;&#xfeb0;" horiz-adv-x="823" arabic-form="final" 
d="M615 790c-51 0 -97 28 -97 87c0 52 43 86 97 86s96 -34 96 -86c0 -59 -46 -87 -96 -87zM231 670c-51 0 -97 28 -97 87c0 52 43 86 97 86s96 -34 96 -86c0 -59 -46 -87 -96 -87zM818 187h24v-187h-24c-196 0 -299 110 -299 319v77h-184v-317c0 -235 -84 -299 -249 -299
c-30 0 -60 3 -86 9l-20 161c36 -2 59 -2 87 -2c45 0 82 25 82 99v536h370v120h186v-397c0 -78 39 -119 113 -119z" />
    <glyph glyph-name="uniFC8D" unicode="&#xfee8;&#xfee6;" horiz-adv-x="1160" arabic-form="final" 
d="M953 721c-51 0 -97 28 -97 87c0 52 43 86 97 86s96 -34 96 -86c0 -59 -46 -87 -96 -87zM346 601c-51 0 -97 28 -97 87c0 52 43 86 97 86s96 -34 96 -86c0 -59 -46 -87 -96 -87zM1156 187h24v-187h-24c-196 0 -299 110 -299 319v9h-212v-453h-269
c-212 0 -333 119 -333 325v314h186v-292c0 -114 71 -161 176 -161h54v453h398v119h187v-327c0 -78 38 -119 112 -119z" />
    <glyph glyph-name="uniFC8E" unicode="&#xfee8;&#xfef0;" horiz-adv-x="1240" arabic-form="final" 
d="M1032 790c-51 0 -97 28 -97 87c0 52 43 86 97 86s96 -34 96 -86c0 -59 -46 -87 -96 -87zM1235 187h24v-187h-24c-196 0 -299 110 -299 319v88h-99c-89 0 -132 -49 -132 -137v-395h-330c-224 0 -333 112 -333 332v196h186v-177c0 -118 77 -165 187 -165h103v210
c0 212 106 312 319 312h99v120h186v-397c0 -78 39 -119 113 -119z" />
    <glyph glyph-name="uniFC8F" unicode="&#xfee8;&#xfef2;" horiz-adv-x="1240" arabic-form="final" 
d="M1032 790c-51 0 -97 28 -97 87c0 52 43 86 97 86s96 -34 96 -86c0 -59 -46 -87 -96 -87zM1235 187h24v-187h-24c-196 0 -299 110 -299 319v88h-99c-89 0 -132 -49 -132 -137v-395h-330c-224 0 -333 112 -333 332v196h186v-177c0 -118 77 -165 187 -165h103v210
c0 212 106 312 319 312h99v120h186v-397c0 -78 39 -119 113 -119zM364 -210c54 0 96 -33 96 -85c0 -57 -45 -86 -96 -86c-50 0 -95 29 -95 86c0 52 42 85 95 85zM587 -210c55 0 96 -33 96 -85c0 -57 -45 -86 -96 -86c-50 0 -95 29 -95 86c0 52 41 85 95 85z" />
    <glyph glyph-name="uniFEE8FE8A" unicode="&#xfee8;&#xfe8a;" horiz-adv-x="1240" 
d="M1032 790c-51 0 -97 28 -97 87c0 52 43 86 97 86s96 -34 96 -86c0 -59 -46 -87 -96 -87zM1235 187h24v-187h-24c-196 0 -299 110 -299 319v88h-99c-89 0 -132 -49 -132 -137v-395h-330c-224 0 -333 112 -333 332v196h186v-177c0 -118 77 -165 187 -165h103v210
c0 212 106 312 319 312h99v120h186v-397c0 -78 39 -119 113 -119zM235 545v-78h-200v66c0 83 53 115 127 115h46v-65h-45c-19 0 -32 -12 -32 -30v-8h104z" />
    <glyph glyph-name="uniFBE9FEAE" unicode="&#x649;&#xfeae;" horiz-adv-x="823" 
d="M819 187h24v-187h-24c-196 0 -299 110 -299 319v77h-184v-317c0 -235 -84 -299 -249 -299c-30 0 -60 3 -86 9l-20 161c36 -2 59 -2 87 -2c45 0 82 25 82 99v536h370v120h186v-397c0 -78 39 -119 113 -119z" />
    <glyph glyph-name="uniFBE9FEB0" unicode="&#x649;&#xfeb0;" horiz-adv-x="823" 
d="M231 670c-51 0 -97 28 -97 87c0 52 43 86 97 86s96 -34 96 -86c0 -59 -46 -87 -96 -87zM818 187h24v-187h-24c-196 0 -299 110 -299 319v77h-184v-317c0 -235 -84 -299 -249 -299c-30 0 -60 3 -86 9l-20 161c36 -2 59 -2 87 -2c45 0 82 25 82 99v536h370v120h186v-397
c0 -78 39 -119 113 -119z" />
    <glyph glyph-name="uniFBE9FEE6" unicode="&#x649;&#xfee6;" horiz-adv-x="1160" 
d="M346 601c-51 0 -97 28 -97 87c0 52 43 86 97 86s96 -34 96 -86c0 -59 -46 -87 -96 -87zM1156 187h24v-187h-24c-196 0 -299 110 -299 319v9h-212v-453h-269c-212 0 -333 119 -333 325v314h186v-292c0 -114 71 -161 176 -161h54v453h398v119h187v-327
c0 -78 38 -119 112 -119z" />
    <glyph glyph-name="uniFBE9FB9F" unicode="&#x649;&#xfb9f;" horiz-adv-x="1160" 
d="M1156 187h24v-187h-24c-196 0 -299 110 -299 319v9h-212v-453h-269c-212 0 -333 119 -333 325v314h186v-292c0 -114 71 -161 176 -161h54v453h398v119h187v-327c0 -78 38 -119 112 -119z" />
    <glyph glyph-name="uniFC91" unicode="&#xfef4;&#xfeae;" horiz-adv-x="823" arabic-form="final" 
d="M818 187h24v-187h-24c-196 0 -299 110 -299 319v77h-184v-317c0 -235 -84 -299 -249 -299c-30 0 -60 3 -86 9l-20 161c36 -2 59 -2 87 -2c45 0 82 25 82 99v536h370v120h186v-397c0 -78 39 -119 113 -119zM436 -85c54 0 96 -33 96 -85c0 -57 -45 -86 -96 -86
c-50 0 -95 29 -95 86c0 52 42 85 95 85zM659 -85c55 0 96 -33 96 -85c0 -57 -45 -86 -96 -86c-50 0 -95 29 -95 86c0 52 41 85 95 85z" />
    <glyph glyph-name="uniFC92" unicode="&#xfef4;&#xfeb0;" horiz-adv-x="823" arabic-form="final" 
d="M231 670c-51 0 -97 28 -97 87c0 52 43 86 97 86s96 -34 96 -86c0 -59 -46 -87 -96 -87zM818 187h24v-187h-24c-196 0 -299 110 -299 319v77h-184v-317c0 -235 -84 -299 -249 -299c-30 0 -60 3 -86 9l-20 161c36 -2 59 -2 87 -2c45 0 82 25 82 99v536h370v120h186v-397
c0 -78 39 -119 113 -119zM436 -85c54 0 96 -33 96 -85c0 -57 -45 -86 -96 -86c-50 0 -95 29 -95 86c0 52 42 85 95 85zM659 -85c55 0 96 -33 96 -85c0 -57 -45 -86 -96 -86c-50 0 -95 29 -95 86c0 52 41 85 95 85z" />
    <glyph glyph-name="uniFC94" unicode="&#xfef4;&#xfee6;" horiz-adv-x="1160" arabic-form="final" 
d="M346 601c-51 0 -97 28 -97 87c0 52 43 86 97 86s96 -34 96 -86c0 -59 -46 -87 -96 -87zM1156 187h24v-187h-24c-196 0 -299 110 -299 319v9h-212v-453h-269c-212 0 -333 119 -333 325v314h186v-292c0 -114 71 -161 176 -161h54v453h398v119h187v-327
c0 -78 38 -119 112 -119zM794 -85c54 0 96 -33 96 -85c0 -57 -45 -86 -96 -86c-50 0 -95 29 -95 86c0 52 42 85 95 85zM1017 -85c55 0 96 -33 96 -85c0 -57 -45 -86 -96 -86c-50 0 -95 29 -95 86c0 52 41 85 95 85z" />
    <glyph glyph-name="uniFC5A.init" unicode="&#xfef3;&#xfef4;" horiz-adv-x="1038" 
d="M0 0v186h154v397h186v-397h450v397h187v-583h-977zM143 -85c54 0 96 -33 96 -85c0 -57 -45 -86 -96 -86c-50 0 -95 29 -95 86c0 52 42 85 95 85zM366 -85c55 0 96 -33 96 -85c0 -57 -45 -86 -96 -86c-50 0 -95 29 -95 86c0 52 41 85 95 85zM672 -85c54 0 96 -33 96 -85
c0 -57 -45 -86 -96 -86c-50 0 -95 29 -95 86c0 52 42 85 95 85zM895 -85c55 0 96 -33 96 -85c0 -57 -45 -86 -96 -86c-50 0 -95 29 -95 86c0 52 41 85 95 85z" />
    <glyph glyph-name="uniFEF3FE8E" unicode="&#xfef3;&#xfe8e;" horiz-adv-x="794" 
d="M546 583h187v-583h-660v811h186v-625h287v397zM292 -85c54 0 96 -33 96 -85c0 -57 -45 -86 -96 -86c-50 0 -95 29 -95 86c0 52 42 85 95 85zM515 -85c55 0 96 -33 96 -85c0 -57 -45 -86 -96 -86c-50 0 -95 29 -95 86c0 52 41 85 95 85z" />
    <glyph glyph-name="uniFEF3FE84" unicode="&#xfef3;&#xfe84;" horiz-adv-x="794" 
d="M267 835v-78h-200v66c0 83 53 115 127 115h46v-65h-45c-19 0 -32 -12 -32 -30v-8h104zM546 583h187v-583h-660v692h186v-506h287v397zM292 -85c54 0 96 -33 96 -85c0 -57 -45 -86 -96 -86c-50 0 -95 29 -95 86c0 52 42 85 95 85zM515 -85c55 0 96 -33 96 -85
c0 -57 -45 -86 -96 -86c-50 0 -95 29 -95 86c0 52 41 85 95 85z" />
    <glyph glyph-name="uniFEF3FE82" unicode="&#xfef3;&#xfe82;" horiz-adv-x="794" 
d="M275 822v-85h-215v85h215zM546 583h187v-583h-660v692h186v-506h287v397zM292 -85c54 0 96 -33 96 -85c0 -57 -45 -86 -96 -86c-50 0 -95 29 -95 86c0 52 42 85 95 85zM515 -85c55 0 96 -33 96 -85c0 -57 -45 -86 -96 -86c-50 0 -95 29 -95 86c0 52 41 85 95 85z" />
    <glyph glyph-name="uniFEF3FB51" unicode="&#xfef3;&#xfb51;" horiz-adv-x="794" 
d="M290 812v-75h-245v75c0 73 42 111 122 111h1c80 0 122 -38 122 -111zM200 812v7c0 22 -11 33 -32 33h-1c-21 0 -32 -11 -32 -33v-7h65zM546 583h187v-583h-660v692h186v-506h287v397zM292 -85c54 0 96 -33 96 -85c0 -57 -45 -86 -96 -86c-50 0 -95 29 -95 86
c0 52 42 85 95 85zM515 -85c55 0 96 -33 96 -85c0 -57 -45 -86 -96 -86c-50 0 -95 29 -95 86c0 52 41 85 95 85z" />
    <glyph glyph-name="uniFC64" unicode="&#xfe8c;&#xfeae;" horiz-adv-x="823" arabic-form="final" 
d="M714 846v-78h-200v66c0 83 53 115 127 115h46v-65h-45c-19 0 -32 -12 -32 -30v-8h104zM818 187h24v-187h-24c-196 0 -299 110 -299 319v77h-184v-317c0 -235 -84 -299 -249 -299c-30 0 -60 3 -86 9l-20 161c36 -2 59 -2 87 -2c45 0 82 25 82 99v536h370v120h186v-397
c0 -78 39 -119 113 -119z" />
    <glyph glyph-name="uniFC65" unicode="&#xfe8c;&#xfeb0;" horiz-adv-x="823" arabic-form="final" 
d="M714 846v-78h-200v66c0 83 53 115 127 115h46v-65h-45c-19 0 -32 -12 -32 -30v-8h104zM231 670c-51 0 -97 28 -97 87c0 52 43 86 97 86s96 -34 96 -86c0 -59 -46 -87 -96 -87zM818 187h24v-187h-24c-196 0 -299 110 -299 319v77h-184v-317c0 -235 -84 -299 -249 -299
c-30 0 -60 3 -86 9l-20 161c36 -2 59 -2 87 -2c45 0 82 25 82 99v536h370v120h186v-397c0 -78 39 -119 113 -119z" />
    <glyph glyph-name="uniFC67" unicode="&#xfe8c;&#xfee6;" horiz-adv-x="1160" arabic-form="final" 
d="M1052 776v-78h-200v66c0 83 53 115 127 115h46v-65h-45c-19 0 -32 -12 -32 -30v-8h104zM346 601c-51 0 -97 28 -97 87c0 52 43 86 97 86s96 -34 96 -86c0 -59 -46 -87 -96 -87zM1156 187h24v-187h-24c-196 0 -299 110 -299 319v9h-212v-453h-269
c-212 0 -333 119 -333 325v314h186v-292c0 -114 71 -161 176 -161h54v453h398v119h187v-327c0 -78 38 -119 112 -119z" />
    <glyph glyph-name="uniFC68" unicode="&#xfe8c;&#xfef0;" horiz-adv-x="1240" arabic-form="final" 
d="M1131 846v-78h-200v66c0 83 53 115 127 115h46v-65h-45c-19 0 -32 -12 -32 -30v-8h104zM1235 187h24v-187h-24c-196 0 -299 110 -299 319v88h-99c-89 0 -132 -49 -132 -137v-395h-330c-224 0 -333 112 -333 332v196h186v-177c0 -118 77 -165 187 -165h103v210
c0 212 106 312 319 312h99v120h186v-397c0 -78 39 -119 113 -119z" />
    <glyph glyph-name="uniFC69" unicode="&#xfe8c;&#xfef2;" horiz-adv-x="1240" arabic-form="final" 
d="M1131 846v-78h-200v66c0 83 53 115 127 115h46v-65h-45c-19 0 -32 -12 -32 -30v-8h104zM1235 187h24v-187h-24c-196 0 -299 110 -299 319v88h-99c-89 0 -132 -49 -132 -137v-395h-330c-224 0 -333 112 -333 332v196h186v-177c0 -118 77 -165 187 -165h103v210
c0 212 106 312 319 312h99v120h186v-397c0 -78 39 -119 113 -119zM364 -210c54 0 96 -33 96 -85c0 -57 -45 -86 -96 -86c-50 0 -95 29 -95 86c0 52 42 85 95 85zM587 -210c55 0 96 -33 96 -85c0 -57 -45 -86 -96 -86c-50 0 -95 29 -95 86c0 52 41 85 95 85z" />
    <glyph glyph-name="uniFE8CFE8A" unicode="&#xfe8c;&#xfe8a;" horiz-adv-x="1240" 
d="M1131 846v-78h-200v66c0 83 53 115 127 115h46v-65h-45c-19 0 -32 -12 -32 -30v-8h104zM1235 187h24v-187h-24c-196 0 -299 110 -299 319v88h-99c-89 0 -132 -49 -132 -137v-395h-330c-224 0 -333 112 -333 332v196h186v-177c0 -118 77 -165 187 -165h103v210
c0 212 106 312 319 312h99v120h186v-397c0 -78 39 -119 113 -119zM235 545v-78h-200v66c0 83 53 115 127 115h46v-65h-45c-19 0 -32 -12 -32 -30v-8h104z" />
    <glyph glyph-name="uniFBFEFE8E" unicode="&#xfbfe;&#xfe8e;" horiz-adv-x="794" 
d="M546 583h187v-583h-660v811h186v-625h287v397zM292 -85c54 0 96 -33 96 -85c0 -57 -45 -86 -96 -86c-50 0 -95 29 -95 86c0 52 42 85 95 85zM515 -85c55 0 96 -33 96 -85c0 -57 -45 -86 -96 -86c-50 0 -95 29 -95 86c0 52 41 85 95 85z" />
    <glyph glyph-name="uniFBFEFE84" unicode="&#xfbfe;&#xfe84;" horiz-adv-x="794" 
d="M267 835v-78h-200v66c0 83 53 115 127 115h46v-65h-45c-19 0 -32 -12 -32 -30v-8h104zM546 583h187v-583h-660v692h186v-506h287v397zM292 -85c54 0 96 -33 96 -85c0 -57 -45 -86 -96 -86c-50 0 -95 29 -95 86c0 52 42 85 95 85zM515 -85c55 0 96 -33 96 -85
c0 -57 -45 -86 -96 -86c-50 0 -95 29 -95 86c0 52 41 85 95 85z" />
    <glyph glyph-name="uniFBFEFE82" unicode="&#xfbfe;&#xfe82;" horiz-adv-x="794" 
d="M275 822v-85h-215v85h215zM546 583h187v-583h-660v692h186v-506h287v397zM292 -85c54 0 96 -33 96 -85c0 -57 -45 -86 -96 -86c-50 0 -95 29 -95 86c0 52 42 85 95 85zM515 -85c55 0 96 -33 96 -85c0 -57 -45 -86 -96 -86c-50 0 -95 29 -95 86c0 52 41 85 95 85z" />
    <glyph glyph-name="uniFBFEFB51" unicode="&#xfbfe;&#xfb51;" horiz-adv-x="794" 
d="M290 812v-75h-245v75c0 73 42 111 122 111h1c80 0 122 -38 122 -111zM200 812v7c0 22 -11 33 -32 33h-1c-21 0 -32 -11 -32 -33v-7h65zM546 583h187v-583h-660v692h186v-506h287v397zM292 -85c54 0 96 -33 96 -85c0 -57 -45 -86 -96 -86c-50 0 -95 29 -95 86
c0 52 42 85 95 85zM515 -85c55 0 96 -33 96 -85c0 -57 -45 -86 -96 -86c-50 0 -95 29 -95 86c0 52 41 85 95 85z" />
    <glyph glyph-name="uniFE8E" unicode="&#x627;" horiz-adv-x="349" arabic-form="final" 
d="M260 186h109v-186h-295v811h186v-625z" />
    <glyph glyph-name="uniFE84" unicode="&#x623;" horiz-adv-x="349" arabic-form="final" 
d="M267 835v-78h-200v66c0 83 53 115 127 115h46v-65h-45c-19 0 -32 -12 -32 -30v-8h104zM260 186h109v-186h-295v692h186v-506z" />
    <glyph glyph-name="uniFE88" unicode="&#x625;" horiz-adv-x="349" arabic-form="final" 
d="M260 186h109v-186h-295v811h186v-625zM177 -155v-9h110v-77h-206v66c0 82 53 115 127 115h52v-65h-51c-19 0 -32 -12 -32 -30z" />
    <glyph glyph-name="uniFE82" unicode="&#x622;" horiz-adv-x="349" arabic-form="final" 
d="M274 941v-85h-215v85h215zM260 186h109v-186h-295v811h186v-625z" />
    <glyph glyph-name="uniFB51" unicode="&#x671;" horiz-adv-x="349" arabic-form="final" 
d="M289 812v-75h-245v75c0 73 42 111 122 111h1c80 0 122 -38 122 -111zM199 812v7c0 22 -11 33 -32 33h-1c-21 0 -32 -11 -32 -33v-7h65zM260 186h109v-186h-295v692h186v-506z" />
    <glyph glyph-name="uni066E.init" unicode="&#x66e;" horiz-adv-x="335" 
d="M0 0v186h89v397h186v-583h-275z" />
    <glyph glyph-name="uni066E.medi" unicode="&#x66e;" horiz-adv-x="364" 
d="M0 0v186h89v397h186v-397h109v-186h-384z" />
    <glyph glyph-name="uni066E.fina" unicode="&#x66e;" horiz-adv-x="918" 
d="M829 186h109v-186h-562c-230 0 -333 118 -333 332v174h186v-155c0 -114 70 -165 187 -165h227v397h186v-397z" />
    <glyph glyph-name="uniFE90" unicode="&#x628;" horiz-adv-x="918" arabic-form="final" 
d="M829 186h109v-186h-562c-230 0 -333 118 -333 332v174h186v-155c0 -114 70 -165 187 -165h227v397h186v-397zM482 -84c54 0 96 -34 96 -86c0 -59 -46 -87 -96 -87c-51 0 -97 28 -97 87c0 52 43 86 97 86z" />
    <glyph glyph-name="uniFE92" unicode="&#x628;" horiz-adv-x="364" arabic-form="medial" 
d="M0 0v186h89v397h186v-397h109v-186h-384zM183 -258c-51 0 -97 28 -97 87c0 52 43 86 97 86s96 -34 96 -86c0 -59 -46 -87 -96 -87z" />
    <glyph glyph-name="uniFE91" unicode="&#x628;" horiz-adv-x="335" arabic-form="initial" 
d="M0 0v186h89v397h186v-583h-275zM137 -257c-51 0 -97 28 -97 87c0 52 43 86 97 86s96 -34 96 -86c0 -59 -46 -87 -96 -87z" />
    <glyph glyph-name="uniFB57" unicode="&#x67e;" horiz-adv-x="918" arabic-form="final" 
d="M829 186h109v-186h-562c-230 0 -333 118 -333 332v174h186v-155c0 -114 70 -165 187 -165h227v397h186v-397zM466 -171c0 -56 -44 -83 -92 -83c-47 0 -91 27 -91 83c0 50 39 82 91 82c53 0 92 -32 92 -82zM590 -89c53 0 91 -32 91 -82c0 -56 -43 -83 -91 -83
s-92 27 -92 83c0 50 40 82 92 82zM482 -254c46 0 79 -28 79 -69c0 -48 -35 -71 -79 -71c-39 0 -78 23 -78 71c0 41 33 69 78 69z" />
    <glyph glyph-name="uniFB59" unicode="&#x67e;" horiz-adv-x="494" arabic-form="medial" 
d="M0 0v186h154v397h186v-397h174v-186h-514zM147 -254c-47 0 -91 27 -91 83c0 50 39 82 91 82c53 0 92 -32 92 -82c0 -56 -44 -83 -92 -83zM363 -254c-48 0 -92 27 -92 83c0 50 40 82 92 82c53 0 91 -32 91 -82c0 -56 -43 -83 -91 -83zM255 -394c-39 0 -78 23 -78 71
c0 41 33 69 78 69c46 0 79 -28 79 -69c0 -48 -35 -71 -79 -71z" />
    <glyph glyph-name="uniFB58" unicode="&#x67e;" horiz-adv-x="445" arabic-form="initial" 
d="M-1 0v186h198v397h187v-583h-385zM84 -254c-47 0 -91 27 -91 83c0 50 39 82 91 82c53 0 92 -32 92 -82c0 -56 -44 -83 -92 -83zM300 -254c-48 0 -92 27 -92 83c0 50 40 82 92 82c53 0 91 -32 91 -82c0 -56 -43 -83 -91 -83zM192 -394c-39 0 -78 23 -78 71
c0 41 33 69 78 69c46 0 79 -28 79 -69c0 -48 -35 -71 -79 -71z" />
    <glyph glyph-name="uniFE96" unicode="&#x62a;" horiz-adv-x="918" arabic-form="final" 
d="M344 650c-50 0 -95 28 -95 85c0 52 42 86 95 86c54 0 96 -34 96 -86c0 -57 -45 -85 -96 -85zM567 650c-50 0 -95 28 -95 85c0 52 41 86 95 86c55 0 96 -34 96 -86c0 -57 -45 -85 -96 -85zM829 186h109v-186h-562c-230 0 -333 118 -333 332v174h186v-155
c0 -114 70 -165 187 -165h227v397h186v-397z" />
    <glyph glyph-name="uniFE98" unicode="&#x62a;" horiz-adv-x="494" arabic-form="medial" 
d="M135 667c-50 0 -95 28 -95 85c0 52 42 86 95 86c54 0 96 -34 96 -86c0 -57 -45 -85 -96 -85zM358 667c-50 0 -95 28 -95 85c0 52 41 86 95 86c55 0 96 -34 96 -86c0 -57 -45 -85 -96 -85zM0 0v186h154v397h186v-397h174v-186h-514z" />
    <glyph glyph-name="uniFE97" unicode="&#x62a;" horiz-adv-x="445" arabic-form="initial" 
d="M180 667c-50 0 -95 28 -95 85c0 52 42 86 95 86c54 0 96 -34 96 -86c0 -57 -45 -85 -96 -85zM403 667c-50 0 -95 28 -95 85c0 52 41 86 95 86c55 0 96 -34 96 -86c0 -57 -45 -85 -96 -85zM-1 0v186h198v397h187v-583h-385z" />
    <glyph glyph-name="uniFE9A" unicode="&#x62b;" horiz-adv-x="918" arabic-form="final" 
d="M456 812c-39 0 -78 23 -78 71c0 41 33 69 78 69c46 0 79 -28 79 -69c0 -48 -37 -71 -79 -71zM348 650c-47 0 -91 27 -91 83c0 49 39 81 91 81c53 0 92 -32 92 -81c0 -56 -44 -83 -92 -83zM472 733c0 49 40 81 92 81c53 0 91 -32 91 -81c0 -56 -43 -83 -91 -83
s-92 27 -92 83zM829 186h109v-186h-562c-230 0 -333 118 -333 332v174h186v-155c0 -114 70 -165 187 -165h227v397h186v-397z" />
    <glyph glyph-name="uniFE9C" unicode="&#x62b;" horiz-adv-x="494" arabic-form="medial" 
d="M247 829c-39 0 -78 23 -78 71c0 41 33 69 78 69c46 0 79 -28 79 -69c0 -48 -37 -71 -79 -71zM139 667c-47 0 -91 27 -91 83c0 49 39 81 91 81c53 0 92 -32 92 -81c0 -56 -44 -83 -92 -83zM355 667c-48 0 -92 27 -92 83c0 49 40 81 92 81c53 0 91 -32 91 -81
c0 -56 -43 -83 -91 -83zM0 0v186h154v397h186v-397h174v-186h-514z" />
    <glyph glyph-name="uniFE9B" unicode="&#x62b;" horiz-adv-x="445" arabic-form="initial" 
d="M292 829c-39 0 -78 23 -78 71c0 41 33 69 78 69c46 0 79 -28 79 -69c0 -48 -37 -71 -79 -71zM184 667c-47 0 -91 27 -91 83c0 49 39 81 91 81c53 0 92 -32 92 -81c0 -56 -44 -83 -92 -83zM400 667c-48 0 -92 27 -92 83c0 49 40 81 92 81c53 0 91 -32 91 -81
c0 -56 -43 -83 -91 -83zM-1 0v186h198v397h187v-583h-385z" />
    <glyph glyph-name="uniFB67" unicode="&#x679;" horiz-adv-x="918" arabic-form="final" 
d="M579 712v-75h-245v213h95v-35h43c64 0 107 -41 107 -103zM484 712v12c0 13 -8 21 -21 21h-34v-33h55zM829 186h109v-186h-562c-230 0 -333 118 -333 332v174h186v-155c0 -114 70 -165 187 -165h227v397h186v-397z" />
    <glyph glyph-name="uniFB69" unicode="&#x679;" horiz-adv-x="494" arabic-form="medial" 
d="M125 654v213h95v-35h43c64 0 107 -41 107 -103v-75h-245zM220 729h55v12c0 13 -8 21 -21 21h-34v-33zM0 0v186h154v397h186v-397h174v-186h-514z" />
    <glyph glyph-name="uniFB68" unicode="&#x679;" horiz-adv-x="445" arabic-form="initial" 
d="M170 654v213h95v-35h43c64 0 107 -41 107 -103v-75h-245zM265 729h55v12c0 13 -8 21 -21 21h-34v-33zM-1 0v186h198v397h187v-583h-385z" />
    <glyph glyph-name="uniFE9E" unicode="&#x62c;" horiz-adv-x="698" arabic-form="final" 
d="M625 186h93v-186h-380c-88 0 -120 -32 -120 -115v-105h-175v146c0 166 89 260 246 260h153c9 30 14 67 14 102c0 85 -55 138 -140 138c-54 0 -97 -12 -148 -47l-67 170c68 37 150 64 228 64c201 0 303 -129 303 -335c0 -30 -3 -61 -7 -92zM418 -93c54 0 96 -34 96 -86
c0 -59 -46 -87 -96 -87c-51 0 -97 28 -97 87c0 52 43 86 97 86z" />
    <glyph glyph-name="uniFEA0" unicode="&#x62c;" horiz-adv-x="637" arabic-form="medial" 
d="M562 186h94v-186h-657v186h380c9 30 15 67 15 102c0 85 -56 138 -140 138c-55 0 -97 -12 -149 -47l-67 170c69 37 151 64 229 64c200 0 302 -129 302 -335c0 -30 -3 -61 -7 -92zM329 -84c54 0 96 -34 96 -86c0 -59 -46 -87 -96 -87c-51 0 -97 28 -97 87c0 52 43 86 97 86
z" />
    <glyph glyph-name="uniFE9F" unicode="&#x62c;" horiz-adv-x="613" arabic-form="initial" 
d="M-1 0v186h380c9 30 15 67 15 102c0 85 -56 138 -140 138c-55 0 -97 -12 -149 -47l-67 170c69 37 151 64 229 64c200 0 302 -129 302 -335c0 -100 -28 -211 -48 -278h-522zM276 -257c-51 0 -97 28 -97 87c0 52 43 86 97 86s96 -34 96 -86c0 -59 -46 -87 -96 -87z" />
    <glyph glyph-name="uniFB7B" unicode="&#x686;" horiz-adv-x="818" arabic-form="final" 
d="M743 186h94v-186h-423c-86 0 -140 -28 -191 -96l-59 -75l-145 108l76 98c83 107 170 151 303 151h162c9 30 15 67 15 102c0 85 -56 138 -140 138c-55 0 -97 -12 -149 -47l-67 170c69 37 151 64 229 64c200 0 302 -129 302 -335c0 -30 -3 -61 -7 -92zM471 -166
c0 -56 -44 -83 -92 -83c-47 0 -91 27 -91 83c0 50 39 82 91 82c53 0 92 -32 92 -82zM595 -84c53 0 91 -32 91 -82c0 -56 -43 -83 -91 -83s-92 27 -92 83c0 50 40 82 92 82zM487 -249c46 0 79 -28 79 -69c0 -48 -35 -71 -79 -71c-39 0 -78 23 -78 71c0 41 33 69 78 69z" />
    <glyph glyph-name="uniFB7D" unicode="&#x686;" horiz-adv-x="637" arabic-form="medial" 
d="M562 186h94v-186h-657v186h380c9 30 15 67 15 102c0 85 -56 138 -140 138c-55 0 -97 -12 -149 -47l-67 170c69 37 151 64 229 64c200 0 302 -129 302 -335c0 -30 -3 -61 -7 -92zM313 -171c0 -56 -44 -83 -92 -83c-47 0 -91 27 -91 83c0 50 39 82 91 82
c53 0 92 -32 92 -82zM437 -89c53 0 91 -32 91 -82c0 -56 -43 -83 -91 -83s-92 27 -92 83c0 50 40 82 92 82zM329 -254c46 0 79 -28 79 -69c0 -48 -35 -71 -79 -71c-39 0 -78 23 -78 71c0 41 33 69 78 69z" />
    <glyph glyph-name="uniFB7C" unicode="&#x686;" horiz-adv-x="613" arabic-form="initial" 
d="M-1 0v186h380c9 30 15 67 15 102c0 85 -56 138 -140 138c-55 0 -97 -12 -149 -47l-67 170c69 37 151 64 229 64c200 0 302 -129 302 -335c0 -100 -28 -211 -48 -278h-522zM168 -254c-47 0 -91 27 -91 83c0 50 39 82 91 82c53 0 92 -32 92 -82c0 -56 -44 -83 -92 -83z
M384 -254c-48 0 -92 27 -92 83c0 50 40 82 92 82c53 0 91 -32 91 -82c0 -56 -43 -83 -91 -83zM276 -394c-39 0 -78 23 -78 71c0 41 33 69 78 69c46 0 79 -28 79 -69c0 -48 -35 -71 -79 -71z" />
    <glyph glyph-name="uniFEA2" unicode="&#x62d;" horiz-adv-x="698" arabic-form="final" 
d="M625 186h93v-186h-380c-88 0 -120 -32 -120 -115v-105h-175v146c0 166 89 260 246 260h153c9 30 14 67 14 102c0 85 -55 138 -140 138c-54 0 -97 -12 -148 -47l-67 170c68 37 150 64 228 64c201 0 303 -129 303 -335c0 -30 -3 -61 -7 -92z" />
    <glyph glyph-name="uniFEA4" unicode="&#x62d;" horiz-adv-x="637" arabic-form="medial" 
d="M563 186h94v-186h-657v186h380c9 30 15 67 15 102c0 85 -56 138 -140 138c-55 0 -97 -12 -149 -47l-67 170c69 37 151 64 229 64c200 0 302 -129 302 -335c0 -30 -3 -61 -7 -92z" />
    <glyph glyph-name="uniFEA3" unicode="&#x62d;" horiz-adv-x="613" arabic-form="initial" 
d="M0 0v186h380c9 30 15 67 15 102c0 85 -56 138 -140 138c-55 0 -97 -12 -149 -47l-67 170c69 37 151 64 229 64c200 0 302 -129 302 -335c0 -100 -28 -211 -48 -278h-522z" />
    <glyph glyph-name="uniFEA6" unicode="&#x62e;" horiz-adv-x="698" arabic-form="final" 
d="M329 700c-51 0 -97 28 -97 87c0 52 43 86 97 86s96 -34 96 -86c0 -59 -46 -87 -96 -87zM625 186h93v-186h-380c-88 0 -120 -32 -120 -115v-105h-175v146c0 166 89 260 246 260h153c9 30 14 67 14 102c0 85 -55 138 -140 138c-54 0 -97 -12 -148 -47l-67 170
c68 37 150 64 228 64c201 0 303 -129 303 -335c0 -30 -3 -61 -7 -92z" />
    <glyph glyph-name="uniFEA8" unicode="&#x62e;" horiz-adv-x="637" arabic-form="medial" 
d="M268 700c-51 0 -97 28 -97 87c0 52 43 86 97 86s96 -34 96 -86c0 -59 -46 -87 -96 -87zM563 186h94v-186h-657v186h380c9 30 15 67 15 102c0 85 -56 138 -140 138c-55 0 -97 -12 -149 -47l-67 170c69 37 151 64 229 64c200 0 302 -129 302 -335c0 -30 -3 -61 -7 -92z" />
    <glyph glyph-name="uniFEA7" unicode="&#x62e;" horiz-adv-x="613" arabic-form="initial" 
d="M268 700c-51 0 -97 28 -97 87c0 52 43 86 97 86s96 -34 96 -86c0 -59 -46 -87 -96 -87zM-1 0v186h380c9 30 15 67 15 102c0 85 -56 138 -140 138c-55 0 -97 -12 -149 -47l-67 170c69 37 151 64 229 64c200 0 302 -129 302 -335c0 -100 -28 -211 -48 -278h-522z" />
    <glyph glyph-name="uniFEAA" unicode="&#x62f;" horiz-adv-x="622" arabic-form="final" 
d="M533 186h109v-186h-622v186h338v96c0 75 -35 114 -108 114h-53v187h24c217 0 312 -110 312 -321v-76z" />
    <glyph glyph-name="uniFEAC" unicode="&#x630;" horiz-adv-x="622" arabic-form="final" 
d="M226 670c-51 0 -97 28 -97 87c0 52 43 86 97 86s96 -34 96 -86c0 -59 -46 -87 -96 -87zM533 186h109v-186h-622v186h338v96c0 75 -35 114 -108 114h-53v187h24c217 0 312 -110 312 -321v-76z" />
    <glyph glyph-name="uniFB89" unicode="&#x688;" horiz-adv-x="622" arabic-form="final" 
d="M348 729v-75h-245v213h95v-35h43c64 0 107 -41 107 -103zM253 729v12c0 13 -8 21 -21 21h-34v-33h55zM533 186h109v-186h-622v186h338v96c0 75 -35 114 -108 114h-53v187h24c217 0 312 -110 312 -321v-76z" />
    <glyph glyph-name="uniFEAE" unicode="&#x631;" horiz-adv-x="417" arabic-form="final" 
d="M437 186v-186h-105c-18 -171 -100 -220 -245 -220c-30 0 -60 3 -86 9l-20 161c36 -2 59 -2 87 -2c45 0 82 25 82 99v536h186v-397h101z" />
    <glyph glyph-name="uniFEB0" unicode="&#x632;" horiz-adv-x="417" arabic-form="final" 
d="M244 670c-51 0 -97 28 -97 87c0 52 43 86 97 86s96 -34 96 -86c0 -59 -46 -87 -96 -87zM437 186v-186h-105c-18 -171 -100 -220 -245 -220c-30 0 -60 3 -86 9l-20 161c36 -2 59 -2 87 -2c45 0 82 25 82 99v536h186v-397h101z" />
    <glyph glyph-name="uniFB8D" unicode="&#x691;" horiz-adv-x="417" arabic-form="final" 
d="M366 729v-75h-245v213h95v-35h43c64 0 107 -41 107 -103zM271 729v12c0 13 -8 21 -21 21h-34v-33h55zM437 186v-186h-105c-18 -171 -100 -220 -245 -220c-30 0 -60 3 -86 9l-20 161c36 -2 59 -2 87 -2c45 0 82 25 82 99v536h186v-397h101z" />
    <glyph glyph-name="uniFB8B" unicode="&#x698;" horiz-adv-x="417" arabic-form="final" 
d="M243 829c-39 0 -78 23 -78 71c0 41 33 69 78 69c46 0 79 -28 79 -69c0 -48 -37 -71 -79 -71zM135 667c-47 0 -91 27 -91 83c0 49 39 81 91 81c53 0 92 -32 92 -81c0 -56 -44 -83 -92 -83zM259 750c0 49 40 81 92 81c53 0 91 -32 91 -81c0 -56 -43 -83 -91 -83
s-92 27 -92 83zM336 583v-397h101v-186h-105c-18 -171 -100 -220 -245 -220c-30 0 -60 3 -86 9l-20 161c36 -2 59 -2 87 -2c45 0 82 25 82 99v536h186z" />
    <glyph glyph-name="uniFEB2" unicode="&#x633;" horiz-adv-x="1522" arabic-form="final" 
d="M1522 186h20v-186h-20c-77 0 -141 29 -175 76c-47 -57 -121 -86 -225 -86c-90 0 -165 32 -207 94c-50 -54 -125 -84 -219 -84h-51v-125h-269c-212 0 -333 119 -333 325v314h186v-292c0 -114 71 -161 176 -161h54v453h186v-328h50c57 0 141 22 141 126v202h186v-229
c0 -70 40 -108 100 -108c63 0 101 40 101 112v296h187v-260c0 -91 39 -139 112 -139z" />
    <glyph glyph-name="uniFEB4" unicode="&#x633;" horiz-adv-x="1157" arabic-form="medial" 
d="M1157 186h20v-186h-20c-77 0 -141 29 -175 76c-46 -57 -120 -86 -224 -86c-90 0 -165 32 -207 94c-51 -54 -126 -84 -220 -84h-331v186h94v328h186v-328h51c56 0 140 22 140 126v202h187v-229c0 -70 39 -108 100 -108c63 0 101 40 101 112v296h186v-260
c0 -91 39 -139 112 -139z" />
    <glyph glyph-name="uniFEB3" unicode="&#x633;" horiz-adv-x="1095" arabic-form="initial" 
d="M859 585h186v-276c0 -212 -86 -319 -287 -319c-90 0 -165 32 -207 94c-51 -54 -126 -84 -220 -84h-331v186h94v328h186v-328h51c56 0 140 22 140 126v202h187v-229c0 -70 39 -108 100 -108c63 0 101 40 101 112v296z" />
    <glyph glyph-name="uniFEB6" unicode="&#x634;" horiz-adv-x="1522" arabic-form="final" 
d="M931 761c-39 0 -78 23 -78 71c0 41 33 69 78 69c46 0 79 -28 79 -69c0 -48 -37 -71 -79 -71zM823 599c-47 0 -91 27 -91 83c0 49 39 81 91 81c53 0 92 -32 92 -81c0 -56 -44 -83 -92 -83zM947 682c0 49 40 81 92 81c53 0 91 -32 91 -81c0 -56 -43 -83 -91 -83
s-92 27 -92 83zM1522 186h20v-186h-20c-77 0 -141 29 -175 76c-47 -57 -121 -86 -225 -86c-90 0 -165 32 -207 94c-50 -54 -125 -84 -219 -84h-51v-125h-269c-212 0 -333 119 -333 325v314h186v-292c0 -114 71 -161 176 -161h54v453h186v-328h50c57 0 141 22 141 126v202
h186v-229c0 -70 40 -108 100 -108c63 0 101 40 101 112v296h187v-260c0 -91 39 -139 112 -139z" />
    <glyph glyph-name="uniFEB8" unicode="&#x634;" horiz-adv-x="1157" arabic-form="medial" 
d="M562 761c-39 0 -78 23 -78 71c0 41 33 69 78 69c46 0 79 -28 79 -69c0 -48 -37 -71 -79 -71zM454 599c-47 0 -91 27 -91 83c0 49 39 81 91 81c53 0 92 -32 92 -81c0 -56 -44 -83 -92 -83zM578 682c0 49 40 81 92 81c53 0 91 -32 91 -81c0 -56 -43 -83 -91 -83
s-92 27 -92 83zM1157 186h20v-186h-20c-77 0 -141 29 -175 76c-46 -57 -120 -86 -224 -86c-90 0 -165 32 -207 94c-51 -54 -126 -84 -220 -84h-331v186h94v328h186v-328h51c56 0 140 22 140 126v202h187v-229c0 -70 39 -108 100 -108c63 0 101 40 101 112v296h186v-260
c0 -91 39 -139 112 -139z" />
    <glyph glyph-name="uniFEB7" unicode="&#x634;" horiz-adv-x="1095" arabic-form="initial" 
d="M562 761c-39 0 -78 23 -78 71c0 41 33 69 78 69c46 0 79 -28 79 -69c0 -48 -37 -71 -79 -71zM454 599c-47 0 -91 27 -91 83c0 49 39 81 91 81c53 0 92 -32 92 -81c0 -56 -44 -83 -92 -83zM578 682c0 49 40 81 92 81c53 0 91 -32 91 -81c0 -56 -43 -83 -91 -83
s-92 27 -92 83zM859 585h186v-276c0 -212 -86 -319 -287 -319c-90 0 -165 32 -207 94c-51 -54 -126 -84 -220 -84h-331v186h94v328h186v-328h51c56 0 140 22 140 126v202h187v-229c0 -70 39 -108 100 -108c63 0 101 40 101 112v296z" />
    <glyph glyph-name="uniFEBA" unicode="&#x635;" horiz-adv-x="1262" arabic-form="final" 
d="M1173 186h109v-186h-637v-125h-269c-212 0 -333 119 -333 325v314h186v-292c0 -114 71 -161 176 -161h54v579h186v-57h199c210 -1 329 -122 329 -332v-65zM986 186v98c0 71 -48 112 -125 112h-216v-210h341z" />
    <glyph glyph-name="uniFEBC" unicode="&#x635;" horiz-adv-x="897" arabic-form="medial" 
d="M808 186h109v-186h-917v186h94v454h186v-57h199c210 -1 329 -122 329 -332v-65zM621 186v98c0 71 -48 112 -125 112h-216v-210h341z" />
    <glyph glyph-name="uniFEBB" unicode="&#x635;" horiz-adv-x="858" arabic-form="initial" 
d="M479 583c210 -1 329 -122 329 -332v-251h-808v186h94v454h186v-57h199zM621 186v98c0 71 -48 112 -125 112h-216v-210h341z" />
    <glyph glyph-name="uniFEBE" unicode="&#x636;" horiz-adv-x="1262" arabic-form="final" 
d="M849 670c-51 0 -97 28 -97 87c0 52 43 86 97 86s96 -34 96 -86c0 -59 -46 -87 -96 -87zM1173 186h109v-186h-637v-125h-269c-212 0 -333 119 -333 325v314h186v-292c0 -114 71 -161 176 -161h54v579h186v-57h199c210 -1 329 -122 329 -332v-65zM986 186v98
c0 71 -48 112 -125 112h-216v-210h341z" />
    <glyph glyph-name="uniFEC0" unicode="&#x636;" horiz-adv-x="897" arabic-form="medial" 
d="M476 670c-51 0 -97 28 -97 87c0 52 43 86 97 86s96 -34 96 -86c0 -59 -46 -87 -96 -87zM808 186h109v-186h-917v186h94v454h186v-57h199c210 -1 329 -122 329 -332v-65zM621 186v98c0 71 -48 112 -125 112h-216v-210h341z" />
    <glyph glyph-name="uniFEBF" unicode="&#x636;" horiz-adv-x="858" arabic-form="initial" 
d="M476 670c-51 0 -97 28 -97 87c0 52 43 86 97 86s96 -34 96 -86c0 -59 -46 -87 -96 -87zM479 583c210 -1 329 -122 329 -332v-251h-808v186h94v454h186v-57h199zM621 186v98c0 71 -48 112 -125 112h-216v-210h341z" />
    <glyph glyph-name="uniFEC2" unicode="&#x637;" horiz-adv-x="937" arabic-form="final" 
d="M848 186h109v-186h-937l34 186h80v625h186v-228h199c210 -1 329 -122 329 -332v-65zM661 186v98c0 71 -48 112 -125 112h-216v-210h341z" />
    <glyph glyph-name="uniFEC4" unicode="&#x637;" horiz-adv-x="897" arabic-form="medial" 
d="M808 186h109v-186h-917v186h94v625h186v-228h199c210 -1 329 -122 329 -332v-65zM621 186v98c0 71 -48 112 -125 112h-216v-210h341z" />
    <glyph glyph-name="uniFEC3" unicode="&#x637;" horiz-adv-x="858" arabic-form="initial" 
d="M479 583c210 -1 329 -122 329 -332v-251h-808v186h94v625h186v-228h199zM621 186v98c0 71 -48 112 -125 112h-216v-210h341z" />
    <glyph glyph-name="uniFEC6" unicode="&#x638;" horiz-adv-x="937" arabic-form="final" 
d="M546 670c-51 0 -97 28 -97 87c0 52 43 86 97 86s96 -34 96 -86c0 -59 -46 -87 -96 -87zM848 186h109v-186h-937l34 186h80v625h186v-228h199c210 -1 329 -122 329 -332v-65zM661 186v98c0 71 -48 112 -125 112h-216v-210h341z" />
    <glyph glyph-name="uniFEC8" unicode="&#x638;" horiz-adv-x="897" arabic-form="medial" 
d="M507 670c-51 0 -97 28 -97 87c0 52 43 86 97 86s96 -34 96 -86c0 -59 -46 -87 -96 -87zM808 186h109v-186h-917v186h94v625h186v-228h199c210 -1 329 -122 329 -332v-65zM621 186v98c0 71 -48 112 -125 112h-216v-210h341z" />
    <glyph glyph-name="uniFEC7" unicode="&#x638;" horiz-adv-x="858" arabic-form="initial" 
d="M506 670c-51 0 -97 28 -97 87c0 52 43 86 97 86s96 -34 96 -86c0 -59 -46 -87 -96 -87zM479 583c210 -1 329 -122 329 -332v-251h-808v186h94v625h186v-228h199zM621 186v98c0 71 -48 112 -125 112h-216v-210h341z" />
    <glyph glyph-name="uniFECA" unicode="&#x639;" horiz-adv-x="830" arabic-form="final" 
d="M684 186h166v-186h-520c-74 0 -112 -35 -112 -108v-112h-175v154c0 137 73 229 192 248l-110 290c96 88 205 141 331 141c127 0 234 -53 331 -141zM407 186h98l77 191c-37 32 -82 49 -126 49c-43 0 -88 -16 -126 -49z" />
    <glyph glyph-name="uniFECC" unicode="&#x639;" horiz-adv-x="745" arabic-form="medial" 
d="M599 186h166v-186h-765v186h148l-108 286c96 88 205 141 331 141c127 0 234 -53 331 -141zM323 186h98l77 191c-37 32 -82 49 -126 49c-43 0 -88 -16 -126 -49z" />
    <glyph glyph-name="uniFECB" unicode="&#x639;" horiz-adv-x="630" arabic-form="initial" 
d="M0 0v186h101c-21 53 -33 110 -33 150c0 179 121 277 289 277c61 0 142 -21 216 -51l-61 -172c-48 22 -92 36 -141 36c-72 0 -127 -44 -127 -122c0 -40 13 -80 39 -118h304v-186h-587z" />
    <glyph glyph-name="uniFECE" unicode="&#x63a;" horiz-adv-x="830" arabic-form="final" 
d="M456 700c-51 0 -97 28 -97 87c0 52 43 86 97 86s96 -34 96 -86c0 -59 -46 -87 -96 -87zM684 186h166v-186h-520c-74 0 -112 -35 -112 -108v-112h-175v154c0 137 73 229 192 248l-110 290c96 88 205 141 331 141c127 0 234 -53 331 -141zM407 186h98l77 191
c-37 32 -82 49 -126 49c-43 0 -88 -16 -126 -49z" />
    <glyph glyph-name="uniFED0" unicode="&#x63a;" horiz-adv-x="745" arabic-form="medial" 
d="M372 700c-51 0 -97 28 -97 87c0 52 43 86 97 86s96 -34 96 -86c0 -59 -46 -87 -96 -87zM599 186h166v-186h-765v186h148l-108 286c96 88 205 141 331 141c127 0 234 -53 331 -141zM323 186h98l77 191c-37 32 -82 49 -126 49c-43 0 -88 -16 -126 -49z" />
    <glyph glyph-name="uniFECF" unicode="&#x63a;" horiz-adv-x="630" arabic-form="initial" 
d="M358 700c-51 0 -97 28 -97 87c0 52 43 86 97 86s96 -34 96 -86c0 -59 -46 -87 -96 -87zM0 0v186h101c-21 53 -33 110 -33 150c0 179 121 277 289 277c61 0 142 -21 216 -51l-61 -172c-48 22 -92 36 -141 36c-72 0 -127 -44 -127 -122c0 -40 13 -80 39 -118h304v-186h-587
z" />
    <glyph glyph-name="uniFED2" unicode="&#x641;" horiz-adv-x="1094" arabic-form="final" 
d="M795 670c-51 0 -97 28 -97 87c0 52 43 86 97 86s96 -34 96 -86c0 -59 -46 -87 -96 -87zM1004 186h109v-186h-119h-200h-419c-230 0 -333 118 -333 332v174h186v-155c0 -114 70 -165 187 -165h81c-11 32 -17 66 -17 104v1c0 175 136 292 340 292h185v-397zM777 186h40v211
h-40c-67 0 -123 -37 -123 -106v-1c0 -67 56 -104 123 -104z" />
    <glyph glyph-name="uniFED4" unicode="&#x641;" horiz-adv-x="693" arabic-form="medial" 
d="M424 670c-51 0 -97 28 -97 87c0 52 43 86 97 86s96 -34 96 -86c0 -59 -46 -87 -96 -87zM603 186h109v-186h-119h-200h-394v186h96c-11 32 -17 66 -17 104v1c0 175 136 292 340 292h185v-397zM376 186h40v211h-40c-67 0 -123 -37 -123 -106v-1c0 -67 56 -104 123 -104z
" />
    <glyph glyph-name="uniFED3" unicode="&#x641;" horiz-adv-x="664" arabic-form="initial" 
d="M424 670c-51 0 -97 28 -97 87c0 52 43 86 97 86s96 -34 96 -86c0 -59 -46 -87 -96 -87zM418 583h185v-583h-10h-200h-394v186h96c-11 32 -17 66 -17 104v1c0 175 136 292 340 292zM376 186h40v211h-40c-67 0 -123 -37 -123 -106v-1c0 -67 56 -104 123 -104z" />
    <glyph glyph-name="uniFB6B" unicode="&#x6a4;" horiz-adv-x="1094" arabic-form="final" 
d="M795 829c-39 0 -78 23 -78 71c0 41 33 69 78 69c46 0 79 -28 79 -69c0 -48 -37 -71 -79 -71zM687 667c-47 0 -91 27 -91 83c0 49 39 81 91 81c53 0 92 -32 92 -81c0 -56 -44 -83 -92 -83zM811 750c0 49 40 81 92 81c53 0 91 -32 91 -81c0 -56 -43 -83 -91 -83
s-92 27 -92 83zM1004 186h109v-186h-119h-200h-419c-230 0 -333 118 -333 332v174h186v-155c0 -114 70 -165 187 -165h81c-11 32 -17 66 -17 104v1c0 175 136 292 340 292h185v-397zM777 186h40v211h-40c-67 0 -123 -37 -123 -106v-1c0 -67 56 -104 123 -104z" />
    <glyph glyph-name="uniFB6D" unicode="&#x6a4;" horiz-adv-x="693" arabic-form="medial" 
d="M424 829c-39 0 -78 23 -78 71c0 41 33 69 78 69c46 0 79 -28 79 -69c0 -48 -37 -71 -79 -71zM316 667c-47 0 -91 27 -91 83c0 49 39 81 91 81c53 0 92 -32 92 -81c0 -56 -44 -83 -92 -83zM440 750c0 49 40 81 92 81c53 0 91 -32 91 -81c0 -56 -43 -83 -91 -83
s-92 27 -92 83zM603 186h109v-186h-119h-200h-394v186h96c-11 32 -17 66 -17 104v1c0 175 136 292 340 292h185v-397zM376 186h40v211h-40c-67 0 -123 -37 -123 -106v-1c0 -67 56 -104 123 -104z" />
    <glyph glyph-name="uniFB6C" unicode="&#x6a4;" horiz-adv-x="664" arabic-form="initial" 
d="M424 829c-39 0 -78 23 -78 71c0 41 33 69 78 69c46 0 79 -28 79 -69c0 -48 -37 -71 -79 -71zM316 667c-47 0 -91 27 -91 83c0 49 39 81 91 81c53 0 92 -32 92 -81c0 -56 -44 -83 -92 -83zM440 750c0 49 40 81 92 81c53 0 91 -32 91 -81c0 -56 -43 -83 -91 -83
s-92 27 -92 83zM78 291c0 175 136 292 340 292h185v-583h-10h-200h-394v186h96c-11 32 -17 66 -17 104v1zM376 186h40v211h-40c-67 0 -123 -37 -123 -106v-1c0 -67 56 -104 123 -104z" />
    <glyph glyph-name="uni06A1.init" unicode="&#x6a1;" horiz-adv-x="664" 
d="M419 583h185v-583h-10h-200h-394v186h96c-11 32 -17 66 -17 104v1c0 175 136 292 340 292zM377 186h40v211h-40c-67 0 -123 -37 -123 -106v-1c0 -67 56 -104 123 -104z" />
    <glyph glyph-name="uni06A1.medi" unicode="&#x6a1;" horiz-adv-x="693" 
d="M604 186h109v-186h-119h-200h-394v186h96c-11 32 -17 66 -17 104v1c0 175 136 292 340 292h185v-397zM377 186h40v211h-40c-67 0 -123 -37 -123 -106v-1c0 -67 56 -104 123 -104z" />
    <glyph glyph-name="uni06A1.fina" unicode="&#x6a1;" horiz-adv-x="1094" 
d="M1005 186h109v-186h-119h-200h-419c-230 0 -333 118 -333 332v174h186v-155c0 -114 70 -165 187 -165h81c-11 32 -17 66 -17 104v1c0 175 136 292 340 292h185v-397zM778 186h40v211h-40c-67 0 -123 -37 -123 -106v-1c0 -67 56 -104 123 -104z" />
    <glyph glyph-name="uni066F.fina" unicode="&#x66f;" horiz-adv-x="943" 
d="M963 186v-186h-109v-220h-478c-224 0 -333 112 -333 332v196h186v-177c0 -118 77 -165 187 -165h252v65h-24c-186 0 -314 90 -314 259v1c0 175 135 292 340 292h184v-397h109zM628 186h40v211h-40c-68 0 -123 -37 -123 -106v-1c0 -67 56 -104 123 -104z" />
    <glyph glyph-name="uniFED6" unicode="&#x642;" horiz-adv-x="943" arabic-form="final" 
d="M532 667c-50 0 -95 28 -95 85c0 52 42 86 95 86c54 0 96 -34 96 -86c0 -57 -45 -85 -96 -85zM755 667c-50 0 -95 28 -95 85c0 52 41 86 95 86c55 0 96 -34 96 -86c0 -57 -45 -85 -96 -85zM963 186v-186h-109v-220h-478c-224 0 -333 112 -333 332v196h186v-177
c0 -118 77 -165 187 -165h252v65h-24c-186 0 -314 90 -314 259v1c0 175 135 292 340 292h184v-397h109zM628 186h40v211h-40c-68 0 -123 -37 -123 -106v-1c0 -67 56 -104 123 -104z" />
    <glyph glyph-name="uniFED8" unicode="&#x642;" horiz-adv-x="693" arabic-form="medial" 
d="M311 667c-50 0 -95 28 -95 85c0 52 42 86 95 86c54 0 96 -34 96 -86c0 -57 -45 -85 -96 -85zM534 667c-50 0 -95 28 -95 85c0 52 41 86 95 86c55 0 96 -34 96 -86c0 -57 -45 -85 -96 -85zM604 186h109v-186h-119h-200h-394v186h96c-11 32 -17 66 -17 104v1
c0 175 136 292 340 292h185v-397zM377 186h40v211h-40c-67 0 -123 -37 -123 -106v-1c0 -67 56 -104 123 -104z" />
    <glyph glyph-name="uniFED7" unicode="&#x642;" horiz-adv-x="664" arabic-form="initial" 
d="M312 667c-50 0 -95 28 -95 85c0 52 42 86 95 86c54 0 96 -34 96 -86c0 -57 -45 -85 -96 -85zM535 838c55 0 96 -34 96 -86c0 -57 -45 -85 -96 -85c-50 0 -95 28 -95 85c0 52 41 86 95 86zM78 291c0 175 136 292 340 292h185v-583h-10h-200h-394v186h96
c-11 32 -17 66 -17 104v1zM376 186h40v211h-40c-67 0 -123 -37 -123 -106v-1c0 -67 56 -104 123 -104z" />
    <glyph glyph-name="uniFEDA" unicode="&#x643;" horiz-adv-x="917" arabic-form="final" 
d="M828 186h109v-186h-562c-230 0 -333 118 -333 332v174h186v-155c0 -114 70 -165 187 -165h227v625h186v-625zM563 598v-92h-255v105h165v4c0 16 -10 26 -26 26h-107c-11 24 -20 52 -26 79l53 66h115l-66 -65h40c70 0 107 -42 107 -123z" />
    <glyph glyph-name="uniFEDC" unicode="&#x643;" horiz-adv-x="761" arabic-form="medial" 
d="M672 186h109v-186h-781v186h484v72c0 65 -39 101 -100 101h-282c-29 41 -57 106 -58 185l142 267h227l-159 -266h106c207 0 312 -100 312 -321v-38z" />
    <glyph glyph-name="uniFEDB" unicode="&#x643;" horiz-adv-x="722" arabic-form="initial" 
d="M0 0v186h484v72c0 65 -39 101 -100 101h-282c-29 41 -57 106 -58 185l142 267h227l-159 -266h106c207 0 312 -100 312 -321v-224h-672z" />
    <glyph glyph-name="uniFB8F" unicode="&#x6a9;" horiz-adv-x="1042" arabic-form="final" 
d="M953 186h109v-186h-686c-230 0 -333 118 -333 332v174h186v-155c0 -114 70 -165 187 -165h348v72c0 65 -39 101 -100 101h-252c-28 41 -56 106 -57 185l142 268h227l-160 -267h76c207 0 313 -100 313 -321v-38z" />
    <glyph glyph-name="uniFB91" unicode="&#x6a9;" horiz-adv-x="761" arabic-form="medial" 
d="M672 186h109v-186h-781v186h484v72c0 65 -39 101 -100 101h-282c-29 41 -57 106 -58 185l142 267h227l-159 -266h106c207 0 312 -100 312 -321v-38z" />
    <glyph glyph-name="uniFB90" unicode="&#x6a9;" horiz-adv-x="722" arabic-form="initial" 
d="M0 0v186h484v72c0 65 -39 101 -100 101h-282c-29 41 -57 106 -58 185l142 267h227l-159 -266h106c207 0 312 -100 312 -321v-224h-672z" />
    <glyph glyph-name="uniFB93" unicode="&#x6af;" horiz-adv-x="1041" arabic-form="final" 
d="M410 815l-149 -272l-127 -1l150 273h126zM952 186h109v-186h-686c-230 0 -333 118 -333 332v174h186v-155c0 -114 70 -165 187 -165h348v72c0 65 -39 101 -100 101h-252c-28 41 -56 106 -57 185l142 268h227l-160 -267h76c207 0 313 -100 313 -321v-38z" />
    <glyph glyph-name="uniFB95" unicode="&#x6af;" horiz-adv-x="913" arabic-form="medial" 
d="M824 186h109v-186h-933v186h635v72c0 65 -39 101 -100 101h-282c-29 41 -57 106 -57 185l141 267h228l-160 -266h106c207 0 313 -100 313 -321v-38zM271 810l-149 -273h-127l150 273h126z" />
    <glyph glyph-name="uniFB94" unicode="&#x6af;" horiz-adv-x="874" arabic-form="initial" 
d="M-18 540l150 273h126l-149 -272zM-1 0v186h635v72c0 65 -39 101 -100 101h-282c-29 41 -57 106 -57 185l141 267h228l-160 -266h106c207 0 313 -100 313 -321v-224h-824z" />
    <glyph glyph-name="uniFEDE" unicode="&#x644;" horiz-adv-x="734" arabic-form="final" 
d="M754 186v-186h-109v-125h-269c-212 0 -333 119 -333 325v314h186v-292c0 -114 71 -161 176 -161h54v750h186v-625h109z" />
    <glyph glyph-name="uniFEE0" unicode="&#x644;" horiz-adv-x="374" arabic-form="medial" 
d="M280 186h114v-186h-394v186h94v625h186v-625z" />
    <glyph glyph-name="uniFEDF" unicode="&#x644;" horiz-adv-x="354" arabic-form="initial" 
d="M94 811h186v-811h-280v186h94v625z" />
    <glyph glyph-name="uniFEE2" unicode="&#x645;" horiz-adv-x="948" arabic-form="final" 
d="M968 186v-186h-128c-52 -71 -135 -113 -239 -113h-1c-147 0 -253 83 -287 214c-63 -8 -84 -65 -84 -143v-177h-186v205c0 186 99 295 269 302c33 139 140 226 288 226h1c178 0 297 -127 297 -319v-1v-8h70zM712 198v1c0 78 -44 129 -111 129h-1c-67 0 -113 -51 -113 -129
v-1c0 -75 46 -125 113 -125h1c67 0 111 50 111 125z" />
    <glyph glyph-name="uniFEE4" unicode="&#x645;" horiz-adv-x="707" arabic-form="medial" 
d="M727 186v-186h-133c-52 -71 -135 -113 -239 -113h-1c-104 0 -188 42 -240 113h-114v186h56v8v1c0 192 119 319 298 319h1c178 0 297 -127 297 -319v-1v-8h75zM466 198v1c0 78 -44 129 -111 129h-1c-67 0 -113 -51 -113 -129v-1c0 -75 46 -125 113 -125h1
c67 0 111 50 111 125z" />
    <glyph glyph-name="uniFEE3" unicode="&#x645;" horiz-adv-x="684" arabic-form="initial" 
d="M355 514c178 0 297 -127 297 -319v-1c0 -183 -119 -307 -297 -307h-1c-104 0 -188 42 -240 113h-114v186h56v8v1c0 192 119 319 298 319h1zM466 198v1c0 78 -44 129 -111 129h-1c-67 0 -113 -51 -113 -129v-1c0 -75 46 -125 113 -125h1c67 0 111 50 111 125z" />
    <glyph glyph-name="uniFEE6" unicode="&#x646;" horiz-adv-x="734" arabic-form="final" 
d="M347 601c-51 0 -97 28 -97 87c0 52 43 86 97 86s96 -34 96 -86c0 -59 -46 -87 -96 -87zM754 186v-186h-109v-125h-269c-212 0 -333 119 -333 325v314h186v-292c0 -114 71 -161 176 -161h54v453h186v-328h109z" />
    <glyph glyph-name="uniFEE8" unicode="&#x646;" horiz-adv-x="364" arabic-form="medial" 
d="M183 670c-51 0 -97 28 -97 87c0 52 43 86 97 86s96 -34 96 -86c0 -59 -46 -87 -96 -87zM0 0v186h89v397h186v-397h109v-186h-384z" />
    <glyph glyph-name="uniFEE7" unicode="&#x646;" horiz-adv-x="335" arabic-form="initial" 
d="M183 670c-51 0 -97 28 -97 87c0 52 43 86 97 86s96 -34 96 -86c0 -59 -46 -87 -96 -87zM0 0v186h89v397h186v-583h-275z" />
    <glyph glyph-name="uniFB9F" unicode="&#x6ba;" horiz-adv-x="734" arabic-form="final" 
d="M754 186v-186h-109v-125h-269c-212 0 -333 119 -333 325v314h186v-292c0 -114 71 -161 176 -161h54v453h186v-328h109z" />
    <glyph glyph-name="uniFEE9" unicode="&#x647;" horiz-adv-x="884" arabic-form="isolated" 
d="M417 702c242 0 424 -154 424 -432c0 -67 -11 -163 -32 -270h-789l34 186h102c-1 19 -2 39 -2 55c0 134 92 223 224 223c128 0 225 -87 225 -217c0 -18 -1 -40 -3 -61h65c3 32 5 52 5 80c0 172 -117 265 -283 265c-74 0 -145 -21 -216 -60l-60 154c99 48 216 77 306 77z
M377 307c-38 0 -62 -30 -62 -76c0 -14 0 -30 2 -45h123c2 14 2 30 2 45c0 46 -26 76 -65 76z" />
    <glyph glyph-name="uniFEEA" unicode="&#x647;" horiz-adv-x="659" arabic-form="final" 
d="M570 186h109v-186h-296h-23c-189 0 -315 116 -315 290v1c0 174 135 291 338 292v50h187v-447zM383 186v211h-40c-67 0 -123 -37 -123 -106v-1c0 -67 56 -104 123 -104h40z" />
    <glyph glyph-name="uniFEEC" unicode="&#x647;" horiz-adv-x="886" arabic-form="medial" 
d="M783 186h123v-186h-906v186h102c-1 19 -2 39 -2 55c0 134 92 223 223 223c129 0 226 -87 226 -217c0 -18 -1 -40 -3 -61h65c3 32 4 52 4 80c0 172 -117 265 -282 265c-75 0 -145 -21 -216 -60l-60 154c98 48 216 77 306 77c241 0 424 -154 424 -432c0 -24 -1 -53 -4 -84z
M260 231c0 -14 1 -30 2 -45h124c2 14 2 30 2 45c0 46 -26 76 -66 76c-37 0 -62 -30 -62 -76z" />
    <glyph glyph-name="uniFEEB" unicode="&#x647;" horiz-adv-x="829" arabic-form="initial" 
d="M363 702c241 0 424 -154 424 -432c0 -67 -11 -163 -32 -270h-755v186h102c-1 19 -2 39 -2 55c0 134 92 223 223 223c129 0 226 -87 226 -217c0 -18 -1 -40 -3 -61h65c3 32 4 52 4 80c0 172 -117 265 -282 265c-75 0 -145 -21 -216 -60l-60 154c98 48 216 77 306 77z
M260 231c0 -14 1 -30 2 -45h124c2 14 2 30 2 45c0 46 -26 76 -66 76c-37 0 -62 -30 -62 -76z" />
    <glyph glyph-name="uniFBA5" unicode="&#x6c0;" horiz-adv-x="658" arabic-form="final" 
d="M581 795v-115h-255v96c0 96 50 146 147 146h76v-80h-67c-26 0 -39 -13 -39 -38v-9h138zM569 186h109v-186h-296h-23c-189 0 -315 116 -315 290v1c0 174 135 291 338 292v50h187v-447zM382 186v211h-40c-67 0 -123 -37 -123 -106v-1c0 -67 56 -104 123 -104h40z" />
    <glyph glyph-name="uniFBA7" unicode="&#x6c1;" horiz-adv-x="644" arabic-form="final" 
d="M369 0v408h-39c-68 0 -99 -37 -99 -103l1 -171h-187v137c0 212 106 312 319 312h191v-397h109v-186h-295z" />
    <glyph glyph-name="uniFBA9" unicode="&#x6c1;" horiz-adv-x="967" arabic-form="medial" 
d="M377 -220c-139 0 -254 67 -269 210v10h-108v186h99v287h186v-476c0 -69 39 -101 92 -101h42v290h568v-186h-382v-220h-228zM803 -221l-138 1l53 175l197 -1z" />
    <glyph glyph-name="uniFBA8" unicode="&#x6c1;" horiz-adv-x="445" arabic-form="initial" 
d="M0 0v186h198v397h187v-583h-385zM215 -221l-138 1l53 175l197 -1z" />
    <glyph glyph-name="uni06C2.fina" unicode="&#x6c2;" horiz-adv-x="644" 
d="M219 636v96c0 96 50 146 147 146h76v-80h-67c-26 0 -39 -13 -39 -38v-9h138v-115h-255zM369 0v408h-39c-68 0 -99 -37 -99 -103l1 -171h-187v137c0 212 106 312 319 312h191v-397h109v-186h-295z" />
    <glyph glyph-name="uniFBAB" unicode="&#x6be;" horiz-adv-x="940" arabic-form="final" 
d="M837 186h123v-186h-940l34 186h102c-1 19 -2 39 -2 55c0 134 92 223 224 223c128 0 225 -87 225 -217c0 -18 -1 -40 -3 -61h65c3 32 5 52 5 80c0 172 -117 265 -283 265c-74 0 -145 -21 -216 -60l-60 154c99 48 216 77 306 77c242 0 424 -154 424 -432
c0 -24 -1 -53 -4 -84zM377 307c-38 0 -62 -30 -62 -76c0 -14 0 -30 2 -45h123c2 14 2 30 2 45c0 46 -26 76 -65 76z" />
    <glyph glyph-name="uniFBAD" unicode="&#x6be;" horiz-adv-x="886" arabic-form="medial" 
d="M783 186h123v-186h-906v186h102c-1 19 -2 39 -2 55c0 134 92 223 223 223c129 0 226 -87 226 -217c0 -18 -1 -40 -3 -61h65c3 32 4 52 4 80c0 172 -117 265 -282 265c-75 0 -145 -21 -216 -60l-60 154c98 48 216 77 306 77c241 0 424 -154 424 -432c0 -24 -1 -53 -4 -84z
M260 231c0 -14 1 -30 2 -45h124c2 14 2 30 2 45c0 46 -26 76 -66 76c-37 0 -62 -30 -62 -76z" />
    <glyph glyph-name="uniFBAC" unicode="&#x6be;" horiz-adv-x="829" arabic-form="initial" 
d="M363 702c241 0 424 -154 424 -432c0 -67 -11 -163 -32 -270h-755v186h102c-1 19 -2 39 -2 55c0 134 92 223 223 223c129 0 226 -87 226 -217c0 -18 -1 -40 -3 -61h65c3 32 4 52 4 80c0 172 -117 265 -282 265c-75 0 -145 -21 -216 -60l-60 154c98 48 216 77 306 77z
M260 231c0 -14 1 -30 2 -45h124c2 14 2 30 2 45c0 46 -26 76 -66 76c-37 0 -62 -30 -62 -76z" />
    <glyph glyph-name="uniFE94" unicode="&#x629;" horiz-adv-x="659" arabic-form="final" 
d="M248 705c-50 0 -95 28 -95 85c0 52 42 86 95 86c54 0 96 -34 96 -86c0 -57 -45 -85 -96 -85zM471 705c-50 0 -95 28 -95 85c0 52 41 86 95 86c55 0 96 -34 96 -86c0 -57 -45 -85 -96 -85zM570 186h109v-186h-296h-23c-189 0 -315 116 -315 290v1c0 174 135 291 338 292
v50h187v-447zM383 186v211h-40c-67 0 -123 -37 -123 -106v-1c0 -67 56 -104 123 -104h40z" />
    <glyph glyph-name="uni06C3.fina" unicode="&#x6c3;" horiz-adv-x="644" 
d="M236 668c-50 0 -95 28 -95 85c0 52 42 86 95 86c54 0 96 -34 96 -86c0 -57 -45 -85 -96 -85zM459 668c-50 0 -95 28 -95 85c0 52 41 86 95 86c55 0 96 -34 96 -86c0 -57 -45 -85 -96 -85zM369 0v408h-39c-68 0 -99 -37 -99 -103l1 -171h-187v137c0 212 106 312 319 312
h191v-397h109v-186h-295z" />
    <glyph glyph-name="uniFEEE" unicode="&#x648;" horiz-adv-x="658" arabic-form="final" 
d="M678 186v-186h-112c-19 -159 -109 -220 -270 -220c-51 0 -100 3 -152 12l-31 175c56 -10 120 -15 182 -15c49 0 80 10 87 48h-23c-189 0 -315 116 -315 290v1c0 175 136 292 340 292h176h9h1v-397h108zM382 186v211h-40c-67 0 -123 -37 -123 -106v-1
c0 -67 56 -104 123 -104h40z" />
    <glyph glyph-name="uniFE86" unicode="&#x624;" horiz-adv-x="658" arabic-form="final" 
d="M476 749v-115h-255v96c0 96 50 146 147 146h76v-80h-67c-26 0 -39 -13 -39 -38v-9h138zM678 186v-186h-112c-19 -159 -109 -220 -270 -220c-51 0 -100 3 -152 12l-31 175c56 -10 120 -15 182 -15c49 0 80 10 87 48h-23c-189 0 -315 116 -315 290v1c0 175 136 292 340 292
h176h9h1v-397h108zM382 186v211h-40c-67 0 -123 -37 -123 -106v-1c0 -67 56 -104 123 -104h40z" />
    <glyph glyph-name="uniFEF0" unicode="&#x649;" horiz-adv-x="1122" arabic-form="final" 
d="M1033 186h109v-186h-295v407h-43c-68 0 -98 -36 -98 -102v-430h-330c-224 0 -333 112 -333 332v196h186v-177c0 -118 77 -165 187 -165h103v210c0 212 106 312 319 312h195v-397z" />
    <glyph glyph-name="uniFEF2" unicode="&#x64a;" horiz-adv-x="1122" arabic-form="final" 
d="M1033 186h109v-186h-295v407h-43c-68 0 -98 -36 -98 -102v-430h-330c-224 0 -333 112 -333 332v196h186v-177c0 -118 77 -165 187 -165h103v210c0 212 106 312 319 312h195v-397zM364 -210c54 0 96 -33 96 -85c0 -57 -45 -86 -96 -86c-50 0 -95 29 -95 86
c0 52 42 85 95 85zM587 -210c55 0 96 -33 96 -85c0 -57 -45 -86 -96 -86c-50 0 -95 29 -95 86c0 52 41 85 95 85z" />
    <glyph glyph-name="uniFEF4" unicode="&#x64a;" horiz-adv-x="494" arabic-form="medial" 
d="M0 0v186h154v397h186v-397h174v-186h-514zM143 -256c-50 0 -95 29 -95 86c0 52 42 85 95 85c54 0 96 -33 96 -85c0 -57 -45 -86 -96 -86zM366 -256c-50 0 -95 29 -95 86c0 52 41 85 95 85c55 0 96 -33 96 -85c0 -57 -45 -86 -96 -86z" />
    <glyph glyph-name="uniFEF3" unicode="&#x64a;" horiz-adv-x="445" arabic-form="initial" 
d="M-1 0v186h198v397h187v-583h-385zM79 -256c-50 0 -95 29 -95 86c0 52 42 85 95 85c54 0 96 -33 96 -85c0 -57 -45 -86 -96 -86zM302 -256c-50 0 -95 29 -95 86c0 52 41 85 95 85c55 0 96 -33 96 -85c0 -57 -45 -86 -96 -86z" />
    <glyph glyph-name="uniFE8A" unicode="&#x626;" horiz-adv-x="1122" arabic-form="final" 
d="M935 750v-115h-255v96c0 96 50 146 147 146h76v-80h-67c-26 0 -39 -13 -39 -38v-9h138zM1033 186h109v-186h-295v407h-43c-68 0 -98 -36 -98 -102v-430h-330c-224 0 -333 112 -333 332v196h186v-177c0 -118 77 -165 187 -165h103v210c0 212 106 312 319 312h195v-397z
" />
    <glyph glyph-name="uniFE8C" unicode="&#x626;" horiz-adv-x="364" arabic-form="medial" 
d="M82 648v66c0 83 53 115 127 115h46v-65h-45c-19 0 -32 -12 -32 -30v-8h104v-78h-200zM0 0v186h89v397h186v-397h109v-186h-384z" />
    <glyph glyph-name="uniFE8B" unicode="&#x626;" horiz-adv-x="335" arabic-form="initial" 
d="M77 648v66c0 83 53 115 127 115h46v-65h-45c-19 0 -32 -12 -32 -30v-8h104v-78h-200zM0 0v186h89v397h186v-583h-275z" />
    <glyph glyph-name="uniFBFD" unicode="&#x6cc;" horiz-adv-x="1122" arabic-form="final" 
d="M1033 186h109v-186h-295v407h-43c-68 0 -98 -36 -98 -102v-430h-330c-224 0 -333 112 -333 332v196h186v-177c0 -118 77 -165 187 -165h103v210c0 212 106 312 319 312h195v-397z" />
    <glyph glyph-name="uniFBFF" unicode="&#x6cc;" horiz-adv-x="494" arabic-form="medial" 
d="M0 0v186h154v397h186v-397h174v-186h-514zM143 -256c-50 0 -95 29 -95 86c0 52 42 85 95 85c54 0 96 -33 96 -85c0 -57 -45 -86 -96 -86zM366 -256c-50 0 -95 29 -95 86c0 52 41 85 95 85c55 0 96 -33 96 -85c0 -57 -45 -86 -96 -86z" />
    <glyph glyph-name="uniFBFE" unicode="&#x6cc;" horiz-adv-x="445" arabic-form="initial" 
d="M-1 0v186h198v397h187v-583h-385zM79 -256c-50 0 -95 29 -95 86c0 52 42 85 95 85c54 0 96 -33 96 -85c0 -57 -45 -86 -96 -86zM302 -256c-50 0 -95 29 -95 86c0 52 41 85 95 85c55 0 96 -33 96 -85c0 -57 -45 -86 -96 -86z" />
    <glyph glyph-name="uniFBAF" unicode="&#x6d2;" horiz-adv-x="831" arabic-form="final" 
d="M309 -220c-205 0 -289 85 -289 268v138h831v-186h-649v-10c0 -46 26 -59 74 -59h319v-151h-286z" />
    <glyph glyph-name="uniFBB1" unicode="&#x6d3;" horiz-adv-x="831" arabic-form="final" 
d="M276 279v96c0 96 50 146 147 146h76v-80h-67c-26 0 -39 -13 -39 -38v-9h138v-115h-255zM309 -220c-205 0 -289 85 -289 268v138h831v-186h-649v-10c0 -46 26 -59 74 -59h319v-151h-286z" />
    <glyph glyph-name="uni06D5.fina" unicode="&#x6d5;" horiz-adv-x="659" 
d="M570 186h109v-186h-296h-23c-189 0 -315 116 -315 290v1c0 174 135 291 338 292v50h187v-447zM383 186v211h-40c-67 0 -123 -37 -123 -106v-1c0 -67 56 -104 123 -104h40z" />
    <glyph glyph-name=".notdef" horiz-adv-x="500" 
 />
    <glyph glyph-name=".null" horiz-adv-x="500" 
 />
    <glyph glyph-name="CR" unicode="&#xd;" horiz-adv-x="500" 
 />
    <glyph glyph-name="space" unicode=" " horiz-adv-x="163" 
 />
    <glyph glyph-name="A" unicode="A" horiz-adv-x="845" 
d="M640 0l-64 187h-307l-64 -187h-192l296 811h226l298 -811h-193zM521 347l-99 282l-98 -282h197z" />
    <glyph glyph-name="Aacute" unicode="&#xc1;" horiz-adv-x="845" 
d="M650 1020l-177 -154h-129l77 154h229zM640 0l-64 187h-307l-64 -187h-192l296 811h226l298 -811h-193zM521 347l-99 282l-98 -282h197z" />
    <glyph glyph-name="Abreve" unicode="&#x102;" horiz-adv-x="845" 
d="M419 861c-104 0 -203 31 -213 156h139c6 -35 25 -65 75 -65c49 0 68 30 75 65h139c-10 -125 -109 -156 -215 -156zM640 0l-64 187h-307l-64 -187h-192l296 811h226l298 -811h-193zM521 347l-99 282l-98 -282h197z" />
    <glyph glyph-name="uni01CD" unicode="&#x1cd;" horiz-adv-x="845" 
d="M492 863h-146l-141 154h169l45 -67l46 67h169zM640 0l-64 187h-307l-64 -187h-192l296 811h226l298 -811h-193zM521 347l-99 282l-98 -282h197z" />
    <glyph glyph-name="Acircumflex" unicode="&#xc2;" horiz-adv-x="845" 
d="M419 933l-45 -67h-169l141 154h146l142 -154h-169zM640 0l-64 187h-307l-64 -187h-192l296 811h226l298 -811h-193zM521 347l-99 282l-98 -282h197z" />
    <glyph glyph-name="Adieresis" unicode="&#xc4;" horiz-adv-x="845" 
d="M312 867c-49 0 -90 25 -90 80c0 48 38 78 90 78c51 0 89 -30 89 -78c0 -55 -41 -80 -89 -80zM526 867c-48 0 -90 25 -90 80c0 48 39 78 90 78c52 0 90 -30 90 -78c0 -55 -41 -80 -90 -80zM640 0l-64 187h-307l-64 -187h-192l296 811h226l298 -811h-193zM521 347l-99 282
l-98 -282h197z" />
    <glyph glyph-name="Agrave" unicode="&#xc0;" horiz-adv-x="845" 
d="M495 866h-128l-178 154h229zM640 0l-64 187h-307l-64 -187h-192l296 811h226l298 -811h-193zM521 347l-99 282l-98 -282h197z" />
    <glyph glyph-name="Amacron" unicode="&#x100;" horiz-adv-x="845" 
d="M566 981v-106h-293v106h293zM640 0l-64 187h-307l-64 -187h-192l296 811h226l298 -811h-193zM521 347l-99 282l-98 -282h197z" />
    <glyph glyph-name="Aogonek" unicode="&#x104;" horiz-adv-x="845" 
d="M825 -129c16 0 33 3 46 6v-81c-21 -5 -55 -10 -93 -10c-88 0 -132 33 -132 92c0 52 47 93 114 122h-120l-64 187h-307l-64 -187h-192l296 811h226l298 -811c-25 -16 -73 -50 -73 -86c0 -34 28 -43 65 -43zM521 347l-99 282l-98 -282h197z" />
    <glyph glyph-name="Aring" unicode="&#xc5;" horiz-adv-x="845" 
d="M422 864c-69 0 -126 55 -126 125c0 69 56 123 125 123c70 0 126 -55 126 -124c0 -70 -55 -124 -125 -124zM421 1030c-24 0 -43 -18 -42 -42c-1 -24 18 -43 43 -43s43 19 43 43s-18 42 -44 42zM640 0l-64 187h-307l-64 -187h-192l296 811h226l298 -811h-193zM521 347
l-99 282l-98 -282h197z" />
    <glyph glyph-name="Atilde" unicode="&#xc3;" horiz-adv-x="845" 
d="M364 900c-23 0 -31 -11 -35 -38h-122c3 93 23 155 116 155c58 0 107 -39 154 -39c22 0 29 13 35 38h121c-2 -93 -21 -154 -115 -154c-57 0 -110 38 -154 38zM640 0l-64 187h-307l-64 -187h-192l296 811h226l298 -811h-193zM521 347l-99 282l-98 -282h197z" />
    <glyph glyph-name="AE" unicode="&#xc6;" horiz-adv-x="1139" 
d="M731 174h368v-174h-555v152h-244l-96 -152h-204l527 811h570v-174h-366v-143h334v-162h-334v-158zM544 561l-159 -255h159v255z" />
    <glyph glyph-name="B" unicode="B" horiz-adv-x="731" 
d="M528 429c113 -16 179 -88 179 -194v-3c0 -176 -133 -232 -304 -232h-352v811h361c194 0 259 -71 259 -196v-2c0 -103 -55 -163 -143 -184zM389 638h-152v-157h148c63 0 100 23 100 76v4c0 57 -33 77 -96 77zM517 262v4c0 52 -38 82 -105 82h-175v-174h178
c67 0 102 32 102 88z" />
    <glyph glyph-name="C" unicode="C" horiz-adv-x="774" 
d="M468 -14c-257 0 -429 167 -429 418v2c0 251 171 419 429 419c110 0 195 -30 269 -75l-72 -153c-69 40 -134 54 -197 54c-135 0 -239 -91 -239 -245v-2c0 -145 104 -243 239 -243c63 0 128 13 197 53l72 -153c-73 -44 -156 -75 -269 -75z" />
    <glyph glyph-name="Cacute" unicode="&#x106;" horiz-adv-x="774" 
d="M377 867l77 154h229l-177 -154h-129zM468 -14c-257 0 -429 167 -429 418v2c0 251 171 419 429 419c110 0 195 -30 269 -75l-72 -153c-69 40 -134 54 -197 54c-135 0 -239 -91 -239 -245v-2c0 -145 104 -243 239 -243c63 0 128 13 197 53l72 -153
c-73 -44 -156 -75 -269 -75z" />
    <glyph glyph-name="Ccaron" unicode="&#x10c;" horiz-adv-x="774" 
d="M238 1018h169l45 -67l46 67h169l-142 -154h-146zM468 -14c-257 0 -429 167 -429 418v2c0 251 171 419 429 419c110 0 195 -30 269 -75l-72 -153c-69 40 -134 54 -197 54c-135 0 -239 -91 -239 -245v-2c0 -145 104 -243 239 -243c63 0 128 13 197 53l72 -153
c-73 -44 -156 -75 -269 -75z" />
    <glyph glyph-name="Ccedilla" unicode="&#xc7;" horiz-adv-x="774" 
d="M737 61c-70 -42 -149 -72 -255 -75l-24 -32h17c70 0 107 -37 107 -87v-2c0 -52 -46 -85 -115 -85c-38 0 -65 7 -76 12l-29 75c28 -10 82 -18 105 -18c29 0 37 11 37 22v1c0 10 -8 21 -38 21c-10 0 -35 -1 -57 -6l-34 38l52 62c-234 17 -388 179 -388 417v2
c0 251 171 419 429 419c110 0 195 -30 269 -75l-72 -153c-69 40 -134 54 -197 54c-135 0 -239 -91 -239 -245v-2c0 -145 104 -243 239 -243c63 0 128 13 197 53z" />
    <glyph glyph-name="Ccircumflex" unicode="&#x108;" horiz-adv-x="774" 
d="M238 867l141 154h146l142 -154h-169l-46 67l-45 -67h-169zM468 -14c-257 0 -429 167 -429 418v2c0 251 171 419 429 419c110 0 195 -30 269 -75l-72 -153c-69 40 -134 54 -197 54c-135 0 -239 -91 -239 -245v-2c0 -145 104 -243 239 -243c63 0 128 13 197 53l72 -153
c-73 -44 -156 -75 -269 -75z" />
    <glyph glyph-name="Cdotaccent" unicode="&#x10a;" horiz-adv-x="774" 
d="M453 867c-49 0 -90 25 -90 80c0 48 38 78 90 78c51 0 89 -30 89 -78c0 -55 -41 -80 -89 -80zM468 -14c-257 0 -429 167 -429 418v2c0 251 171 419 429 419c110 0 195 -30 269 -75l-72 -153c-69 40 -134 54 -197 54c-135 0 -239 -91 -239 -245v-2
c0 -145 104 -243 239 -243c63 0 128 13 197 53l72 -153c-73 -44 -156 -75 -269 -75z" />
    <glyph glyph-name="D" unicode="D" horiz-adv-x="805" 
d="M343 811c289 0 423 -151 423 -399v-2c0 -256 -135 -410 -423 -410h-292v811h292zM575 410v2c0 149 -78 225 -236 225h-101v-463h101c157 0 236 79 236 236z" />
    <glyph glyph-name="Eth" unicode="&#xd0;" horiz-adv-x="805" 
d="M343 811c289 0 423 -151 423 -399v-2c0 -256 -135 -410 -423 -410h-292v327h-47v153h47v331h292zM575 410v2c0 149 -78 225 -236 225h-101v-157h110v-153h-110v-153h101c157 0 236 79 236 236z" />
    <glyph glyph-name="Dcaron" unicode="&#x10e;" horiz-adv-x="805" 
d="M432 863h-146l-141 154h169l45 -67l46 67h169zM343 811c289 0 423 -151 423 -399v-2c0 -256 -135 -410 -423 -410h-292v811h292zM575 410v2c0 149 -78 225 -236 225h-101v-463h101c157 0 236 79 236 236z" />
    <glyph glyph-name="Dcroat" unicode="&#x110;" horiz-adv-x="805" 
d="M343 811c289 0 423 -151 423 -399v-2c0 -256 -135 -410 -423 -410h-292v327h-47v153h47v331h292zM575 410v2c0 149 -78 225 -236 225h-101v-157h110v-153h-110v-153h101c157 0 236 79 236 236z" />
    <glyph glyph-name="E" unicode="E" horiz-adv-x="646" 
d="M51 0v811h553v-174h-366v-143h334v-162h-334v-158h368v-174h-555z" />
    <glyph glyph-name="Eacute" unicode="&#xc9;" horiz-adv-x="646" 
d="M260 866l77 154h229l-177 -154h-129zM51 0v811h553v-174h-366v-143h334v-162h-334v-158h368v-174h-555z" />
    <glyph glyph-name="Ebreve" unicode="&#x114;" horiz-adv-x="646" 
d="M335 861c-104 0 -203 31 -213 156h139c6 -35 25 -65 75 -65c49 0 68 30 75 65h139c-10 -125 -109 -156 -215 -156zM51 0v811h553v-174h-366v-143h334v-162h-334v-158h368v-174h-555z" />
    <glyph glyph-name="Ecaron" unicode="&#x11a;" horiz-adv-x="646" 
d="M121 1017h169l45 -67l46 67h169l-142 -154h-146zM51 0v811h553v-174h-366v-143h334v-162h-334v-158h368v-174h-555z" />
    <glyph glyph-name="Ecircumflex" unicode="&#xca;" horiz-adv-x="646" 
d="M121 866l141 154h146l142 -154h-169l-46 67l-45 -67h-169zM51 0v811h553v-174h-366v-143h334v-162h-334v-158h368v-174h-555z" />
    <glyph glyph-name="Edieresis" unicode="&#xcb;" horiz-adv-x="646" 
d="M228 867c-49 0 -90 25 -90 80c0 48 38 78 90 78c51 0 89 -30 89 -78c0 -55 -41 -80 -89 -80zM442 867c-48 0 -90 25 -90 80c0 48 39 78 90 78c52 0 90 -30 90 -78c0 -55 -41 -80 -90 -80zM51 0v811h553v-174h-366v-143h334v-162h-334v-158h368v-174h-555z" />
    <glyph glyph-name="Edotaccent" unicode="&#x116;" horiz-adv-x="646" 
d="M336 867c-49 0 -90 25 -90 80c0 48 38 78 90 78c51 0 89 -30 89 -78c0 -55 -41 -80 -89 -80zM51 0v811h553v-174h-366v-143h334v-162h-334v-158h368v-174h-555z" />
    <glyph glyph-name="Egrave" unicode="&#xc8;" horiz-adv-x="646" 
d="M411 866h-128l-178 154h229zM51 0v811h553v-174h-366v-143h334v-162h-334v-158h368v-174h-555z" />
    <glyph glyph-name="Emacron" unicode="&#x112;" horiz-adv-x="646" 
d="M168 866v111h335v-111h-335zM51 0v811h553v-174h-366v-143h334v-162h-334v-158h368v-174h-555z" />
    <glyph glyph-name="Eogonek" unicode="&#x118;" horiz-adv-x="646" 
d="M598 -129c16 0 33 3 46 6v-81c-21 -5 -55 -10 -93 -10c-88 0 -132 33 -132 92c0 52 47 93 114 122h-482v811h553v-174h-366v-143h334v-162h-334v-158h368v-174c-25 -16 -73 -50 -73 -86c0 -34 28 -43 65 -43z" />
    <glyph glyph-name="uni1EBC" unicode="&#x1ebc;" horiz-adv-x="646" 
d="M123 862c3 93 23 155 116 155c58 0 107 -39 154 -39c22 0 29 13 35 38h121c-2 -93 -21 -154 -115 -154c-57 0 -110 38 -154 38c-23 0 -31 -11 -35 -38h-122zM51 0v811h553v-174h-366v-143h334v-162h-334v-158h368v-174h-555z" />
    <glyph glyph-name="F" unicode="F" horiz-adv-x="634" 
d="M51 0v811h551v-174h-364v-143h330v-162h-330v-332h-187z" />
    <glyph glyph-name="G" unicode="G" horiz-adv-x="838" 
d="M453 460h330v-393c-81 -52 -214 -80 -317 -80c-256 0 -427 170 -427 418v2c0 250 171 418 428 418c107 0 198 -23 300 -75l-72 -164c-58 40 -137 65 -224 65c-133 0 -238 -68 -238 -244v-2c0 -174 105 -244 239 -244c48 0 93 10 135 31v119h-154v149z" />
    <glyph glyph-name="Gbreve" unicode="&#x11e;" horiz-adv-x="838" 
d="M466 862c-104 0 -203 31 -213 156h139c6 -35 25 -65 75 -65c49 0 68 30 75 65h139c-10 -125 -109 -156 -215 -156zM453 460h330v-393c-81 -52 -214 -80 -317 -80c-256 0 -427 170 -427 418v2c0 250 171 418 428 418c107 0 198 -23 300 -75l-72 -164
c-58 40 -137 65 -224 65c-133 0 -238 -68 -238 -244v-2c0 -174 105 -244 239 -244c48 0 93 10 135 31v119h-154v149z" />
    <glyph glyph-name="Gcircumflex" unicode="&#x11c;" horiz-adv-x="838" 
d="M465 938l-48 -71h-167l141 154h148l142 -154h-167zM453 460h330v-393c-81 -52 -214 -80 -317 -80c-256 0 -427 170 -427 418v2c0 250 171 418 428 418c107 0 198 -23 300 -75l-72 -164c-58 40 -137 65 -224 65c-133 0 -238 -68 -238 -244v-2c0 -174 105 -244 239 -244
c48 0 93 10 135 31v119h-154v149z" />
    <glyph glyph-name="uni0122" unicode="&#x122;" horiz-adv-x="838" 
d="M453 460h330v-393c-81 -52 -214 -80 -317 -80c-256 0 -427 170 -427 418v2c0 250 171 418 428 418c107 0 198 -23 300 -75l-72 -164c-58 40 -137 65 -224 65c-133 0 -238 -68 -238 -244v-2c0 -174 105 -244 239 -244c48 0 93 10 135 31v119h-154v149zM286 -220l61 174
h170l-105 -174h-126z" />
    <glyph glyph-name="Gdotaccent" unicode="&#x120;" horiz-adv-x="838" 
d="M467 868c-49 0 -90 25 -90 80c0 48 38 78 90 78c51 0 89 -30 89 -78c0 -55 -41 -80 -89 -80zM453 460h330v-393c-81 -52 -214 -80 -317 -80c-256 0 -427 170 -427 418v2c0 250 171 418 428 418c107 0 198 -23 300 -75l-72 -164c-58 40 -137 65 -224 65
c-133 0 -238 -68 -238 -244v-2c0 -174 105 -244 239 -244c48 0 93 10 135 31v119h-154v149z" />
    <glyph glyph-name="H" unicode="H" horiz-adv-x="789" 
d="M51 0v811h187v-312h313v312h187v-811h-187v325h-313v-325h-187z" />
    <glyph glyph-name="Hbar" unicode="&#x126;" horiz-adv-x="789" 
d="M793 709v-104h-55v-605h-187v325h-313v-325h-187v605h-55v104h55v102h187v-102h313v102h187v-102h55zM551 499v106h-313v-106h313z" />
    <glyph glyph-name="Hcircumflex" unicode="&#x124;" horiz-adv-x="789" 
d="M180 866l141 154h146l142 -154h-169l-46 67l-45 -67h-169zM51 0v811h187v-312h313v312h187v-811h-187v325h-313v-325h-187z" />
    <glyph glyph-name="I" unicode="I" horiz-adv-x="289" 
d="M51 0v811h187v-811h-187z" />
    <glyph glyph-name="IJ" unicode="&#x132;" horiz-adv-x="839" 
d="M51 0v811h187v-811h-187zM533 -13c-111 0 -197 31 -242 65l43 166c45 -28 105 -48 156 -48c65 0 111 32 111 112v529h186v-545c0 -192 -97 -279 -254 -279z" />
    <glyph glyph-name="Iacute" unicode="&#xcd;" horiz-adv-x="289" 
d="M69 866l77 154h229l-177 -154h-129zM51 0v811h187v-811h-187z" />
    <glyph glyph-name="Ibreve" unicode="&#x12c;" horiz-adv-x="289" 
d="M144 861c-104 0 -203 31 -213 156h139c6 -35 25 -65 75 -65c49 0 68 30 75 65h139c-10 -125 -109 -156 -215 -156zM51 0v811h187v-811h-187z" />
    <glyph glyph-name="uni01CF" unicode="&#x1cf;" horiz-adv-x="289" 
d="M-69 1017h169l45 -67l46 67h169l-142 -154h-146zM51 0v811h187v-811h-187z" />
    <glyph glyph-name="Icircumflex" unicode="&#xce;" horiz-adv-x="289" 
d="M-70 866l141 154h146l142 -154h-169l-46 67l-45 -67h-169zM51 0v811h187v-811h-187z" />
    <glyph glyph-name="Idieresis" unicode="&#xcf;" horiz-adv-x="289" 
d="M38 867c-49 0 -90 25 -90 80c0 48 38 78 90 78c51 0 89 -30 89 -78c0 -55 -41 -80 -89 -80zM252 867c-48 0 -90 25 -90 80c0 48 39 78 90 78c52 0 90 -30 90 -78c0 -55 -41 -80 -90 -80zM51 0v811h187v-811h-187z" />
    <glyph glyph-name="Idotaccent" unicode="&#x130;" horiz-adv-x="289" 
d="M145 867c-49 0 -90 25 -90 80c0 48 38 78 90 78c51 0 89 -30 89 -78c0 -55 -41 -80 -89 -80zM51 0v811h187v-811h-187z" />
    <glyph glyph-name="uni1ECA" unicode="&#x1eca;" horiz-adv-x="289" 
d="M51 0v811h187v-811h-187zM144 -198c-48 0 -90 25 -90 80c0 47 38 78 90 78s90 -31 90 -78c0 -55 -41 -80 -90 -80z" />
    <glyph glyph-name="Igrave" unicode="&#xcc;" horiz-adv-x="289" 
d="M220 866h-128l-178 154h229zM51 0v811h187v-811h-187z" />
    <glyph glyph-name="Imacron" unicode="&#x12a;" horiz-adv-x="289" 
d="M-23 866v111h335v-111h-335zM51 0v811h187v-811h-187z" />
    <glyph glyph-name="Iogonek" unicode="&#x12e;" horiz-adv-x="289" 
d="M230 -129c16 0 33 3 46 6v-81c-21 -5 -55 -10 -93 -10c-88 0 -132 33 -132 92c0 52 47 93 114 122h-114v811h187v-811c-25 -16 -73 -50 -73 -86c0 -34 28 -43 65 -43z" />
    <glyph glyph-name="Itilde" unicode="&#x128;" horiz-adv-x="289" 
d="M-68 862c3 93 23 155 116 155c58 0 107 -39 154 -39c22 0 29 13 35 38h121c-2 -93 -21 -154 -115 -154c-57 0 -110 38 -154 38c-23 0 -31 -11 -35 -38h-122zM51 0v811h187v-811h-187z" />
    <glyph glyph-name="J" unicode="J" horiz-adv-x="550" 
d="M244 -13c-111 0 -197 31 -242 65l43 166c45 -28 105 -48 156 -48c65 0 111 32 111 112v529h186v-545c0 -192 -97 -279 -254 -279z" />
    <glyph glyph-name="Jcircumflex" unicode="&#x134;" horiz-adv-x="550" 
d="M196 866l141 154h146l142 -154h-169l-46 67l-45 -67h-169zM244 -13c-111 0 -197 31 -242 65l43 166c45 -28 105 -48 156 -48c65 0 111 32 111 112v529h186v-545c0 -192 -97 -279 -254 -279z" />
    <glyph glyph-name="K" unicode="K" horiz-adv-x="741" 
d="M434 409l299 -409h-219l-276 397v-397h-187v811h187v-396l281 396h213z" />
    <glyph glyph-name="uni0136" unicode="&#x136;" horiz-adv-x="741" 
d="M434 409l299 -409h-219l-276 397v-397h-187v811h187v-396l281 396h213zM266 -270v126l211 106v-171z" />
    <glyph glyph-name="L" unicode="L" horiz-adv-x="617" 
d="M51 0v811h187v-637h359v-174h-546z" />
    <glyph glyph-name="Lacute" unicode="&#x139;" horiz-adv-x="617" 
d="M73 866l77 154h229l-177 -154h-129zM51 0v811h187v-637h359v-174h-546z" />
    <glyph glyph-name="Lcaron" unicode="&#x13d;" horiz-adv-x="617" 
d="M51 0v811h187v-637h359v-174h-546zM351 559l42 252h153l-87 -252h-108z" />
    <glyph glyph-name="uni013B" unicode="&#x13b;" horiz-adv-x="617" 
d="M51 0v811h187v-637h359v-174h-546zM216 -270v126l211 106v-171z" />
    <glyph glyph-name="Ldot" unicode="&#x13f;" horiz-adv-x="617" 
d="M51 0v811h187v-637h359v-174h-546zM427 367c-51 0 -97 29 -97 87c0 52 43 87 97 87c55 0 98 -35 98 -87c0 -58 -46 -87 -98 -87z" />
    <glyph glyph-name="uni1E36" unicode="&#x1e36;" horiz-adv-x="617" 
d="M51 0v811h187v-637h359v-174h-546zM316 -198c-48 0 -90 25 -90 80c0 47 38 78 90 78s90 -31 90 -78c0 -55 -41 -80 -90 -80z" />
    <glyph glyph-name="uni1E36" unicode="&#x1e37;" horiz-adv-x="617" 
d="M51 0v811h187v-637h359v-174h-546zM316 -198c-48 0 -90 25 -90 80c0 47 38 78 90 78s90 -31 90 -78c0 -55 -41 -80 -90 -80z" />
    <glyph glyph-name="Lslash" unicode="&#x141;" horiz-adv-x="617" 
d="M238 174h359v-174h-546v317l-64 -36l-56 118l120 67v345h187v-241l72 40l55 -118l-127 -71v-247z" />
    <glyph glyph-name="M" unicode="M" horiz-adv-x="952" 
d="M621 811h280v-811h-187v659l-151 -659h-174l-151 659v-659h-187v811h279l146 -623z" />
    <glyph glyph-name="N" unicode="N" horiz-adv-x="784" 
d="M546 811h187v-811h-252l-243 604v-604h-187v811h252l243 -600v600z" />
    <glyph glyph-name="Nacute" unicode="&#x143;" horiz-adv-x="784" 
d="M618 1020l-177 -154h-129l77 154h229zM546 811h187v-811h-252l-243 604v-604h-187v811h252l243 -600v600z" />
    <glyph glyph-name="Ncaron" unicode="&#x147;" horiz-adv-x="784" 
d="M460 863h-146l-141 154h169l45 -67l46 67h169zM546 811h187v-811h-252l-243 604v-604h-187v811h252l243 -600v600z" />
    <glyph glyph-name="uni0145" unicode="&#x145;" horiz-adv-x="784" 
d="M546 811h187v-811h-252l-243 604v-604h-187v811h252l243 -600v600zM291 -270v126l211 106v-171z" />
    <glyph glyph-name="Eng" unicode="&#x14a;" horiz-adv-x="784" 
d="M546 811h186v-766c0 -187 -82 -277 -240 -277c-82 0 -154 16 -204 37l71 161c29 -10 59 -17 91 -17c52 0 87 24 94 87l-306 585v-621h-187v811h252l243 -498v498z" />
    <glyph glyph-name="Ntilde" unicode="&#xd1;" horiz-adv-x="784" 
d="M332 900c-23 0 -31 -11 -35 -38h-122c3 93 23 155 116 155c58 0 107 -39 154 -39c22 0 29 13 35 38h121c-2 -93 -21 -154 -115 -154c-57 0 -110 38 -154 38zM546 811h187v-811h-252l-243 604v-604h-187v811h252l243 -600v600z" />
    <glyph glyph-name="O" unicode="O" horiz-adv-x="932" 
d="M467 -13c-256 0 -428 187 -428 419v2c0 234 171 417 428 417c255 0 426 -183 426 -417v-2c0 -232 -172 -419 -426 -419zM467 161c134 0 236 98 236 245v2c0 147 -102 243 -236 243c-136 0 -238 -96 -238 -243v-2c0 -147 102 -245 238 -245z" />
    <glyph glyph-name="Oacute" unicode="&#xd3;" horiz-adv-x="932" 
d="M391 866l77 154h229l-177 -154h-129zM467 -13c-256 0 -428 187 -428 419v2c0 234 171 417 428 417c255 0 426 -183 426 -417v-2c0 -232 -172 -419 -426 -419zM467 161c134 0 236 98 236 245v2c0 147 -102 243 -236 243c-136 0 -238 -96 -238 -243v-2
c0 -147 102 -245 238 -245z" />
    <glyph glyph-name="Obreve" unicode="&#x14e;" horiz-adv-x="932" 
d="M466 861c-104 0 -203 31 -213 156h139c6 -35 25 -65 75 -65c49 0 68 30 75 65h139c-10 -125 -109 -156 -215 -156zM467 -13c-256 0 -428 187 -428 419v2c0 234 171 417 428 417c255 0 426 -183 426 -417v-2c0 -232 -172 -419 -426 -419zM467 161c134 0 236 98 236 245v2
c0 147 -102 243 -236 243c-136 0 -238 -96 -238 -243v-2c0 -147 102 -245 238 -245z" />
    <glyph glyph-name="uni01D1" unicode="&#x1d1;" horiz-adv-x="932" 
d="M252 1017h169l45 -67l46 67h169l-142 -154h-146zM467 -13c-256 0 -428 187 -428 419v2c0 234 171 417 428 417c255 0 426 -183 426 -417v-2c0 -232 -172 -419 -426 -419zM467 161c134 0 236 98 236 245v2c0 147 -102 243 -236 243c-136 0 -238 -96 -238 -243v-2
c0 -147 102 -245 238 -245z" />
    <glyph glyph-name="Ocircumflex" unicode="&#xd4;" horiz-adv-x="932" 
d="M252 866l141 154h146l142 -154h-169l-46 67l-45 -67h-169zM467 -13c-256 0 -428 187 -428 419v2c0 234 171 417 428 417c255 0 426 -183 426 -417v-2c0 -232 -172 -419 -426 -419zM467 161c134 0 236 98 236 245v2c0 147 -102 243 -236 243c-136 0 -238 -96 -238 -243v-2
c0 -147 102 -245 238 -245z" />
    <glyph glyph-name="Odieresis" unicode="&#xd6;" horiz-adv-x="932" 
d="M360 867c-49 0 -90 25 -90 80c0 48 38 78 90 78c51 0 89 -30 89 -78c0 -55 -41 -80 -89 -80zM574 867c-48 0 -90 25 -90 80c0 48 39 78 90 78c52 0 90 -30 90 -78c0 -55 -41 -80 -90 -80zM467 -13c-256 0 -428 187 -428 419v2c0 234 171 417 428 417
c255 0 426 -183 426 -417v-2c0 -232 -172 -419 -426 -419zM467 161c134 0 236 98 236 245v2c0 147 -102 243 -236 243c-136 0 -238 -96 -238 -243v-2c0 -147 102 -245 238 -245z" />
    <glyph glyph-name="uni1ECC" unicode="&#x1ecc;" horiz-adv-x="932" 
d="M467 -13c-256 0 -428 187 -428 419v2c0 234 171 417 428 417c255 0 426 -183 426 -417v-2c0 -232 -172 -419 -426 -419zM467 161c134 0 236 98 236 245v2c0 147 -102 243 -236 243c-136 0 -238 -96 -238 -243v-2c0 -147 102 -245 238 -245zM466 -198c-48 0 -90 25 -90 80
c0 47 38 78 90 78s90 -31 90 -78c0 -55 -41 -80 -90 -80z" />
    <glyph glyph-name="Ograve" unicode="&#xd2;" horiz-adv-x="932" 
d="M542 866h-128l-178 154h229zM467 -13c-256 0 -428 187 -428 419v2c0 234 171 417 428 417c255 0 426 -183 426 -417v-2c0 -232 -172 -419 -426 -419zM467 161c134 0 236 98 236 245v2c0 147 -102 243 -236 243c-136 0 -238 -96 -238 -243v-2c0 -147 102 -245 238 -245z
" />
    <glyph glyph-name="Ohungarumlaut" unicode="&#x150;" horiz-adv-x="932" 
d="M245 866l44 154h229l-144 -154h-129zM512 866l44 154h229l-144 -154h-129zM467 -13c-256 0 -428 187 -428 419v2c0 234 171 417 428 417c255 0 426 -183 426 -417v-2c0 -232 -172 -419 -426 -419zM467 161c134 0 236 98 236 245v2c0 147 -102 243 -236 243
c-136 0 -238 -96 -238 -243v-2c0 -147 102 -245 238 -245z" />
    <glyph glyph-name="Omacron" unicode="&#x14c;" horiz-adv-x="932" 
d="M299 866v111h335v-111h-335zM467 -13c-256 0 -428 187 -428 419v2c0 234 171 417 428 417c255 0 426 -183 426 -417v-2c0 -232 -172 -419 -426 -419zM467 161c134 0 236 98 236 245v2c0 147 -102 243 -236 243c-136 0 -238 -96 -238 -243v-2c0 -147 102 -245 238 -245z
" />
    <glyph glyph-name="Oslash" unicode="&#xd8;" horiz-adv-x="932" 
d="M915 813l-117 -134c61 -72 95 -166 95 -271v-2c0 -232 -172 -419 -426 -419c-85 0 -161 21 -224 57l-45 -52h-198l130 148c-58 72 -91 165 -91 266v2c0 234 171 417 428 417c82 0 155 -19 217 -52l35 40h196zM229 406c0 -46 10 -86 27 -121l306 348c-29 12 -61 18 -95 18
c-136 0 -238 -96 -238 -243v-2zM703 408c0 48 -11 91 -31 127l-308 -353c31 -14 66 -21 103 -21c134 0 236 98 236 245v2z" />
    <glyph glyph-name="Otilde" unicode="&#xd5;" horiz-adv-x="932" 
d="M254 862c3 93 23 155 116 155c58 0 107 -39 154 -39c22 0 29 13 35 38h121c-2 -93 -21 -154 -115 -154c-57 0 -110 38 -154 38c-23 0 -31 -11 -35 -38h-122zM467 -13c-256 0 -428 187 -428 419v2c0 234 171 417 428 417c255 0 426 -183 426 -417v-2
c0 -232 -172 -419 -426 -419zM467 161c134 0 236 98 236 245v2c0 147 -102 243 -236 243c-136 0 -238 -96 -238 -243v-2c0 -147 102 -245 238 -245z" />
    <glyph glyph-name="OE" unicode="&#x152;" horiz-adv-x="1297" 
d="M889 174h368v-174h-555v51c-65 -41 -145 -64 -235 -64c-256 0 -428 187 -428 419v2c0 234 171 417 428 417c90 0 170 -23 235 -63v49h553v-174h-366v-143h334v-162h-334v-158zM467 161c126 0 224 87 235 220v52c-11 133 -109 218 -235 218c-136 0 -238 -96 -238 -243v-2
c0 -147 102 -245 238 -245z" />
    <glyph glyph-name="P" unicode="P" horiz-adv-x="760" 
d="M439 811c214 0 290 -128 290 -259v-1c0 -144 -85 -272 -290 -272h-201v-279h-187v811h388zM538 538v1c0 67 -40 98 -119 98h-181v-196h181c78 0 119 30 119 97z" />
    <glyph glyph-name="Thorn" unicode="&#xde;" horiz-adv-x="750" 
d="M421 672c215 0 290 -128 290 -259v-1c0 -144 -85 -272 -290 -272h-183v-140h-187v811h187v-139h183zM520 406v1c0 67 -40 92 -119 92h-163v-185h163c78 0 119 25 119 92z" />
    <glyph glyph-name="Q" unicode="Q" horiz-adv-x="932" 
d="M893 406c0 -141 -63 -265 -170 -341l84 -138l-167 -93l-97 159c-24 -4 -50 -6 -76 -6c-256 0 -428 187 -428 419v2c0 234 171 417 428 417c255 0 426 -183 426 -417v-2zM229 406c0 -147 102 -245 238 -245c134 0 236 98 236 245v2c0 147 -102 243 -236 243
c-136 0 -238 -96 -238 -243v-2z" />
    <glyph glyph-name="R" unicode="R" horiz-adv-x="765" 
d="M559 0l-172 309h-149v-309h-187v811h376c214 0 290 -114 290 -245v-1c0 -104 -45 -193 -149 -233l188 -332h-197zM238 637v-190h179c67 0 110 26 110 96v1c0 68 -43 93 -110 93h-179z" />
    <glyph glyph-name="Racute" unicode="&#x154;" horiz-adv-x="765" 
d="M581 1020l-177 -154h-129l77 154h229zM559 0l-172 309h-149v-309h-187v811h376c214 0 290 -114 290 -245v-1c0 -104 -45 -193 -149 -233l188 -332h-197zM238 637v-190h179c67 0 110 26 110 96v1c0 68 -43 93 -110 93h-179z" />
    <glyph glyph-name="Rcaron" unicode="&#x158;" horiz-adv-x="765" 
d="M423 863h-146l-141 154h169l45 -67l46 67h169zM559 0l-172 309h-149v-309h-187v811h376c214 0 290 -114 290 -245v-1c0 -104 -45 -193 -149 -233l188 -332h-197zM238 637v-190h179c67 0 110 26 110 96v1c0 68 -43 93 -110 93h-179z" />
    <glyph glyph-name="uni0156" unicode="&#x156;" horiz-adv-x="765" 
d="M568 332l188 -332h-197l-172 309h-149v-309h-187v811h376c214 0 290 -114 290 -245v-1c0 -104 -45 -193 -149 -233zM238 637v-190h179c67 0 110 26 110 96v1c0 68 -43 93 -110 93h-179zM267 -270v126l211 106v-171z" />
    <glyph glyph-name="S" unicode="S" horiz-adv-x="710" 
d="M344 -13c-124 0 -240 27 -313 73l72 156c58 -40 145 -63 234 -63c88 0 145 26 145 75v2c0 43 -41 62 -177 101c-178 52 -243 118 -243 257v2c0 142 114 235 307 235c111 0 218 -26 290 -71l-71 -155c-59 38 -140 60 -219 60c-83 0 -121 -27 -121 -66v-1
c0 -44 39 -65 138 -95c209 -63 284 -122 284 -265v-2c0 -155 -123 -243 -326 -243z" />
    <glyph glyph-name="Sacute" unicode="&#x15a;" horiz-adv-x="710" 
d="M301 866l77 154h229l-177 -154h-129zM344 -13c-124 0 -240 27 -313 73l72 156c58 -40 145 -63 234 -63c88 0 145 26 145 75v2c0 43 -41 62 -177 101c-178 52 -243 118 -243 257v2c0 142 114 235 307 235c111 0 218 -26 290 -71l-71 -155c-59 38 -140 60 -219 60
c-83 0 -121 -27 -121 -66v-1c0 -44 39 -65 138 -95c209 -63 284 -122 284 -265v-2c0 -155 -123 -243 -326 -243z" />
    <glyph glyph-name="Scaron" unicode="&#x160;" horiz-adv-x="710" 
d="M162 1017h169l45 -67l46 67h169l-142 -154h-146zM344 -13c-124 0 -240 27 -313 73l72 156c58 -40 145 -63 234 -63c88 0 145 26 145 75v2c0 43 -41 62 -177 101c-178 52 -243 118 -243 257v2c0 142 114 235 307 235c111 0 218 -26 290 -71l-71 -155
c-59 38 -140 60 -219 60c-83 0 -121 -27 -121 -66v-1c0 -44 39 -65 138 -95c209 -63 284 -122 284 -265v-2c0 -155 -123 -243 -326 -243z" />
    <glyph glyph-name="Scedilla" unicode="&#x15e;" horiz-adv-x="710" 
d="M386 497c209 -63 284 -122 284 -265v-2c0 -151 -117 -239 -311 -243l-25 -33h17c70 0 107 -37 107 -87v-2c0 -52 -46 -85 -115 -85c-38 0 -65 7 -76 12l-29 75c28 -10 82 -18 105 -18c29 0 37 11 37 22v1c0 10 -8 21 -38 21c-10 0 -35 -1 -57 -6l-34 38l53 63
c-109 5 -208 31 -273 72l72 156c58 -40 145 -63 234 -63c88 0 145 26 145 75v2c0 43 -41 62 -177 101c-178 52 -243 118 -243 257v2c0 142 114 235 307 235c111 0 218 -26 290 -71l-71 -155c-59 38 -140 60 -219 60c-83 0 -121 -27 -121 -66v-1c0 -44 39 -65 138 -95z" />
    <glyph glyph-name="Scircumflex" unicode="&#x15c;" horiz-adv-x="710" 
d="M161 866l141 154h146l142 -154h-169l-46 67l-45 -67h-169zM344 -13c-124 0 -240 27 -313 73l72 156c58 -40 145 -63 234 -63c88 0 145 26 145 75v2c0 43 -41 62 -177 101c-178 52 -243 118 -243 257v2c0 142 114 235 307 235c111 0 218 -26 290 -71l-71 -155
c-59 38 -140 60 -219 60c-83 0 -121 -27 -121 -66v-1c0 -44 39 -65 138 -95c209 -63 284 -122 284 -265v-2c0 -155 -123 -243 -326 -243z" />
    <glyph glyph-name="uni0218" unicode="&#x218;" horiz-adv-x="710" 
d="M344 -13c-124 0 -240 27 -313 73l72 156c58 -40 145 -63 234 -63c88 0 145 26 145 75v2c0 43 -41 62 -177 101c-178 52 -243 118 -243 257v2c0 142 114 235 307 235c111 0 218 -26 290 -71l-71 -155c-59 38 -140 60 -219 60c-83 0 -121 -27 -121 -66v-1
c0 -44 39 -65 138 -95c209 -63 284 -122 284 -265v-2c0 -155 -123 -243 -326 -243zM248 -270v126l211 106v-171z" />
    <glyph glyph-name="uni1E9E" unicode="&#x1e9e;" horiz-adv-x="733" 
d="M532 424c111 -17 177 -86 177 -200v-1c0 -163 -136 -223 -310 -223h-101v175h115c70 0 106 28 106 85v1c0 58 -42 86 -110 86h-53v134h25c65 0 104 22 104 83v1c0 54 -39 72 -104 72h-143v-637h-187v811h348c202 0 273 -70 273 -201v-1c0 -89 -54 -159 -140 -185z" />
    <glyph glyph-name="uni018F" unicode="&#x18f;" horiz-adv-x="823" 
d="M381 824c256 0 403 -166 403 -417v-2c0 -250 -135 -419 -373 -419c-251 0 -372 168 -372 418v63h547c-18 132 -100 183 -213 183c-81 0 -153 -25 -218 -65l-72 164c102 53 193 75 298 75zM411 160c97 0 155 56 173 164h-345c18 -108 75 -164 172 -164z" />
    <glyph glyph-name="T" unicode="T" horiz-adv-x="730" 
d="M272 0v637h-252v174h690v-174h-252v-637h-186z" />
    <glyph glyph-name="Tbar" unicode="&#x166;" horiz-adv-x="730" 
d="M710 637h-252v-116h113v-153h-113v-368h-186v368h-120v153h120v116h-252v174h690v-174z" />
    <glyph glyph-name="Tcaron" unicode="&#x164;" horiz-adv-x="730" 
d="M151 1017h169l45 -67l46 67h169l-142 -154h-146zM272 0v637h-252v174h690v-174h-252v-637h-186z" />
    <glyph glyph-name="uni0162" unicode="&#x162;" horiz-adv-x="730" 
d="M458 0h-64l-34 -46h17c70 0 107 -37 107 -87v-2c0 -52 -46 -85 -115 -85c-38 0 -65 7 -76 12l-29 75c28 -10 82 -18 105 -18c29 0 37 11 37 22v1c0 10 -8 21 -38 21c-10 0 -35 -1 -57 -6l-34 38l63 75h-68v637h-252v174h690v-174h-252v-637z" />
    <glyph glyph-name="uni021A" unicode="&#x21a;" horiz-adv-x="730" 
d="M272 0v637h-252v174h690v-174h-252v-637h-186zM265 -270v126l211 106v-171z" />
    <glyph glyph-name="U" unicode="U" horiz-adv-x="797" 
d="M399 -13c-249 0 -348 128 -348 330v494h187v-447c0 -132 34 -196 161 -196c126 0 160 64 160 196v447h187v-494c0 -202 -99 -330 -347 -330z" />
    <glyph glyph-name="Uacute" unicode="&#xda;" horiz-adv-x="797" 
d="M330 866l77 154h229l-177 -154h-129zM399 -13c-249 0 -348 128 -348 330v494h187v-447c0 -132 34 -196 161 -196c126 0 160 64 160 196v447h187v-494c0 -202 -99 -330 -347 -330z" />
    <glyph glyph-name="Ubreve" unicode="&#x16c;" horiz-adv-x="797" 
d="M405 861c-104 0 -203 31 -213 156h139c6 -35 25 -65 75 -65c49 0 68 30 75 65h139c-10 -125 -109 -156 -215 -156zM399 -13c-249 0 -348 128 -348 330v494h187v-447c0 -132 34 -196 161 -196c126 0 160 64 160 196v447h187v-494c0 -202 -99 -330 -347 -330z" />
    <glyph glyph-name="uni01D3" unicode="&#x1d3;" horiz-adv-x="797" 
d="M192 1017h169l45 -67l46 67h169l-142 -154h-146zM399 -13c-249 0 -348 128 -348 330v494h187v-447c0 -132 34 -196 161 -196c126 0 160 64 160 196v447h187v-494c0 -202 -99 -330 -347 -330z" />
    <glyph glyph-name="Ucircumflex" unicode="&#xdb;" horiz-adv-x="797" 
d="M191 866l141 154h146l142 -154h-169l-46 67l-45 -67h-169zM399 -13c-249 0 -348 128 -348 330v494h187v-447c0 -132 34 -196 161 -196c126 0 160 64 160 196v447h187v-494c0 -202 -99 -330 -347 -330z" />
    <glyph glyph-name="Udieresis" unicode="&#xdc;" horiz-adv-x="797" 
d="M299 867c-49 0 -90 25 -90 80c0 48 38 78 90 78c51 0 89 -30 89 -78c0 -55 -41 -80 -89 -80zM513 867c-48 0 -90 25 -90 80c0 48 39 78 90 78c52 0 90 -30 90 -78c0 -55 -41 -80 -90 -80zM399 -13c-249 0 -348 128 -348 330v494h187v-447c0 -132 34 -196 161 -196
c126 0 160 64 160 196v447h187v-494c0 -202 -99 -330 -347 -330z" />
    <glyph glyph-name="uni1EE4" unicode="&#x1ee4;" horiz-adv-x="797" 
d="M399 -13c-249 0 -348 128 -348 330v494h187v-447c0 -132 34 -196 161 -196c126 0 160 64 160 196v447h187v-494c0 -202 -99 -330 -347 -330zM398 -198c-48 0 -90 25 -90 80c0 47 38 78 90 78s90 -31 90 -78c0 -55 -41 -80 -90 -80z" />
    <glyph glyph-name="Ugrave" unicode="&#xd9;" horiz-adv-x="797" 
d="M481 866h-128l-178 154h229zM399 -13c-249 0 -348 128 -348 330v494h187v-447c0 -132 34 -196 161 -196c126 0 160 64 160 196v447h187v-494c0 -202 -99 -330 -347 -330z" />
    <glyph glyph-name="Uhungarumlaut" unicode="&#x170;" horiz-adv-x="797" 
d="M184 866l44 154h229l-144 -154h-129zM451 866l44 154h229l-144 -154h-129zM399 -13c-249 0 -348 128 -348 330v494h187v-447c0 -132 34 -196 161 -196c126 0 160 64 160 196v447h187v-494c0 -202 -99 -330 -347 -330z" />
    <glyph glyph-name="Umacron" unicode="&#x16a;" horiz-adv-x="797" 
d="M238 866v111h335v-111h-335zM399 -13c-249 0 -348 128 -348 330v494h187v-447c0 -132 34 -196 161 -196c126 0 160 64 160 196v447h187v-494c0 -202 -99 -330 -347 -330z" />
    <glyph glyph-name="Uogonek" unicode="&#x172;" horiz-adv-x="797" 
d="M559 811h187v-494c0 -181 -80 -303 -276 -326c-26 -18 -62 -48 -62 -79c0 -34 28 -43 65 -43c16 0 33 3 46 6v-81c-21 -5 -55 -10 -93 -10c-88 0 -132 33 -132 92c0 46 36 83 91 111c-239 5 -334 132 -334 330v494h187v-447c0 -132 34 -196 161 -196
c126 0 160 64 160 196v447z" />
    <glyph glyph-name="Uring" unicode="&#x16e;" horiz-adv-x="797" 
d="M408 864c-69 0 -126 55 -126 125c0 69 56 123 125 123c70 0 126 -55 126 -124c0 -70 -55 -124 -125 -124zM408 945c25 0 43 19 43 43s-18 42 -44 42c-24 0 -43 -18 -42 -42c-1 -24 18 -43 43 -43zM399 -13c-249 0 -348 128 -348 330v494h187v-447
c0 -132 34 -196 161 -196c126 0 160 64 160 196v447h187v-494c0 -202 -99 -330 -347 -330z" />
    <glyph glyph-name="Utilde" unicode="&#x168;" horiz-adv-x="797" 
d="M193 862c3 93 23 155 116 155c58 0 107 -39 154 -39c22 0 29 13 35 38h121c-2 -93 -21 -154 -115 -154c-57 0 -110 38 -154 38c-23 0 -31 -11 -35 -38h-122zM399 -13c-249 0 -348 128 -348 330v494h187v-447c0 -132 34 -196 161 -196c126 0 160 64 160 196v447h187v-494
c0 -202 -99 -330 -347 -330z" />
    <glyph glyph-name="V" unicode="V" horiz-adv-x="780" 
d="M569 811h201l-245 -811h-271l-244 811h200l180 -631z" />
    <glyph glyph-name="W" unicode="W" horiz-adv-x="1068" 
d="M849 811h200l-156 -811h-256l-103 614l-103 -614h-256l-156 811h200l103 -615l104 615h217l103 -617z" />
    <glyph glyph-name="Wacute" unicode="&#x1e82;" horiz-adv-x="1068" 
d="M765 1020l-177 -154h-129l77 154h229zM849 811h200l-156 -811h-256l-103 614l-103 -614h-256l-156 811h200l103 -615l104 615h217l103 -617z" />
    <glyph glyph-name="Wcircumflex" unicode="&#x174;" horiz-adv-x="1068" 
d="M534 933l-45 -67h-169l141 154h146l142 -154h-169zM849 811h200l-156 -811h-256l-103 614l-103 -614h-256l-156 811h200l103 -615l104 615h217l103 -617z" />
    <glyph glyph-name="Wdieresis" unicode="&#x1e84;" horiz-adv-x="1068" 
d="M427 867c-49 0 -90 25 -90 80c0 48 38 78 90 78c51 0 89 -30 89 -78c0 -55 -41 -80 -89 -80zM641 867c-48 0 -90 25 -90 80c0 48 39 78 90 78c52 0 90 -30 90 -78c0 -55 -41 -80 -90 -80zM849 811h200l-156 -811h-256l-103 614l-103 -614h-256l-156 811h200l103 -615
l104 615h217l103 -617z" />
    <glyph glyph-name="Wgrave" unicode="&#x1e80;" horiz-adv-x="1068" 
d="M610 866h-128l-178 154h229zM849 811h200l-156 -811h-256l-103 614l-103 -614h-256l-156 811h200l103 -615l104 615h217l103 -617z" />
    <glyph glyph-name="X" unicode="X" horiz-adv-x="785" 
d="M10 0l279 410l-268 401h219l156 -256l158 256h212l-270 -394l279 -417h-218l-169 274l-172 -274h-206z" />
    <glyph glyph-name="Y" unicode="Y" horiz-adv-x="831" 
d="M597 811h210l-302 -512v-299h-186v299l-301 512h212l184 -332z" />
    <glyph glyph-name="Yacute" unicode="&#xdd;" horiz-adv-x="831" 
d="M643 1020l-177 -154h-129l77 154h229zM597 811h210l-302 -512v-299h-186v299l-301 512h212l184 -332z" />
    <glyph glyph-name="Ycircumflex" unicode="&#x176;" horiz-adv-x="831" 
d="M412 933l-45 -67h-169l141 154h146l142 -154h-169zM597 811h210l-302 -512v-299h-186v299l-301 512h212l184 -332z" />
    <glyph glyph-name="Ydieresis" unicode="&#x178;" horiz-adv-x="831" 
d="M305 867c-49 0 -90 25 -90 80c0 48 38 78 90 78c51 0 89 -30 89 -78c0 -55 -41 -80 -89 -80zM519 867c-48 0 -90 25 -90 80c0 48 39 78 90 78c52 0 90 -30 90 -78c0 -55 -41 -80 -90 -80zM597 811h210l-302 -512v-299h-186v299l-301 512h212l184 -332z" />
    <glyph glyph-name="Ygrave" unicode="&#x1ef2;" horiz-adv-x="831" 
d="M488 866h-128l-178 154h229zM597 811h210l-302 -512v-299h-186v299l-301 512h212l184 -332z" />
    <glyph glyph-name="uni0232" unicode="&#x232;" horiz-adv-x="831" 
d="M580 977v-111h-335v111h335zM597 811h210l-302 -512v-299h-186v299l-301 512h212l184 -332z" />
    <glyph glyph-name="uni1EF8" unicode="&#x1ef8;" horiz-adv-x="831" 
d="M357 900c-23 0 -31 -11 -35 -38h-122c3 93 23 155 116 155c58 0 107 -39 154 -39c22 0 29 13 35 38h121c-2 -93 -21 -154 -115 -154c-57 0 -110 38 -154 38zM597 811h210l-302 -512v-299h-186v299l-301 512h212l184 -332z" />
    <glyph glyph-name="uni1EF8" unicode="&#x1ef9;" horiz-adv-x="831" 
d="M357 900c-23 0 -31 -11 -35 -38h-122c3 93 23 155 116 155c58 0 107 -39 154 -39c22 0 29 13 35 38h121c-2 -93 -21 -154 -115 -154c-57 0 -110 38 -154 38zM597 811h210l-302 -512v-299h-186v299l-301 512h212l184 -332z" />
    <glyph glyph-name="Z" unicode="Z" horiz-adv-x="708" 
d="M262 174h409v-174h-636v174l404 463h-404v174h631v-174z" />
    <glyph glyph-name="Zacute" unicode="&#x179;" horiz-adv-x="708" 
d="M591 1020l-177 -154h-129l77 154h229zM262 174h409v-174h-636v174l404 463h-404v174h631v-174z" />
    <glyph glyph-name="Zcaron" unicode="&#x17d;" horiz-adv-x="708" 
d="M434 863h-146l-141 154h169l45 -67l46 67h169zM262 174h409v-174h-636v174l404 463h-404v174h631v-174z" />
    <glyph glyph-name="Zdotaccent" unicode="&#x17b;" horiz-adv-x="708" 
d="M361 867c-49 0 -90 25 -90 80c0 48 38 78 90 78c51 0 89 -30 89 -78c0 -55 -41 -80 -89 -80zM262 174h409v-174h-636v174l404 463h-404v174h631v-174z" />
    <glyph glyph-name="a" unicode="a" horiz-adv-x="651" 
d="M327 604c167 0 274 -56 274 -235v-357c-80 -17 -186 -29 -271 -29c-177 0 -291 48 -291 190v1c0 125 103 181 257 181c40 0 77 -2 118 -8v16c0 64 -50 85 -128 85c-55 0 -139 -13 -203 -36l43 164c39 13 125 28 201 28zM232 185c0 -43 40 -62 106 -62c24 0 50 2 76 5v112
c-26 5 -55 7 -76 7c-65 0 -106 -16 -106 -61v-1z" />
    <glyph glyph-name="aacute" unicode="&#xe1;" horiz-adv-x="651" 
d="M576 807l-177 -154h-129l77 154h229zM327 604c167 0 274 -56 274 -235v-357c-80 -17 -186 -29 -271 -29c-177 0 -291 48 -291 190v1c0 125 103 181 257 181c40 0 77 -2 118 -8v16c0 64 -50 85 -128 85c-55 0 -139 -13 -203 -36l43 164c39 13 125 28 201 28zM232 185
c0 -43 40 -62 106 -62c24 0 50 2 76 5v112c-26 5 -55 7 -76 7c-65 0 -106 -16 -106 -61v-1z" />
    <glyph glyph-name="abreve" unicode="&#x103;" horiz-adv-x="651" 
d="M345 648c-104 0 -203 31 -213 156h139c6 -35 25 -65 75 -65c49 0 68 30 75 65h139c-10 -125 -109 -156 -215 -156zM327 604c167 0 274 -56 274 -235v-357c-80 -17 -186 -29 -271 -29c-177 0 -291 48 -291 190v1c0 125 103 181 257 181c40 0 77 -2 118 -8v16
c0 64 -50 85 -128 85c-55 0 -139 -13 -203 -36l43 164c39 13 125 28 201 28zM232 185c0 -43 40 -62 106 -62c24 0 50 2 76 5v112c-26 5 -55 7 -76 7c-65 0 -106 -16 -106 -61v-1z" />
    <glyph glyph-name="uni01CE" unicode="&#x1ce;" horiz-adv-x="651" 
d="M418 650h-146l-141 154h169l45 -67l46 67h169zM327 604c167 0 274 -56 274 -235v-357c-80 -17 -186 -29 -271 -29c-177 0 -291 48 -291 190v1c0 125 103 181 257 181c40 0 77 -2 118 -8v16c0 64 -50 85 -128 85c-55 0 -139 -13 -203 -36l43 164c39 13 125 28 201 28z
M232 185c0 -43 40 -62 106 -62c24 0 50 2 76 5v112c-26 5 -55 7 -76 7c-65 0 -106 -16 -106 -61v-1z" />
    <glyph glyph-name="acircumflex" unicode="&#xe2;" horiz-adv-x="651" 
d="M345 720l-45 -67h-169l141 154h146l142 -154h-169zM327 604c167 0 274 -56 274 -235v-357c-80 -17 -186 -29 -271 -29c-177 0 -291 48 -291 190v1c0 125 103 181 257 181c40 0 77 -2 118 -8v16c0 64 -50 85 -128 85c-55 0 -139 -13 -203 -36l43 164c39 13 125 28 201 28z
M232 185c0 -43 40 -62 106 -62c24 0 50 2 76 5v112c-26 5 -55 7 -76 7c-65 0 -106 -16 -106 -61v-1z" />
    <glyph glyph-name="adieresis" unicode="&#xe4;" horiz-adv-x="651" 
d="M238 653c-49 0 -90 25 -90 80c0 48 38 78 90 78c51 0 89 -30 89 -78c0 -55 -41 -80 -89 -80zM452 653c-48 0 -90 25 -90 80c0 48 39 78 90 78c52 0 90 -30 90 -78c0 -55 -41 -80 -90 -80zM327 604c167 0 274 -56 274 -235v-357c-80 -17 -186 -29 -271 -29
c-177 0 -291 48 -291 190v1c0 125 103 181 257 181c40 0 77 -2 118 -8v16c0 64 -50 85 -128 85c-55 0 -139 -13 -203 -36l43 164c39 13 125 28 201 28zM232 185c0 -43 40 -62 106 -62c24 0 50 2 76 5v112c-26 5 -55 7 -76 7c-65 0 -106 -16 -106 -61v-1z" />
    <glyph glyph-name="agrave" unicode="&#xe0;" horiz-adv-x="651" 
d="M421 653h-128l-178 154h229zM327 604c167 0 274 -56 274 -235v-357c-80 -17 -186 -29 -271 -29c-177 0 -291 48 -291 190v1c0 125 103 181 257 181c40 0 77 -2 118 -8v16c0 64 -50 85 -128 85c-55 0 -139 -13 -203 -36l43 164c39 13 125 28 201 28zM232 185
c0 -43 40 -62 106 -62c24 0 50 2 76 5v112c-26 5 -55 7 -76 7c-65 0 -106 -16 -106 -61v-1z" />
    <glyph glyph-name="amacron" unicode="&#x101;" horiz-adv-x="651" 
d="M513 764v-111h-335v111h335zM327 604c167 0 274 -56 274 -235v-357c-80 -17 -186 -29 -271 -29c-177 0 -291 48 -291 190v1c0 125 103 181 257 181c40 0 77 -2 118 -8v16c0 64 -50 85 -128 85c-55 0 -139 -13 -203 -36l43 164c39 13 125 28 201 28zM232 185
c0 -43 40 -62 106 -62c24 0 50 2 76 5v112c-26 5 -55 7 -76 7c-65 0 -106 -16 -106 -61v-1z" />
    <glyph glyph-name="aogonek" unicode="&#x105;" horiz-adv-x="651" 
d="M593 -116c16 0 33 3 46 6v-81c-21 -5 -55 -10 -93 -10c-88 0 -132 33 -132 92c0 42 30 76 76 103c-54 -7 -111 -11 -160 -11c-177 0 -291 48 -291 190v1c0 125 103 181 257 181c40 0 77 -2 118 -8v16c0 64 -50 85 -128 85c-55 0 -139 -13 -203 -36l43 164
c39 13 125 28 201 28c167 0 274 -56 274 -235v-357h-2c-26 -17 -71 -50 -71 -85c0 -34 28 -43 65 -43zM232 185c0 -43 40 -62 106 -62c24 0 50 2 76 5v112c-26 5 -55 7 -76 7c-65 0 -106 -16 -106 -61v-1z" />
    <glyph glyph-name="aring" unicode="&#xe5;" horiz-adv-x="651" 
d="M348 651c-69 0 -126 55 -126 125c0 69 56 123 125 123c70 0 126 -55 126 -124c0 -70 -55 -124 -125 -124zM347 817c-24 0 -43 -18 -42 -42c-1 -24 18 -43 43 -43s43 19 43 43s-18 42 -44 42zM327 604c167 0 274 -56 274 -235v-357c-80 -17 -186 -29 -271 -29
c-177 0 -291 48 -291 190v1c0 125 103 181 257 181c40 0 77 -2 118 -8v16c0 64 -50 85 -128 85c-55 0 -139 -13 -203 -36l43 164c39 13 125 28 201 28zM232 185c0 -43 40 -62 106 -62c24 0 50 2 76 5v112c-26 5 -55 7 -76 7c-65 0 -106 -16 -106 -61v-1z" />
    <glyph glyph-name="atilde" unicode="&#xe3;" horiz-adv-x="651" 
d="M290 687c-23 0 -31 -11 -35 -38h-122c3 93 23 155 116 155c58 0 107 -39 154 -39c22 0 29 13 35 38h121c-2 -93 -21 -154 -115 -154c-57 0 -110 38 -154 38zM327 604c167 0 274 -56 274 -235v-357c-80 -17 -186 -29 -271 -29c-177 0 -291 48 -291 190v1
c0 125 103 181 257 181c40 0 77 -2 118 -8v16c0 64 -50 85 -128 85c-55 0 -139 -13 -203 -36l43 164c39 13 125 28 201 28zM232 185c0 -43 40 -62 106 -62c24 0 50 2 76 5v112c-26 5 -55 7 -76 7c-65 0 -106 -16 -106 -61v-1z" />
    <glyph glyph-name="ae" unicode="&#xe6;" horiz-adv-x="1067" 
d="M1028 268v-10h-420c17 -63 68 -111 141 -111c68 0 129 25 171 54l82 -145c-62 -37 -143 -72 -260 -72c-55 0 -104 9 -147 27c-79 -17 -182 -28 -265 -28c-177 0 -291 48 -291 190v1c0 125 103 181 257 181c40 0 77 -2 118 -8v16c0 64 -50 85 -128 85
c-55 0 -139 -13 -203 -36l43 164c39 13 125 28 201 28c86 0 157 -15 204 -54c51 36 116 57 192 57c187 0 305 -123 305 -339zM721 459c-58 0 -98 -43 -113 -99h230c-11 58 -53 99 -117 99zM232 185c0 -43 40 -62 106 -62c24 0 50 2 76 5v112c-26 5 -55 7 -76 7
c-65 0 -106 -16 -106 -61v-1z" />
    <glyph glyph-name="b" unicode="b" horiz-adv-x="693" 
d="M326 -17c-114 0 -188 17 -275 62v766h188v-215c30 7 62 12 95 12c200 0 320 -131 320 -311v-2c0 -180 -127 -312 -328 -312zM326 151c91 0 139 62 139 144v2c0 82 -48 143 -139 143c-29 0 -61 -6 -87 -12v-265c26 -8 56 -12 87 -12z" />
    <glyph glyph-name="c" unicode="c" horiz-adv-x="591" 
d="M361 -17c-193 0 -322 127 -322 311v2c0 186 128 311 322 311c71 0 147 -17 204 -47l-73 -139c-40 20 -78 31 -123 31c-90 0 -141 -65 -141 -156v-2c0 -90 52 -155 141 -155c45 0 83 11 123 30l73 -139c-57 -30 -133 -47 -204 -47z" />
    <glyph glyph-name="cacute" unicode="&#x107;" horiz-adv-x="591" 
d="M284 653l77 154h229l-177 -154h-129zM361 -17c-193 0 -322 127 -322 311v2c0 186 128 311 322 311c71 0 147 -17 204 -47l-73 -139c-40 20 -78 31 -123 31c-90 0 -141 -65 -141 -156v-2c0 -90 52 -155 141 -155c45 0 83 11 123 30l73 -139c-57 -30 -133 -47 -204 -47z
" />
    <glyph glyph-name="ccaron" unicode="&#x10d;" horiz-adv-x="591" 
d="M145 804h169l45 -67l46 67h169l-142 -154h-146zM361 -17c-193 0 -322 127 -322 311v2c0 186 128 311 322 311c71 0 147 -17 204 -47l-73 -139c-40 20 -78 31 -123 31c-90 0 -141 -65 -141 -156v-2c0 -90 52 -155 141 -155c45 0 83 11 123 30l73 -139
c-57 -30 -133 -47 -204 -47z" />
    <glyph glyph-name="ccedilla" unicode="&#xe7;" horiz-adv-x="591" 
d="M565 30c-55 -29 -128 -46 -197 -47l-22 -29h17c70 0 107 -37 107 -87v-2c0 -52 -46 -85 -115 -85c-38 0 -65 7 -76 12l-29 75c28 -10 82 -18 105 -18c29 0 37 11 37 22v1c0 10 -8 21 -38 21c-10 0 -35 -1 -57 -6l-34 38l51 61c-167 19 -275 139 -275 308v2
c0 186 128 311 322 311c71 0 147 -17 204 -47l-73 -139c-40 20 -78 31 -123 31c-90 0 -141 -65 -141 -156v-2c0 -90 52 -155 141 -155c45 0 83 11 123 30z" />
    <glyph glyph-name="ccircumflex" unicode="&#x109;" horiz-adv-x="591" 
d="M145 653l141 154h146l142 -154h-169l-46 67l-45 -67h-169zM361 -17c-193 0 -322 127 -322 311v2c0 186 128 311 322 311c71 0 147 -17 204 -47l-73 -139c-40 20 -78 31 -123 31c-90 0 -141 -65 -141 -156v-2c0 -90 52 -155 141 -155c45 0 83 11 123 30l73 -139
c-57 -30 -133 -47 -204 -47z" />
    <glyph glyph-name="cdotaccent" unicode="&#x10b;" horiz-adv-x="591" 
d="M360 653c-49 0 -90 25 -90 80c0 48 38 78 90 78c51 0 89 -30 89 -78c0 -55 -41 -80 -89 -80zM361 -17c-193 0 -322 127 -322 311v2c0 186 128 311 322 311c71 0 147 -17 204 -47l-73 -139c-40 20 -78 31 -123 31c-90 0 -141 -65 -141 -156v-2c0 -90 52 -155 141 -155
c45 0 83 11 123 30l73 -139c-57 -30 -133 -47 -204 -47z" />
    <glyph glyph-name="d" unicode="d" horiz-adv-x="693" 
d="M367 -17c-200 0 -328 132 -328 312v2c0 180 120 311 320 311c33 0 65 -5 95 -12v215h188v-766c-86 -45 -161 -62 -275 -62zM367 151c31 0 61 4 87 12v265c-25 6 -58 12 -87 12c-91 0 -139 -61 -139 -143v-2c0 -82 48 -144 139 -144z" />
    <glyph glyph-name="eth" unicode="&#xf0;" horiz-adv-x="717" 
d="M540 686c98 -93 138 -223 138 -366v-3c0 -187 -113 -335 -326 -335c-181 0 -313 110 -313 268v2c0 158 116 267 309 267c50 0 102 -11 146 -32c-14 44 -36 78 -63 106l-58 -49l-88 72l46 39c-35 14 -75 22 -118 26v137c93 -10 170 -33 232 -66l61 52l88 -72zM490 256v1
c0 74 -46 133 -131 133s-132 -59 -132 -133v-1c0 -76 48 -136 132 -136c92 0 131 60 131 136z" />
    <glyph glyph-name="dcaron" unicode="&#x10f;" horiz-adv-x="865" 
d="M367 -17c-200 0 -328 132 -328 312v2c0 180 120 311 320 311c33 0 65 -5 95 -12v215h188v-766c-86 -45 -161 -62 -275 -62zM674 559l42 252h153l-87 -252h-108zM367 151c31 0 61 4 87 12v265c-25 6 -58 12 -87 12c-91 0 -139 -61 -139 -143v-2c0 -82 48 -144 139 -144z
" />
    <glyph glyph-name="dcroat" unicode="&#x111;" horiz-adv-x="693" 
d="M706 777v-119h-64v-613c-86 -45 -161 -62 -275 -62c-200 0 -328 132 -328 312v2c0 180 120 311 320 311c33 0 65 -5 95 -12v62h-113v119h113v34h188v-34h64zM454 163v265c-25 6 -58 12 -87 12c-91 0 -139 -61 -139 -143v-2c0 -82 48 -144 139 -144c31 0 61 4 87 12z" />
    <glyph glyph-name="e" unicode="e" horiz-adv-x="693" 
d="M654 268v-10h-420c17 -63 68 -111 141 -111c68 0 129 25 171 54l82 -145c-62 -37 -143 -72 -260 -72c-200 0 -329 126 -329 311v2c0 183 121 310 310 310c187 0 305 -123 305 -339zM347 459c-58 0 -98 -43 -113 -99h230c-11 58 -53 99 -117 99z" />
    <glyph glyph-name="eacute" unicode="&#xe9;" horiz-adv-x="693" 
d="M580 807l-177 -154h-129l77 154h229zM654 268v-10h-420c17 -63 68 -111 141 -111c68 0 129 25 171 54l82 -145c-62 -37 -143 -72 -260 -72c-200 0 -329 126 -329 311v2c0 183 121 310 310 310c187 0 305 -123 305 -339zM347 459c-58 0 -98 -43 -113 -99h230
c-11 58 -53 99 -117 99z" />
    <glyph glyph-name="ebreve" unicode="&#x115;" horiz-adv-x="693" 
d="M349 648c-104 0 -203 31 -213 156h139c6 -35 25 -65 75 -65c49 0 68 30 75 65h139c-10 -125 -109 -156 -215 -156zM654 268v-10h-420c17 -63 68 -111 141 -111c68 0 129 25 171 54l82 -145c-62 -37 -143 -72 -260 -72c-200 0 -329 126 -329 311v2c0 183 121 310 310 310
c187 0 305 -123 305 -339zM347 459c-58 0 -98 -43 -113 -99h230c-11 58 -53 99 -117 99z" />
    <glyph glyph-name="ecaron" unicode="&#x11b;" horiz-adv-x="693" 
d="M422 650h-146l-141 154h169l45 -67l46 67h169zM654 268v-10h-420c17 -63 68 -111 141 -111c68 0 129 25 171 54l82 -145c-62 -37 -143 -72 -260 -72c-200 0 -329 126 -329 311v2c0 183 121 310 310 310c187 0 305 -123 305 -339zM347 459c-58 0 -98 -43 -113 -99h230
c-11 58 -53 99 -117 99z" />
    <glyph glyph-name="ecircumflex" unicode="&#xea;" horiz-adv-x="693" 
d="M349 720l-45 -67h-169l141 154h146l142 -154h-169zM654 268v-10h-420c17 -63 68 -111 141 -111c68 0 129 25 171 54l82 -145c-62 -37 -143 -72 -260 -72c-200 0 -329 126 -329 311v2c0 183 121 310 310 310c187 0 305 -123 305 -339zM347 459c-58 0 -98 -43 -113 -99h230
c-11 58 -53 99 -117 99z" />
    <glyph glyph-name="edieresis" unicode="&#xeb;" horiz-adv-x="693" 
d="M243 653c-49 0 -90 25 -90 80c0 48 38 78 90 78c51 0 89 -30 89 -78c0 -55 -41 -80 -89 -80zM457 653c-48 0 -90 25 -90 80c0 48 39 78 90 78c52 0 90 -30 90 -78c0 -55 -41 -80 -90 -80zM654 268v-10h-420c17 -63 68 -111 141 -111c68 0 129 25 171 54l82 -145
c-62 -37 -143 -72 -260 -72c-200 0 -329 126 -329 311v2c0 183 121 310 310 310c187 0 305 -123 305 -339zM347 459c-58 0 -98 -43 -113 -99h230c-11 58 -53 99 -117 99z" />
    <glyph glyph-name="edotaccent" unicode="&#x117;" horiz-adv-x="693" 
d="M350 653c-49 0 -90 25 -90 80c0 48 38 78 90 78c51 0 89 -30 89 -78c0 -55 -41 -80 -89 -80zM654 268v-10h-420c17 -63 68 -111 141 -111c68 0 129 25 171 54l82 -145c-62 -37 -143 -72 -260 -72c-200 0 -329 126 -329 311v2c0 183 121 310 310 310
c187 0 305 -123 305 -339zM347 459c-58 0 -98 -43 -113 -99h230c-11 58 -53 99 -117 99z" />
    <glyph glyph-name="egrave" unicode="&#xe8;" horiz-adv-x="693" 
d="M425 653h-128l-178 154h229zM654 268v-10h-420c17 -63 68 -111 141 -111c68 0 129 25 171 54l82 -145c-62 -37 -143 -72 -260 -72c-200 0 -329 126 -329 311v2c0 183 121 310 310 310c187 0 305 -123 305 -339zM347 459c-58 0 -98 -43 -113 -99h230
c-11 58 -53 99 -117 99z" />
    <glyph glyph-name="emacron" unicode="&#x113;" horiz-adv-x="693" 
d="M517 764v-111h-335v111h335zM654 268v-10h-420c17 -63 68 -111 141 -111c68 0 129 25 171 54l82 -145c-62 -37 -143 -72 -260 -72c-200 0 -329 126 -329 311v2c0 183 121 310 310 310c187 0 305 -123 305 -339zM347 459c-58 0 -98 -43 -113 -99h230
c-11 58 -53 99 -117 99z" />
    <glyph glyph-name="eogonek" unicode="&#x119;" horiz-adv-x="693" 
d="M618 -76c16 0 33 3 46 6v-81c-21 -5 -55 -10 -93 -10c-88 0 -132 33 -132 92c0 23 9 43 24 61c-29 -5 -60 -8 -95 -8c-200 0 -329 126 -329 311v2c0 183 121 310 310 310c187 0 305 -123 305 -339v-10h-420c17 -63 68 -111 141 -111c68 0 129 25 171 54l82 -145
c-1 -1 -3 -2 -4 -2l2 -1c-25 -16 -73 -50 -73 -86c0 -34 28 -43 65 -43zM347 459c-58 0 -98 -43 -113 -99h230c-11 58 -53 99 -117 99z" />
    <glyph glyph-name="uni1EBD" unicode="&#x1ebd;" horiz-adv-x="693" 
d="M294 687c-23 0 -31 -11 -35 -38h-122c3 93 23 155 116 155c58 0 107 -39 154 -39c22 0 29 13 35 38h121c-2 -93 -21 -154 -115 -154c-57 0 -110 38 -154 38zM654 268v-10h-420c17 -63 68 -111 141 -111c68 0 129 25 171 54l82 -145c-62 -37 -143 -72 -260 -72
c-200 0 -329 126 -329 311v2c0 183 121 310 310 310c187 0 305 -123 305 -339zM347 459c-58 0 -98 -43 -113 -99h230c-11 58 -53 99 -117 99z" />
    <glyph glyph-name="uni0259" unicode="&#x259;" horiz-adv-x="693" 
d="M325 599c200 0 329 -126 329 -311v-2c0 -183 -121 -310 -310 -310c-187 0 -305 123 -305 339v10h420c-17 63 -68 111 -141 111c-68 0 -129 -25 -171 -54l-82 145c62 37 143 72 260 72zM346 124c58 0 98 43 113 99h-230c11 -58 53 -99 117 -99z" />
    <glyph glyph-name="f" unicode="f" horiz-adv-x="550" 
d="M118 0v410h-98v172h98v46c0 118 79 183 246 183h147v-129h-122c-60 0 -84 -26 -84 -64v-36h206v-172h-206v-410h-187z" />
    <glyph glyph-name="g" unicode="g" horiz-adv-x="695" 
d="M375 608c108 0 204 -32 269 -63v-542c0 -179 -131 -235 -275 -235c-74 0 -157 15 -191 28l-43 170c59 -23 156 -33 208 -33c87 0 113 25 113 88v20c-27 -5 -57 -8 -88 -8c-206 0 -329 105 -329 290v2c0 184 131 283 336 283zM228 321c0 -85 53 -120 148 -120
c24 0 52 3 80 9v218c-26 9 -54 12 -81 12c-93 0 -147 -33 -147 -118v-1z" />
    <glyph glyph-name="gbreve" unicode="&#x11f;" horiz-adv-x="695" 
d="M385 649c-104 0 -203 31 -213 156h139c6 -35 25 -65 75 -65c49 0 68 30 75 65h139c-10 -125 -109 -156 -215 -156zM375 608c108 0 204 -32 269 -63v-542c0 -179 -131 -235 -275 -235c-74 0 -157 15 -191 28l-43 170c59 -23 156 -33 208 -33c87 0 113 25 113 88v20
c-27 -5 -57 -8 -88 -8c-206 0 -329 105 -329 290v2c0 184 131 283 336 283zM228 321c0 -85 53 -120 148 -120c24 0 52 3 80 9v218c-26 9 -54 12 -81 12c-93 0 -147 -33 -147 -118v-1z" />
    <glyph glyph-name="gcircumflex" unicode="&#x11d;" horiz-adv-x="695" 
d="M385 721l-45 -67h-169l141 154h146l142 -154h-169zM375 608c108 0 204 -32 269 -63v-542c0 -179 -131 -235 -275 -235c-74 0 -157 15 -191 28l-43 170c59 -23 156 -33 208 -33c87 0 113 25 113 88v20c-27 -5 -57 -8 -88 -8c-206 0 -329 105 -329 290v2
c0 184 131 283 336 283zM228 321c0 -85 53 -120 148 -120c24 0 52 3 80 9v218c-26 9 -54 12 -81 12c-93 0 -147 -33 -147 -118v-1z" />
    <glyph glyph-name="uni0123" unicode="&#x123;" horiz-adv-x="695" 
d="M568 808l-77 -154h-229l178 154h128zM375 608c108 0 204 -32 269 -63v-542c0 -179 -131 -235 -275 -235c-74 0 -157 15 -191 28l-43 170c59 -23 156 -33 208 -33c87 0 113 25 113 88v20c-27 -5 -57 -8 -88 -8c-206 0 -329 105 -329 290v2c0 184 131 283 336 283zM228 321
c0 -85 53 -120 148 -120c24 0 52 3 80 9v218c-26 9 -54 12 -81 12c-93 0 -147 -33 -147 -118v-1z" />
    <glyph glyph-name="gdotaccent" unicode="&#x121;" horiz-adv-x="695" 
d="M386 655c-49 0 -90 25 -90 80c0 48 38 78 90 78c51 0 89 -30 89 -78c0 -55 -41 -80 -89 -80zM375 608c108 0 204 -32 269 -63v-542c0 -179 -131 -235 -275 -235c-74 0 -157 15 -191 28l-43 170c59 -23 156 -33 208 -33c87 0 113 25 113 88v20c-27 -5 -57 -8 -88 -8
c-206 0 -329 105 -329 290v2c0 184 131 283 336 283zM228 321c0 -85 53 -120 148 -120c24 0 52 3 80 9v218c-26 9 -54 12 -81 12c-93 0 -147 -33 -147 -118v-1z" />
    <glyph glyph-name="h" unicode="h" horiz-adv-x="657" 
d="M327 608c146 0 278 -49 278 -229v-379h-188v357c0 60 -32 83 -97 83c-21 0 -53 -3 -81 -8v-432h-188v811h188v-208c35 3 65 5 88 5z" />
    <glyph glyph-name="hbar" unicode="&#x127;" horiz-adv-x="657" 
d="M327 608c146 0 278 -49 278 -229v-379h-188v357c0 60 -32 83 -97 83c-21 0 -53 -3 -81 -8v-432h-188v658h-61v119h61v34h188v-34h116v-119h-116v-55c35 3 65 5 88 5z" />
    <glyph glyph-name="hcircumflex" unicode="&#x125;" horiz-adv-x="657" 
d="M145 937l-45 -67h-169l141 154h146l142 -154h-169zM327 608c146 0 278 -49 278 -229v-379h-188v357c0 60 -32 83 -97 83c-21 0 -53 -3 -81 -8v-432h-188v811h188v-208c35 3 65 5 88 5z" />
    <glyph glyph-name="i" unicode="i" horiz-adv-x="291" 
d="M146 654c-49 0 -90 25 -90 80c0 48 38 78 90 78c51 0 89 -30 89 -78c0 -55 -41 -80 -89 -80zM51 0v583h188v-583h-188z" />
    <glyph glyph-name="dotlessi" unicode="&#x131;" horiz-adv-x="291" 
d="M51 0v583h188v-583h-188z" />
    <glyph glyph-name="iacute" unicode="&#xed;" horiz-adv-x="291" 
d="M70 654l77 154h229l-177 -154h-129zM51 0v583h188v-583h-188z" />
    <glyph glyph-name="ibreve" unicode="&#x12d;" horiz-adv-x="291" 
d="M145 648c-104 0 -203 31 -213 156h139c6 -35 25 -65 75 -65c49 0 68 30 75 65h139c-10 -125 -109 -156 -215 -156zM51 0v583h188v-583h-188z" />
    <glyph glyph-name="uni01D0" unicode="&#x1d0;" horiz-adv-x="291" 
d="M-69 805h169l45 -67l46 67h169l-142 -154h-146zM51 0v583h188v-583h-188z" />
    <glyph glyph-name="icircumflex" unicode="&#xee;" horiz-adv-x="291" 
d="M-69 653l141 154h146l142 -154h-169l-46 67l-45 -67h-169zM51 0v583h188v-583h-188z" />
    <glyph glyph-name="idieresis" unicode="&#xef;" horiz-adv-x="291" 
d="M38 654c-49 0 -90 25 -90 80c0 48 38 78 90 78c51 0 89 -30 89 -78c0 -55 -41 -80 -89 -80zM252 654c-48 0 -90 25 -90 80c0 48 39 78 90 78c52 0 90 -30 90 -78c0 -55 -41 -80 -90 -80zM51 0v583h188v-583h-188z" />
    <glyph glyph-name="i.loclTRK" horiz-adv-x="291" 
d="M146 654c-49 0 -90 25 -90 80c0 48 38 78 90 78c51 0 89 -30 89 -78c0 -55 -41 -80 -89 -80zM51 0v583h188v-583h-188z" />
    <glyph glyph-name="uni1ECB" unicode="&#x1ecb;" horiz-adv-x="291" 
d="M146 654c-49 0 -90 25 -90 80c0 48 38 78 90 78c51 0 89 -30 89 -78c0 -55 -41 -80 -89 -80zM51 0v583h188v-583h-188zM148 -198c-48 0 -90 25 -90 80c0 47 38 78 90 78s90 -31 90 -78c0 -55 -41 -80 -90 -80z" />
    <glyph glyph-name="igrave" unicode="&#xec;" horiz-adv-x="291" 
d="M221 654h-128l-178 154h229zM51 0v583h188v-583h-188z" />
    <glyph glyph-name="ij" unicode="&#x133;" horiz-adv-x="584" 
d="M146 654c-49 0 -90 25 -90 80c0 48 38 78 90 78c51 0 89 -30 89 -78c0 -55 -41 -80 -89 -80zM444 653c-49 0 -90 25 -90 79c0 48 38 79 90 79c51 0 89 -31 89 -79c0 -54 -41 -79 -89 -79zM51 0v583h188v-583h-188zM299 -232c-27 0 -75 5 -99 12l-29 155
c26 -7 58 -12 81 -12c66 0 92 25 92 91v568h189v-574c0 -184 -67 -240 -234 -240z" />
    <glyph glyph-name="imacron" unicode="&#x12b;" horiz-adv-x="291" 
d="M-22 654v111h335v-111h-335zM51 0v583h188v-583h-188z" />
    <glyph glyph-name="iogonek" unicode="&#x12f;" horiz-adv-x="291" 
d="M146 654c-49 0 -90 25 -90 80c0 48 38 78 90 78c51 0 89 -30 89 -78c0 -55 -41 -80 -89 -80zM232 -129c16 0 33 3 46 6v-81c-21 -5 -55 -10 -93 -10c-88 0 -132 33 -132 92c0 52 47 93 114 122h-116v583h188v-583h1c-25 -16 -73 -50 -73 -86c0 -34 28 -43 65 -43z" />
    <glyph glyph-name="itilde" unicode="&#x129;" horiz-adv-x="291" 
d="M-67 650c3 93 23 155 116 155c58 0 107 -39 154 -39c22 0 29 13 35 38h121c-2 -93 -21 -154 -115 -154c-57 0 -110 38 -154 38c-23 0 -31 -11 -35 -38h-122zM51 0v583h188v-583h-188z" />
    <glyph glyph-name="j" unicode="j" horiz-adv-x="294" 
d="M148 653c-49 0 -90 25 -90 80c0 48 38 78 90 78c51 0 89 -30 89 -78c0 -55 -41 -80 -89 -80zM8 -232c-27 0 -75 5 -99 12l-29 155c26 -7 58 -12 81 -12c66 0 92 25 92 91v568h189v-574c0 -184 -67 -240 -234 -240z" />
    <glyph glyph-name="j.alt" horiz-adv-x="293" 
d="M148 653c-49 0 -90 25 -90 80c0 48 38 78 90 78c51 0 89 -30 89 -78c0 -55 -41 -80 -89 -80zM44 -232c-14 0 -35 2 -54 4l-28 151c12 -2 25 -3 34 -3c39 0 57 16 57 76v587h189v-578c0 -187 -55 -237 -198 -237z" />
    <glyph glyph-name="uni0237" unicode="&#x237;" horiz-adv-x="294" 
d="M8 -232c-27 0 -75 5 -99 12l-29 155c26 -7 58 -12 81 -12c66 0 92 25 92 91v568h189v-574c0 -184 -67 -240 -234 -240z" />
    <glyph glyph-name="jcircumflex" unicode="&#x135;" horiz-adv-x="294" 
d="M-67 652l141 154h146l142 -154h-169l-46 67l-45 -67h-169zM8 -232c-27 0 -75 5 -99 12l-29 155c26 -7 58 -12 81 -12c66 0 92 25 92 91v568h189v-574c0 -184 -67 -240 -234 -240z" />
    <glyph glyph-name="k" unicode="k" horiz-adv-x="646" 
d="M239 306l6 -11l-6 -10v-285h-188v811h188v-505zM635 0h-215l-175 295l179 287h204l-177 -285z" />
    <glyph glyph-name="uni0137" unicode="&#x137;" horiz-adv-x="646" 
d="M239 0h-188v811h188v-505l6 -11l-6 -10v-285zM635 0h-215l-175 295l179 287h204l-177 -285zM217 -270v126l211 106v-171z" />
    <glyph glyph-name="l" unicode="l" horiz-adv-x="291" 
d="M51 0v811h188v-811h-188z" />
    <glyph glyph-name="lacute" unicode="&#x13a;" horiz-adv-x="291" 
d="M85 868l77 154h229l-177 -154h-129zM51 0v811h188v-811h-188z" />
    <glyph glyph-name="lcaron" unicode="&#x13e;" horiz-adv-x="464" 
d="M51 0v811h188v-811h-188zM273 559l42 252h153l-87 -252h-108z" />
    <glyph glyph-name="uni013C" unicode="&#x13c;" horiz-adv-x="291" 
d="M51 0v811h188v-811h-188zM45 -270v126l211 106v-171z" />
    <glyph glyph-name="ldot" unicode="&#x140;" horiz-adv-x="510" 
d="M51 0v811h188v-811h-188zM380 352c-51 0 -97 29 -97 88c0 52 43 86 97 86c55 0 98 -34 98 -86c0 -59 -46 -88 -98 -88z" />
    <glyph glyph-name="lslash" unicode="&#x142;" horiz-adv-x="291" 
d="M362 477l-123 -69v-408h-188v303l-67 -37l-56 118l123 68v359h188v-254l68 38z" />
    <glyph glyph-name="m" unicode="m" horiz-adv-x="976" 
d="M51 0v578c99 18 213 31 266 31c68 0 130 -17 169 -66c46 48 115 66 190 66c150 0 249 -54 249 -229v-380h-188v358c0 51 -14 84 -78 84s-78 -33 -78 -84v-358h-188v358c0 61 -32 84 -83 84c-20 0 -44 -3 -71 -9v-433h-188z" />
    <glyph glyph-name="n" unicode="n" horiz-adv-x="657" 
d="M51 0v577c98 17 218 31 276 31c147 0 279 -49 279 -229v-379h-188v357c0 60 -32 83 -98 83c-22 0 -51 -3 -81 -8v-432h-188z" />
    <glyph glyph-name="nacute" unicode="&#x144;" horiz-adv-x="657" 
d="M249 654l77 154h229l-177 -154h-129zM51 0v577c98 17 218 31 276 31c147 0 279 -49 279 -229v-379h-188v357c0 60 -32 83 -98 83c-22 0 -51 -3 -81 -8v-432h-188z" />
    <glyph glyph-name="ncaron" unicode="&#x148;" horiz-adv-x="657" 
d="M111 805h169l45 -67l46 67h169l-142 -154h-146zM51 0v577c98 17 218 31 276 31c147 0 279 -49 279 -229v-379h-188v357c0 60 -32 83 -98 83c-22 0 -51 -3 -81 -8v-432h-188z" />
    <glyph glyph-name="uni0146" unicode="&#x146;" horiz-adv-x="657" 
d="M51 0v577c98 17 218 31 276 31c147 0 279 -49 279 -229v-379h-188v357c0 60 -32 83 -98 83c-22 0 -51 -3 -81 -8v-432h-188zM216 -270v126l211 106v-171z" />
    <glyph glyph-name="eng" unicode="&#x14b;" horiz-adv-x="657" 
d="M348 -232c-16 0 -30 2 -46 5l-30 143c20 -7 64 -11 73 -11c56 0 72 22 72 99v352c0 61 -31 84 -97 84c-22 0 -51 -2 -81 -7v-433h-188v576c97 18 218 32 276 32c146 0 279 -49 279 -229v-390c0 -170 -88 -221 -258 -221z" />
    <glyph glyph-name="ntilde" unicode="&#xf1;" horiz-adv-x="657" 
d="M112 650c3 93 23 155 116 155c58 0 107 -39 154 -39c22 0 29 13 35 38h121c-2 -93 -21 -154 -115 -154c-57 0 -110 38 -154 38c-23 0 -31 -11 -35 -38h-122zM51 0v577c98 17 218 31 276 31c147 0 279 -49 279 -229v-379h-188v357c0 60 -32 83 -98 83c-22 0 -51 -3 -81 -8
v-432h-188z" />
    <glyph glyph-name="o" unicode="o" horiz-adv-x="734" 
d="M367 -17c-194 0 -328 132 -328 313v1c0 181 133 311 328 311s328 -130 328 -311v-1c0 -181 -134 -313 -328 -313zM367 151c84 0 139 63 139 146v1c0 82 -53 142 -139 142s-139 -60 -139 -142v-1c0 -83 55 -146 139 -146z" />
    <glyph glyph-name="oacute" unicode="&#xf3;" horiz-adv-x="734" 
d="M291 653l77 154h229l-177 -154h-129zM367 -17c-194 0 -328 132 -328 313v1c0 181 133 311 328 311s328 -130 328 -311v-1c0 -181 -134 -313 -328 -313zM367 151c84 0 139 63 139 146v1c0 82 -53 142 -139 142s-139 -60 -139 -142v-1c0 -83 55 -146 139 -146z" />
    <glyph glyph-name="obreve" unicode="&#x14f;" horiz-adv-x="734" 
d="M366 648c-104 0 -203 31 -213 156h139c6 -35 25 -65 75 -65c49 0 68 30 75 65h139c-10 -125 -109 -156 -215 -156zM367 -17c-194 0 -328 132 -328 313v1c0 181 133 311 328 311s328 -130 328 -311v-1c0 -181 -134 -313 -328 -313zM367 151c84 0 139 63 139 146v1
c0 82 -53 142 -139 142s-139 -60 -139 -142v-1c0 -83 55 -146 139 -146z" />
    <glyph glyph-name="uni01D2" unicode="&#x1d2;" horiz-adv-x="734" 
d="M152 804h169l45 -67l46 67h169l-142 -154h-146zM367 -17c-194 0 -328 132 -328 313v1c0 181 133 311 328 311s328 -130 328 -311v-1c0 -181 -134 -313 -328 -313zM367 151c84 0 139 63 139 146v1c0 82 -53 142 -139 142s-139 -60 -139 -142v-1c0 -83 55 -146 139 -146z
" />
    <glyph glyph-name="ocircumflex" unicode="&#xf4;" horiz-adv-x="734" 
d="M152 653l141 154h146l142 -154h-169l-46 67l-45 -67h-169zM367 -17c-194 0 -328 132 -328 313v1c0 181 133 311 328 311s328 -130 328 -311v-1c0 -181 -134 -313 -328 -313zM367 151c84 0 139 63 139 146v1c0 82 -53 142 -139 142s-139 -60 -139 -142v-1
c0 -83 55 -146 139 -146z" />
    <glyph glyph-name="odieresis" unicode="&#xf6;" horiz-adv-x="734" 
d="M260 653c-49 0 -90 25 -90 80c0 48 38 78 90 78c51 0 89 -30 89 -78c0 -55 -41 -80 -89 -80zM474 653c-48 0 -90 25 -90 80c0 48 39 78 90 78c52 0 90 -30 90 -78c0 -55 -41 -80 -90 -80zM367 -17c-194 0 -328 132 -328 313v1c0 181 133 311 328 311s328 -130 328 -311
v-1c0 -181 -134 -313 -328 -313zM367 151c84 0 139 63 139 146v1c0 82 -53 142 -139 142s-139 -60 -139 -142v-1c0 -83 55 -146 139 -146z" />
    <glyph glyph-name="uni1ECD" unicode="&#x1ecd;" horiz-adv-x="734" 
d="M367 -17c-194 0 -328 132 -328 313v1c0 181 133 311 328 311s328 -130 328 -311v-1c0 -181 -134 -313 -328 -313zM367 151c84 0 139 63 139 146v1c0 82 -53 142 -139 142s-139 -60 -139 -142v-1c0 -83 55 -146 139 -146zM366 -198c-48 0 -90 25 -90 80c0 47 38 78 90 78
s90 -31 90 -78c0 -55 -41 -80 -90 -80z" />
    <glyph glyph-name="ograve" unicode="&#xf2;" horiz-adv-x="734" 
d="M442 653h-128l-178 154h229zM367 -17c-194 0 -328 132 -328 313v1c0 181 133 311 328 311s328 -130 328 -311v-1c0 -181 -134 -313 -328 -313zM367 151c84 0 139 63 139 146v1c0 82 -53 142 -139 142s-139 -60 -139 -142v-1c0 -83 55 -146 139 -146z" />
    <glyph glyph-name="ohungarumlaut" unicode="&#x151;" horiz-adv-x="734" 
d="M145 653l44 154h229l-144 -154h-129zM412 653l44 154h229l-144 -154h-129zM367 -17c-194 0 -328 132 -328 313v1c0 181 133 311 328 311s328 -130 328 -311v-1c0 -181 -134 -313 -328 -313zM367 151c84 0 139 63 139 146v1c0 82 -53 142 -139 142s-139 -60 -139 -142v-1
c0 -83 55 -146 139 -146z" />
    <glyph glyph-name="omacron" unicode="&#x14d;" horiz-adv-x="734" 
d="M199 653v111h335v-111h-335zM367 -17c-194 0 -328 132 -328 313v1c0 181 133 311 328 311s328 -130 328 -311v-1c0 -181 -134 -313 -328 -313zM367 151c84 0 139 63 139 146v1c0 82 -53 142 -139 142s-139 -60 -139 -142v-1c0 -83 55 -146 139 -146z" />
    <glyph glyph-name="oslash" unicode="&#xf8;" horiz-adv-x="734" 
d="M610 515c54 -55 85 -130 85 -218v-1c0 -181 -134 -313 -328 -313c-63 0 -119 14 -167 38l-38 -46h-120l84 101c-55 55 -87 132 -87 220v1c0 181 133 311 328 311c63 0 120 -14 168 -39l37 45h120zM228 297c0 -28 6 -54 18 -76l174 210c-16 6 -33 9 -53 9
c-86 0 -139 -60 -139 -142v-1zM506 297v1c0 27 -6 51 -16 72l-175 -210c16 -6 33 -9 52 -9c84 0 139 63 139 146z" />
    <glyph glyph-name="otilde" unicode="&#xf5;" horiz-adv-x="734" 
d="M154 649c3 93 23 155 116 155c58 0 107 -39 154 -39c22 0 29 13 35 38h121c-2 -93 -21 -154 -115 -154c-57 0 -110 38 -154 38c-23 0 -31 -11 -35 -38h-122zM367 -17c-194 0 -328 132 -328 313v1c0 181 133 311 328 311s328 -130 328 -311v-1c0 -181 -134 -313 -328 -313
zM367 151c84 0 139 63 139 146v1c0 82 -53 142 -139 142s-139 -60 -139 -142v-1c0 -83 55 -146 139 -146z" />
    <glyph glyph-name="oe" unicode="&#x153;" horiz-adv-x="1169" 
d="M1130 268v-10h-420c17 -63 68 -111 141 -111c68 0 129 25 171 54l82 -145c-62 -37 -143 -72 -260 -72c-101 0 -183 32 -241 87c-57 -55 -139 -88 -236 -88c-194 0 -328 132 -328 313v1c0 181 133 311 328 311c96 0 177 -31 234 -85c54 53 131 84 224 84
c187 0 305 -123 305 -339zM823 459c-58 0 -98 -43 -113 -99h230c-11 58 -53 99 -117 99zM506 297v1c0 82 -53 142 -139 142s-139 -60 -139 -142v-1c0 -83 55 -146 139 -146s139 63 139 146z" />
    <glyph glyph-name="p" unicode="p" horiz-adv-x="693" 
d="M51 -220v766c71 31 161 62 275 62c200 0 328 -131 328 -312v-2c0 -180 -120 -310 -320 -310c-33 0 -65 5 -95 12v-216h-188zM326 152c91 0 139 61 139 142v2c0 82 -48 144 -139 144c-31 0 -61 -3 -87 -11v-265c26 -6 58 -12 87 -12z" />
    <glyph glyph-name="thorn" unicode="&#xfe;" horiz-adv-x="693" 
d="M51 -220v1031h188v-209c28 3 56 6 87 6c200 0 328 -131 328 -312v-2c0 -180 -120 -310 -320 -310c-33 0 -65 5 -95 12v-216h-188zM326 152c91 0 139 61 139 142v2c0 82 -48 144 -139 144c-31 0 -61 -3 -87 -11v-265c26 -6 58 -12 87 -12z" />
    <glyph glyph-name="q" unicode="q" horiz-adv-x="693" 
d="M642 -220h-188v216c-30 -7 -62 -12 -95 -12c-200 0 -320 130 -320 310v2c0 181 128 312 328 312c114 0 204 -31 275 -62v-766zM367 152c29 0 62 6 87 12v265c-26 8 -56 11 -87 11c-91 0 -139 -62 -139 -144v-2c0 -81 48 -142 139 -142z" />
    <glyph glyph-name="r" unicode="r" horiz-adv-x="457" 
d="M51 0v561c90 18 198 22 252 22h117v-174h-88c-17 0 -83 -3 -93 -5v-404h-188z" />
    <glyph glyph-name="racute" unicode="&#x155;" horiz-adv-x="457" 
d="M163 653l77 154h229l-177 -154h-129zM51 0v561c90 18 198 22 252 22h117v-174h-88c-17 0 -83 -3 -93 -5v-404h-188z" />
    <glyph glyph-name="rcaron" unicode="&#x159;" horiz-adv-x="457" 
d="M25 804h169l45 -67l46 67h169l-142 -154h-146zM51 0v561c90 18 198 22 252 22h117v-174h-88c-17 0 -83 -3 -93 -5v-404h-188z" />
    <glyph glyph-name="uni0157" unicode="&#x157;" horiz-adv-x="457" 
d="M51 0v561c90 18 198 22 252 22h117v-174h-88c-17 0 -83 -3 -93 -5v-404h-188zM46 -270v126l211 106v-171z" />
    <glyph glyph-name="s" unicode="s" horiz-adv-x="601" 
d="M303 -14c-95 0 -180 17 -265 54l49 129c71 -29 140 -43 198 -43c59 0 97 10 97 43c0 23 -18 34 -90 53l-55 15c-120 32 -177 90 -177 190c0 110 86 180 243 180c91 0 185 -20 244 -53l-53 -125c-52 27 -120 38 -168 38c-47 0 -74 -9 -74 -34c0 -23 22 -35 83 -51l38 -11
c130 -36 191 -97 191 -189c0 -132 -85 -196 -261 -196z" />
    <glyph glyph-name="sacute" unicode="&#x15b;" horiz-adv-x="601" 
d="M248 653l77 154h229l-177 -154h-129zM303 -14c-95 0 -180 17 -265 54l49 129c71 -29 140 -43 198 -43c59 0 97 10 97 43c0 23 -18 34 -90 53l-55 15c-120 32 -177 90 -177 190c0 110 86 180 243 180c91 0 185 -20 244 -53l-53 -125c-52 27 -120 38 -168 38
c-47 0 -74 -9 -74 -34c0 -23 22 -35 83 -51l38 -11c130 -36 191 -97 191 -189c0 -132 -85 -196 -261 -196z" />
    <glyph glyph-name="scaron" unicode="&#x161;" horiz-adv-x="601" 
d="M109 804h169l45 -67l46 67h169l-142 -154h-146zM303 -14c-95 0 -180 17 -265 54l49 129c71 -29 140 -43 198 -43c59 0 97 10 97 43c0 23 -18 34 -90 53l-55 15c-120 32 -177 90 -177 190c0 110 86 180 243 180c91 0 185 -20 244 -53l-53 -125c-52 27 -120 38 -168 38
c-47 0 -74 -9 -74 -34c0 -23 22 -35 83 -51l38 -11c130 -36 191 -97 191 -189c0 -132 -85 -196 -261 -196z" />
    <glyph glyph-name="scedilla" unicode="&#x15f;" horiz-adv-x="601" 
d="M564 182c0 -127 -79 -191 -242 -196l-24 -32h17c70 0 107 -37 107 -87v-2c0 -52 -46 -85 -115 -85c-38 0 -65 7 -76 12l-29 75c28 -10 82 -18 105 -18c29 0 37 11 37 22v1c0 10 -8 21 -38 21c-10 0 -35 -1 -57 -6l-34 38l52 62c-81 4 -155 21 -229 53l49 129
c71 -29 140 -43 198 -43c59 0 97 10 97 43c0 23 -18 34 -90 53l-55 15c-120 32 -177 90 -177 190c0 110 86 180 243 180c91 0 185 -20 244 -53l-53 -125c-52 27 -120 38 -168 38c-47 0 -74 -9 -74 -34c0 -23 22 -35 83 -51l38 -11c130 -36 191 -97 191 -189z" />
    <glyph glyph-name="scircumflex" unicode="&#x15d;" horiz-adv-x="601" 
d="M109 653l141 154h146l142 -154h-169l-46 67l-45 -67h-169zM303 -14c-95 0 -180 17 -265 54l49 129c71 -29 140 -43 198 -43c59 0 97 10 97 43c0 23 -18 34 -90 53l-55 15c-120 32 -177 90 -177 190c0 110 86 180 243 180c91 0 185 -20 244 -53l-53 -125
c-52 27 -120 38 -168 38c-47 0 -74 -9 -74 -34c0 -23 22 -35 83 -51l38 -11c130 -36 191 -97 191 -189c0 -132 -85 -196 -261 -196z" />
    <glyph glyph-name="uni0219" unicode="&#x219;" horiz-adv-x="601" 
d="M303 -14c-95 0 -180 17 -265 54l49 129c71 -29 140 -43 198 -43c59 0 97 10 97 43c0 23 -18 34 -90 53l-55 15c-120 32 -177 90 -177 190c0 110 86 180 243 180c91 0 185 -20 244 -53l-53 -125c-52 27 -120 38 -168 38c-47 0 -74 -9 -74 -34c0 -23 22 -35 83 -51l38 -11
c130 -36 191 -97 191 -189c0 -132 -85 -196 -261 -196zM212 -270v126l211 106v-171z" />
    <glyph glyph-name="germandbls" unicode="&#xdf;" horiz-adv-x="740" 
d="M539 437c102 -29 162 -110 162 -213v-5c0 -142 -85 -231 -259 -231c-36 0 -72 7 -101 15l-45 170c40 -15 73 -20 103 -20c77 0 119 38 119 98v2c0 56 -39 101 -137 101h-31v132h12c62 0 97 39 97 86v2c0 49 -37 84 -100 84c-87 0 -120 -59 -120 -146v-512h-188v499
c0 248 126 326 322 326c158 0 270 -90 270 -215v-4c0 -65 -33 -136 -104 -169z" />
    <glyph glyph-name="t" unicode="t" horiz-adv-x="553" 
d="M305 0c-135 0 -187 62 -187 192v217h-98v173h98v171h188v-171h205v-173h-205v-157c0 -52 25 -77 85 -77h121v-175h-207z" />
    <glyph glyph-name="tbar" unicode="&#x167;" horiz-adv-x="553" 
d="M512 264h-206v-12c0 -52 25 -77 85 -77h121v-175h-207c-135 0 -187 62 -187 192v72h-93v119h93v26h-98v173h98v171h188v-171h205v-173h-205v-26h206v-119z" />
    <glyph glyph-name="tcaron" unicode="&#x165;" horiz-adv-x="576" 
d="M364 641l42 170h153l-87 -170h-108zM305 0c-135 0 -187 62 -187 192v217h-98v173h98v171h188v-171h205v-173h-205v-157c0 -52 25 -77 85 -77h121v-175h-207z" />
    <glyph glyph-name="uni0163" unicode="&#x163;" horiz-adv-x="553" 
d="M512 0h-159l-34 -46h17c70 0 107 -37 107 -87v-2c0 -52 -46 -85 -115 -85c-38 0 -65 7 -76 12l-29 75c28 -10 82 -18 105 -18c29 0 37 11 37 22v1c0 10 -8 21 -38 21c-10 0 -35 -1 -57 -6l-34 38l63 75h6c-135 0 -187 62 -187 192v217h-98v173h98v171h188v-171h205v-173
h-205v-157c0 -52 25 -77 85 -77h121v-175z" />
    <glyph glyph-name="uni021B" unicode="&#x21b;" horiz-adv-x="553" 
d="M305 0c-135 0 -187 62 -187 192v217h-98v173h98v171h188v-171h205v-173h-205v-157c0 -52 25 -77 85 -77h121v-175h-207zM218 -270v126l211 106v-171z" />
    <glyph glyph-name="u" unicode="u" horiz-adv-x="657" 
d="M330 -17c-147 0 -279 50 -279 229v371h188v-356c0 -61 32 -83 98 -83c22 0 51 2 81 8v431h188v-568c-98 -18 -218 -32 -276 -32z" />
    <glyph glyph-name="uacute" unicode="&#xfa;" horiz-adv-x="657" 
d="M253 654l77 154h229l-177 -154h-129zM330 -17c-147 0 -279 50 -279 229v371h188v-356c0 -61 32 -83 98 -83c22 0 51 2 81 8v431h188v-568c-98 -18 -218 -32 -276 -32z" />
    <glyph glyph-name="ubreve" unicode="&#x16d;" horiz-adv-x="657" 
d="M328 648c-104 0 -203 31 -213 156h139c6 -35 25 -65 75 -65c49 0 68 30 75 65h139c-10 -125 -109 -156 -215 -156zM330 -17c-147 0 -279 50 -279 229v371h188v-356c0 -61 32 -83 98 -83c22 0 51 2 81 8v431h188v-568c-98 -18 -218 -32 -276 -32z" />
    <glyph glyph-name="uni01D4" unicode="&#x1d4;" horiz-adv-x="657" 
d="M114 805h169l45 -67l46 67h169l-142 -154h-146zM330 -17c-147 0 -279 50 -279 229v371h188v-356c0 -61 32 -83 98 -83c22 0 51 2 81 8v431h188v-568c-98 -18 -218 -32 -276 -32z" />
    <glyph glyph-name="ucircumflex" unicode="&#xfb;" horiz-adv-x="657" 
d="M114 653l141 154h146l142 -154h-169l-46 67l-45 -67h-169zM330 -17c-147 0 -279 50 -279 229v371h188v-356c0 -61 32 -83 98 -83c22 0 51 2 81 8v431h188v-568c-98 -18 -218 -32 -276 -32z" />
    <glyph glyph-name="udieresis" unicode="&#xfc;" horiz-adv-x="657" 
d="M222 654c-49 0 -90 25 -90 80c0 48 38 78 90 78c51 0 89 -30 89 -78c0 -55 -41 -80 -89 -80zM436 654c-48 0 -90 25 -90 80c0 48 39 78 90 78c52 0 90 -30 90 -78c0 -55 -41 -80 -90 -80zM330 -17c-147 0 -279 50 -279 229v371h188v-356c0 -61 32 -83 98 -83
c22 0 51 2 81 8v431h188v-568c-98 -18 -218 -32 -276 -32z" />
    <glyph glyph-name="uni1EE5" unicode="&#x1ee5;" horiz-adv-x="657" 
d="M330 -17c-147 0 -279 50 -279 229v371h188v-356c0 -61 32 -83 98 -83c22 0 51 2 81 8v431h188v-568c-98 -18 -218 -32 -276 -32zM344 -198c-48 0 -90 25 -90 80c0 47 38 78 90 78s90 -31 90 -78c0 -55 -41 -80 -90 -80z" />
    <glyph glyph-name="ugrave" unicode="&#xf9;" horiz-adv-x="657" 
d="M404 654h-128l-178 154h229zM330 -17c-147 0 -279 50 -279 229v371h188v-356c0 -61 32 -83 98 -83c22 0 51 2 81 8v431h188v-568c-98 -18 -218 -32 -276 -32z" />
    <glyph glyph-name="uhungarumlaut" unicode="&#x171;" horiz-adv-x="657" 
d="M107 654l44 154h229l-144 -154h-129zM374 654l44 154h229l-144 -154h-129zM330 -17c-147 0 -279 50 -279 229v371h188v-356c0 -61 32 -83 98 -83c22 0 51 2 81 8v431h188v-568c-98 -18 -218 -32 -276 -32z" />
    <glyph glyph-name="umacron" unicode="&#x16b;" horiz-adv-x="657" 
d="M161 654v111h335v-111h-335zM330 -17c-147 0 -279 50 -279 229v371h188v-356c0 -61 32 -83 98 -83c22 0 51 2 81 8v431h188v-568c-98 -18 -218 -32 -276 -32z" />
    <glyph glyph-name="uogonek" unicode="&#x173;" horiz-adv-x="657" 
d="M598 -115c16 0 33 3 46 6v-81c-21 -5 -55 -10 -93 -10c-88 0 -132 33 -132 92c0 43 33 79 82 106c-68 -9 -133 -15 -171 -15c-147 0 -279 50 -279 229v371h188v-356c0 -61 32 -83 98 -83c22 0 51 2 81 8v431h188v-568h-2l2 -1c-25 -16 -73 -50 -73 -86
c0 -34 28 -43 65 -43z" />
    <glyph glyph-name="uring" unicode="&#x16f;" horiz-adv-x="657" 
d="M331 652c-69 0 -126 55 -126 125c0 69 56 123 125 123c70 0 126 -55 126 -124c0 -70 -55 -124 -125 -124zM331 733c25 0 43 19 43 43s-18 42 -44 42c-24 0 -43 -18 -42 -42c-1 -24 18 -43 43 -43zM330 -17c-147 0 -279 50 -279 229v371h188v-356c0 -61 32 -83 98 -83
c22 0 51 2 81 8v431h188v-568c-98 -18 -218 -32 -276 -32z" />
    <glyph glyph-name="utilde" unicode="&#x169;" horiz-adv-x="657" 
d="M116 650c3 93 23 155 116 155c58 0 107 -39 154 -39c22 0 29 13 35 38h121c-2 -93 -21 -154 -115 -154c-57 0 -110 38 -154 38c-23 0 -31 -11 -35 -38h-122zM330 -17c-147 0 -279 50 -279 229v371h188v-356c0 -61 32 -83 98 -83c22 0 51 2 81 8v431h188v-568
c-98 -18 -218 -32 -276 -32z" />
    <glyph glyph-name="v" unicode="v" horiz-adv-x="653" 
d="M444 582h197l-185 -582h-259l-185 582h196l118 -449z" />
    <glyph glyph-name="w" unicode="w" horiz-adv-x="940" 
d="M723 582h195l-133 -582h-237l-52 286c-8 45 -17 90 -26 134c-6 -37 -14 -78 -26 -135l-52 -285h-233l-137 582h194l49 -296c11 -52 18 -91 25 -127l23 127l50 296h213l52 -295l22 -119c7 35 16 76 24 118z" />
    <glyph glyph-name="wacute" unicode="&#x1e83;" horiz-adv-x="940" 
d="M700 807l-177 -154h-129l77 154h229zM723 582h195l-133 -582h-237l-52 286c-8 45 -17 90 -26 134c-6 -37 -14 -78 -26 -135l-52 -285h-233l-137 582h194l49 -296c11 -52 18 -91 25 -127l23 127l50 296h213l52 -295l22 -119c7 35 16 76 24 118z" />
    <glyph glyph-name="wcircumflex" unicode="&#x175;" horiz-adv-x="940" 
d="M469 720l-45 -67h-169l141 154h146l142 -154h-169zM723 582h195l-133 -582h-237l-52 286c-8 45 -17 90 -26 134c-6 -37 -14 -78 -26 -135l-52 -285h-233l-137 582h194l49 -296c11 -52 18 -91 25 -127l23 127l50 296h213l52 -295l22 -119c7 35 16 76 24 118z" />
    <glyph glyph-name="wdieresis" unicode="&#x1e85;" horiz-adv-x="940" 
d="M363 653c-49 0 -90 25 -90 80c0 48 38 78 90 78c51 0 89 -30 89 -78c0 -55 -41 -80 -89 -80zM577 653c-48 0 -90 25 -90 80c0 48 39 78 90 78c52 0 90 -30 90 -78c0 -55 -41 -80 -90 -80zM723 582h195l-133 -582h-237l-52 286c-8 45 -17 90 -26 134
c-6 -37 -14 -78 -26 -135l-52 -285h-233l-137 582h194l49 -296c11 -52 18 -91 25 -127l23 127l50 296h213l52 -295l22 -119c7 35 16 76 24 118z" />
    <glyph glyph-name="wgrave" unicode="&#x1e81;" horiz-adv-x="940" 
d="M545 653h-128l-178 154h229zM723 582h195l-133 -582h-237l-52 286c-8 45 -17 90 -26 134c-6 -37 -14 -78 -26 -135l-52 -285h-233l-137 582h194l49 -296c11 -52 18 -91 25 -127l23 127l50 296h213l52 -295l22 -119c7 35 16 76 24 118z" />
    <glyph glyph-name="x" unicode="x" horiz-adv-x="684" 
d="M672 0h-219l-116 156l-118 -156h-206l221 297l-209 286h218l101 -139l104 139h212l-212 -280z" />
    <glyph glyph-name="y" unicode="y" horiz-adv-x="657" 
d="M417 578h189v-576c0 -178 -131 -234 -275 -234c-74 0 -157 15 -192 28l-43 175c60 -25 157 -37 209 -37c87 0 112 24 112 87v17c-35 -3 -66 -5 -87 -5c-147 0 -279 49 -279 228v321h188v-326c0 -60 32 -82 98 -82c23 0 56 2 80 5v399z" />
    <glyph glyph-name="yacute" unicode="&#xfd;" horiz-adv-x="657" 
d="M558 808l-177 -154h-129l77 154h229zM417 578h189v-576c0 -178 -131 -234 -275 -234c-74 0 -157 15 -192 28l-43 175c60 -25 157 -37 209 -37c87 0 112 24 112 87v17c-35 -3 -66 -5 -87 -5c-147 0 -279 49 -279 228v321h188v-326c0 -60 32 -82 98 -82c23 0 56 2 80 5v399
z" />
    <glyph glyph-name="ycircumflex" unicode="&#x177;" horiz-adv-x="657" 
d="M327 720l-45 -67h-169l141 154h146l142 -154h-169zM417 578h189v-576c0 -178 -131 -234 -275 -234c-74 0 -157 15 -192 28l-43 175c60 -25 157 -37 209 -37c87 0 112 24 112 87v17c-35 -3 -66 -5 -87 -5c-147 0 -279 49 -279 228v321h188v-326c0 -60 32 -82 98 -82
c23 0 56 2 80 5v399z" />
    <glyph glyph-name="ydieresis" unicode="&#xff;" horiz-adv-x="657" 
d="M220 654c-49 0 -90 25 -90 80c0 48 38 78 90 78c51 0 89 -30 89 -78c0 -55 -41 -80 -89 -80zM434 654c-48 0 -90 25 -90 80c0 48 39 78 90 78c52 0 90 -30 90 -78c0 -55 -41 -80 -90 -80zM417 578h189v-576c0 -178 -131 -234 -275 -234c-74 0 -157 15 -192 28l-43 175
c60 -25 157 -37 209 -37c87 0 112 24 112 87v17c-35 -3 -66 -5 -87 -5c-147 0 -279 49 -279 228v321h188v-326c0 -60 32 -82 98 -82c23 0 56 2 80 5v399z" />
    <glyph glyph-name="ygrave" unicode="&#x1ef3;" horiz-adv-x="657" 
d="M403 654h-128l-178 154h229zM417 578h189v-576c0 -178 -131 -234 -275 -234c-74 0 -157 15 -192 28l-43 175c60 -25 157 -37 209 -37c87 0 112 24 112 87v17c-35 -3 -66 -5 -87 -5c-147 0 -279 49 -279 228v321h188v-326c0 -60 32 -82 98 -82c23 0 56 2 80 5v399z" />
    <glyph glyph-name="uni0233" unicode="&#x233;" horiz-adv-x="657" 
d="M495 765v-111h-335v111h335zM417 578h189v-576c0 -178 -131 -234 -275 -234c-74 0 -157 15 -192 28l-43 175c60 -25 157 -37 209 -37c87 0 112 24 112 87v17c-35 -3 -66 -5 -87 -5c-147 0 -279 49 -279 228v321h188v-326c0 -60 32 -82 98 -82c23 0 56 2 80 5v399z" />
    <glyph glyph-name="z" unicode="z" horiz-adv-x="574" 
d="M247 173h294v-173h-509v153l277 257h-259v172h483v-151z" />
    <glyph glyph-name="zacute" unicode="&#x17a;" horiz-adv-x="574" 
d="M529 807l-177 -154h-129l77 154h229zM247 173h294v-173h-509v153l277 257h-259v172h483v-151z" />
    <glyph glyph-name="zcaron" unicode="&#x17e;" horiz-adv-x="574" 
d="M371 650h-146l-141 154h169l45 -67l46 67h169zM247 173h294v-173h-509v153l277 257h-259v172h483v-151z" />
    <glyph glyph-name="zdotaccent" unicode="&#x17c;" horiz-adv-x="574" 
d="M299 653c-49 0 -90 25 -90 80c0 48 38 78 90 78c51 0 89 -30 89 -78c0 -55 -41 -80 -89 -80zM247 173h294v-173h-509v153l277 257h-259v172h483v-151z" />
    <glyph glyph-name="ordfeminine" unicode="&#xaa;" horiz-adv-x="494" 
d="M252 824c127 0 203 -44 203 -175v-270c-59 -13 -138 -23 -202 -23c-131 0 -214 38 -214 145v1c0 94 74 137 190 137c29 0 57 -1 87 -5v9c0 47 -35 64 -95 64c-41 0 -104 -8 -151 -25l32 121c29 10 93 21 150 21zM182 510c0 -36 27 -49 78 -49c19 0 37 1 56 3v90
c-18 4 -39 6 -56 6c-50 0 -78 -12 -78 -49v-1z" />
    <glyph glyph-name="ordmasculine" unicode="&#xba;" horiz-adv-x="564" 
d="M282 344c-149 0 -243 102 -243 242v1c0 139 93 240 243 240s243 -101 243 -240v-1c0 -140 -94 -242 -243 -242zM282 472c68 0 103 50 103 114v1c0 65 -35 113 -103 113s-102 -48 -102 -113v-1c0 -64 35 -114 102 -114z" />
    <glyph glyph-name="uni0394" unicode="&#x394;" horiz-adv-x="906" 
d="M551 805l342 -806h-881l342 806h197zM452 599l-171 -425h341z" />
    <glyph glyph-name="uni03A9" unicode="&#x3a9;" horiz-adv-x="907" 
d="M850 509c0 -116 -72 -216 -182 -267v-66h159v-176h-323v315c102 15 158 79 158 171v5c0 95 -83 156 -208 156s-208 -61 -208 -156v-4c0 -93 62 -157 158 -172v-315h-323v176h158v67c-109 50 -179 149 -182 263v5c0 203 160 314 396 314c238 0 397 -111 397 -314v-2z" />
    <glyph glyph-name="uni03BC" unicode="&#x3bc;" horiz-adv-x="728" 
d="M691 169v-182c-80 0 -138 10 -179 34c-48 -25 -110 -35 -178 -35c-36 0 -67 3 -95 9v-214h-188v802h189v-331c0 -63 32 -83 94 -83s94 20 94 83v331h189v-323c0 -65 23 -91 74 -91z" />
    <glyph glyph-name="pi" unicode="&#x3c0;" horiz-adv-x="858" 
d="M129 0v409h-72v174h750v-174h-85v-180c0 -46 14 -54 63 -54h24v-175h-52c-175 0 -223 40 -223 170v239h-217v-409h-188z" />
    <glyph glyph-name="uni0621" unicode="&#x621;" horiz-adv-x="527" 
d="M45 0v194c0 223 107 321 312 321h48v-183h-82c-64 0 -103 -30 -103 -104v-42h264v-186h-439z" />
    <glyph glyph-name="uni0627" unicode="&#x627;" horiz-adv-x="334" 
d="M74 0v811h186v-811h-186z" />
    <glyph glyph-name="uni0627.short" horiz-adv-x="334" 
d="M74 0v692h186v-692h-186z" />
    <glyph glyph-name="uniFE8E.short" horiz-adv-x="349" 
d="M260 186h109v-186h-295v692h186v-506z" />
    <glyph glyph-name="uni0623" unicode="&#x623;" horiz-adv-x="334" 
d="M67 758v66c0 83 53 115 127 115h46v-65h-45c-19 0 -32 -12 -32 -30v-8h104v-78h-200zM74 0v692h186v-692h-186z" />
    <glyph glyph-name="uni0625" unicode="&#x625;" horiz-adv-x="334" 
d="M74 0v811h186v-811h-186zM64 -241v66c0 82 53 115 127 115h52v-65h-51c-19 0 -32 -12 -32 -30v-9h110v-77h-206z" />
    <glyph glyph-name="uni0622" unicode="&#x622;" horiz-adv-x="334" 
d="M59 856v85h215v-85h-215zM74 0v811h186v-811h-186z" />
    <glyph glyph-name="uni0671" unicode="&#x671;" horiz-adv-x="334" 
d="M44 738v75c0 73 42 111 122 111h1c80 0 122 -38 122 -111v-75h-245zM134 813h65v7c0 22 -11 33 -32 33h-1c-21 0 -32 -11 -32 -33v-7zM74 0v692h186v-692h-186z" />
    <glyph glyph-name="uni066E" unicode="&#x66e;" horiz-adv-x="889" 
d="M376 0c-230 0 -333 118 -333 332v174h186v-155c0 -114 70 -165 187 -165h227v397h186v-583h-453z" />
    <glyph glyph-name="uni066E.ss01" horiz-adv-x="951" 
d="M329 0c-134 0 -229 33 -304 88l78 148c66 -39 127 -50 201 -50h401v397h186v-583h-562z" />
    <glyph glyph-name="uni066E.fina.ss01" horiz-adv-x="980" 
d="M891 186h109v-186h-671c-134 0 -229 33 -304 88l78 148c66 -39 127 -50 201 -50h401v397h186v-397z" />
    <glyph glyph-name="uni066E.medi.alt" horiz-adv-x="494" 
d="M0 0v186h154v397h186v-397h174v-186h-514z" />
    <glyph glyph-name="uni066E.init.alt" horiz-adv-x="445" 
d="M0 0v186h198v397h187v-583h-385z" />
    <glyph glyph-name="uni0628" unicode="&#x628;" horiz-adv-x="889" 
d="M376 0c-230 0 -333 118 -333 332v174h186v-155c0 -114 70 -165 187 -165h227v397h186v-583h-453zM482 -257c-51 0 -97 28 -97 87c0 52 43 86 97 86s96 -34 96 -86c0 -59 -46 -87 -96 -87z" />
    <glyph glyph-name="uni0628.ss01" horiz-adv-x="951" 
d="M329 0c-134 0 -229 33 -304 88l78 148c66 -39 127 -50 201 -50h401v397h186v-583h-562zM527 -257c-51 0 -97 28 -97 87c0 52 43 86 97 86s96 -34 96 -86c0 -59 -46 -87 -96 -87z" />
    <glyph glyph-name="uniFE90.ss01" horiz-adv-x="980" 
d="M891 186h109v-186h-671c-134 0 -229 33 -304 88l78 148c66 -39 127 -50 201 -50h401v397h186v-397zM527 -84c54 0 96 -34 96 -86c0 -59 -46 -87 -96 -87c-51 0 -97 28 -97 87c0 52 43 86 97 86z" />
    <glyph glyph-name="uni067E" unicode="&#x67e;" horiz-adv-x="889" 
d="M376 0c-230 0 -333 118 -333 332v174h186v-155c0 -114 70 -165 187 -165h227v397h186v-583h-453zM374 -254c-47 0 -91 27 -91 83c0 50 39 82 91 82c53 0 92 -32 92 -82c0 -56 -44 -83 -92 -83zM590 -254c-48 0 -92 27 -92 83c0 50 40 82 92 82c53 0 91 -32 91 -82
c0 -56 -43 -83 -91 -83zM482 -394c-39 0 -78 23 -78 71c0 41 33 69 78 69c46 0 79 -28 79 -69c0 -48 -35 -71 -79 -71z" />
    <glyph glyph-name="uniFB57.ss01" horiz-adv-x="980" 
d="M891 186h109v-186h-671c-134 0 -229 33 -304 88l78 148c66 -39 127 -50 201 -50h401v397h186v-397zM511 -171c0 -56 -44 -83 -92 -83c-47 0 -91 27 -91 83c0 50 39 82 91 82c53 0 92 -32 92 -82zM635 -89c53 0 91 -32 91 -82c0 -56 -43 -83 -91 -83s-92 27 -92 83
c0 50 40 82 92 82zM527 -254c46 0 79 -28 79 -69c0 -48 -35 -71 -79 -71c-39 0 -78 23 -78 71c0 41 33 69 78 69z" />
    <glyph glyph-name="uni067E.ss01" horiz-adv-x="951" 
d="M329 0c-134 0 -229 33 -304 88l78 148c66 -39 127 -50 201 -50h401v397h186v-583h-562zM419 -254c-47 0 -91 27 -91 83c0 50 39 82 91 82c53 0 92 -32 92 -82c0 -56 -44 -83 -92 -83zM635 -254c-48 0 -92 27 -92 83c0 50 40 82 92 82c53 0 91 -32 91 -82
c0 -56 -43 -83 -91 -83zM527 -394c-39 0 -78 23 -78 71c0 41 33 69 78 69c46 0 79 -28 79 -69c0 -48 -35 -71 -79 -71z" />
    <glyph glyph-name="uni062A" unicode="&#x62a;" horiz-adv-x="889" 
d="M345 650c-50 0 -95 28 -95 85c0 52 42 86 95 86c54 0 96 -34 96 -86c0 -57 -45 -85 -96 -85zM568 650c-50 0 -95 28 -95 85c0 52 41 86 95 86c55 0 96 -34 96 -86c0 -57 -45 -85 -96 -85zM376 0c-230 0 -333 118 -333 332v174h186v-155c0 -114 70 -165 187 -165h227v397
h186v-583h-453z" />
    <glyph glyph-name="uni062A.ss01" horiz-adv-x="951" 
d="M329 0c-134 0 -229 33 -304 88l78 148c66 -39 127 -50 201 -50h401v397h186v-583h-562zM305 366c-50 0 -95 28 -95 85c0 52 42 86 95 86c54 0 96 -34 96 -86c0 -57 -45 -85 -96 -85zM528 366c-50 0 -95 28 -95 85c0 52 41 86 95 86c55 0 96 -34 96 -86
c0 -57 -45 -85 -96 -85z" />
    <glyph glyph-name="uniFE96.ss01" horiz-adv-x="980" 
d="M891 186h109v-186h-671c-134 0 -229 33 -304 88l78 148c66 -39 127 -50 201 -50h401v397h186v-397zM305 366c-50 0 -95 28 -95 85c0 52 42 86 95 86c54 0 96 -34 96 -86c0 -57 -45 -85 -96 -85zM528 366c-50 0 -95 28 -95 85c0 52 41 86 95 86c55 0 96 -34 96 -86
c0 -57 -45 -85 -96 -85z" />
    <glyph glyph-name="uni062B" unicode="&#x62b;" horiz-adv-x="889" 
d="M456 812c-39 0 -78 23 -78 71c0 41 33 69 78 69c46 0 79 -28 79 -69c0 -48 -37 -71 -79 -71zM348 650c-47 0 -91 27 -91 83c0 49 39 81 91 81c53 0 92 -32 92 -81c0 -56 -44 -83 -92 -83zM564 650c-48 0 -92 27 -92 83c0 49 40 81 92 81c53 0 91 -32 91 -81
c0 -56 -43 -83 -91 -83zM376 0c-230 0 -333 118 -333 332v174h186v-155c0 -114 70 -165 187 -165h227v397h186v-583h-453z" />
    <glyph glyph-name="uni062B.ss01" horiz-adv-x="951" 
d="M416 528c-39 0 -78 23 -78 71c0 41 33 69 78 69c46 0 79 -28 79 -69c0 -48 -37 -71 -79 -71zM329 0c-134 0 -229 33 -304 88l78 148c66 -39 127 -50 201 -50h401v397h186v-583h-562zM308 366c-47 0 -91 27 -91 83c0 49 39 81 91 81c53 0 92 -32 92 -81
c0 -56 -44 -83 -92 -83zM524 366c-48 0 -92 27 -92 83c0 49 40 81 92 81c53 0 91 -32 91 -81c0 -56 -43 -83 -91 -83z" />
    <glyph glyph-name="uniFE9A.ss01" horiz-adv-x="980" 
d="M416 528c-39 0 -78 23 -78 71c0 41 33 69 78 69c46 0 79 -28 79 -69c0 -48 -37 -71 -79 -71zM891 186h109v-186h-671c-134 0 -229 33 -304 88l78 148c66 -39 127 -50 201 -50h401v397h186v-397zM308 366c-47 0 -91 27 -91 83c0 49 39 81 91 81c53 0 92 -32 92 -81
c0 -56 -44 -83 -92 -83zM432 449c0 49 40 81 92 81c53 0 91 -32 91 -81c0 -56 -43 -83 -91 -83s-92 27 -92 83z" />
    <glyph glyph-name="uni0679" unicode="&#x679;" horiz-adv-x="889" 
d="M334 637v213h95v-35h43c64 0 107 -41 107 -103v-75h-245zM429 712h55v12c0 13 -8 21 -21 21h-34v-33zM376 0c-230 0 -333 118 -333 332v174h186v-155c0 -114 70 -165 187 -165h227v397h186v-583h-453z" />
    <glyph glyph-name="uni0679.ss01" horiz-adv-x="951" 
d="M329 0c-134 0 -229 33 -304 88l78 148c66 -39 127 -50 201 -50h401v397h186v-583h-562zM294 352v213h95v-35h43c64 0 107 -41 107 -103v-75h-245zM389 427h55v12c0 13 -8 21 -21 21h-34v-33z" />
    <glyph glyph-name="uniFB67.ss01" horiz-adv-x="980" 
d="M891 186h109v-186h-671c-134 0 -229 33 -304 88l78 148c66 -39 127 -50 201 -50h401v397h186v-397zM539 427v-75h-245v213h95v-35h43c64 0 107 -41 107 -103zM444 427v12c0 13 -8 21 -21 21h-34v-33h55z" />
    <glyph glyph-name="uni062C" unicode="&#x62c;" horiz-adv-x="674" 
d="M43 -220v146c0 166 89 260 246 260h153c9 30 14 67 14 102c0 85 -55 138 -140 138c-54 0 -97 -12 -148 -47l-67 170c68 37 150 64 228 64c201 0 303 -129 303 -335c0 -100 -28 -211 -49 -278h-245c-88 0 -120 -32 -120 -115v-105h-175zM418 -266c-51 0 -97 28 -97 87
c0 52 43 86 97 86s96 -34 96 -86c0 -59 -46 -87 -96 -87z" />
    <glyph glyph-name="uni0686" unicode="&#x686;" horiz-adv-x="794" 
d="M164 -171l-145 108l76 98c83 107 170 151 303 151h162c9 30 15 67 15 102c0 85 -56 138 -140 138c-55 0 -97 -12 -149 -47l-67 170c69 37 151 64 229 64c200 0 302 -129 302 -335c0 -100 -28 -211 -48 -278h-288c-86 0 -140 -28 -191 -96zM379 -249c-47 0 -91 27 -91 83
c0 50 39 82 91 82c53 0 92 -32 92 -82c0 -56 -44 -83 -92 -83zM595 -249c-48 0 -92 27 -92 83c0 50 40 82 92 82c53 0 91 -32 91 -82c0 -56 -43 -83 -91 -83zM487 -389c-39 0 -78 23 -78 71c0 41 33 69 78 69c46 0 79 -28 79 -69c0 -48 -35 -71 -79 -71z" />
    <glyph glyph-name="uni062D" unicode="&#x62d;" horiz-adv-x="674" 
d="M43 -220v146c0 166 89 260 246 260h153c9 30 14 67 14 102c0 85 -55 138 -140 138c-54 0 -97 -12 -148 -47l-67 170c68 37 150 64 228 64c201 0 303 -129 303 -335c0 -100 -28 -211 -49 -278h-245c-88 0 -120 -32 -120 -115v-105h-175z" />
    <glyph glyph-name="uni062D.alt" horiz-adv-x="794" 
d="M165 -171l-145 108l76 98c83 107 170 151 303 151h162c9 30 15 67 15 102c0 85 -56 138 -140 138c-55 0 -97 -12 -149 -47l-67 170c69 37 151 64 229 64c200 0 302 -129 302 -335c0 -100 -28 -211 -48 -278h-288c-86 0 -140 -28 -191 -96z" />
    <glyph glyph-name="uniFEA2.alt" horiz-adv-x="818" 
d="M744 186h94v-186h-423c-86 0 -140 -28 -191 -96l-59 -75l-145 108l76 98c83 107 170 151 303 151h162c9 30 15 67 15 102c0 85 -56 138 -140 138c-55 0 -97 -12 -149 -47l-67 170c69 37 151 64 229 64c200 0 302 -129 302 -335c0 -30 -3 -61 -7 -92z" />
    <glyph glyph-name="uni062E" unicode="&#x62e;" horiz-adv-x="674" 
d="M329 700c-51 0 -97 28 -97 87c0 52 43 86 97 86s96 -34 96 -86c0 -59 -46 -87 -96 -87zM43 -220v146c0 166 89 260 246 260h153c9 30 14 67 14 102c0 85 -55 138 -140 138c-54 0 -97 -12 -148 -47l-67 170c68 37 150 64 228 64c201 0 303 -129 303 -335
c0 -100 -28 -211 -49 -278h-245c-88 0 -120 -32 -120 -115v-105h-175z" />
    <glyph glyph-name="uni062F" unicode="&#x62f;" horiz-adv-x="583" 
d="M20 0v186h338v96c0 75 -35 114 -108 114h-53v187h24c217 0 312 -110 312 -321v-262h-513z" />
    <glyph glyph-name="uni0630" unicode="&#x630;" horiz-adv-x="583" 
d="M226 670c-51 0 -97 28 -97 87c0 52 43 86 97 86s96 -34 96 -86c0 -59 -46 -87 -96 -87zM20 0v186h338v96c0 75 -35 114 -108 114h-53v187h24c217 0 312 -110 312 -321v-262h-513z" />
    <glyph glyph-name="uni0688" unicode="&#x688;" horiz-adv-x="583" 
d="M103 654v213h95v-35h43c64 0 107 -41 107 -103v-75h-245zM198 729h55v12c0 13 -8 21 -21 21h-34v-33zM20 0v186h338v96c0 75 -35 114 -108 114h-53v187h24c217 0 312 -110 312 -321v-262h-513z" />
    <glyph glyph-name="uni0631" unicode="&#x631;" horiz-adv-x="396" 
d="M87 -220c-30 0 -60 3 -86 9l-20 161c36 -2 59 -2 87 -2c45 0 82 25 82 99v536h186v-504c0 -235 -84 -299 -249 -299z" />
    <glyph glyph-name="uni0632" unicode="&#x632;" horiz-adv-x="396" 
d="M244 670c-51 0 -97 28 -97 87c0 52 43 86 97 86s96 -34 96 -86c0 -59 -46 -87 -96 -87zM87 -220c-30 0 -60 3 -86 9l-20 161c36 -2 59 -2 87 -2c45 0 82 25 82 99v536h186v-504c0 -235 -84 -299 -249 -299z" />
    <glyph glyph-name="uni0691" unicode="&#x691;" horiz-adv-x="396" 
d="M121 654v213h95v-35h43c64 0 107 -41 107 -103v-75h-245zM216 729h55v12c0 13 -8 21 -21 21h-34v-33zM87 -220c-30 0 -60 3 -86 9l-20 161c36 -2 59 -2 87 -2c45 0 82 25 82 99v536h186v-504c0 -235 -84 -299 -249 -299z" />
    <glyph glyph-name="uni0698" unicode="&#x698;" horiz-adv-x="396" 
d="M244 829c-39 0 -78 23 -78 71c0 41 33 69 78 69c46 0 79 -28 79 -69c0 -48 -37 -71 -79 -71zM136 667c-47 0 -91 27 -91 83c0 49 39 81 91 81c53 0 92 -32 92 -81c0 -56 -44 -83 -92 -83zM352 667c-48 0 -92 27 -92 83c0 49 40 81 92 81c53 0 91 -32 91 -81
c0 -56 -43 -83 -91 -83zM87 -220c-30 0 -60 3 -86 9l-20 161c36 -2 59 -2 87 -2c45 0 82 25 82 99v536h186v-504c0 -235 -84 -299 -249 -299z" />
    <glyph glyph-name="uni0633" unicode="&#x633;" horiz-adv-x="1460" 
d="M1223 585h187v-276c0 -212 -87 -319 -288 -319c-90 0 -165 32 -207 94c-50 -54 -125 -84 -219 -84h-51v-125h-269c-212 0 -333 119 -333 325v314h186v-292c0 -114 71 -161 176 -161h54v453h186v-328h50c57 0 141 22 141 126v202h186v-229c0 -70 40 -108 100 -108
c63 0 101 40 101 112v296z" />
    <glyph glyph-name="uni0633.ss01" horiz-adv-x="1562" 
d="M1325 585h187v-276c0 -212 -87 -319 -288 -319c-90 0 -165 32 -207 94c-50 -54 -125 -84 -219 -84h-51v-125h-440c-122 0 -208 28 -282 79l60 158c65 -38 127 -51 203 -51h273v453h186v-328h50c57 0 141 22 141 126v202h186v-229c0 -70 40 -108 100 -108
c63 0 101 40 101 112v296z" />
    <glyph glyph-name="uniFEB2.ss01" horiz-adv-x="1624" 
d="M1624 186h20v-186h-20c-77 0 -141 29 -175 76c-47 -57 -121 -86 -225 -86c-90 0 -165 32 -207 94c-50 -54 -125 -84 -219 -84h-51v-125h-440c-122 0 -208 28 -282 79l60 158c65 -38 127 -51 203 -51h273v453h186v-328h50c57 0 141 22 141 126v202h186v-229
c0 -70 40 -108 100 -108c63 0 101 40 101 112v296h187v-260c0 -91 39 -139 112 -139z" />
    <glyph glyph-name="uni0634" unicode="&#x634;" horiz-adv-x="1460" 
d="M931 761c-39 0 -78 23 -78 71c0 41 33 69 78 69c46 0 79 -28 79 -69c0 -48 -37 -71 -79 -71zM823 599c-47 0 -91 27 -91 83c0 49 39 81 91 81c53 0 92 -32 92 -81c0 -56 -44 -83 -92 -83zM947 682c0 49 40 81 92 81c53 0 91 -32 91 -81c0 -56 -43 -83 -91 -83
s-92 27 -92 83zM1223 585h187v-276c0 -212 -87 -319 -288 -319c-90 0 -165 32 -207 94c-50 -54 -125 -84 -219 -84h-51v-125h-269c-212 0 -333 119 -333 325v314h186v-292c0 -114 71 -161 176 -161h54v453h186v-328h50c57 0 141 22 141 126v202h186v-229
c0 -70 40 -108 100 -108c63 0 101 40 101 112v296z" />
    <glyph glyph-name="uni0634.ss01" horiz-adv-x="1562" 
d="M1033 761c-39 0 -78 23 -78 71c0 41 33 69 78 69c46 0 79 -28 79 -69c0 -48 -37 -71 -79 -71zM925 599c-47 0 -91 27 -91 83c0 49 39 81 91 81c53 0 92 -32 92 -81c0 -56 -44 -83 -92 -83zM1049 682c0 49 40 81 92 81c53 0 91 -32 91 -81c0 -56 -43 -83 -91 -83
s-92 27 -92 83zM1325 585h187v-276c0 -212 -87 -319 -288 -319c-90 0 -165 32 -207 94c-50 -54 -125 -84 -219 -84h-51v-125h-440c-122 0 -208 28 -282 79l60 158c65 -38 127 -51 203 -51h273v453h186v-328h50c57 0 141 22 141 126v202h186v-229c0 -70 40 -108 100 -108
c63 0 101 40 101 112v296z" />
    <glyph glyph-name="uniFEB6.ss01" horiz-adv-x="1624" 
d="M1033 761c-39 0 -78 23 -78 71c0 41 33 69 78 69c46 0 79 -28 79 -69c0 -48 -37 -71 -79 -71zM925 599c-47 0 -91 27 -91 83c0 49 39 81 91 81c53 0 92 -32 92 -81c0 -56 -44 -83 -92 -83zM1049 682c0 49 40 81 92 81c53 0 91 -32 91 -81c0 -56 -43 -83 -91 -83
s-92 27 -92 83zM1624 186h20v-186h-20c-77 0 -141 29 -175 76c-47 -57 -121 -86 -225 -86c-90 0 -165 32 -207 94c-50 -54 -125 -84 -219 -84h-51v-125h-440c-122 0 -208 28 -282 79l60 158c65 -38 127 -51 203 -51h273v453h186v-328h50c57 0 141 22 141 126v202h186v-229
c0 -70 40 -108 100 -108c63 0 101 40 101 112v296h187v-260c0 -91 39 -139 112 -139z" />
    <glyph glyph-name="uni0635" unicode="&#x635;" horiz-adv-x="1223" 
d="M1173 251v-251h-528v-125h-269c-212 0 -333 119 -333 325v314h186v-292c0 -114 71 -161 176 -161h54v579h186v-57h199c210 -1 329 -122 329 -332zM986 186v98c0 71 -48 112 -125 112h-216v-210h341z" />
    <glyph glyph-name="uni0635.ss01" horiz-adv-x="1325" 
d="M1275 251v-251h-528v-125h-440c-122 0 -208 28 -282 79l60 158c65 -38 127 -51 203 -51h273v579h186v-57h199c210 -1 329 -122 329 -332zM1088 186v98c0 71 -48 112 -125 112h-216v-210h341z" />
    <glyph glyph-name="uniFEBA.ss01" horiz-adv-x="1364" 
d="M1275 186h109v-186h-637v-125h-440c-122 0 -208 28 -282 79l60 158c65 -38 127 -51 203 -51h273v579h186v-57h199c210 -1 329 -122 329 -332v-65zM1088 186v98c0 71 -48 112 -125 112h-216v-210h341z" />
    <glyph glyph-name="uni0636" unicode="&#x636;" horiz-adv-x="1223" 
d="M849 670c-51 0 -97 28 -97 87c0 52 43 86 97 86s96 -34 96 -86c0 -59 -46 -87 -96 -87zM1173 251v-251h-528v-125h-269c-212 0 -333 119 -333 325v314h186v-292c0 -114 71 -161 176 -161h54v579h186v-57h199c210 -1 329 -122 329 -332zM986 186v98c0 71 -48 112 -125 112
h-216v-210h341z" />
    <glyph glyph-name="uni0636.ss01" horiz-adv-x="1325" 
d="M951 670c-51 0 -97 28 -97 87c0 52 43 86 97 86s96 -34 96 -86c0 -59 -46 -87 -96 -87zM1275 251v-251h-528v-125h-440c-122 0 -208 28 -282 79l60 158c65 -38 127 -51 203 -51h273v579h186v-57h199c210 -1 329 -122 329 -332zM1088 186v98c0 71 -48 112 -125 112h-216
v-210h341z" />
    <glyph glyph-name="uniFEBE.ss01" horiz-adv-x="1364" 
d="M951 670c-51 0 -97 28 -97 87c0 52 43 86 97 86s96 -34 96 -86c0 -59 -46 -87 -96 -87zM1275 186h109v-186h-637v-125h-440c-122 0 -208 28 -282 79l60 158c65 -38 127 -51 203 -51h273v579h186v-57h199c210 -1 329 -122 329 -332v-65zM1088 186v98
c0 71 -48 112 -125 112h-216v-210h341z" />
    <glyph glyph-name="uni0637" unicode="&#x637;" horiz-adv-x="898" 
d="M519 583c210 -1 329 -122 329 -332v-251h-828l34 186h80v625h186v-228h199zM661 186v98c0 71 -48 112 -125 112h-216v-210h341z" />
    <glyph glyph-name="uni0638" unicode="&#x638;" horiz-adv-x="898" 
d="M546 670c-51 0 -97 28 -97 87c0 52 43 86 97 86s96 -34 96 -86c0 -59 -46 -87 -96 -87zM519 583c210 -1 329 -122 329 -332v-251h-828l34 186h80v625h186v-228h199zM661 186v98c0 71 -48 112 -125 112h-216v-210h341z" />
    <glyph glyph-name="uni0639" unicode="&#x639;" horiz-adv-x="734" 
d="M387 186h304v-186h-361c-75 0 -112 -36 -112 -108v-112h-175v154c0 122 58 209 156 240c-19 66 -27 118 -27 162c0 179 121 277 289 277c61 0 142 -21 216 -51l-61 -172c-48 22 -93 36 -142 36c-71 0 -126 -44 -126 -122c0 -40 13 -80 39 -118z" />
    <glyph glyph-name="uni063A" unicode="&#x63a;" horiz-adv-x="734" 
d="M462 700c-51 0 -97 28 -97 87c0 52 43 86 97 86s96 -34 96 -86c0 -59 -46 -87 -96 -87zM386 186h304v-186h-361c-75 0 -112 -36 -112 -108v-112h-175v154c0 122 58 209 156 240c-19 66 -27 118 -27 162c0 179 121 277 289 277c61 0 142 -21 216 -51l-61 -172
c-48 22 -93 36 -142 36c-71 0 -126 -44 -126 -122c0 -40 13 -80 39 -118z" />
    <glyph glyph-name="uni0641" unicode="&#x641;" horiz-adv-x="1065" 
d="M795 670c-51 0 -97 28 -97 87c0 52 43 86 97 86s96 -34 96 -86c0 -59 -46 -87 -96 -87zM819 583h185v-583h-10h-200h-419c-230 0 -333 118 -333 332v174h186v-155c0 -114 70 -165 187 -165h81c-11 32 -17 66 -17 104v1c0 175 136 292 340 292zM777 186h40v211h-40
c-67 0 -123 -37 -123 -106v-1c0 -67 56 -104 123 -104z" />
    <glyph glyph-name="uni0641.ss01" horiz-adv-x="1030" 
d="M760 670c-51 0 -97 28 -97 87c0 52 43 86 97 86s96 -34 96 -86c0 -59 -46 -87 -96 -87zM785 583h185v-583h-10h-200h-431c-134 0 -229 33 -304 88l78 148c66 -39 127 -50 201 -50h158c-11 32 -17 66 -17 104v1c0 175 136 292 340 292zM744 186h40v211h-40
c-68 0 -123 -37 -123 -106v-1c0 -67 55 -104 123 -104z" />
    <glyph glyph-name="uniFED2.ss01" horiz-adv-x="1059" 
d="M760 670c-51 0 -97 28 -97 87c0 52 43 86 97 86s96 -34 96 -86c0 -59 -46 -87 -96 -87zM970 186h109v-186h-119h-200h-431c-134 0 -229 33 -304 88l78 148c66 -39 127 -50 201 -50h158c-11 32 -17 66 -17 104v1c0 175 136 292 340 292h185v-397zM744 186h40v211h-40
c-68 0 -123 -37 -123 -106v-1c0 -67 55 -104 123 -104z" />
    <glyph glyph-name="uni06A4" unicode="&#x6a4;" horiz-adv-x="1065" 
d="M795 829c-39 0 -78 23 -78 71c0 41 33 69 78 69c46 0 79 -28 79 -69c0 -48 -37 -71 -79 -71zM687 667c-47 0 -91 27 -91 83c0 49 39 81 91 81c53 0 92 -32 92 -81c0 -56 -44 -83 -92 -83zM811 750c0 49 40 81 92 81c53 0 91 -32 91 -81c0 -56 -43 -83 -91 -83
s-92 27 -92 83zM819 583h185v-583h-10h-200h-419c-230 0 -333 118 -333 332v174h186v-155c0 -114 70 -165 187 -165h81c-11 32 -17 66 -17 104v1c0 175 136 292 340 292zM777 186h40v211h-40c-67 0 -123 -37 -123 -106v-1c0 -67 56 -104 123 -104z" />
    <glyph glyph-name="uni06A4.ss01" horiz-adv-x="1030" 
d="M760 829c-39 0 -78 23 -78 71c0 41 33 69 78 69c46 0 79 -28 79 -69c0 -48 -37 -71 -79 -71zM652 667c-47 0 -91 27 -91 83c0 49 39 81 91 81c53 0 92 -32 92 -81c0 -56 -44 -83 -92 -83zM776 750c0 49 40 81 92 81c53 0 91 -32 91 -81c0 -56 -43 -83 -91 -83
s-92 27 -92 83zM785 583h185v-583h-10h-200h-431c-134 0 -229 33 -304 88l78 148c66 -39 127 -50 201 -50h158c-11 32 -17 66 -17 104v1c0 175 136 292 340 292zM744 186h40v211h-40c-68 0 -123 -37 -123 -106v-1c0 -67 55 -104 123 -104z" />
    <glyph glyph-name="uniFB6B.ss01" horiz-adv-x="1094" 
d="M795 829c-39 0 -78 23 -78 71c0 41 33 69 78 69c46 0 79 -28 79 -69c0 -48 -37 -71 -79 -71zM687 667c-47 0 -91 27 -91 83c0 49 39 81 91 81c53 0 92 -32 92 -81c0 -56 -44 -83 -92 -83zM811 750c0 49 40 81 92 81c53 0 91 -32 91 -81c0 -56 -43 -83 -91 -83
s-92 27 -92 83zM1004 186h109v-186h-119h-200h-419c-230 0 -333 118 -333 332v174h186v-155c0 -114 70 -165 187 -165h81c-11 32 -17 66 -17 104v1c0 175 136 292 340 292h185v-397zM777 186h40v211h-40c-67 0 -123 -37 -123 -106v-1c0 -67 56 -104 123 -104z" />
    <glyph glyph-name="uni06A1" unicode="&#x6a1;" horiz-adv-x="1065" 
d="M820 583h185v-583h-10h-200h-419c-230 0 -333 118 -333 332v174h186v-155c0 -114 70 -165 187 -165h81c-11 32 -17 66 -17 104v1c0 175 136 292 340 292zM778 186h40v211h-40c-67 0 -123 -37 -123 -106v-1c0 -67 56 -104 123 -104z" />
    <glyph glyph-name="uni06A1.ss01" horiz-adv-x="1030" 
d="M785 583h185v-583h-10h-200h-431c-134 0 -229 33 -304 88l78 148c66 -39 127 -50 201 -50h158c-11 32 -17 66 -17 104v1c0 175 136 292 340 292zM744 186h40v211h-40c-68 0 -123 -37 -123 -106v-1c0 -67 55 -104 123 -104z" />
    <glyph glyph-name="uni06A1.fina.ss01" horiz-adv-x="1059" 
d="M970 186h109v-186h-119h-200h-431c-134 0 -229 33 -304 88l78 148c66 -39 127 -50 201 -50h158c-11 32 -17 66 -17 104v1c0 175 136 292 340 292h185v-397zM744 186h40v211h-40c-68 0 -123 -37 -123 -106v-1c0 -67 55 -104 123 -104z" />
    <glyph glyph-name="uni066F" unicode="&#x66f;" horiz-adv-x="914" 
d="M670 583h184v-803h-478c-224 0 -333 112 -333 332v196h186v-177c0 -118 77 -165 187 -165h252v65h-24c-186 0 -314 90 -314 259v1c0 175 135 292 340 292zM628 186h40v211h-40c-68 0 -123 -37 -123 -106v-1c0 -67 56 -104 123 -104z" />
    <glyph glyph-name="uni066F.ss01" horiz-adv-x="908" 
d="M663 583h185v-803h-519c-134 0 -229 33 -304 88l78 148c66 -40 127 -50 201 -50h357v65h-23c-187 0 -315 90 -315 259v1c0 175 136 292 340 292zM621 186h40v211h-40c-67 0 -123 -37 -123 -106v-1c0 -67 56 -104 123 -104z" />
    <glyph glyph-name="uni066F.fina.ss01" horiz-adv-x="937" 
d="M957 186v-186h-109v-220h-519c-134 0 -229 33 -304 88l78 148c66 -40 127 -50 201 -50h357v65h-23c-187 0 -315 90 -315 259v1c0 175 136 292 340 292h185v-397h109zM621 186h40v211h-40c-67 0 -123 -37 -123 -106v-1c0 -67 56 -104 123 -104z" />
    <glyph glyph-name="uni0642" unicode="&#x642;" horiz-adv-x="914" 
d="M532 667c-50 0 -95 28 -95 85c0 52 42 86 95 86c54 0 96 -34 96 -86c0 -57 -45 -85 -96 -85zM755 667c-50 0 -95 28 -95 85c0 52 41 86 95 86c55 0 96 -34 96 -86c0 -57 -45 -85 -96 -85zM670 583h184v-803h-478c-224 0 -333 112 -333 332v196h186v-177
c0 -118 77 -165 187 -165h252v65h-24c-186 0 -314 90 -314 259v1c0 175 135 292 340 292zM628 186h40v211h-40c-68 0 -123 -37 -123 -106v-1c0 -67 56 -104 123 -104z" />
    <glyph glyph-name="uni0642.ss01" horiz-adv-x="908" 
d="M526 667c-50 0 -95 28 -95 85c0 52 42 86 95 86c54 0 96 -34 96 -86c0 -57 -45 -85 -96 -85zM749 667c-50 0 -95 28 -95 85c0 52 41 86 95 86c55 0 96 -34 96 -86c0 -57 -45 -85 -96 -85zM662 583h185v-803h-519c-134 0 -229 33 -304 88l78 148c66 -40 127 -50 201 -50
h357v65h-23c-187 0 -315 90 -315 259v1c0 175 136 292 340 292zM620 186h40v211h-40c-67 0 -123 -37 -123 -106v-1c0 -67 56 -104 123 -104z" />
    <glyph glyph-name="uniFED6.ss01" horiz-adv-x="937" 
d="M525 667c-50 0 -95 28 -95 85c0 52 42 86 95 86c54 0 96 -34 96 -86c0 -57 -45 -85 -96 -85zM748 667c-50 0 -95 28 -95 85c0 52 41 86 95 86c55 0 96 -34 96 -86c0 -57 -45 -85 -96 -85zM957 186v-186h-109v-220h-519c-134 0 -229 33 -304 88l78 148
c66 -40 127 -50 201 -50h357v65h-23c-187 0 -315 90 -315 259v1c0 175 136 292 340 292h185v-397h109zM621 186h40v211h-40c-67 0 -123 -37 -123 -106v-1c0 -67 56 -104 123 -104z" />
    <glyph glyph-name="uni0643" unicode="&#x643;" horiz-adv-x="903" 
d="M642 811h186v-811h-453c-230 0 -333 118 -333 332v174h186v-155c0 -114 70 -165 187 -165h227v625zM563 598v-92h-255v105h165v4c0 16 -10 26 -26 26h-107c-11 24 -20 52 -26 79l53 66h115l-66 -65h40c70 0 107 -42 107 -123z" />
    <glyph glyph-name="uni0643.ss01" horiz-adv-x="965" 
d="M705 811h186v-811h-562c-134 0 -229 33 -304 88l78 148c66 -39 127 -50 201 -50h401v625zM558 456v-92h-255v105h165v4c0 16 -10 26 -26 26h-107c-11 24 -20 52 -26 79l53 66h115l-66 -65h40c70 0 107 -42 107 -123z" />
    <glyph glyph-name="uniFEDA.ss01" horiz-adv-x="980" 
d="M891 186h109v-186h-671c-134 0 -229 33 -304 88l78 148c66 -39 127 -50 201 -50h401v625h186v-625zM558 456v-92h-255v105h165v4c0 16 -10 26 -26 26h-107c-11 24 -20 52 -26 79l53 66h115l-66 -65h40c70 0 107 -42 107 -123z" />
    <glyph glyph-name="uniFEDB.alt" horiz-adv-x="874" 
d="M0 0v186h635v72c0 65 -39 101 -100 101h-282c-29 41 -57 106 -57 185l141 267h228l-160 -266h106c207 0 313 -100 313 -321v-224h-824z" />
    <glyph glyph-name="uni06A9" unicode="&#x6a9;" horiz-adv-x="1003" 
d="M376 0c-230 0 -333 118 -333 332v174h186v-155c0 -114 70 -165 187 -165h348v72c0 65 -39 101 -100 101h-252c-28 41 -56 106 -57 185l142 268h227l-160 -267h76c207 0 313 -100 313 -321v-224h-577z" />
    <glyph glyph-name="uni06A9.ss01" horiz-adv-x="982" 
d="M329 0c-134 0 -229 33 -304 88l78 148c66 -39 127 -50 201 -50h440v72c0 65 -39 101 -100 101h-282c-29 41 -57 106 -58 185l142 267h227l-159 -266h106c207 0 312 -100 312 -321v-224h-603z" />
    <glyph glyph-name="uniFB8F.ss01" horiz-adv-x="1021" 
d="M932 186h109v-186h-712c-134 0 -229 33 -304 88l78 148c66 -39 127 -50 201 -50h440v72c0 65 -39 101 -100 101h-282c-29 41 -57 106 -58 185l142 267h227l-159 -266h106c207 0 312 -100 312 -321v-38z" />
    <glyph glyph-name="uni06AF" unicode="&#x6af;" horiz-adv-x="1003" 
d="M134 542l150 273h126l-149 -272zM375 0c-230 0 -333 118 -333 332v174h186v-155c0 -114 70 -165 187 -165h348v72c0 65 -39 101 -100 101h-252c-28 41 -56 106 -57 185l142 268h227l-160 -267h76c207 0 313 -100 313 -321v-224h-577z" />
    <glyph glyph-name="uni06AF.ss01" horiz-adv-x="982" 
d="M89 542l150 273h126l-149 -272zM329 0c-134 0 -229 33 -304 88l78 148c66 -39 127 -50 201 -50h440v72c0 65 -39 101 -100 101h-282c-29 41 -57 106 -58 185l142 267h227l-159 -266h106c207 0 312 -100 312 -321v-224h-603z" />
    <glyph glyph-name="uniFB93.ss01" horiz-adv-x="1021" 
d="M365 815l-149 -272l-127 -1l150 273h126zM932 186h109v-186h-712c-134 0 -229 33 -304 88l78 148c66 -39 127 -50 201 -50h440v72c0 65 -39 101 -100 101h-282c-29 41 -57 106 -58 185l142 267h227l-159 -266h106c207 0 312 -100 312 -321v-38z" />
    <glyph glyph-name="uni06AA" unicode="&#x6aa;" horiz-adv-x="1003" 
d="M375 0c-230 0 -333 118 -333 332v174h186v-155c0 -114 70 -165 187 -165h348v72c0 65 -39 101 -100 101h-252c-28 41 -56 106 -57 185l142 268h227l-160 -267h76c207 0 313 -100 313 -321v-224h-577z" />
    <glyph glyph-name="uni0644" unicode="&#x644;" horiz-adv-x="719" 
d="M376 -125c-212 0 -333 119 -333 325v314h186v-292c0 -114 71 -161 176 -161h54v750h186v-936h-269z" />
    </font>
</defs>
</svg>
