<?xml version="1.0" standalone="no"?>
<!DOCTYPE svg PUBLIC "-//W3C//DTD SVG 1.1//EN" "http://www.w3.org/Graphics/SVG/1.1/DTD/svg11.dtd" >
<svg xmlns="http://www.w3.org/2000/svg" xmlns:xlink="http://www.w3.org/1999/xlink" version="1.1">
<metadata>
Created by FontForge 20190801 at Fri Oct 25 09:21:00 2019
 By Jimmy Wärting
Copyright \(c\) 2019 by 29Letters. All rights reserved.
</metadata>
<defs>
<font id="29LTBukra-Light" horiz-adv-x="0" >
  <font-face 
    font-family="29LT Bukra Light"
    font-weight="300"
    font-stretch="normal"
    units-per-em="1000"
    panose-1="2 11 4 4 4 0 0 0 0 4"
    ascent="800"
    descent="-200"
    x-height="547"
    cap-height="811"
    bbox="-833 -402 1923 1083"
    underline-thickness="50"
    underline-position="-100"
    stemh="48"
    stemv="69"
    unicode-range="U+000D-FEFC"
  />
<missing-glyph horiz-adv-x="500" 
 />
    <glyph glyph-name="f_b.liga" unicode="fb" horiz-adv-x="1064" 
d="M730 563c183 0 288 -124 288 -286v-2c0 -163 -107 -287 -290 -287c-86 0 -150 11 -219 35v726h-158c-94 0 -140 -42 -140 -122v-80h204v-62h-204v-485h-70v485h-111v62h111v80c0 125 77 184 210 184h228v-273c50 14 101 25 151 25zM947 275v2c0 123 -75 223 -219 223
c-50 0 -101 -13 -149 -26v-406c46 -10 92 -17 149 -17c144 0 219 101 219 224z" />
    <glyph glyph-name="f_h.liga" unicode="fh" horiz-adv-x="1037" 
d="M745 563c130 0 228 -49 228 -201v-362h-70v354c0 108 -62 146 -163 146c-43 0 -104 -6 -161 -17v-483h-70v749h-158c-94 0 -140 -42 -140 -122v-80h204v-62h-204v-485h-70v485h-111v62h111v80c0 125 77 184 210 184h228v-262c64 9 123 14 166 14z" />
    <glyph glyph-name="f_k.liga" unicode="fk" horiz-adv-x="991" 
d="M976 0h-92l-305 272v-272h-70v749h-158c-94 0 -140 -42 -140 -122v-80h204v-62h-204v-485h-70v485h-111v62h111v80c0 125 77 184 210 184h228v-530l293 266h82l-289 -268z" />
    <glyph glyph-name="f_t.liga" unicode="ft" horiz-adv-x="863" 
d="M735 66h84v-66h-110c-144 0 -186 59 -186 172v311h-111v2h-201v-485h-70v485h-111v62h111v80c0 125 77 184 210 184h86v-62h-86c-94 0 -140 -42 -140 -122v-80h312v191h70v-191h225v-64h-225v-288c0 -100 49 -129 142 -129z" />
    <glyph glyph-name="fi" unicode="fi" horiz-adv-x="576" 
d="M351 749c-94 0 -140 -42 -140 -122v-80h231v1h70v-548h-70v485h-231v-485h-70v485h-111v62h111v80c0 125 77 184 210 184h161v-62h-161z" />
    <glyph glyph-name="fl" unicode="fl" horiz-adv-x="643" 
d="M579 811v-811h-70v749h-158c-94 0 -140 -42 -140 -122v-80h204v-62h-204v-485h-70v485h-111v62h111v80c0 125 77 184 210 184h228z" />
    <glyph glyph-name="uniFE91FE8E" unicode="&#xfe91;&#xfe8e;" horiz-adv-x="512" 
d="M373 548h69v-548h-351v811h69v-742h213v479zM267 -134c24 0 45 -19 45 -45c0 -27 -22 -45 -45 -45c-25 0 -47 18 -47 45c0 26 22 45 47 45z" />
    <glyph glyph-name="uniFE91FE84" unicode="&#xfe91;&#xfe84;" horiz-adv-x="512" 
d="M198 819v-43h-145v63c0 62 33 103 96 103h16v-40h-19c-36 0 -50 -24 -50 -60v-23h102zM373 548h69v-548h-351v691h69v-622h213v479zM267 -134c24 0 45 -19 45 -45c0 -27 -22 -45 -45 -45c-25 0 -47 18 -47 45c0 26 22 45 47 45z" />
    <glyph glyph-name="uniFE91FE82" unicode="&#xfe91;&#xfe82;" horiz-adv-x="512" 
d="M213 788v-47h-175v47h175zM373 548h69v-548h-351v691h69v-622h213v479zM267 -134c24 0 45 -19 45 -45c0 -27 -22 -45 -45 -45c-25 0 -47 18 -47 45c0 26 22 45 47 45z" />
    <glyph glyph-name="uniFE91FB51" unicode="&#xfe91;&#xfb51;" horiz-adv-x="512" 
d="M227 797v-61h-204v61c0 59 33 89 97 89h9c64 0 98 -30 98 -89zM177 778v22c0 30 -16 46 -48 46h-8c-33 0 -48 -16 -48 -46v-22h104zM373 548h69v-548h-351v691h69v-622h213v479zM267 -134c24 0 45 -19 45 -45c0 -27 -22 -45 -45 -45c-25 0 -47 18 -47 45
c0 26 22 45 47 45z" />
    <glyph glyph-name="uniFC6A" unicode="&#xfe92;&#xfeae;" horiz-adv-x="694" arabic-form="final" 
d="M691 70h22v-70h-22c-156 0 -239 85 -239 246v233h-228v-512c0 -142 -55 -187 -163 -187c-24 0 -51 4 -75 10l-5 60c28 -5 50 -7 74 -7c63 0 101 30 101 114v591h296v120h69v-425c0 -114 58 -173 170 -173zM390 -134c24 0 45 -19 45 -45c0 -27 -22 -45 -45 -45
c-25 0 -47 18 -47 45c0 26 22 45 47 45z" />
    <glyph glyph-name="uniFC6B" unicode="&#xfe92;&#xfeb0;" horiz-adv-x="694" arabic-form="final" 
d="M193 691c-25 0 -47 18 -47 45c0 26 22 45 47 45c24 0 45 -19 45 -45c0 -27 -22 -45 -45 -45zM691 70h22v-70h-22c-156 0 -239 85 -239 246v233h-228v-512c0 -142 -55 -187 -163 -187c-24 0 -51 4 -75 10l-5 60c28 -5 50 -7 74 -7c63 0 101 30 101 114v591h296v120h69
v-425c0 -114 58 -173 170 -173zM390 -134c24 0 45 -19 45 -45c0 -27 -22 -45 -45 -45c-25 0 -47 18 -47 45c0 26 22 45 47 45z" />
    <glyph glyph-name="uniFC6D" unicode="&#xfe92;&#xfee6;" horiz-adv-x="1030" arabic-form="final" 
d="M309 623c-25 0 -47 18 -47 45c0 26 22 45 47 45c24 0 45 -19 45 -45c0 -27 -22 -45 -45 -45zM1029 70h21v-70h-21c-157 0 -239 85 -239 246v165h-238v-536h-211c-186 0 -283 91 -283 262v342h69v-334c0 -146 90 -201 225 -201h132v535h306v120h69v-356
c0 -114 58 -173 170 -173zM736 -134c24 0 45 -19 45 -45c0 -27 -22 -45 -45 -45c-25 0 -47 18 -47 45c0 26 22 45 47 45z" />
    <glyph glyph-name="uniFC6E" unicode="&#xfe92;&#xfef0;" horiz-adv-x="1137" arabic-form="final" 
d="M1134 70h22v-70h-22c-156 0 -239 85 -239 246v236h-135c-105 0 -158 -69 -158 -165v-442h-262c-190 0 -283 89 -283 264v229h68v-222c0 -148 93 -202 229 -202h179v374c0 153 86 230 226 230h136v120h69v-425c0 -114 58 -173 170 -173zM803 -134c24 0 45 -19 45 -45
c0 -27 -22 -45 -45 -45c-25 0 -47 18 -47 45c0 26 22 45 47 45z" />
    <glyph glyph-name="uniFC6F" unicode="&#xfe92;&#xfef2;" horiz-adv-x="1137" arabic-form="final" 
d="M1134 70h22v-70h-22c-156 0 -239 85 -239 246v236h-135c-105 0 -158 -69 -158 -165v-442h-262c-190 0 -283 89 -283 264v229h68v-222c0 -148 93 -202 229 -202h179v374c0 153 86 230 226 230h136v120h69v-425c0 -114 58 -173 170 -173zM803 -134c24 0 45 -19 45 -45
c0 -27 -22 -45 -45 -45c-25 0 -47 18 -47 45c0 26 22 45 47 45zM328 -259c25 0 46 -19 46 -45c0 -25 -21 -45 -46 -45s-46 20 -46 45c0 26 21 45 46 45zM477 -259c25 0 46 -19 46 -45c0 -25 -21 -45 -46 -45s-46 20 -46 45c0 26 20 45 46 45z" />
    <glyph glyph-name="uniFE92FE8A" unicode="&#xfe92;&#xfe8a;" horiz-adv-x="1137" 
d="M1134 70h22v-70h-22c-156 0 -239 85 -239 246v236h-135c-105 0 -158 -69 -158 -165v-442h-262c-190 0 -283 89 -283 264v229h68v-222c0 -148 93 -202 229 -202h179v374c0 153 86 230 226 230h136v120h69v-425c0 -114 58 -173 170 -173zM164 495v-43h-145v63
c0 62 33 103 96 103h16v-40h-19c-36 0 -50 -24 -50 -60v-23h102zM824 -134c24 0 45 -19 45 -45c0 -27 -22 -45 -45 -45c-25 0 -47 18 -47 45c0 26 22 45 47 45z" />
    <glyph glyph-name="uniFB58FE8E" unicode="&#xfb58;&#xfe8e;" horiz-adv-x="599" 
d="M459 548h69v-548h-438v811h69v-742h300v479zM283 -192c0 -26 -21 -45 -46 -45c-24 0 -45 19 -45 45c0 25 20 45 45 45c26 0 46 -20 46 -45zM386 -147c25 0 45 -20 45 -45c0 -26 -21 -45 -45 -45c-25 0 -46 19 -46 45c0 25 20 45 46 45zM312 -262c25 0 45 -19 45 -43
s-20 -43 -45 -43c-23 0 -44 19 -44 43s20 43 44 43z" />
    <glyph glyph-name="uniFB58FE84" unicode="&#xfb58;&#xfe84;" horiz-adv-x="599" 
d="M199 819v-43h-145v63c0 62 33 103 96 103h16v-40h-19c-36 0 -50 -24 -50 -60v-23h102zM459 548h69v-548h-438v691h69v-622h300v479zM283 -192c0 -26 -21 -45 -46 -45c-24 0 -45 19 -45 45c0 25 20 45 45 45c26 0 46 -20 46 -45zM386 -147c25 0 45 -20 45 -45
c0 -26 -21 -45 -45 -45c-25 0 -46 19 -46 45c0 25 20 45 46 45zM312 -262c25 0 45 -19 45 -43s-20 -43 -45 -43c-23 0 -44 19 -44 43s20 43 44 43z" />
    <glyph glyph-name="uniFB58FE82" unicode="&#xfb58;&#xfe82;" horiz-adv-x="599" 
d="M213 788v-47h-175v47h175zM459 548h69v-548h-438v691h69v-622h300v479zM283 -192c0 -26 -21 -45 -46 -45c-24 0 -45 19 -45 45c0 25 20 45 45 45c26 0 46 -20 46 -45zM386 -147c25 0 45 -20 45 -45c0 -26 -21 -45 -45 -45c-25 0 -46 19 -46 45c0 25 20 45 46 45z
M312 -262c25 0 45 -19 45 -43s-20 -43 -45 -43c-23 0 -44 19 -44 43s20 43 44 43z" />
    <glyph glyph-name="uniFB58FB51" unicode="&#xfb58;&#xfb51;" horiz-adv-x="599" 
d="M228 797v-61h-204v61c0 59 33 89 97 89h9c64 0 98 -30 98 -89zM178 778v22c0 30 -16 46 -48 46h-8c-33 0 -48 -16 -48 -46v-22h104zM459 548h69v-548h-438v691h69v-622h300v479zM283 -192c0 -26 -21 -45 -46 -45c-24 0 -45 19 -45 45c0 25 20 45 45 45
c26 0 46 -20 46 -45zM386 -147c25 0 45 -20 45 -45c0 -26 -21 -45 -45 -45c-25 0 -46 19 -46 45c0 25 20 45 46 45zM312 -262c25 0 45 -19 45 -43s-20 -43 -45 -43c-23 0 -44 19 -44 43s20 43 44 43z" />
    <glyph glyph-name="uniFB58FB59" unicode="&#xfb58;&#xfb59;" horiz-adv-x="839" 
d="M699 548h69v-548h-768v69h161v479h69v-479h469v479zM170 -192c0 -26 -21 -45 -46 -45c-24 0 -45 19 -45 45c0 25 20 45 45 45c26 0 46 -20 46 -45zM273 -147c25 0 45 -20 45 -45c0 -26 -21 -45 -45 -45c-25 0 -46 19 -46 45c0 25 20 45 46 45zM611 -192
c0 -26 -21 -45 -46 -45c-24 0 -45 19 -45 45c0 25 20 45 45 45c26 0 46 -20 46 -45zM714 -147c25 0 45 -20 45 -45c0 -26 -21 -45 -45 -45c-25 0 -46 19 -46 45c0 25 20 45 46 45zM199 -262c25 0 45 -19 45 -43s-20 -43 -45 -43c-23 0 -44 19 -44 43s20 43 44 43zM640 -262
c25 0 45 -19 45 -43s-20 -43 -45 -43c-23 0 -44 19 -44 43s20 43 44 43z" />
    <glyph glyph-name="uniFB59FEAE" unicode="&#xfb59;&#xfeae;" horiz-adv-x="694" 
d="M691 70h22v-70h-22c-156 0 -239 85 -239 246v233h-228v-512c0 -142 -55 -187 -163 -187c-24 0 -51 4 -75 10l-5 60c28 -5 50 -7 74 -7c63 0 101 30 101 114v591h296v120h69v-425c0 -114 58 -173 170 -173zM412 -192c0 -26 -21 -45 -46 -45c-24 0 -45 19 -45 45
c0 25 20 45 45 45c26 0 46 -20 46 -45zM515 -147c25 0 45 -20 45 -45c0 -26 -21 -45 -45 -45c-25 0 -46 19 -46 45c0 25 20 45 46 45zM441 -262c25 0 45 -19 45 -43s-20 -43 -45 -43c-23 0 -44 19 -44 43s20 43 44 43z" />
    <glyph glyph-name="uniFB59FEB0" unicode="&#xfb59;&#xfeb0;" horiz-adv-x="694" 
d="M188 691c-25 0 -47 18 -47 45c0 26 22 45 47 45c24 0 45 -19 45 -45c0 -27 -22 -45 -45 -45zM691 70h22v-70h-22c-156 0 -239 85 -239 246v233h-228v-512c0 -142 -55 -187 -163 -187c-24 0 -51 4 -75 10l-5 60c28 -5 50 -7 74 -7c63 0 101 30 101 114v591h296v120h69
v-425c0 -114 58 -173 170 -173zM412 -192c0 -26 -21 -45 -46 -45c-24 0 -45 19 -45 45c0 25 20 45 45 45c26 0 46 -20 46 -45zM515 -147c25 0 45 -20 45 -45c0 -26 -21 -45 -45 -45c-25 0 -46 19 -46 45c0 25 20 45 46 45zM441 -262c25 0 45 -19 45 -43s-20 -43 -45 -43
c-23 0 -44 19 -44 43s20 43 44 43z" />
    <glyph glyph-name="uniFB59FEE6" unicode="&#xfb59;&#xfee6;" horiz-adv-x="1030" 
d="M309 623c-25 0 -47 18 -47 45c0 26 22 45 47 45c24 0 45 -19 45 -45c0 -27 -22 -45 -45 -45zM1029 70h21v-70h-21c-157 0 -239 85 -239 246v165h-238v-536h-211c-186 0 -283 91 -283 262v342h69v-334c0 -146 90 -201 225 -201h132v535h306v120h69v-356
c0 -114 58 -173 170 -173zM729 -192c0 -26 -21 -45 -46 -45c-24 0 -45 19 -45 45c0 25 20 45 45 45c26 0 46 -20 46 -45zM832 -147c25 0 45 -20 45 -45c0 -26 -21 -45 -45 -45c-25 0 -46 19 -46 45c0 25 20 45 46 45zM758 -262c25 0 45 -19 45 -43s-20 -43 -45 -43
c-23 0 -44 19 -44 43s20 43 44 43z" />
    <glyph glyph-name="uniFB59FEF0" unicode="&#xfb59;&#xfef0;" horiz-adv-x="1137" 
d="M1134 70h22v-70h-22c-156 0 -239 85 -239 246v236h-135c-105 0 -158 -69 -158 -165v-442h-262c-190 0 -283 89 -283 264v229h68v-222c0 -148 93 -202 229 -202h179v374c0 153 86 230 226 230h136v120h69v-425c0 -114 58 -173 170 -173zM795 -192c0 -26 -21 -45 -46 -45
c-24 0 -45 19 -45 45c0 25 20 45 45 45c26 0 46 -20 46 -45zM898 -147c25 0 45 -20 45 -45c0 -26 -21 -45 -45 -45c-25 0 -46 19 -46 45c0 25 20 45 46 45zM824 -262c25 0 45 -19 45 -43s-20 -43 -45 -43c-23 0 -44 19 -44 43s20 43 44 43z" />
    <glyph glyph-name="uniFB59FEF2" unicode="&#xfb59;&#xfef2;" horiz-adv-x="1137" 
d="M1134 70h22v-70h-22c-156 0 -239 85 -239 246v236h-135c-105 0 -158 -69 -158 -165v-442h-262c-190 0 -283 89 -283 264v229h68v-222c0 -148 93 -202 229 -202h179v374c0 153 86 230 226 230h136v120h69v-425c0 -114 58 -173 170 -173zM795 -192c0 -26 -21 -45 -46 -45
c-24 0 -45 19 -45 45c0 25 20 45 45 45c26 0 46 -20 46 -45zM898 -147c25 0 45 -20 45 -45c0 -26 -21 -45 -45 -45c-25 0 -46 19 -46 45c0 25 20 45 46 45zM328 -259c25 0 46 -19 46 -45c0 -25 -21 -45 -46 -45s-46 20 -46 45c0 26 21 45 46 45zM477 -259
c25 0 46 -19 46 -45c0 -25 -21 -45 -46 -45s-46 20 -46 45c0 26 20 45 46 45zM824 -262c25 0 45 -19 45 -43s-20 -43 -45 -43c-23 0 -44 19 -44 43s20 43 44 43z" />
    <glyph glyph-name="uniFB59FE8A" unicode="&#xfb59;&#xfe8a;" horiz-adv-x="1137" 
d="M1134 70h22v-70h-22c-156 0 -239 85 -239 246v236h-135c-105 0 -158 -69 -158 -165v-442h-262c-190 0 -283 89 -283 264v229h68v-222c0 -148 93 -202 229 -202h179v374c0 153 86 230 226 230h136v120h69v-425c0 -114 58 -173 170 -173zM164 495v-43h-145v63
c0 62 33 103 96 103h16v-40h-19c-36 0 -50 -24 -50 -60v-23h102zM795 -192c0 -26 -21 -45 -46 -45c-24 0 -45 19 -45 45c0 25 20 45 45 45c26 0 46 -20 46 -45zM898 -147c25 0 45 -20 45 -45c0 -26 -21 -45 -45 -45c-25 0 -46 19 -46 45c0 25 20 45 46 45zM824 -262
c25 0 45 -19 45 -43s-20 -43 -45 -43c-23 0 -44 19 -44 43s20 43 44 43z" />
    <glyph glyph-name="uniFC70" unicode="&#xfe98;&#xfeae;" horiz-adv-x="694" arabic-form="final" 
d="M414 801c-25 0 -46 19 -46 45c0 25 21 45 46 45s46 -20 46 -45c0 -26 -21 -45 -46 -45zM563 801c-25 0 -46 19 -46 45c0 25 20 45 46 45c25 0 46 -20 46 -45c0 -26 -21 -45 -46 -45zM691 70h22v-70h-22c-156 0 -239 85 -239 246v233h-228v-512c0 -142 -55 -187 -163 -187
c-24 0 -51 4 -75 10l-5 60c28 -5 50 -7 74 -7c63 0 101 30 101 114v591h296v120h69v-425c0 -114 58 -173 170 -173z" />
    <glyph glyph-name="uniFC71" unicode="&#xfe98;&#xfeb0;" horiz-adv-x="694" arabic-form="final" 
d="M414 801c-25 0 -46 19 -46 45c0 25 21 45 46 45s46 -20 46 -45c0 -26 -21 -45 -46 -45zM563 801c-25 0 -46 19 -46 45c0 25 20 45 46 45c25 0 46 -20 46 -45c0 -26 -21 -45 -46 -45zM188 691c-25 0 -47 18 -47 45c0 26 22 45 47 45c24 0 45 -19 45 -45
c0 -27 -22 -45 -45 -45zM691 70h22v-70h-22c-156 0 -239 85 -239 246v233h-228v-512c0 -142 -55 -187 -163 -187c-24 0 -51 4 -75 10l-5 60c28 -5 50 -7 74 -7c63 0 101 30 101 114v591h296v120h69v-425c0 -114 58 -173 170 -173z" />
    <glyph glyph-name="uniFC73" unicode="&#xfe98;&#xfee6;" horiz-adv-x="1030" arabic-form="final" 
d="M750 733c-25 0 -46 19 -46 45c0 25 21 45 46 45s46 -20 46 -45c0 -26 -21 -45 -46 -45zM899 733c-25 0 -46 19 -46 45c0 25 20 45 46 45c25 0 46 -20 46 -45c0 -26 -21 -45 -46 -45zM309 623c-25 0 -47 18 -47 45c0 26 22 45 47 45c24 0 45 -19 45 -45
c0 -27 -22 -45 -45 -45zM1029 70h21v-70h-21c-157 0 -239 85 -239 246v165h-238v-536h-211c-186 0 -283 91 -283 262v342h69v-334c0 -146 90 -201 225 -201h132v535h306v120h69v-356c0 -114 58 -173 170 -173z" />
    <glyph glyph-name="uniFC74" unicode="&#xfe98;&#xfef0;" horiz-adv-x="1137" arabic-form="final" 
d="M857 801c-25 0 -46 19 -46 45c0 25 21 45 46 45s46 -20 46 -45c0 -26 -21 -45 -46 -45zM1006 801c-25 0 -46 19 -46 45c0 25 20 45 46 45c25 0 46 -20 46 -45c0 -26 -21 -45 -46 -45zM1134 70h22v-70h-22c-156 0 -239 85 -239 246v236h-135c-105 0 -158 -69 -158 -165
v-442h-262c-190 0 -283 89 -283 264v229h68v-222c0 -148 93 -202 229 -202h179v374c0 153 86 230 226 230h136v120h69v-425c0 -114 58 -173 170 -173z" />
    <glyph glyph-name="uniFC75" unicode="&#xfe98;&#xfef2;" horiz-adv-x="1137" arabic-form="final" 
d="M857 801c-25 0 -46 19 -46 45c0 25 21 45 46 45s46 -20 46 -45c0 -26 -21 -45 -46 -45zM1006 801c-25 0 -46 19 -46 45c0 25 20 45 46 45c25 0 46 -20 46 -45c0 -26 -21 -45 -46 -45zM1134 70h22v-70h-22c-156 0 -239 85 -239 246v236h-135c-105 0 -158 -69 -158 -165
v-442h-262c-190 0 -283 89 -283 264v229h68v-222c0 -148 93 -202 229 -202h179v374c0 153 86 230 226 230h136v120h69v-425c0 -114 58 -173 170 -173zM328 -259c25 0 46 -19 46 -45c0 -25 -21 -45 -46 -45s-46 20 -46 45c0 26 21 45 46 45zM477 -259c25 0 46 -19 46 -45
c0 -25 -21 -45 -46 -45s-46 20 -46 45c0 26 20 45 46 45z" />
    <glyph glyph-name="uniFE98FE8A" unicode="&#xfe98;&#xfe8a;" horiz-adv-x="1137" 
d="M857 801c-25 0 -46 19 -46 45c0 25 21 45 46 45s46 -20 46 -45c0 -26 -21 -45 -46 -45zM1006 801c-25 0 -46 19 -46 45c0 25 20 45 46 45c25 0 46 -20 46 -45c0 -26 -21 -45 -46 -45zM1134 70h22v-70h-22c-156 0 -239 85 -239 246v236h-135c-105 0 -158 -69 -158 -165
v-442h-262c-190 0 -283 89 -283 264v229h68v-222c0 -148 93 -202 229 -202h179v374c0 153 86 230 226 230h136v120h69v-425c0 -114 58 -173 170 -173zM164 495v-43h-145v63c0 62 33 103 96 103h16v-40h-19c-36 0 -50 -24 -50 -60v-23h102z" />
    <glyph glyph-name="uniFC76" unicode="&#xfe9c;&#xfeae;" horiz-adv-x="694" arabic-form="final" 
d="M489 916c-23 0 -44 18 -44 43c0 24 20 43 44 43c25 0 45 -19 45 -43c0 -25 -20 -43 -45 -43zM414 802c-24 0 -45 19 -45 44s20 45 45 45c26 0 46 -20 46 -45s-21 -44 -46 -44zM517 846c0 25 20 45 46 45c25 0 45 -20 45 -45s-21 -44 -45 -44c-25 0 -46 19 -46 44zM691 70
h22v-70h-22c-156 0 -239 85 -239 246v233h-228v-512c0 -142 -55 -187 -163 -187c-24 0 -51 4 -75 10l-5 60c28 -5 50 -7 74 -7c63 0 101 30 101 114v591h296v120h69v-425c0 -114 58 -173 170 -173z" />
    <glyph glyph-name="uniFC77" unicode="&#xfe9c;&#xfeb0;" horiz-adv-x="694" arabic-form="final" 
d="M489 916c-23 0 -44 18 -44 43c0 24 20 43 44 43c25 0 45 -19 45 -43c0 -25 -20 -43 -45 -43zM414 802c-24 0 -45 19 -45 44s20 45 45 45c26 0 46 -20 46 -45s-21 -44 -46 -44zM517 846c0 25 20 45 46 45c25 0 45 -20 45 -45s-21 -44 -45 -44c-25 0 -46 19 -46 44z
M188 691c-25 0 -47 18 -47 45c0 26 22 45 47 45c24 0 45 -19 45 -45c0 -27 -22 -45 -45 -45zM691 70h22v-70h-22c-156 0 -239 85 -239 246v233h-228v-512c0 -142 -55 -187 -163 -187c-24 0 -51 4 -75 10l-5 60c28 -5 50 -7 74 -7c63 0 101 30 101 114v591h296v120h69v-425
c0 -114 58 -173 170 -173z" />
    <glyph glyph-name="uniFC79" unicode="&#xfe9c;&#xfee6;" horiz-adv-x="1030" arabic-form="final" 
d="M825 847c-23 0 -44 18 -44 43c0 24 20 43 44 43c25 0 45 -19 45 -43c0 -25 -20 -43 -45 -43zM750 733c-24 0 -45 19 -45 44s20 45 45 45c26 0 46 -20 46 -45s-21 -44 -46 -44zM853 777c0 25 20 45 46 45c25 0 45 -20 45 -45s-21 -44 -45 -44c-25 0 -46 19 -46 44z
M309 623c-25 0 -47 18 -47 45c0 26 22 45 47 45c24 0 45 -19 45 -45c0 -27 -22 -45 -45 -45zM1029 70h21v-70h-21c-157 0 -239 85 -239 246v165h-238v-536h-211c-186 0 -283 91 -283 262v342h69v-334c0 -146 90 -201 225 -201h132v535h306v120h69v-356
c0 -114 58 -173 170 -173z" />
    <glyph glyph-name="uniFC7A" unicode="&#xfe9c;&#xfef0;" horiz-adv-x="1137" arabic-form="final" 
d="M932 916c-23 0 -44 18 -44 43c0 24 20 43 44 43c25 0 45 -19 45 -43c0 -25 -20 -43 -45 -43zM857 802c-24 0 -45 19 -45 44s20 45 45 45c26 0 46 -20 46 -45s-21 -44 -46 -44zM960 846c0 25 20 45 46 45c25 0 45 -20 45 -45s-21 -44 -45 -44c-25 0 -46 19 -46 44z
M1134 70h22v-70h-22c-156 0 -239 85 -239 246v236h-135c-105 0 -158 -69 -158 -165v-442h-262c-190 0 -283 89 -283 264v229h68v-222c0 -148 93 -202 229 -202h179v374c0 153 86 230 226 230h136v120h69v-425c0 -114 58 -173 170 -173z" />
    <glyph glyph-name="uniFC7B" unicode="&#xfe9c;&#xfef2;" horiz-adv-x="1137" arabic-form="final" 
d="M932 916c-23 0 -44 18 -44 43c0 24 20 43 44 43c25 0 45 -19 45 -43c0 -25 -20 -43 -45 -43zM857 802c-24 0 -45 19 -45 44s20 45 45 45c26 0 46 -20 46 -45s-21 -44 -46 -44zM960 846c0 25 20 45 46 45c25 0 45 -20 45 -45s-21 -44 -45 -44c-25 0 -46 19 -46 44z
M1134 70h22v-70h-22c-156 0 -239 85 -239 246v236h-135c-105 0 -158 -69 -158 -165v-442h-262c-190 0 -283 89 -283 264v229h68v-222c0 -148 93 -202 229 -202h179v374c0 153 86 230 226 230h136v120h69v-425c0 -114 58 -173 170 -173zM328 -259c25 0 46 -19 46 -45
c0 -25 -21 -45 -46 -45s-46 20 -46 45c0 26 21 45 46 45zM477 -259c25 0 46 -19 46 -45c0 -25 -21 -45 -46 -45s-46 20 -46 45c0 26 20 45 46 45z" />
    <glyph glyph-name="uniFE9CFE8A" unicode="&#xfe9c;&#xfe8a;" horiz-adv-x="1137" 
d="M932 916c-23 0 -44 18 -44 43c0 24 20 43 44 43c25 0 45 -19 45 -43c0 -25 -20 -43 -45 -43zM857 802c-24 0 -45 19 -45 44s20 45 45 45c26 0 46 -20 46 -45s-21 -44 -46 -44zM960 846c0 25 20 45 46 45c25 0 45 -20 45 -45s-21 -44 -45 -44c-25 0 -46 19 -46 44z
M1134 70h22v-70h-22c-156 0 -239 85 -239 246v236h-135c-105 0 -158 -69 -158 -165v-442h-262c-190 0 -283 89 -283 264v229h68v-222c0 -148 93 -202 229 -202h179v374c0 153 86 230 226 230h136v120h69v-425c0 -114 58 -173 170 -173zM164 495v-43h-145v63
c0 62 33 103 96 103h16v-40h-19c-36 0 -50 -24 -50 -60v-23h102z" />
    <glyph glyph-name="uniFD0E" unicode="&#xfeb3;&#xfeae;" horiz-adv-x="1387" arabic-form="isolated" 
d="M1258 556h69v-320c0 -168 -84 -246 -237 -246c-99 0 -165 40 -199 113c-31 -76 -97 -113 -203 -113c-154 0 -235 85 -235 246v175h-228v-444c0 -142 -55 -187 -163 -187c-24 0 -51 4 -75 10l-5 60c28 -5 50 -7 74 -7c63 0 101 30 101 114v641h68v-119h297v-249
c0 -112 57 -170 166 -170c105 0 167 56 167 170v249h69v-249c0 -112 58 -170 166 -170c105 0 168 56 168 170v326z" />
    <glyph glyph-name="uniFD2A" unicode="&#xfeb4;&#xfeae;" horiz-adv-x="1482" arabic-form="final" 
d="M1482 69h20v-69h-20c-90 0 -153 42 -177 109c-34 -81 -108 -119 -215 -119c-99 0 -165 40 -199 113c-31 -76 -97 -113 -203 -113c-154 0 -235 85 -235 246v175h-228v-444c0 -142 -55 -187 -163 -187c-24 0 -51 4 -75 10l-5 60c28 -5 50 -7 74 -7c63 0 101 30 101 114v641
h68v-119h297v-249c0 -112 57 -170 166 -170c105 0 167 56 167 170v249h69v-249c0 -112 58 -170 166 -170c105 0 168 56 168 170v326h69v-308c0 -117 55 -179 155 -179z" />
    <glyph glyph-name="uniFCFB" unicode="&#xfeb3;&#xfef0;" horiz-adv-x="1808" arabic-form="isolated" 
d="M1679 556h69v-320c0 -168 -84 -246 -231 -246c-103 0 -170 43 -203 120c-31 -81 -100 -120 -213 -120c-154 0 -242 85 -242 246v366h-110c-98 0 -146 -65 -146 -154v-573h-262c-190 0 -283 89 -283 264v229h68v-222c0 -148 93 -202 229 -202h179v494
c0 153 86 230 226 230h168v-433c0 -113 60 -175 173 -175c109 0 175 58 175 175v244h69v-249c0 -112 57 -170 167 -170c105 0 167 55 167 170v326z" />
    <glyph glyph-name="uniFD17" unicode="&#xfeb4;&#xfef0;" horiz-adv-x="1903" arabic-form="final" 
d="M1903 69h20v-69h-20c-90 0 -153 42 -177 109c-34 -81 -106 -119 -209 -119s-170 43 -203 120c-31 -81 -100 -120 -213 -120c-154 0 -242 85 -242 246v366h-110c-98 0 -146 -65 -146 -154v-573h-262c-190 0 -283 89 -283 264v229h68v-222c0 -148 93 -202 229 -202h179v494
c0 153 86 230 226 230h168v-433c0 -113 60 -175 173 -175c109 0 175 58 175 175v244h69v-249c0 -112 57 -170 167 -170c105 0 167 55 167 170v326h69v-308c0 -117 55 -179 155 -179z" />
    <glyph glyph-name="uniFCFC" unicode="&#xfeb3;&#xfef2;" horiz-adv-x="1808" arabic-form="isolated" 
d="M1678 556h69v-320c0 -168 -84 -246 -231 -246c-103 0 -170 43 -203 120c-31 -81 -100 -120 -213 -120c-154 0 -242 85 -242 246v366h-110c-98 0 -146 -65 -146 -154v-573h-262c-190 0 -283 89 -283 264v229h68v-222c0 -148 93 -202 229 -202h179v494
c0 153 86 230 226 230h168v-433c0 -113 60 -175 173 -175c109 0 175 58 175 175v244h69v-249c0 -112 57 -170 167 -170c105 0 167 55 167 170v326zM328 -259c25 0 46 -19 46 -45c0 -25 -21 -45 -46 -45s-46 20 -46 45c0 26 21 45 46 45zM477 -259c25 0 46 -19 46 -45
c0 -25 -21 -45 -46 -45s-46 20 -46 45c0 26 20 45 46 45z" />
    <glyph glyph-name="uniFD18" unicode="&#xfeb4;&#xfef2;" horiz-adv-x="1903" arabic-form="final" 
d="M1903 69h20v-69h-20c-90 0 -153 42 -177 109c-34 -81 -106 -119 -209 -119s-170 43 -203 120c-31 -81 -100 -120 -213 -120c-154 0 -242 85 -242 246v366h-110c-98 0 -146 -65 -146 -154v-573h-262c-190 0 -283 89 -283 264v229h68v-222c0 -148 93 -202 229 -202h179v494
c0 153 86 230 226 230h168v-433c0 -113 60 -175 173 -175c109 0 175 58 175 175v244h69v-249c0 -112 57 -170 167 -170c105 0 167 55 167 170v326h69v-308c0 -117 55 -179 155 -179zM328 -259c25 0 46 -19 46 -45c0 -25 -21 -45 -46 -45s-46 20 -46 45c0 26 21 45 46 45z
M477 -259c25 0 46 -19 46 -45c0 -25 -21 -45 -46 -45s-46 20 -46 45c0 26 20 45 46 45z" />
    <glyph glyph-name="uniFEB3FEB0" unicode="&#xfeb3;&#xfeb0;" horiz-adv-x="1387" 
d="M193 741c-25 0 -47 18 -47 45c0 26 22 45 47 45c24 0 45 -19 45 -45c0 -27 -22 -45 -45 -45zM1257 556h69v-320c0 -168 -84 -246 -237 -246c-99 0 -165 40 -199 113c-31 -76 -97 -113 -203 -113c-154 0 -235 85 -235 246v175h-228v-444c0 -142 -55 -187 -163 -187
c-24 0 -51 4 -75 10l-5 60c28 -5 50 -7 74 -7c63 0 101 30 101 114v641h68v-119h297v-249c0 -112 57 -170 166 -170c105 0 167 56 167 170v249h69v-249c0 -112 58 -170 166 -170c105 0 168 56 168 170v326z" />
    <glyph glyph-name="uniFEB4FEB0" unicode="&#xfeb4;&#xfeb0;" horiz-adv-x="1482" 
d="M192 741c-25 0 -47 18 -47 45c0 26 22 45 47 45c24 0 45 -19 45 -45c0 -27 -22 -45 -45 -45zM1482 69h20v-69h-20c-90 0 -153 42 -177 109c-34 -81 -108 -119 -215 -119c-99 0 -165 40 -199 113c-31 -76 -97 -113 -203 -113c-154 0 -235 85 -235 246v175h-228v-444
c0 -142 -55 -187 -163 -187c-24 0 -51 4 -75 10l-5 60c28 -5 50 -7 74 -7c63 0 101 30 101 114v641h68v-119h297v-249c0 -112 57 -170 166 -170c105 0 167 56 167 170v249h69v-249c0 -112 58 -170 166 -170c105 0 168 56 168 170v326h69v-308c0 -117 55 -179 155 -179z" />
    <glyph glyph-name="uniFEB3FE8A" unicode="&#xfeb3;&#xfe8a;" horiz-adv-x="1808" 
d="M853 789v-52h-206v96c0 76 40 115 117 115h51v-38h-47c-45 0 -68 -22 -68 -66v-55h153zM1678 556h69v-320c0 -168 -84 -246 -231 -246c-103 0 -170 43 -203 120c-31 -81 -100 -120 -213 -120c-154 0 -242 85 -242 246v366h-110c-98 0 -146 -65 -146 -154v-573h-262
c-190 0 -283 89 -283 264v229h68v-222c0 -148 93 -202 229 -202h179v494c0 153 86 230 226 230h168v-433c0 -113 60 -175 173 -175c109 0 175 58 175 175v244h69v-249c0 -112 57 -170 167 -170c105 0 167 55 167 170v326z" />
    <glyph glyph-name="uniFEB4FE8A" unicode="&#xfeb4;&#xfe8a;" horiz-adv-x="1903" 
d="M853 789v-52h-206v96c0 76 40 115 117 115h51v-38h-47c-45 0 -68 -22 -68 -66v-55h153zM1903 69h20v-69h-20c-90 0 -153 42 -177 109c-34 -81 -106 -119 -209 -119s-170 43 -203 120c-31 -81 -100 -120 -213 -120c-154 0 -242 85 -242 246v366h-110
c-98 0 -146 -65 -146 -154v-573h-262c-190 0 -283 89 -283 264v229h68v-222c0 -148 93 -202 229 -202h179v494c0 153 86 230 226 230h168v-433c0 -113 60 -175 173 -175c109 0 175 58 175 175v244h69v-249c0 -112 57 -170 167 -170c105 0 167 55 167 170v326h69v-308
c0 -117 55 -179 155 -179z" />
    <glyph glyph-name="uniFD0D" unicode="&#xfeb7;&#xfeae;" horiz-adv-x="1387" arabic-form="isolated" 
d="M890 728c-23 0 -44 18 -44 43c0 24 20 43 44 43c25 0 45 -19 45 -43c0 -25 -20 -43 -45 -43zM815 614c-24 0 -45 19 -45 44s20 45 45 45c26 0 46 -20 46 -45s-21 -44 -46 -44zM918 658c0 25 20 45 46 45c25 0 45 -20 45 -45s-21 -44 -45 -44c-25 0 -46 19 -46 44z
M1257 556h69v-320c0 -168 -84 -246 -237 -246c-99 0 -165 40 -199 113c-31 -76 -97 -113 -203 -113c-154 0 -235 85 -235 246v175h-228v-444c0 -142 -55 -187 -163 -187c-24 0 -51 4 -75 10l-5 60c28 -5 50 -7 74 -7c63 0 101 30 101 114v641h68v-119h297v-249
c0 -112 57 -170 166 -170c105 0 167 56 167 170v249h69v-249c0 -112 58 -170 166 -170c105 0 168 56 168 170v326z" />
    <glyph glyph-name="uniFD29" unicode="&#xfeb8;&#xfeae;" horiz-adv-x="1482" arabic-form="final" 
d="M890 728c-23 0 -44 18 -44 43c0 24 20 43 44 43c25 0 45 -19 45 -43c0 -25 -20 -43 -45 -43zM815 614c-24 0 -45 19 -45 44s20 45 45 45c26 0 46 -20 46 -45s-21 -44 -46 -44zM918 658c0 25 20 45 46 45c25 0 45 -20 45 -45s-21 -44 -45 -44c-25 0 -46 19 -46 44z
M1482 69h20v-69h-20c-90 0 -153 42 -177 109c-34 -81 -108 -119 -215 -119c-99 0 -165 40 -199 113c-31 -76 -97 -113 -203 -113c-154 0 -235 85 -235 246v175h-228v-444c0 -142 -55 -187 -163 -187c-24 0 -51 4 -75 10l-5 60c28 -5 50 -7 74 -7c63 0 101 30 101 114v641h68
v-119h297v-249c0 -112 57 -170 166 -170c105 0 167 56 167 170v249h69v-249c0 -112 58 -170 166 -170c105 0 168 56 168 170v326h69v-308c0 -117 55 -179 155 -179z" />
    <glyph glyph-name="uniFEB7FEB0" unicode="&#xfeb7;&#xfeb0;" horiz-adv-x="1387" 
d="M193 741c-25 0 -47 18 -47 45c0 26 22 45 47 45c24 0 45 -19 45 -45c0 -27 -22 -45 -45 -45zM890 728c-23 0 -44 18 -44 43c0 24 20 43 44 43c25 0 45 -19 45 -43c0 -25 -20 -43 -45 -43zM815 614c-24 0 -45 19 -45 44s20 45 45 45c26 0 46 -20 46 -45s-21 -44 -46 -44z
M918 658c0 25 20 45 46 45c25 0 45 -20 45 -45s-21 -44 -45 -44c-25 0 -46 19 -46 44zM1257 556h69v-320c0 -168 -84 -246 -237 -246c-99 0 -165 40 -199 113c-31 -76 -97 -113 -203 -113c-154 0 -235 85 -235 246v175h-228v-444c0 -142 -55 -187 -163 -187
c-24 0 -51 4 -75 10l-5 60c28 -5 50 -7 74 -7c63 0 101 30 101 114v641h68v-119h297v-249c0 -112 57 -170 166 -170c105 0 167 56 167 170v249h69v-249c0 -112 58 -170 166 -170c105 0 168 56 168 170v326z" />
    <glyph glyph-name="uniFEB8FEB0" unicode="&#xfeb8;&#xfeb0;" horiz-adv-x="1482" 
d="M192 741c-25 0 -47 18 -47 45c0 26 22 45 47 45c24 0 45 -19 45 -45c0 -27 -22 -45 -45 -45zM890 728c-23 0 -44 18 -44 43c0 24 20 43 44 43c25 0 45 -19 45 -43c0 -25 -20 -43 -45 -43zM815 614c-24 0 -45 19 -45 44s20 45 45 45c26 0 46 -20 46 -45s-21 -44 -46 -44z
M918 658c0 25 20 45 46 45c25 0 45 -20 45 -45s-21 -44 -45 -44c-25 0 -46 19 -46 44zM1482 69h20v-69h-20c-90 0 -153 42 -177 109c-34 -81 -108 -119 -215 -119c-99 0 -165 40 -199 113c-31 -76 -97 -113 -203 -113c-154 0 -235 85 -235 246v175h-228v-444
c0 -142 -55 -187 -163 -187c-24 0 -51 4 -75 10l-5 60c28 -5 50 -7 74 -7c63 0 101 30 101 114v641h68v-119h297v-249c0 -112 57 -170 166 -170c105 0 167 56 167 170v249h69v-249c0 -112 58 -170 166 -170c105 0 168 56 168 170v326h69v-308c0 -117 55 -179 155 -179z" />
    <glyph glyph-name="uniFCFD" unicode="&#xfeb7;&#xfef0;" horiz-adv-x="1808" arabic-form="isolated" 
d="M1311 728c-23 0 -44 18 -44 43c0 24 20 43 44 43c25 0 45 -19 45 -43c0 -25 -20 -43 -45 -43zM1236 614c-24 0 -45 19 -45 44s20 45 45 45c26 0 46 -20 46 -45s-21 -44 -46 -44zM1339 658c0 25 20 45 46 45c25 0 45 -20 45 -45s-21 -44 -45 -44c-25 0 -46 19 -46 44z
M1678 556h69v-320c0 -168 -84 -246 -231 -246c-103 0 -170 43 -203 120c-31 -81 -100 -120 -213 -120c-154 0 -242 85 -242 246v366h-110c-98 0 -146 -65 -146 -154v-573h-262c-190 0 -283 89 -283 264v229h68v-222c0 -148 93 -202 229 -202h179v494c0 153 86 230 226 230
h168v-433c0 -113 60 -175 173 -175c109 0 175 58 175 175v244h69v-249c0 -112 57 -170 167 -170c105 0 167 55 167 170v326z" />
    <glyph glyph-name="uniFD19" unicode="&#xfeb8;&#xfef0;" horiz-adv-x="1903" arabic-form="final" 
d="M1311 728c-23 0 -44 18 -44 43c0 24 20 43 44 43c25 0 45 -19 45 -43c0 -25 -20 -43 -45 -43zM1236 614c-24 0 -45 19 -45 44s20 45 45 45c26 0 46 -20 46 -45s-21 -44 -46 -44zM1339 658c0 25 20 45 46 45c25 0 45 -20 45 -45s-21 -44 -45 -44c-25 0 -46 19 -46 44z
M1903 69h20v-69h-20c-90 0 -153 42 -177 109c-34 -81 -106 -119 -209 -119s-170 43 -203 120c-31 -81 -100 -120 -213 -120c-154 0 -242 85 -242 246v366h-110c-98 0 -146 -65 -146 -154v-573h-262c-190 0 -283 89 -283 264v229h68v-222c0 -148 93 -202 229 -202h179v494
c0 153 86 230 226 230h168v-433c0 -113 60 -175 173 -175c109 0 175 58 175 175v244h69v-249c0 -112 57 -170 167 -170c105 0 167 55 167 170v326h69v-308c0 -117 55 -179 155 -179z" />
    <glyph glyph-name="uniFCFE" unicode="&#xfeb7;&#xfef2;" horiz-adv-x="1808" arabic-form="isolated" 
d="M1311 728c-23 0 -44 18 -44 43c0 24 20 43 44 43c25 0 45 -19 45 -43c0 -25 -20 -43 -45 -43zM1236 614c-24 0 -45 19 -45 44s20 45 45 45c26 0 46 -20 46 -45s-21 -44 -46 -44zM1339 658c0 25 20 45 46 45c25 0 45 -20 45 -45s-21 -44 -45 -44c-25 0 -46 19 -46 44z
M1678 556h69v-320c0 -168 -84 -246 -231 -246c-103 0 -170 43 -203 120c-31 -81 -100 -120 -213 -120c-154 0 -242 85 -242 246v366h-110c-98 0 -146 -65 -146 -154v-573h-262c-190 0 -283 89 -283 264v229h68v-222c0 -148 93 -202 229 -202h179v494c0 153 86 230 226 230
h168v-433c0 -113 60 -175 173 -175c109 0 175 58 175 175v244h69v-249c0 -112 57 -170 167 -170c105 0 167 55 167 170v326zM328 -259c25 0 46 -19 46 -45c0 -25 -21 -45 -46 -45s-46 20 -46 45c0 26 21 45 46 45zM477 -259c25 0 46 -19 46 -45c0 -25 -21 -45 -46 -45
s-46 20 -46 45c0 26 20 45 46 45z" />
    <glyph glyph-name="uniFD1A" unicode="&#xfeb8;&#xfef2;" horiz-adv-x="1903" arabic-form="final" 
d="M1311 728c-23 0 -44 18 -44 43c0 24 20 43 44 43c25 0 45 -19 45 -43c0 -25 -20 -43 -45 -43zM1236 614c-24 0 -45 19 -45 44s20 45 45 45c26 0 46 -20 46 -45s-21 -44 -46 -44zM1339 658c0 25 20 45 46 45c25 0 45 -20 45 -45s-21 -44 -45 -44c-25 0 -46 19 -46 44z
M1903 69h20v-69h-20c-90 0 -153 42 -177 109c-34 -81 -106 -119 -209 -119s-170 43 -203 120c-31 -81 -100 -120 -213 -120c-154 0 -242 85 -242 246v366h-110c-98 0 -146 -65 -146 -154v-573h-262c-190 0 -283 89 -283 264v229h68v-222c0 -148 93 -202 229 -202h179v494
c0 153 86 230 226 230h168v-433c0 -113 60 -175 173 -175c109 0 175 58 175 175v244h69v-249c0 -112 57 -170 167 -170c105 0 167 55 167 170v326h69v-308c0 -117 55 -179 155 -179zM328 -259c25 0 46 -19 46 -45c0 -25 -21 -45 -46 -45s-46 20 -46 45c0 26 21 45 46 45z
M477 -259c25 0 46 -19 46 -45c0 -25 -21 -45 -46 -45s-46 20 -46 45c0 26 20 45 46 45z" />
    <glyph glyph-name="uniFEB7FE8A" unicode="&#xfeb7;&#xfe8a;" horiz-adv-x="1808" 
d="M853 789v-52h-206v96c0 76 40 115 117 115h51v-38h-47c-45 0 -68 -22 -68 -66v-55h153zM1311 728c-23 0 -44 18 -44 43c0 24 20 43 44 43c25 0 45 -19 45 -43c0 -25 -20 -43 -45 -43zM1236 614c-24 0 -45 19 -45 44s20 45 45 45c26 0 46 -20 46 -45s-21 -44 -46 -44z
M1339 658c0 25 20 45 46 45c25 0 45 -20 45 -45s-21 -44 -45 -44c-25 0 -46 19 -46 44zM1678 556h69v-320c0 -168 -84 -246 -231 -246c-103 0 -170 43 -203 120c-31 -81 -100 -120 -213 -120c-154 0 -242 85 -242 246v366h-110c-98 0 -146 -65 -146 -154v-573h-262
c-190 0 -283 89 -283 264v229h68v-222c0 -148 93 -202 229 -202h179v494c0 153 86 230 226 230h168v-433c0 -113 60 -175 173 -175c109 0 175 58 175 175v244h69v-249c0 -112 57 -170 167 -170c105 0 167 55 167 170v326z" />
    <glyph glyph-name="uniFEB8FE8A" unicode="&#xfeb8;&#xfe8a;" horiz-adv-x="1903" 
d="M853 789v-52h-206v96c0 76 40 115 117 115h51v-38h-47c-45 0 -68 -22 -68 -66v-55h153zM1311 728c-23 0 -44 18 -44 43c0 24 20 43 44 43c25 0 45 -19 45 -43c0 -25 -20 -43 -45 -43zM1236 614c-24 0 -45 19 -45 44s20 45 45 45c26 0 46 -20 46 -45s-21 -44 -46 -44z
M1339 658c0 25 20 45 46 45c25 0 45 -20 45 -45s-21 -44 -45 -44c-25 0 -46 19 -46 44zM1903 69h20v-69h-20c-90 0 -153 42 -177 109c-34 -81 -106 -119 -209 -119s-170 43 -203 120c-31 -81 -100 -120 -213 -120c-154 0 -242 85 -242 246v366h-110
c-98 0 -146 -65 -146 -154v-573h-262c-190 0 -283 89 -283 264v229h68v-222c0 -148 93 -202 229 -202h179v494c0 153 86 230 226 230h168v-433c0 -113 60 -175 173 -175c109 0 175 58 175 175v244h69v-249c0 -112 57 -170 167 -170c105 0 167 55 167 170v326h69v-308
c0 -117 55 -179 155 -179z" />
    <glyph glyph-name="uniFD05" unicode="&#xfebb;&#xfef0;" horiz-adv-x="1592" arabic-form="isolated" 
d="M1250 548c192 0 282 -89 282 -264v-284h-438c-154 0 -235 85 -235 246v356h-110c-98 0 -146 -65 -146 -154v-573h-262c-190 0 -283 89 -283 264v229h68v-222c0 -148 93 -202 229 -202h179v494c0 153 86 230 226 230h168v-120h322zM1467 69v225c0 132 -82 185 -208 185
h-331v-239c0 -112 57 -171 166 -171h373z" />
    <glyph glyph-name="uniFD21" unicode="&#xfebc;&#xfef0;" horiz-adv-x="1639" arabic-form="final" 
d="M1532 69h127v-69h-565c-154 0 -235 85 -235 246v356h-110c-98 0 -146 -65 -146 -154v-573h-262c-190 0 -283 89 -283 264v229h68v-222c0 -148 93 -202 229 -202h179v494c0 153 86 230 226 230h168v-120h322c192 0 282 -89 282 -264v-215zM1467 69v225
c0 132 -82 185 -208 185h-331v-239c0 -112 57 -171 166 -171h373z" />
    <glyph glyph-name="uniFD06" unicode="&#xfebb;&#xfef2;" horiz-adv-x="1592" arabic-form="isolated" 
d="M1250 548c192 0 282 -89 282 -264v-284h-438c-154 0 -235 85 -235 246v356h-110c-98 0 -146 -65 -146 -154v-573h-262c-190 0 -283 89 -283 264v229h68v-222c0 -148 93 -202 229 -202h179v494c0 153 86 230 226 230h168v-120h322zM1467 69v225c0 132 -82 185 -208 185
h-331v-239c0 -112 57 -171 166 -171h373zM328 -259c25 0 46 -19 46 -45c0 -25 -21 -45 -46 -45s-46 20 -46 45c0 26 21 45 46 45zM477 -259c25 0 46 -19 46 -45c0 -25 -21 -45 -46 -45s-46 20 -46 45c0 26 20 45 46 45z" />
    <glyph glyph-name="uniFD22" unicode="&#xfebc;&#xfef2;" horiz-adv-x="1639" arabic-form="final" 
d="M1532 69h127v-69h-565c-154 0 -235 85 -235 246v356h-110c-98 0 -146 -65 -146 -154v-573h-262c-190 0 -283 89 -283 264v229h68v-222c0 -148 93 -202 229 -202h179v494c0 153 86 230 226 230h168v-120h322c192 0 282 -89 282 -264v-215zM1467 69v225
c0 132 -82 185 -208 185h-331v-239c0 -112 57 -171 166 -171h373zM328 -259c25 0 46 -19 46 -45c0 -25 -21 -45 -46 -45s-46 20 -46 45c0 26 21 45 46 45zM477 -259c25 0 46 -19 46 -45c0 -25 -21 -45 -46 -45s-46 20 -46 45c0 26 20 45 46 45z" />
    <glyph glyph-name="uniFEBBFE8A" unicode="&#xfebb;&#xfe8a;" horiz-adv-x="1592" 
d="M852 789v-52h-206v96c0 76 40 115 117 115h51v-38h-47c-45 0 -68 -22 -68 -66v-55h153zM1250 548c192 0 282 -89 282 -264v-284h-438c-154 0 -235 85 -235 246v356h-110c-98 0 -146 -65 -146 -154v-573h-262c-190 0 -283 89 -283 264v229h68v-222
c0 -148 93 -202 229 -202h179v494c0 153 86 230 226 230h168v-120h322zM1467 69v225c0 132 -82 185 -208 185h-331v-239c0 -112 57 -171 166 -171h373z" />
    <glyph glyph-name="uniFEBCFE8A" unicode="&#xfebc;&#xfe8a;" horiz-adv-x="1639" 
d="M853 789v-52h-206v96c0 76 40 115 117 115h51v-38h-47c-45 0 -68 -22 -68 -66v-55h153zM1532 69h127v-69h-565c-154 0 -235 85 -235 246v356h-110c-98 0 -146 -65 -146 -154v-573h-262c-190 0 -283 89 -283 264v229h68v-222c0 -148 93 -202 229 -202h179v494
c0 153 86 230 226 230h168v-120h322c192 0 282 -89 282 -264v-215zM1467 69v225c0 132 -82 185 -208 185h-331v-239c0 -112 57 -171 166 -171h373z" />
    <glyph glyph-name="uniFD07" unicode="&#xfebf;&#xfef0;" horiz-adv-x="1592" arabic-form="isolated" 
d="M1228 691c-25 0 -47 18 -47 45c0 26 22 45 47 45c24 0 45 -19 45 -45c0 -27 -22 -45 -45 -45zM1250 548c192 0 282 -89 282 -264v-284h-438c-154 0 -235 85 -235 246v356h-110c-98 0 -146 -65 -146 -154v-573h-262c-190 0 -283 89 -283 264v229h68v-222
c0 -148 93 -202 229 -202h179v494c0 153 86 230 226 230h168v-120h322zM1467 69v225c0 132 -82 185 -208 185h-331v-239c0 -112 57 -171 166 -171h373z" />
    <glyph glyph-name="uniFD23" unicode="&#xfec0;&#xfef0;" horiz-adv-x="1639" arabic-form="final" 
d="M1228 691c-25 0 -47 18 -47 45c0 26 22 45 47 45c24 0 45 -19 45 -45c0 -27 -22 -45 -45 -45zM1532 69h127v-69h-565c-154 0 -235 85 -235 246v356h-110c-98 0 -146 -65 -146 -154v-573h-262c-190 0 -283 89 -283 264v229h68v-222c0 -148 93 -202 229 -202h179v494
c0 153 86 230 226 230h168v-120h322c192 0 282 -89 282 -264v-215zM1467 69v225c0 132 -82 185 -208 185h-331v-239c0 -112 57 -171 166 -171h373z" />
    <glyph glyph-name="uniFD08" unicode="&#xfebf;&#xfef2;" horiz-adv-x="1592" arabic-form="isolated" 
d="M1228 691c-25 0 -47 18 -47 45c0 26 22 45 47 45c24 0 45 -19 45 -45c0 -27 -22 -45 -45 -45zM1250 548c192 0 282 -89 282 -264v-284h-438c-154 0 -235 85 -235 246v356h-110c-98 0 -146 -65 -146 -154v-573h-262c-190 0 -283 89 -283 264v229h68v-222
c0 -148 93 -202 229 -202h179v494c0 153 86 230 226 230h168v-120h322zM1467 69v225c0 132 -82 185 -208 185h-331v-239c0 -112 57 -171 166 -171h373zM328 -259c25 0 46 -19 46 -45c0 -25 -21 -45 -46 -45s-46 20 -46 45c0 26 21 45 46 45zM477 -259c25 0 46 -19 46 -45
c0 -25 -21 -45 -46 -45s-46 20 -46 45c0 26 20 45 46 45z" />
    <glyph glyph-name="uniFD24" unicode="&#xfec0;&#xfef2;" horiz-adv-x="1639" arabic-form="final" 
d="M1228 691c-25 0 -47 18 -47 45c0 26 22 45 47 45c24 0 45 -19 45 -45c0 -27 -22 -45 -45 -45zM1532 69h127v-69h-565c-154 0 -235 85 -235 246v356h-110c-98 0 -146 -65 -146 -154v-573h-262c-190 0 -283 89 -283 264v229h68v-222c0 -148 93 -202 229 -202h179v494
c0 153 86 230 226 230h168v-120h322c192 0 282 -89 282 -264v-215zM1467 69v225c0 132 -82 185 -208 185h-331v-239c0 -112 57 -171 166 -171h373zM328 -259c25 0 46 -19 46 -45c0 -25 -21 -45 -46 -45s-46 20 -46 45c0 26 21 45 46 45zM477 -259c25 0 46 -19 46 -45
c0 -25 -21 -45 -46 -45s-46 20 -46 45c0 26 20 45 46 45z" />
    <glyph glyph-name="uniFEBFFE8A" unicode="&#xfebf;&#xfe8a;" horiz-adv-x="1592" 
d="M852 789v-52h-206v96c0 76 40 115 117 115h51v-38h-47c-45 0 -68 -22 -68 -66v-55h153zM1228 691c-25 0 -47 18 -47 45c0 26 22 45 47 45c24 0 45 -19 45 -45c0 -27 -22 -45 -45 -45zM1250 548c192 0 282 -89 282 -264v-284h-438c-154 0 -235 85 -235 246v356h-110
c-98 0 -146 -65 -146 -154v-573h-262c-190 0 -283 89 -283 264v229h68v-222c0 -148 93 -202 229 -202h179v494c0 153 86 230 226 230h168v-120h322zM1467 69v225c0 132 -82 185 -208 185h-331v-239c0 -112 57 -171 166 -171h373z" />
    <glyph glyph-name="uniFEC0FE8A" unicode="&#xfec0;&#xfe8a;" horiz-adv-x="1639" 
d="M853 789v-52h-206v96c0 76 40 115 117 115h51v-38h-47c-45 0 -68 -22 -68 -66v-55h153zM1228 691c-25 0 -47 18 -47 45c0 26 22 45 47 45c24 0 45 -19 45 -45c0 -27 -22 -45 -45 -45zM1532 69h127v-69h-565c-154 0 -235 85 -235 246v356h-110c-98 0 -146 -65 -146 -154
v-573h-262c-190 0 -283 89 -283 264v229h68v-222c0 -148 93 -202 229 -202h179v494c0 153 86 230 226 230h168v-120h322c192 0 282 -89 282 -264v-215zM1467 69v225c0 132 -82 185 -208 185h-331v-239c0 -112 57 -171 166 -171h373z" />
    <glyph glyph-name="uniFEFB" unicode="&#xfedf;&#xfe8e;" horiz-adv-x="675" arabic-form="isolated" 
d="M43 0l-13 69h282c129 0 203 60 203 172v644h69v-639c0 -163 -97 -246 -278 -246h-263zM212 148v554h69v-554h-69z" />
    <glyph glyph-name="uniFEFC" unicode="&#xfee0;&#xfe8e;" horiz-adv-x="739" arabic-form="final" 
d="M739 69h20v-69h-20c-95 0 -160 47 -181 121c-40 -80 -125 -121 -252 -121h-263l-13 69h282c129 0 203 60 203 172v644h69v-637c0 -117 55 -179 155 -179zM281 702v-554h-69v554h69z" />
    <glyph glyph-name="uniFEF7" unicode="&#xfedf;&#xfe84;" horiz-adv-x="675" arabic-form="isolated" 
d="M174 787v63c0 62 33 103 96 103h16v-40h-19c-36 0 -50 -24 -50 -60v-23h102v-43h-145zM43 0l-13 69h282c129 0 203 60 203 172v644h69v-639c0 -163 -97 -246 -278 -246h-263zM212 148v554h69v-554h-69z" />
    <glyph glyph-name="uniFEF8" unicode="&#xfee0;&#xfe84;" horiz-adv-x="739" arabic-form="final" 
d="M319 830v-43h-145v63c0 62 33 103 96 103h16v-40h-19c-36 0 -50 -24 -50 -60v-23h102zM739 69h20v-69h-20c-95 0 -160 47 -181 121c-40 -80 -125 -121 -252 -121h-263l-13 69h282c129 0 203 60 203 172v644h69v-637c0 -117 55 -179 155 -179zM281 148h-69v554h69v-554z
" />
    <glyph glyph-name="uniFEF9" unicode="&#xfedf;&#xfe88;" horiz-adv-x="675" arabic-form="isolated" 
d="M43 0l-13 69h282c129 0 203 60 203 172v644h69v-639c0 -163 -97 -246 -278 -246h-263zM212 148v554h69v-554h-69zM178 -236v63c0 61 33 103 96 103h22v-40h-25c-36 0 -50 -24 -50 -60v-24h108v-42h-151z" />
    <glyph glyph-name="uniFEFA" unicode="&#xfee0;&#xfe88;" horiz-adv-x="739" arabic-form="final" 
d="M739 69h20v-69h-20c-95 0 -160 47 -181 121c-40 -80 -125 -121 -252 -121h-263l-13 69h282c129 0 203 60 203 172v644h69v-637c0 -117 55 -179 155 -179zM281 702v-554h-69v554h69zM221 -170v-24h108v-42h-151v63c0 61 33 103 96 103h22v-40h-25c-36 0 -50 -24 -50 -60z
" />
    <glyph glyph-name="uniFEF5" unicode="&#xfedf;&#xfe82;" horiz-adv-x="675" arabic-form="isolated" 
d="M43 0l-13 69h282c129 0 203 60 203 172v644h69v-639c0 -163 -97 -246 -278 -246h-263zM159 752v47h175v-47h-175zM212 148v554h69v-554h-69z" />
    <glyph glyph-name="uniFEF6" unicode="&#xfee0;&#xfe82;" horiz-adv-x="739" arabic-form="final" 
d="M739 69h20v-69h-20c-95 0 -160 47 -181 121c-40 -80 -125 -121 -252 -121h-263l-13 69h282c129 0 203 60 203 172v644h69v-637c0 -117 55 -179 155 -179zM334 799v-47h-175v47h175zM281 148h-69v554h69v-554z" />
    <glyph glyph-name="uniFEDFFB51" unicode="&#xfedf;&#xfb51;" horiz-adv-x="675" 
d="M144 747v61c0 59 33 89 97 89h9c64 0 98 -30 98 -89v-61h-204zM43 0l-13 69h282c129 0 203 60 203 172v644h69v-639c0 -163 -97 -246 -278 -246h-263zM194 789h104v22c0 30 -16 46 -48 46h-8c-33 0 -48 -16 -48 -46v-22zM212 148v554h69v-554h-69z" />
    <glyph glyph-name="uniFEE0FB51" unicode="&#xfee0;&#xfb51;" horiz-adv-x="739" 
d="M348 808v-61h-204v61c0 59 33 89 97 89h9c64 0 98 -30 98 -89zM739 69h20v-69h-20c-95 0 -160 47 -181 121c-40 -80 -125 -121 -252 -121h-263l-13 69h282c129 0 203 60 203 172v644h69v-637c0 -117 55 -179 155 -179zM298 789v22c0 30 -16 46 -48 46h-8
c-33 0 -48 -16 -48 -46v-22h104zM281 148h-69v554h69v-554z" />
    <glyph glyph-name="uniFC8A" unicode="&#xfee8;&#xfeae;" horiz-adv-x="694" arabic-form="final" 
d="M490 811c-25 0 -47 18 -47 45c0 26 22 45 47 45c24 0 45 -19 45 -45c0 -27 -22 -45 -45 -45zM691 70h22v-70h-22c-156 0 -239 85 -239 246v233h-228v-512c0 -142 -55 -187 -163 -187c-24 0 -51 4 -75 10l-5 60c28 -5 50 -7 74 -7c63 0 101 30 101 114v591h296v120h69
v-425c0 -114 58 -173 170 -173z" />
    <glyph glyph-name="uniFC8B" unicode="&#xfee8;&#xfeb0;" horiz-adv-x="694" arabic-form="final" 
d="M490 811c-25 0 -47 18 -47 45c0 26 22 45 47 45c24 0 45 -19 45 -45c0 -27 -22 -45 -45 -45zM188 691c-25 0 -47 18 -47 45c0 26 22 45 47 45c24 0 45 -19 45 -45c0 -27 -22 -45 -45 -45zM691 70h22v-70h-22c-156 0 -239 85 -239 246v233h-228v-512
c0 -142 -55 -187 -163 -187c-24 0 -51 4 -75 10l-5 60c28 -5 50 -7 74 -7c63 0 101 30 101 114v591h296v120h69v-425c0 -114 58 -173 170 -173z" />
    <glyph glyph-name="uniFC8D" unicode="&#xfee8;&#xfee6;" horiz-adv-x="1030" arabic-form="final" 
d="M826 743c-25 0 -47 18 -47 45c0 26 22 45 47 45c24 0 45 -19 45 -45c0 -27 -22 -45 -45 -45zM309 623c-25 0 -47 18 -47 45c0 26 22 45 47 45c24 0 45 -19 45 -45c0 -27 -22 -45 -45 -45zM1029 70h21v-70h-21c-157 0 -239 85 -239 246v165h-238v-536h-211
c-186 0 -283 91 -283 262v342h69v-334c0 -146 90 -201 225 -201h132v535h306v120h69v-356c0 -114 58 -173 170 -173z" />
    <glyph glyph-name="uniFC8E" unicode="&#xfee8;&#xfef0;" horiz-adv-x="1137" arabic-form="final" 
d="M933 811c-25 0 -47 18 -47 45c0 26 22 45 47 45c24 0 45 -19 45 -45c0 -27 -22 -45 -45 -45zM1134 70h22v-70h-22c-156 0 -239 85 -239 246v236h-135c-105 0 -158 -69 -158 -165v-442h-262c-190 0 -283 89 -283 264v229h68v-222c0 -148 93 -202 229 -202h179v374
c0 153 86 230 226 230h136v120h69v-425c0 -114 58 -173 170 -173z" />
    <glyph glyph-name="uniFC8F" unicode="&#xfee8;&#xfef2;" horiz-adv-x="1137" arabic-form="final" 
d="M933 811c-25 0 -47 18 -47 45c0 26 22 45 47 45c24 0 45 -19 45 -45c0 -27 -22 -45 -45 -45zM1134 70h22v-70h-22c-156 0 -239 85 -239 246v236h-135c-105 0 -158 -69 -158 -165v-442h-262c-190 0 -283 89 -283 264v229h68v-222c0 -148 93 -202 229 -202h179v374
c0 153 86 230 226 230h136v120h69v-425c0 -114 58 -173 170 -173zM328 -259c25 0 46 -19 46 -45c0 -25 -21 -45 -46 -45s-46 20 -46 45c0 26 21 45 46 45zM477 -259c25 0 46 -19 46 -45c0 -25 -21 -45 -46 -45s-46 20 -46 45c0 26 20 45 46 45z" />
    <glyph glyph-name="uniFEE8FE8A" unicode="&#xfee8;&#xfe8a;" horiz-adv-x="1137" 
d="M933 811c-25 0 -47 18 -47 45c0 26 22 45 47 45c24 0 45 -19 45 -45c0 -27 -22 -45 -45 -45zM1134 70h22v-70h-22c-156 0 -239 85 -239 246v236h-135c-105 0 -158 -69 -158 -165v-442h-262c-190 0 -283 89 -283 264v229h68v-222c0 -148 93 -202 229 -202h179v374
c0 153 86 230 226 230h136v120h69v-425c0 -114 58 -173 170 -173zM164 495v-43h-145v63c0 62 33 103 96 103h16v-40h-19c-36 0 -50 -24 -50 -60v-23h102z" />
    <glyph glyph-name="uniFBE9FEAE" unicode="&#x649;&#xfeae;" horiz-adv-x="694" 
d="M692 70h22v-70h-22c-156 0 -239 85 -239 246v233h-228v-512c0 -142 -55 -187 -163 -187c-24 0 -51 4 -75 10l-5 60c28 -5 50 -7 74 -7c63 0 101 30 101 114v591h296v120h69v-425c0 -114 58 -173 170 -173z" />
    <glyph glyph-name="uniFBE9FEB0" unicode="&#x649;&#xfeb0;" horiz-adv-x="694" 
d="M188 691c-25 0 -47 18 -47 45c0 26 22 45 47 45c24 0 45 -19 45 -45c0 -27 -22 -45 -45 -45zM691 70h22v-70h-22c-156 0 -239 85 -239 246v233h-228v-512c0 -142 -55 -187 -163 -187c-24 0 -51 4 -75 10l-5 60c28 -5 50 -7 74 -7c63 0 101 30 101 114v591h296v120h69
v-425c0 -114 58 -173 170 -173z" />
    <glyph glyph-name="uniFBE9FEE6" unicode="&#x649;&#xfee6;" horiz-adv-x="1030" 
d="M309 623c-25 0 -47 18 -47 45c0 26 22 45 47 45c24 0 45 -19 45 -45c0 -27 -22 -45 -45 -45zM1029 70h21v-70h-21c-157 0 -239 85 -239 246v165h-238v-536h-211c-186 0 -283 91 -283 262v342h69v-334c0 -146 90 -201 225 -201h132v535h306v120h69v-356
c0 -114 58 -173 170 -173z" />
    <glyph glyph-name="uniFBE9FB9F" unicode="&#x649;&#xfb9f;" horiz-adv-x="1030" 
d="M1029 70h21v-70h-21c-157 0 -239 85 -239 246v165h-238v-536h-211c-186 0 -283 91 -283 262v342h69v-334c0 -146 90 -201 225 -201h132v535h306v120h69v-356c0 -114 58 -173 170 -173z" />
    <glyph glyph-name="uniFC91" unicode="&#xfef4;&#xfeae;" horiz-adv-x="694" arabic-form="final" 
d="M691 70h22v-70h-22c-156 0 -239 85 -239 246v233h-228v-512c0 -142 -55 -187 -163 -187c-24 0 -51 4 -75 10l-5 60c28 -5 50 -7 74 -7c63 0 101 30 101 114v591h296v120h69v-425c0 -114 58 -173 170 -173zM364 -134c25 0 46 -19 46 -45c0 -25 -21 -45 -46 -45
s-46 20 -46 45c0 26 21 45 46 45zM513 -134c25 0 46 -19 46 -45c0 -25 -21 -45 -46 -45s-46 20 -46 45c0 26 20 45 46 45z" />
    <glyph glyph-name="uniFC92" unicode="&#xfef4;&#xfeb0;" horiz-adv-x="694" arabic-form="final" 
d="M188 691c-25 0 -47 18 -47 45c0 26 22 45 47 45c24 0 45 -19 45 -45c0 -27 -22 -45 -45 -45zM691 70h22v-70h-22c-156 0 -239 85 -239 246v233h-228v-512c0 -142 -55 -187 -163 -187c-24 0 -51 4 -75 10l-5 60c28 -5 50 -7 74 -7c63 0 101 30 101 114v591h296v120h69
v-425c0 -114 58 -173 170 -173zM364 -134c25 0 46 -19 46 -45c0 -25 -21 -45 -46 -45s-46 20 -46 45c0 26 21 45 46 45zM513 -134c25 0 46 -19 46 -45c0 -25 -21 -45 -46 -45s-46 20 -46 45c0 26 20 45 46 45z" />
    <glyph glyph-name="uniFC94" unicode="&#xfef4;&#xfee6;" horiz-adv-x="1030" arabic-form="final" 
d="M309 623c-25 0 -47 18 -47 45c0 26 22 45 47 45c24 0 45 -19 45 -45c0 -27 -22 -45 -45 -45zM1029 70h21v-70h-21c-157 0 -239 85 -239 246v165h-238v-536h-211c-186 0 -283 91 -283 262v342h69v-334c0 -146 90 -201 225 -201h132v535h306v120h69v-356
c0 -114 58 -173 170 -173zM680 -134c25 0 46 -19 46 -45c0 -25 -21 -45 -46 -45s-46 20 -46 45c0 26 21 45 46 45zM829 -134c25 0 46 -19 46 -45c0 -25 -21 -45 -46 -45s-46 20 -46 45c0 26 20 45 46 45z" />
    <glyph glyph-name="uniFC5A.init" unicode="&#xfef3;&#xfef4;" horiz-adv-x="839" 
d="M699 548h69v-548h-768v69h161v479h69v-479h469v479zM122 -134c25 0 46 -19 46 -45c0 -25 -21 -45 -46 -45s-46 20 -46 45c0 26 21 45 46 45zM271 -134c25 0 46 -19 46 -45c0 -25 -21 -45 -46 -45s-46 20 -46 45c0 26 20 45 46 45zM561 -134c25 0 46 -19 46 -45
c0 -25 -21 -45 -46 -45s-46 20 -46 45c0 26 21 45 46 45zM710 -134c25 0 46 -19 46 -45c0 -25 -21 -45 -46 -45s-46 20 -46 45c0 26 20 45 46 45z" />
    <glyph glyph-name="uniFEF3FE8E" unicode="&#xfef3;&#xfe8e;" horiz-adv-x="599" 
d="M459 548h69v-548h-438v811h69v-742h300v479zM234 -134c25 0 46 -19 46 -45c0 -25 -21 -45 -46 -45s-46 20 -46 45c0 26 21 45 46 45zM383 -134c25 0 46 -19 46 -45c0 -25 -21 -45 -46 -45s-46 20 -46 45c0 26 20 45 46 45z" />
    <glyph glyph-name="uniFEF3FE84" unicode="&#xfef3;&#xfe84;" horiz-adv-x="599" 
d="M199 819v-43h-145v63c0 62 33 103 96 103h16v-40h-19c-36 0 -50 -24 -50 -60v-23h102zM459 548h69v-548h-438v691h69v-622h300v479zM234 -134c25 0 46 -19 46 -45c0 -25 -21 -45 -46 -45s-46 20 -46 45c0 26 21 45 46 45zM383 -134c25 0 46 -19 46 -45
c0 -25 -21 -45 -46 -45s-46 20 -46 45c0 26 20 45 46 45z" />
    <glyph glyph-name="uniFEF3FE82" unicode="&#xfef3;&#xfe82;" horiz-adv-x="599" 
d="M213 788v-47h-175v47h175zM459 548h69v-548h-438v691h69v-622h300v479zM234 -134c25 0 46 -19 46 -45c0 -25 -21 -45 -46 -45s-46 20 -46 45c0 26 21 45 46 45zM383 -134c25 0 46 -19 46 -45c0 -25 -21 -45 -46 -45s-46 20 -46 45c0 26 20 45 46 45z" />
    <glyph glyph-name="uniFEF3FB51" unicode="&#xfef3;&#xfb51;" horiz-adv-x="599" 
d="M228 797v-61h-204v61c0 59 33 89 97 89h9c64 0 98 -30 98 -89zM178 778v22c0 30 -16 46 -48 46h-8c-33 0 -48 -16 -48 -46v-22h104zM459 548h69v-548h-438v691h69v-622h300v479zM234 -134c25 0 46 -19 46 -45c0 -25 -21 -45 -46 -45s-46 20 -46 45c0 26 21 45 46 45z
M383 -134c25 0 46 -19 46 -45c0 -25 -21 -45 -46 -45s-46 20 -46 45c0 26 20 45 46 45z" />
    <glyph glyph-name="uniFC64" unicode="&#xfe8c;&#xfeae;" horiz-adv-x="694" arabic-form="final" 
d="M562 796v-43h-145v63c0 62 33 103 96 103h16v-40h-19c-36 0 -50 -24 -50 -60v-23h102zM691 70h22v-70h-22c-156 0 -239 85 -239 246v233h-228v-512c0 -142 -55 -187 -163 -187c-24 0 -51 4 -75 10l-5 60c28 -5 50 -7 74 -7c63 0 101 30 101 114v591h296v120h69v-425
c0 -114 58 -173 170 -173z" />
    <glyph glyph-name="uniFC65" unicode="&#xfe8c;&#xfeb0;" horiz-adv-x="694" arabic-form="final" 
d="M562 796v-43h-145v63c0 62 33 103 96 103h16v-40h-19c-36 0 -50 -24 -50 -60v-23h102zM188 691c-25 0 -47 18 -47 45c0 26 22 45 47 45c24 0 45 -19 45 -45c0 -27 -22 -45 -45 -45zM691 70h22v-70h-22c-156 0 -239 85 -239 246v233h-228v-512c0 -142 -55 -187 -163 -187
c-24 0 -51 4 -75 10l-5 60c28 -5 50 -7 74 -7c63 0 101 30 101 114v591h296v120h69v-425c0 -114 58 -173 170 -173z" />
    <glyph glyph-name="uniFC67" unicode="&#xfe8c;&#xfee6;" horiz-adv-x="1030" arabic-form="final" 
d="M897 727v-43h-145v63c0 62 33 103 96 103h16v-40h-19c-36 0 -50 -24 -50 -60v-23h102zM309 623c-25 0 -47 18 -47 45c0 26 22 45 47 45c24 0 45 -19 45 -45c0 -27 -22 -45 -45 -45zM1029 70h21v-70h-21c-157 0 -239 85 -239 246v165h-238v-536h-211
c-186 0 -283 91 -283 262v342h69v-334c0 -146 90 -201 225 -201h132v535h306v120h69v-356c0 -114 58 -173 170 -173z" />
    <glyph glyph-name="uniFC68" unicode="&#xfe8c;&#xfef0;" horiz-adv-x="1137" arabic-form="final" 
d="M1005 796v-43h-145v63c0 62 33 103 96 103h16v-40h-19c-36 0 -50 -24 -50 -60v-23h102zM1134 70h22v-70h-22c-156 0 -239 85 -239 246v236h-135c-105 0 -158 -69 -158 -165v-442h-262c-190 0 -283 89 -283 264v229h68v-222c0 -148 93 -202 229 -202h179v374
c0 153 86 230 226 230h136v120h69v-425c0 -114 58 -173 170 -173z" />
    <glyph glyph-name="uniFC69" unicode="&#xfe8c;&#xfef2;" horiz-adv-x="1137" arabic-form="final" 
d="M1005 796v-43h-145v63c0 62 33 103 96 103h16v-40h-19c-36 0 -50 -24 -50 -60v-23h102zM1134 70h22v-70h-22c-156 0 -239 85 -239 246v236h-135c-105 0 -158 -69 -158 -165v-442h-262c-190 0 -283 89 -283 264v229h68v-222c0 -148 93 -202 229 -202h179v374
c0 153 86 230 226 230h136v120h69v-425c0 -114 58 -173 170 -173zM328 -259c25 0 46 -19 46 -45c0 -25 -21 -45 -46 -45s-46 20 -46 45c0 26 21 45 46 45zM477 -259c25 0 46 -19 46 -45c0 -25 -21 -45 -46 -45s-46 20 -46 45c0 26 20 45 46 45z" />
    <glyph glyph-name="uniFE8CFE8A" unicode="&#xfe8c;&#xfe8a;" horiz-adv-x="1137" 
d="M1005 796v-43h-145v63c0 62 33 103 96 103h16v-40h-19c-36 0 -50 -24 -50 -60v-23h102zM1134 70h22v-70h-22c-156 0 -239 85 -239 246v236h-135c-105 0 -158 -69 -158 -165v-442h-262c-190 0 -283 89 -283 264v229h68v-222c0 -148 93 -202 229 -202h179v374
c0 153 86 230 226 230h136v120h69v-425c0 -114 58 -173 170 -173zM164 495v-43h-145v63c0 62 33 103 96 103h16v-40h-19c-36 0 -50 -24 -50 -60v-23h102z" />
    <glyph glyph-name="uniFBFEFE8E" unicode="&#xfbfe;&#xfe8e;" horiz-adv-x="599" 
d="M459 548h69v-548h-438v811h69v-742h300v479zM234 -134c25 0 46 -19 46 -45c0 -25 -21 -45 -46 -45s-46 20 -46 45c0 26 21 45 46 45zM383 -134c25 0 46 -19 46 -45c0 -25 -21 -45 -46 -45s-46 20 -46 45c0 26 20 45 46 45z" />
    <glyph glyph-name="uniFBFEFE84" unicode="&#xfbfe;&#xfe84;" horiz-adv-x="599" 
d="M199 819v-43h-145v63c0 62 33 103 96 103h16v-40h-19c-36 0 -50 -24 -50 -60v-23h102zM459 548h69v-548h-438v691h69v-622h300v479zM234 -134c25 0 46 -19 46 -45c0 -25 -21 -45 -46 -45s-46 20 -46 45c0 26 21 45 46 45zM383 -134c25 0 46 -19 46 -45
c0 -25 -21 -45 -46 -45s-46 20 -46 45c0 26 20 45 46 45z" />
    <glyph glyph-name="uniFBFEFE82" unicode="&#xfbfe;&#xfe82;" horiz-adv-x="599" 
d="M213 788v-47h-175v47h175zM459 548h69v-548h-438v691h69v-622h300v479zM234 -134c25 0 46 -19 46 -45c0 -25 -21 -45 -46 -45s-46 20 -46 45c0 26 21 45 46 45zM383 -134c25 0 46 -19 46 -45c0 -25 -21 -45 -46 -45s-46 20 -46 45c0 26 20 45 46 45z" />
    <glyph glyph-name="uniFBFEFB51" unicode="&#xfbfe;&#xfb51;" horiz-adv-x="599" 
d="M228 797v-61h-204v61c0 59 33 89 97 89h9c64 0 98 -30 98 -89zM178 778v22c0 30 -16 46 -48 46h-8c-33 0 -48 -16 -48 -46v-22h104zM459 548h69v-548h-438v691h69v-622h300v479zM234 -134c25 0 46 -19 46 -45c0 -25 -21 -45 -46 -45s-46 20 -46 45c0 26 21 45 46 45z
M383 -134c25 0 46 -19 46 -45c0 -25 -21 -45 -46 -45s-46 20 -46 45c0 26 20 45 46 45z" />
    <glyph glyph-name="uniFE8E" unicode="&#x627;" horiz-adv-x="267" arabic-form="final" 
d="M160 69h127v-69h-196v811h69v-742z" />
    <glyph glyph-name="uniFE84" unicode="&#x623;" horiz-adv-x="267" arabic-form="final" 
d="M198 819v-43h-145v63c0 62 33 103 96 103h16v-40h-19c-36 0 -50 -24 -50 -60v-23h102zM160 69h127v-69h-196v691h69v-622z" />
    <glyph glyph-name="uniFE88" unicode="&#x625;" horiz-adv-x="267" arabic-form="final" 
d="M160 69h127v-69h-196v811h69v-742zM141 -170v-24h108v-42h-151v63c0 61 33 103 96 103h22v-40h-25c-36 0 -50 -24 -50 -60z" />
    <glyph glyph-name="uniFE82" unicode="&#x622;" horiz-adv-x="267" arabic-form="final" 
d="M213 909v-47h-175v47h175zM160 69h127v-69h-196v811h69v-742z" />
    <glyph glyph-name="uniFB51" unicode="&#x671;" horiz-adv-x="267" arabic-form="final" 
d="M227 797v-61h-204v61c0 59 33 89 97 89h9c64 0 98 -30 98 -89zM177 778v22c0 30 -16 46 -48 46h-8c-33 0 -48 -16 -48 -46v-22h104zM160 69h127v-69h-196v691h69v-622z" />
    <glyph glyph-name="uni066E.init" unicode="&#x66e;" horiz-adv-x="245" 
d="M0 0v69h106v479h69v-548h-175z" />
    <glyph glyph-name="uni066E.medi" unicode="&#x66e;" horiz-adv-x="281" 
d="M0 0v69h106v479h69v-479h126v-69h-301z" />
    <glyph glyph-name="uni066E.fina" unicode="&#x66e;" horiz-adv-x="813" 
d="M706 69h127v-69h-492c-192 0 -283 91 -283 264v192h68v-185c0 -146 90 -202 229 -202h283v479h68v-479z" />
    <glyph glyph-name="uniFE90" unicode="&#x628;" horiz-adv-x="813" arabic-form="final" 
d="M706 69h127v-69h-492c-192 0 -283 91 -283 264v192h68v-185c0 -146 90 -202 229 -202h283v479h68v-479zM427 -134c24 0 45 -19 45 -45c0 -27 -22 -45 -45 -45c-25 0 -47 18 -47 45c0 26 22 45 47 45z" />
    <glyph glyph-name="uniFE92" unicode="&#x628;" horiz-adv-x="281" arabic-form="medial" 
d="M0 0v69h106v479h69v-479h126v-69h-301zM142 -225c-25 0 -47 18 -47 45c0 26 22 45 47 45c24 0 45 -19 45 -45c0 -27 -22 -45 -45 -45z" />
    <glyph glyph-name="uniFE91" unicode="&#x628;" horiz-adv-x="245" arabic-form="initial" 
d="M0 0v69h106v479h69v-548h-175zM88 -224c-25 0 -47 18 -47 45c0 26 22 45 47 45c24 0 45 -19 45 -45c0 -27 -22 -45 -45 -45z" />
    <glyph glyph-name="uniFB57" unicode="&#x67e;" horiz-adv-x="813" arabic-form="final" 
d="M706 69h127v-69h-492c-192 0 -283 91 -283 264v192h68v-185c0 -146 90 -202 229 -202h283v479h68v-479zM399 -192c0 -26 -21 -45 -46 -45c-24 0 -45 19 -45 45c0 25 20 45 45 45c26 0 46 -20 46 -45zM502 -147c25 0 45 -20 45 -45c0 -26 -21 -45 -45 -45
c-25 0 -46 19 -46 45c0 25 20 45 46 45zM428 -262c25 0 45 -19 45 -43s-20 -43 -45 -43c-23 0 -44 19 -44 43s20 43 44 43z" />
    <glyph glyph-name="uniFB59" unicode="&#x67e;" horiz-adv-x="391" arabic-form="medial" 
d="M0 0v69h161v479h69v-479h181v-69h-411zM124 -237c-24 0 -45 19 -45 45c0 25 20 45 45 45c26 0 46 -20 46 -45c0 -26 -21 -45 -46 -45zM273 -237c-25 0 -46 19 -46 45c0 25 20 45 46 45c25 0 45 -20 45 -45c0 -26 -21 -45 -45 -45zM199 -348c-23 0 -44 19 -44 43
s20 43 44 43c25 0 45 -19 45 -43s-20 -43 -45 -43z" />
    <glyph glyph-name="uniFB58" unicode="&#x67e;" horiz-adv-x="332" arabic-form="initial" 
d="M-1 0v69h193v479h69v-548h-262zM58 -237c-24 0 -45 19 -45 45c0 25 20 45 45 45c26 0 46 -20 46 -45c0 -26 -21 -45 -46 -45zM207 -237c-25 0 -46 19 -46 45c0 25 20 45 46 45c25 0 45 -20 45 -45c0 -26 -21 -45 -45 -45zM133 -348c-23 0 -44 19 -44 43s20 43 44 43
c25 0 45 -19 45 -43s-20 -43 -45 -43z" />
    <glyph glyph-name="uniFE96" unicode="&#x62a;" horiz-adv-x="813" arabic-form="final" 
d="M316 630c-25 0 -46 19 -46 45c0 25 21 45 46 45s46 -20 46 -45c0 -26 -21 -45 -46 -45zM465 630c-25 0 -46 19 -46 45c0 25 20 45 46 45c25 0 46 -20 46 -45c0 -26 -21 -45 -46 -45zM706 69h127v-69h-492c-192 0 -283 91 -283 264v192h68v-185c0 -146 90 -202 229 -202
h283v479h68v-479z" />
    <glyph glyph-name="uniFE98" unicode="&#x62a;" horiz-adv-x="391" arabic-form="medial" 
d="M120 681c-25 0 -46 19 -46 45c0 25 21 45 46 45s46 -20 46 -45c0 -26 -21 -45 -46 -45zM269 681c-25 0 -46 19 -46 45c0 25 20 45 46 45c25 0 46 -20 46 -45c0 -26 -21 -45 -46 -45zM0 0v69h161v479h69v-479h181v-69h-411z" />
    <glyph glyph-name="uniFE97" unicode="&#x62a;" horiz-adv-x="332" arabic-form="initial" 
d="M152 681c-25 0 -46 19 -46 45c0 25 21 45 46 45s46 -20 46 -45c0 -26 -21 -45 -46 -45zM301 681c-25 0 -46 19 -46 45c0 25 20 45 46 45c25 0 46 -20 46 -45c0 -26 -21 -45 -46 -45zM-1 0v69h193v479h69v-548h-262z" />
    <glyph glyph-name="uniFE9A" unicode="&#x62b;" horiz-adv-x="813" arabic-form="final" 
d="M391 745c-23 0 -44 18 -44 43c0 24 20 43 44 43c25 0 45 -19 45 -43c0 -25 -20 -43 -45 -43zM316 631c-24 0 -45 19 -45 44s20 45 45 45c26 0 46 -20 46 -45s-21 -44 -46 -44zM419 675c0 25 20 45 46 45c25 0 45 -20 45 -45s-21 -44 -45 -44c-25 0 -46 19 -46 44zM706 69
h127v-69h-492c-192 0 -283 91 -283 264v192h68v-185c0 -146 90 -202 229 -202h283v479h68v-479z" />
    <glyph glyph-name="uniFE9C" unicode="&#x62b;" horiz-adv-x="391" arabic-form="medial" 
d="M195 796c-23 0 -44 18 -44 43c0 24 20 43 44 43c25 0 45 -19 45 -43c0 -25 -20 -43 -45 -43zM120 682c-24 0 -45 19 -45 44s20 45 45 45c26 0 46 -20 46 -45s-21 -44 -46 -44zM269 682c-25 0 -46 19 -46 44s20 45 46 45c25 0 45 -20 45 -45s-21 -44 -45 -44zM0 0v69h161
v479h69v-479h181v-69h-411z" />
    <glyph glyph-name="uniFE9B" unicode="&#x62b;" horiz-adv-x="332" arabic-form="initial" 
d="M227 796c-23 0 -44 18 -44 43c0 24 20 43 44 43c25 0 45 -19 45 -43c0 -25 -20 -43 -45 -43zM152 682c-24 0 -45 19 -45 44s20 45 45 45c26 0 46 -20 46 -45s-21 -44 -46 -44zM301 682c-25 0 -46 19 -46 44s20 45 46 45c25 0 45 -20 45 -45s-21 -44 -45 -44zM-1 0v69h193
v479h69v-548h-262z" />
    <glyph glyph-name="uniFB67" unicode="&#x679;" horiz-adv-x="813" arabic-form="final" 
d="M495 643v-61h-207v192h52v-46h65c56 0 90 -32 90 -85zM442 624v25c0 25 -14 39 -42 39h-60v-64h102zM706 69h127v-69h-492c-192 0 -283 91 -283 264v192h68v-185c0 -146 90 -202 229 -202h283v479h68v-479z" />
    <glyph glyph-name="uniFB69" unicode="&#x679;" horiz-adv-x="391" arabic-form="medial" 
d="M92 634v192h52v-46h65c56 0 90 -32 90 -85v-61h-207zM144 676h102v25c0 25 -14 39 -42 39h-60v-64zM0 0v69h161v479h69v-479h181v-69h-411z" />
    <glyph glyph-name="uniFB68" unicode="&#x679;" horiz-adv-x="332" arabic-form="initial" 
d="M124 634v192h52v-46h65c56 0 90 -32 90 -85v-61h-207zM176 676h102v25c0 25 -14 39 -42 39h-60v-64zM-1 0v69h193v479h69v-548h-262z" />
    <glyph glyph-name="uniFE9E" unicode="&#x62c;" horiz-adv-x="634" arabic-form="final" 
d="M526 69h128v-69h-403c-90 0 -128 -39 -128 -128v-92h-65v109c0 119 59 180 175 180h224c15 66 26 147 26 206c0 133 -73 213 -194 213c-58 0 -99 -11 -164 -48l-25 62c73 39 127 56 193 56c164 0 256 -108 256 -287c0 -61 -10 -136 -23 -202zM331 -160
c24 0 45 -19 45 -45c0 -27 -22 -45 -45 -45c-25 0 -47 18 -47 45c0 26 22 45 47 45z" />
    <glyph glyph-name="uniFEA0" unicode="&#x62c;" horiz-adv-x="594" arabic-form="medial" 
d="M484 69h129v-69h-614v69h416c16 66 26 147 26 206c0 133 -73 213 -194 213c-58 0 -99 -11 -164 -48l-25 62c74 39 128 56 194 56c164 0 255 -108 255 -287c0 -61 -10 -136 -23 -202zM308 -134c24 0 45 -19 45 -45c0 -27 -22 -45 -45 -45c-25 0 -47 18 -47 45
c0 26 22 45 47 45z" />
    <glyph glyph-name="uniFE9F" unicode="&#x62c;" horiz-adv-x="566" arabic-form="initial" 
d="M-1 0v69h416c16 66 26 147 26 206c0 133 -73 213 -194 213c-58 0 -99 -11 -164 -48l-25 62c74 39 128 56 194 56c164 0 255 -108 255 -287c0 -84 -18 -193 -39 -271h-469zM266 -224c-25 0 -47 18 -47 45c0 26 22 45 47 45c24 0 45 -19 45 -45c0 -27 -22 -45 -45 -45z" />
    <glyph glyph-name="uniFB7B" unicode="&#x686;" horiz-adv-x="663" arabic-form="final" 
d="M553 69h129v-69h-397c-79 0 -126 -29 -165 -97l-37 -59l-54 38l43 68c51 83 110 119 207 119h205c16 66 26 147 26 206c0 133 -73 213 -194 213c-58 0 -99 -11 -164 -48l-25 62c74 39 128 56 194 56c164 0 255 -108 255 -287c0 -61 -10 -136 -23 -202zM317 -155
c0 -26 -21 -45 -46 -45c-24 0 -45 19 -45 45c0 25 20 45 45 45c26 0 46 -20 46 -45zM420 -110c25 0 45 -20 45 -45c0 -26 -21 -45 -45 -45c-25 0 -46 19 -46 45c0 25 20 45 46 45zM346 -225c25 0 45 -19 45 -43s-20 -43 -45 -43c-23 0 -44 19 -44 43s20 43 44 43z" />
    <glyph glyph-name="uniFB7D" unicode="&#x686;" horiz-adv-x="594" arabic-form="medial" 
d="M484 69h129v-69h-614v69h416c16 66 26 147 26 206c0 133 -73 213 -194 213c-58 0 -99 -11 -164 -48l-25 62c74 39 128 56 194 56c164 0 255 -108 255 -287c0 -61 -10 -136 -23 -202zM280 -192c0 -26 -21 -45 -46 -45c-24 0 -45 19 -45 45c0 25 20 45 45 45
c26 0 46 -20 46 -45zM383 -147c25 0 45 -20 45 -45c0 -26 -21 -45 -45 -45c-25 0 -46 19 -46 45c0 25 20 45 46 45zM309 -262c25 0 45 -19 45 -43s-20 -43 -45 -43c-23 0 -44 19 -44 43s20 43 44 43z" />
    <glyph glyph-name="uniFB7C" unicode="&#x686;" horiz-adv-x="566" arabic-form="initial" 
d="M-1 0v69h416c16 66 26 147 26 206c0 133 -73 213 -194 213c-58 0 -99 -11 -164 -48l-25 62c74 39 128 56 194 56c164 0 255 -108 255 -287c0 -84 -18 -193 -39 -271h-469zM192 -237c-24 0 -45 19 -45 45c0 25 20 45 45 45c26 0 46 -20 46 -45c0 -26 -21 -45 -46 -45z
M341 -237c-25 0 -46 19 -46 45c0 25 20 45 46 45c25 0 45 -20 45 -45c0 -26 -21 -45 -45 -45zM267 -348c-23 0 -44 19 -44 43s20 43 44 43c25 0 45 -19 45 -43s-20 -43 -45 -43z" />
    <glyph glyph-name="uniFEA2" unicode="&#x62d;" horiz-adv-x="634" arabic-form="final" 
d="M526 69h128v-69h-403c-90 0 -128 -39 -128 -128v-92h-65v109c0 119 59 180 175 180h224c15 66 26 147 26 206c0 133 -73 213 -194 213c-58 0 -99 -11 -164 -48l-25 62c73 39 127 56 193 56c164 0 256 -108 256 -287c0 -61 -10 -136 -23 -202z" />
    <glyph glyph-name="uniFEA4" unicode="&#x62d;" horiz-adv-x="594" arabic-form="medial" 
d="M485 69h129v-69h-614v69h416c16 66 26 147 26 206c0 133 -73 213 -194 213c-58 0 -99 -11 -164 -48l-25 62c74 39 128 56 194 56c164 0 255 -108 255 -287c0 -61 -10 -136 -23 -202z" />
    <glyph glyph-name="uniFEA3" unicode="&#x62d;" horiz-adv-x="566" arabic-form="initial" 
d="M0 0v69h416c16 66 26 147 26 206c0 133 -73 213 -194 213c-58 0 -99 -11 -164 -48l-25 62c74 39 128 56 194 56c164 0 255 -108 255 -287c0 -84 -18 -193 -39 -271h-469z" />
    <glyph glyph-name="uniFEA6" unicode="&#x62e;" horiz-adv-x="634" arabic-form="final" 
d="M294 701c-25 0 -47 18 -47 45c0 26 22 45 47 45c24 0 45 -19 45 -45c0 -27 -22 -45 -45 -45zM526 69h128v-69h-403c-90 0 -128 -39 -128 -128v-92h-65v109c0 119 59 180 175 180h224c15 66 26 147 26 206c0 133 -73 213 -194 213c-58 0 -99 -11 -164 -48l-25 62
c73 39 127 56 193 56c164 0 256 -108 256 -287c0 -61 -10 -136 -23 -202z" />
    <glyph glyph-name="uniFEA8" unicode="&#x62e;" horiz-adv-x="594" arabic-form="medial" 
d="M253 701c-25 0 -47 18 -47 45c0 26 22 45 47 45c24 0 45 -19 45 -45c0 -27 -22 -45 -45 -45zM485 69h129v-69h-614v69h416c16 66 26 147 26 206c0 133 -73 213 -194 213c-58 0 -99 -11 -164 -48l-25 62c74 39 128 56 194 56c164 0 255 -108 255 -287
c0 -61 -10 -136 -23 -202z" />
    <glyph glyph-name="uniFEA7" unicode="&#x62e;" horiz-adv-x="566" arabic-form="initial" 
d="M254 701c-25 0 -47 18 -47 45c0 26 22 45 47 45c24 0 45 -19 45 -45c0 -27 -22 -45 -45 -45zM-1 0v69h416c16 66 26 147 26 206c0 133 -73 213 -194 213c-58 0 -99 -11 -164 -48l-25 62c74 39 128 56 194 56c164 0 255 -108 255 -287c0 -84 -18 -193 -39 -271h-469z" />
    <glyph glyph-name="uniFEAA" unicode="&#x62f;" horiz-adv-x="570" arabic-form="final" 
d="M463 69h127v-69h-560v69h368v249c0 111 -56 161 -157 161h-34v69h25c157 0 231 -80 231 -233v-246z" />
    <glyph glyph-name="uniFEAC" unicode="&#x630;" horiz-adv-x="570" arabic-form="final" 
d="M248 691c-25 0 -47 18 -47 45c0 26 22 45 47 45c24 0 45 -19 45 -45c0 -27 -22 -45 -45 -45zM463 69h127v-69h-560v69h368v249c0 111 -56 161 -157 161h-34v69h25c157 0 231 -80 231 -233v-246z" />
    <glyph glyph-name="uniFB89" unicode="&#x688;" horiz-adv-x="570" arabic-form="final" 
d="M351 695v-61h-207v192h52v-46h65c56 0 90 -32 90 -85zM298 676v25c0 25 -14 39 -42 39h-60v-64h102zM463 69h127v-69h-560v69h368v249c0 111 -56 161 -157 161h-34v69h25c157 0 231 -80 231 -233v-246z" />
    <glyph glyph-name="uniFEAE" unicode="&#x631;" horiz-adv-x="330" arabic-form="final" 
d="M350 69v-69h-125v-33c0 -142 -55 -187 -163 -187c-24 0 -51 4 -75 10l-5 60c28 -5 50 -7 74 -7c63 0 101 30 101 114v591h68v-479h125z" />
    <glyph glyph-name="uniFEB0" unicode="&#x632;" horiz-adv-x="330" arabic-form="final" 
d="M192 691c-25 0 -47 18 -47 45c0 26 22 45 47 45c24 0 45 -19 45 -45c0 -27 -22 -45 -45 -45zM350 69v-69h-125v-33c0 -142 -55 -187 -163 -187c-24 0 -51 4 -75 10l-5 60c28 -5 50 -7 74 -7c63 0 101 30 101 114v591h68v-479h125z" />
    <glyph glyph-name="uniFB8D" unicode="&#x691;" horiz-adv-x="330" arabic-form="final" 
d="M295 695v-61h-207v192h52v-46h65c56 0 90 -32 90 -85zM242 676v25c0 25 -14 39 -42 39h-60v-64h102zM350 69v-69h-125v-33c0 -142 -55 -187 -163 -187c-24 0 -51 4 -75 10l-5 60c28 -5 50 -7 74 -7c63 0 101 30 101 114v591h68v-479h125z" />
    <glyph glyph-name="uniFB8B" unicode="&#x698;" horiz-adv-x="330" arabic-form="final" 
d="M191 796c-23 0 -44 18 -44 43c0 24 20 43 44 43c25 0 45 -19 45 -43c0 -25 -20 -43 -45 -43zM116 682c-24 0 -45 19 -45 44s20 45 45 45c26 0 46 -20 46 -45s-21 -44 -46 -44zM219 726c0 25 20 45 46 45c25 0 45 -20 45 -45s-21 -44 -45 -44c-25 0 -46 19 -46 44zM350 69
v-69h-125v-33c0 -142 -55 -187 -163 -187c-24 0 -51 4 -75 10l-5 60c28 -5 50 -7 74 -7c63 0 101 30 101 114v591h68v-479h125z" />
    <glyph glyph-name="uniFEB2" unicode="&#x633;" horiz-adv-x="1483" arabic-form="final" 
d="M1483 69h20v-69h-20c-90 0 -154 42 -178 111c-34 -81 -106 -121 -215 -121c-101 0 -182 51 -205 133c-27 -78 -92 -123 -190 -123h-143v-125h-211c-186 0 -283 91 -283 262v342h69v-334c0 -146 90 -201 225 -201h132v535h68v-410h142c91 0 161 54 161 159v251h69v-260
c0 -97 67 -159 166 -159c105 0 168 56 168 170v326h69v-311l1 3c0 -117 55 -179 155 -179z" />
    <glyph glyph-name="uniFEB4" unicode="&#x633;" horiz-adv-x="1120" arabic-form="medial" 
d="M1120 69h20v-69h-20c-90 0 -153 42 -177 109c-34 -80 -106 -119 -214 -119c-102 0 -183 51 -205 133c-27 -78 -93 -123 -191 -123h-333v69h121v410h69v-410h142c91 0 162 54 162 159v251h69v-260c0 -97 66 -159 166 -159c105 0 167 56 167 170v326h69v-308
c0 -117 55 -179 155 -179z" />
    <glyph glyph-name="uniFEB3" unicode="&#x633;" horiz-adv-x="1025" arabic-form="initial" 
d="M896 556h69v-320c0 -165 -81 -246 -236 -246c-102 0 -183 51 -205 133c-27 -78 -93 -123 -191 -123h-333v69h121v410h69v-410h142c91 0 162 54 162 159v251h69v-260c0 -97 66 -159 166 -159c105 0 167 56 167 170v326z" />
    <glyph glyph-name="uniFEB6" unicode="&#x634;" horiz-adv-x="1483" arabic-form="final" 
d="M891 728c-23 0 -44 18 -44 43c0 24 20 43 44 43c25 0 45 -19 45 -43c0 -25 -20 -43 -45 -43zM816 614c-24 0 -45 19 -45 44s20 45 45 45c26 0 46 -20 46 -45s-21 -44 -46 -44zM919 658c0 25 20 45 46 45c25 0 45 -20 45 -45s-21 -44 -45 -44c-25 0 -46 19 -46 44z
M1483 69h20v-69h-20c-90 0 -154 42 -178 111c-34 -81 -106 -121 -215 -121c-101 0 -182 51 -205 133c-27 -78 -92 -123 -190 -123h-143v-125h-211c-186 0 -283 91 -283 262v342h69v-334c0 -146 90 -201 225 -201h132v535h68v-410h142c91 0 161 54 161 159v251h69v-260
c0 -97 67 -159 166 -159c105 0 168 56 168 170v326h69v-311l1 3c0 -117 55 -179 155 -179z" />
    <glyph glyph-name="uniFEB8" unicode="&#x634;" horiz-adv-x="1120" arabic-form="medial" 
d="M527 728c-23 0 -44 18 -44 43c0 24 20 43 44 43c25 0 45 -19 45 -43c0 -25 -20 -43 -45 -43zM452 614c-24 0 -45 19 -45 44s20 45 45 45c26 0 46 -20 46 -45s-21 -44 -46 -44zM555 658c0 25 20 45 46 45c25 0 45 -20 45 -45s-21 -44 -45 -44c-25 0 -46 19 -46 44z
M1120 69h20v-69h-20c-90 0 -153 42 -177 109c-34 -80 -106 -119 -214 -119c-102 0 -183 51 -205 133c-27 -78 -93 -123 -191 -123h-333v69h121v410h69v-410h142c91 0 162 54 162 159v251h69v-260c0 -97 66 -159 166 -159c105 0 167 56 167 170v326h69v-308
c0 -117 55 -179 155 -179z" />
    <glyph glyph-name="uniFEB7" unicode="&#x634;" horiz-adv-x="1025" arabic-form="initial" 
d="M527 728c-23 0 -44 18 -44 43c0 24 20 43 44 43c25 0 45 -19 45 -43c0 -25 -20 -43 -45 -43zM452 614c-24 0 -45 19 -45 44s20 45 45 45c26 0 46 -20 46 -45s-21 -44 -46 -44zM555 658c0 25 20 45 46 45c25 0 45 -20 45 -45s-21 -44 -45 -44c-25 0 -46 19 -46 44z
M896 556h69v-320c0 -165 -81 -246 -236 -246c-102 0 -183 51 -205 133c-27 -78 -93 -123 -191 -123h-333v69h121v410h69v-410h142c91 0 162 54 162 159v251h69v-260c0 -97 66 -159 166 -159c105 0 167 56 167 170v326z" />
    <glyph glyph-name="uniFEBA" unicode="&#x635;" horiz-adv-x="1202" arabic-form="final" 
d="M1095 69h127v-69h-670v-125h-211c-186 0 -283 91 -283 262v342h69v-334c0 -146 90 -201 225 -201h132v656h68v-52h261c186 -1 282 -92 282 -264v-215zM1026 69v225c0 132 -82 184 -208 185h-266v-410h474z" />
    <glyph glyph-name="uniFEBC" unicode="&#x635;" horiz-adv-x="840" arabic-form="medial" 
d="M733 69h127v-69h-860v69h121v531h69v-52h261c186 -1 282 -92 282 -264v-215zM664 69v225c0 132 -82 184 -208 185h-266v-410h474z" />
    <glyph glyph-name="uniFEBB" unicode="&#x635;" horiz-adv-x="793" arabic-form="initial" 
d="M451 548c186 -1 282 -92 282 -264v-284h-733v69h121v531h69v-52h261zM664 69v225c0 132 -82 184 -208 185h-266v-410h474z" />
    <glyph glyph-name="uniFEBE" unicode="&#x636;" horiz-adv-x="1202" arabic-form="final" 
d="M804 691c-25 0 -47 18 -47 45c0 26 22 45 47 45c24 0 45 -19 45 -45c0 -27 -22 -45 -45 -45zM1095 69h127v-69h-670v-125h-211c-186 0 -283 91 -283 262v342h69v-334c0 -146 90 -201 225 -201h132v656h68v-52h261c186 -1 282 -92 282 -264v-215zM1026 69v225
c0 132 -82 184 -208 185h-266v-410h474z" />
    <glyph glyph-name="uniFEC0" unicode="&#x636;" horiz-adv-x="840" arabic-form="medial" 
d="M418 691c-25 0 -47 18 -47 45c0 26 22 45 47 45c24 0 45 -19 45 -45c0 -27 -22 -45 -45 -45zM733 69h127v-69h-860v69h121v531h69v-52h261c186 -1 282 -92 282 -264v-215zM664 69v225c0 132 -82 184 -208 185h-266v-410h474z" />
    <glyph glyph-name="uniFEBF" unicode="&#x636;" horiz-adv-x="793" arabic-form="initial" 
d="M418 691c-25 0 -47 18 -47 45c0 26 22 45 47 45c24 0 45 -19 45 -45c0 -27 -22 -45 -45 -45zM451 548c186 -1 282 -92 282 -264v-284h-733v69h121v531h69v-52h261zM664 69v225c0 132 -82 184 -208 185h-266v-410h474z" />
    <glyph glyph-name="uniFEC2" unicode="&#x637;" horiz-adv-x="881" arabic-form="final" 
d="M774 69h127v-69h-871l15 69h118v742h68v-263h261c186 -1 282 -92 282 -264v-215zM705 69v225c0 132 -82 184 -208 185h-266v-410h474z" />
    <glyph glyph-name="uniFEC4" unicode="&#x637;" horiz-adv-x="840" arabic-form="medial" 
d="M733 69h127v-69h-860v69h121v742h69v-263h261c186 -1 282 -92 282 -264v-215zM664 69v225c0 132 -82 184 -208 185h-266v-410h474z" />
    <glyph glyph-name="uniFEC3" unicode="&#x637;" horiz-adv-x="793" arabic-form="initial" 
d="M451 548c186 -1 282 -92 282 -264v-284h-733v69h121v742h69v-263h261zM664 69v225c0 132 -82 184 -208 185h-266v-410h474z" />
    <glyph glyph-name="uniFEC6" unicode="&#x638;" horiz-adv-x="881" arabic-form="final" 
d="M774 69h127v-69h-871l15 69h118v742h68v-263h261c186 -1 282 -92 282 -264v-215zM491 691c-25 0 -47 18 -47 45c0 26 22 45 47 45c24 0 45 -19 45 -45c0 -27 -22 -45 -45 -45zM705 69v225c0 132 -82 184 -208 185h-266v-410h474z" />
    <glyph glyph-name="uniFEC8" unicode="&#x638;" horiz-adv-x="840" arabic-form="medial" 
d="M733 69h127v-69h-860v69h121v742h69v-263h261c186 -1 282 -92 282 -264v-215zM450 691c-25 0 -47 18 -47 45c0 26 22 45 47 45c24 0 45 -19 45 -45c0 -27 -22 -45 -45 -45zM664 69v225c0 132 -82 184 -208 185h-266v-410h474z" />
    <glyph glyph-name="uniFEC7" unicode="&#x638;" horiz-adv-x="793" arabic-form="initial" 
d="M451 548c186 -1 282 -92 282 -264v-284h-733v69h121v742h69v-263h261zM450 691c-25 0 -47 18 -47 45c0 26 22 45 47 45c24 0 45 -19 45 -45c0 -27 -22 -45 -45 -45zM664 69v225c0 132 -82 184 -208 185h-266v-410h474z" />
    <glyph glyph-name="uniFECA" unicode="&#x639;" horiz-adv-x="712" arabic-form="final" 
d="M528 69h204v-69h-484c-85 0 -125 -40 -125 -125v-95h-65v112c0 115 60 177 173 177h9l-142 372c90 75 187 117 287 117c101 0 193 -41 286 -117zM305 69h155l135 337c-67 54 -140 82 -210 82c-69 0 -141 -27 -210 -81z" />
    <glyph glyph-name="uniFECC" unicode="&#x639;" horiz-adv-x="656" arabic-form="medial" 
d="M472 69h204v-69h-676v69h184l-142 372c89 75 186 117 286 117c102 0 194 -41 287 -117zM249 69h155l135 337c-67 54 -140 82 -210 82c-69 0 -141 -27 -210 -81z" />
    <glyph glyph-name="uniFECB" unicode="&#x639;" horiz-adv-x="609" arabic-form="initial" 
d="M0 0v69h155c-49 85 -74 166 -74 230c0 165 99 259 248 259c56 0 119 -17 198 -52l-23 -63c-71 31 -121 46 -170 46c-112 0 -187 -74 -187 -200c0 -65 28 -146 77 -220h328v-69h-552z" />
    <glyph glyph-name="uniFECE" unicode="&#x63a;" horiz-adv-x="712" arabic-form="final" 
d="M385 701c-25 0 -47 18 -47 45c0 26 22 45 47 45c24 0 45 -19 45 -45c0 -27 -22 -45 -45 -45zM528 69h204v-69h-484c-85 0 -125 -40 -125 -125v-95h-65v112c0 115 60 177 173 177h9l-142 372c90 75 187 117 287 117c101 0 193 -41 286 -117zM305 69h155l135 337
c-67 54 -140 82 -210 82c-69 0 -141 -27 -210 -81z" />
    <glyph glyph-name="uniFED0" unicode="&#x63a;" horiz-adv-x="656" arabic-form="medial" 
d="M330 701c-25 0 -47 18 -47 45c0 26 22 45 47 45c24 0 45 -19 45 -45c0 -27 -22 -45 -45 -45zM472 69h204v-69h-676v69h184l-142 372c89 75 186 117 286 117c102 0 194 -41 287 -117zM249 69h155l135 337c-67 54 -140 82 -210 82c-69 0 -141 -27 -210 -81z" />
    <glyph glyph-name="uniFECF" unicode="&#x63a;" horiz-adv-x="609" arabic-form="initial" 
d="M330 701c-25 0 -47 18 -47 45c0 26 22 45 47 45c24 0 45 -19 45 -45c0 -27 -22 -45 -45 -45zM0 0v69h155c-49 85 -74 166 -74 230c0 165 99 259 248 259c56 0 119 -17 198 -52l-23 -63c-71 31 -121 46 -170 46c-112 0 -187 -74 -187 -200c0 -65 28 -146 77 -220h328v-69
h-552z" />
    <glyph glyph-name="uniFED2" unicode="&#x641;" horiz-adv-x="1009" arabic-form="final" 
d="M763 691c-25 0 -47 18 -47 45c0 26 22 45 47 45c24 0 45 -19 45 -45c0 -27 -22 -45 -45 -45zM901 69h127v-69h-131h-6h-130h-421c-192 0 -283 91 -283 264v192h68v-185c0 -146 90 -202 229 -202h192c-58 48 -91 117 -91 202v1c0 166 125 276 314 276h132v-479zM756 69h76
v410h-76c-139 0 -235 -80 -235 -207v-1c0 -122 96 -202 235 -202z" />
    <glyph glyph-name="uniFED4" unicode="&#x641;" horiz-adv-x="640" arabic-form="medial" 
d="M406 691c-25 0 -47 18 -47 45c0 26 22 45 47 45c24 0 45 -19 45 -45c0 -27 -22 -45 -45 -45zM532 69h127v-69h-131h-6h-130h-393v69h178c-58 48 -91 117 -91 202v1c0 166 125 276 314 276h132v-479zM387 69h76v410h-76c-139 0 -235 -80 -235 -207v-1
c0 -122 96 -202 235 -202z" />
    <glyph glyph-name="uniFED3" unicode="&#x641;" horiz-adv-x="603" arabic-form="initial" 
d="M406 691c-25 0 -47 18 -47 45c0 26 22 45 47 45c24 0 45 -19 45 -45c0 -27 -22 -45 -45 -45zM400 548h132v-548h-4h-136h-393v69h178c-58 48 -91 117 -91 202v1c0 166 125 276 314 276zM387 69h76v410h-76c-139 0 -235 -80 -235 -207v-1c0 -122 96 -202 235 -202z" />
    <glyph glyph-name="uniFB6B" unicode="&#x6a4;" horiz-adv-x="1009" arabic-form="final" 
d="M762 796c-23 0 -44 18 -44 43c0 24 20 43 44 43c25 0 45 -19 45 -43c0 -25 -20 -43 -45 -43zM687 682c-24 0 -45 19 -45 44s20 45 45 45c26 0 46 -20 46 -45s-21 -44 -46 -44zM790 726c0 25 20 45 46 45c25 0 45 -20 45 -45s-21 -44 -45 -44c-25 0 -46 19 -46 44zM901 69
h127v-69h-131h-6h-130h-421c-192 0 -283 91 -283 264v192h68v-185c0 -146 90 -202 229 -202h192c-58 48 -91 117 -91 202v1c0 166 125 276 314 276h132v-479zM756 69h76v410h-76c-139 0 -235 -80 -235 -207v-1c0 -122 96 -202 235 -202z" />
    <glyph glyph-name="uniFB6D" unicode="&#x6a4;" horiz-adv-x="640" arabic-form="medial" 
d="M405 796c-23 0 -44 18 -44 43c0 24 20 43 44 43c25 0 45 -19 45 -43c0 -25 -20 -43 -45 -43zM330 682c-24 0 -45 19 -45 44s20 45 45 45c26 0 46 -20 46 -45s-21 -44 -46 -44zM433 726c0 25 20 45 46 45c25 0 45 -20 45 -45s-21 -44 -45 -44c-25 0 -46 19 -46 44zM532 69
h127v-69h-131h-6h-130h-393v69h178c-58 48 -91 117 -91 202v1c0 166 125 276 314 276h132v-479zM387 69h76v410h-76c-139 0 -235 -80 -235 -207v-1c0 -122 96 -202 235 -202z" />
    <glyph glyph-name="uniFB6C" unicode="&#x6a4;" horiz-adv-x="603" arabic-form="initial" 
d="M405 796c-23 0 -44 18 -44 43c0 24 20 43 44 43c25 0 45 -19 45 -43c0 -25 -20 -43 -45 -43zM330 682c-24 0 -45 19 -45 44s20 45 45 45c26 0 46 -20 46 -45s-21 -44 -46 -44zM433 726c0 25 20 45 46 45c25 0 45 -20 45 -45s-21 -44 -45 -44c-25 0 -46 19 -46 44z
M400 548h132v-548h-4h-136h-393v69h178c-58 48 -91 117 -91 202v1c0 166 125 276 314 276zM387 69h76v410h-76c-139 0 -235 -80 -235 -207v-1c0 -122 96 -202 235 -202z" />
    <glyph glyph-name="uni06A1.init" unicode="&#x6a1;" horiz-adv-x="603" 
d="M401 548h132v-548h-4h-136h-393v69h178c-58 48 -91 117 -91 202v1c0 166 125 276 314 276zM388 69h76v410h-76c-139 0 -235 -80 -235 -207v-1c0 -122 96 -202 235 -202z" />
    <glyph glyph-name="uni06A1.medi" unicode="&#x6a1;" horiz-adv-x="640" 
d="M533 69h127v-69h-131h-5h-131h-393v69h178c-58 48 -91 117 -91 202v1c0 166 125 276 314 276h132v-479zM388 69h76v410h-76c-139 0 -235 -80 -235 -207v-1c0 -122 96 -202 235 -202z" />
    <glyph glyph-name="uni06A1.fina" unicode="&#x6a1;" horiz-adv-x="1009" 
d="M902 69h127v-69h-131h-5h-131h-421c-192 0 -283 91 -283 264v192h68v-185c0 -146 90 -202 229 -202h192c-58 48 -91 117 -91 202v1c0 166 125 276 314 276h132v-479zM757 69h76v410h-76c-139 0 -235 -80 -235 -207v-1c0 -122 96 -202 235 -202z" />
    <glyph glyph-name="uni066F.fina" unicode="&#x66f;" horiz-adv-x="856" 
d="M876 69v-69h-127v-220h-408c-190 0 -283 89 -283 264v229h68v-222c0 -148 93 -202 229 -202h325v161h-71c-182 0 -306 100 -306 261v1c0 166 125 276 314 276h132v-479h127zM604 69h76v410h-76c-139 0 -235 -80 -235 -207v-1c0 -122 97 -202 235 -202z" />
    <glyph glyph-name="uniFED6" unicode="&#x642;" horiz-adv-x="856" arabic-form="final" 
d="M533 681c-25 0 -46 19 -46 45c0 25 21 45 46 45s46 -20 46 -45c0 -26 -21 -45 -46 -45zM682 681c-25 0 -46 19 -46 45c0 25 20 45 46 45c25 0 46 -20 46 -45c0 -26 -21 -45 -46 -45zM876 69v-69h-127v-220h-408c-190 0 -283 89 -283 264v229h68v-222
c0 -148 93 -202 229 -202h325v161h-71c-182 0 -306 100 -306 261v1c0 166 125 276 314 276h132v-479h127zM604 69h76v410h-76c-139 0 -235 -80 -235 -207v-1c0 -122 97 -202 235 -202z" />
    <glyph glyph-name="uniFED8" unicode="&#x642;" horiz-adv-x="640" arabic-form="medial" 
d="M329 681c-25 0 -46 19 -46 45c0 25 21 45 46 45s46 -20 46 -45c0 -26 -21 -45 -46 -45zM478 681c-25 0 -46 19 -46 45c0 25 20 45 46 45c25 0 46 -20 46 -45c0 -26 -21 -45 -46 -45zM533 69h127v-69h-131h-5h-131h-393v69h178c-58 48 -91 117 -91 202v1
c0 166 125 276 314 276h132v-479zM388 69h76v410h-76c-139 0 -235 -80 -235 -207v-1c0 -122 96 -202 235 -202z" />
    <glyph glyph-name="uniFED7" unicode="&#x642;" horiz-adv-x="603" arabic-form="initial" 
d="M330 681c-25 0 -46 19 -46 45c0 25 21 45 46 45s46 -20 46 -45c0 -26 -21 -45 -46 -45zM479 681c-25 0 -46 19 -46 45c0 25 20 45 46 45c25 0 46 -20 46 -45c0 -26 -21 -45 -46 -45zM400 548h132v-548h-4h-136h-393v69h178c-58 48 -91 117 -91 202v1
c0 166 125 276 314 276zM387 69h76v410h-76c-139 0 -235 -80 -235 -207v-1c0 -122 96 -202 235 -202z" />
    <glyph glyph-name="uniFEDA" unicode="&#x643;" horiz-adv-x="812" arabic-form="final" 
d="M705 69h127v-69h-492c-192 0 -283 91 -283 264v192h68v-185c0 -146 90 -202 229 -202h283v742h68v-742zM485 520v-64h-206v48h164v23c0 25 -16 40 -42 40h-102c-6 11 -12 25 -15 38l61 78h54l-67 -78h73c52 0 80 -30 80 -85z" />
    <glyph glyph-name="uniFEDC" unicode="&#x643;" horiz-adv-x="692" arabic-form="medial" 
d="M585 69h127v-69h-712v69h515v201c0 108 -57 156 -154 156h-274c-13 16 -24 40 -26 69l161 316h84l-167 -316h215c153 0 231 -77 231 -233v-193z" />
    <glyph glyph-name="uniFEDB" unicode="&#x643;" horiz-adv-x="645" arabic-form="initial" 
d="M0 0v69h515v201c0 108 -57 156 -154 156h-274c-13 16 -24 40 -26 69l161 316h84l-167 -316h215c153 0 231 -77 231 -233v-262h-585z" />
    <glyph glyph-name="uniFB8F" unicode="&#x6a9;" horiz-adv-x="925" arabic-form="final" 
d="M818 69h127v-69h-604c-192 0 -283 91 -283 264v192h68v-185c0 -146 90 -202 229 -202h393v201c0 108 -58 156 -155 156h-230c-12 16 -24 40 -26 69l161 317h84l-167 -317h172c153 0 231 -77 231 -233v-193z" />
    <glyph glyph-name="uniFB91" unicode="&#x6a9;" horiz-adv-x="692" arabic-form="medial" 
d="M585 69h127v-69h-712v69h515v201c0 108 -57 156 -154 156h-274c-13 16 -24 40 -26 69l161 316h84l-167 -316h215c153 0 231 -77 231 -233v-193z" />
    <glyph glyph-name="uniFB90" unicode="&#x6a9;" horiz-adv-x="645" arabic-form="initial" 
d="M0 0v69h515v201c0 108 -57 156 -154 156h-274c-13 16 -24 40 -26 69l161 316h84l-167 -316h215c153 0 231 -77 231 -233v-262h-585z" />
    <glyph glyph-name="uniFB93" unicode="&#x6af;" horiz-adv-x="924" arabic-form="final" 
d="M393 815l-169 -326h-70l170 326h69zM817 69h127v-69h-604c-192 0 -283 91 -283 264v192h68v-185c0 -146 90 -202 229 -202h393v201c0 108 -58 156 -155 156h-230c-12 16 -24 40 -26 69l161 317h84l-167 -317h172c153 0 231 -77 231 -233v-193z" />
    <glyph glyph-name="uniFB95" unicode="&#x6af;" horiz-adv-x="796" arabic-form="medial" 
d="M234 811l-169 -326h-70l170 326h69zM689 69h127v-69h-816v69h619v201c0 108 -58 156 -155 156h-274c-12 16 -23 40 -25 69l161 316h84l-168 -316h216c153 0 231 -77 231 -233v-193z" />
    <glyph glyph-name="uniFB94" unicode="&#x6af;" horiz-adv-x="749" arabic-form="initial" 
d="M-18 488l170 326h69l-169 -326h-70zM-1 0v69h619v201c0 108 -58 156 -155 156h-274c-12 16 -23 40 -25 69l161 316h84l-168 -316h216c153 0 231 -77 231 -233v-262h-689z" />
    <glyph glyph-name="uniFEDE" unicode="&#x644;" horiz-adv-x="659" arabic-form="final" 
d="M679 69v-69h-127v-125h-211c-186 0 -283 91 -283 262v342h69v-334c0 -146 90 -201 225 -201h132v867h68v-742h127z" />
    <glyph glyph-name="uniFEE0" unicode="&#x644;" horiz-adv-x="311" arabic-form="medial" 
d="M190 69h141v-69h-331v69h121v742h69v-742z" />
    <glyph glyph-name="uniFEDF" unicode="&#x644;" horiz-adv-x="281" arabic-form="initial" 
d="M121 811h69v-811h-190v69h121v742z" />
    <glyph glyph-name="uniFEE2" unicode="&#x645;" horiz-adv-x="898" arabic-form="final" 
d="M918 69v-69h-143c-46 -68 -122 -108 -215 -108h-1c-151 0 -254 102 -267 258c-108 -3 -166 -76 -166 -201v-169h-68v179c0 166 86 257 234 260c14 158 117 260 267 260h1c160 0 267 -117 267 -295v-1c0 -41 -6 -80 -18 -114h109zM560 -38c119 0 198 90 198 223v1
c0 134 -79 224 -198 224h-1c-119 0 -199 -90 -199 -224v-1c0 -134 80 -223 199 -223h1z" />
    <glyph glyph-name="uniFEE4" unicode="&#x645;" horiz-adv-x="710" arabic-form="medial" 
d="M730 69v-69h-159c-46 -68 -122 -108 -215 -108h-1c-94 0 -170 40 -216 108h-139v69h105c-12 34 -18 72 -18 114v1c0 178 107 295 268 295h1c160 0 267 -117 267 -295v-1c0 -41 -6 -80 -18 -114h125zM356 -38c119 0 198 90 198 223v1c0 134 -79 224 -198 224h-1
c-119 0 -199 -90 -199 -224v-1c0 -134 80 -223 199 -223h1z" />
    <glyph glyph-name="uniFEE3" unicode="&#x645;" horiz-adv-x="671" arabic-form="initial" 
d="M356 479c160 0 267 -117 267 -295v-1c0 -173 -107 -291 -267 -291h-1c-94 0 -170 40 -216 108h-139v69h105c-12 34 -18 72 -18 114v1c0 178 107 295 268 295h1zM554 185v1c0 134 -79 224 -198 224h-1c-119 0 -199 -90 -199 -224v-1c0 -134 80 -223 199 -223h1
c119 0 198 90 198 223z" />
    <glyph glyph-name="uniFEE6" unicode="&#x646;" horiz-adv-x="659" arabic-form="final" 
d="M309 623c-25 0 -47 18 -47 45c0 26 22 45 47 45c24 0 45 -19 45 -45c0 -27 -22 -45 -45 -45zM679 69v-69h-127v-125h-211c-186 0 -283 91 -283 262v342h69v-334c0 -146 90 -201 225 -201h132v535h68v-410h127z" />
    <glyph glyph-name="uniFEE8" unicode="&#x646;" horiz-adv-x="281" arabic-form="medial" 
d="M141 691c-25 0 -47 18 -47 45c0 26 22 45 47 45c24 0 45 -19 45 -45c0 -27 -22 -45 -45 -45zM0 0v69h106v479h69v-479h126v-69h-301z" />
    <glyph glyph-name="uniFEE7" unicode="&#x646;" horiz-adv-x="245" arabic-form="initial" 
d="M142 691c-25 0 -47 18 -47 45c0 26 22 45 47 45c24 0 45 -19 45 -45c0 -27 -22 -45 -45 -45zM0 0v69h106v479h69v-548h-175z" />
    <glyph glyph-name="uniFB9F" unicode="&#x6ba;" horiz-adv-x="659" arabic-form="final" 
d="M679 69v-69h-127v-125h-211c-186 0 -283 91 -283 262v342h69v-334c0 -146 90 -201 225 -201h132v535h68v-410h127z" />
    <glyph glyph-name="uniFEE9" unicode="&#x647;" horiz-adv-x="844" arabic-form="isolated" 
d="M408 655c222 0 379 -144 379 -406c0 -58 -10 -149 -28 -249h-729l15 69h131c-10 39 -16 88 -16 126c0 143 87 238 210 238c122 0 208 -94 208 -236c0 -38 -6 -88 -16 -128h139c10 68 16 128 16 175c0 222 -127 341 -319 341c-84 0 -154 -20 -234 -63l-25 62
c95 48 178 71 269 71zM368 363c-83 0 -139 -70 -139 -175c0 -43 6 -85 15 -119h251c9 34 14 76 14 119c0 105 -56 175 -141 175z" />
    <glyph glyph-name="uniFEEA" unicode="&#x647;" horiz-adv-x="608" arabic-form="final" 
d="M501 69h127v-69h-196h-71c-183 0 -306 108 -306 271v1c0 166 125 276 314 276h63v50h69v-529zM432 69v410h-76c-139 0 -235 -80 -235 -207v-1c0 -122 96 -202 235 -202h76z" />
    <glyph glyph-name="uniFEEC" unicode="&#x647;" horiz-adv-x="851" arabic-form="medial" 
d="M726 69h145v-69h-871v69h131c-10 39 -16 88 -16 126c0 143 87 238 210 238c122 0 208 -94 208 -236c0 -38 -6 -88 -16 -128h139c10 68 16 128 16 175c0 222 -126 341 -319 341c-84 0 -154 -20 -234 -63l-25 62c95 48 178 71 269 71c222 0 379 -144 379 -406
c0 -44 -5 -108 -16 -180zM184 188c0 -43 6 -85 15 -119h251c9 34 14 76 14 119c0 105 -56 175 -140 175s-140 -70 -140 -175z" />
    <glyph glyph-name="uniFEEB" unicode="&#x647;" horiz-adv-x="799" arabic-form="initial" 
d="M363 655c222 0 379 -144 379 -406c0 -58 -9 -149 -27 -249h-715v69h131c-10 39 -16 88 -16 126c0 143 87 238 210 238c122 0 208 -94 208 -236c0 -38 -6 -88 -16 -128h139c10 68 16 128 16 175c0 222 -126 341 -319 341c-84 0 -154 -20 -234 -63l-25 62
c95 48 178 71 269 71zM184 188c0 -43 6 -85 15 -119h251c9 34 14 76 14 119c0 105 -56 175 -140 175s-140 -70 -140 -175z" />
    <glyph glyph-name="uniFBA5" unicode="&#x6c0;" horiz-adv-x="607" arabic-form="final" 
d="M507 704v-52h-206v96c0 76 40 115 117 115h51v-38h-47c-45 0 -68 -22 -68 -66v-55h153zM500 69h127v-69h-196h-71c-183 0 -306 108 -306 271v1c0 166 125 276 314 276h63v50h69v-529zM431 69v410h-76c-139 0 -235 -80 -235 -207v-1c0 -122 96 -202 235 -202h76z" />
    <glyph glyph-name="uniFBA7" unicode="&#x6c1;" horiz-adv-x="562" arabic-form="final" 
d="M387 0v483h-106c-98 0 -148 -66 -147 -155l1 -167h-69l-1 157c-1 153 87 230 227 230h164v-479h126v-69h-195z" />
    <glyph glyph-name="uniFBA9" unicode="&#x6c1;" horiz-adv-x="706" arabic-form="medial" 
d="M296 -220c-123 0 -202 64 -207 191v29h-89v69h86v289h69v-384c0 -99 51 -149 142 -149h99v244h330v-69h-262v-220h-168zM581 -222l-52 2l51 175l72 -2z" />
    <glyph glyph-name="uniFBA8" unicode="&#x6c1;" horiz-adv-x="332" arabic-form="initial" 
d="M0 0v69h193v479h69v-548h-262zM164 -222l-52 2l51 175l73 -2z" />
    <glyph glyph-name="uni06C2.fina" unicode="&#x6c2;" horiz-adv-x="562" 
d="M196 618v96c0 76 40 115 117 115h51v-38h-47c-45 0 -68 -22 -68 -66v-55h153v-52h-206zM387 0v483h-106c-98 0 -148 -66 -147 -155l1 -167h-69l-1 157c-1 153 87 230 227 230h164v-479h126v-69h-195z" />
    <glyph glyph-name="uniFBAB" unicode="&#x6be;" horiz-adv-x="895" arabic-form="final" 
d="M770 69h145v-69h-885l15 69h131c-10 39 -16 88 -16 126c0 143 87 238 210 238c122 0 208 -94 208 -236c0 -38 -6 -88 -16 -128h139c10 68 16 128 16 175c0 222 -127 341 -319 341c-84 0 -154 -20 -234 -63l-25 62c95 48 178 71 269 71c222 0 379 -144 379 -406
c0 -44 -6 -108 -17 -180zM368 363c-83 0 -139 -70 -139 -175c0 -43 6 -85 15 -119h251c9 34 14 76 14 119c0 105 -56 175 -141 175z" />
    <glyph glyph-name="uniFBAD" unicode="&#x6be;" horiz-adv-x="851" arabic-form="medial" 
d="M726 69h145v-69h-871v69h131c-10 39 -16 88 -16 126c0 143 87 238 210 238c122 0 208 -94 208 -236c0 -38 -6 -88 -16 -128h139c10 68 16 128 16 175c0 222 -126 341 -319 341c-84 0 -154 -20 -234 -63l-25 62c95 48 178 71 269 71c222 0 379 -144 379 -406
c0 -44 -5 -108 -16 -180zM184 188c0 -43 6 -85 15 -119h251c9 34 14 76 14 119c0 105 -56 175 -140 175s-140 -70 -140 -175z" />
    <glyph glyph-name="uniFBAC" unicode="&#x6be;" horiz-adv-x="799" arabic-form="initial" 
d="M363 655c222 0 379 -144 379 -406c0 -58 -9 -149 -27 -249h-715v69h131c-10 39 -16 88 -16 126c0 143 87 238 210 238c122 0 208 -94 208 -236c0 -38 -6 -88 -16 -128h139c10 68 16 128 16 175c0 222 -126 341 -319 341c-84 0 -154 -20 -234 -63l-25 62
c95 48 178 71 269 71zM184 188c0 -43 6 -85 15 -119h251c9 34 14 76 14 119c0 105 -56 175 -140 175s-140 -70 -140 -175z" />
    <glyph glyph-name="uniFE94" unicode="&#x629;" horiz-adv-x="608" arabic-form="final" 
d="M287 695c-25 0 -46 19 -46 45c0 25 21 45 46 45s46 -20 46 -45c0 -26 -21 -45 -46 -45zM436 695c-25 0 -46 19 -46 45c0 25 20 45 46 45c25 0 46 -20 46 -45c0 -26 -21 -45 -46 -45zM501 69h127v-69h-196h-71c-183 0 -306 108 -306 271v1c0 166 125 276 314 276h63v50h69
v-529zM432 69v410h-76c-139 0 -235 -80 -235 -207v-1c0 -122 96 -202 235 -202h76z" />
    <glyph glyph-name="uni06C3.fina" unicode="&#x6c3;" horiz-adv-x="562" 
d="M224 683c-25 0 -46 19 -46 45c0 25 21 45 46 45s46 -20 46 -45c0 -26 -21 -45 -46 -45zM373 683c-25 0 -46 19 -46 45c0 25 20 45 46 45c25 0 46 -20 46 -45c0 -26 -21 -45 -46 -45zM387 0v483h-106c-98 0 -148 -66 -147 -155l1 -167h-69l-1 157c-1 153 87 230 227 230
h164v-479h126v-69h-195z" />
    <glyph glyph-name="uniFEEE" unicode="&#x648;" horiz-adv-x="607" arabic-form="final" 
d="M627 69v-69h-126v-14c0 -151 -74 -206 -207 -206c-57 0 -105 9 -169 33l-12 73c70 -26 121 -37 178 -37c84 0 141 35 141 125v26h-72c-183 0 -306 108 -306 271v1c0 166 125 276 314 276h128h4h1v-479h126zM431 69v410h-76c-139 0 -235 -80 -235 -207v-1
c0 -122 96 -202 235 -202h76z" />
    <glyph glyph-name="uniFE86" unicode="&#x624;" horiz-adv-x="607" arabic-form="final" 
d="M414 668v-52h-206v96c0 76 40 115 117 115h51v-38h-47c-45 0 -68 -22 -68 -66v-55h153zM627 69v-69h-126v-14c0 -151 -74 -206 -207 -206c-57 0 -105 9 -169 33l-12 73c70 -26 121 -37 178 -37c84 0 141 35 141 125v26h-72c-183 0 -306 108 -306 271v1
c0 166 125 276 314 276h128h4h1v-479h126zM431 69v410h-76c-139 0 -235 -80 -235 -207v-1c0 -122 96 -202 235 -202h76z" />
    <glyph glyph-name="uniFEF0" unicode="&#x649;" horiz-adv-x="1042" arabic-form="final" 
d="M935 69h127v-69h-196v482h-117c-98 0 -146 -65 -146 -154v-453h-262c-190 0 -283 89 -283 264v229h68v-222c0 -148 93 -202 229 -202h179v374c0 152 86 230 226 230h175v-479z" />
    <glyph glyph-name="uniFEF2" unicode="&#x64a;" horiz-adv-x="1042" arabic-form="final" 
d="M935 69h127v-69h-196v482h-117c-98 0 -146 -65 -146 -154v-453h-262c-190 0 -283 89 -283 264v229h68v-222c0 -148 93 -202 229 -202h179v374c0 152 86 230 226 230h175v-479zM328 -259c25 0 46 -19 46 -45c0 -25 -21 -45 -46 -45s-46 20 -46 45c0 26 21 45 46 45z
M477 -259c25 0 46 -19 46 -45c0 -25 -21 -45 -46 -45s-46 20 -46 45c0 26 20 45 46 45z" />
    <glyph glyph-name="uniFEF4" unicode="&#x64a;" horiz-adv-x="391" arabic-form="medial" 
d="M0 0v69h161v479h69v-479h181v-69h-411zM122 -224c-25 0 -46 20 -46 45c0 26 21 45 46 45s46 -19 46 -45c0 -25 -21 -45 -46 -45zM271 -224c-25 0 -46 20 -46 45c0 26 20 45 46 45c25 0 46 -19 46 -45c0 -25 -21 -45 -46 -45z" />
    <glyph glyph-name="uniFEF3" unicode="&#x64a;" horiz-adv-x="332" arabic-form="initial" 
d="M-1 0v69h193v479h69v-548h-262zM54 -224c-25 0 -46 20 -46 45c0 26 21 45 46 45s46 -19 46 -45c0 -25 -21 -45 -46 -45zM203 -224c-25 0 -46 20 -46 45c0 26 20 45 46 45c25 0 46 -19 46 -45c0 -25 -21 -45 -46 -45z" />
    <glyph glyph-name="uniFE8A" unicode="&#x626;" horiz-adv-x="1042" arabic-form="final" 
d="M853 669v-52h-206v96c0 76 40 115 117 115h51v-38h-47c-45 0 -68 -22 -68 -66v-55h153zM935 69h127v-69h-196v482h-117c-98 0 -146 -65 -146 -154v-453h-262c-190 0 -283 89 -283 264v229h68v-222c0 -148 93 -202 229 -202h179v374c0 152 86 230 226 230h175v-479z" />
    <glyph glyph-name="uniFE8C" unicode="&#x626;" horiz-adv-x="281" arabic-form="medial" 
d="M68 632v63c0 62 33 103 96 103h16v-40h-19c-36 0 -50 -24 -50 -60v-23h102v-43h-145zM0 0v69h106v479h69v-479h126v-69h-301z" />
    <glyph glyph-name="uniFE8B" unicode="&#x626;" horiz-adv-x="245" arabic-form="initial" 
d="M53 632v63c0 62 33 103 96 103h16v-40h-19c-36 0 -50 -24 -50 -60v-23h102v-43h-145zM0 0v69h106v479h69v-548h-175z" />
    <glyph glyph-name="uniFBFD" unicode="&#x6cc;" horiz-adv-x="1042" arabic-form="final" 
d="M935 69h127v-69h-196v482h-117c-98 0 -146 -65 -146 -154v-453h-262c-190 0 -283 89 -283 264v229h68v-222c0 -148 93 -202 229 -202h179v374c0 152 86 230 226 230h175v-479z" />
    <glyph glyph-name="uniFBFF" unicode="&#x6cc;" horiz-adv-x="391" arabic-form="medial" 
d="M0 0v69h161v479h69v-479h181v-69h-411zM122 -224c-25 0 -46 20 -46 45c0 26 21 45 46 45s46 -19 46 -45c0 -25 -21 -45 -46 -45zM271 -224c-25 0 -46 20 -46 45c0 26 20 45 46 45c25 0 46 -19 46 -45c0 -25 -21 -45 -46 -45z" />
    <glyph glyph-name="uniFBFE" unicode="&#x6cc;" horiz-adv-x="332" arabic-form="initial" 
d="M-1 0v69h193v479h69v-548h-262zM54 -224c-25 0 -46 20 -46 45c0 26 21 45 46 45s46 -19 46 -45c0 -25 -21 -45 -46 -45zM203 -224c-25 0 -46 20 -46 45c0 26 20 45 46 45c25 0 46 -19 46 -45c0 -25 -21 -45 -46 -45z" />
    <glyph glyph-name="uniFBAF" unicode="&#x6d2;" horiz-adv-x="703" arabic-form="final" 
d="M244 -220c-143 0 -214 46 -214 170v119h693v-69h-624v-54c0 -75 44 -97 130 -97h303v-69h-288z" />
    <glyph glyph-name="uniFBB1" unicode="&#x6d3;" horiz-adv-x="703" arabic-form="final" 
d="M239 178v96c0 76 40 115 117 115h51v-38h-47c-45 0 -68 -22 -68 -66v-55h153v-52h-206zM244 -220c-143 0 -214 46 -214 170v119h693v-69h-624v-54c0 -75 44 -97 130 -97h303v-69h-288z" />
    <glyph glyph-name="uni06D5.fina" unicode="&#x6d5;" horiz-adv-x="608" 
d="M501 69h127v-69h-196h-71c-183 0 -306 108 -306 271v1c0 166 125 276 314 276h63v50h69v-529zM432 69v410h-76c-139 0 -235 -80 -235 -207v-1c0 -122 96 -202 235 -202h76z" />
    <glyph glyph-name=".notdef" horiz-adv-x="500" 
 />
    <glyph glyph-name=".null" horiz-adv-x="500" 
 />
    <glyph glyph-name="CR" unicode="&#xd;" horiz-adv-x="500" 
 />
    <glyph glyph-name="space" unicode=" " horiz-adv-x="188" 
 />
    <glyph glyph-name="A" unicode="A" horiz-adv-x="771" 
d="M681 0l-104 264h-384l-104 -264h-71l324 811h83l329 -811h-73zM383 742l-167 -418h338z" />
    <glyph glyph-name="Aacute" unicode="&#xc1;" horiz-adv-x="771" 
d="M534 1024l-128 -147h-59l94 147h93zM681 0l-104 264h-384l-104 -264h-71l324 811h83l329 -811h-73zM383 742l-167 -418h338z" />
    <glyph glyph-name="Abreve" unicode="&#x102;" horiz-adv-x="771" 
d="M388 873c-103 0 -167 40 -178 144h75c10 -62 37 -90 103 -90s93 28 103 90h76c-11 -104 -75 -144 -179 -144zM681 0l-104 264h-384l-104 -264h-71l324 811h83l329 -811h-73zM383 742l-167 -418h338z" />
    <glyph glyph-name="uni01CD" unicode="&#x1cd;" horiz-adv-x="771" 
d="M416 870h-64l-131 147h76l87 -99l89 99h76zM681 0l-104 264h-384l-104 -264h-71l324 811h83l329 -811h-73zM383 742l-167 -418h338z" />
    <glyph glyph-name="Acircumflex" unicode="&#xc2;" horiz-adv-x="771" 
d="M384 976l-87 -99h-76l131 148h64l133 -148h-76zM681 0l-104 264h-384l-104 -264h-71l324 811h83l329 -811h-73zM383 742l-167 -418h338z" />
    <glyph glyph-name="Adieresis" unicode="&#xc4;" horiz-adv-x="771" 
d="M318 878c-30 0 -47 15 -47 44c0 25 17 41 47 41c29 0 47 -16 47 -41c0 -29 -18 -44 -47 -44zM451 878c-29 0 -47 15 -47 44c0 25 18 41 47 41c30 0 48 -16 48 -41c0 -29 -18 -44 -48 -44zM681 0l-104 264h-384l-104 -264h-71l324 811h83l329 -811h-73zM383 742l-167 -418
h338z" />
    <glyph glyph-name="Agrave" unicode="&#xc0;" horiz-adv-x="771" 
d="M423 877h-59l-128 147h93zM681 0l-104 264h-384l-104 -264h-71l324 811h83l329 -811h-73zM383 742l-167 -418h338z" />
    <glyph glyph-name="Amacron" unicode="&#x100;" horiz-adv-x="771" 
d="M532 946v-42h-296v42h296zM681 0l-104 264h-384l-104 -264h-71l324 811h83l329 -811h-73zM383 742l-167 -418h338z" />
    <glyph glyph-name="Aogonek" unicode="&#x104;" horiz-adv-x="771" 
d="M733 -142c10 0 19 2 26 3v-50c-9 -4 -28 -6 -47 -6c-63 0 -102 27 -102 79c0 51 48 90 88 116h-17l-104 264h-384l-104 -264h-71l324 811h83l329 -811h-1c-19 -14 -81 -61 -81 -99c0 -34 27 -43 61 -43zM383 742l-167 -418h338z" />
    <glyph glyph-name="Aring" unicode="&#xc5;" horiz-adv-x="771" 
d="M387 876c-60 0 -109 45 -109 105c0 59 46 102 108 102c59 0 107 -46 107 -105c0 -60 -45 -102 -106 -102zM387 1042c-40 0 -68 -26 -67 -62c-2 -37 29 -63 66 -63c40 0 66 26 66 63c-1 36 -28 62 -65 62zM681 0l-104 264h-384l-104 -264h-71l324 811h83l329 -811h-73z
M383 742l-167 -418h338z" />
    <glyph glyph-name="Atilde" unicode="&#xc3;" horiz-adv-x="771" 
d="M317 927c-29 0 -43 -16 -50 -52h-54c8 70 36 107 94 107c68 0 95 -53 149 -53c29 0 41 17 49 52h54c-8 -70 -33 -106 -93 -106c-66 0 -94 52 -149 52zM681 0l-104 264h-384l-104 -264h-71l324 811h83l329 -811h-73zM383 742l-167 -418h338z" />
    <glyph glyph-name="AE" unicode="&#xc6;" horiz-adv-x="1087" 
d="M599 65h448v-65h-518v245h-303l-155 -245h-71l520 811h522v-65h-443v-294h405v-65h-405v-322zM529 723l-260 -413h260v413z" />
    <glyph glyph-name="B" unicode="B" horiz-adv-x="670" 
d="M453 425c114 -19 184 -86 184 -198v-5c0 -151 -101 -222 -265 -222h-308v811h285c169 0 253 -56 253 -191v-4c0 -102 -56 -167 -149 -191zM348 748h-216v-296h203c122 0 199 49 199 147v5c0 105 -66 144 -186 144zM568 230v6c0 99 -78 153 -201 153h-235v-326h246
c123 0 190 62 190 167z" />
    <glyph glyph-name="C" unicode="C" horiz-adv-x="774" 
d="M464 -11c-241 0 -418 171 -418 415v2c0 244 177 417 419 417c94 0 183 -29 257 -80l-29 -57c-70 48 -147 72 -228 72c-186 0 -347 -134 -347 -352v-2c0 -214 160 -350 346 -350c81 0 159 22 229 70l29 -56c-71 -49 -156 -79 -258 -79z" />
    <glyph glyph-name="Cacute" unicode="&#x106;" horiz-adv-x="774" 
d="M420 878l94 147h93l-128 -147h-59zM464 -11c-241 0 -418 171 -418 415v2c0 244 177 417 419 417c94 0 183 -29 257 -80l-29 -57c-70 48 -147 72 -228 72c-186 0 -347 -134 -347 -352v-2c0 -214 160 -350 346 -350c81 0 159 22 229 70l29 -56c-71 -49 -156 -79 -258 -79z
" />
    <glyph glyph-name="Ccaron" unicode="&#x10c;" horiz-adv-x="774" 
d="M294 1018h76l87 -99l89 99h76l-133 -147h-64zM464 -11c-241 0 -418 171 -418 415v2c0 244 177 417 419 417c94 0 183 -29 257 -80l-29 -57c-70 48 -147 72 -228 72c-186 0 -347 -134 -347 -352v-2c0 -214 160 -350 346 -350c81 0 159 22 229 70l29 -56
c-71 -49 -156 -79 -258 -79z" />
    <glyph glyph-name="Ccedilla" unicode="&#xc7;" horiz-adv-x="774" 
d="M722 68c-68 -47 -149 -77 -246 -79l-31 -41c9 1 18 1 25 1c66 0 101 -35 101 -83v-1c0 -49 -40 -82 -109 -82c-32 0 -56 6 -68 11l-21 54c24 -9 67 -16 89 -16c36 0 53 15 53 37v1c0 21 -17 35 -51 35c-13 0 -37 -2 -57 -8l-25 28l54 65c-227 13 -390 180 -390 414v2
c0 244 177 417 419 417c94 0 183 -29 257 -80l-29 -57c-70 48 -147 72 -228 72c-186 0 -347 -134 -347 -352v-2c0 -214 160 -350 346 -350c81 0 159 22 229 70z" />
    <glyph glyph-name="Ccircumflex" unicode="&#x108;" horiz-adv-x="774" 
d="M294 877l131 148h64l133 -148h-76l-89 99l-87 -99h-76zM464 -11c-241 0 -418 171 -418 415v2c0 244 177 417 419 417c94 0 183 -29 257 -80l-29 -57c-70 48 -147 72 -228 72c-186 0 -347 -134 -347 -352v-2c0 -214 160 -350 346 -350c81 0 159 22 229 70l29 -56
c-71 -49 -156 -79 -258 -79z" />
    <glyph glyph-name="Cdotaccent" unicode="&#x10a;" horiz-adv-x="774" 
d="M458 878c-30 0 -47 15 -47 44c0 25 17 41 47 41c29 0 47 -16 47 -41c0 -29 -18 -44 -47 -44zM464 -11c-241 0 -418 171 -418 415v2c0 244 177 417 419 417c94 0 183 -29 257 -80l-29 -57c-70 48 -147 72 -228 72c-186 0 -347 -134 -347 -352v-2c0 -214 160 -350 346 -350
c81 0 159 22 229 70l29 -56c-71 -49 -156 -79 -258 -79z" />
    <glyph glyph-name="D" unicode="D" horiz-adv-x="756" 
d="M294 811c261 0 415 -158 415 -403v-2c0 -247 -155 -406 -415 -406h-230v811h230zM638 406v2c0 208 -132 338 -346 338h-159v-681h159c213 0 346 131 346 341z" />
    <glyph glyph-name="Eth" unicode="&#xd0;" horiz-adv-x="756" 
d="M294 811c261 0 415 -158 415 -403v-2c0 -247 -155 -406 -415 -406h-230v373h-58v68h58v370h230zM638 406v2c0 208 -132 338 -346 338h-159v-305h169v-68h-169v-308h159c213 0 346 131 346 341z" />
    <glyph glyph-name="Dcaron" unicode="&#x10e;" horiz-adv-x="756" 
d="M363 870h-64l-131 147h76l87 -99l89 99h76zM294 811c261 0 415 -158 415 -403v-2c0 -247 -155 -406 -415 -406h-230v811h230zM638 406v2c0 208 -132 338 -346 338h-159v-681h159c213 0 346 131 346 341z" />
    <glyph glyph-name="Dcroat" unicode="&#x110;" horiz-adv-x="756" 
d="M294 811c261 0 415 -158 415 -403v-2c0 -247 -155 -406 -415 -406h-230v373h-58v68h58v370h230zM638 406v2c0 208 -132 338 -346 338h-159v-305h169v-68h-169v-308h159c213 0 346 131 346 341z" />
    <glyph glyph-name="E" unicode="E" horiz-adv-x="622" 
d="M64 0v811h513v-65h-444v-294h406v-65h-406v-322h449v-65h-518z" />
    <glyph glyph-name="Eacute" unicode="&#xc9;" horiz-adv-x="622" 
d="M298 877l94 147h93l-128 -147h-59zM64 0v811h513v-65h-444v-294h406v-65h-406v-322h449v-65h-518z" />
    <glyph glyph-name="Ebreve" unicode="&#x114;" horiz-adv-x="622" 
d="M340 873c-103 0 -167 40 -178 144h75c10 -62 37 -90 103 -90s93 28 103 90h76c-11 -104 -75 -144 -179 -144zM64 0v811h513v-65h-444v-294h406v-65h-406v-322h449v-65h-518z" />
    <glyph glyph-name="Ecaron" unicode="&#x11a;" horiz-adv-x="622" 
d="M172 1017h76l87 -99l89 99h76l-133 -147h-64zM64 0v811h513v-65h-444v-294h406v-65h-406v-322h449v-65h-518z" />
    <glyph glyph-name="Ecircumflex" unicode="&#xca;" horiz-adv-x="622" 
d="M172 877l131 148h64l133 -148h-76l-89 99l-87 -99h-76zM64 0v811h513v-65h-444v-294h406v-65h-406v-322h449v-65h-518z" />
    <glyph glyph-name="Edieresis" unicode="&#xcb;" horiz-adv-x="622" 
d="M269 878c-30 0 -47 15 -47 44c0 25 17 41 47 41c29 0 47 -16 47 -41c0 -29 -18 -44 -47 -44zM402 878c-29 0 -47 15 -47 44c0 25 18 41 47 41c30 0 48 -16 48 -41c0 -29 -18 -44 -48 -44zM64 0v811h513v-65h-444v-294h406v-65h-406v-322h449v-65h-518z" />
    <glyph glyph-name="Edotaccent" unicode="&#x116;" horiz-adv-x="622" 
d="M336 878c-30 0 -47 15 -47 44c0 25 17 41 47 41c29 0 47 -16 47 -41c0 -29 -18 -44 -47 -44zM64 0v811h513v-65h-444v-294h406v-65h-406v-322h449v-65h-518z" />
    <glyph glyph-name="Egrave" unicode="&#xc8;" horiz-adv-x="622" 
d="M374 877h-59l-128 147h93zM64 0v811h513v-65h-444v-294h406v-65h-406v-322h449v-65h-518z" />
    <glyph glyph-name="Emacron" unicode="&#x112;" horiz-adv-x="622" 
d="M195 887v51h283v-51h-283zM64 0v811h513v-65h-444v-294h406v-65h-406v-322h449v-65h-518z" />
    <glyph glyph-name="Eogonek" unicode="&#x118;" horiz-adv-x="622" 
d="M562 -142c10 0 19 2 26 3v-50c-9 -4 -28 -6 -47 -6c-63 0 -102 27 -102 79c0 51 48 90 88 116h-463v811h513v-65h-444v-294h406v-65h-406v-322h449v-65c-19 -14 -81 -61 -81 -99c0 -34 27 -43 61 -43z" />
    <glyph glyph-name="uni1EBC" unicode="&#x1ebc;" horiz-adv-x="622" 
d="M164 875c8 70 36 107 94 107c68 0 95 -53 149 -53c29 0 41 17 49 52h54c-8 -70 -33 -106 -93 -106c-66 0 -94 52 -149 52c-29 0 -43 -16 -50 -52h-54zM64 0v811h513v-65h-444v-294h406v-65h-406v-322h449v-65h-518z" />
    <glyph glyph-name="F" unicode="F" horiz-adv-x="607" 
d="M64 0v811h506v-65h-437v-294h396v-65h-396v-387h-69z" />
    <glyph glyph-name="G" unicode="G" horiz-adv-x="803" 
d="M437 405h301v-335c-73 -52 -175 -81 -274 -81c-241 0 -418 172 -418 415v2c0 244 177 417 418 417c94 0 186 -26 268 -80l-28 -60c-66 48 -149 75 -238 75c-185 0 -347 -126 -347 -352v-2c0 -224 162 -350 346 -350c76 0 147 19 207 60v234h-235v57z" />
    <glyph glyph-name="Gbreve" unicode="&#x11e;" horiz-adv-x="803" 
d="M466 873c-103 0 -167 40 -178 144h75c10 -62 37 -90 103 -90s93 28 103 90h76c-11 -104 -75 -144 -179 -144zM437 405h301v-335c-73 -52 -175 -81 -274 -81c-241 0 -418 172 -418 415v2c0 244 177 417 418 417c94 0 186 -26 268 -80l-28 -60c-66 48 -149 75 -238 75
c-185 0 -347 -126 -347 -352v-2c0 -224 162 -350 346 -350c76 0 147 19 207 60v234h-235v57z" />
    <glyph glyph-name="Gcircumflex" unicode="&#x11c;" horiz-adv-x="803" 
d="M462 983l-92 -106h-73l131 148h68l133 -148h-73zM437 405h301v-335c-73 -52 -175 -81 -274 -81c-241 0 -418 172 -418 415v2c0 244 177 417 418 417c94 0 186 -26 268 -80l-28 -60c-66 48 -149 75 -238 75c-185 0 -347 -126 -347 -352v-2c0 -224 162 -350 346 -350
c76 0 147 19 207 60v234h-235v57z" />
    <glyph glyph-name="uni0122" unicode="&#x122;" horiz-adv-x="803" 
d="M437 405h301v-335c-73 -52 -175 -81 -274 -81c-241 0 -418 172 -418 415v2c0 244 177 417 418 417c94 0 186 -26 268 -80l-28 -60c-66 48 -149 75 -238 75c-185 0 -347 -126 -347 -352v-2c0 -224 162 -350 346 -350c76 0 147 19 207 60v234h-235v57zM356 -220l61 179h66
l-79 -179h-48z" />
    <glyph glyph-name="Gdotaccent" unicode="&#x120;" horiz-adv-x="803" 
d="M463 878c-30 0 -47 15 -47 44c0 25 17 41 47 41c29 0 47 -16 47 -41c0 -29 -18 -44 -47 -44zM437 405h301v-335c-73 -52 -175 -81 -274 -81c-241 0 -418 172 -418 415v2c0 244 177 417 418 417c94 0 186 -26 268 -80l-28 -60c-66 48 -149 75 -238 75
c-185 0 -347 -126 -347 -352v-2c0 -224 162 -350 346 -350c76 0 147 19 207 60v234h-235v57z" />
    <glyph glyph-name="H" unicode="H" horiz-adv-x="736" 
d="M64 0v811h69v-360h470v360h70v-811h-70v386h-470v-386h-69z" />
    <glyph glyph-name="Hbar" unicode="&#x126;" horiz-adv-x="736" 
d="M736 658v-43h-63v-615h-70v386h-470v-386h-69v615h-64v43h64v153h69v-153h470v153h70v-153h63zM603 451v164h-470v-164h470z" />
    <glyph glyph-name="Hcircumflex" unicode="&#x124;" horiz-adv-x="736" 
d="M204 877l131 148h64l133 -148h-76l-89 99l-87 -99h-76zM64 0v811h69v-360h470v360h70v-811h-70v386h-470v-386h-69z" />
    <glyph glyph-name="I" unicode="I" horiz-adv-x="197" 
d="M64 0v811h69v-811h-69z" />
    <glyph glyph-name="IJ" unicode="&#x132;" horiz-adv-x="665" 
d="M64 0v811h69v-811h-69zM393 -11c-93 0 -150 33 -191 73l20 68c40 -39 96 -72 165 -72c89 0 145 49 145 140v613h69v-618c0 -144 -97 -204 -208 -204z" />
    <glyph glyph-name="Iacute" unicode="&#xcd;" horiz-adv-x="197" 
d="M61 877l94 147h93l-128 -147h-59zM64 0v811h69v-811h-69z" />
    <glyph glyph-name="Ibreve" unicode="&#x12c;" horiz-adv-x="197" 
d="M103 873c-103 0 -167 40 -178 144h75c10 -62 37 -90 103 -90s93 28 103 90h76c-11 -104 -75 -144 -179 -144zM64 0v811h69v-811h-69z" />
    <glyph glyph-name="uni01CF" unicode="&#x1cf;" horiz-adv-x="197" 
d="M-65 1017h76l87 -99l89 99h76l-133 -147h-64zM64 0v811h69v-811h-69z" />
    <glyph glyph-name="Icircumflex" unicode="&#xce;" horiz-adv-x="197" 
d="M-65 877l131 148h64l133 -148h-76l-89 99l-87 -99h-76zM64 0v811h69v-811h-69z" />
    <glyph glyph-name="Idieresis" unicode="&#xcf;" horiz-adv-x="197" 
d="M32 878c-30 0 -47 15 -47 44c0 25 17 41 47 41c29 0 47 -16 47 -41c0 -29 -18 -44 -47 -44zM165 878c-29 0 -47 15 -47 44c0 25 18 41 47 41c30 0 48 -16 48 -41c0 -29 -18 -44 -48 -44zM64 0v811h69v-811h-69z" />
    <glyph glyph-name="Idotaccent" unicode="&#x130;" horiz-adv-x="197" 
d="M99 878c-30 0 -47 15 -47 44c0 25 17 41 47 41c29 0 47 -16 47 -41c0 -29 -18 -44 -47 -44zM64 0v811h69v-811h-69z" />
    <glyph glyph-name="uni1ECA" unicode="&#x1eca;" horiz-adv-x="197" 
d="M64 0v811h69v-811h-69zM99 -125c-29 0 -47 15 -47 44c0 25 18 41 47 41c30 0 47 -16 47 -41c0 -29 -17 -44 -47 -44z" />
    <glyph glyph-name="Igrave" unicode="&#xcc;" horiz-adv-x="197" 
d="M137 877h-59l-128 147h93zM64 0v811h69v-811h-69z" />
    <glyph glyph-name="Imacron" unicode="&#x12a;" horiz-adv-x="197" 
d="M-42 887v51h283v-51h-283zM64 0v811h69v-811h-69z" />
    <glyph glyph-name="Iogonek" unicode="&#x12e;" horiz-adv-x="197" 
d="M113 -142c10 0 19 2 26 3v-50c-9 -4 -28 -6 -47 -6c-63 0 -102 27 -102 79c0 51 48 90 88 116h-14v811h69v-811c-19 -14 -81 -61 -81 -99c0 -34 27 -43 61 -43z" />
    <glyph glyph-name="Itilde" unicode="&#x128;" horiz-adv-x="197" 
d="M-73 875c8 70 36 107 94 107c68 0 95 -53 149 -53c29 0 41 17 49 52h54c-8 -70 -33 -106 -93 -106c-66 0 -94 52 -149 52c-29 0 -43 -16 -50 -52h-54zM64 0v811h69v-811h-69z" />
    <glyph glyph-name="J" unicode="J" horiz-adv-x="468" 
d="M196 -11c-93 0 -150 33 -191 73l20 68c40 -39 96 -72 165 -72c89 0 145 49 145 140v613h69v-618c0 -144 -97 -204 -208 -204z" />
    <glyph glyph-name="Jcircumflex" unicode="&#x134;" horiz-adv-x="468" 
d="M207 877l131 148h64l133 -148h-76l-89 99l-87 -99h-76zM196 -11c-93 0 -150 33 -191 73l20 68c40 -39 96 -72 165 -72c89 0 145 49 145 140v613h69v-618c0 -144 -97 -204 -208 -204z" />
    <glyph glyph-name="K" unicode="K" horiz-adv-x="652" 
d="M219 409l417 -409h-96l-407 401v-401h-69v811h69v-401l415 401h86z" />
    <glyph glyph-name="uni0136" unicode="&#x136;" horiz-adv-x="652" 
d="M219 409l417 -409h-96l-407 401v-401h-69v811h69v-401l415 401h86zM224 -201v49l192 78v-65z" />
    <glyph glyph-name="L" unicode="L" horiz-adv-x="576" 
d="M64 0v811h69v-746h423v-65h-492z" />
    <glyph glyph-name="Lacute" unicode="&#x139;" horiz-adv-x="576" 
d="M62 877l94 147h93l-128 -147h-59zM64 0v811h69v-746h423v-65h-492z" />
    <glyph glyph-name="Lcaron" unicode="&#x13d;" horiz-adv-x="576" 
d="M64 0v811h69v-746h423v-65h-492zM277 600l40 211h59l-57 -211h-42z" />
    <glyph glyph-name="uni013B" unicode="&#x13b;" horiz-adv-x="576" 
d="M64 0v811h69v-746h423v-65h-492zM220 -201v49l192 78v-65z" />
    <glyph glyph-name="Ldot" unicode="&#x13f;" horiz-adv-x="576" 
d="M64 0v811h69v-746h423v-65h-492zM349 399c-26 0 -48 21 -48 47s22 47 48 47s48 -21 48 -47s-22 -47 -48 -47z" />
    <glyph glyph-name="uni1E36" unicode="&#x1e36;" horiz-adv-x="576" 
d="M64 0v811h69v-746h423v-65h-492zM310 -125c-29 0 -47 15 -47 44c0 25 18 41 47 41c30 0 47 -16 47 -41c0 -29 -17 -44 -47 -44z" />
    <glyph glyph-name="uni1E36" unicode="&#x1e37;" horiz-adv-x="576" 
d="M64 0v811h69v-746h423v-65h-492zM310 -125c-29 0 -47 15 -47 44c0 25 18 41 47 41c30 0 47 -16 47 -41c0 -29 -17 -44 -47 -44z" />
    <glyph glyph-name="Lslash" unicode="&#x141;" horiz-adv-x="576" 
d="M133 65h423v-65h-492v389l-79 -41l-29 59l108 56v348h69v-312l82 43l29 -58l-111 -58v-361z" />
    <glyph glyph-name="M" unicode="M" horiz-adv-x="876" 
d="M701 811h111v-811h-70v736l-263 -736h-82l-264 736v-736h-69v811h110l264 -739z" />
    <glyph glyph-name="N" unicode="N" horiz-adv-x="728" 
d="M595 811h69v-811h-98l-433 729v-729h-69v811h98l433 -727v727z" />
    <glyph glyph-name="Nacute" unicode="&#x143;" horiz-adv-x="728" 
d="M506 1024l-128 -147h-59l94 147h93zM595 811h69v-811h-98l-433 729v-729h-69v811h98l433 -727v727z" />
    <glyph glyph-name="Ncaron" unicode="&#x147;" horiz-adv-x="728" 
d="M389 870h-64l-131 147h76l87 -99l89 99h76zM595 811h69v-811h-98l-433 729v-729h-69v811h98l433 -727v727z" />
    <glyph glyph-name="uni0145" unicode="&#x145;" horiz-adv-x="728" 
d="M595 811h69v-811h-98l-433 729v-729h-69v811h98l433 -727v727zM272 -201v49l192 78v-65z" />
    <glyph glyph-name="Eng" unicode="&#x14a;" horiz-adv-x="727" 
d="M593 811h70v-840c0 -130 -64 -200 -178 -200c-49 0 -95 10 -138 27l26 59c32 -11 64 -19 98 -19c74 0 122 41 122 145v19l-460 729v-731h-69v811h98l431 -687v687z" />
    <glyph glyph-name="Ntilde" unicode="&#xd1;" horiz-adv-x="728" 
d="M290 927c-29 0 -43 -16 -50 -52h-54c8 70 36 107 94 107c68 0 95 -53 149 -53c29 0 41 17 49 52h54c-8 -70 -33 -106 -93 -106c-66 0 -94 52 -149 52zM595 811h69v-811h-98l-433 729v-729h-69v811h98l433 -727v727z" />
    <glyph glyph-name="O" unicode="O" horiz-adv-x="928" 
d="M464 -11c-241 0 -418 178 -418 416v2c0 238 177 416 418 416s418 -178 418 -416v-2c0 -238 -177 -416 -418 -416zM464 54c186 0 346 136 346 351v2c0 215 -160 351 -346 351s-346 -136 -346 -351v-2c0 -215 160 -351 346 -351z" />
    <glyph glyph-name="Oacute" unicode="&#xd3;" horiz-adv-x="928" 
d="M426 877l94 147h93l-128 -147h-59zM464 -11c-241 0 -418 178 -418 416v2c0 238 177 416 418 416s418 -178 418 -416v-2c0 -238 -177 -416 -418 -416zM464 54c186 0 346 136 346 351v2c0 215 -160 351 -346 351s-346 -136 -346 -351v-2c0 -215 160 -351 346 -351z" />
    <glyph glyph-name="Obreve" unicode="&#x14e;" horiz-adv-x="928" 
d="M468 873c-103 0 -167 40 -178 144h75c10 -62 37 -90 103 -90s93 28 103 90h76c-11 -104 -75 -144 -179 -144zM464 -11c-241 0 -418 178 -418 416v2c0 238 177 416 418 416s418 -178 418 -416v-2c0 -238 -177 -416 -418 -416zM464 54c186 0 346 136 346 351v2
c0 215 -160 351 -346 351s-346 -136 -346 -351v-2c0 -215 160 -351 346 -351z" />
    <glyph glyph-name="uni01D1" unicode="&#x1d1;" horiz-adv-x="928" 
d="M301 1017h76l87 -99l89 99h76l-133 -147h-64zM464 -11c-241 0 -418 178 -418 416v2c0 238 177 416 418 416s418 -178 418 -416v-2c0 -238 -177 -416 -418 -416zM464 54c186 0 346 136 346 351v2c0 215 -160 351 -346 351s-346 -136 -346 -351v-2
c0 -215 160 -351 346 -351z" />
    <glyph glyph-name="Ocircumflex" unicode="&#xd4;" horiz-adv-x="928" 
d="M300 877l131 148h64l133 -148h-76l-89 99l-87 -99h-76zM464 -11c-241 0 -418 178 -418 416v2c0 238 177 416 418 416s418 -178 418 -416v-2c0 -238 -177 -416 -418 -416zM464 54c186 0 346 136 346 351v2c0 215 -160 351 -346 351s-346 -136 -346 -351v-2
c0 -215 160 -351 346 -351z" />
    <glyph glyph-name="Odieresis" unicode="&#xd6;" horiz-adv-x="928" 
d="M398 878c-30 0 -47 15 -47 44c0 25 17 41 47 41c29 0 47 -16 47 -41c0 -29 -18 -44 -47 -44zM531 878c-29 0 -47 15 -47 44c0 25 18 41 47 41c30 0 48 -16 48 -41c0 -29 -18 -44 -48 -44zM464 -11c-241 0 -418 178 -418 416v2c0 238 177 416 418 416s418 -178 418 -416
v-2c0 -238 -177 -416 -418 -416zM464 54c186 0 346 136 346 351v2c0 215 -160 351 -346 351s-346 -136 -346 -351v-2c0 -215 160 -351 346 -351z" />
    <glyph glyph-name="uni1ECC" unicode="&#x1ecc;" horiz-adv-x="928" 
d="M464 -11c-241 0 -418 178 -418 416v2c0 238 177 416 418 416s418 -178 418 -416v-2c0 -238 -177 -416 -418 -416zM464 54c186 0 346 136 346 351v2c0 215 -160 351 -346 351s-346 -136 -346 -351v-2c0 -215 160 -351 346 -351zM464 -125c-29 0 -47 15 -47 44
c0 25 18 41 47 41c30 0 47 -16 47 -41c0 -29 -17 -44 -47 -44z" />
    <glyph glyph-name="Ograve" unicode="&#xd2;" horiz-adv-x="928" 
d="M503 877h-59l-128 147h93zM464 -11c-241 0 -418 178 -418 416v2c0 238 177 416 418 416s418 -178 418 -416v-2c0 -238 -177 -416 -418 -416zM464 54c186 0 346 136 346 351v2c0 215 -160 351 -346 351s-346 -136 -346 -351v-2c0 -215 160 -351 346 -351z" />
    <glyph glyph-name="Ohungarumlaut" unicode="&#x150;" horiz-adv-x="928" 
d="M346 877l63 147h93l-97 -147h-59zM502 877l62 147h93l-97 -147h-58zM464 -11c-241 0 -418 178 -418 416v2c0 238 177 416 418 416s418 -178 418 -416v-2c0 -238 -177 -416 -418 -416zM464 54c186 0 346 136 346 351v2c0 215 -160 351 -346 351s-346 -136 -346 -351v-2
c0 -215 160 -351 346 -351z" />
    <glyph glyph-name="Omacron" unicode="&#x14c;" horiz-adv-x="928" 
d="M323 887v51h283v-51h-283zM464 -11c-241 0 -418 178 -418 416v2c0 238 177 416 418 416s418 -178 418 -416v-2c0 -238 -177 -416 -418 -416zM464 54c186 0 346 136 346 351v2c0 215 -160 351 -346 351s-346 -136 -346 -351v-2c0 -215 160 -351 346 -351z" />
    <glyph glyph-name="Oslash" unicode="&#xd8;" horiz-adv-x="928" 
d="M766 701c73 -74 116 -177 116 -294v-2c0 -238 -177 -416 -418 -416c-100 0 -190 31 -260 84l-69 -77h-96l113 125c-67 74 -106 172 -106 284v2c0 238 177 416 418 416c95 0 181 -28 249 -76l65 72h94zM118 405c0 -94 30 -173 80 -232l469 523c-57 40 -128 62 -203 62
c-186 0 -346 -136 -346 -351v-2zM810 405v2c0 100 -34 182 -90 242l-470 -525c59 -45 134 -70 214 -70c186 0 346 136 346 351z" />
    <glyph glyph-name="Otilde" unicode="&#xd5;" horiz-adv-x="928" 
d="M293 875c8 70 36 107 94 107c68 0 95 -53 149 -53c29 0 41 17 49 52h54c-8 -70 -33 -106 -93 -106c-66 0 -94 52 -149 52c-29 0 -43 -16 -50 -52h-54zM464 -11c-241 0 -418 178 -418 416v2c0 238 177 416 418 416s418 -178 418 -416v-2c0 -238 -177 -416 -418 -416z
M464 54c186 0 346 136 346 351v2c0 215 -160 351 -346 351s-346 -136 -346 -351v-2c0 -215 160 -351 346 -351z" />
    <glyph glyph-name="OE" unicode="&#x152;" horiz-adv-x="1368" 
d="M879 65h449v-65h-518v164c-73 -108 -198 -175 -346 -175c-241 0 -418 178 -418 416v2c0 238 177 416 418 416c148 0 273 -67 346 -175v163h513v-65h-444v-286c0 -3 1 -5 1 -8h405v-65h-403l-3 -35v-287zM464 54c186 0 346 136 346 351v2c0 215 -160 351 -346 351
s-346 -136 -346 -351v-2c0 -215 160 -351 346 -351z" />
    <glyph glyph-name="P" unicode="P" horiz-adv-x="697" 
d="M378 811c202 0 278 -101 278 -232v-1c0 -140 -79 -243 -278 -243h-245v-335h-69v811h314zM585 573v1c0 123 -83 172 -213 172h-239v-346h239c130 0 213 48 213 173z" />
    <glyph glyph-name="Thorn" unicode="&#xde;" horiz-adv-x="703" 
d="M378 644c203 0 278 -101 278 -232v-1c0 -140 -79 -243 -278 -243h-245v-168h-69v811h69v-167h245zM585 409v1c0 122 -83 170 -213 170h-239v-347h239c130 0 213 49 213 176z" />
    <glyph glyph-name="Q" unicode="Q" horiz-adv-x="928" 
d="M464 823c241 0 418 -178 418 -416v-2c0 -169 -89 -307 -227 -374l79 -133l-61 -34l-84 142c-39 -11 -81 -17 -125 -17c-241 0 -418 178 -418 416v2c0 238 177 416 418 416zM810 405v2c0 215 -160 351 -346 351s-346 -136 -346 -351v-2c0 -215 160 -351 346 -351
c31 0 61 4 90 11l-80 136l61 34l86 -146c111 54 189 166 189 316z" />
    <glyph glyph-name="R" unicode="R" horiz-adv-x="699" 
d="M592 0l-236 345h-223v-345h-69v811h304c202 0 278 -97 278 -228v-1c0 -123 -62 -214 -215 -233l238 -349h-77zM133 746v-336h233c126 0 210 43 210 172v1c0 122 -84 163 -210 163h-233z" />
    <glyph glyph-name="Racute" unicode="&#x154;" horiz-adv-x="699" 
d="M464 1024l-128 -147h-59l94 147h93zM592 0l-236 345h-223v-345h-69v811h304c202 0 278 -97 278 -228v-1c0 -123 -62 -214 -215 -233l238 -349h-77zM133 746v-336h233c126 0 210 43 210 172v1c0 122 -84 163 -210 163h-233z" />
    <glyph glyph-name="Rcaron" unicode="&#x158;" horiz-adv-x="699" 
d="M347 870h-64l-131 147h76l87 -99l89 99h76zM592 0l-236 345h-223v-345h-69v811h304c202 0 278 -97 278 -228v-1c0 -123 -62 -214 -215 -233l238 -349h-77zM133 746v-336h233c126 0 210 43 210 172v1c0 122 -84 163 -210 163h-233z" />
    <glyph glyph-name="uni0156" unicode="&#x156;" horiz-adv-x="699" 
d="M431 349l238 -349h-77l-236 345h-223v-345h-69v811h304c202 0 278 -97 278 -228v-1c0 -123 -62 -214 -215 -233zM133 746v-336h233c126 0 210 43 210 172v1c0 122 -84 163 -210 163h-233zM247 -201v49l192 78v-65z" />
    <glyph glyph-name="S" unicode="S" horiz-adv-x="655" 
d="M310 -11c-92 0 -186 26 -256 76l28 58c63 -46 145 -72 226 -72c132 0 216 67 216 164v2c0 85 -59 119 -233 175c-170 56 -222 109 -222 230v2c0 119 95 199 252 199c90 0 183 -24 249 -69l-27 -58c-61 42 -142 65 -221 65c-123 0 -183 -60 -183 -135v-1
c0 -89 51 -123 191 -169c198 -65 265 -116 265 -237v-2c0 -139 -111 -228 -285 -228z" />
    <glyph glyph-name="Sacute" unicode="&#x15a;" horiz-adv-x="655" 
d="M292 877l94 147h93l-128 -147h-59zM310 -11c-92 0 -186 26 -256 76l28 58c63 -46 145 -72 226 -72c132 0 216 67 216 164v2c0 85 -59 119 -233 175c-170 56 -222 109 -222 230v2c0 119 95 199 252 199c90 0 183 -24 249 -69l-27 -58c-61 42 -142 65 -221 65
c-123 0 -183 -60 -183 -135v-1c0 -89 51 -123 191 -169c198 -65 265 -116 265 -237v-2c0 -139 -111 -228 -285 -228z" />
    <glyph glyph-name="Scaron" unicode="&#x160;" horiz-adv-x="655" 
d="M167 1017h76l87 -99l89 99h76l-133 -147h-64zM310 -11c-92 0 -186 26 -256 76l28 58c63 -46 145 -72 226 -72c132 0 216 67 216 164v2c0 85 -59 119 -233 175c-170 56 -222 109 -222 230v2c0 119 95 199 252 199c90 0 183 -24 249 -69l-27 -58c-61 42 -142 65 -221 65
c-123 0 -183 -60 -183 -135v-1c0 -89 51 -123 191 -169c198 -65 265 -116 265 -237v-2c0 -139 -111 -228 -285 -228z" />
    <glyph glyph-name="Scedilla" unicode="&#x15e;" horiz-adv-x="655" 
d="M330 456c198 -65 265 -116 265 -237v-2c0 -134 -103 -221 -266 -228l-31 -41c9 1 18 1 25 1c66 0 101 -35 101 -83v-1c0 -49 -40 -82 -109 -82c-32 0 -56 6 -68 11l-21 54c24 -9 67 -16 89 -16c36 0 53 15 53 37v1c0 21 -17 35 -51 35c-13 0 -37 -2 -57 -8l-25 28l53 64
c-85 4 -169 30 -234 76l28 58c63 -46 145 -72 226 -72c132 0 216 67 216 164v2c0 85 -59 119 -233 175c-170 56 -222 109 -222 230v2c0 119 95 199 252 199c90 0 183 -24 249 -69l-27 -58c-61 42 -142 65 -221 65c-123 0 -183 -60 -183 -135v-1c0 -89 51 -123 191 -169z" />
    <glyph glyph-name="Scircumflex" unicode="&#x15c;" horiz-adv-x="655" 
d="M166 877l131 148h64l133 -148h-76l-89 99l-87 -99h-76zM310 -11c-92 0 -186 26 -256 76l28 58c63 -46 145 -72 226 -72c132 0 216 67 216 164v2c0 85 -59 119 -233 175c-170 56 -222 109 -222 230v2c0 119 95 199 252 199c90 0 183 -24 249 -69l-27 -58
c-61 42 -142 65 -221 65c-123 0 -183 -60 -183 -135v-1c0 -89 51 -123 191 -169c198 -65 265 -116 265 -237v-2c0 -139 -111 -228 -285 -228z" />
    <glyph glyph-name="uni0218" unicode="&#x218;" horiz-adv-x="655" 
d="M310 -11c-92 0 -186 26 -256 76l28 58c63 -46 145 -72 226 -72c132 0 216 67 216 164v2c0 85 -59 119 -233 175c-170 56 -222 109 -222 230v2c0 119 95 199 252 199c90 0 183 -24 249 -69l-27 -58c-61 42 -142 65 -221 65c-123 0 -183 -60 -183 -135v-1
c0 -89 51 -123 191 -169c198 -65 265 -116 265 -237v-2c0 -139 -111 -228 -285 -228zM227 -201v49l192 78v-65z" />
    <glyph glyph-name="uni1E9E" unicode="&#x1e9e;" horiz-adv-x="674" 
d="M461 426c110 -21 180 -84 180 -199v-1c0 -149 -107 -226 -275 -226h-139v65h149c126 0 194 55 194 162v1c0 108 -84 160 -207 160h-63v65h28c126 0 205 47 205 157c0 99 -75 136 -199 136h-201v-746h-69v811h262c184 0 277 -55 277 -201c0 -95 -54 -158 -142 -184z" />
    <glyph glyph-name="uni018F" unicode="&#x18f;" horiz-adv-x="785" 
d="M380 823c236 0 359 -166 359 -417v-2c0 -248 -126 -415 -349 -415c-224 0 -344 165 -344 413v25h620c-7 219 -115 331 -288 331c-88 0 -168 -28 -236 -76l-29 60c83 55 174 81 267 81zM390 53c162 0 267 113 275 320h-545c8 -207 111 -320 270 -320z" />
    <glyph glyph-name="T" unicode="T" horiz-adv-x="659" 
d="M295 0v746h-275v65h619v-65h-274v-746h-70z" />
    <glyph glyph-name="Tbar" unicode="&#x166;" horiz-adv-x="659" 
d="M639 746h-274v-214h144v-68h-144v-464h-70v464h-148v68h148v214h-275v65h619v-65z" />
    <glyph glyph-name="Tcaron" unicode="&#x164;" horiz-adv-x="659" 
d="M166 1017h76l87 -99l89 99h76l-133 -147h-64zM295 0v746h-275v65h619v-65h-274v-746h-70z" />
    <glyph glyph-name="uni0162" unicode="&#x162;" horiz-adv-x="659" 
d="M365 0h-12l-39 -52c10 0 19 1 26 1c66 0 100 -35 100 -83v-1c0 -49 -40 -82 -109 -82c-31 0 -56 6 -68 11l-21 54c24 -9 68 -16 89 -16c36 0 53 15 53 37v1c0 21 -17 35 -50 35c-13 0 -37 -2 -58 -8l-25 28l61 75h-17v746h-275v65h619v-65h-274v-746z" />
    <glyph glyph-name="uni021A" unicode="&#x21a;" horiz-adv-x="659" 
d="M295 0v746h-275v65h619v-65h-274v-746h-70zM240 -201v49l192 78v-65z" />
    <glyph glyph-name="U" unicode="U" horiz-adv-x="775" 
d="M388 -11c-233 0 -324 113 -324 325v497h69v-478c0 -196 76 -277 255 -277c178 0 254 81 254 277v478h69v-497c0 -212 -91 -325 -323 -325z" />
    <glyph glyph-name="Uacute" unicode="&#xda;" horiz-adv-x="775" 
d="M352 877l94 147h93l-128 -147h-59zM388 -11c-233 0 -324 113 -324 325v497h69v-478c0 -196 76 -277 255 -277c178 0 254 81 254 277v478h69v-497c0 -212 -91 -325 -323 -325z" />
    <glyph glyph-name="Ubreve" unicode="&#x16c;" horiz-adv-x="775" 
d="M394 873c-103 0 -167 40 -178 144h75c10 -62 37 -90 103 -90s93 28 103 90h76c-11 -104 -75 -144 -179 -144zM388 -11c-233 0 -324 113 -324 325v497h69v-478c0 -196 76 -277 255 -277c178 0 254 81 254 277v478h69v-497c0 -212 -91 -325 -323 -325z" />
    <glyph glyph-name="uni01D3" unicode="&#x1d3;" horiz-adv-x="775" 
d="M226 1017h76l87 -99l89 99h76l-133 -147h-64zM388 -11c-233 0 -324 113 -324 325v497h69v-478c0 -196 76 -277 255 -277c178 0 254 81 254 277v478h69v-497c0 -212 -91 -325 -323 -325z" />
    <glyph glyph-name="Ucircumflex" unicode="&#xdb;" horiz-adv-x="775" 
d="M226 877l131 148h64l133 -148h-76l-89 99l-87 -99h-76zM388 -11c-233 0 -324 113 -324 325v497h69v-478c0 -196 76 -277 255 -277c178 0 254 81 254 277v478h69v-497c0 -212 -91 -325 -323 -325z" />
    <glyph glyph-name="Udieresis" unicode="&#xdc;" horiz-adv-x="775" 
d="M323 878c-30 0 -47 15 -47 44c0 25 17 41 47 41c29 0 47 -16 47 -41c0 -29 -18 -44 -47 -44zM456 878c-29 0 -47 15 -47 44c0 25 18 41 47 41c30 0 48 -16 48 -41c0 -29 -18 -44 -48 -44zM388 -11c-233 0 -324 113 -324 325v497h69v-478c0 -196 76 -277 255 -277
c178 0 254 81 254 277v478h69v-497c0 -212 -91 -325 -323 -325z" />
    <glyph glyph-name="uni1EE4" unicode="&#x1ee4;" horiz-adv-x="775" 
d="M388 -11c-233 0 -324 113 -324 325v497h69v-478c0 -196 76 -277 255 -277c178 0 254 81 254 277v478h69v-497c0 -212 -91 -325 -323 -325zM387 -125c-29 0 -47 15 -47 44c0 25 18 41 47 41c30 0 47 -16 47 -41c0 -29 -17 -44 -47 -44z" />
    <glyph glyph-name="Ugrave" unicode="&#xd9;" horiz-adv-x="775" 
d="M428 877h-59l-128 147h93zM388 -11c-233 0 -324 113 -324 325v497h69v-478c0 -196 76 -277 255 -277c178 0 254 81 254 277v478h69v-497c0 -212 -91 -325 -323 -325z" />
    <glyph glyph-name="Uhungarumlaut" unicode="&#x170;" horiz-adv-x="775" 
d="M272 877l63 147h93l-97 -147h-59zM428 877l62 147h93l-97 -147h-58zM388 -11c-233 0 -324 113 -324 325v497h69v-478c0 -196 76 -277 255 -277c178 0 254 81 254 277v478h69v-497c0 -212 -91 -325 -323 -325z" />
    <glyph glyph-name="Umacron" unicode="&#x16a;" horiz-adv-x="775" 
d="M249 887v51h283v-51h-283zM388 -11c-233 0 -324 113 -324 325v497h69v-478c0 -196 76 -277 255 -277c178 0 254 81 254 277v478h69v-497c0 -212 -91 -325 -323 -325z" />
    <glyph glyph-name="Uogonek" unicode="&#x172;" horiz-adv-x="775" 
d="M642 811h69v-497c0 -191 -74 -302 -258 -322c-23 -17 -76 -60 -76 -95c0 -34 27 -43 61 -43c10 0 19 2 26 3v-50c-9 -4 -28 -6 -47 -6c-63 0 -102 27 -102 79c0 46 40 83 77 109h-4c-233 0 -324 113 -324 325v497h69v-478c0 -196 76 -277 255 -277c178 0 254 81 254 277
v478z" />
    <glyph glyph-name="Uring" unicode="&#x16e;" horiz-adv-x="775" 
d="M392 876c-60 0 -109 45 -109 105c0 59 46 102 108 102c59 0 107 -46 107 -105c0 -60 -45 -102 -106 -102zM391 917c40 0 66 26 66 63c-1 36 -28 62 -65 62c-40 0 -68 -26 -67 -62c-2 -37 29 -63 66 -63zM388 -11c-233 0 -324 113 -324 325v497h69v-478
c0 -196 76 -277 255 -277c178 0 254 81 254 277v478h69v-497c0 -212 -91 -325 -323 -325z" />
    <glyph glyph-name="Utilde" unicode="&#x168;" horiz-adv-x="775" 
d="M218 875c8 70 36 107 94 107c68 0 95 -53 149 -53c29 0 41 17 49 52h54c-8 -70 -33 -106 -93 -106c-66 0 -94 52 -149 52c-29 0 -43 -16 -50 -52h-54zM388 -11c-233 0 -324 113 -324 325v497h69v-478c0 -196 76 -277 255 -277c178 0 254 81 254 277v478h69v-497
c0 -212 -91 -325 -323 -325z" />
    <glyph glyph-name="V" unicode="V" horiz-adv-x="702" 
d="M614 811h74l-290 -811h-98l-287 811h75l261 -739z" />
    <glyph glyph-name="W" unicode="W" horiz-adv-x="994" 
d="M906 811h75l-204 -811h-104l-176 738l-177 -738h-103l-204 811h75l181 -736l177 736h103l175 -738z" />
    <glyph glyph-name="Wacute" unicode="&#x1e82;" horiz-adv-x="994" 
d="M646 1024l-128 -147h-59l94 147h93zM906 811h75l-204 -811h-104l-176 738l-177 -738h-103l-204 811h75l181 -736l177 736h103l175 -738z" />
    <glyph glyph-name="Wcircumflex" unicode="&#x174;" horiz-adv-x="994" 
d="M496 976l-87 -99h-76l131 148h64l133 -148h-76zM906 811h75l-204 -811h-104l-176 738l-177 -738h-103l-204 811h75l181 -736l177 736h103l175 -738z" />
    <glyph glyph-name="Wdieresis" unicode="&#x1e84;" horiz-adv-x="994" 
d="M430 878c-30 0 -47 15 -47 44c0 25 17 41 47 41c29 0 47 -16 47 -41c0 -29 -18 -44 -47 -44zM563 878c-29 0 -47 15 -47 44c0 25 18 41 47 41c30 0 48 -16 48 -41c0 -29 -18 -44 -48 -44zM906 811h75l-204 -811h-104l-176 738l-177 -738h-103l-204 811h75l181 -736
l177 736h103l175 -738z" />
    <glyph glyph-name="Wgrave" unicode="&#x1e80;" horiz-adv-x="994" 
d="M535 877h-59l-128 147h93zM906 811h75l-204 -811h-104l-176 738l-177 -738h-103l-204 811h75l181 -736l177 736h103l175 -738z" />
    <glyph glyph-name="X" unicode="X" horiz-adv-x="684" 
d="M13 0l287 407l-282 404h82l244 -344l245 344h79l-283 -401l286 -410h-82l-248 350l-250 -350h-78z" />
    <glyph glyph-name="Y" unicode="Y" horiz-adv-x="715" 
d="M609 811h80l-297 -491v-320h-69v320l-297 491h84l250 -419z" />
    <glyph glyph-name="Yacute" unicode="&#xdd;" horiz-adv-x="715" 
d="M506 1024l-128 -147h-59l94 147h93zM609 811h80l-297 -491v-320h-69v320l-297 491h84l250 -419z" />
    <glyph glyph-name="Ycircumflex" unicode="&#x176;" horiz-adv-x="715" 
d="M356 976l-87 -99h-76l131 148h64l133 -148h-76zM609 811h80l-297 -491v-320h-69v320l-297 491h84l250 -419z" />
    <glyph glyph-name="Ydieresis" unicode="&#x178;" horiz-adv-x="715" 
d="M291 878c-30 0 -47 15 -47 44c0 25 17 41 47 41c29 0 47 -16 47 -41c0 -29 -18 -44 -47 -44zM424 878c-29 0 -47 15 -47 44c0 25 18 41 47 41c30 0 48 -16 48 -41c0 -29 -18 -44 -48 -44zM609 811h80l-297 -491v-320h-69v320l-297 491h84l250 -419z" />
    <glyph glyph-name="Ygrave" unicode="&#x1ef2;" horiz-adv-x="715" 
d="M396 877h-59l-128 147h93zM609 811h80l-297 -491v-320h-69v320l-297 491h84l250 -419z" />
    <glyph glyph-name="uni0232" unicode="&#x232;" horiz-adv-x="715" 
d="M499 938v-51h-283v51h283zM609 811h80l-297 -491v-320h-69v320l-297 491h84l250 -419z" />
    <glyph glyph-name="uni1EF8" unicode="&#x1ef8;" horiz-adv-x="715" 
d="M290 927c-29 0 -43 -16 -50 -52h-54c8 70 36 107 94 107c68 0 95 -53 149 -53c29 0 41 17 49 52h54c-8 -70 -33 -106 -93 -106c-66 0 -94 52 -149 52zM609 811h80l-297 -491v-320h-69v320l-297 491h84l250 -419z" />
    <glyph glyph-name="uni1EF8" unicode="&#x1ef9;" horiz-adv-x="715" 
d="M290 927c-29 0 -43 -16 -50 -52h-54c8 70 36 107 94 107c68 0 95 -53 149 -53c29 0 41 17 49 52h54c-8 -70 -33 -106 -93 -106c-66 0 -94 52 -149 52zM609 811h80l-297 -491v-320h-69v320l-297 491h84l250 -419z" />
    <glyph glyph-name="Z" unicode="Z" horiz-adv-x="636" 
d="M609 811v-64l-506 -682h502v-65h-580v65l505 681h-505v65h584z" />
    <glyph glyph-name="Zacute" unicode="&#x179;" horiz-adv-x="636" 
d="M477 1024l-128 -147h-59l94 147h93zM609 811v-64l-506 -682h502v-65h-580v65l505 681h-505v65h584z" />
    <glyph glyph-name="Zcaron" unicode="&#x17d;" horiz-adv-x="636" 
d="M359 870h-64l-131 147h76l87 -99l89 99h76zM609 811v-64l-506 -682h502v-65h-580v65l505 681h-505v65h584z" />
    <glyph glyph-name="Zdotaccent" unicode="&#x17b;" horiz-adv-x="636" 
d="M328 878c-30 0 -47 15 -47 44c0 25 17 41 47 41c29 0 47 -16 47 -41c0 -29 -18 -44 -47 -44zM609 811v-64l-506 -682h502v-65h-580v65l505 681h-505v65h584z" />
    <glyph glyph-name="a" unicode="a" horiz-adv-x="592" 
d="M305 562c137 0 226 -55 226 -204v-349c-75 -13 -165 -22 -227 -22c-170 0 -261 53 -261 172v2c0 113 86 169 250 169c47 0 104 -5 168 -13v39c0 96 -52 144 -169 144c-64 0 -139 -20 -200 -48l11 67c55 26 134 43 202 43zM115 159c0 -77 68 -106 192 -106
c40 0 101 5 154 13v188c-54 9 -116 13 -154 13c-124 0 -192 -28 -192 -106v-2z" />
    <glyph glyph-name="aacute" unicode="&#xe1;" horiz-adv-x="592" 
d="M455 777l-128 -147h-59l94 147h93zM305 562c137 0 226 -55 226 -204v-349c-75 -13 -165 -22 -227 -22c-170 0 -261 53 -261 172v2c0 113 86 169 250 169c47 0 104 -5 168 -13v39c0 96 -52 144 -169 144c-64 0 -139 -20 -200 -48l11 67c55 26 134 43 202 43zM115 159
c0 -77 68 -106 192 -106c40 0 101 5 154 13v188c-54 9 -116 13 -154 13c-124 0 -192 -28 -192 -106v-2z" />
    <glyph glyph-name="abreve" unicode="&#x103;" horiz-adv-x="592" 
d="M310 625c-103 0 -167 40 -178 144h75c10 -62 37 -90 103 -90s93 28 103 90h76c-11 -104 -75 -144 -179 -144zM305 562c137 0 226 -55 226 -204v-349c-75 -13 -165 -22 -227 -22c-170 0 -261 53 -261 172v2c0 113 86 169 250 169c47 0 104 -5 168 -13v39
c0 96 -52 144 -169 144c-64 0 -139 -20 -200 -48l11 67c55 26 134 43 202 43zM115 159c0 -77 68 -106 192 -106c40 0 101 5 154 13v188c-54 9 -116 13 -154 13c-124 0 -192 -28 -192 -106v-2z" />
    <glyph glyph-name="uni01CE" unicode="&#x1ce;" horiz-adv-x="592" 
d="M338 623h-64l-131 147h76l87 -99l89 99h76zM305 562c137 0 226 -55 226 -204v-349c-75 -13 -165 -22 -227 -22c-170 0 -261 53 -261 172v2c0 113 86 169 250 169c47 0 104 -5 168 -13v39c0 96 -52 144 -169 144c-64 0 -139 -20 -200 -48l11 67c55 26 134 43 202 43z
M115 159c0 -77 68 -106 192 -106c40 0 101 5 154 13v188c-54 9 -116 13 -154 13c-124 0 -192 -28 -192 -106v-2z" />
    <glyph glyph-name="acircumflex" unicode="&#xe2;" horiz-adv-x="592" 
d="M305 728l-87 -99h-76l131 148h64l133 -148h-76zM305 562c137 0 226 -55 226 -204v-349c-75 -13 -165 -22 -227 -22c-170 0 -261 53 -261 172v2c0 113 86 169 250 169c47 0 104 -5 168 -13v39c0 96 -52 144 -169 144c-64 0 -139 -20 -200 -48l11 67c55 26 134 43 202 43z
M115 159c0 -77 68 -106 192 -106c40 0 101 5 154 13v188c-54 9 -116 13 -154 13c-124 0 -192 -28 -192 -106v-2z" />
    <glyph glyph-name="adieresis" unicode="&#xe4;" horiz-adv-x="592" 
d="M240 630c-30 0 -47 15 -47 44c0 25 17 41 47 41c29 0 47 -16 47 -41c0 -29 -18 -44 -47 -44zM373 630c-29 0 -47 15 -47 44c0 25 18 41 47 41c30 0 48 -16 48 -41c0 -29 -18 -44 -48 -44zM305 562c137 0 226 -55 226 -204v-349c-75 -13 -165 -22 -227 -22
c-170 0 -261 53 -261 172v2c0 113 86 169 250 169c47 0 104 -5 168 -13v39c0 96 -52 144 -169 144c-64 0 -139 -20 -200 -48l11 67c55 26 134 43 202 43zM115 159c0 -77 68 -106 192 -106c40 0 101 5 154 13v188c-54 9 -116 13 -154 13c-124 0 -192 -28 -192 -106v-2z" />
    <glyph glyph-name="agrave" unicode="&#xe0;" horiz-adv-x="592" 
d="M345 630h-59l-128 147h93zM305 562c137 0 226 -55 226 -204v-349c-75 -13 -165 -22 -227 -22c-170 0 -261 53 -261 172v2c0 113 86 169 250 169c47 0 104 -5 168 -13v39c0 96 -52 144 -169 144c-64 0 -139 -20 -200 -48l11 67c55 26 134 43 202 43zM115 159
c0 -77 68 -106 192 -106c40 0 101 5 154 13v188c-54 9 -116 13 -154 13c-124 0 -192 -28 -192 -106v-2z" />
    <glyph glyph-name="amacron" unicode="&#x101;" horiz-adv-x="592" 
d="M448 691v-51h-283v51h283zM305 562c137 0 226 -55 226 -204v-349c-75 -13 -165 -22 -227 -22c-170 0 -261 53 -261 172v2c0 113 86 169 250 169c47 0 104 -5 168 -13v39c0 96 -52 144 -169 144c-64 0 -139 -20 -200 -48l11 67c55 26 134 43 202 43zM115 159
c0 -77 68 -106 192 -106c40 0 101 5 154 13v188c-54 9 -116 13 -154 13c-124 0 -192 -28 -192 -106v-2z" />
    <glyph glyph-name="aogonek" unicode="&#x105;" horiz-adv-x="592" 
d="M509 -132c10 0 19 2 26 3v-50c-9 -4 -28 -6 -47 -6c-63 0 -102 27 -102 79c0 43 35 79 70 104c-54 -7 -110 -11 -152 -11c-170 0 -261 53 -261 172v2c0 113 86 169 250 169c47 0 104 -5 168 -13v39c0 96 -52 144 -169 144c-64 0 -139 -20 -200 -48l11 67
c55 26 134 43 202 43c137 0 226 -55 226 -204v-349l-4 -1c-22 -16 -79 -60 -79 -97c0 -34 27 -43 61 -43zM115 159c0 -77 68 -106 192 -106c40 0 101 5 154 13v188c-54 9 -116 13 -154 13c-124 0 -192 -28 -192 -106v-2z" />
    <glyph glyph-name="aring" unicode="&#xe5;" horiz-adv-x="592" 
d="M309 629c-60 0 -109 45 -109 105c0 59 46 102 108 102c59 0 107 -46 107 -105c0 -60 -45 -102 -106 -102zM309 795c-40 0 -68 -26 -67 -62c-2 -37 29 -63 66 -63c40 0 66 26 66 63c-1 36 -28 62 -65 62zM305 562c137 0 226 -55 226 -204v-349c-75 -13 -165 -22 -227 -22
c-170 0 -261 53 -261 172v2c0 113 86 169 250 169c47 0 104 -5 168 -13v39c0 96 -52 144 -169 144c-64 0 -139 -20 -200 -48l11 67c55 26 134 43 202 43zM115 159c0 -77 68 -106 192 -106c40 0 101 5 154 13v188c-54 9 -116 13 -154 13c-124 0 -192 -28 -192 -106v-2z" />
    <glyph glyph-name="atilde" unicode="&#xe3;" horiz-adv-x="592" 
d="M239 679c-29 0 -43 -16 -50 -52h-54c8 70 36 107 94 107c68 0 95 -53 149 -53c29 0 41 17 49 52h54c-8 -70 -33 -106 -93 -106c-66 0 -94 52 -149 52zM305 562c137 0 226 -55 226 -204v-349c-75 -13 -165 -22 -227 -22c-170 0 -261 53 -261 172v2c0 113 86 169 250 169
c47 0 104 -5 168 -13v39c0 96 -52 144 -169 144c-64 0 -139 -20 -200 -48l11 67c55 26 134 43 202 43zM115 159c0 -77 68 -106 192 -106c40 0 101 5 154 13v188c-54 9 -116 13 -154 13c-124 0 -192 -28 -192 -106v-2z" />
    <glyph glyph-name="ae" unicode="&#xe6;" horiz-adv-x="1036" 
d="M989 271v-16h-457c9 -115 85 -204 214 -204c82 0 143 31 185 63l30 -56c-49 -36 -119 -69 -217 -69c-91 0 -164 32 -213 85v-65c-75 -13 -165 -22 -227 -22c-170 0 -261 53 -261 172v2c0 113 86 169 250 169c47 0 104 -5 168 -13v39c0 96 -52 144 -169 144
c-64 0 -139 -20 -200 -48l11 67c55 26 134 43 202 43c100 0 174 -29 207 -103c45 65 118 105 212 105c171 0 265 -121 265 -293zM724 502c-111 0 -178 -81 -191 -185h383c-8 101 -71 185 -192 185zM461 66v182v6c-54 9 -116 13 -154 13c-124 0 -192 -28 -192 -106v-2
c0 -77 68 -106 192 -106c40 0 101 5 154 13z" />
    <glyph glyph-name="b" unicode="b" horiz-adv-x="619" 
d="M283 -12c-86 0 -150 11 -219 35v788h70v-273c50 14 101 25 151 25c183 0 288 -124 288 -286v-2c0 -163 -107 -287 -290 -287zM283 51c144 0 219 101 219 224v2c0 123 -75 223 -219 223c-50 0 -101 -13 -149 -26v-406c46 -10 92 -17 149 -17z" />
    <glyph glyph-name="c" unicode="c" horiz-adv-x="534" 
d="M328 -12c-173 0 -282 123 -282 287v2c0 164 108 287 282 287c63 0 131 -18 179 -49l-28 -56c-41 26 -95 43 -149 43c-137 0 -213 -98 -213 -225v-2c0 -126 76 -225 213 -225c54 0 107 15 149 41l27 -56c-48 -30 -115 -47 -178 -47z" />
    <glyph glyph-name="cacute" unicode="&#x107;" horiz-adv-x="534" 
d="M287 630l94 147h93l-128 -147h-59zM328 -12c-173 0 -282 123 -282 287v2c0 164 108 287 282 287c63 0 131 -18 179 -49l-28 -56c-41 26 -95 43 -149 43c-137 0 -213 -98 -213 -225v-2c0 -126 76 -225 213 -225c54 0 107 15 149 41l27 -56c-48 -30 -115 -47 -178 -47z" />
    <glyph glyph-name="ccaron" unicode="&#x10d;" horiz-adv-x="534" 
d="M162 770h76l87 -99l89 99h76l-133 -147h-64zM328 -12c-173 0 -282 123 -282 287v2c0 164 108 287 282 287c63 0 131 -18 179 -49l-28 -56c-41 26 -95 43 -149 43c-137 0 -213 -98 -213 -225v-2c0 -126 76 -225 213 -225c54 0 107 15 149 41l27 -56
c-48 -30 -115 -47 -178 -47z" />
    <glyph glyph-name="ccedilla" unicode="&#xe7;" horiz-adv-x="534" 
d="M506 35c-45 -28 -107 -45 -167 -47l-30 -40c9 1 18 1 25 1c66 0 101 -35 101 -83v-1c0 -49 -40 -82 -109 -82c-32 0 -56 6 -68 11l-21 54c24 -9 67 -16 89 -16c36 0 53 15 53 37v1c0 21 -17 35 -51 35c-13 0 -37 -2 -57 -8l-25 28l53 64c-156 13 -253 131 -253 286v2
c0 164 108 287 282 287c63 0 131 -18 179 -49l-28 -56c-41 26 -95 43 -149 43c-137 0 -213 -98 -213 -225v-2c0 -126 76 -225 213 -225c54 0 107 15 149 41z" />
    <glyph glyph-name="ccircumflex" unicode="&#x109;" horiz-adv-x="534" 
d="M161 629l131 148h64l133 -148h-76l-89 99l-87 -99h-76zM328 -12c-173 0 -282 123 -282 287v2c0 164 108 287 282 287c63 0 131 -18 179 -49l-28 -56c-41 26 -95 43 -149 43c-137 0 -213 -98 -213 -225v-2c0 -126 76 -225 213 -225c54 0 107 15 149 41l27 -56
c-48 -30 -115 -47 -178 -47z" />
    <glyph glyph-name="cdotaccent" unicode="&#x10b;" horiz-adv-x="534" 
d="M326 630c-30 0 -47 15 -47 44c0 25 17 41 47 41c29 0 47 -16 47 -41c0 -29 -18 -44 -47 -44zM328 -12c-173 0 -282 123 -282 287v2c0 164 108 287 282 287c63 0 131 -18 179 -49l-28 -56c-41 26 -95 43 -149 43c-137 0 -213 -98 -213 -225v-2c0 -126 76 -225 213 -225
c54 0 107 15 149 41l27 -56c-48 -30 -115 -47 -178 -47z" />
    <glyph glyph-name="d" unicode="d" horiz-adv-x="619" 
d="M336 -12c-182 0 -290 124 -290 287v2c0 162 105 286 288 286c50 0 101 -11 151 -25v273h70v-788c-68 -24 -133 -35 -219 -35zM336 51c57 0 103 7 149 17v406c-47 13 -99 26 -149 26c-144 0 -219 -100 -219 -223v-2c0 -123 75 -224 219 -224z" />
    <glyph glyph-name="eth" unicode="&#xf0;" horiz-adv-x="665" 
d="M465 682c104 -97 153 -230 153 -387v-2c0 -156 -87 -307 -286 -307c-165 0 -286 118 -286 274v2c0 155 121 273 286 273c73 0 151 -32 203 -91c-24 91 -66 155 -118 202l-85 -62l-38 40l78 58c-43 29 -91 51 -139 68v63c74 -24 137 -55 189 -94l86 63l39 -40zM549 260v2
c0 119 -89 214 -217 214c-127 0 -216 -95 -216 -214v-2c0 -120 89 -215 216 -215c141 0 217 95 217 215z" />
    <glyph glyph-name="dcaron" unicode="&#x10f;" horiz-adv-x="710" 
d="M336 -12c-182 0 -290 124 -290 287v2c0 162 105 286 288 286c50 0 101 -11 151 -25v273h70v-788c-68 -24 -133 -35 -219 -35zM609 600l39 211h60l-57 -211h-42zM336 51c57 0 103 7 149 17v406c-47 13 -99 26 -149 26c-144 0 -219 -100 -219 -223v-2
c0 -123 75 -224 219 -224z" />
    <glyph glyph-name="dcroat" unicode="&#x111;" horiz-adv-x="619" 
d="M641 713v-56h-86v-634c-68 -24 -133 -35 -219 -35c-182 0 -290 124 -290 287v2c0 162 105 286 288 286c50 0 101 -11 151 -25v119h-176v56h176v98h70v-98h86zM485 68v406c-47 13 -99 26 -149 26c-144 0 -219 -100 -219 -223v-2c0 -123 75 -224 219 -224
c57 0 103 7 149 17z" />
    <glyph glyph-name="e" unicode="e" horiz-adv-x="622" 
d="M575 271v-16h-457c9 -115 85 -204 214 -204c82 0 143 31 185 63l30 -56c-49 -36 -119 -69 -217 -69c-177 0 -284 119 -284 287v1c0 164 99 287 264 287c171 0 265 -121 265 -293zM310 502c-111 0 -178 -81 -191 -185h383c-8 101 -71 185 -192 185z" />
    <glyph glyph-name="eacute" unicode="&#xe9;" horiz-adv-x="622" 
d="M463 777l-128 -147h-59l94 147h93zM575 271v-16h-457c9 -115 85 -204 214 -204c82 0 143 31 185 63l30 -56c-49 -36 -119 -69 -217 -69c-177 0 -284 119 -284 287v1c0 164 99 287 264 287c171 0 265 -121 265 -293zM310 502c-111 0 -178 -81 -191 -185h383
c-8 101 -71 185 -192 185z" />
    <glyph glyph-name="ebreve" unicode="&#x115;" horiz-adv-x="622" 
d="M318 625c-103 0 -167 40 -178 144h75c10 -62 37 -90 103 -90s93 28 103 90h76c-11 -104 -75 -144 -179 -144zM575 271v-16h-457c9 -115 85 -204 214 -204c82 0 143 31 185 63l30 -56c-49 -36 -119 -69 -217 -69c-177 0 -284 119 -284 287v1c0 164 99 287 264 287
c171 0 265 -121 265 -293zM310 502c-111 0 -178 -81 -191 -185h383c-8 101 -71 185 -192 185z" />
    <glyph glyph-name="ecaron" unicode="&#x11b;" horiz-adv-x="622" 
d="M345 623h-64l-131 147h76l87 -99l89 99h76zM575 271v-16h-457c9 -115 85 -204 214 -204c82 0 143 31 185 63l30 -56c-49 -36 -119 -69 -217 -69c-177 0 -284 119 -284 287v1c0 164 99 287 264 287c171 0 265 -121 265 -293zM310 502c-111 0 -178 -81 -191 -185h383
c-8 101 -71 185 -192 185z" />
    <glyph glyph-name="ecircumflex" unicode="&#xea;" horiz-adv-x="622" 
d="M313 728l-87 -99h-76l131 148h64l133 -148h-76zM575 271v-16h-457c9 -115 85 -204 214 -204c82 0 143 31 185 63l30 -56c-49 -36 -119 -69 -217 -69c-177 0 -284 119 -284 287v1c0 164 99 287 264 287c171 0 265 -121 265 -293zM310 502c-111 0 -178 -81 -191 -185h383
c-8 101 -71 185 -192 185z" />
    <glyph glyph-name="edieresis" unicode="&#xeb;" horiz-adv-x="622" 
d="M247 630c-30 0 -47 15 -47 44c0 25 17 41 47 41c29 0 47 -16 47 -41c0 -29 -18 -44 -47 -44zM380 630c-29 0 -47 15 -47 44c0 25 18 41 47 41c30 0 48 -16 48 -41c0 -29 -18 -44 -48 -44zM575 271v-16h-457c9 -115 85 -204 214 -204c82 0 143 31 185 63l30 -56
c-49 -36 -119 -69 -217 -69c-177 0 -284 119 -284 287v1c0 164 99 287 264 287c171 0 265 -121 265 -293zM310 502c-111 0 -178 -81 -191 -185h383c-8 101 -71 185 -192 185z" />
    <glyph glyph-name="edotaccent" unicode="&#x117;" horiz-adv-x="622" 
d="M314 630c-30 0 -47 15 -47 44c0 25 17 41 47 41c29 0 47 -16 47 -41c0 -29 -18 -44 -47 -44zM575 271v-16h-457c9 -115 85 -204 214 -204c82 0 143 31 185 63l30 -56c-49 -36 -119 -69 -217 -69c-177 0 -284 119 -284 287v1c0 164 99 287 264 287
c171 0 265 -121 265 -293zM310 502c-111 0 -178 -81 -191 -185h383c-8 101 -71 185 -192 185z" />
    <glyph glyph-name="egrave" unicode="&#xe8;" horiz-adv-x="622" 
d="M352 630h-59l-128 147h93zM575 271v-16h-457c9 -115 85 -204 214 -204c82 0 143 31 185 63l30 -56c-49 -36 -119 -69 -217 -69c-177 0 -284 119 -284 287v1c0 164 99 287 264 287c171 0 265 -121 265 -293zM310 502c-111 0 -178 -81 -191 -185h383
c-8 101 -71 185 -192 185z" />
    <glyph glyph-name="emacron" unicode="&#x113;" horiz-adv-x="622" 
d="M456 691v-51h-283v51h283zM575 271v-16h-457c9 -115 85 -204 214 -204c82 0 143 31 185 63l30 -56c-49 -36 -119 -69 -217 -69c-177 0 -284 119 -284 287v1c0 164 99 287 264 287c171 0 265 -121 265 -293zM310 502c-111 0 -178 -81 -191 -185h383
c-8 101 -71 185 -192 185z" />
    <glyph glyph-name="eogonek" unicode="&#x119;" horiz-adv-x="622" 
d="M575 271v-16h-457c9 -115 85 -204 214 -204c82 0 143 31 185 63l30 -56c-2 -1 -3 -2 -5 -4h1c-19 -14 -81 -61 -81 -99c0 -34 27 -43 61 -43c10 0 19 2 26 3v-50c-9 -4 -28 -6 -47 -6c-63 0 -102 27 -102 79c0 23 10 44 25 62c-28 -7 -60 -11 -95 -11
c-177 0 -284 119 -284 287v1c0 164 99 287 264 287c171 0 265 -121 265 -293zM310 502c-111 0 -178 -81 -191 -185h383c-8 101 -71 185 -192 185z" />
    <glyph glyph-name="uni1EBD" unicode="&#x1ebd;" horiz-adv-x="622" 
d="M246 679c-29 0 -43 -16 -50 -52h-54c8 70 36 107 94 107c68 0 95 -53 149 -53c29 0 41 17 49 52h54c-8 -70 -33 -106 -93 -106c-66 0 -94 52 -149 52zM575 271v-16h-457c9 -115 85 -204 214 -204c82 0 143 31 185 63l30 -56c-49 -36 -119 -69 -217 -69
c-177 0 -284 119 -284 287v1c0 164 99 287 264 287c171 0 265 -121 265 -293zM310 502c-111 0 -178 -81 -191 -185h383c-8 101 -71 185 -192 185z" />
    <glyph glyph-name="uni0259" unicode="&#x259;" horiz-adv-x="622" 
d="M292 559c177 0 284 -119 284 -287v-1c0 -164 -99 -287 -264 -287c-171 0 -265 121 -265 293v16h457c-9 115 -85 204 -214 204c-82 0 -143 -31 -185 -63l-30 56c49 36 119 69 217 69zM312 46c111 0 178 81 191 185h-383c8 -101 71 -185 192 -185z" />
    <glyph glyph-name="f" unicode="f" horiz-adv-x="478" 
d="M141 0v485h-111v62h111v80c0 125 77 184 210 184h86v-62h-86c-94 0 -140 -42 -140 -122v-80h224v-62h-224v-485h-70z" />
    <glyph glyph-name="g" unicode="g" horiz-adv-x="624" 
d="M361 564c68 0 153 -21 199 -39v-550c0 -149 -97 -203 -225 -203c-65 0 -134 16 -175 41l-11 70c48 -28 121 -47 177 -47c120 0 164 52 164 148v36c-42 -10 -90 -15 -131 -15c-199 0 -313 106 -313 282v1c0 175 118 276 315 276zM117 286c0 -141 88 -218 245 -218
c36 0 73 3 128 17v396c-46 13 -88 19 -129 19c-154 0 -244 -73 -244 -213v-1z" />
    <glyph glyph-name="gbreve" unicode="&#x11f;" horiz-adv-x="624" 
d="M354 626c-103 0 -167 40 -178 144h75c10 -62 37 -90 103 -90s93 28 103 90h76c-11 -104 -75 -144 -179 -144zM361 564c68 0 153 -21 199 -39v-550c0 -149 -97 -203 -225 -203c-65 0 -134 16 -175 41l-11 70c48 -28 121 -47 177 -47c120 0 164 52 164 148v36
c-42 -10 -90 -15 -131 -15c-199 0 -313 106 -313 282v1c0 175 118 276 315 276zM117 286c0 -141 88 -218 245 -218c36 0 73 3 128 17v396c-46 13 -88 19 -129 19c-154 0 -244 -73 -244 -213v-1z" />
    <glyph glyph-name="gcircumflex" unicode="&#x11d;" horiz-adv-x="624" 
d="M349 729l-87 -99h-76l131 148h64l133 -148h-76zM361 564c68 0 153 -21 199 -39v-550c0 -149 -97 -203 -225 -203c-65 0 -134 16 -175 41l-11 70c48 -28 121 -47 177 -47c120 0 164 52 164 148v36c-42 -10 -90 -15 -131 -15c-199 0 -313 106 -313 282v1
c0 175 118 276 315 276zM117 286c0 -141 88 -218 245 -218c36 0 73 3 128 17v396c-46 13 -88 19 -129 19c-154 0 -244 -73 -244 -213v-1z" />
    <glyph glyph-name="uni0123" unicode="&#x123;" horiz-adv-x="624" 
d="M479 777l-94 -147h-93l128 147h59zM361 564c68 0 153 -21 199 -39v-550c0 -149 -97 -203 -225 -203c-65 0 -134 16 -175 41l-11 70c48 -28 121 -47 177 -47c120 0 164 52 164 148v36c-42 -10 -90 -15 -131 -15c-199 0 -313 106 -313 282v1c0 175 118 276 315 276z
M117 286c0 -141 88 -218 245 -218c36 0 73 3 128 17v396c-46 13 -88 19 -129 19c-154 0 -244 -73 -244 -213v-1z" />
    <glyph glyph-name="gdotaccent" unicode="&#x121;" horiz-adv-x="624" 
d="M351 631c-30 0 -47 15 -47 44c0 25 17 41 47 41c29 0 47 -16 47 -41c0 -29 -18 -44 -47 -44zM361 564c68 0 153 -21 199 -39v-550c0 -149 -97 -203 -225 -203c-65 0 -134 16 -175 41l-11 70c48 -28 121 -47 177 -47c120 0 164 52 164 148v36c-42 -10 -90 -15 -131 -15
c-199 0 -313 106 -313 282v1c0 175 118 276 315 276zM117 286c0 -141 88 -218 245 -218c36 0 73 3 128 17v396c-46 13 -88 19 -129 19c-154 0 -244 -73 -244 -213v-1z" />
    <glyph glyph-name="h" unicode="h" horiz-adv-x="592" 
d="M300 563c130 0 228 -49 228 -201v-362h-70v354c0 108 -62 146 -163 146c-43 0 -104 -6 -161 -17v-483h-70v811h70v-262c64 9 123 14 166 14z" />
    <glyph glyph-name="hbar" unicode="&#x127;" horiz-adv-x="592" 
d="M300 563c130 0 228 -49 228 -201v-362h-70v354c0 108 -62 146 -163 146c-43 0 -104 -6 -161 -17v-483h-70v657h-84v56h84v98h70v-98h178v-56h-178v-108c64 9 123 14 166 14z" />
    <glyph glyph-name="hcircumflex" unicode="&#x125;" horiz-adv-x="592" 
d="M187 855l-89 99l-87 -99h-76l131 148h64l133 -148h-76zM300 563c130 0 228 -49 228 -201v-362h-70v354c0 108 -62 146 -163 146c-43 0 -104 -6 -161 -17v-483h-70v811h70v-262c64 9 123 14 166 14z" />
    <glyph glyph-name="i" unicode="i" horiz-adv-x="198" 
d="M99 630c-30 0 -47 15 -47 44c0 25 17 41 47 41c29 0 47 -16 47 -41c0 -29 -18 -44 -47 -44zM64 0v548h70v-548h-70z" />
    <glyph glyph-name="dotlessi" unicode="&#x131;" horiz-adv-x="198" 
d="M64 0v548h70v-548h-70z" />
    <glyph glyph-name="iacute" unicode="&#xed;" horiz-adv-x="198" 
d="M61 630l94 147h93l-128 -147h-59zM64 0v548h70v-548h-70z" />
    <glyph glyph-name="ibreve" unicode="&#x12d;" horiz-adv-x="198" 
d="M102 625c-103 0 -167 40 -178 144h75c10 -62 37 -90 103 -90s93 28 103 90h76c-11 -104 -75 -144 -179 -144zM64 0v548h70v-548h-70z" />
    <glyph glyph-name="uni01D0" unicode="&#x1d0;" horiz-adv-x="198" 
d="M-65 770h76l87 -99l89 99h76l-133 -147h-64zM64 0v548h70v-548h-70z" />
    <glyph glyph-name="icircumflex" unicode="&#xee;" horiz-adv-x="198" 
d="M-66 629l131 148h64l133 -148h-76l-89 99l-87 -99h-76zM64 0v548h70v-548h-70z" />
    <glyph glyph-name="idieresis" unicode="&#xef;" horiz-adv-x="198" 
d="M32 630c-30 0 -47 15 -47 44c0 25 17 41 47 41c29 0 47 -16 47 -41c0 -29 -18 -44 -47 -44zM165 630c-29 0 -47 15 -47 44c0 25 18 41 47 41c30 0 48 -16 48 -41c0 -29 -18 -44 -48 -44zM64 0v548h70v-548h-70z" />
    <glyph glyph-name="i.loclTRK" horiz-adv-x="198" 
d="M99 630c-30 0 -47 15 -47 44c0 25 17 41 47 41c29 0 47 -16 47 -41c0 -29 -18 -44 -47 -44zM64 0v548h70v-548h-70z" />
    <glyph glyph-name="uni1ECB" unicode="&#x1ecb;" horiz-adv-x="198" 
d="M99 630c-30 0 -47 15 -47 44c0 25 17 41 47 41c29 0 47 -16 47 -41c0 -29 -18 -44 -47 -44zM64 0v548h70v-548h-70zM99 -125c-29 0 -47 15 -47 44c0 25 18 41 47 41c30 0 47 -16 47 -41c0 -29 -17 -44 -47 -44z" />
    <glyph glyph-name="igrave" unicode="&#xec;" horiz-adv-x="198" 
d="M137 630h-59l-128 147h93zM64 0v548h70v-548h-70z" />
    <glyph glyph-name="ij" unicode="&#x133;" horiz-adv-x="394" 
d="M99 630c-30 0 -47 15 -47 44c0 25 17 41 47 41c29 0 47 -16 47 -41c0 -29 -18 -44 -47 -44zM310 630c-30 0 -47 15 -47 43c0 26 17 41 47 41c29 0 47 -15 47 -41c0 -28 -18 -43 -47 -43zM64 0v548h70v-548h-70zM118 -228c-22 0 -52 3 -74 8l-7 62c21 -4 45 -8 65 -8
c114 0 158 47 158 147v566h70v-570c0 -145 -76 -205 -212 -205z" />
    <glyph glyph-name="imacron" unicode="&#x12b;" horiz-adv-x="198" 
d="M-43 640v51h283v-51h-283zM64 0v548h70v-548h-70z" />
    <glyph glyph-name="iogonek" unicode="&#x12f;" horiz-adv-x="198" 
d="M99 630c-30 0 -47 15 -47 44c0 25 17 41 47 41c29 0 47 -16 47 -41c0 -29 -18 -44 -47 -44zM52 -99c0 -34 27 -43 61 -43c10 0 19 2 26 3v-50c-9 -4 -28 -6 -47 -6c-63 0 -102 27 -102 79c0 51 48 90 88 116h-14v548h70v-548h-1c-19 -14 -81 -61 -81 -99z" />
    <glyph glyph-name="itilde" unicode="&#x129;" horiz-adv-x="198" 
d="M-73 627c8 70 36 107 94 107c68 0 95 -53 149 -53c29 0 41 17 49 52h54c-8 -70 -33 -106 -93 -106c-66 0 -94 52 -149 52c-29 0 -43 -16 -50 -52h-54zM64 0v548h70v-548h-70z" />
    <glyph glyph-name="j" unicode="j" horiz-adv-x="196" 
d="M97 630c-30 0 -47 15 -47 44c0 25 17 41 47 41c29 0 47 -16 47 -41c0 -29 -18 -44 -47 -44zM-80 -228c-22 0 -52 3 -74 8l-7 62c21 -4 45 -8 65 -8c114 0 158 47 158 147v566h70v-570c0 -145 -76 -205 -212 -205z" />
    <glyph glyph-name="j.alt" horiz-adv-x="196" 
d="M97 630c-30 0 -47 15 -47 44c0 25 17 41 47 41c29 0 47 -16 47 -41c0 -29 -18 -44 -47 -44zM-11 -228c-12 0 -27 1 -39 3l-9 57c8 -1 21 -2 28 -2c71 0 93 31 93 139v579h70v-578c0 -152 -38 -198 -143 -198z" />
    <glyph glyph-name="uni0237" unicode="&#x237;" horiz-adv-x="196" 
d="M-80 -228c-22 0 -52 3 -74 8l-7 62c21 -4 45 -8 65 -8c114 0 158 47 158 147v566h70v-570c0 -145 -76 -205 -212 -205z" />
    <glyph glyph-name="jcircumflex" unicode="&#x135;" horiz-adv-x="196" 
d="M-68 629l131 148h64l133 -148h-76l-89 99l-87 -99h-76zM-80 -228c-22 0 -52 3 -74 8l-7 62c21 -4 45 -8 65 -8c114 0 158 47 158 147v566h70v-570c0 -145 -76 -205 -212 -205z" />
    <glyph glyph-name="k" unicode="k" horiz-adv-x="546" 
d="M531 0h-92l-305 272v-272h-70v811h70v-530l293 266h82l-289 -268z" />
    <glyph glyph-name="uni0137" unicode="&#x137;" horiz-adv-x="546" 
d="M220 279l311 -279h-92l-305 272v-272h-70v811h70v-530l293 266h82zM182 -201v49l192 78v-65z" />
    <glyph glyph-name="l" unicode="l" horiz-adv-x="198" 
d="M64 0v811h70v-811h-70z" />
    <glyph glyph-name="lacute" unicode="&#x13a;" horiz-adv-x="198" 
d="M75 855l94 147h93l-128 -147h-59zM64 0v811h70v-811h-70z" />
    <glyph glyph-name="lcaron" unicode="&#x13e;" horiz-adv-x="287" 
d="M64 0v811h70v-811h-70zM186 600l39 211h60l-57 -211h-42z" />
    <glyph glyph-name="uni013C" unicode="&#x13c;" horiz-adv-x="198" 
d="M64 0v811h70v-811h-70zM8 -201v49l192 78v-65z" />
    <glyph glyph-name="ldot" unicode="&#x140;" horiz-adv-x="347" 
d="M64 0v811h70v-811h-70zM253 384c-26 0 -48 20 -48 47c0 26 22 47 48 47c27 0 48 -21 48 -47c0 -27 -22 -47 -48 -47z" />
    <glyph glyph-name="lslash" unicode="&#x142;" horiz-adv-x="198" 
d="M242 469l-108 -57v-412h-70v376l-81 -43l-29 59l110 57v362h70v-325l79 41z" />
    <glyph glyph-name="m" unicode="m" horiz-adv-x="928" 
d="M64 0v538c94 18 163 26 208 26c90 0 160 -31 187 -110c26 72 85 110 191 110c149 0 214 -66 214 -204v-360h-70v354c0 90 -31 147 -150 147c-118 0 -150 -57 -150 -147v-354h-70v354c0 108 -62 147 -157 147c-40 0 -84 -7 -133 -17v-484h-70z" />
    <glyph glyph-name="n" unicode="n" horiz-adv-x="592" 
d="M64 0v538c90 15 180 25 237 25c130 0 228 -49 228 -201v-362h-70v354c0 108 -62 146 -163 146c-45 0 -104 -6 -162 -17v-483h-70z" />
    <glyph glyph-name="nacute" unicode="&#x144;" horiz-adv-x="592" 
d="M257 630l94 147h93l-128 -147h-59zM64 0v538c90 15 180 25 237 25c130 0 228 -49 228 -201v-362h-70v354c0 108 -62 146 -163 146c-45 0 -104 -6 -162 -17v-483h-70z" />
    <glyph glyph-name="ncaron" unicode="&#x148;" horiz-adv-x="592" 
d="M131 770h76l87 -99l89 99h76l-133 -147h-64zM64 0v538c90 15 180 25 237 25c130 0 228 -49 228 -201v-362h-70v354c0 108 -62 146 -163 146c-45 0 -104 -6 -162 -17v-483h-70z" />
    <glyph glyph-name="uni0146" unicode="&#x146;" horiz-adv-x="592" 
d="M64 0v538c90 15 180 25 237 25c130 0 228 -49 228 -201v-362h-70v354c0 108 -62 146 -163 146c-45 0 -104 -6 -162 -17v-483h-70zM202 -201v49l192 78v-65z" />
    <glyph glyph-name="eng" unicode="&#x14b;" horiz-adv-x="593" 
d="M365 -228c-12 0 -25 1 -35 3l-11 65c12 -3 35 -5 42 -5c75 0 97 35 97 136v382c0 109 -61 147 -162 147c-45 0 -104 -5 -162 -14v-486h-70v537c89 16 180 26 237 26c129 0 228 -49 228 -201v-396c0 -145 -50 -194 -164 -194z" />
    <glyph glyph-name="ntilde" unicode="&#xf1;" horiz-adv-x="592" 
d="M123 627c8 70 36 107 94 107c68 0 95 -53 149 -53c29 0 41 17 49 52h54c-8 -70 -33 -106 -93 -106c-66 0 -94 52 -149 52c-29 0 -43 -16 -50 -52h-54zM64 0v538c90 15 180 25 237 25c130 0 228 -49 228 -201v-362h-70v354c0 108 -62 146 -163 146c-45 0 -104 -6 -162 -17
v-483h-70z" />
    <glyph glyph-name="o" unicode="o" horiz-adv-x="673" 
d="M336 -12c-166 0 -290 124 -290 287v2c0 162 123 287 290 287s290 -125 290 -287v-2c0 -163 -123 -287 -290 -287zM336 51c129 0 219 100 219 225v1c0 124 -89 224 -219 224c-129 0 -219 -100 -219 -224v-1c0 -125 91 -225 219 -225z" />
    <glyph glyph-name="oacute" unicode="&#xf3;" horiz-adv-x="673" 
d="M298 630l94 147h93l-128 -147h-59zM336 -12c-166 0 -290 124 -290 287v2c0 162 123 287 290 287s290 -125 290 -287v-2c0 -163 -123 -287 -290 -287zM336 51c129 0 219 100 219 225v1c0 124 -89 224 -219 224c-129 0 -219 -100 -219 -224v-1c0 -125 91 -225 219 -225z
" />
    <glyph glyph-name="obreve" unicode="&#x14f;" horiz-adv-x="673" 
d="M340 625c-103 0 -167 40 -178 144h75c10 -62 37 -90 103 -90s93 28 103 90h76c-11 -104 -75 -144 -179 -144zM336 -12c-166 0 -290 124 -290 287v2c0 162 123 287 290 287s290 -125 290 -287v-2c0 -163 -123 -287 -290 -287zM336 51c129 0 219 100 219 225v1
c0 124 -89 224 -219 224c-129 0 -219 -100 -219 -224v-1c0 -125 91 -225 219 -225z" />
    <glyph glyph-name="uni01D2" unicode="&#x1d2;" horiz-adv-x="673" 
d="M173 770h76l87 -99l89 99h76l-133 -147h-64zM336 -12c-166 0 -290 124 -290 287v2c0 162 123 287 290 287s290 -125 290 -287v-2c0 -163 -123 -287 -290 -287zM336 51c129 0 219 100 219 225v1c0 124 -89 224 -219 224c-129 0 -219 -100 -219 -224v-1
c0 -125 91 -225 219 -225z" />
    <glyph glyph-name="ocircumflex" unicode="&#xf4;" horiz-adv-x="673" 
d="M172 629l131 148h64l133 -148h-76l-89 99l-87 -99h-76zM336 -12c-166 0 -290 124 -290 287v2c0 162 123 287 290 287s290 -125 290 -287v-2c0 -163 -123 -287 -290 -287zM336 51c129 0 219 100 219 225v1c0 124 -89 224 -219 224c-129 0 -219 -100 -219 -224v-1
c0 -125 91 -225 219 -225z" />
    <glyph glyph-name="odieresis" unicode="&#xf6;" horiz-adv-x="673" 
d="M270 630c-30 0 -47 15 -47 44c0 25 17 41 47 41c29 0 47 -16 47 -41c0 -29 -18 -44 -47 -44zM403 630c-29 0 -47 15 -47 44c0 25 18 41 47 41c30 0 48 -16 48 -41c0 -29 -18 -44 -48 -44zM336 -12c-166 0 -290 124 -290 287v2c0 162 123 287 290 287s290 -125 290 -287
v-2c0 -163 -123 -287 -290 -287zM336 51c129 0 219 100 219 225v1c0 124 -89 224 -219 224c-129 0 -219 -100 -219 -224v-1c0 -125 91 -225 219 -225z" />
    <glyph glyph-name="uni1ECD" unicode="&#x1ecd;" horiz-adv-x="673" 
d="M336 -12c-166 0 -290 124 -290 287v2c0 162 123 287 290 287s290 -125 290 -287v-2c0 -163 -123 -287 -290 -287zM336 51c129 0 219 100 219 225v1c0 124 -89 224 -219 224c-129 0 -219 -100 -219 -224v-1c0 -125 91 -225 219 -225zM335 -125c-29 0 -47 15 -47 44
c0 25 18 41 47 41c30 0 47 -16 47 -41c0 -29 -17 -44 -47 -44z" />
    <glyph glyph-name="ograve" unicode="&#xf2;" horiz-adv-x="673" 
d="M375 630h-59l-128 147h93zM336 -12c-166 0 -290 124 -290 287v2c0 162 123 287 290 287s290 -125 290 -287v-2c0 -163 -123 -287 -290 -287zM336 51c129 0 219 100 219 225v1c0 124 -89 224 -219 224c-129 0 -219 -100 -219 -224v-1c0 -125 91 -225 219 -225z" />
    <glyph glyph-name="ohungarumlaut" unicode="&#x151;" horiz-adv-x="673" 
d="M218 630l63 147h93l-97 -147h-59zM374 630l62 147h93l-97 -147h-58zM336 -12c-166 0 -290 124 -290 287v2c0 162 123 287 290 287s290 -125 290 -287v-2c0 -163 -123 -287 -290 -287zM336 51c129 0 219 100 219 225v1c0 124 -89 224 -219 224c-129 0 -219 -100 -219 -224
v-1c0 -125 91 -225 219 -225z" />
    <glyph glyph-name="omacron" unicode="&#x14d;" horiz-adv-x="673" 
d="M195 640v51h283v-51h-283zM336 -12c-166 0 -290 124 -290 287v2c0 162 123 287 290 287s290 -125 290 -287v-2c0 -163 -123 -287 -290 -287zM336 51c129 0 219 100 219 225v1c0 124 -89 224 -219 224c-129 0 -219 -100 -219 -224v-1c0 -125 91 -225 219 -225z" />
    <glyph glyph-name="oslash" unicode="&#xf8;" horiz-adv-x="673" 
d="M540 485c54 -52 86 -125 86 -208v-2c0 -163 -123 -287 -290 -287c-55 0 -106 14 -149 38l-46 -60h-82l76 99c-56 51 -89 125 -89 210v2c0 162 123 287 290 287c57 0 109 -15 152 -40l42 54h81zM117 276c0 -61 22 -117 60 -157l271 353c-32 18 -70 29 -112 29
c-129 0 -219 -100 -219 -224v-1zM555 276v1c0 60 -21 114 -57 154l-271 -352c32 -18 69 -28 109 -28c129 0 219 100 219 225z" />
    <glyph glyph-name="otilde" unicode="&#xf5;" horiz-adv-x="673" 
d="M165 627c8 70 36 107 94 107c68 0 95 -53 149 -53c29 0 41 17 49 52h54c-8 -70 -33 -106 -93 -106c-66 0 -94 52 -149 52c-29 0 -43 -16 -50 -52h-54zM336 -12c-166 0 -290 124 -290 287v2c0 162 123 287 290 287s290 -125 290 -287v-2c0 -163 -123 -287 -290 -287z
M336 51c129 0 219 100 219 225v1c0 124 -89 224 -219 224c-129 0 -219 -100 -219 -224v-1c0 -125 91 -225 219 -225z" />
    <glyph glyph-name="oe" unicode="&#x153;" horiz-adv-x="1140" 
d="M1093 271v-16h-457c9 -115 85 -204 214 -204c82 0 143 31 185 63l30 -56c-49 -36 -119 -69 -217 -69c-123 0 -212 57 -255 148c-47 -90 -142 -149 -257 -149c-166 0 -290 124 -290 287v2c0 162 123 287 290 287c114 0 208 -59 256 -148c40 90 123 148 236 148
c171 0 265 -121 265 -293zM828 502c-111 0 -178 -81 -191 -185h383c-8 101 -71 185 -192 185zM555 276v1c0 124 -89 224 -219 224c-129 0 -219 -100 -219 -224v-1c0 -125 91 -225 219 -225c129 0 219 100 219 225z" />
    <glyph glyph-name="p" unicode="p" horiz-adv-x="619" 
d="M64 -221v750c63 19 133 35 219 35c182 0 290 -124 290 -287v-2c0 -162 -106 -286 -288 -286c-50 0 -101 12 -151 25v-235h-70zM283 52c144 0 219 100 219 223v2c0 124 -75 224 -219 224c-57 0 -103 -7 -149 -17v-406c48 -13 99 -26 149 -26z" />
    <glyph glyph-name="thorn" unicode="&#xfe;" horiz-adv-x="619" 
d="M64 -221v1032h70v-262c46 9 93 15 149 15c182 0 290 -124 290 -287v-2c0 -162 -106 -286 -288 -286c-50 0 -101 12 -151 25v-235h-70zM283 52c144 0 219 100 219 223v2c0 124 -75 224 -219 224c-57 0 -103 -7 -149 -17v-406c48 -13 99 -26 149 -26z" />
    <glyph glyph-name="q" unicode="q" horiz-adv-x="619" 
d="M555 -221h-70v235c-50 -13 -101 -25 -151 -25c-182 0 -288 124 -288 286v2c0 163 108 287 290 287c86 0 156 -16 219 -35v-750zM336 52c50 0 102 13 149 26v406c-46 10 -92 17 -149 17c-144 0 -219 -100 -219 -224v-2c0 -123 75 -223 219 -223z" />
    <glyph glyph-name="r" unicode="r" horiz-adv-x="386" 
d="M64 0v525c66 18 138 23 184 23h99v-65h-82c-48 0 -105 -8 -131 -16v-467h-70z" />
    <glyph glyph-name="racute" unicode="&#x155;" horiz-adv-x="386" 
d="M155 630l94 147h93l-128 -147h-59zM64 0v525c66 18 138 23 184 23h99v-65h-82c-48 0 -105 -8 -131 -16v-467h-70z" />
    <glyph glyph-name="rcaron" unicode="&#x159;" horiz-adv-x="386" 
d="M29 770h76l87 -99l89 99h76l-133 -147h-64zM64 0v525c66 18 138 23 184 23h99v-65h-82c-48 0 -105 -8 -131 -16v-467h-70z" />
    <glyph glyph-name="uni0157" unicode="&#x157;" horiz-adv-x="386" 
d="M64 0v525c66 18 138 23 184 23h99v-65h-82c-48 0 -105 -8 -131 -16v-467h-70zM9 -201v49l192 78v-65z" />
    <glyph glyph-name="s" unicode="s" horiz-adv-x="534" 
d="M259 -11c-77 0 -146 13 -213 42l20 59c60 -27 129 -39 187 -39c97 0 169 20 169 89c0 53 -24 78 -142 108l-50 12c-124 32 -171 78 -171 162c0 88 77 141 205 141c79 0 150 -15 205 -42l-21 -58c-54 27 -119 38 -176 38c-91 0 -142 -24 -142 -78c0 -52 36 -76 137 -101
l44 -12c132 -34 182 -79 182 -165c0 -101 -83 -156 -234 -156z" />
    <glyph glyph-name="sacute" unicode="&#x15b;" horiz-adv-x="534" 
d="M240 630l94 147h93l-128 -147h-59zM259 -11c-77 0 -146 13 -213 42l20 59c60 -27 129 -39 187 -39c97 0 169 20 169 89c0 53 -24 78 -142 108l-50 12c-124 32 -171 78 -171 162c0 88 77 141 205 141c79 0 150 -15 205 -42l-21 -58c-54 27 -119 38 -176 38
c-91 0 -142 -24 -142 -78c0 -52 36 -76 137 -101l44 -12c132 -34 182 -79 182 -165c0 -101 -83 -156 -234 -156z" />
    <glyph glyph-name="scaron" unicode="&#x161;" horiz-adv-x="534" 
d="M115 770h76l87 -99l89 99h76l-133 -147h-64zM259 -11c-77 0 -146 13 -213 42l20 59c60 -27 129 -39 187 -39c97 0 169 20 169 89c0 53 -24 78 -142 108l-50 12c-124 32 -171 78 -171 162c0 88 77 141 205 141c79 0 150 -15 205 -42l-21 -58c-54 27 -119 38 -176 38
c-91 0 -142 -24 -142 -78c0 -52 36 -76 137 -101l44 -12c132 -34 182 -79 182 -165c0 -101 -83 -156 -234 -156z" />
    <glyph glyph-name="scedilla" unicode="&#x15f;" horiz-adv-x="534" 
d="M493 145c0 -96 -75 -150 -212 -156l-31 -41c9 1 18 1 25 1c66 0 101 -35 101 -83v-1c0 -49 -40 -82 -109 -82c-32 0 -56 6 -68 11l-21 54c24 -9 67 -16 89 -16c36 0 53 15 53 37v1c0 21 -17 35 -51 35c-13 0 -37 -2 -57 -8l-25 28l53 64c-69 2 -133 15 -194 42l20 59
c60 -27 129 -39 187 -39c97 0 169 20 169 89c0 53 -24 78 -142 108l-50 12c-124 32 -171 78 -171 162c0 88 77 141 205 141c79 0 150 -15 205 -42l-21 -58c-54 27 -119 38 -176 38c-91 0 -142 -24 -142 -78c0 -52 36 -76 137 -101l44 -12c132 -34 182 -79 182 -165z" />
    <glyph glyph-name="scircumflex" unicode="&#x15d;" horiz-adv-x="534" 
d="M114 629l131 148h64l133 -148h-76l-89 99l-87 -99h-76zM259 -11c-77 0 -146 13 -213 42l20 59c60 -27 129 -39 187 -39c97 0 169 20 169 89c0 53 -24 78 -142 108l-50 12c-124 32 -171 78 -171 162c0 88 77 141 205 141c79 0 150 -15 205 -42l-21 -58
c-54 27 -119 38 -176 38c-91 0 -142 -24 -142 -78c0 -52 36 -76 137 -101l44 -12c132 -34 182 -79 182 -165c0 -101 -83 -156 -234 -156z" />
    <glyph glyph-name="uni0219" unicode="&#x219;" horiz-adv-x="534" 
d="M259 -11c-77 0 -146 13 -213 42l20 59c60 -27 129 -39 187 -39c97 0 169 20 169 89c0 53 -24 78 -142 108l-50 12c-124 32 -171 78 -171 162c0 88 77 141 205 141c79 0 150 -15 205 -42l-21 -58c-54 27 -119 38 -176 38c-91 0 -142 -24 -142 -78c0 -52 36 -76 137 -101
l44 -12c132 -34 182 -79 182 -165c0 -101 -83 -156 -234 -156zM179 -201v49l192 78v-65z" />
    <glyph glyph-name="germandbls" unicode="&#xdf;" horiz-adv-x="696" 
d="M468 450c110 -31 181 -119 181 -225v-5c0 -139 -92 -231 -275 -231c-27 0 -59 4 -88 9l-15 64c36 -8 70 -10 96 -10c129 0 212 58 212 172v4c0 103 -74 181 -213 181h-31v62h16c94 0 159 53 159 144v4c0 86 -68 142 -176 142c-148 0 -200 -89 -200 -222v-539h-70v538
c0 205 108 285 271 285c138 0 245 -86 245 -197v-4c0 -72 -37 -142 -112 -172z" />
    <glyph glyph-name="t" unicode="t" horiz-adv-x="481" 
d="M327 0c-144 0 -186 59 -186 172v311h-111v64h111v191h70v-191h225v-64h-225v-288c0 -100 49 -129 142 -129h84v-66h-110z" />
    <glyph glyph-name="tbar" unicode="&#x167;" horiz-adv-x="481" 
d="M353 66h84v-66h-110c-144 0 -186 59 -186 172v152h-110v62h110v97h-111v64h111v191h70v-191h225v-64h-225v-97h222v-62h-222v-129c0 -100 49 -129 142 -129z" />
    <glyph glyph-name="tcaron" unicode="&#x165;" horiz-adv-x="489" 
d="M299 628l40 183h59l-57 -183h-42zM327 0c-144 0 -186 59 -186 172v311h-111v64h111v191h70v-191h225v-64h-225v-288c0 -100 49 -129 142 -129h84v-66h-110z" />
    <glyph glyph-name="uni0163" unicode="&#x163;" horiz-adv-x="481" 
d="M327 0h-5l-39 -52c10 0 20 1 27 1c66 0 100 -35 100 -83v-1c0 -49 -40 -82 -109 -82c-31 0 -56 6 -68 11l-21 54c24 -9 68 -16 89 -16c36 0 53 15 53 37v1c0 21 -17 35 -50 35c-13 0 -37 -2 -58 -8l-25 28l62 77h2c-110 11 -144 69 -144 170v311h-111v64h111v191h70v-191
h225v-64h-225v-288c0 -100 49 -129 142 -129h84v-66h-110z" />
    <glyph glyph-name="uni021B" unicode="&#x21b;" horiz-adv-x="481" 
d="M327 0c-144 0 -186 59 -186 172v311h-111v64h111v191h70v-191h225v-64h-225v-288c0 -100 49 -129 142 -129h84v-66h-110zM201 -201v49l192 78v-65z" />
    <glyph glyph-name="u" unicode="u" horiz-adv-x="592" 
d="M291 -12c-129 0 -227 50 -227 201v359h70v-353c0 -108 62 -146 162 -146c45 0 104 6 163 16v483h70v-534c-90 -16 -180 -26 -238 -26z" />
    <glyph glyph-name="uacute" unicode="&#xfa;" horiz-adv-x="592" 
d="M258 630l94 147h93l-128 -147h-59zM291 -12c-129 0 -227 50 -227 201v359h70v-353c0 -108 62 -146 162 -146c45 0 104 6 163 16v483h70v-534c-90 -16 -180 -26 -238 -26z" />
    <glyph glyph-name="ubreve" unicode="&#x16d;" horiz-adv-x="592" 
d="M300 625c-103 0 -167 40 -178 144h75c10 -62 37 -90 103 -90s93 28 103 90h76c-11 -104 -75 -144 -179 -144zM291 -12c-129 0 -227 50 -227 201v359h70v-353c0 -108 62 -146 162 -146c45 0 104 6 163 16v483h70v-534c-90 -16 -180 -26 -238 -26z" />
    <glyph glyph-name="uni01D4" unicode="&#x1d4;" horiz-adv-x="592" 
d="M133 770h76l87 -99l89 99h76l-133 -147h-64zM291 -12c-129 0 -227 50 -227 201v359h70v-353c0 -108 62 -146 162 -146c45 0 104 6 163 16v483h70v-534c-90 -16 -180 -26 -238 -26z" />
    <glyph glyph-name="ucircumflex" unicode="&#xfb;" horiz-adv-x="592" 
d="M132 629l131 148h64l133 -148h-76l-89 99l-87 -99h-76zM291 -12c-129 0 -227 50 -227 201v359h70v-353c0 -108 62 -146 162 -146c45 0 104 6 163 16v483h70v-534c-90 -16 -180 -26 -238 -26z" />
    <glyph glyph-name="udieresis" unicode="&#xfc;" horiz-adv-x="592" 
d="M230 630c-30 0 -47 15 -47 44c0 25 17 41 47 41c29 0 47 -16 47 -41c0 -29 -18 -44 -47 -44zM363 630c-29 0 -47 15 -47 44c0 25 18 41 47 41c30 0 48 -16 48 -41c0 -29 -18 -44 -48 -44zM291 -12c-129 0 -227 50 -227 201v359h70v-353c0 -108 62 -146 162 -146
c45 0 104 6 163 16v483h70v-534c-90 -16 -180 -26 -238 -26z" />
    <glyph glyph-name="uni1EE5" unicode="&#x1ee5;" horiz-adv-x="592" 
d="M291 -12c-129 0 -227 50 -227 201v359h70v-353c0 -108 62 -146 162 -146c45 0 104 6 163 16v483h70v-534c-90 -16 -180 -26 -238 -26zM301 -125c-29 0 -47 15 -47 44c0 25 18 41 47 41c30 0 47 -16 47 -41c0 -29 -17 -44 -47 -44z" />
    <glyph glyph-name="ugrave" unicode="&#xf9;" horiz-adv-x="592" 
d="M335 630h-59l-128 147h93zM291 -12c-129 0 -227 50 -227 201v359h70v-353c0 -108 62 -146 162 -146c45 0 104 6 163 16v483h70v-534c-90 -16 -180 -26 -238 -26z" />
    <glyph glyph-name="uhungarumlaut" unicode="&#x171;" horiz-adv-x="592" 
d="M178 630l63 147h93l-97 -147h-59zM334 630l62 147h93l-97 -147h-58zM291 -12c-129 0 -227 50 -227 201v359h70v-353c0 -108 62 -146 162 -146c45 0 104 6 163 16v483h70v-534c-90 -16 -180 -26 -238 -26z" />
    <glyph glyph-name="umacron" unicode="&#x16b;" horiz-adv-x="592" 
d="M155 640v51h283v-51h-283zM291 -12c-129 0 -227 50 -227 201v359h70v-353c0 -108 62 -146 162 -146c45 0 104 6 163 16v483h70v-534c-90 -16 -180 -26 -238 -26z" />
    <glyph glyph-name="uogonek" unicode="&#x173;" horiz-adv-x="592" 
d="M508 -129c10 0 19 2 26 3v-50c-9 -4 -28 -6 -47 -6c-63 0 -102 27 -102 79c0 44 37 80 72 106c-64 -10 -124 -15 -166 -15c-129 0 -227 50 -227 201v359h70v-353c0 -108 62 -146 162 -146c45 0 104 6 163 16v483h70v-534c-1 0 -2 0 -3 -1h2c-19 -14 -81 -61 -81 -99
c0 -34 27 -43 61 -43z" />
    <glyph glyph-name="uring" unicode="&#x16f;" horiz-adv-x="592" 
d="M299 629c-60 0 -109 45 -109 105c0 59 46 102 108 102c59 0 107 -46 107 -105c0 -60 -45 -102 -106 -102zM298 670c40 0 66 26 66 63c-1 36 -28 62 -65 62c-40 0 -68 -26 -67 -62c-2 -37 29 -63 66 -63zM291 -12c-129 0 -227 50 -227 201v359h70v-353
c0 -108 62 -146 162 -146c45 0 104 6 163 16v483h70v-534c-90 -16 -180 -26 -238 -26z" />
    <glyph glyph-name="utilde" unicode="&#x169;" horiz-adv-x="592" 
d="M125 627c8 70 36 107 94 107c68 0 95 -53 149 -53c29 0 41 17 49 52h54c-8 -70 -33 -106 -93 -106c-66 0 -94 52 -149 52c-29 0 -43 -16 -50 -52h-54zM291 -12c-129 0 -227 50 -227 201v359h70v-353c0 -108 62 -146 162 -146c45 0 104 6 163 16v483h70v-534
c-90 -16 -180 -26 -238 -26z" />
    <glyph glyph-name="v" unicode="v" horiz-adv-x="571" 
d="M486 547h73l-226 -547h-94l-226 547h73l200 -495z" />
    <glyph glyph-name="w" unicode="w" horiz-adv-x="825" 
d="M735 547h75l-161 -547h-92l-87 286c-19 63 -39 125 -58 187l-56 -187l-87 -286h-92l-162 547h74l73 -262c29 -102 44 -152 63 -218l144 480h87l80 -261l67 -215c14 47 37 130 60 215zM589 30c0 -2 0 -2 1 0h-1z" />
    <glyph glyph-name="wacute" unicode="&#x1e83;" horiz-adv-x="825" 
d="M561 777l-128 -147h-59l94 147h93zM735 547h75l-161 -547h-92l-87 286c-19 63 -39 125 -58 187l-56 -187l-87 -286h-92l-162 547h74l73 -262c29 -102 44 -152 63 -218l144 480h87l80 -261l67 -215c14 47 37 130 60 215zM589 30c0 -2 0 -2 1 0h-1z" />
    <glyph glyph-name="wcircumflex" unicode="&#x175;" horiz-adv-x="825" 
d="M411 728l-87 -99h-76l131 148h64l133 -148h-76zM735 547h75l-161 -547h-92l-87 286c-19 63 -39 125 -58 187l-56 -187l-87 -286h-92l-162 547h74l73 -262c29 -102 44 -152 63 -218l144 480h87l80 -261l67 -215c14 47 37 130 60 215zM589 30c0 -2 0 -2 1 0h-1z" />
    <glyph glyph-name="wdieresis" unicode="&#x1e85;" horiz-adv-x="825" 
d="M346 630c-30 0 -47 15 -47 44c0 25 17 41 47 41c29 0 47 -16 47 -41c0 -29 -18 -44 -47 -44zM479 630c-29 0 -47 15 -47 44c0 25 18 41 47 41c30 0 48 -16 48 -41c0 -29 -18 -44 -48 -44zM735 547h75l-161 -547h-92l-87 286c-19 63 -39 125 -58 187l-56 -187l-87 -286
h-92l-162 547h74l73 -262c29 -102 44 -152 63 -218l144 480h87l80 -261l67 -215c14 47 37 130 60 215zM589 30c0 -2 0 -2 1 0h-1z" />
    <glyph glyph-name="wgrave" unicode="&#x1e81;" horiz-adv-x="825" 
d="M451 630h-59l-128 147h93zM735 547h75l-161 -547h-92l-87 286c-19 63 -39 125 -58 187l-56 -187l-87 -286h-92l-162 547h74l73 -262c29 -102 44 -152 63 -218l144 480h87l80 -261l67 -215c14 47 37 130 60 215zM589 30c0 -2 0 -2 1 0h-1z" />
    <glyph glyph-name="x" unicode="x" horiz-adv-x="549" 
d="M531 0h-81l-177 229l-178 -229h-77l216 281l-204 267h82l164 -213l163 213h80l-204 -266z" />
    <glyph glyph-name="y" unicode="y" horiz-adv-x="593" 
d="M458 541h71v-566c0 -149 -97 -203 -226 -203c-64 0 -134 16 -175 41l-11 72c48 -31 121 -49 177 -49c121 0 164 52 164 148v34c-65 -9 -125 -14 -167 -14c-129 0 -227 49 -227 201v342h70v-334c0 -108 62 -146 162 -146c50 0 115 6 162 14v460z" />
    <glyph glyph-name="yacute" unicode="&#xfd;" horiz-adv-x="593" 
d="M443 777l-128 -147h-59l94 147h93zM458 541h71v-566c0 -149 -97 -203 -226 -203c-64 0 -134 16 -175 41l-11 72c48 -31 121 -49 177 -49c121 0 164 52 164 148v34c-65 -9 -125 -14 -167 -14c-129 0 -227 49 -227 201v342h70v-334c0 -108 62 -146 162 -146
c50 0 115 6 162 14v460z" />
    <glyph glyph-name="ycircumflex" unicode="&#x177;" horiz-adv-x="593" 
d="M293 728l-87 -99h-76l131 148h64l133 -148h-76zM458 541h71v-566c0 -149 -97 -203 -226 -203c-64 0 -134 16 -175 41l-11 72c48 -31 121 -49 177 -49c121 0 164 52 164 148v34c-65 -9 -125 -14 -167 -14c-129 0 -227 49 -227 201v342h70v-334c0 -108 62 -146 162 -146
c50 0 115 6 162 14v460z" />
    <glyph glyph-name="ydieresis" unicode="&#xff;" horiz-adv-x="593" 
d="M227 630c-30 0 -47 15 -47 44c0 25 17 41 47 41c29 0 47 -16 47 -41c0 -29 -18 -44 -47 -44zM360 630c-29 0 -47 15 -47 44c0 25 18 41 47 41c30 0 48 -16 48 -41c0 -29 -18 -44 -48 -44zM458 541h71v-566c0 -149 -97 -203 -226 -203c-64 0 -134 16 -175 41l-11 72
c48 -31 121 -49 177 -49c121 0 164 52 164 148v34c-65 -9 -125 -14 -167 -14c-129 0 -227 49 -227 201v342h70v-334c0 -108 62 -146 162 -146c50 0 115 6 162 14v460z" />
    <glyph glyph-name="ygrave" unicode="&#x1ef3;" horiz-adv-x="593" 
d="M332 630h-59l-128 147h93zM458 541h71v-566c0 -149 -97 -203 -226 -203c-64 0 -134 16 -175 41l-11 72c48 -31 121 -49 177 -49c121 0 164 52 164 148v34c-65 -9 -125 -14 -167 -14c-129 0 -227 49 -227 201v342h70v-334c0 -108 62 -146 162 -146c50 0 115 6 162 14v460z
" />
    <glyph glyph-name="uni0233" unicode="&#x233;" horiz-adv-x="593" 
d="M436 691v-51h-283v51h283zM458 541h71v-566c0 -149 -97 -203 -226 -203c-64 0 -134 16 -175 41l-11 72c48 -31 121 -49 177 -49c121 0 164 52 164 148v34c-65 -9 -125 -14 -167 -14c-129 0 -227 49 -227 201v342h70v-334c0 -108 62 -146 162 -146c50 0 115 6 162 14v460z
" />
    <glyph glyph-name="z" unicode="z" horiz-adv-x="525" 
d="M485 547v-50l-361 -434h361v-63h-448v52l359 433h-339v62h428z" />
    <glyph glyph-name="zacute" unicode="&#x17a;" horiz-adv-x="525" 
d="M421 777l-128 -147h-59l94 147h93zM485 547v-50l-361 -434h361v-63h-448v52l359 433h-339v62h428z" />
    <glyph glyph-name="zcaron" unicode="&#x17e;" horiz-adv-x="525" 
d="M304 623h-64l-131 147h76l87 -99l89 99h76zM485 547v-50l-361 -434h361v-63h-448v52l359 433h-339v62h428z" />
    <glyph glyph-name="zdotaccent" unicode="&#x17c;" horiz-adv-x="525" 
d="M273 630c-30 0 -47 15 -47 44c0 25 17 41 47 41c29 0 47 -16 47 -41c0 -29 -18 -44 -47 -44zM485 547v-50l-361 -434h361v-63h-448v52l359 433h-339v62h428z" />
    <glyph glyph-name="ordfeminine" unicode="&#xaa;" horiz-adv-x="455" 
d="M240 823c111 0 169 -50 169 -155v-274c-57 -9 -124 -17 -171 -17c-126 0 -192 44 -192 135v2c0 88 63 134 185 134c35 0 78 -3 124 -10v25c0 73 -36 113 -125 113c-49 0 -105 -12 -149 -33l7 46c41 21 100 34 152 34zM102 512c0 -63 43 -87 139 -87c33 0 74 3 114 9v157
c-38 8 -83 11 -114 11c-96 0 -139 -23 -139 -87v-3z" />
    <glyph glyph-name="ordmasculine" unicode="&#xba;" horiz-adv-x="524" 
d="M262 357c-140 0 -216 102 -216 234v1c0 132 77 232 216 232s216 -101 216 -232v-1c0 -132 -77 -234 -216 -234zM262 408c111 0 162 81 162 183v1c0 101 -51 183 -162 183s-161 -82 -161 -183v-1c0 -102 51 -183 161 -183z" />
    <glyph glyph-name="uni0394" unicode="&#x394;" horiz-adv-x="829" 
d="M448 792l363 -792h-794l363 792h68zM414 713l-294 -647h588z" />
    <glyph glyph-name="uni03A9" unicode="&#x3a9;" horiz-adv-x="896" 
d="M833 490c0 -138 -87 -258 -222 -307v-117h185v-66h-255v216c137 32 220 131 220 269v3c0 159 -127 268 -313 268c-185 0 -312 -109 -312 -268v-3c0 -138 85 -237 218 -269v-216h-253v66h183v117c-133 49 -218 168 -221 305v4c0 200 157 331 385 331
c229 0 385 -131 385 -331v-2z" />
    <glyph glyph-name="uni03BC" unicode="&#x3bc;" horiz-adv-x="679" 
d="M526 193c0 -95 43 -136 114 -136v-68c-76 0 -126 21 -155 65c-36 -43 -98 -65 -190 -65c-75 0 -126 15 -161 41v-250h-70v768h71v-345c0 -116 62 -146 160 -146s160 30 160 146v345h71v-355z" />
    <glyph glyph-name="pi" unicode="&#x3c0;" horiz-adv-x="788" 
d="M132 0v482h-76v66h672v-66h-83v-316c0 -80 16 -100 78 -100h12v-66h-19c-111 0 -141 31 -141 145v337h-373v-482h-70z" />
    <glyph glyph-name="uni0621" unicode="&#x621;" horiz-adv-x="474" 
d="M65 0v180c0 157 78 233 231 233h32v-68h-42c-98 0 -156 -46 -156 -157v-119h287v-69h-352z" />
    <glyph glyph-name="uni0627" unicode="&#x627;" horiz-adv-x="251" 
d="M91 0v811h69v-811h-69z" />
    <glyph glyph-name="uni0627.short" horiz-adv-x="251" 
d="M91 0v691h69v-691h-69z" />
    <glyph glyph-name="uniFE8E.short" horiz-adv-x="267" 
d="M160 69h127v-69h-196v691h69v-622z" />
    <glyph glyph-name="uni0623" unicode="&#x623;" horiz-adv-x="251" 
d="M53 777v63c0 62 33 103 96 103h16v-40h-19c-36 0 -50 -24 -50 -60v-23h102v-43h-145zM91 0v691h69v-691h-69z" />
    <glyph glyph-name="uni0625" unicode="&#x625;" horiz-adv-x="251" 
d="M91 0v811h69v-811h-69zM50 -236v63c0 61 33 103 96 103h22v-40h-25c-36 0 -50 -24 -50 -60v-24h108v-42h-151z" />
    <glyph glyph-name="uni0622" unicode="&#x622;" horiz-adv-x="251" 
d="M37 862v47h175v-47h-175zM91 0v811h69v-811h-69z" />
    <glyph glyph-name="uni0671" unicode="&#x671;" horiz-adv-x="251" 
d="M23 737v61c0 59 33 89 97 89h9c64 0 98 -30 98 -89v-61h-204zM73 779h104v22c0 30 -16 46 -48 46h-8c-33 0 -48 -16 -48 -46v-22zM91 0v691h69v-691h-69z" />
    <glyph glyph-name="uni066E" unicode="&#x66e;" horiz-adv-x="776" 
d="M341 0c-192 0 -283 91 -283 264v192h68v-185c0 -146 90 -202 229 -202h283v479h68v-548h-365z" />
    <glyph glyph-name="uni066E.ss01" horiz-adv-x="757" 
d="M268 0c-100 0 -172 21 -243 65l29 56c64 -37 129 -52 208 -52h356v479h69v-548h-419z" />
    <glyph glyph-name="uni066E.fina.ss01" horiz-adv-x="794" 
d="M687 69h127v-69h-546c-100 0 -172 21 -243 65l29 56c64 -37 129 -52 208 -52h356v479h69v-479z" />
    <glyph glyph-name="uni066E.medi.alt" horiz-adv-x="391" 
d="M0 0v69h161v479h69v-479h181v-69h-411z" />
    <glyph glyph-name="uni066E.init.alt" horiz-adv-x="332" 
d="M0 0v69h193v479h69v-548h-262z" />
    <glyph glyph-name="uni0628" unicode="&#x628;" horiz-adv-x="776" 
d="M341 0c-192 0 -283 91 -283 264v192h68v-185c0 -146 90 -202 229 -202h283v479h68v-548h-365zM427 -224c-25 0 -47 18 -47 45c0 26 22 45 47 45c24 0 45 -19 45 -45c0 -27 -22 -45 -45 -45z" />
    <glyph glyph-name="uni0628.ss01" horiz-adv-x="757" 
d="M268 0c-100 0 -172 21 -243 65l29 56c64 -37 129 -52 208 -52h356v479h69v-548h-419zM432 -224c-25 0 -47 18 -47 45c0 26 22 45 47 45c24 0 45 -19 45 -45c0 -27 -22 -45 -45 -45z" />
    <glyph glyph-name="uniFE90.ss01" horiz-adv-x="794" 
d="M687 69h127v-69h-546c-100 0 -172 21 -243 65l29 56c64 -37 129 -52 208 -52h356v479h69v-479zM432 -134c24 0 45 -19 45 -45c0 -27 -22 -45 -45 -45c-25 0 -47 18 -47 45c0 26 22 45 47 45z" />
    <glyph glyph-name="uni067E" unicode="&#x67e;" horiz-adv-x="776" 
d="M341 0c-192 0 -283 91 -283 264v192h68v-185c0 -146 90 -202 229 -202h283v479h68v-548h-365zM353 -237c-24 0 -45 19 -45 45c0 25 20 45 45 45c26 0 46 -20 46 -45c0 -26 -21 -45 -46 -45zM502 -237c-25 0 -46 19 -46 45c0 25 20 45 46 45c25 0 45 -20 45 -45
c0 -26 -21 -45 -45 -45zM428 -348c-23 0 -44 19 -44 43s20 43 44 43c25 0 45 -19 45 -43s-20 -43 -45 -43z" />
    <glyph glyph-name="uniFB57.ss01" horiz-adv-x="794" 
d="M687 69h127v-69h-546c-100 0 -172 21 -243 65l29 56c64 -37 129 -52 208 -52h356v479h69v-479zM403 -192c0 -26 -21 -45 -46 -45c-24 0 -45 19 -45 45c0 25 20 45 45 45c26 0 46 -20 46 -45zM506 -147c25 0 45 -20 45 -45c0 -26 -21 -45 -45 -45c-25 0 -46 19 -46 45
c0 25 20 45 46 45zM432 -262c25 0 45 -19 45 -43s-20 -43 -45 -43c-23 0 -44 19 -44 43s20 43 44 43z" />
    <glyph glyph-name="uni067E.ss01" horiz-adv-x="757" 
d="M268 0c-100 0 -172 21 -243 65l29 56c64 -37 129 -52 208 -52h356v479h69v-548h-419zM357 -237c-24 0 -45 19 -45 45c0 25 20 45 45 45c26 0 46 -20 46 -45c0 -26 -21 -45 -46 -45zM506 -237c-25 0 -46 19 -46 45c0 25 20 45 46 45c25 0 45 -20 45 -45
c0 -26 -21 -45 -45 -45zM432 -348c-23 0 -44 19 -44 43s20 43 44 43c25 0 45 -19 45 -43s-20 -43 -45 -43z" />
    <glyph glyph-name="uni062A" unicode="&#x62a;" horiz-adv-x="776" 
d="M316 630c-25 0 -46 19 -46 45c0 25 21 45 46 45s46 -20 46 -45c0 -26 -21 -45 -46 -45zM465 630c-25 0 -46 19 -46 45c0 25 20 45 46 45c25 0 46 -20 46 -45c0 -26 -21 -45 -46 -45zM341 0c-192 0 -283 91 -283 264v192h68v-185c0 -146 90 -202 229 -202h283v479h68v-548
h-365z" />
    <glyph glyph-name="uni062A.ss01" horiz-adv-x="757" 
d="M268 0c-100 0 -172 21 -243 65l29 56c64 -37 129 -52 208 -52h356v479h69v-548h-419zM259 360c-25 0 -46 19 -46 45c0 25 21 45 46 45s46 -20 46 -45c0 -26 -21 -45 -46 -45zM408 360c-25 0 -46 19 -46 45c0 25 20 45 46 45c25 0 46 -20 46 -45c0 -26 -21 -45 -46 -45z
" />
    <glyph glyph-name="uniFE96.ss01" horiz-adv-x="794" 
d="M687 69h127v-69h-546c-100 0 -172 21 -243 65l29 56c64 -37 129 -52 208 -52h356v479h69v-479zM259 360c-25 0 -46 19 -46 45c0 25 21 45 46 45s46 -20 46 -45c0 -26 -21 -45 -46 -45zM408 360c-25 0 -46 19 -46 45c0 25 20 45 46 45c25 0 46 -20 46 -45
c0 -26 -21 -45 -46 -45z" />
    <glyph glyph-name="uni062B" unicode="&#x62b;" horiz-adv-x="776" 
d="M391 745c-23 0 -44 18 -44 43c0 24 20 43 44 43c25 0 45 -19 45 -43c0 -25 -20 -43 -45 -43zM316 631c-24 0 -45 19 -45 44s20 45 45 45c26 0 46 -20 46 -45s-21 -44 -46 -44zM465 631c-25 0 -46 19 -46 44s20 45 46 45c25 0 45 -20 45 -45s-21 -44 -45 -44zM341 0
c-192 0 -283 91 -283 264v192h68v-185c0 -146 90 -202 229 -202h283v479h68v-548h-365z" />
    <glyph glyph-name="uni062B.ss01" horiz-adv-x="757" 
d="M334 475c-23 0 -44 18 -44 43c0 24 20 43 44 43c25 0 45 -19 45 -43c0 -25 -20 -43 -45 -43zM268 0c-100 0 -172 21 -243 65l29 56c64 -37 129 -52 208 -52h356v479h69v-548h-419zM259 361c-24 0 -45 19 -45 44s20 45 45 45c26 0 46 -20 46 -45s-21 -44 -46 -44zM408 361
c-25 0 -46 19 -46 44s20 45 46 45c25 0 45 -20 45 -45s-21 -44 -45 -44z" />
    <glyph glyph-name="uniFE9A.ss01" horiz-adv-x="794" 
d="M334 475c-23 0 -44 18 -44 43c0 24 20 43 44 43c25 0 45 -19 45 -43c0 -25 -20 -43 -45 -43zM687 69h127v-69h-546c-100 0 -172 21 -243 65l29 56c64 -37 129 -52 208 -52h356v479h69v-479zM259 361c-24 0 -45 19 -45 44s20 45 45 45c26 0 46 -20 46 -45s-21 -44 -46 -44
zM362 405c0 25 20 45 46 45c25 0 45 -20 45 -45s-21 -44 -45 -44c-25 0 -46 19 -46 44z" />
    <glyph glyph-name="uni0679" unicode="&#x679;" horiz-adv-x="776" 
d="M288 582v192h52v-46h65c56 0 90 -32 90 -85v-61h-207zM340 624h102v25c0 25 -14 39 -42 39h-60v-64zM341 0c-192 0 -283 91 -283 264v192h68v-185c0 -146 90 -202 229 -202h283v479h68v-548h-365z" />
    <glyph glyph-name="uni0679.ss01" horiz-adv-x="757" 
d="M268 0c-100 0 -172 21 -243 65l29 56c64 -37 129 -52 208 -52h356v479h69v-548h-419zM231 312v192h52v-46h65c56 0 90 -32 90 -85v-61h-207zM283 354h102v25c0 25 -14 39 -42 39h-60v-64z" />
    <glyph glyph-name="uniFB67.ss01" horiz-adv-x="794" 
d="M687 69h127v-69h-546c-100 0 -172 21 -243 65l29 56c64 -37 129 -52 208 -52h356v479h69v-479zM438 373v-61h-207v192h52v-46h65c56 0 90 -32 90 -85zM385 354v25c0 25 -14 39 -42 39h-60v-64h102z" />
    <glyph glyph-name="uni062C" unicode="&#x62c;" horiz-adv-x="606" 
d="M58 -220v109c0 119 59 180 175 180h224c15 66 26 147 26 206c0 133 -73 213 -194 213c-58 0 -99 -11 -164 -48l-25 62c73 39 127 56 193 56c164 0 256 -108 256 -287c0 -84 -18 -193 -40 -271h-258c-90 0 -128 -39 -128 -128v-92h-65zM331 -250c-25 0 -47 18 -47 45
c0 26 22 45 47 45c24 0 45 -19 45 -45c0 -27 -22 -45 -45 -45z" />
    <glyph glyph-name="uni0686" unicode="&#x686;" horiz-adv-x="635" 
d="M83 -156l-54 38l43 68c51 83 110 119 207 119h205c16 66 26 147 26 206c0 133 -73 213 -194 213c-58 0 -99 -11 -164 -48l-25 62c74 39 128 56 194 56c164 0 255 -108 255 -287c0 -84 -18 -193 -39 -271h-252c-79 0 -126 -29 -165 -97zM271 -200c-24 0 -45 19 -45 45
c0 25 20 45 45 45c26 0 46 -20 46 -45c0 -26 -21 -45 -46 -45zM420 -200c-25 0 -46 19 -46 45c0 25 20 45 46 45c25 0 45 -20 45 -45c0 -26 -21 -45 -45 -45zM346 -311c-23 0 -44 19 -44 43s20 43 44 43c25 0 45 -19 45 -43s-20 -43 -45 -43z" />
    <glyph glyph-name="uni062D" unicode="&#x62d;" horiz-adv-x="606" 
d="M58 -220v109c0 119 59 180 175 180h224c15 66 26 147 26 206c0 133 -73 213 -194 213c-58 0 -99 -11 -164 -48l-25 62c73 39 127 56 193 56c164 0 256 -108 256 -287c0 -84 -18 -193 -40 -271h-258c-90 0 -128 -39 -128 -128v-92h-65z" />
    <glyph glyph-name="uni062D.alt" horiz-adv-x="635" 
d="M84 -156l-54 38l43 68c51 83 110 119 207 119h205c16 66 26 147 26 206c0 133 -73 213 -194 213c-58 0 -99 -11 -164 -48l-25 62c74 39 128 56 194 56c164 0 255 -108 255 -287c0 -84 -18 -193 -39 -271h-252c-79 0 -126 -29 -165 -97z" />
    <glyph glyph-name="uniFEA2.alt" horiz-adv-x="663" 
d="M554 69h129v-69h-397c-79 0 -126 -29 -165 -97l-37 -59l-54 38l43 68c51 83 110 119 207 119h205c16 66 26 147 26 206c0 133 -73 213 -194 213c-58 0 -99 -11 -164 -48l-25 62c74 39 128 56 194 56c164 0 255 -108 255 -287c0 -61 -10 -136 -23 -202z" />
    <glyph glyph-name="uni062E" unicode="&#x62e;" horiz-adv-x="606" 
d="M294 701c-25 0 -47 18 -47 45c0 26 22 45 47 45c24 0 45 -19 45 -45c0 -27 -22 -45 -45 -45zM58 -220v109c0 119 59 180 175 180h224c15 66 26 147 26 206c0 133 -73 213 -194 213c-58 0 -99 -11 -164 -48l-25 62c73 39 127 56 193 56c164 0 256 -108 256 -287
c0 -84 -18 -193 -40 -271h-258c-90 0 -128 -39 -128 -128v-92h-65z" />
    <glyph glyph-name="uni062F" unicode="&#x62f;" horiz-adv-x="523" 
d="M30 0v69h368v249c0 111 -56 161 -157 161h-34v69h25c157 0 231 -80 231 -233v-315h-433z" />
    <glyph glyph-name="uni0630" unicode="&#x630;" horiz-adv-x="523" 
d="M248 691c-25 0 -47 18 -47 45c0 26 22 45 47 45c24 0 45 -19 45 -45c0 -27 -22 -45 -45 -45zM30 0v69h368v249c0 111 -56 161 -157 161h-34v69h25c157 0 231 -80 231 -233v-315h-433z" />
    <glyph glyph-name="uni0688" unicode="&#x688;" horiz-adv-x="523" 
d="M144 634v192h52v-46h65c56 0 90 -32 90 -85v-61h-207zM196 676h102v25c0 25 -14 39 -42 39h-60v-64zM30 0v69h368v249c0 111 -56 161 -157 161h-34v69h25c157 0 231 -80 231 -233v-315h-433z" />
    <glyph glyph-name="uni0631" unicode="&#x631;" horiz-adv-x="295" 
d="M62 -220c-24 0 -51 4 -75 10l-5 60c28 -5 50 -7 74 -7c63 0 101 30 101 114v591h68v-581c0 -142 -55 -187 -163 -187z" />
    <glyph glyph-name="uni0632" unicode="&#x632;" horiz-adv-x="295" 
d="M192 691c-25 0 -47 18 -47 45c0 26 22 45 47 45c24 0 45 -19 45 -45c0 -27 -22 -45 -45 -45zM62 -220c-24 0 -51 4 -75 10l-5 60c28 -5 50 -7 74 -7c63 0 101 30 101 114v591h68v-581c0 -142 -55 -187 -163 -187z" />
    <glyph glyph-name="uni0691" unicode="&#x691;" horiz-adv-x="295" 
d="M87 634v192h52v-46h65c56 0 90 -32 90 -85v-61h-207zM139 676h102v25c0 25 -14 39 -42 39h-60v-64zM62 -220c-24 0 -51 4 -75 10l-5 60c28 -5 50 -7 74 -7c63 0 101 30 101 114v591h68v-581c0 -142 -55 -187 -163 -187z" />
    <glyph glyph-name="uni0698" unicode="&#x698;" horiz-adv-x="295" 
d="M191 796c-23 0 -44 18 -44 43c0 24 20 43 44 43c25 0 45 -19 45 -43c0 -25 -20 -43 -45 -43zM116 682c-24 0 -45 19 -45 44s20 45 45 45c26 0 46 -20 46 -45s-21 -44 -46 -44zM265 682c-25 0 -46 19 -46 44s20 45 46 45c25 0 45 -20 45 -45s-21 -44 -45 -44zM62 -220
c-24 0 -51 4 -75 10l-5 60c28 -5 50 -7 74 -7c63 0 101 30 101 114v591h68v-581c0 -142 -55 -187 -163 -187z" />
    <glyph glyph-name="uni0633" unicode="&#x633;" horiz-adv-x="1387" 
d="M1258 556h69v-320c0 -165 -82 -246 -237 -246c-101 0 -182 51 -205 133c-27 -78 -92 -123 -190 -123h-143v-125h-211c-186 0 -283 91 -283 262v342h69v-334c0 -146 90 -201 225 -201h132v535h68v-410h142c91 0 161 54 161 159v251h69v-260c0 -97 67 -159 166 -159
c105 0 168 56 168 170v326z" />
    <glyph glyph-name="uni0633.ss01" horiz-adv-x="1447" 
d="M1318 556h69v-320c0 -165 -82 -246 -237 -246c-101 0 -182 51 -205 133c-27 -78 -92 -123 -190 -123h-143v-125h-352c-95 0 -164 19 -235 62l23 59c63 -37 129 -52 209 -52h287v535h68v-410h142c91 0 161 54 161 159v251h69v-260c0 -97 67 -159 166 -159
c105 0 168 56 168 170v326z" />
    <glyph glyph-name="uniFEB2.ss01" horiz-adv-x="1543" 
d="M1543 69h20v-69h-20c-90 0 -154 42 -178 111c-34 -81 -106 -121 -215 -121c-101 0 -182 51 -205 133c-27 -78 -92 -123 -190 -123h-143v-125h-352c-95 0 -164 19 -235 62l23 59c63 -37 129 -52 209 -52h287v535h68v-410h142c91 0 161 54 161 159v251h69v-260
c0 -97 67 -159 166 -159c105 0 168 56 168 170v326h69v-311l1 3c0 -117 55 -179 155 -179z" />
    <glyph glyph-name="uni0634" unicode="&#x634;" horiz-adv-x="1387" 
d="M891 728c-23 0 -44 18 -44 43c0 24 20 43 44 43c25 0 45 -19 45 -43c0 -25 -20 -43 -45 -43zM816 614c-24 0 -45 19 -45 44s20 45 45 45c26 0 46 -20 46 -45s-21 -44 -46 -44zM919 658c0 25 20 45 46 45c25 0 45 -20 45 -45s-21 -44 -45 -44c-25 0 -46 19 -46 44z
M1258 556h69v-320c0 -165 -82 -246 -237 -246c-101 0 -182 51 -205 133c-27 -78 -92 -123 -190 -123h-143v-125h-211c-186 0 -283 91 -283 262v342h69v-334c0 -146 90 -201 225 -201h132v535h68v-410h142c91 0 161 54 161 159v251h69v-260c0 -97 67 -159 166 -159
c105 0 168 56 168 170v326z" />
    <glyph glyph-name="uni0634.ss01" horiz-adv-x="1447" 
d="M951 728c-23 0 -44 18 -44 43c0 24 20 43 44 43c25 0 45 -19 45 -43c0 -25 -20 -43 -45 -43zM876 614c-24 0 -45 19 -45 44s20 45 45 45c26 0 46 -20 46 -45s-21 -44 -46 -44zM979 658c0 25 20 45 46 45c25 0 45 -20 45 -45s-21 -44 -45 -44c-25 0 -46 19 -46 44z
M1318 556h69v-320c0 -165 -82 -246 -237 -246c-101 0 -182 51 -205 133c-27 -78 -92 -123 -190 -123h-143v-125h-352c-95 0 -164 19 -235 62l23 59c63 -37 129 -52 209 -52h287v535h68v-410h142c91 0 161 54 161 159v251h69v-260c0 -97 67 -159 166 -159
c105 0 168 56 168 170v326z" />
    <glyph glyph-name="uniFEB6.ss01" horiz-adv-x="1543" 
d="M951 728c-23 0 -44 18 -44 43c0 24 20 43 44 43c25 0 45 -19 45 -43c0 -25 -20 -43 -45 -43zM876 614c-24 0 -45 19 -45 44s20 45 45 45c26 0 46 -20 46 -45s-21 -44 -46 -44zM979 658c0 25 20 45 46 45c25 0 45 -20 45 -45s-21 -44 -45 -44c-25 0 -46 19 -46 44z
M1543 69h20v-69h-20c-90 0 -154 42 -178 111c-34 -81 -106 -121 -215 -121c-101 0 -182 51 -205 133c-27 -78 -92 -123 -190 -123h-143v-125h-352c-95 0 -164 19 -235 62l23 59c63 -37 129 -52 209 -52h287v535h68v-410h142c91 0 161 54 161 159v251h69v-260
c0 -97 67 -159 166 -159c105 0 168 56 168 170v326h69v-311l1 3c0 -117 55 -179 155 -179z" />
    <glyph glyph-name="uni0635" unicode="&#x635;" horiz-adv-x="1155" 
d="M1095 284v-284h-543v-125h-211c-186 0 -283 91 -283 262v342h69v-334c0 -146 90 -201 225 -201h132v656h68v-52h261c186 -1 282 -92 282 -264zM1026 69v225c0 132 -82 184 -208 185h-266v-410h474z" />
    <glyph glyph-name="uni0635.ss01" horiz-adv-x="1215" 
d="M1155 284v-284h-543v-125h-352c-95 0 -164 19 -235 62l23 59c63 -37 129 -52 209 -52h287v656h68v-52h261c186 -1 282 -92 282 -264zM1086 69v225c0 132 -82 184 -208 185h-266v-410h474z" />
    <glyph glyph-name="uniFEBA.ss01" horiz-adv-x="1262" 
d="M1155 69h127v-69h-670v-125h-352c-95 0 -164 19 -235 62l23 59c63 -37 129 -52 209 -52h287v656h68v-52h261c186 -1 282 -92 282 -264v-215zM1086 69v225c0 132 -82 184 -208 185h-266v-410h474z" />
    <glyph glyph-name="uni0636" unicode="&#x636;" horiz-adv-x="1155" 
d="M804 691c-25 0 -47 18 -47 45c0 26 22 45 47 45c24 0 45 -19 45 -45c0 -27 -22 -45 -45 -45zM1095 284v-284h-543v-125h-211c-186 0 -283 91 -283 262v342h69v-334c0 -146 90 -201 225 -201h132v656h68v-52h261c186 -1 282 -92 282 -264zM1026 69v225
c0 132 -82 184 -208 185h-266v-410h474z" />
    <glyph glyph-name="uni0636.ss01" horiz-adv-x="1215" 
d="M864 691c-25 0 -47 18 -47 45c0 26 22 45 47 45c24 0 45 -19 45 -45c0 -27 -22 -45 -45 -45zM1155 284v-284h-543v-125h-352c-95 0 -164 19 -235 62l23 59c63 -37 129 -52 209 -52h287v656h68v-52h261c186 -1 282 -92 282 -264zM1086 69v225c0 132 -82 184 -208 185h-266
v-410h474z" />
    <glyph glyph-name="uniFEBE.ss01" horiz-adv-x="1262" 
d="M864 691c-25 0 -47 18 -47 45c0 26 22 45 47 45c24 0 45 -19 45 -45c0 -27 -22 -45 -45 -45zM1155 69h127v-69h-670v-125h-352c-95 0 -164 19 -235 62l23 59c63 -37 129 -52 209 -52h287v656h68v-52h261c186 -1 282 -92 282 -264v-215zM1086 69v225
c0 132 -82 184 -208 185h-266v-410h474z" />
    <glyph glyph-name="uni0637" unicode="&#x637;" horiz-adv-x="834" 
d="M492 548c186 -1 282 -92 282 -264v-284h-744l15 69h118v742h68v-263h261zM705 69v225c0 132 -82 184 -208 185h-266v-410h474z" />
    <glyph glyph-name="uni0638" unicode="&#x638;" horiz-adv-x="834" 
d="M492 548c186 -1 282 -92 282 -264v-284h-744l15 69h118v742h68v-263h261zM491 691c-25 0 -47 18 -47 45c0 26 22 45 47 45c24 0 45 -19 45 -45c0 -27 -22 -45 -45 -45zM705 69v225c0 132 -82 184 -208 185h-266v-410h474z" />
    <glyph glyph-name="uni0639" unicode="&#x639;" horiz-adv-x="665" 
d="M607 69v-69h-359c-86 0 -125 -40 -125 -125v-95h-65v112c0 104 49 164 141 175c-44 95 -63 171 -63 232c0 165 100 259 248 259c56 0 119 -17 198 -52l-23 -63c-71 31 -121 46 -170 46c-112 0 -187 -74 -187 -200c0 -65 28 -146 77 -220h328z" />
    <glyph glyph-name="uni063A" unicode="&#x63a;" horiz-adv-x="665" 
d="M388 701c-25 0 -47 18 -47 45c0 26 22 45 47 45c24 0 45 -19 45 -45c0 -27 -22 -45 -45 -45zM606 69v-69h-359c-86 0 -125 -40 -125 -125v-95h-65v112c0 104 49 164 141 175c-44 95 -63 171 -63 232c0 165 100 259 248 259c56 0 119 -17 198 -52l-23 -63
c-71 31 -121 46 -170 46c-112 0 -187 -74 -187 -200c0 -65 28 -146 77 -220h328z" />
    <glyph glyph-name="uni0641" unicode="&#x641;" horiz-adv-x="972" 
d="M763 691c-25 0 -47 18 -47 45c0 26 22 45 47 45c24 0 45 -19 45 -45c0 -27 -22 -45 -45 -45zM769 548h132v-548h-4h-136h-421c-192 0 -283 91 -283 264v192h68v-185c0 -146 90 -202 229 -202h192c-58 48 -91 117 -91 202v1c0 166 125 276 314 276zM756 69h76v410h-76
c-139 0 -235 -80 -235 -207v-1c0 -122 96 -202 235 -202z" />
    <glyph glyph-name="uni0641.ss01" horiz-adv-x="905" 
d="M696 691c-25 0 -47 18 -47 45c0 26 22 45 47 45c24 0 45 -19 45 -45c0 -27 -22 -45 -45 -45zM704 548h131v-548h-3h-137h-427c-100 0 -172 21 -243 65l29 56c64 -37 129 -52 208 -52h219c-58 48 -91 117 -91 202v1c0 166 124 276 314 276zM691 69h76v410h-76
c-140 0 -235 -80 -235 -207v-1c0 -122 95 -202 235 -202z" />
    <glyph glyph-name="uniFED2.ss01" horiz-adv-x="942" 
d="M696 691c-25 0 -47 18 -47 45c0 26 22 45 47 45c24 0 45 -19 45 -45c0 -27 -22 -45 -45 -45zM835 69h127v-69h-130h-6h-131h-427c-100 0 -172 21 -243 65l29 56c64 -37 129 -52 208 -52h219c-58 48 -91 117 -91 202v1c0 166 124 276 314 276h131v-479zM691 69h76v410h-76
c-140 0 -235 -80 -235 -207v-1c0 -122 95 -202 235 -202z" />
    <glyph glyph-name="uni06A4" unicode="&#x6a4;" horiz-adv-x="972" 
d="M762 796c-23 0 -44 18 -44 43c0 24 20 43 44 43c25 0 45 -19 45 -43c0 -25 -20 -43 -45 -43zM687 682c-24 0 -45 19 -45 44s20 45 45 45c26 0 46 -20 46 -45s-21 -44 -46 -44zM790 726c0 25 20 45 46 45c25 0 45 -20 45 -45s-21 -44 -45 -44c-25 0 -46 19 -46 44z
M769 548h132v-548h-4h-136h-421c-192 0 -283 91 -283 264v192h68v-185c0 -146 90 -202 229 -202h192c-58 48 -91 117 -91 202v1c0 166 125 276 314 276zM756 69h76v410h-76c-139 0 -235 -80 -235 -207v-1c0 -122 96 -202 235 -202z" />
    <glyph glyph-name="uni06A4.ss01" horiz-adv-x="905" 
d="M695 796c-23 0 -44 18 -44 43c0 24 20 43 44 43c25 0 45 -19 45 -43c0 -25 -20 -43 -45 -43zM620 682c-24 0 -45 19 -45 44s20 45 45 45c26 0 46 -20 46 -45s-21 -44 -46 -44zM723 726c0 25 20 45 46 45c25 0 45 -20 45 -45s-21 -44 -45 -44c-25 0 -46 19 -46 44z
M704 548h131v-548h-3h-137h-427c-100 0 -172 21 -243 65l29 56c64 -37 129 -52 208 -52h219c-58 48 -91 117 -91 202v1c0 166 124 276 314 276zM691 69h76v410h-76c-140 0 -235 -80 -235 -207v-1c0 -122 95 -202 235 -202z" />
    <glyph glyph-name="uniFB6B.ss01" horiz-adv-x="1009" 
d="M762 796c-23 0 -44 18 -44 43c0 24 20 43 44 43c25 0 45 -19 45 -43c0 -25 -20 -43 -45 -43zM687 682c-24 0 -45 19 -45 44s20 45 45 45c26 0 46 -20 46 -45s-21 -44 -46 -44zM790 726c0 25 20 45 46 45c25 0 45 -20 45 -45s-21 -44 -45 -44c-25 0 -46 19 -46 44zM901 69
h127v-69h-131h-6h-130h-421c-192 0 -283 91 -283 264v192h68v-185c0 -146 90 -202 229 -202h192c-58 48 -91 117 -91 202v1c0 166 125 276 314 276h132v-479zM756 69h76v410h-76c-139 0 -235 -80 -235 -207v-1c0 -122 96 -202 235 -202z" />
    <glyph glyph-name="uni06A1" unicode="&#x6a1;" horiz-adv-x="972" 
d="M770 548h132v-548h-4h-136h-421c-192 0 -283 91 -283 264v192h68v-185c0 -146 90 -202 229 -202h192c-58 48 -91 117 -91 202v1c0 166 125 276 314 276zM757 69h76v410h-76c-139 0 -235 -80 -235 -207v-1c0 -122 96 -202 235 -202z" />
    <glyph glyph-name="uni06A1.ss01" horiz-adv-x="905" 
d="M704 548h131v-548h-3h-137h-427c-100 0 -172 21 -243 65l29 56c64 -37 129 -52 208 -52h219c-58 48 -91 117 -91 202v1c0 166 124 276 314 276zM691 69h76v410h-76c-140 0 -235 -80 -235 -207v-1c0 -122 95 -202 235 -202z" />
    <glyph glyph-name="uni06A1.fina.ss01" horiz-adv-x="942" 
d="M835 69h127v-69h-130h-6h-131h-427c-100 0 -172 21 -243 65l29 56c64 -37 129 -52 208 -52h219c-58 48 -91 117 -91 202v1c0 166 124 276 314 276h131v-479zM691 69h76v410h-76c-140 0 -235 -80 -235 -207v-1c0 -122 95 -202 235 -202z" />
    <glyph glyph-name="uni066F" unicode="&#x66f;" horiz-adv-x="819" 
d="M617 548h132v-768h-408c-190 0 -283 89 -283 264v229h68v-222c0 -148 93 -202 229 -202h325v161h-71c-182 0 -306 100 -306 261v1c0 166 125 276 314 276zM604 69h76v410h-76c-139 0 -235 -80 -235 -207v-1c0 -122 97 -202 235 -202z" />
    <glyph glyph-name="uni066F.ss01" horiz-adv-x="799" 
d="M597 548h132v-768h-461c-100 0 -172 21 -243 65l29 56c64 -38 129 -52 208 -52h398v161h-71c-183 0 -306 100 -306 261v1c0 166 125 276 314 276zM584 69h76v410h-76c-139 0 -235 -80 -235 -207v-1c0 -122 96 -202 235 -202z" />
    <glyph glyph-name="uni066F.fina.ss01" horiz-adv-x="836" 
d="M856 69v-69h-127v-220h-461c-100 0 -172 21 -243 65l29 56c64 -38 129 -52 208 -52h398v161h-71c-183 0 -306 100 -306 261v1c0 166 125 276 314 276h132v-479h127zM584 69h76v410h-76c-139 0 -235 -80 -235 -207v-1c0 -122 96 -202 235 -202z" />
    <glyph glyph-name="uni0642" unicode="&#x642;" horiz-adv-x="819" 
d="M534 681c-25 0 -46 19 -46 45c0 25 21 45 46 45s46 -20 46 -45c0 -26 -21 -45 -46 -45zM683 681c-25 0 -46 19 -46 45c0 25 20 45 46 45c25 0 46 -20 46 -45c0 -26 -21 -45 -46 -45zM617 548h132v-768h-408c-190 0 -283 89 -283 264v229h68v-222c0 -148 93 -202 229 -202
h325v161h-71c-182 0 -306 100 -306 261v1c0 166 125 276 314 276zM604 69h76v410h-76c-139 0 -235 -80 -235 -207v-1c0 -122 97 -202 235 -202z" />
    <glyph glyph-name="uni0642.ss01" horiz-adv-x="799" 
d="M514 681c-25 0 -46 19 -46 45c0 25 21 45 46 45s46 -20 46 -45c0 -26 -21 -45 -46 -45zM663 681c-25 0 -46 19 -46 45c0 25 20 45 46 45c25 0 46 -20 46 -45c0 -26 -21 -45 -46 -45zM596 548h132v-768h-461c-100 0 -172 21 -243 65l29 56c64 -38 129 -52 208 -52h398v161
h-71c-183 0 -306 100 -306 261v1c0 166 125 276 314 276zM583 69h76v410h-76c-139 0 -235 -80 -235 -207v-1c0 -122 96 -202 235 -202z" />
    <glyph glyph-name="uniFED6.ss01" horiz-adv-x="836" 
d="M513 681c-25 0 -46 19 -46 45c0 25 21 45 46 45s46 -20 46 -45c0 -26 -21 -45 -46 -45zM662 681c-25 0 -46 19 -46 45c0 25 20 45 46 45c25 0 46 -20 46 -45c0 -26 -21 -45 -46 -45zM856 69v-69h-127v-220h-461c-100 0 -172 21 -243 65l29 56c64 -38 129 -52 208 -52h398
v161h-71c-183 0 -306 100 -306 261v1c0 166 125 276 314 276h132v-479h127zM584 69h76v410h-76c-139 0 -235 -80 -235 -207v-1c0 -122 96 -202 235 -202z" />
    <glyph glyph-name="uni0643" unicode="&#x643;" horiz-adv-x="798" 
d="M637 811h68v-811h-365c-192 0 -283 91 -283 264v192h68v-185c0 -146 90 -202 229 -202h283v742zM485 520v-64h-206v48h164v23c0 25 -16 40 -42 40h-102c-6 11 -12 25 -15 38l61 78h54l-67 -78h73c52 0 80 -30 80 -85z" />
    <glyph glyph-name="uni0643.ss01" horiz-adv-x="778" 
d="M618 811h69v-811h-419c-100 0 -172 21 -243 65l29 56c64 -37 129 -52 208 -52h356v742zM449 413v-64h-206v48h164v23c0 25 -16 40 -42 40h-102c-6 11 -12 25 -15 38l61 78h54l-67 -78h73c52 0 80 -30 80 -85z" />
    <glyph glyph-name="uniFEDA.ss01" horiz-adv-x="793" 
d="M687 69h126v-69h-545c-100 0 -172 21 -243 65l29 56c64 -37 129 -52 208 -52h356v742h69v-742zM449 413v-64h-206v48h164v23c0 25 -16 40 -42 40h-102c-6 11 -12 25 -15 38l61 78h54l-67 -78h73c52 0 80 -30 80 -85z" />
    <glyph glyph-name="uniFEDB.alt" horiz-adv-x="749" 
d="M0 0v69h619v201c0 108 -58 156 -155 156h-274c-12 16 -23 40 -25 69l161 316h84l-168 -316h216c153 0 231 -77 231 -233v-262h-689z" />
    <glyph glyph-name="uni06A9" unicode="&#x6a9;" horiz-adv-x="878" 
d="M341 0c-192 0 -283 91 -283 264v192h68v-185c0 -146 90 -202 229 -202h393v201c0 108 -58 156 -155 156h-230c-12 16 -24 40 -26 69l161 317h84l-167 -317h172c153 0 231 -77 231 -233v-262h-477z" />
    <glyph glyph-name="uni06A9.ss01" horiz-adv-x="865" 
d="M268 0c-100 0 -172 21 -243 65l29 56c64 -37 129 -52 208 -52h473v201c0 108 -57 156 -154 156h-274c-13 16 -24 40 -26 69l161 316h84l-167 -316h215c153 0 231 -77 231 -233v-262h-537z" />
    <glyph glyph-name="uniFB8F.ss01" horiz-adv-x="912" 
d="M805 69h127v-69h-664c-100 0 -172 21 -243 65l29 56c64 -37 129 -52 208 -52h473v201c0 108 -57 156 -154 156h-274c-13 16 -24 40 -26 69l161 316h84l-167 -316h215c153 0 231 -77 231 -233v-193z" />
    <glyph glyph-name="uni06AF" unicode="&#x6af;" horiz-adv-x="878" 
d="M154 489l170 326h69l-169 -326h-70zM340 0c-192 0 -283 91 -283 264v192h68v-185c0 -146 90 -202 229 -202h393v201c0 108 -58 156 -155 156h-230c-12 16 -24 40 -26 69l161 317h84l-167 -317h172c153 0 231 -77 231 -233v-262h-477z" />
    <glyph glyph-name="uni06AF.ss01" horiz-adv-x="865" 
d="M99 489l170 326h69l-169 -326h-70zM268 0c-100 0 -172 21 -243 65l29 56c64 -37 129 -52 208 -52h473v201c0 108 -57 156 -154 156h-274c-13 16 -24 40 -26 69l161 316h84l-167 -316h215c153 0 231 -77 231 -233v-262h-537z" />
    <glyph glyph-name="uniFB93.ss01" horiz-adv-x="912" 
d="M338 815l-169 -326h-70l170 326h69zM805 69h127v-69h-664c-100 0 -172 21 -243 65l29 56c64 -37 129 -52 208 -52h473v201c0 108 -57 156 -154 156h-274c-13 16 -24 40 -26 69l161 316h84l-167 -316h215c153 0 231 -77 231 -233v-193z" />
    <glyph glyph-name="uni06AA" unicode="&#x6aa;" horiz-adv-x="878" 
d="M340 0c-192 0 -283 91 -283 264v192h68v-185c0 -146 90 -202 229 -202h393v201c0 108 -58 156 -155 156h-230c-12 16 -24 40 -26 69l161 317h84l-167 -317h172c153 0 231 -77 231 -233v-262h-477z" />
    <glyph glyph-name="uni0644" unicode="&#x644;" horiz-adv-x="644" 
d="M341 -125c-186 0 -283 91 -283 262v342h69v-334c0 -146 90 -201 225 -201h132v867h68v-936h-211z" />
    <glyph glyph-name="uni0644.ss01" horiz-adv-x="704" 
d="M260 -125c-95 0 -164 19 -235 62l23 59c63 -37 129 -52 209 -52h287v867h68v-936h-352z" />
    <glyph glyph-name="uniFEDE.ss01" horiz-adv-x="719" 
d="M739 69v-69h-127v-125h-352c-95 0 -164 19 -235 62l23 59c63 -37 129 -52 209 -52h287v867h68v-742h127z" />
    <glyph glyph-name="uni0645" unicode="&#x645;" horiz-adv-x="875" 
d="M560 479c160 0 267 -117 267 -295v-1c0 -173 -107 -291 -267 -291h-1c-151 0 -254 102 -267 258c-108 -3 -166 -76 -166 -201v-169h-68v179c0 166 86 257 234 260c14 158 117 260 267 260h1zM758 185v1c0 134 -79 224 -198 224h-1c-119 0 -199 -90 -199 -224v-1
c0 -134 80 -223 199 -223h1c119 0 198 90 198 223z" />
    </font>
</defs>
</svg>
